<svg viewBox="-11.791661 -3.950001 259.4165 86.90001" xmlns="http://www.w3.org/2000/svg" xmlns:xlink="http://www.w3.org/1999/xlink">
<g id="bin_0">
<path d="M0,0 L235.83318,0 L235.83318,79 L0,79 z" fill="#D3D3D3" stroke="black" stroke-width="0.43450004"/>
<title>bin, id: 0, bbox: [x_min: 0.000, y_min: 0.000, x_max: 235.833, y_max: 79.000]</title>
</g>
<g id="items">
<defs>
<g id="item_0">
<path d="M0,0 L12,-1 L14,-3.0000005 L24,0 L33,1 L59,2 L59,13 L4,13 L4,8 L2,5 L0,5 z" fill="#7A7A7A" fill-opacity="0.5" fill-rule="nonzero" stroke="black" stroke-width="0.21725002"/>
</g>
<g id="item_1">
<path d="M0,0 L0,-14 L27,-17 L37,-20 L41,-22 L47,-19 L56,-16 L56,0 z" fill="#7A7A7A" fill-opacity="0.5" fill-rule="nonzero" stroke="black" stroke-width="0.21725002"/>
</g>
<g id="item_2">
<path d="M0,0 L57,0 L57,5 L0,5 z" fill="#7A7A7A" fill-opacity="0.5" fill-rule="nonzero" stroke="black" stroke-width="0.21725002"/>
</g>
<g id="item_3">
<path d="M0,0 L52,0 L52,5 L0,5 z" fill="#7A7A7A" fill-opacity="0.5" fill-rule="nonzero" stroke="black" stroke-width="0.21725002"/>
</g>
<g id="item_4">
<path d="M0,0 L44,0 L44,5 L0,5 z" fill="#7A7A7A" fill-opacity="0.5" fill-rule="nonzero" stroke="black" stroke-width="0.21725002"/>
</g>
<g id="item_5">
<path d="M0,0 L42,0 L42,5 L0,5 z" fill="#7A7A7A" fill-opacity="0.5" fill-rule="nonzero" stroke="black" stroke-width="0.21725002"/>
</g>
<g id="item_6">
<path d="M0,0 L21,0 L21,2 L0,2 z" fill="#7A7A7A" fill-opacity="0.5" fill-rule="nonzero" stroke="black" stroke-width="0.21725002"/>
</g>
<g id="item_7">
<path d="M0,0 L15,4 L13,7 L0,6 z" fill="#7A7A7A" fill-opacity="0.5" fill-rule="nonzero" stroke="black" stroke-width="0.21725002"/>
</g>
<g id="item_8">
<path d="M0,0 L15,1 L15,4 L0,4 z" fill="#7A7A7A" fill-opacity="0.5" fill-rule="nonzero" stroke="black" stroke-width="0.21725002"/>
</g>
<g id="item_9">
<path d="M0,0 L14,0 L14,5 L0,5 z" fill="#7A7A7A" fill-opacity="0.5" fill-rule="nonzero" stroke="black" stroke-width="0.21725002"/>
</g>
<g id="item_10">
<path d="M0,0 L14,1 L14,4 L0,4 z" fill="#7A7A7A" fill-opacity="0.5" fill-rule="nonzero" stroke="black" stroke-width="0.21725002"/>
</g>
<g id="item_11">
<path d="M0,0 L13,0 L13,5 L0,5 z" fill="#7A7A7A" fill-opacity="0.5" fill-rule="nonzero" stroke="black" stroke-width="0.21725002"/>
</g>
<g id="item_12">
<path d="M0,0 L13,1 L13,4 L0,4 z" fill="#7A7A7A" fill-opacity="0.5" fill-rule="nonzero" stroke="black" stroke-width="0.21725002"/>
</g>
<g id="item_13">
<path d="M0,0 L12,0 L12,5 L0,5 z" fill="#7A7A7A" fill-opacity="0.5" fill-rule="nonzero" stroke="black" stroke-width="0.21725002"/>
</g>
<g id="item_14">
<path d="M0,0 L4,2 L6,10 L4,11 L-4,11 L-6,10 L-4,2 z" fill="#7A7A7A" fill-opacity="0.5" fill-rule="nonzero" stroke="black" stroke-width="0.21725002"/>
</g>
<g id="item_15">
<path d="M0,0 L3,-2 L8,0 L8,8 L2,8 z" fill="#7A7A7A" fill-opacity="0.5" fill-rule="nonzero" stroke="black" stroke-width="0.21725002"/>
</g>
<g id="item_16">
<path d="M0,0 L2,1 L3,6 L2,7 L-2,7 L-3,6 L-2,1 z" fill="#7A7A7A" fill-opacity="0.5" fill-rule="nonzero" stroke="black" stroke-width="0.21725002"/>
</g>
</defs>
<use transform="translate(115.06676 39.030506), rotate(0)" xlink:href="#item_1">
<title>item, id: 1, transf: [r: 0.000°, t: (115.067, 39.031)]</title>
</use>
<use transform="translate(123.00647 0.0032081604), rotate(-180)" xlink:href="#item_1">
<title>item, id: 1, transf: [r: -180.000°, t: (123.006, 0.003)]</title>
</use>
<use transform="translate(56.001953 36.912148), rotate(-180)" xlink:href="#item_1">
<title>item, id: 1, transf: [r: -180.000°, t: (56.002, 36.912)]</title>
</use>
<use transform="translate(179.01027 0.0021648407), rotate(-180)" xlink:href="#item_1">
<title>item, id: 1, transf: [r: -180.000°, t: (179.010, 0.002)]</title>
</use>
<use transform="translate(59.05981 39.10609), rotate(0)" xlink:href="#item_1">
<title>item, id: 1, transf: [r: 0.000°, t: (59.060, 39.106)]</title>
</use>
<use transform="translate(235.83234 42.140686), rotate(-180)" xlink:href="#item_1">
<title>item, id: 1, transf: [r: -180.000°, t: (235.832, 42.141)]</title>
</use>
<use transform="translate(235.01872 0.00009441376), rotate(-180)" xlink:href="#item_1">
<title>item, id: 1, transf: [r: -180.000°, t: (235.019, 0.000)]</title>
</use>
<use transform="translate(61.83093 78.99828), rotate(0)" xlink:href="#item_1">
<title>item, id: 1, transf: [r: 0.000°, t: (61.831, 78.998)]</title>
</use>
<use transform="translate(59.0057 13.000664), rotate(-180)" xlink:href="#item_0">
<title>item, id: 0, transf: [r: -180.000°, t: (59.006, 13.001)]</title>
</use>
<use transform="translate(115.649216 52.10618), rotate(-180)" xlink:href="#item_0">
<title>item, id: 0, transf: [r: -180.000°, t: (115.649, 52.106)]</title>
</use>
<use transform="translate(175.75797 24.140106), rotate(0)" xlink:href="#item_0">
<title>item, id: 0, transf: [r: 0.000°, t: (175.758, 24.140)]</title>
</use>
<use transform="translate(117.83231 65.99912), rotate(0)" xlink:href="#item_0">
<title>item, id: 0, transf: [r: 0.000°, t: (117.832, 65.999)]</title>
</use>
<use transform="translate(176.83293 65.99221), rotate(0)" xlink:href="#item_0">
<title>item, id: 0, transf: [r: 0.000°, t: (176.833, 65.992)]</title>
</use>
<use transform="translate(175.56123 64.40394), rotate(-180)" xlink:href="#item_0">
<title>item, id: 0, transf: [r: -180.000°, t: (175.561, 64.404)]</title>
</use>
<use transform="translate(2.830429 60.998463), rotate(0)" xlink:href="#item_0">
<title>item, id: 0, transf: [r: 0.000°, t: (2.830, 60.998)]</title>
</use>
<use transform="translate(0.005428314 23.910501), rotate(0)" xlink:href="#item_0">
<title>item, id: 0, transf: [r: 0.000°, t: (0.005, 23.911)]</title>
</use>
<use transform="translate(57.008125 78.99951), rotate(-180)" xlink:href="#item_2">
<title>item, id: 2, transf: [r: -180.000°, t: (57.008, 79.000)]</title>
</use>
<use transform="translate(168.5775 51.40385), rotate(-180)" xlink:href="#item_3">
<title>item, id: 3, transf: [r: -180.000°, t: (168.577, 51.404)]</title>
</use>
<use transform="translate(157.20451 46.3345), rotate(-180)" xlink:href="#item_4">
<title>item, id: 4, transf: [r: -180.000°, t: (157.205, 46.334)]</title>
</use>
<use transform="translate(235.49234 42.140476), rotate(-180)" xlink:href="#item_5">
<title>item, id: 5, transf: [r: -180.000°, t: (235.492, 42.140)]</title>
</use>
<use transform="translate(23.95774 23.225456), rotate(-180)" xlink:href="#item_14">
<title>item, id: 14, transf: [r: -180.000°, t: (23.958, 23.225)]</title>
</use>
<use transform="translate(229.83305 14.7959175), rotate(0)" xlink:href="#item_14">
<title>item, id: 14, transf: [r: 0.000°, t: (229.833, 14.796)]</title>
</use>
<use transform="translate(51.71326 14.474531), rotate(0)" xlink:href="#item_14">
<title>item, id: 14, transf: [r: 0.000°, t: (51.713, 14.475)]</title>
</use>
<use transform="translate(81.62531 51.350643), rotate(0)" xlink:href="#item_14">
<title>item, id: 14, transf: [r: 0.000°, t: (81.625, 51.351)]</title>
</use>
<use transform="translate(71.47567 63.911488), rotate(-180)" xlink:href="#item_14">
<title>item, id: 14, transf: [r: -180.000°, t: (71.476, 63.911)]</title>
</use>
<use transform="translate(6.000722 12.069275), rotate(0)" xlink:href="#item_14">
<title>item, id: 14, transf: [r: 0.000°, t: (6.001, 12.069)]</title>
</use>
<use transform="translate(53.456974 51.519157), rotate(0)" xlink:href="#item_14">
<title>item, id: 14, transf: [r: 0.000°, t: (53.457, 51.519)]</title>
</use>
<use transform="translate(33.400826 13.509794), rotate(0)" xlink:href="#item_14">
<title>item, id: 14, transf: [r: 0.000°, t: (33.401, 13.510)]</title>
</use>
<use transform="translate(210.60083 16.713634), rotate(0)" xlink:href="#item_9">
<title>item, id: 9, transf: [r: 0.000°, t: (210.601, 16.714)]</title>
</use>
<use transform="translate(119.03188 16.058512), rotate(0)" xlink:href="#item_7">
<title>item, id: 7, transf: [r: 0.000°, t: (119.032, 16.059)]</title>
</use>
<use transform="translate(116.548904 60.636375), rotate(-180)" xlink:href="#item_7">
<title>item, id: 7, transf: [r: -180.000°, t: (116.549, 60.636)]</title>
</use>
<use transform="translate(118.93447 22.902798), rotate(-180)" xlink:href="#item_7">
<title>item, id: 7, transf: [r: -180.000°, t: (118.934, 22.903)]</title>
</use>
<use transform="translate(86.68974 51.561195), rotate(0)" xlink:href="#item_7">
<title>item, id: 7, transf: [r: 0.000°, t: (86.690, 51.561)]</title>
</use>
<use transform="translate(174.83823 16.0568), rotate(0)" xlink:href="#item_7">
<title>item, id: 7, transf: [r: 0.000°, t: (174.838, 16.057)]</title>
</use>
<use transform="translate(63.363033 16.182404), rotate(0)" xlink:href="#item_7">
<title>item, id: 7, transf: [r: 0.000°, t: (63.363, 16.182)]</title>
</use>
<use transform="translate(174.83563 22.913218), rotate(-180)" xlink:href="#item_7">
<title>item, id: 7, transf: [r: -180.000°, t: (174.836, 22.913)]</title>
</use>
<use transform="translate(175.56578 58.010014), rotate(0)" xlink:href="#item_7">
<title>item, id: 7, transf: [r: 0.000°, t: (175.566, 58.010)]</title>
</use>
<use transform="translate(193.3668 42.14052), rotate(-180)" xlink:href="#item_11">
<title>item, id: 11, transf: [r: -180.000°, t: (193.367, 42.141)]</title>
</use>
<use transform="translate(229.36403 66.82863), rotate(-180)" xlink:href="#item_6">
<title>item, id: 6, transf: [r: -180.000°, t: (229.364, 66.829)]</title>
</use>
<use transform="translate(22.600147 56.362164), rotate(0)" xlink:href="#item_6">
<title>item, id: 6, transf: [r: 0.000°, t: (22.600, 56.362)]</title>
</use>
<use transform="translate(174.66615 41.031857), rotate(-180)" xlink:href="#item_6">
<title>item, id: 6, transf: [r: -180.000°, t: (174.666, 41.032)]</title>
</use>
<use transform="translate(197.59727 62.82752), rotate(0)" xlink:href="#item_6">
<title>item, id: 6, transf: [r: 0.000°, t: (197.597, 62.828)]</title>
</use>
<use transform="translate(56.482643 50.90758), rotate(0)" xlink:href="#item_6">
<title>item, id: 6, transf: [r: 0.000°, t: (56.483, 50.908)]</title>
</use>
<use transform="translate(111.65524 39.329697), rotate(0)" xlink:href="#item_6">
<title>item, id: 6, transf: [r: 0.000°, t: (111.655, 39.330)]</title>
</use>
<use transform="translate(48.686695 56.340607), rotate(-180)" xlink:href="#item_6">
<title>item, id: 6, transf: [r: -180.000°, t: (48.687, 56.341)]</title>
</use>
<use transform="translate(153.65552 41.33124), rotate(-180)" xlink:href="#item_6">
<title>item, id: 6, transf: [r: -180.000°, t: (153.656, 41.331)]</title>
</use>
<use transform="translate(45.663456 62.36409), rotate(-180)" xlink:href="#item_8">
<title>item, id: 8, transf: [r: -180.000°, t: (45.663, 62.364)]</title>
</use>
<use transform="translate(67.00644 5.000599), rotate(-180)" xlink:href="#item_13">
<title>item, id: 13, transf: [r: -180.000°, t: (67.006, 5.001)]</title>
</use>
<use transform="translate(169.20557 46.03673), rotate(-180)" xlink:href="#item_13">
<title>item, id: 13, transf: [r: -180.000°, t: (169.206, 46.037)]</title>
</use>
<use transform="translate(19.566431 19.678751), rotate(-180)" xlink:href="#item_15">
<title>item, id: 15, transf: [r: -180.000°, t: (19.566, 19.679)]</title>
</use>
<use transform="translate(179.59276 56.192177), rotate(-180)" xlink:href="#item_15">
<title>item, id: 15, transf: [r: -180.000°, t: (179.593, 56.192)]</title>
</use>
<use transform="translate(55.36298 15.0591545), rotate(0)" xlink:href="#item_15">
<title>item, id: 15, transf: [r: 0.000°, t: (55.363, 15.059)]</title>
</use>
<use transform="translate(227.8326 58.69864), rotate(0)" xlink:href="#item_15">
<title>item, id: 15, transf: [r: 0.000°, t: (227.833, 58.699)]</title>
</use>
<use transform="translate(179.47437 37.715096), rotate(-180)" xlink:href="#item_15">
<title>item, id: 15, transf: [r: -180.000°, t: (179.474, 37.715)]</title>
</use>
<use transform="translate(67.46199 62.032585), rotate(-180)" xlink:href="#item_15">
<title>item, id: 15, transf: [r: -180.000°, t: (67.462, 62.033)]</title>
</use>
<use transform="translate(37.705612 16.717602), rotate(0)" xlink:href="#item_15">
<title>item, id: 15, transf: [r: 0.000°, t: (37.706, 16.718)]</title>
</use>
<use transform="translate(67.0059 13.05722), rotate(-180)" xlink:href="#item_15">
<title>item, id: 15, transf: [r: -180.000°, t: (67.006, 13.057)]</title>
</use>
<use transform="translate(222.98706 63.134735), rotate(-180)" xlink:href="#item_10">
<title>item, id: 10, transf: [r: -180.000°, t: (222.987, 63.135)]</title>
</use>
<use transform="translate(223.6812 25.71375), rotate(-180)" xlink:href="#item_12">
<title>item, id: 12, transf: [r: -180.000°, t: (223.681, 25.714)]</title>
</use>
<use transform="translate(210.46178 24.333849), rotate(-180)" xlink:href="#item_12">
<title>item, id: 12, transf: [r: -180.000°, t: (210.462, 24.334)]</title>
</use>
<use transform="translate(3.8097334 66.96306), rotate(0)" xlink:href="#item_16">
<title>item, id: 16, transf: [r: 0.000°, t: (3.810, 66.963)]</title>
</use>
<use transform="translate(225.86285 57.825504), rotate(0)" xlink:href="#item_16">
<title>item, id: 16, transf: [r: 0.000°, t: (225.863, 57.826)]</title>
</use>
<use transform="translate(171.97647 41.18824), rotate(0)" xlink:href="#item_16">
<title>item, id: 16, transf: [r: 0.000°, t: (171.976, 41.188)]</title>
</use>
<use transform="translate(176.89938 47.798706), rotate(-180)" xlink:href="#item_16">
<title>item, id: 16, transf: [r: -180.000°, t: (176.899, 47.799)]</title>
</use>
</g>
<g id="quality_zones"/>
<g id="optionals">
<g id="overlap_lines" transform="translate(0 0), rotate(0)"/>
</g>
<text font-family="monospace" font-size="1.975" font-weight="500" x="0" y="-0.9875">
height: 79.000 | width: 235.833 | usage: 92.355% | final_best
</text>
</svg>