<svg viewBox="-2.971428 -2.0000005 65.3714 44" xmlns="http://www.w3.org/2000/svg">
<g id="container_0">
<path d="M0,0 L59.428543,0 L59.428543,40 L0,40 z" fill="#D3D3D3" stroke="black" stroke-width="0.22000001"/>
<title>container, id: 0, bbox: [x_min: 0.000, y_min: 0.000, x_max: 59.429, y_max: 40.000]</title>
</g>
<g id="items">
<defs>
<g id="item_0">
<path d="M0,0 L7,1 L7,5 L0,7 L-1,5 L-1,4 L-2,3 L-1,2 z" fill="#7A7A7A" fill-opacity="0.5" fill-rule="nonzero" stroke="black" stroke-width="0.11000001"/>
</g>
<path d="M0,0 L7,1 L7,5 L0,7 L-1,5 L-1,4 L-1.9999998,3 L-1,2 z" fill="none" id="cd_shape_0" stroke="black" stroke-dasharray="0.11000001 0.22000001" stroke-linecap="round" stroke-linejoin="round" stroke-opacity="0.3" stroke-width="0.055000003"/>
<g id="item_1">
<path d="M0,0 L11,0 L12,2 L11,3 L11,5 L10,6 L6,5 L3,6 L0,5 L-1,3 z" fill="#7A7A7A" fill-opacity="0.5" fill-rule="nonzero" stroke="black" stroke-width="0.11000001"/>
</g>
<path d="M0,0 L11,0 L12,2 L11,3 L11,5 L10,6 L6,5 L3,6 L0,5 L-1,3 z" fill="none" id="cd_shape_1" stroke="black" stroke-dasharray="0.11000001 0.22000001" stroke-linecap="round" stroke-linejoin="round" stroke-opacity="0.3" stroke-width="0.055000003"/>
<g id="item_2">
<path d="M0,0 L3,0 L3,-1 L5,0 L8,0 L11,-1 L12,4 L11,8 L7,7 L0,7 z" fill="#7A7A7A" fill-opacity="0.5" fill-rule="nonzero" stroke="black" stroke-width="0.11000001"/>
</g>
<path d="M0,0 L3,0 L3,-0.99999976 L5,0 L8,0 L11,-0.99999976 L12,4 L11,8 L7,7 L0,7 z" fill="none" id="cd_shape_2" stroke="black" stroke-dasharray="0.11000001 0.22000001" stroke-linecap="round" stroke-linejoin="round" stroke-opacity="0.3" stroke-width="0.055000003"/>
<g id="item_3">
<path d="M0,0 L4,0 L4,2 L3,3 L0,3 z" fill="#7A7A7A" fill-opacity="0.5" fill-rule="nonzero" stroke="black" stroke-width="0.11000001"/>
</g>
<path d="M0,0 L4,0 L4,2 L3,3 L0,3 z" fill="none" id="cd_shape_3" stroke="black" stroke-dasharray="0.11000001 0.22000001" stroke-linecap="round" stroke-linejoin="round" stroke-opacity="0.3" stroke-width="0.055000003"/>
<g id="item_4">
<path d="M0,0 L8,0 L7,1 L1,1 z" fill="#7A7A7A" fill-opacity="0.5" fill-rule="nonzero" stroke="black" stroke-width="0.11000001"/>
</g>
<path d="M0,0 L8,0 L7,1 L1,1 z" fill="none" id="cd_shape_4" stroke="black" stroke-dasharray="0.11000001 0.22000001" stroke-linecap="round" stroke-linejoin="round" stroke-opacity="0.3" stroke-width="0.055000003"/>
<g id="item_5">
<path d="M0,0 L4,0 L4,1 L0,1 z" fill="#7A7A7A" fill-opacity="0.5" fill-rule="nonzero" stroke="black" stroke-width="0.11000001"/>
</g>
<path d="M0,0 L4,0 L4,1 L0,1 z" fill="none" id="cd_shape_5" stroke="black" stroke-dasharray="0.11000001 0.22000001" stroke-linecap="round" stroke-linejoin="round" stroke-opacity="0.3" stroke-width="0.055000003"/>
<g id="item_6">
<path d="M0,0 L3,0 L3,1 L0,1 z" fill="#7A7A7A" fill-opacity="0.5" fill-rule="nonzero" stroke="black" stroke-width="0.11000001"/>
</g>
<path d="M0,0 L3,0 L3,1 L0,1 z" fill="none" id="cd_shape_6" stroke="black" stroke-dasharray="0.11000001 0.22000001" stroke-linecap="round" stroke-linejoin="round" stroke-opacity="0.3" stroke-width="0.055000003"/>
<g id="item_7">
<path d="M0,0 L8,0 L8,2 L6,2 L4,1 L3,1 L2,2 L-1,2 z" fill="#7A7A7A" fill-opacity="0.5" fill-rule="nonzero" stroke="black" stroke-width="0.11000001"/>
</g>
<path d="M0,0 L8,0 L8,2 L6,2 L4,1 L3,1 L2,2 L-0.99999976,2 z" fill="none" id="cd_shape_7" stroke="black" stroke-dasharray="0.11000001 0.22000001" stroke-linecap="round" stroke-linejoin="round" stroke-opacity="0.3" stroke-width="0.055000003"/>
</defs>
<use href="#item_2" transform="translate(0.001511097 12.557809), rotate(0)">
<title>item, id: 2, transf: [r: 0.000°, t: (0.002, 12.558)]</title>
</use>
<use href="#item_2" transform="translate(0.0045289993 21.760765), rotate(0)">
<title>item, id: 2, transf: [r: 0.000°, t: (0.005, 21.761)]</title>
</use>
<use href="#item_2" transform="translate(12.000732 8.004511), rotate(-180)">
<title>item, id: 2, transf: [r: -180.000°, t: (12.001, 8.005)]</title>
</use>
<use href="#item_2" transform="translate(23.147038 25.471258), rotate(-180)">
<title>item, id: 2, transf: [r: -180.000°, t: (23.147, 25.471)]</title>
</use>
<use href="#item_2" transform="translate(35.14706 25.893112), rotate(-180)">
<title>item, id: 2, transf: [r: -180.000°, t: (35.147, 25.893)]</title>
</use>
<use href="#item_2" transform="translate(11.790495 26.617634), rotate(0)">
<title>item, id: 2, transf: [r: 0.000°, t: (11.790, 26.618)]</title>
</use>
<use href="#item_2" transform="translate(59.423 11.326698), rotate(-180)">
<title>item, id: 2, transf: [r: -180.000°, t: (59.423, 11.327)]</title>
</use>
<use href="#item_2" transform="translate(0.0029540062 30.974144), rotate(0)">
<title>item, id: 2, transf: [r: 0.000°, t: (0.003, 30.974)]</title>
</use>
<use href="#item_1" transform="translate(13.029975 3.0636246), rotate(0)">
<title>item, id: 1, transf: [r: 0.000°, t: (13.030, 3.064)]</title>
</use>
<use href="#item_1" transform="translate(25.00138 0.000101566315), rotate(0)">
<title>item, id: 1, transf: [r: 0.000°, t: (25.001, 0.000)]</title>
</use>
<use href="#item_1" transform="translate(35.106228 11.2763405), rotate(-180)">
<title>item, id: 1, transf: [r: -180.000°, t: (35.106, 11.276)]</title>
</use>
<use href="#item_1" transform="translate(24.222164 11.276442), rotate(0)">
<title>item, id: 1, transf: [r: 0.000°, t: (24.222, 11.276)]</title>
</use>
<use href="#item_1" transform="translate(23.174467 14.414249), rotate(-180)">
<title>item, id: 1, transf: [r: -180.000°, t: (23.174, 14.414)]</title>
</use>
<use href="#item_1" transform="translate(47.003033 7.998756), rotate(-180)">
<title>item, id: 1, transf: [r: -180.000°, t: (47.003, 7.999)]</title>
</use>
<use href="#item_1" transform="translate(24.142216 30.212736), rotate(0)">
<title>item, id: 1, transf: [r: 0.000°, t: (24.142, 30.213)]</title>
</use>
<use href="#item_1" transform="translate(23.24807 39.99999), rotate(-180)">
<title>item, id: 1, transf: [r: -180.000°, t: (23.248, 40.000)]</title>
</use>
<use href="#item_0" transform="translate(44.42695 28.663458), rotate(0)">
<title>item, id: 0, transf: [r: 0.000°, t: (44.427, 28.663)]</title>
</use>
<use href="#item_0" transform="translate(54.328064 18.327473), rotate(-180)">
<title>item, id: 0, transf: [r: -180.000°, t: (54.328, 18.327)]</title>
</use>
<use href="#item_0" transform="translate(36.38881 25.701458), rotate(0)">
<title>item, id: 0, transf: [r: 0.000°, t: (36.389, 25.701)]</title>
</use>
<use href="#item_0" transform="translate(42.175507 38.180527), rotate(-180)">
<title>item, id: 0, transf: [r: -180.000°, t: (42.176, 38.181)]</title>
</use>
<use href="#item_0" transform="translate(36.326344 14.174194), rotate(0)">
<title>item, id: 0, transf: [r: 0.000°, t: (36.326, 14.174)]</title>
</use>
<use href="#item_0" transform="translate(50.39754 29.459269), rotate(-180)">
<title>item, id: 0, transf: [r: -180.000°, t: (50.398, 29.459)]</title>
</use>
<use href="#item_0" transform="translate(42.148277 26.51972), rotate(-180)">
<title>item, id: 0, transf: [r: -180.000°, t: (42.148, 26.520)]</title>
</use>
<use href="#item_0" transform="translate(44.42634 17.075045), rotate(0)">
<title>item, id: 0, transf: [r: 0.000°, t: (44.426, 17.075)]</title>
</use>
<use href="#item_7" transform="translate(24.435875 37.990646), rotate(0)">
<title>item, id: 7, transf: [r: 0.000°, t: (24.436, 37.991)]</title>
</use>
<use href="#item_7" transform="translate(24.001362 2.0001397), rotate(-180)">
<title>item, id: 7, transf: [r: -180.000°, t: (24.001, 2.000)]</title>
</use>
<use href="#item_7" transform="translate(47.237907 13.40269), rotate(-180)">
<title>item, id: 7, transf: [r: -180.000°, t: (47.238, 13.403)]</title>
</use>
<use href="#item_7" transform="translate(54.390022 38.9996), rotate(-180)">
<title>item, id: 7, transf: [r: -180.000°, t: (54.390, 39.000)]</title>
</use>
<use href="#item_7" transform="translate(36.603268 10.034125), rotate(0)">
<title>item, id: 7, transf: [r: 0.000°, t: (36.603, 10.034)]</title>
</use>
<use href="#item_7" transform="translate(32.24897 37.98982), rotate(-180)">
<title>item, id: 7, transf: [r: -180.000°, t: (32.249, 37.990)]</title>
</use>
<use href="#item_7" transform="translate(33.621674 30.212082), rotate(-180)">
<title>item, id: 7, transf: [r: -180.000°, t: (33.622, 30.212)]</title>
</use>
<use href="#item_7" transform="translate(12.780302 15.465679), rotate(0)">
<title>item, id: 7, transf: [r: 0.000°, t: (12.780, 15.466)]</title>
</use>
<use href="#item_7" transform="translate(11.75231 10.252963), rotate(-180)">
<title>item, id: 7, transf: [r: -180.000°, t: (11.752, 10.253)]</title>
</use>
<use href="#item_7" transform="translate(44.64218 39.714058), rotate(-180)">
<title>item, id: 7, transf: [r: -180.000°, t: (44.642, 39.714)]</title>
</use>
<use href="#item_7" transform="translate(38.008305 0.000031411648), rotate(0)">
<title>item, id: 7, transf: [r: 0.000°, t: (38.008, 0.000)]</title>
</use>
<use href="#item_7" transform="translate(36.53231 7.998782), rotate(0)">
<title>item, id: 7, transf: [r: 0.000°, t: (36.532, 7.999)]</title>
</use>
<use href="#item_7" transform="translate(34.99314 28.049665), rotate(-180)">
<title>item, id: 7, transf: [r: -180.000°, t: (34.993, 28.050)]</title>
</use>
<use href="#item_7" transform="translate(43.722366 35.66504), rotate(0)">
<title>item, id: 7, transf: [r: 0.000°, t: (43.722, 35.665)]</title>
</use>
<use href="#item_7" transform="translate(47.170956 0.000069737434), rotate(0)">
<title>item, id: 7, transf: [r: 0.000°, t: (47.171, 0.000)]</title>
</use>
<use href="#item_3" transform="translate(55.428364 0.00223732), rotate(0)">
<title>item, id: 3, transf: [r: 0.000°, t: (55.428, 0.002)]</title>
</use>
<use href="#item_3" transform="translate(12.000737 0.00003194809), rotate(0)">
<title>item, id: 3, transf: [r: 0.000°, t: (12.001, 0.000)]</title>
</use>
<use href="#item_3" transform="translate(59.426033 24.987709), rotate(-180)">
<title>item, id: 3, transf: [r: -180.000°, t: (59.426, 24.988)]</title>
</use>
<use href="#item_3" transform="translate(55.427113 24.990536), rotate(0)">
<title>item, id: 3, transf: [r: 0.000°, t: (55.427, 24.991)]</title>
</use>
<use href="#item_3" transform="translate(59.42789 18.328695), rotate(-180)">
<title>item, id: 3, transf: [r: -180.000°, t: (59.428, 18.329)]</title>
</use>
<use href="#item_3" transform="translate(55.41474 29.468792), rotate(-180)">
<title>item, id: 3, transf: [r: -180.000°, t: (55.415, 29.469)]</title>
</use>
<use href="#item_3" transform="translate(55.427673 32.47006), rotate(-180)">
<title>item, id: 3, transf: [r: -180.000°, t: (55.428, 32.470)]</title>
</use>
<use href="#item_3" transform="translate(59.428383 21.986977), rotate(-180)">
<title>item, id: 3, transf: [r: -180.000°, t: (59.428, 21.987)]</title>
</use>
<use href="#item_3" transform="translate(59.428486 33.997746), rotate(-180)">
<title>item, id: 3, transf: [r: -180.000°, t: (59.428, 33.998)]</title>
</use>
<use href="#item_3" transform="translate(55.426777 21.327679), rotate(-180)">
<title>item, id: 3, transf: [r: -180.000°, t: (55.427, 21.328)]</title>
</use>
<use href="#item_3" transform="translate(59.42771 30.99201), rotate(-180)">
<title>item, id: 3, transf: [r: -180.000°, t: (59.428, 30.992)]</title>
</use>
<use href="#item_3" transform="translate(59.426407 36.99809), rotate(-180)">
<title>item, id: 3, transf: [r: -180.000°, t: (59.426, 36.998)]</title>
</use>
<use href="#item_3" transform="translate(47.327976 17.034994), rotate(-180)">
<title>item, id: 3, transf: [r: -180.000°, t: (47.328, 17.035)]</title>
</use>
<use href="#item_3" transform="translate(59.426586 39.999973), rotate(-180)">
<title>item, id: 3, transf: [r: -180.000°, t: (59.427, 40.000)]</title>
</use>
<use href="#item_3" transform="translate(55.40717 24.330597), rotate(-180)">
<title>item, id: 3, transf: [r: -180.000°, t: (55.407, 24.331)]</title>
</use>
<use href="#item_4" transform="translate(3.983645 0.00016158819), rotate(0)">
<title>item, id: 4, transf: [r: 0.000°, t: (3.984, 0.000)]</title>
</use>
<use href="#item_4" transform="translate(27.000036 17.849571), rotate(0)">
<title>item, id: 4, transf: [r: 0.000°, t: (27.000, 17.850)]</title>
</use>
<use href="#item_4" transform="translate(23.80239 15.464888), rotate(-180)">
<title>item, id: 4, transf: [r: -180.000°, t: (23.802, 15.465)]</title>
</use>
<use href="#item_4" transform="translate(54.93993 35.663826), rotate(-180)">
<title>item, id: 4, transf: [r: -180.000°, t: (54.940, 35.664)]</title>
</use>
<use href="#item_4" transform="translate(36.92934 13.402893), rotate(0)">
<title>item, id: 4, transf: [r: 0.000°, t: (36.929, 13.403)]</title>
</use>
<use href="#item_4" transform="translate(12.193031 39.99892), rotate(-180)">
<title>item, id: 4, transf: [r: -180.000°, t: (12.193, 39.999)]</title>
</use>
<use href="#item_4" transform="translate(8.004488 29.76728), rotate(-180)">
<title>item, id: 4, transf: [r: -180.000°, t: (8.004, 29.767)]</title>
</use>
<use href="#item_4" transform="translate(52.36001 39.999992), rotate(-180)">
<title>item, id: 4, transf: [r: -180.000°, t: (52.360, 40.000)]</title>
</use>
<use href="#item_4" transform="translate(51.41251 3.125554), rotate(0)">
<title>item, id: 4, transf: [r: 0.000°, t: (51.413, 3.126)]</title>
</use>
<use href="#item_4" transform="translate(16.065054 2.0002413), rotate(0)">
<title>item, id: 4, transf: [r: 0.000°, t: (16.065, 2.000)]</title>
</use>
<use href="#item_4" transform="translate(8.004562 38.984234), rotate(-180)">
<title>item, id: 4, transf: [r: -180.000°, t: (8.005, 38.984)]</title>
</use>
<use href="#item_4" transform="translate(3.8984241 10.252967), rotate(0)">
<title>item, id: 4, transf: [r: 0.000°, t: (3.898, 10.253)]</title>
</use>
<use href="#item_4" transform="translate(46.005432 2.0007148), rotate(0)">
<title>item, id: 4, transf: [r: 0.000°, t: (46.005, 2.001)]</title>
</use>
<use href="#item_4" transform="translate(15.142109 17.465826), rotate(0)">
<title>item, id: 4, transf: [r: 0.000°, t: (15.142, 17.466)]</title>
</use>
<use href="#item_4" transform="translate(8.0004425 20.557817), rotate(-180)">
<title>item, id: 4, transf: [r: -180.000°, t: (8.000, 20.558)]</title>
</use>
<use href="#item_5" transform="translate(36.50515 38.999817), rotate(-180)">
<title>item, id: 5, transf: [r: -180.000°, t: (36.505, 39.000)]</title>
</use>
<use href="#item_5" transform="translate(55.427593 34.66194), rotate(-180)">
<title>item, id: 5, transf: [r: -180.000°, t: (55.428, 34.662)]</title>
</use>
<use href="#item_5" transform="translate(32.441048 38.999947), rotate(0)">
<title>item, id: 5, transf: [r: 0.000°, t: (32.441, 39.000)]</title>
</use>
<use href="#item_5" transform="translate(55.42773 13.327914), rotate(0)">
<title>item, id: 5, transf: [r: 0.000°, t: (55.428, 13.328)]</title>
</use>
<use href="#item_5" transform="translate(28.50716 16.8492), rotate(0)">
<title>item, id: 5, transf: [r: 0.000°, t: (28.507, 16.849)]</title>
</use>
<use href="#item_5" transform="translate(24.789358 17.46554), rotate(-180)">
<title>item, id: 5, transf: [r: -180.000°, t: (24.789, 17.466)]</title>
</use>
<use href="#item_5" transform="translate(55.416096 25.330902), rotate(-180)">
<title>item, id: 5, transf: [r: -180.000°, t: (55.416, 25.331)]</title>
</use>
<use href="#item_5" transform="translate(11.786226 14.43413), rotate(0)">
<title>item, id: 5, transf: [r: 0.000°, t: (11.786, 14.434)]</title>
</use>
<use href="#item_5" transform="translate(59.339046 13.327251), rotate(-180)">
<title>item, id: 5, transf: [r: -180.000°, t: (59.339, 13.327)]</title>
</use>
<use href="#item_5" transform="translate(55.427807 33.651703), rotate(-180)">
<title>item, id: 5, transf: [r: -180.000°, t: (55.428, 33.652)]</title>
</use>
<use href="#item_5" transform="translate(0.0009739399 10.355866), rotate(0)">
<title>item, id: 5, transf: [r: 0.000°, t: (0.001, 10.356)]</title>
</use>
<use href="#item_5" transform="translate(4.154284 39.998642), rotate(-180)">
<title>item, id: 5, transf: [r: -180.000°, t: (4.154, 39.999)]</title>
</use>
<use href="#item_5" transform="translate(8.60504 21.558882), rotate(-180)">
<title>item, id: 5, transf: [r: -180.000°, t: (8.605, 21.559)]</title>
</use>
<use href="#item_5" transform="translate(4.604875 29.772215), rotate(0)">
<title>item, id: 5, transf: [r: 0.000°, t: (4.605, 29.772)]</title>
</use>
<use href="#item_5" transform="translate(8.526845 12.25343), rotate(-180)">
<title>item, id: 5, transf: [r: -180.000°, t: (8.527, 12.253)]</title>
</use>
<use href="#item_6" transform="translate(3.4396753 10.3550005), rotate(-180)">
<title>item, id: 6, transf: [r: -180.000°, t: (3.440, 10.355)]</title>
</use>
<use href="#item_6" transform="translate(3.004405 21.705921), rotate(-180)">
<title>item, id: 6, transf: [r: -180.000°, t: (3.004, 21.706)]</title>
</use>
<use href="#item_6" transform="translate(52.40479 25.466597), rotate(0)">
<title>item, id: 6, transf: [r: 0.000°, t: (52.405, 25.467)]</title>
</use>
<use href="#item_6" transform="translate(23.806221 27.044157), rotate(0)">
<title>item, id: 6, transf: [r: 0.000°, t: (23.806, 27.044)]</title>
</use>
<use href="#item_6" transform="translate(39.231064 13.187831), rotate(-180)">
<title>item, id: 6, transf: [r: -180.000°, t: (39.231, 13.188)]</title>
</use>
<use href="#item_6" transform="translate(44.773277 9.128088), rotate(0)">
<title>item, id: 6, transf: [r: 0.000°, t: (44.773, 9.128)]</title>
</use>
<use href="#item_6" transform="translate(23.80336 16.465408), rotate(-180)">
<title>item, id: 6, transf: [r: -180.000°, t: (23.803, 16.465)]</title>
</use>
<use href="#item_6" transform="translate(3.0029192 30.963543), rotate(-180)">
<title>item, id: 6, transf: [r: -180.000°, t: (3.003, 30.964)]</title>
</use>
<use href="#item_6" transform="translate(56.32825 14.327988), rotate(0)">
<title>item, id: 6, transf: [r: 0.000°, t: (56.328, 14.328)]</title>
</use>
<use href="#item_6" transform="translate(0.00088369846 11.371391), rotate(0)">
<title>item, id: 6, transf: [r: 0.000°, t: (0.001, 11.371)]</title>
</use>
<use href="#item_6" transform="translate(47.54381 9.11997), rotate(-180)">
<title>item, id: 6, transf: [r: -180.000°, t: (47.544, 9.120)]</title>
</use>
<use href="#item_6" transform="translate(44.916027 10.176455), rotate(0)">
<title>item, id: 6, transf: [r: 0.000°, t: (44.916, 10.176)]</title>
</use>
<use href="#item_6" transform="translate(52.363934 35.99637), rotate(0)">
<title>item, id: 6, transf: [r: 0.000°, t: (52.364, 35.996)]</title>
</use>
<use href="#item_6" transform="translate(56.42838 11.326842), rotate(0)">
<title>item, id: 6, transf: [r: 0.000°, t: (56.428, 11.327)]</title>
</use>
<use href="#item_6" transform="translate(55.405483 39.999977), rotate(-180)">
<title>item, id: 6, transf: [r: -180.000°, t: (55.405, 40.000)]</title>
</use>
</g>
<g id="quality_zones"/>
<g id="optionals">
<g id="highlight_cd_shapes">
<use href="#cd_shape_2" transform="translate(0.001511097 12.557809), rotate(0)"/>
<use href="#cd_shape_2" transform="translate(0.0045289993 21.760765), rotate(0)"/>
<use href="#cd_shape_2" transform="translate(12.000732 8.004511), rotate(-180)"/>
<use href="#cd_shape_2" transform="translate(23.147038 25.471258), rotate(-180)"/>
<use href="#cd_shape_2" transform="translate(35.14706 25.893112), rotate(-180)"/>
<use href="#cd_shape_2" transform="translate(11.790495 26.617634), rotate(0)"/>
<use href="#cd_shape_2" transform="translate(59.423 11.326698), rotate(-180)"/>
<use href="#cd_shape_2" transform="translate(0.0029540062 30.974144), rotate(0)"/>
<use href="#cd_shape_1" transform="translate(13.029975 3.0636246), rotate(0)"/>
<use href="#cd_shape_1" transform="translate(25.00138 0.000101566315), rotate(0)"/>
<use href="#cd_shape_1" transform="translate(35.106228 11.2763405), rotate(-180)"/>
<use href="#cd_shape_1" transform="translate(24.222164 11.276442), rotate(0)"/>
<use href="#cd_shape_1" transform="translate(23.174467 14.414249), rotate(-180)"/>
<use href="#cd_shape_1" transform="translate(47.003033 7.998756), rotate(-180)"/>
<use href="#cd_shape_1" transform="translate(24.142216 30.212736), rotate(0)"/>
<use href="#cd_shape_1" transform="translate(23.24807 39.99999), rotate(-180)"/>
<use href="#cd_shape_0" transform="translate(44.42695 28.663458), rotate(0)"/>
<use href="#cd_shape_0" transform="translate(54.328064 18.327473), rotate(-180)"/>
<use href="#cd_shape_0" transform="translate(36.38881 25.701458), rotate(0)"/>
<use href="#cd_shape_0" transform="translate(42.175507 38.180527), rotate(-180)"/>
<use href="#cd_shape_0" transform="translate(36.326344 14.174194), rotate(0)"/>
<use href="#cd_shape_0" transform="translate(50.39754 29.459269), rotate(-180)"/>
<use href="#cd_shape_0" transform="translate(42.148277 26.51972), rotate(-180)"/>
<use href="#cd_shape_0" transform="translate(44.42634 17.075045), rotate(0)"/>
<use href="#cd_shape_7" transform="translate(24.435875 37.990646), rotate(0)"/>
<use href="#cd_shape_7" transform="translate(24.001362 2.0001397), rotate(-180)"/>
<use href="#cd_shape_7" transform="translate(47.237907 13.40269), rotate(-180)"/>
<use href="#cd_shape_7" transform="translate(54.390022 38.9996), rotate(-180)"/>
<use href="#cd_shape_7" transform="translate(36.603268 10.034125), rotate(0)"/>
<use href="#cd_shape_7" transform="translate(32.24897 37.98982), rotate(-180)"/>
<use href="#cd_shape_7" transform="translate(33.621674 30.212082), rotate(-180)"/>
<use href="#cd_shape_7" transform="translate(12.780302 15.465679), rotate(0)"/>
<use href="#cd_shape_7" transform="translate(11.75231 10.252963), rotate(-180)"/>
<use href="#cd_shape_7" transform="translate(44.64218 39.714058), rotate(-180)"/>
<use href="#cd_shape_7" transform="translate(38.008305 0.000031411648), rotate(0)"/>
<use href="#cd_shape_7" transform="translate(36.53231 7.998782), rotate(0)"/>
<use href="#cd_shape_7" transform="translate(34.99314 28.049665), rotate(-180)"/>
<use href="#cd_shape_7" transform="translate(43.722366 35.66504), rotate(0)"/>
<use href="#cd_shape_7" transform="translate(47.170956 0.000069737434), rotate(0)"/>
<use href="#cd_shape_3" transform="translate(55.428364 0.00223732), rotate(0)"/>
<use href="#cd_shape_3" transform="translate(12.000737 0.00003194809), rotate(0)"/>
<use href="#cd_shape_3" transform="translate(59.426033 24.987709), rotate(-180)"/>
<use href="#cd_shape_3" transform="translate(55.427113 24.990536), rotate(0)"/>
<use href="#cd_shape_3" transform="translate(59.42789 18.328695), rotate(-180)"/>
<use href="#cd_shape_3" transform="translate(55.41474 29.468792), rotate(-180)"/>
<use href="#cd_shape_3" transform="translate(55.427673 32.47006), rotate(-180)"/>
<use href="#cd_shape_3" transform="translate(59.428383 21.986977), rotate(-180)"/>
<use href="#cd_shape_3" transform="translate(59.428486 33.997746), rotate(-180)"/>
<use href="#cd_shape_3" transform="translate(55.426777 21.327679), rotate(-180)"/>
<use href="#cd_shape_3" transform="translate(59.42771 30.99201), rotate(-180)"/>
<use href="#cd_shape_3" transform="translate(59.426407 36.99809), rotate(-180)"/>
<use href="#cd_shape_3" transform="translate(47.327976 17.034994), rotate(-180)"/>
<use href="#cd_shape_3" transform="translate(59.426586 39.999973), rotate(-180)"/>
<use href="#cd_shape_3" transform="translate(55.40717 24.330597), rotate(-180)"/>
<use href="#cd_shape_4" transform="translate(3.983645 0.00016158819), rotate(0)"/>
<use href="#cd_shape_4" transform="translate(27.000036 17.849571), rotate(0)"/>
<use href="#cd_shape_4" transform="translate(23.80239 15.464888), rotate(-180)"/>
<use href="#cd_shape_4" transform="translate(54.93993 35.663826), rotate(-180)"/>
<use href="#cd_shape_4" transform="translate(36.92934 13.402893), rotate(0)"/>
<use href="#cd_shape_4" transform="translate(12.193031 39.99892), rotate(-180)"/>
<use href="#cd_shape_4" transform="translate(8.004488 29.76728), rotate(-180)"/>
<use href="#cd_shape_4" transform="translate(52.36001 39.999992), rotate(-180)"/>
<use href="#cd_shape_4" transform="translate(51.41251 3.125554), rotate(0)"/>
<use href="#cd_shape_4" transform="translate(16.065054 2.0002413), rotate(0)"/>
<use href="#cd_shape_4" transform="translate(8.004562 38.984234), rotate(-180)"/>
<use href="#cd_shape_4" transform="translate(3.8984241 10.252967), rotate(0)"/>
<use href="#cd_shape_4" transform="translate(46.005432 2.0007148), rotate(0)"/>
<use href="#cd_shape_4" transform="translate(15.142109 17.465826), rotate(0)"/>
<use href="#cd_shape_4" transform="translate(8.0004425 20.557817), rotate(-180)"/>
<use href="#cd_shape_5" transform="translate(36.50515 38.999817), rotate(-180)"/>
<use href="#cd_shape_5" transform="translate(55.427593 34.66194), rotate(-180)"/>
<use href="#cd_shape_5" transform="translate(32.441048 38.999947), rotate(0)"/>
<use href="#cd_shape_5" transform="translate(55.42773 13.327914), rotate(0)"/>
<use href="#cd_shape_5" transform="translate(28.50716 16.8492), rotate(0)"/>
<use href="#cd_shape_5" transform="translate(24.789358 17.46554), rotate(-180)"/>
<use href="#cd_shape_5" transform="translate(55.416096 25.330902), rotate(-180)"/>
<use href="#cd_shape_5" transform="translate(11.786226 14.43413), rotate(0)"/>
<use href="#cd_shape_5" transform="translate(59.339046 13.327251), rotate(-180)"/>
<use href="#cd_shape_5" transform="translate(55.427807 33.651703), rotate(-180)"/>
<use href="#cd_shape_5" transform="translate(0.0009739399 10.355866), rotate(0)"/>
<use href="#cd_shape_5" transform="translate(4.154284 39.998642), rotate(-180)"/>
<use href="#cd_shape_5" transform="translate(8.60504 21.558882), rotate(-180)"/>
<use href="#cd_shape_5" transform="translate(4.604875 29.772215), rotate(0)"/>
<use href="#cd_shape_5" transform="translate(8.526845 12.25343), rotate(-180)"/>
<use href="#cd_shape_6" transform="translate(3.4396753 10.3550005), rotate(-180)"/>
<use href="#cd_shape_6" transform="translate(3.004405 21.705921), rotate(-180)"/>
<use href="#cd_shape_6" transform="translate(52.40479 25.466597), rotate(0)"/>
<use href="#cd_shape_6" transform="translate(23.806221 27.044157), rotate(0)"/>
<use href="#cd_shape_6" transform="translate(39.231064 13.187831), rotate(-180)"/>
<use href="#cd_shape_6" transform="translate(44.773277 9.128088), rotate(0)"/>
<use href="#cd_shape_6" transform="translate(23.80336 16.465408), rotate(-180)"/>
<use href="#cd_shape_6" transform="translate(3.0029192 30.963543), rotate(-180)"/>
<use href="#cd_shape_6" transform="translate(56.32825 14.327988), rotate(0)"/>
<use href="#cd_shape_6" transform="translate(0.00088369846 11.371391), rotate(0)"/>
<use href="#cd_shape_6" transform="translate(47.54381 9.11997), rotate(-180)"/>
<use href="#cd_shape_6" transform="translate(44.916027 10.176455), rotate(0)"/>
<use href="#cd_shape_6" transform="translate(52.363934 35.99637), rotate(0)"/>
<use href="#cd_shape_6" transform="translate(56.42838 11.326842), rotate(0)"/>
<use href="#cd_shape_6" transform="translate(55.405483 39.999977), rotate(-180)"/>
<path d="M0,0 L59.428543,0 L59.428543,40 L0,40 z" fill="none" stroke="black" stroke-dasharray="0.11000001 0.22000001" stroke-linecap="round" stroke-linejoin="round" stroke-opacity="0.3" stroke-width="0.055000003"/>
</g>
<g id="surrogates">
<defs/>
</g>
<g id="collision_lines"/>
</g>
<text font-family="monospace" font-size="1" font-weight="500" x="0" y="-0.5">
height: 40.000 | width: 59.429 | density: 90.865% | final_best
</text>
</svg>