<svg viewBox="-277.32687 -287.60007 6101.1895 6327.2" xmlns="http://www.w3.org/2000/svg" xmlns:xlink="http://www.w3.org/1999/xlink">
<g id="container_0">
<path d="M0,0 L5546.536,0 L5546.536,5752 L0,5752 z" fill="#D3D3D3" stroke="black" stroke-width="30.505947"/>
<path d="M0,0 L5546.536,0 L5546.536,5752 L0,5752 z" fill="none" stroke="black" stroke-dasharray="15.252974 30.505947" stroke-linecap="round" stroke-linejoin="round" stroke-opacity="0.3" stroke-width="7.626487"/>
<title>container, id: 0, bbox: [x_min: 0.000, y_min: 0.000, x_max: 5546.536, y_max: 5752.000]</title>
</g>
<g id="items">
<defs>
<g id="item_0">
<path d="M0,0 L-5,-321 L1,-642 L151,-660 L259,-691 L423,-738 L547,-770 L680,-801 L858,-837 L988,-682 L1075,-620 L1211,-553 L1319,-527 L1481,-526 L1597,-540 L1737,-564 L1719,-440 L1708,-317 L1718,-194 L1736,-70 L1596,-95 L1480,-109 L1318,-109 L1210,-83 L1074,-17 L986,45 L856,199 L678,162 L545,131 L421,98 L257,50 L149,19 z" fill="#7A7A7A" fill-opacity="0.5" fill-rule="nonzero" stroke="black" stroke-width="15.252974"/>
</g>
<path d="M0,0 L-5,-321 L1,-642 L151,-660 L552.12354,-775.1373 L858,-837 L988,-682 L1075,-620 L1211,-553 L1319,-527 L1481,-526 L1597,-540 L1737,-564 L1719,-440 L1708,-317 L1718,-194 L1736,-70 L1596,-95 L1480,-109 L1318,-109 L1210,-83 L1074,-17 L986,45 L856,198.99997 L549.1085,135.20798 L149,19 z" fill="none" id="cd_shape_0" stroke="black" stroke-dasharray="15.252974 30.505947" stroke-linecap="round" stroke-linejoin="round" stroke-opacity="0.3" stroke-width="7.626487"/>
<g id="item_1">
<path d="M0,0 L8,-148 L26.962263,-299.69812 L68.443474,-462.4321 L179,-449 L288,-446 L401,-463 L548,-497 L764.0157,-545.56165 L805,-350 L887,-196 L755,-176 L655,-155 L523,-121 L272,-52 L117.45331,-11.877301 z" fill="#7A7A7A" fill-opacity="0.5" fill-rule="nonzero" stroke="black" stroke-width="15.252974"/>
</g>
<path d="M0,0 L8,-148 L26.96225,-299.69812 L68.44348,-462.4321 L179,-449 L288,-446 L401,-463 L763.7356,-546.8981 L805,-350 L887,-196 L755,-176 L655,-155 L523,-121 L272,-52 L117.45331,-11.877289 z" fill="none" id="cd_shape_1" stroke="black" stroke-dasharray="15.252974 30.505947" stroke-linecap="round" stroke-linejoin="round" stroke-opacity="0.3" stroke-width="7.626487"/>
<g id="item_2">
<path d="M-159,-185 L-328,-228 L-474,-262 L-694.8461,-307.57144 L-806.64514,-359.47812 L-532,-384 L-408,-400 L-215,-443 L-77,-501 L130,-620 L264,-589 L477.87183,-543.8493 L652.5122,-485.0418 L766,-431 L893,-362 L1115,-258 L1125,-131 L1133,-7 L940,23 L792,45 L680,59 L524,70 L357.5263,70 L181,44 L0.952833,4.181876 z" fill="#7A7A7A" fill-opacity="0.5" fill-rule="nonzero" stroke="black" stroke-width="15.252974"/>
</g>
<path d="M-159,-185 L-474,-262 L-694.84607,-307.57144 L-806.64514,-359.47812 L-532,-384 L-408,-400 L-215,-443 L-77,-501 L130,-620 L264,-589 L477.87183,-543.8493 L652.5122,-485.0418 L766,-431 L893,-362 L1115,-258 L1134.7424,-7.2708282 L731.9797,55.334778 L524,70 L357.5263,70 L181,44 L0.9528198,4.1818695 z" fill="none" id="cd_shape_2" stroke="black" stroke-dasharray="15.252974 30.505947" stroke-linecap="round" stroke-linejoin="round" stroke-opacity="0.3" stroke-width="7.626487"/>
<g id="item_3">
<path d="M0,0 L8,-172 L309,-166 L484,-165 L616,-167 L718,-172 L876,-194 L1031,-248 L1351.455,-111.0968 L1209,-57 L1048.9706,-6.821297 L909,16 L785,26 L668,29 L511,26 L213,14 z" fill="#7A7A7A" fill-opacity="0.5" fill-rule="nonzero" stroke="black" stroke-width="15.252974"/>
</g>
<path d="M0,0 L8,-172 L309,-166 L484,-165 L616,-167 L718,-172 L876,-194 L1031,-248 L1351.455,-111.0968 L1209,-57 L1048.9706,-6.8212967 L909,16 L732.5139,30.23275 L511,26 L213,14 z" fill="none" id="cd_shape_3" stroke="black" stroke-dasharray="15.252974 30.505947" stroke-linecap="round" stroke-linejoin="round" stroke-opacity="0.3" stroke-width="7.626487"/>
<g id="item_4">
<path d="M0,0 L33.96,-142.915 L77,-268 L89,-388 L-826,-439 L-824,-598 L39,-607 L169,-650 L209,-800 L251,-940 L371,-924 L354,-726 L348,-610 L350,-412 L360,-264 L382,-94 L488.69122,232.11281 L352,54 L217,0 z" fill="#7A7A7A" fill-opacity="0.5" fill-rule="nonzero" stroke="black" stroke-width="15.252974"/>
</g>
<path d="M0,0 L33.96,-142.91501 L77,-268 L89,-388 L-826,-439 L-824,-598 L39,-607 L169,-650 L246.49358,-940.6008 L371,-924 L354,-726 L348,-610 L350,-412 L360,-264 L382,-94 L488.69122,232.11282 L352,54 L217,0 z" fill="none" id="cd_shape_4" stroke="black" stroke-dasharray="15.252974 30.505947" stroke-linecap="round" stroke-linejoin="round" stroke-opacity="0.3" stroke-width="7.626487"/>
<g id="item_5">
<path d="M0,-7.222222 L129.8,-36.066666 L306.8846,22.961538 L495,110 L616,172 L737,238 L855,290 L959,313 L1071,306 L1275,255 L1260,394 L1250,499 L1260,606 L1275,745 L1071,694 L959,687 L855,710 L737,762 L616,828 L495,890 L306.8846,977.03845 L129.8,1036.0667 L0,1007.2222 z" fill="#7A7A7A" fill-opacity="0.5" fill-rule="nonzero" stroke="black" stroke-width="15.252974"/>
</g>
<path d="M0,-7.222229 L129.79999,-36.06665 L306.8846,22.961548 L543.3278,132.36063 L737,238 L855,290 L959,313 L1071,306 L1275,255 L1250,499 L1275,745 L1071,694 L959,687 L855,710 L737,762 L543.3278,867.6394 L306.8846,977.03845 L129.79999,1036.0667 L0,1007.2222 z" fill="none" id="cd_shape_5" stroke="black" stroke-dasharray="15.252974 30.505947" stroke-linecap="round" stroke-linejoin="round" stroke-opacity="0.3" stroke-width="7.626487"/>
<g id="item_6">
<path d="M0,0 L-4,-123 L-8,-291 L-17,-454 L-40,-620 L119,-619 L246,-538 L352,-501 L492,-458 L647,-416 L766,-369 L913,-302 L1061,-224 L1046,-100 L1037,2 L1061,224 L913,302 L766,369 L647,416 L492,458 L352,501 L246,538 L119,619 L-40,620 L-17,454 L-8,291 L-4,123 z" fill="#7A7A7A" fill-opacity="0.5" fill-rule="nonzero" stroke="black" stroke-width="15.252974"/>
</g>
<path d="M0,0 L-4,-123 L-8,-291 L-17,-454 L-40,-620 L119,-619 L246,-538 L352,-501 L492,-458 L686.16406,-405.3878 L913,-302 L1061,-224 L1037,2 L1061,224 L913,302 L686.16406,405.3878 L492,458 L352,501 L246,538 L119,619 L-40,620 L-17,454 L-8,291 L-4,123 z" fill="none" id="cd_shape_6" stroke="black" stroke-dasharray="15.252974 30.505947" stroke-linecap="round" stroke-linejoin="round" stroke-opacity="0.3" stroke-width="7.626487"/>
<g id="item_7">
<path d="M-76,-85 L-178,-200 L-270,-306 L-412,-374 L-958,-383 L-954,-543 L-366,-560 L-269,-659 L-90,-708 L-4,-539 L40,-443 L94,-312 L140.2381,-190.31746 L189,-42 L4.52434,5.060117 z" fill="#7A7A7A" fill-opacity="0.5" fill-rule="nonzero" stroke="black" stroke-width="15.252974"/>
</g>
<path d="M3.998413,5.194275 L-178,-200 L-270,-306 L-412,-374 L-958,-383 L-954,-543 L-366,-560 L-269,-659 L-90,-708 L19.30841,-493.19626 L124.78949,-237.30698 L189,-42 z" fill="none" id="cd_shape_7" stroke="black" stroke-dasharray="15.252974 30.505947" stroke-linecap="round" stroke-linejoin="round" stroke-opacity="0.3" stroke-width="7.626487"/>
<g id="item_8">
<path d="M-135.87357,-80.44827 L-238.05281,-203.06339 L-240.87816,-366.93304 L-197.36069,-485.8808 L-114.328445,-625.618 L-32.885136,-555.0338 L58.285713,-445 L118.14286,-305.33334 L108.69903,-151.08414 L7.1138,13.387181 z" fill="#7A7A7A" fill-opacity="0.5" fill-rule="nonzero" stroke="black" stroke-width="15.252974"/>
</g>
<path d="M-135.87357,-80.44827 L-238.0528,-203.06339 L-240.87814,-366.93304 L-197.36069,-485.8808 L-114.328445,-625.618 L-32.885136,-555.0338 L58.285713,-445 L118.14286,-305.33334 L108.69903,-151.08414 L7.1138,13.3871765 z" fill="none" id="cd_shape_8" stroke="black" stroke-dasharray="15.252974 30.505947" stroke-linecap="round" stroke-linejoin="round" stroke-opacity="0.3" stroke-width="7.626487"/>
<g id="item_9">
<path d="M-175.38889,-72.47953 L-304,-151 L-407,-193 L-510,-208 L-673,-192 L-790,-169 L-990,-124 L-1029,-292 L-760,-353 L-531,-404 L-413,-430 L-288,-510 L-252,-700 L-252,-862 L-274,-1015 L-533,-1157 L-762,-1207 L-1031,-1267 L-993,-1435 L-793,-1391 L-675,-1368 L-512,-1353 L-409,-1368 L-307,-1411 L-180.41176,-1488.2854 L6.421687,-1568.9188 L319,-1499 L270,-1290 L248,-1143 L241,-922 L242,-782 L242,-642 L246,-494 L257,-358 L322,-65 L15.847507,8.041056 z" fill="#7A7A7A" fill-opacity="0.5" fill-rule="nonzero" stroke="black" stroke-width="15.252974"/>
</g>
<path d="M-175.38889,-72.47955 L-304,-151 L-407,-193 L-510,-208 L-673,-192 L-790,-169 L-990,-124 L-1029,-292 L-675.60785,-372.13727 L-413,-430 L-288,-510 L-252,-700 L-252,-862 L-274,-1015 L-533,-1157 L-1031.273,-1265.7932 L-993,-1435 L-675,-1368 L-512,-1353 L-409,-1368 L-307,-1411 L-180.41176,-1488.2854 L6.421692,-1568.9188 L319,-1499 L270,-1290 L248,-1143 L241,-922 L246,-494 L257,-358 L322,-65 L15.847504,8.041077 z" fill="none" id="cd_shape_9" stroke="black" stroke-dasharray="15.252974 30.505947" stroke-linecap="round" stroke-linejoin="round" stroke-opacity="0.3" stroke-width="7.626487"/>
</defs>
<use transform="translate(322.24326 4090.7236), rotate(-180)" xlink:href="#item_9">
<title>item, id: 9, transf: [r: -180.000°, t: (322.243, 4090.724)]</title>
</use>
<use transform="translate(322.0488 82.47101), rotate(-180)" xlink:href="#item_9">
<title>item, id: 9, transf: [r: -180.000°, t: (322.049, 82.471)]</title>
</use>
<use transform="translate(5224.355 5240.1206), rotate(0)" xlink:href="#item_9">
<title>item, id: 9, transf: [r: 0.000°, t: (5224.355, 5240.121)]</title>
</use>
<use transform="translate(4820.3154 4154.7495), rotate(-180)" xlink:href="#item_0">
<title>item, id: 0, transf: [r: -180.000°, t: (4820.315, 4154.750)]</title>
</use>
<use transform="translate(5.043274 2388.6099), rotate(0)" xlink:href="#item_0">
<title>item, id: 0, transf: [r: 0.000°, t: (5.043, 2388.610)]</title>
</use>
<use transform="translate(5541.4917 199.00821), rotate(-180)" xlink:href="#item_0">
<title>item, id: 0, transf: [r: -180.000°, t: (5541.492, 199.008)]</title>
</use>
<use transform="translate(2518.7527 5112.5435), rotate(-180)" xlink:href="#item_2">
<title>item, id: 2, transf: [r: -180.000°, t: (2518.753, 5112.543)]</title>
</use>
<use transform="translate(3547.391 4810.2783), rotate(-180)" xlink:href="#item_2">
<title>item, id: 2, transf: [r: -180.000°, t: (3547.391, 4810.278)]</title>
</use>
<use transform="translate(4411.7754 5681.994), rotate(0)" xlink:href="#item_2">
<title>item, id: 2, transf: [r: 0.000°, t: (4411.775, 5681.994)]</title>
</use>
<use transform="translate(3045.168 3662.702), rotate(-180)" xlink:href="#item_2">
<title>item, id: 2, transf: [r: -180.000°, t: (3045.168, 3662.702)]</title>
</use>
<use transform="translate(2953.9563 70.00453), rotate(-180)" xlink:href="#item_2">
<title>item, id: 2, transf: [r: -180.000°, t: (2953.956, 70.005)]</title>
</use>
<use transform="translate(4411.7686 2460.3726), rotate(0)" xlink:href="#item_2">
<title>item, id: 2, transf: [r: 0.000°, t: (4411.769, 2460.373)]</title>
</use>
<use transform="translate(0.10922241 2440.9531), rotate(0)" xlink:href="#item_5">
<title>item, id: 5, transf: [r: 0.000°, t: (0.109, 2440.953)]</title>
</use>
<use transform="translate(1788.4437 3992.1133), rotate(0)" xlink:href="#item_5">
<title>item, id: 5, transf: [r: 0.000°, t: (1788.444, 3992.113)]</title>
</use>
<use transform="translate(5546.2124 3509.4382), rotate(-180)" xlink:href="#item_5">
<title>item, id: 5, transf: [r: -180.000°, t: (5546.212, 3509.438)]</title>
</use>
<use transform="translate(2582.0188 1702.3499), rotate(0)" xlink:href="#item_6">
<title>item, id: 6, transf: [r: 0.000°, t: (2582.019, 1702.350)]</title>
</use>
<use transform="translate(1750.3126 860.9586), rotate(-180)" xlink:href="#item_6">
<title>item, id: 6, transf: [r: -180.000°, t: (1750.313, 860.959)]</title>
</use>
<use transform="translate(5506.489 1479.1068), rotate(-180)" xlink:href="#item_6">
<title>item, id: 6, transf: [r: -180.000°, t: (5506.489, 1479.107)]</title>
</use>
<use transform="translate(2523.6575 2451.3962), rotate(-180)" xlink:href="#item_4">
<title>item, id: 4, transf: [r: -180.000°, t: (2523.657, 2451.396)]</title>
</use>
<use transform="translate(1822.7405 2148.0286), rotate(0)" xlink:href="#item_4">
<title>item, id: 4, transf: [r: 0.000°, t: (1822.740, 2148.029)]</title>
</use>
<use transform="translate(1299.685 4591.6963), rotate(0)" xlink:href="#item_4">
<title>item, id: 4, transf: [r: 0.000°, t: (1299.685, 4591.696)]</title>
</use>
<use transform="translate(2087.235 2990.324), rotate(-180)" xlink:href="#item_4">
<title>item, id: 4, transf: [r: -180.000°, t: (2087.235, 2990.324)]</title>
</use>
<use transform="translate(4135.4194 2915.5798), rotate(-180)" xlink:href="#item_4">
<title>item, id: 4, transf: [r: -180.000°, t: (4135.419, 2915.580)]</title>
</use>
<use transform="translate(3296.9746 3280.2817), rotate(0)" xlink:href="#item_4">
<title>item, id: 4, transf: [r: 0.000°, t: (3296.975, 3280.282)]</title>
</use>
<use transform="translate(3432.8604 1243.0011), rotate(0)" xlink:href="#item_7">
<title>item, id: 7, transf: [r: 0.000°, t: (3432.860, 1243.001)]</title>
</use>
<use transform="translate(3273.1792 3777.8447), rotate(0)" xlink:href="#item_7">
<title>item, id: 7, transf: [r: 0.000°, t: (3273.179, 3777.845)]</title>
</use>
<use transform="translate(3842.2437 2204.7717), rotate(-180)" xlink:href="#item_7">
<title>item, id: 7, transf: [r: -180.000°, t: (3842.244, 2204.772)]</title>
</use>
<use transform="translate(3571.9175 500.14337), rotate(-180)" xlink:href="#item_7">
<title>item, id: 7, transf: [r: -180.000°, t: (3571.917, 500.143)]</title>
</use>
<use transform="translate(2140.6135 523.282), rotate(-180)" xlink:href="#item_7">
<title>item, id: 7, transf: [r: -180.000°, t: (2140.614, 523.282)]</title>
</use>
<use transform="translate(1985.4438 2984.598), rotate(0)" xlink:href="#item_7">
<title>item, id: 7, transf: [r: 0.000°, t: (1985.444, 2984.598)]</title>
</use>
<use transform="translate(3977.1094 3745.1125), rotate(0)" xlink:href="#item_3">
<title>item, id: 3, transf: [r: 0.000°, t: (3977.109, 3745.113)]</title>
</use>
<use transform="translate(4396.505 59.640068), rotate(-180)" xlink:href="#item_3">
<title>item, id: 3, transf: [r: -180.000°, t: (4396.505, 59.640)]</title>
</use>
<use transform="translate(2994.9568 5721.227), rotate(0)" xlink:href="#item_3">
<title>item, id: 3, transf: [r: 0.000°, t: (2994.957, 5721.227)]</title>
</use>
<use transform="translate(544.3018 5721.683), rotate(0)" xlink:href="#item_3">
<title>item, id: 3, transf: [r: 0.000°, t: (544.302, 5721.683)]</title>
</use>
<use transform="translate(1352.3198 3799.4543), rotate(-180)" xlink:href="#item_3">
<title>item, id: 3, transf: [r: -180.000°, t: (1352.320, 3799.454)]</title>
</use>
<use transform="translate(1820.9983 31.805717), rotate(-180)" xlink:href="#item_3">
<title>item, id: 3, transf: [r: -180.000°, t: (1820.998, 31.806)]</title>
</use>
<use transform="translate(3543.7295 2132.0684), rotate(-180)" xlink:href="#item_1">
<title>item, id: 1, transf: [r: -180.000°, t: (3543.729, 2132.068)]</title>
</use>
<use transform="translate(913.49426 5226.1553), rotate(0)" xlink:href="#item_1">
<title>item, id: 1, transf: [r: 0.000°, t: (913.494, 5226.155)]</title>
</use>
<use transform="translate(889.97015 3300.2742), rotate(-180)" xlink:href="#item_1">
<title>item, id: 1, transf: [r: -180.000°, t: (889.970, 3300.274)]</title>
</use>
<use transform="translate(3636.6304 2046.6697), rotate(0)" xlink:href="#item_1">
<title>item, id: 1, transf: [r: 0.000°, t: (3636.630, 2046.670)]</title>
</use>
<use transform="translate(851.9143 3772.9453), rotate(0)" xlink:href="#item_1">
<title>item, id: 1, transf: [r: 0.000°, t: (851.914, 3772.945)]</title>
</use>
<use transform="translate(4430.9263 1046.0132), rotate(-180)" xlink:href="#item_1">
<title>item, id: 1, transf: [r: -180.000°, t: (4430.926, 1046.013)]</title>
</use>
<use transform="translate(1995.1558 1302.4149), rotate(0)" xlink:href="#item_8">
<title>item, id: 8, transf: [r: 0.000°, t: (1995.156, 1302.415)]</title>
</use>
<use transform="translate(2325.8066 1757.4878), rotate(-180)" xlink:href="#item_8">
<title>item, id: 8, transf: [r: -180.000°, t: (2325.807, 1757.488)]</title>
</use>
<use transform="translate(2458.3008 1826.2114), rotate(0)" xlink:href="#item_8">
<title>item, id: 8, transf: [r: 0.000°, t: (2458.301, 1826.211)]</title>
</use>
<use transform="translate(3537.653 3300.398), rotate(-180)" xlink:href="#item_8">
<title>item, id: 8, transf: [r: -180.000°, t: (3537.653, 3300.398)]</title>
</use>
<use transform="translate(698.99414 4561.943), rotate(-180)" xlink:href="#item_8">
<title>item, id: 8, transf: [r: -180.000°, t: (698.994, 4561.943)]</title>
</use>
<use transform="translate(1508.1125 3235.5437), rotate(0)" xlink:href="#item_8">
<title>item, id: 8, transf: [r: 0.000°, t: (1508.113, 3235.544)]</title>
</use>
</g>
<g id="quality_zones"/>
<g id="optionals">
<g id="highlight_cd_shapes">
<use transform="translate(322.24326 4090.7236), rotate(-180)" xlink:href="#cd_shape_9"/>
<use transform="translate(322.0488 82.47101), rotate(-180)" xlink:href="#cd_shape_9"/>
<use transform="translate(5224.355 5240.1206), rotate(0)" xlink:href="#cd_shape_9"/>
<use transform="translate(4820.3154 4154.7495), rotate(-180)" xlink:href="#cd_shape_0"/>
<use transform="translate(5.043274 2388.6099), rotate(0)" xlink:href="#cd_shape_0"/>
<use transform="translate(5541.4917 199.00821), rotate(-180)" xlink:href="#cd_shape_0"/>
<use transform="translate(2518.7527 5112.5435), rotate(-180)" xlink:href="#cd_shape_2"/>
<use transform="translate(3547.391 4810.2783), rotate(-180)" xlink:href="#cd_shape_2"/>
<use transform="translate(4411.7754 5681.994), rotate(0)" xlink:href="#cd_shape_2"/>
<use transform="translate(3045.168 3662.702), rotate(-180)" xlink:href="#cd_shape_2"/>
<use transform="translate(2953.9563 70.00453), rotate(-180)" xlink:href="#cd_shape_2"/>
<use transform="translate(4411.7686 2460.3726), rotate(0)" xlink:href="#cd_shape_2"/>
<use transform="translate(0.10922241 2440.9531), rotate(0)" xlink:href="#cd_shape_5"/>
<use transform="translate(1788.4437 3992.1133), rotate(0)" xlink:href="#cd_shape_5"/>
<use transform="translate(5546.2124 3509.4382), rotate(-180)" xlink:href="#cd_shape_5"/>
<use transform="translate(2582.0188 1702.3499), rotate(0)" xlink:href="#cd_shape_6"/>
<use transform="translate(1750.3126 860.9586), rotate(-180)" xlink:href="#cd_shape_6"/>
<use transform="translate(5506.489 1479.1068), rotate(-180)" xlink:href="#cd_shape_6"/>
<use transform="translate(2523.6575 2451.3962), rotate(-180)" xlink:href="#cd_shape_4"/>
<use transform="translate(1822.7405 2148.0286), rotate(0)" xlink:href="#cd_shape_4"/>
<use transform="translate(1299.685 4591.6963), rotate(0)" xlink:href="#cd_shape_4"/>
<use transform="translate(2087.235 2990.324), rotate(-180)" xlink:href="#cd_shape_4"/>
<use transform="translate(4135.4194 2915.5798), rotate(-180)" xlink:href="#cd_shape_4"/>
<use transform="translate(3296.9746 3280.2817), rotate(0)" xlink:href="#cd_shape_4"/>
<use transform="translate(3432.8604 1243.0011), rotate(0)" xlink:href="#cd_shape_7"/>
<use transform="translate(3273.1792 3777.8447), rotate(0)" xlink:href="#cd_shape_7"/>
<use transform="translate(3842.2437 2204.7717), rotate(-180)" xlink:href="#cd_shape_7"/>
<use transform="translate(3571.9175 500.14337), rotate(-180)" xlink:href="#cd_shape_7"/>
<use transform="translate(2140.6135 523.282), rotate(-180)" xlink:href="#cd_shape_7"/>
<use transform="translate(1985.4438 2984.598), rotate(0)" xlink:href="#cd_shape_7"/>
<use transform="translate(3977.1094 3745.1125), rotate(0)" xlink:href="#cd_shape_3"/>
<use transform="translate(4396.505 59.640068), rotate(-180)" xlink:href="#cd_shape_3"/>
<use transform="translate(2994.9568 5721.227), rotate(0)" xlink:href="#cd_shape_3"/>
<use transform="translate(544.3018 5721.683), rotate(0)" xlink:href="#cd_shape_3"/>
<use transform="translate(1352.3198 3799.4543), rotate(-180)" xlink:href="#cd_shape_3"/>
<use transform="translate(1820.9983 31.805717), rotate(-180)" xlink:href="#cd_shape_3"/>
<use transform="translate(3543.7295 2132.0684), rotate(-180)" xlink:href="#cd_shape_1"/>
<use transform="translate(913.49426 5226.1553), rotate(0)" xlink:href="#cd_shape_1"/>
<use transform="translate(889.97015 3300.2742), rotate(-180)" xlink:href="#cd_shape_1"/>
<use transform="translate(3636.6304 2046.6697), rotate(0)" xlink:href="#cd_shape_1"/>
<use transform="translate(851.9143 3772.9453), rotate(0)" xlink:href="#cd_shape_1"/>
<use transform="translate(4430.9263 1046.0132), rotate(-180)" xlink:href="#cd_shape_1"/>
<use transform="translate(1995.1558 1302.4149), rotate(0)" xlink:href="#cd_shape_8"/>
<use transform="translate(2325.8066 1757.4878), rotate(-180)" xlink:href="#cd_shape_8"/>
<use transform="translate(2458.3008 1826.2114), rotate(0)" xlink:href="#cd_shape_8"/>
<use transform="translate(3537.653 3300.398), rotate(-180)" xlink:href="#cd_shape_8"/>
<use transform="translate(698.99414 4561.943), rotate(-180)" xlink:href="#cd_shape_8"/>
<use transform="translate(1508.1125 3235.5437), rotate(0)" xlink:href="#cd_shape_8"/>
</g>
<g id="surrogates">
<defs/>
</g>
<g id="collision_lines"/>
</g>
<text font-family="monospace" font-size="138.6634" font-weight="500" x="0" y="-69.3317">
height: 5752.000 | width: 5546.536 | density: 79.756% | final_best
</text>
</svg>