<svg viewBox="-0.55000323 -2.0002005 12.100068 44.004406" xmlns="http://www.w3.org/2000/svg" xmlns:xlink="http://www.w3.org/1999/xlink">
<g id="bin_0">
<path d="M0,0 L11.000062,0 L11.000062,40.004 L0,40.004 z" fill="#D3D3D3" stroke="black" stroke-width="0.060500346"/>
<title>bin, id: 0, bbox: [x_min: 0.000, y_min: 0.000, x_max: 11.000, y_max: 40.004]</title>
</g>
<g id="items">
<defs>
<g id="item_0">
<path d="M0,0 L2,0 L0,2 z" fill="#7A7A7A" fill-opacity="0.5" fill-rule="nonzero" stroke="black" stroke-width="0.030250173"/>
</g>
<g id="item_1">
<path d="M0,0 L3,0 L0,3 z" fill="#7A7A7A" fill-opacity="0.5" fill-rule="nonzero" stroke="black" stroke-width="0.030250173"/>
</g>
<g id="item_2">
<path d="M0,0 L4,0 L0,4 z" fill="#7A7A7A" fill-opacity="0.5" fill-rule="nonzero" stroke="black" stroke-width="0.030250173"/>
</g>
<g id="item_3">
<path d="M5,0 L5,5 L0,5 z" fill="#7A7A7A" fill-opacity="0.5" fill-rule="nonzero" stroke="black" stroke-width="0.030250173"/>
</g>
<g id="item_4">
<path d="M0,3 L6,0 L6,3 z" fill="#7A7A7A" fill-opacity="0.5" fill-rule="nonzero" stroke="black" stroke-width="0.030250173"/>
</g>
<g id="item_5">
<path d="M0,4 L7,0 L7,4 z" fill="#7A7A7A" fill-opacity="0.5" fill-rule="nonzero" stroke="black" stroke-width="0.030250173"/>
</g>
<g id="item_6">
<path d="M0,0 L5,0 L5,3 L3,3 L3,5 L0,5 z" fill="#7A7A7A" fill-opacity="0.5" fill-rule="nonzero" stroke="black" stroke-width="0.030250173"/>
</g>
<g id="item_7">
<path d="M0,0 L4,0 L4,1 L2,1 L2,4 L0,4 z" fill="#7A7A7A" fill-opacity="0.5" fill-rule="nonzero" stroke="black" stroke-width="0.030250173"/>
</g>
<g id="item_8">
<path d="M0,0 L6,0 L6,3 L4,3 L4,6 L0,6 z" fill="#7A7A7A" fill-opacity="0.5" fill-rule="nonzero" stroke="black" stroke-width="0.030250173"/>
</g>
<g id="item_9">
<path d="M0,0 L5,0 L5,2 L3,2 L3,1 L0,1 z" fill="#7A7A7A" fill-opacity="0.5" fill-rule="nonzero" stroke="black" stroke-width="0.030250173"/>
</g>
<g id="item_10">
<path d="M0,0 L4,0 L4,2 L3,2 L3,1 L0,1 z" fill="#7A7A7A" fill-opacity="0.5" fill-rule="nonzero" stroke="black" stroke-width="0.030250173"/>
</g>
<g id="item_11">
<path d="M0,0 L6,0 L6,3 L4,3 L4,6 L0,6 z" fill="#7A7A7A" fill-opacity="0.5" fill-rule="nonzero" stroke="black" stroke-width="0.030250173"/>
</g>
<g id="item_12">
<path d="M0,0 L6,0 L6,6 L0,6 z" fill="#7A7A7A" fill-opacity="0.5" fill-rule="nonzero" stroke="black" stroke-width="0.030250173"/>
</g>
<g id="item_13">
<path d="M0,0 L5,0 L5,5 L0,5 z" fill="#7A7A7A" fill-opacity="0.5" fill-rule="nonzero" stroke="black" stroke-width="0.030250173"/>
</g>
<g id="item_14">
<path d="M0,0 L4,0 L4,4 L0,4 z" fill="#7A7A7A" fill-opacity="0.5" fill-rule="nonzero" stroke="black" stroke-width="0.030250173"/>
</g>
<g id="item_15">
<path d="M2,0 L4,0 L4,2 L6,2 L6,4 L4,4 L4,6 L2,6 L2,4 L0,4 L0,2 L2,2 z" fill="#7A7A7A" fill-opacity="0.5" fill-rule="nonzero" stroke="black" stroke-width="0.030250173"/>
</g>
<g id="item_16">
<path d="M1,0 L2,0 L2,1 L3,1 L3,2 L2,2 L2,3 L1,3 L1,2 L0,2 L0,1 L1,1 z" fill="#7A7A7A" fill-opacity="0.5" fill-rule="nonzero" stroke="black" stroke-width="0.030250173"/>
</g>
<g id="item_17">
<path d="M2,0 L4,0 L4,2 L6,2 L6,4 L4,4 L4,6 L2,6 L2,4 L0,4 L0,2 L2,2 z" fill="#7A7A7A" fill-opacity="0.5" fill-rule="nonzero" stroke="black" stroke-width="0.030250173"/>
</g>
<g id="item_18">
<path d="M1,0 L2,0 L2,1 L3,1 L3,2 L2,2 L2,3 L1,3 L1,2 L0,2 L0,1 L1,1 z" fill="#7A7A7A" fill-opacity="0.5" fill-rule="nonzero" stroke="black" stroke-width="0.030250173"/>
</g>
<g id="item_19">
<path d="M0,0 L6,0 L6,3 L0,3 z" fill="#7A7A7A" fill-opacity="0.5" fill-rule="nonzero" stroke="black" stroke-width="0.030250173"/>
</g>
<g id="item_20">
<path d="M0,0 L1,0 L1,4 L0,4 z" fill="#7A7A7A" fill-opacity="0.5" fill-rule="nonzero" stroke="black" stroke-width="0.030250173"/>
</g>
<g id="item_21">
<path d="M0,0 L5,0 L5,2 L0,2 z" fill="#7A7A7A" fill-opacity="0.5" fill-rule="nonzero" stroke="black" stroke-width="0.030250173"/>
</g>
<g id="item_22">
<path d="M2,0 L4,0 L6,2 L6,4 L4,6 L2,6 L0,4 L0,2 z" fill="#7A7A7A" fill-opacity="0.5" fill-rule="nonzero" stroke="black" stroke-width="0.030250173"/>
</g>
<g id="item_23">
<path d="M3,0 L6,0 L8,2 L8,4 L6,6 L3,6 L0,4 L0,2 z" fill="#7A7A7A" fill-opacity="0.5" fill-rule="nonzero" stroke="black" stroke-width="0.030250173"/>
</g>
<g id="item_24">
<path d="M0,1 L2,0 L4,0 L6,1 L6,2 L4,3 L2,3 L0,2 z" fill="#7A7A7A" fill-opacity="0.5" fill-rule="nonzero" stroke="black" stroke-width="0.030250173"/>
</g>
</defs>
<use transform="translate(0.00051927567 33.994175), rotate(0)" xlink:href="#item_23">
<title>item, id: 23, transf: [r: 0.000°, t: (0.001, 33.994)]</title>
</use>
<use transform="translate(0.00000023841858 17.431238), rotate(0)" xlink:href="#item_12">
<title>item, id: 12, transf: [r: 0.000°, t: (0.000, 17.431)]</title>
</use>
<use transform="translate(0.000009775162 9.001716), rotate(0)" xlink:href="#item_8">
<title>item, id: 8, transf: [r: 0.000°, t: (0.000, 9.002)]</title>
</use>
<use transform="translate(6.000351 0.0008022785), rotate(90)" xlink:href="#item_11">
<title>item, id: 11, transf: [r: 90.000°, t: (6.000, 0.001)]</title>
</use>
<use transform="translate(4.0000277 10.059036), rotate(0)" xlink:href="#item_15">
<title>item, id: 15, transf: [r: 0.000°, t: (4.000, 10.059)]</title>
</use>
<use transform="translate(5.0000515 4.056391), rotate(0)" xlink:href="#item_17">
<title>item, id: 17, transf: [r: 0.000°, t: (5.000, 4.056)]</title>
</use>
<use transform="translate(3.0195994 32.100105), rotate(-90)" xlink:href="#item_22">
<title>item, id: 22, transf: [r: -90.000°, t: (3.020, 32.100)]</title>
</use>
<use transform="translate(6.0000124 22.070461), rotate(-90)" xlink:href="#item_13">
<title>item, id: 13, transf: [r: -90.000°, t: (6.000, 22.070)]</title>
</use>
<use transform="translate(0.000021457672 9.001703), rotate(-90)" xlink:href="#item_6">
<title>item, id: 6, transf: [r: -90.000°, t: (0.000, 9.002)]</title>
</use>
<use transform="translate(0.016388059 32.458683), rotate(-90)" xlink:href="#item_19">
<title>item, id: 19, transf: [r: -90.000°, t: (0.016, 32.459)]</title>
</use>
<use transform="translate(3.8476176 29.925993), rotate(0)" xlink:href="#item_5">
<title>item, id: 5, transf: [r: 0.000°, t: (3.848, 29.926)]</title>
</use>
<use transform="translate(10.408956 26.071274), rotate(-180)" xlink:href="#item_14">
<title>item, id: 14, transf: [r: -180.000°, t: (10.409, 26.071)]</title>
</use>
<use transform="translate(5.9964895 35.00393), rotate(0)" xlink:href="#item_3">
<title>item, id: 3, transf: [r: 0.000°, t: (5.996, 35.004)]</title>
</use>
<use transform="translate(6.199959 26.449467), rotate(-180)" xlink:href="#item_24">
<title>item, id: 24, transf: [r: -180.000°, t: (6.200, 26.449)]</title>
</use>
<use transform="translate(7.0000234 0.0016223192), rotate(0)" xlink:href="#item_7">
<title>item, id: 7, transf: [r: 0.000°, t: (7.000, 0.002)]</title>
</use>
<use transform="translate(6.028638 35.467365), rotate(-180)" xlink:href="#item_4">
<title>item, id: 4, transf: [r: -180.000°, t: (6.029, 35.467)]</title>
</use>
<use transform="translate(9.000058 6.036124), rotate(-90)" xlink:href="#item_21">
<title>item, id: 21, transf: [r: -90.000°, t: (9.000, 6.036)]</title>
</use>
<use transform="translate(11.000047 12.056883), rotate(90)" xlink:href="#item_9">
<title>item, id: 9, transf: [r: 90.000°, t: (11.000, 12.057)]</title>
</use>
<use transform="translate(10.999822 26.075813), rotate(90)" xlink:href="#item_2">
<title>item, id: 2, transf: [r: 90.000°, t: (11.000, 26.076)]</title>
</use>
<use transform="translate(4.0000243 17.431105), rotate(-180)" xlink:href="#item_10">
<title>item, id: 10, transf: [r: -180.000°, t: (4.000, 17.431)]</title>
</use>
<use transform="translate(3.0000262 14.0595255), rotate(0)" xlink:href="#item_16">
<title>item, id: 16, transf: [r: 0.000°, t: (3.000, 14.060)]</title>
</use>
<use transform="translate(8.000056 9.056653), rotate(0)" xlink:href="#item_18">
<title>item, id: 18, transf: [r: 0.000°, t: (8.000, 9.057)]</title>
</use>
<use transform="translate(9.072593 33.926014), rotate(90)" xlink:href="#item_1">
<title>item, id: 1, transf: [r: 90.000°, t: (9.073, 33.926)]</title>
</use>
<use transform="translate(5.0000334 17.0704), rotate(-90)" xlink:href="#item_20">
<title>item, id: 20, transf: [r: -90.000°, t: (5.000, 17.070)]</title>
</use>
<use transform="translate(3.174853 32.338974), rotate(-90)" xlink:href="#item_0">
<title>item, id: 0, transf: [r: -90.000°, t: (3.175, 32.339)]</title>
</use>
</g>
<g id="quality_zones"/>
<g id="optionals">
<g id="overlap_lines" transform="translate(0 0), rotate(0)"/>
</g>
<text font-family="monospace" font-size="0.27500156" font-weight="500" x="0" y="-0.13750078">
height: 40.004 | width: 11.000 | usage: 89.081% | final_best
</text>
</svg>