<svg viewBox="-11.760024 -3.950001 258.72046 86.90001" xmlns="http://www.w3.org/2000/svg" xmlns:xlink="http://www.w3.org/1999/xlink">
<g id="bin_0">
<path d="M0,0 L235.20042,0 L235.20042,79 L0,79 z" fill="#D3D3D3" stroke="black" stroke-width="0.43450004"/>
<title>bin, id: 0, bbox: [x_min: 0.000, y_min: 0.000, x_max: 235.200, y_max: 79.000]</title>
</g>
<g id="items">
<defs>
<g id="item_0">
<path d="M0,0 L12,-1 L14,-3.0000005 L24,0 L33,1 L59,2 L59,13 L4,13 L4,8 L2,5 L0,5 z" fill="#7A7A7A" fill-opacity="0.5" fill-rule="nonzero" stroke="black" stroke-width="0.21725002"/>
</g>
<g id="item_1">
<path d="M0,0 L0,-14 L27,-17 L37,-20 L41,-22 L47,-19 L56,-16 L56,0 z" fill="#7A7A7A" fill-opacity="0.5" fill-rule="nonzero" stroke="black" stroke-width="0.21725002"/>
</g>
<g id="item_2">
<path d="M0,0 L57,0 L57,5 L0,5 z" fill="#7A7A7A" fill-opacity="0.5" fill-rule="nonzero" stroke="black" stroke-width="0.21725002"/>
</g>
<g id="item_3">
<path d="M0,0 L52,0 L52,5 L0,5 z" fill="#7A7A7A" fill-opacity="0.5" fill-rule="nonzero" stroke="black" stroke-width="0.21725002"/>
</g>
<g id="item_4">
<path d="M0,0 L44,0 L44,5 L0,5 z" fill="#7A7A7A" fill-opacity="0.5" fill-rule="nonzero" stroke="black" stroke-width="0.21725002"/>
</g>
<g id="item_5">
<path d="M0,0 L42,0 L42,5 L0,5 z" fill="#7A7A7A" fill-opacity="0.5" fill-rule="nonzero" stroke="black" stroke-width="0.21725002"/>
</g>
<g id="item_6">
<path d="M0,0 L21,0 L21,2 L0,2 z" fill="#7A7A7A" fill-opacity="0.5" fill-rule="nonzero" stroke="black" stroke-width="0.21725002"/>
</g>
<g id="item_7">
<path d="M0,0 L15,4 L13,7 L0,6 z" fill="#7A7A7A" fill-opacity="0.5" fill-rule="nonzero" stroke="black" stroke-width="0.21725002"/>
</g>
<g id="item_8">
<path d="M0,0 L15,1 L15,4 L0,4 z" fill="#7A7A7A" fill-opacity="0.5" fill-rule="nonzero" stroke="black" stroke-width="0.21725002"/>
</g>
<g id="item_9">
<path d="M0,0 L14,0 L14,5 L0,5 z" fill="#7A7A7A" fill-opacity="0.5" fill-rule="nonzero" stroke="black" stroke-width="0.21725002"/>
</g>
<g id="item_10">
<path d="M0,0 L14,1 L14,4 L0,4 z" fill="#7A7A7A" fill-opacity="0.5" fill-rule="nonzero" stroke="black" stroke-width="0.21725002"/>
</g>
<g id="item_11">
<path d="M0,0 L13,0 L13,5 L0,5 z" fill="#7A7A7A" fill-opacity="0.5" fill-rule="nonzero" stroke="black" stroke-width="0.21725002"/>
</g>
<g id="item_12">
<path d="M0,0 L13,1 L13,4 L0,4 z" fill="#7A7A7A" fill-opacity="0.5" fill-rule="nonzero" stroke="black" stroke-width="0.21725002"/>
</g>
<g id="item_13">
<path d="M0,0 L12,0 L12,5 L0,5 z" fill="#7A7A7A" fill-opacity="0.5" fill-rule="nonzero" stroke="black" stroke-width="0.21725002"/>
</g>
<g id="item_14">
<path d="M0,0 L4,2 L6,10 L4,11 L-4,11 L-6,10 L-4,2 z" fill="#7A7A7A" fill-opacity="0.5" fill-rule="nonzero" stroke="black" stroke-width="0.21725002"/>
</g>
<g id="item_15">
<path d="M0,0 L3,-2 L8,0 L8,8 L2,8 z" fill="#7A7A7A" fill-opacity="0.5" fill-rule="nonzero" stroke="black" stroke-width="0.21725002"/>
</g>
<g id="item_16">
<path d="M0,0 L2,1 L3,6 L2,7 L-2,7 L-3,6 L-2,1 z" fill="#7A7A7A" fill-opacity="0.5" fill-rule="nonzero" stroke="black" stroke-width="0.21725002"/>
</g>
</defs>
<use transform="translate(27.383339 78.99977), rotate(0)" xlink:href="#item_1">
<title>item, id: 1, transf: [r: 0.000°, t: (27.383, 79.000)]</title>
</use>
<use transform="translate(234.40906 0.00011730194), rotate(-180)" xlink:href="#item_1">
<title>item, id: 1, transf: [r: -180.000°, t: (234.409, 0.000)]</title>
</use>
<use transform="translate(122.38589 0.0000743866), rotate(-180)" xlink:href="#item_1">
<title>item, id: 1, transf: [r: -180.000°, t: (122.386, 0.000)]</title>
</use>
<use transform="translate(178.38773 0.00009918213), rotate(-180)" xlink:href="#item_1">
<title>item, id: 1, transf: [r: -180.000°, t: (178.388, 0.000)]</title>
</use>
<use transform="translate(83.50835 73.99677), rotate(0)" xlink:href="#item_1">
<title>item, id: 1, transf: [r: 0.000°, t: (83.508, 73.997)]</title>
</use>
<use transform="translate(115.07855 38.557983), rotate(0)" xlink:href="#item_1">
<title>item, id: 1, transf: [r: 0.000°, t: (115.079, 38.558)]</title>
</use>
<use transform="translate(120.79538 39.79828), rotate(-180)" xlink:href="#item_1">
<title>item, id: 1, transf: [r: -180.000°, t: (120.795, 39.798)]</title>
</use>
<use transform="translate(171.51494 38.433315), rotate(0)" xlink:href="#item_1">
<title>item, id: 1, transf: [r: 0.000°, t: (171.515, 38.433)]</title>
</use>
<use transform="translate(59.137592 18.001617), rotate(-180)" xlink:href="#item_0">
<title>item, id: 0, transf: [r: -180.000°, t: (59.138, 18.002)]</title>
</use>
<use transform="translate(154.08646 65.999954), rotate(0)" xlink:href="#item_0">
<title>item, id: 0, transf: [r: 0.000°, t: (154.086, 66.000)]</title>
</use>
<use transform="translate(55.532173 21.794182), rotate(0)" xlink:href="#item_0">
<title>item, id: 0, transf: [r: 0.000°, t: (55.532, 21.794)]</title>
</use>
<use transform="translate(0.17353821 28.728521), rotate(0)" xlink:href="#item_0">
<title>item, id: 0, transf: [r: 0.000°, t: (0.174, 28.729)]</title>
</use>
<use transform="translate(176.1979 41.43387), rotate(0)" xlink:href="#item_0">
<title>item, id: 0, transf: [r: 0.000°, t: (176.198, 41.434)]</title>
</use>
<use transform="translate(179.80133 53.840935), rotate(-180)" xlink:href="#item_0">
<title>item, id: 0, transf: [r: -180.000°, t: (179.801, 53.841)]</title>
</use>
<use transform="translate(59.130608 59.73323), rotate(-180)" xlink:href="#item_0">
<title>item, id: 0, transf: [r: -180.000°, t: (59.131, 59.733)]</title>
</use>
<use transform="translate(235.20013 67.43389), rotate(-180)" xlink:href="#item_0">
<title>item, id: 0, transf: [r: -180.000°, t: (235.200, 67.434)]</title>
</use>
<use transform="translate(58.76113 46.7286), rotate(-180)" xlink:href="#item_2">
<title>item, id: 2, transf: [r: -180.000°, t: (58.761, 46.729)]</title>
</use>
<use transform="translate(53.06427 5.0000157), rotate(-180)" xlink:href="#item_3">
<title>item, id: 3, transf: [r: -180.000°, t: (53.064, 5.000)]</title>
</use>
<use transform="translate(140.38422 78.9999), rotate(-180)" xlink:href="#item_4">
<title>item, id: 4, transf: [r: -180.000°, t: (140.384, 79.000)]</title>
</use>
<use transform="translate(103.075714 39.79821), rotate(-180)" xlink:href="#item_5">
<title>item, id: 5, transf: [r: -180.000°, t: (103.076, 39.798)]</title>
</use>
<use transform="translate(31.853685 18.119793), rotate(0)" xlink:href="#item_14">
<title>item, id: 14, transf: [r: 0.000°, t: (31.854, 18.120)]</title>
</use>
<use transform="translate(6.0000134 78.57584), rotate(-180)" xlink:href="#item_14">
<title>item, id: 14, transf: [r: -180.000°, t: (6.000, 78.576)]</title>
</use>
<use transform="translate(145.51265 69.96735), rotate(-180)" xlink:href="#item_14">
<title>item, id: 14, transf: [r: -180.000°, t: (145.513, 69.967)]</title>
</use>
<use transform="translate(22.37276 28.027935), rotate(-180)" xlink:href="#item_14">
<title>item, id: 14, transf: [r: -180.000°, t: (22.373, 28.028)]</title>
</use>
<use transform="translate(60.384686 11.009538), rotate(-180)" xlink:href="#item_14">
<title>item, id: 14, transf: [r: -180.000°, t: (60.385, 11.010)]</title>
</use>
<use transform="translate(156.40115 54.46848), rotate(0)" xlink:href="#item_14">
<title>item, id: 14, transf: [r: 0.000°, t: (156.401, 54.468)]</title>
</use>
<use transform="translate(50.137203 19.225435), rotate(0)" xlink:href="#item_14">
<title>item, id: 14, transf: [r: 0.000°, t: (50.137, 19.225)]</title>
</use>
<use transform="translate(15.644811 67.99987), rotate(0)" xlink:href="#item_14">
<title>item, id: 14, transf: [r: 0.000°, t: (15.645, 68.000)]</title>
</use>
<use transform="translate(221.12256 73.99286), rotate(0)" xlink:href="#item_9">
<title>item, id: 9, transf: [r: 0.000°, t: (221.123, 73.993)]</title>
</use>
<use transform="translate(151.62926 59.52707), rotate(-180)" xlink:href="#item_7">
<title>item, id: 7, transf: [r: -180.000°, t: (151.629, 59.527)]</title>
</use>
<use transform="translate(16.211899 24.146149), rotate(-180)" xlink:href="#item_7">
<title>item, id: 7, transf: [r: -180.000°, t: (16.212, 24.146)]</title>
</use>
<use transform="translate(0.0050439835 19.89594), rotate(0)" xlink:href="#item_7">
<title>item, id: 7, transf: [r: 0.000°, t: (0.005, 19.896)]</title>
</use>
<use transform="translate(15.001873 64.80575), rotate(-180)" xlink:href="#item_7">
<title>item, id: 7, transf: [r: -180.000°, t: (15.002, 64.806)]</title>
</use>
<use transform="translate(0.00013160706 60.80545), rotate(0)" xlink:href="#item_7">
<title>item, id: 7, transf: [r: 0.000°, t: (0.000, 60.805)]</title>
</use>
<use transform="translate(117.24442 15.432188), rotate(0)" xlink:href="#item_7">
<title>item, id: 7, transf: [r: 0.000°, t: (117.244, 15.432)]</title>
</use>
<use transform="translate(176.2001 63.642162), rotate(-180)" xlink:href="#item_7">
<title>item, id: 7, transf: [r: -180.000°, t: (176.200, 63.642)]</title>
</use>
<use transform="translate(175.49588 22.766632), rotate(-180)" xlink:href="#item_7">
<title>item, id: 7, transf: [r: -180.000°, t: (175.496, 22.767)]</title>
</use>
<use transform="translate(96.38346 78.998276), rotate(-180)" xlink:href="#item_11">
<title>item, id: 11, transf: [r: -180.000°, t: (96.383, 78.998)]</title>
</use>
<use transform="translate(214.1687 40.610756), rotate(0)" xlink:href="#item_6">
<title>item, id: 6, transf: [r: 0.000°, t: (214.169, 40.611)]</title>
</use>
<use transform="translate(96.23442 21.08967), rotate(0)" xlink:href="#item_6">
<title>item, id: 6, transf: [r: 0.000°, t: (96.234, 21.090)]</title>
</use>
<use transform="translate(213.78954 38.569294), rotate(0)" xlink:href="#item_6">
<title>item, id: 6, transf: [r: 0.000°, t: (213.790, 38.569)]</title>
</use>
<use transform="translate(143.28616 38.799496), rotate(0)" xlink:href="#item_6">
<title>item, id: 6, transf: [r: 0.000°, t: (143.286, 38.799)]</title>
</use>
<use transform="translate(95.30821 17.085636), rotate(0)" xlink:href="#item_6">
<title>item, id: 6, transf: [r: 0.000°, t: (95.308, 17.086)]</title>
</use>
<use transform="translate(109.42515 21.089483), rotate(-180)" xlink:href="#item_6">
<title>item, id: 6, transf: [r: -180.000°, t: (109.425, 21.089)]</title>
</use>
<use transform="translate(142.68732 40.824738), rotate(-180)" xlink:href="#item_6">
<title>item, id: 6, transf: [r: -180.000°, t: (142.687, 40.825)]</title>
</use>
<use transform="translate(185.57648 40.597836), rotate(-180)" xlink:href="#item_6">
<title>item, id: 6, transf: [r: -180.000°, t: (185.576, 40.598)]</title>
</use>
<use transform="translate(22.582708 59.513332), rotate(0)" xlink:href="#item_8">
<title>item, id: 8, transf: [r: 0.000°, t: (22.583, 59.513)]</title>
</use>
<use transform="translate(115.0774 39.796684), rotate(-180)" xlink:href="#item_13">
<title>item, id: 13, transf: [r: -180.000°, t: (115.077, 39.797)]</title>
</use>
<use transform="translate(223.06706 68.99119), rotate(0)" xlink:href="#item_13">
<title>item, id: 13, transf: [r: 0.000°, t: (223.067, 68.991)]</title>
</use>
<use transform="translate(139.5852 70.79784), rotate(0)" xlink:href="#item_15">
<title>item, id: 15, transf: [r: 0.000°, t: (139.585, 70.798)]</title>
</use>
<use transform="translate(227.19977 21.119377), rotate(0)" xlink:href="#item_15">
<title>item, id: 15, transf: [r: 0.000°, t: (227.200, 21.119)]</title>
</use>
<use transform="translate(19.383326 68.95209), rotate(0)" xlink:href="#item_15">
<title>item, id: 15, transf: [r: 0.000°, t: (19.383, 68.952)]</title>
</use>
<use transform="translate(23.001907 66.53845), rotate(-180)" xlink:href="#item_15">
<title>item, id: 15, transf: [r: -180.000°, t: (23.002, 66.538)]</title>
</use>
<use transform="translate(155.58606 76.99964), rotate(-180)" xlink:href="#item_15">
<title>item, id: 15, transf: [r: -180.000°, t: (155.586, 77.000)]</title>
</use>
<use transform="translate(213.10025 70.979065), rotate(0)" xlink:href="#item_15">
<title>item, id: 15, transf: [r: 0.000°, t: (213.100, 70.979)]</title>
</use>
<use transform="translate(36.13391 21.214434), rotate(0)" xlink:href="#item_15">
<title>item, id: 15, transf: [r: 0.000°, t: (36.134, 21.214)]</title>
</use>
<use transform="translate(67.14013 19.062637), rotate(-180)" xlink:href="#item_15">
<title>item, id: 15, transf: [r: -180.000°, t: (67.140, 19.063)]</title>
</use>
<use transform="translate(235.19855 19.46862), rotate(-180)" xlink:href="#item_10">
<title>item, id: 10, transf: [r: -180.000°, t: (235.199, 19.469)]</title>
</use>
<use transform="translate(213.57553 42.473885), rotate(-180)" xlink:href="#item_12">
<title>item, id: 12, transf: [r: -180.000°, t: (213.576, 42.474)]</title>
</use>
<use transform="translate(175.49716 18.54443), rotate(0)" xlink:href="#item_12">
<title>item, id: 12, transf: [r: 0.000°, t: (175.497, 18.544)]</title>
</use>
<use transform="translate(232.20027 38.534), rotate(-180)" xlink:href="#item_16">
<title>item, id: 16, transf: [r: -180.000°, t: (232.200, 38.534)]</title>
</use>
<use transform="translate(61.765026 39.933395), rotate(0)" xlink:href="#item_16">
<title>item, id: 16, transf: [r: 0.000°, t: (61.765, 39.933)]</title>
</use>
<use transform="translate(58.135315 53.99126), rotate(-180)" xlink:href="#item_16">
<title>item, id: 16, transf: [r: -180.000°, t: (58.135, 53.991)]</title>
</use>
<use transform="translate(62.212914 52.038048), rotate(0)" xlink:href="#item_16">
<title>item, id: 16, transf: [r: 0.000°, t: (62.213, 52.038)]</title>
</use>
</g>
<g id="quality_zones"/>
<g id="optionals">
<g id="overlap_lines" transform="translate(0 0), rotate(0)"/>
</g>
<text font-family="monospace" font-size="1.975" font-weight="500" x="0" y="-0.9875">
height: 79.000 | width: 235.200 | usage: 92.603% | final_best
</text>
</svg>