<svg viewBox="-86.09655 -127.50003 1894.1237 2805" xmlns="http://www.w3.org/2000/svg" xmlns:xlink="http://www.w3.org/1999/xlink">
<g id="bin_0">
<path d="M0,0 L1721.9305,0 L1721.9305,2550 L0,2550 z" fill="#D3D3D3" stroke="black" stroke-width="9.470619"/>
<title>bin, id: 0, bbox: [x_min: 0.000, y_min: 0.000, x_max: 1721.931, y_max: 2550.000]</title>
</g>
<g id="items">
<defs>
<g id="item_0">
<path d="M10,115 L478,113 L727,21 L856,44 L930,47 L1049,0 L1097,295 L1078,396 L0,407 z" fill="#7A7A7A" fill-opacity="0.5" fill-rule="nonzero" stroke="black" stroke-width="4.7353096"/>
</g>
<g id="item_1">
<path d="M0,0 L316,2 L316,274 L0,275 z" fill="#7A7A7A" fill-opacity="0.5" fill-rule="nonzero" stroke="black" stroke-width="4.7353096"/>
</g>
<g id="item_2">
<path d="M0,1 L239,0 L242,80 L0,78 z" fill="#7A7A7A" fill-opacity="0.5" fill-rule="nonzero" stroke="black" stroke-width="4.7353096"/>
</g>
<g id="item_3">
<path d="M0,310 L0,119 L384,0 L384,70 L759,69 L758,310 z" fill="#7A7A7A" fill-opacity="0.5" fill-rule="nonzero" stroke="black" stroke-width="4.7353096"/>
</g>
<g id="item_4">
<path d="M0,252 L0,75 L150,0 L148,175 z" fill="#7A7A7A" fill-opacity="0.5" fill-rule="nonzero" stroke="black" stroke-width="4.7353096"/>
</g>
<g id="item_5">
<path d="M852,412 L503,414 L387,451 L355,505 L300,451 L45,325 L0,221 L0,154 L55,53 L145,16 L329,25 L407,35 L539,38 L597,51 L668,20 L736,0 L784,3 L849,194 z" fill="#7A7A7A" fill-opacity="0.5" fill-rule="nonzero" stroke="black" stroke-width="4.7353096"/>
</g>
<g id="item_6">
<path d="M0,232 L827,0 L894,20 L975,258 L1097,260 L1003,500 L884,463 L845,453 L761,490 L732,547 L694,544 L616,477 L539,414 L0,426 z" fill="#7A7A7A" fill-opacity="0.5" fill-rule="nonzero" stroke="black" stroke-width="4.7353096"/>
</g>
<g id="item_7">
<path d="M151,427 L97,266 L0,259 L75,28 L126,21 L191,61 L271,50 L316,64 L359,10 L436,6 L442,43 L694,75 L726,42 L1091,0 L1094,211 L1033,208 L987,346 L926,393 z" fill="#7A7A7A" fill-opacity="0.5" fill-rule="nonzero" stroke="black" stroke-width="4.7353096"/>
</g>
<g id="item_8">
<path d="M0,0 L745,24 L619,196 L590,276 L522,260 L6,282 z" fill="#7A7A7A" fill-opacity="0.5" fill-rule="nonzero" stroke="black" stroke-width="4.7353096"/>
</g>
</defs>
<use transform="translate(840.4029 1053.4989), rotate(90)" xlink:href="#item_6">
<title>item, id: 6, transf: [r: 90.000°, t: (840.403, 1053.499)]</title>
</use>
<use transform="translate(618.6013 1916.8446), rotate(-90)" xlink:href="#item_6">
<title>item, id: 6, transf: [r: -90.000°, t: (618.601, 1916.845)]</title>
</use>
<use transform="translate(1294.9187 2233.3828), rotate(-90)" xlink:href="#item_7">
<title>item, id: 7, transf: [r: -90.000°, t: (1294.919, 2233.383)]</title>
</use>
<use transform="translate(1721.3302 427.01703), rotate(-180)" xlink:href="#item_7">
<title>item, id: 7, transf: [r: -180.000°, t: (1721.330, 427.017)]</title>
</use>
<use transform="translate(407.0103 1452.9933), rotate(90)" xlink:href="#item_0">
<title>item, id: 0, transf: [r: 90.000°, t: (407.010, 1452.993)]</title>
</use>
<use transform="translate(407.00177 297.3482), rotate(90)" xlink:href="#item_0">
<title>item, id: 0, transf: [r: 90.000°, t: (407.002, 297.348)]</title>
</use>
<use transform="translate(1432.779 2543.3613), rotate(-180)" xlink:href="#item_5">
<title>item, id: 5, transf: [r: -180.000°, t: (1432.779, 2543.361)]</title>
</use>
<use transform="translate(1456.2501 866.4393), rotate(-180)" xlink:href="#item_5">
<title>item, id: 5, transf: [r: -180.000°, t: (1456.250, 866.439)]</title>
</use>
<use transform="translate(1411.9061 1178.4587), rotate(-90)" xlink:href="#item_3">
<title>item, id: 3, transf: [r: -90.000°, t: (1411.906, 1178.459)]</title>
</use>
<use transform="translate(293.51605 1044.2307), rotate(-90)" xlink:href="#item_3">
<title>item, id: 3, transf: [r: -90.000°, t: (293.516, 1044.231)]</title>
</use>
<use transform="translate(11.887512 2.758606), rotate(0)" xlink:href="#item_8">
<title>item, id: 8, transf: [r: 0.000°, t: (11.888, 2.759)]</title>
</use>
<use transform="translate(1314.6119 1372.2003), rotate(90)" xlink:href="#item_8">
<title>item, id: 8, transf: [r: 90.000°, t: (1314.612, 1372.200)]</title>
</use>
<use transform="translate(1118.695 866.0227), rotate(0)" xlink:href="#item_1">
<title>item, id: 1, transf: [r: 0.000°, t: (1118.695, 866.023)]</title>
</use>
<use transform="translate(1721.8506 2233.9922), rotate(90)" xlink:href="#item_1">
<title>item, id: 1, transf: [r: 90.000°, t: (1721.851, 2233.992)]</title>
</use>
<use transform="translate(622.3596 2392.5457), rotate(90)" xlink:href="#item_4">
<title>item, id: 4, transf: [r: 90.000°, t: (622.360, 2392.546)]</title>
</use>
<use transform="translate(529.32385 2382.7268), rotate(-180)" xlink:href="#item_4">
<title>item, id: 4, transf: [r: -180.000°, t: (529.324, 2382.727)]</title>
</use>
<use transform="translate(835.8225 2121.0002), rotate(-180)" xlink:href="#item_2">
<title>item, id: 2, transf: [r: -180.000°, t: (835.823, 2121.000)]</title>
</use>
<use transform="translate(406.34375 1359.1688), rotate(90)" xlink:href="#item_2">
<title>item, id: 2, transf: [r: 90.000°, t: (406.344, 1359.169)]</title>
</use>
<use transform="translate(853.9189 948.1969), rotate(-180)" xlink:href="#item_2">
<title>item, id: 2, transf: [r: -180.000°, t: (853.919, 948.197)]</title>
</use>
<use transform="translate(1028.2455 2042.506), rotate(-180)" xlink:href="#item_2">
<title>item, id: 2, transf: [r: -180.000°, t: (1028.245, 2042.506)]</title>
</use>
</g>
<g id="quality_zones"/>
<g id="optionals">
<g id="overlap_lines" transform="translate(0 0), rotate(0)"/>
</g>
<text font-family="monospace" font-size="43.048264" font-weight="500" x="0" y="-21.524132">
height: 2550.000 | width: 1721.931 | usage: 85.600% | final_bench_74
</text>
</svg>