<svg viewBox="-86.080345 -127.50003 1893.7672 2805" xmlns="http://www.w3.org/2000/svg" xmlns:xlink="http://www.w3.org/1999/xlink">
<g id="bin_0">
<path d="M0,0 L1721.6066,0 L1721.6066,2550 L0,2550 z" fill="#D3D3D3" stroke="black" stroke-width="9.468837"/>
<title>bin, id: 0, bbox: [x_min: 0.000, y_min: 0.000, x_max: 1721.607, y_max: 2550.000]</title>
</g>
<g id="items">
<defs>
<g id="item_0">
<path d="M10,115 L478,113 L727,21 L856,44 L930,47 L1049,0 L1097,295 L1078,396 L0,407 z" fill="#7A7A7A" fill-opacity="0.5" fill-rule="nonzero" stroke="black" stroke-width="4.7344184"/>
</g>
<g id="item_1">
<path d="M0,0 L316,2 L316,274 L0,275 z" fill="#7A7A7A" fill-opacity="0.5" fill-rule="nonzero" stroke="black" stroke-width="4.7344184"/>
</g>
<g id="item_2">
<path d="M0,1 L239,0 L242,80 L0,78 z" fill="#7A7A7A" fill-opacity="0.5" fill-rule="nonzero" stroke="black" stroke-width="4.7344184"/>
</g>
<g id="item_3">
<path d="M0,310 L0,119 L384,0 L384,70 L759,69 L758,310 z" fill="#7A7A7A" fill-opacity="0.5" fill-rule="nonzero" stroke="black" stroke-width="4.7344184"/>
</g>
<g id="item_4">
<path d="M0,252 L0,75 L150,0 L148,175 z" fill="#7A7A7A" fill-opacity="0.5" fill-rule="nonzero" stroke="black" stroke-width="4.7344184"/>
</g>
<g id="item_5">
<path d="M852,412 L503,414 L387,451 L355,505 L300,451 L45,325 L0,221 L0,154 L55,53 L145,16 L329,25 L407,35 L539,38 L597,51 L668,20 L736,0 L784,3 L849,194 z" fill="#7A7A7A" fill-opacity="0.5" fill-rule="nonzero" stroke="black" stroke-width="4.7344184"/>
</g>
<g id="item_6">
<path d="M0,232 L827,0 L894,20 L975,258 L1097,260 L1003,500 L884,463 L845,453 L761,490 L732,547 L694,544 L616,477 L539,414 L0,426 z" fill="#7A7A7A" fill-opacity="0.5" fill-rule="nonzero" stroke="black" stroke-width="4.7344184"/>
</g>
<g id="item_7">
<path d="M151,427 L97,266 L0,259 L75,28 L126,21 L191,61 L271,50 L316,64 L359,10 L436,6 L442,43 L694,75 L726,42 L1091,0 L1094,211 L1033,208 L987,346 L926,393 z" fill="#7A7A7A" fill-opacity="0.5" fill-rule="nonzero" stroke="black" stroke-width="4.7344184"/>
</g>
<g id="item_8">
<path d="M0,0 L745,24 L619,196 L590,276 L522,260 L6,282 z" fill="#7A7A7A" fill-opacity="0.5" fill-rule="nonzero" stroke="black" stroke-width="4.7344184"/>
</g>
</defs>
<use transform="translate(350.3437 1001.8325), rotate(0)" xlink:href="#item_6">
<title>item, id: 6, transf: [r: 0.000°, t: (350.344, 1001.833)]</title>
</use>
<use transform="translate(1154.474 1240.2058), rotate(-180)" xlink:href="#item_6">
<title>item, id: 6, transf: [r: -180.000°, t: (1154.474, 1240.206)]</title>
</use>
<use transform="translate(636.8068 2549.986), rotate(-90)" xlink:href="#item_7">
<title>item, id: 7, transf: [r: -90.000°, t: (636.807, 2549.986)]</title>
</use>
<use transform="translate(1456.0581 1455.9175), rotate(90)" xlink:href="#item_7">
<title>item, id: 7, transf: [r: 90.000°, t: (1456.058, 1455.917)]</title>
</use>
<use transform="translate(1097.0156 407.24542), rotate(-180)" xlink:href="#item_0">
<title>item, id: 0, transf: [r: -180.000°, t: (1097.016, 407.245)]</title>
</use>
<use transform="translate(240.23164 2549.2295), rotate(-90)" xlink:href="#item_0">
<title>item, id: 0, transf: [r: -90.000°, t: (240.232, 2549.229)]</title>
</use>
<use transform="translate(1721.6006 217.26328), rotate(90)" xlink:href="#item_5">
<title>item, id: 5, transf: [r: 90.000°, t: (1721.601, 217.263)]</title>
</use>
<use transform="translate(366.74924 318.02008), rotate(0)" xlink:href="#item_5">
<title>item, id: 5, transf: [r: 0.000°, t: (366.749, 318.020)]</title>
</use>
<use transform="translate(310.0044 1031.2034), rotate(90)" xlink:href="#item_3">
<title>item, id: 3, transf: [r: 90.000°, t: (310.004, 1031.203)]</title>
</use>
<use transform="translate(353.62958 1790.9736), rotate(90)" xlink:href="#item_3">
<title>item, id: 3, transf: [r: 90.000°, t: (353.630, 1790.974)]</title>
</use>
<use transform="translate(1721.5977 1062.2034), rotate(90)" xlink:href="#item_8">
<title>item, id: 8, transf: [r: 90.000°, t: (1721.598, 1062.203)]</title>
</use>
<use transform="translate(1439.6017 2403.7646), rotate(-90)" xlink:href="#item_8">
<title>item, id: 8, transf: [r: -90.000°, t: (1439.602, 2403.765)]</title>
</use>
<use transform="translate(0.0134887695 407.27408), rotate(0)" xlink:href="#item_1">
<title>item, id: 1, transf: [r: 0.000°, t: (0.013, 407.274)]</title>
</use>
<use transform="translate(1095.0344 316.00565), rotate(-90)" xlink:href="#item_1">
<title>item, id: 1, transf: [r: -90.000°, t: (1095.034, 316.006)]</title>
</use>
<use transform="translate(1305.4414 1001.8812), rotate(-180)" xlink:href="#item_4">
<title>item, id: 4, transf: [r: -180.000°, t: (1305.441, 1001.881)]</title>
</use>
<use transform="translate(1721.5791 0.01789093), rotate(90)" xlink:href="#item_4">
<title>item, id: 4, transf: [r: 90.000°, t: (1721.579, 0.018)]</title>
</use>
<use transform="translate(80.38362 682.6509), rotate(90)" xlink:href="#item_2">
<title>item, id: 2, transf: [r: 90.000°, t: (80.384, 682.651)]</title>
</use>
<use transform="translate(1721.5638 2549.984), rotate(-180)" xlink:href="#item_2">
<title>item, id: 2, transf: [r: -180.000°, t: (1721.564, 2549.984)]</title>
</use>
<use transform="translate(1191.3102 2548.3674), rotate(-180)" xlink:href="#item_2">
<title>item, id: 2, transf: [r: -180.000°, t: (1191.310, 2548.367)]</title>
</use>
<use transform="translate(902.42566 734.0099), rotate(0)" xlink:href="#item_2">
<title>item, id: 2, transf: [r: 0.000°, t: (902.426, 734.010)]</title>
</use>
</g>
<g id="quality_zones"/>
<g id="optionals">
<g id="overlap_lines" transform="translate(0 0), rotate(0)"/>
</g>
<text font-family="monospace" font-size="43.040165" font-weight="500" x="0" y="-21.520082">
height: 2550.000 | width: 1721.607 | usage: 85.616% | final_bench_55
</text>
</svg>