<svg viewBox="-85.89609 -127.50003 1889.7136 2805" xmlns="http://www.w3.org/2000/svg" xmlns:xlink="http://www.w3.org/1999/xlink">
<g id="bin_0">
<path d="M0,0 L1717.9214,0 L1717.9214,2550 L0,2550 z" fill="#D3D3D3" stroke="black" stroke-width="9.448568"/>
<title>bin, id: 0, bbox: [x_min: 0.000, y_min: 0.000, x_max: 1717.921, y_max: 2550.000]</title>
</g>
<g id="items">
<defs>
<g id="item_0">
<path d="M10,115 L478,113 L727,21 L856,44 L930,47 L1049,0 L1097,295 L1078,396 L0,407 z" fill="#7A7A7A" fill-opacity="0.5" fill-rule="nonzero" stroke="black" stroke-width="4.724284"/>
</g>
<g id="item_1">
<path d="M0,0 L316,2 L316,274 L0,275 z" fill="#7A7A7A" fill-opacity="0.5" fill-rule="nonzero" stroke="black" stroke-width="4.724284"/>
</g>
<g id="item_2">
<path d="M0,1 L239,0 L242,80 L0,78 z" fill="#7A7A7A" fill-opacity="0.5" fill-rule="nonzero" stroke="black" stroke-width="4.724284"/>
</g>
<g id="item_3">
<path d="M0,310 L0,119 L384,0 L384,70 L759,69 L758,310 z" fill="#7A7A7A" fill-opacity="0.5" fill-rule="nonzero" stroke="black" stroke-width="4.724284"/>
</g>
<g id="item_4">
<path d="M0,252 L0,75 L150,0 L148,175 z" fill="#7A7A7A" fill-opacity="0.5" fill-rule="nonzero" stroke="black" stroke-width="4.724284"/>
</g>
<g id="item_5">
<path d="M852,412 L503,414 L387,451 L355,505 L300,451 L45,325 L0,221 L0,154 L55,53 L145,16 L329,25 L407,35 L539,38 L597,51 L668,20 L736,0 L784,3 L849,194 z" fill="#7A7A7A" fill-opacity="0.5" fill-rule="nonzero" stroke="black" stroke-width="4.724284"/>
</g>
<g id="item_6">
<path d="M0,232 L827,0 L894,20 L975,258 L1097,260 L1003,500 L884,463 L845,453 L761,490 L732,547 L694,544 L616,477 L539,414 L0,426 z" fill="#7A7A7A" fill-opacity="0.5" fill-rule="nonzero" stroke="black" stroke-width="4.724284"/>
</g>
<g id="item_7">
<path d="M151,427 L97,266 L0,259 L75,28 L126,21 L191,61 L271,50 L316,64 L359,10 L436,6 L442,43 L694,75 L726,42 L1091,0 L1094,211 L1033,208 L987,346 L926,393 z" fill="#7A7A7A" fill-opacity="0.5" fill-rule="nonzero" stroke="black" stroke-width="4.724284"/>
</g>
<g id="item_8">
<path d="M0,0 L745,24 L619,196 L590,276 L522,260 L6,282 z" fill="#7A7A7A" fill-opacity="0.5" fill-rule="nonzero" stroke="black" stroke-width="4.724284"/>
</g>
</defs>
<use transform="translate(605.5238 1952.0897), rotate(-90)" xlink:href="#item_6">
<title>item, id: 6, transf: [r: -90.000°, t: (605.524, 1952.090)]</title>
</use>
<use transform="translate(843.4164 1153.5995), rotate(90)" xlink:href="#item_6">
<title>item, id: 6, transf: [r: 90.000°, t: (843.416, 1153.599)]</title>
</use>
<use transform="translate(1717.9211 1439.4387), rotate(90)" xlink:href="#item_7">
<title>item, id: 7, transf: [r: 90.000°, t: (1717.921, 1439.439)]</title>
</use>
<use transform="translate(0.8148651 1776.0671), rotate(-90)" xlink:href="#item_7">
<title>item, id: 7, transf: [r: -90.000°, t: (0.815, 1776.067)]</title>
</use>
<use transform="translate(239.7262 2142.992), rotate(0)" xlink:href="#item_0">
<title>item, id: 0, transf: [r: 0.000°, t: (239.726, 2142.992)]</title>
</use>
<use transform="translate(1310.9081 1097.1923), rotate(-90)" xlink:href="#item_0">
<title>item, id: 0, transf: [r: -90.000°, t: (1310.908, 1097.192)]</title>
</use>
<use transform="translate(835.16766 852.006), rotate(-90)" xlink:href="#item_5">
<title>item, id: 5, transf: [r: -90.000°, t: (835.168, 852.006)]</title>
</use>
<use transform="translate(0.14874268 274.59113), rotate(0)" xlink:href="#item_5">
<title>item, id: 5, transf: [r: 0.000°, t: (0.149, 274.591)]</title>
</use>
<use transform="translate(310.00055 1753.7273), rotate(90)" xlink:href="#item_3">
<title>item, id: 3, transf: [r: 90.000°, t: (310.001, 1753.727)]</title>
</use>
<use transform="translate(815.2053 310.0108), rotate(-180)" xlink:href="#item_3">
<title>item, id: 3, transf: [r: -180.000°, t: (815.205, 310.011)]</title>
</use>
<use transform="translate(1424.6904 808.6111), rotate(90)" xlink:href="#item_8">
<title>item, id: 8, transf: [r: 90.000°, t: (1424.690, 808.611)]</title>
</use>
<use transform="translate(1025.7169 2133.259), rotate(-90)" xlink:href="#item_8">
<title>item, id: 8, transf: [r: -90.000°, t: (1025.717, 2133.259)]</title>
</use>
<use transform="translate(1441.0979 1428.1573), rotate(-90)" xlink:href="#item_1">
<title>item, id: 1, transf: [r: -90.000°, t: (1441.098, 1428.157)]</title>
</use>
<use transform="translate(847.7187 967.9748), rotate(-180)" xlink:href="#item_1">
<title>item, id: 1, transf: [r: -180.000°, t: (847.719, 967.975)]</title>
</use>
<use transform="translate(840.4352 1958.3811), rotate(0)" xlink:href="#item_4">
<title>item, id: 4, transf: [r: 0.000°, t: (840.435, 1958.381)]</title>
</use>
<use transform="translate(1399.6293 811.05817), rotate(-180)" xlink:href="#item_4">
<title>item, id: 4, transf: [r: -180.000°, t: (1399.629, 811.058)]</title>
</use>
<use transform="translate(1334.1354 109.79623), rotate(90)" xlink:href="#item_2">
<title>item, id: 2, transf: [r: 90.000°, t: (1334.135, 109.796)]</title>
</use>
<use transform="translate(447.66367 960.0386), rotate(-90)" xlink:href="#item_2">
<title>item, id: 2, transf: [r: -90.000°, t: (447.664, 960.039)]</title>
</use>
<use transform="translate(827.58624 2216.0798), rotate(-180)" xlink:href="#item_2">
<title>item, id: 2, transf: [r: -180.000°, t: (827.586, 2216.080)]</title>
</use>
<use transform="translate(411.24265 968.4591), rotate(0)" xlink:href="#item_2">
<title>item, id: 2, transf: [r: 0.000°, t: (411.243, 968.459)]</title>
</use>
</g>
<g id="quality_zones"/>
<g id="optionals">
<g id="overlap_lines" transform="translate(0 0), rotate(0)"/>
</g>
<text font-family="monospace" font-size="42.948036" font-weight="500" x="0" y="-21.474018">
height: 2550.000 | width: 1717.921 | usage: 85.799% | final_bench_37
</text>
</svg>