<svg viewBox="-85.989746 -127.50003 1891.774 2805" xmlns="http://www.w3.org/2000/svg" xmlns:xlink="http://www.w3.org/1999/xlink">
<g id="bin_0">
<path d="M0,0 L1719.7946,0 L1719.7946,2550 L0,2550 z" fill="#D3D3D3" stroke="black" stroke-width="9.458871"/>
<title>bin, id: 0, bbox: [x_min: 0.000, y_min: 0.000, x_max: 1719.795, y_max: 2550.000]</title>
</g>
<g id="items">
<defs>
<g id="item_0">
<path d="M10,115 L478,113 L727,21 L856,44 L930,47 L1049,0 L1097,295 L1078,396 L0,407 z" fill="#7A7A7A" fill-opacity="0.5" fill-rule="nonzero" stroke="black" stroke-width="4.7294354"/>
</g>
<g id="item_1">
<path d="M0,0 L316,2 L316,274 L0,275 z" fill="#7A7A7A" fill-opacity="0.5" fill-rule="nonzero" stroke="black" stroke-width="4.7294354"/>
</g>
<g id="item_2">
<path d="M0,1 L239,0 L242,80 L0,78 z" fill="#7A7A7A" fill-opacity="0.5" fill-rule="nonzero" stroke="black" stroke-width="4.7294354"/>
</g>
<g id="item_3">
<path d="M0,310 L0,119 L384,0 L384,70 L759,69 L758,310 z" fill="#7A7A7A" fill-opacity="0.5" fill-rule="nonzero" stroke="black" stroke-width="4.7294354"/>
</g>
<g id="item_4">
<path d="M0,252 L0,75 L150,0 L148,175 z" fill="#7A7A7A" fill-opacity="0.5" fill-rule="nonzero" stroke="black" stroke-width="4.7294354"/>
</g>
<g id="item_5">
<path d="M852,412 L503,414 L387,451 L355,505 L300,451 L45,325 L0,221 L0,154 L55,53 L145,16 L329,25 L407,35 L539,38 L597,51 L668,20 L736,0 L784,3 L849,194 z" fill="#7A7A7A" fill-opacity="0.5" fill-rule="nonzero" stroke="black" stroke-width="4.7294354"/>
</g>
<g id="item_6">
<path d="M0,232 L827,0 L894,20 L975,258 L1097,260 L1003,500 L884,463 L845,453 L761,490 L732,547 L694,544 L616,477 L539,414 L0,426 z" fill="#7A7A7A" fill-opacity="0.5" fill-rule="nonzero" stroke="black" stroke-width="4.7294354"/>
</g>
<g id="item_7">
<path d="M151,427 L97,266 L0,259 L75,28 L126,21 L191,61 L271,50 L316,64 L359,10 L436,6 L442,43 L694,75 L726,42 L1091,0 L1094,211 L1033,208 L987,346 L926,393 z" fill="#7A7A7A" fill-opacity="0.5" fill-rule="nonzero" stroke="black" stroke-width="4.7294354"/>
</g>
<g id="item_8">
<path d="M0,0 L745,24 L619,196 L590,276 L522,260 L6,282 z" fill="#7A7A7A" fill-opacity="0.5" fill-rule="nonzero" stroke="black" stroke-width="4.7294354"/>
</g>
</defs>
<use transform="translate(322.50513 342.3113), rotate(0)" xlink:href="#item_6">
<title>item, id: 6, transf: [r: 0.000°, t: (322.505, 342.311)]</title>
</use>
<use transform="translate(1246.2325 547.16565), rotate(-180)" xlink:href="#item_6">
<title>item, id: 6, transf: [r: -180.000°, t: (1246.233, 547.166)]</title>
</use>
<use transform="translate(1448.1031 800.87225), rotate(90)" xlink:href="#item_7">
<title>item, id: 7, transf: [r: 90.000°, t: (1448.103, 800.872)]</title>
</use>
<use transform="translate(627.7484 1870.2866), rotate(-90)" xlink:href="#item_7">
<title>item, id: 7, transf: [r: -90.000°, t: (627.748, 1870.287)]</title>
</use>
<use transform="translate(407.00336 616.8661), rotate(90)" xlink:href="#item_0">
<title>item, id: 0, transf: [r: 90.000°, t: (407.003, 616.866)]</title>
</use>
<use transform="translate(1312.7942 1097.0337), rotate(-90)" xlink:href="#item_0">
<title>item, id: 0, transf: [r: -90.000°, t: (1312.794, 1097.034)]</title>
</use>
<use transform="translate(0.43084717 2549.4622), rotate(-90)" xlink:href="#item_5">
<title>item, id: 5, transf: [r: -90.000°, t: (0.431, 2549.462)]</title>
</use>
<use transform="translate(1393.8883 2284.3962), rotate(-180)" xlink:href="#item_5">
<title>item, id: 5, transf: [r: -180.000°, t: (1393.888, 2284.396)]</title>
</use>
<use transform="translate(1409.7551 1855.1404), rotate(-90)" xlink:href="#item_3">
<title>item, id: 3, transf: [r: -90.000°, t: (1409.755, 1855.140)]</title>
</use>
<use transform="translate(696.00867 845.03644), rotate(90)" xlink:href="#item_3">
<title>item, id: 3, transf: [r: 90.000°, t: (696.009, 845.036)]</title>
</use>
<use transform="translate(1436.1193 2549.8877), rotate(-90)" xlink:href="#item_8">
<title>item, id: 8, transf: [r: -90.000°, t: (1436.119, 2549.888)]</title>
</use>
<use transform="translate(1054.8389 2549.9153), rotate(-180)" xlink:href="#item_8">
<title>item, id: 8, transf: [r: -180.000°, t: (1054.839, 2549.915)]</title>
</use>
<use transform="translate(275.07675 300.85617), rotate(90)" xlink:href="#item_1">
<title>item, id: 1, transf: [r: 90.000°, t: (275.077, 300.856)]</title>
</use>
<use transform="translate(1076.713 2273.5137), rotate(0)" xlink:href="#item_1">
<title>item, id: 1, transf: [r: 0.000°, t: (1076.713, 2273.514)]</title>
</use>
<use transform="translate(0.23363495 1.7287292), rotate(0)" xlink:href="#item_4">
<title>item, id: 4, transf: [r: 0.000°, t: (0.234, 1.729)]</title>
</use>
<use transform="translate(563.91895 1910.923), rotate(-180)" xlink:href="#item_4">
<title>item, id: 4, transf: [r: -180.000°, t: (563.919, 1910.923)]</title>
</use>
<use transform="translate(565.8635 1870.6), rotate(-90)" xlink:href="#item_2">
<title>item, id: 2, transf: [r: -90.000°, t: (565.864, 1870.600)]</title>
</use>
<use transform="translate(941.8711 91.88823), rotate(-180)" xlink:href="#item_2">
<title>item, id: 2, transf: [r: -180.000°, t: (941.871, 91.888)]</title>
</use>
<use transform="translate(537.36615 1915.9053), rotate(90)" xlink:href="#item_2">
<title>item, id: 2, transf: [r: 90.000°, t: (537.366, 1915.905)]</title>
</use>
<use transform="translate(1202.5498 106.74924), rotate(-180)" xlink:href="#item_2">
<title>item, id: 2, transf: [r: -180.000°, t: (1202.550, 106.749)]</title>
</use>
</g>
<g id="quality_zones"/>
<g id="optionals">
<g id="overlap_lines" transform="translate(0 0), rotate(0)"/>
</g>
<text font-family="monospace" font-size="42.994865" font-weight="500" x="0" y="-21.497433">
height: 2550.000 | width: 1719.795 | usage: 85.706% | final_bench_19
</text>
</svg>