<svg viewBox="-86.11831 -127.50003 1894.6023 2805" xmlns="http://www.w3.org/2000/svg" xmlns:xlink="http://www.w3.org/1999/xlink">
<g id="bin_0">
<path d="M0,0 L1722.3657,0 L1722.3657,2550 L0,2550 z" fill="#D3D3D3" stroke="black" stroke-width="9.473012"/>
<title>bin, id: 0, bbox: [x_min: 0.000, y_min: 0.000, x_max: 1722.366, y_max: 2550.000]</title>
</g>
<g id="items">
<defs>
<g id="item_0">
<path d="M10,115 L478,113 L727,21 L856,44 L930,47 L1049,0 L1097,295 L1078,396 L0,407 z" fill="#7A7A7A" fill-opacity="0.5" fill-rule="nonzero" stroke="black" stroke-width="4.736506"/>
</g>
<g id="item_1">
<path d="M0,0 L316,2 L316,274 L0,275 z" fill="#7A7A7A" fill-opacity="0.5" fill-rule="nonzero" stroke="black" stroke-width="4.736506"/>
</g>
<g id="item_2">
<path d="M0,1 L239,0 L242,80 L0,78 z" fill="#7A7A7A" fill-opacity="0.5" fill-rule="nonzero" stroke="black" stroke-width="4.736506"/>
</g>
<g id="item_3">
<path d="M0,310 L0,119 L384,0 L384,70 L759,69 L758,310 z" fill="#7A7A7A" fill-opacity="0.5" fill-rule="nonzero" stroke="black" stroke-width="4.736506"/>
</g>
<g id="item_4">
<path d="M0,252 L0,75 L150,0 L148,175 z" fill="#7A7A7A" fill-opacity="0.5" fill-rule="nonzero" stroke="black" stroke-width="4.736506"/>
</g>
<g id="item_5">
<path d="M852,412 L503,414 L387,451 L355,505 L300,451 L45,325 L0,221 L0,154 L55,53 L145,16 L329,25 L407,35 L539,38 L597,51 L668,20 L736,0 L784,3 L849,194 z" fill="#7A7A7A" fill-opacity="0.5" fill-rule="nonzero" stroke="black" stroke-width="4.736506"/>
</g>
<g id="item_6">
<path d="M0,232 L827,0 L894,20 L975,258 L1097,260 L1003,500 L884,463 L845,453 L761,490 L732,547 L694,544 L616,477 L539,414 L0,426 z" fill="#7A7A7A" fill-opacity="0.5" fill-rule="nonzero" stroke="black" stroke-width="4.736506"/>
</g>
<g id="item_7">
<path d="M151,427 L97,266 L0,259 L75,28 L126,21 L191,61 L271,50 L316,64 L359,10 L436,6 L442,43 L694,75 L726,42 L1091,0 L1094,211 L1033,208 L987,346 L926,393 z" fill="#7A7A7A" fill-opacity="0.5" fill-rule="nonzero" stroke="black" stroke-width="4.736506"/>
</g>
<g id="item_8">
<path d="M0,0 L745,24 L619,196 L590,276 L522,260 L6,282 z" fill="#7A7A7A" fill-opacity="0.5" fill-rule="nonzero" stroke="black" stroke-width="4.736506"/>
</g>
</defs>
<use transform="translate(337.79205 1589.8347), rotate(0)" xlink:href="#item_6">
<title>item, id: 6, transf: [r: 0.000°, t: (337.792, 1589.835)]</title>
</use>
<use transform="translate(1304.0669 1782.762), rotate(-180)" xlink:href="#item_6">
<title>item, id: 6, transf: [r: -180.000°, t: (1304.067, 1782.762)]</title>
</use>
<use transform="translate(1361.7576 427.00024), rotate(-180)" xlink:href="#item_7">
<title>item, id: 7, transf: [r: -180.000°, t: (1361.758, 427.000)]</title>
</use>
<use transform="translate(1411.763 833.30347), rotate(-180)" xlink:href="#item_7">
<title>item, id: 7, transf: [r: -180.000°, t: (1411.763, 833.303)]</title>
</use>
<use transform="translate(1429.1519 1229.7201), rotate(-180)" xlink:href="#item_0">
<title>item, id: 0, transf: [r: -180.000°, t: (1429.152, 1229.720)]</title>
</use>
<use transform="translate(1315.3488 1097.0114), rotate(-90)" xlink:href="#item_0">
<title>item, id: 0, transf: [r: -90.000°, t: (1315.349, 1097.011)]</title>
</use>
<use transform="translate(872.9558 2549.9836), rotate(-180)" xlink:href="#item_5">
<title>item, id: 5, transf: [r: -180.000°, t: (872.956, 2549.984)]</title>
</use>
<use transform="translate(1722.3635 2549.998), rotate(-180)" xlink:href="#item_5">
<title>item, id: 5, transf: [r: -180.000°, t: (1722.364, 2549.998)]</title>
</use>
<use transform="translate(1412.3622 2152.4797), rotate(-90)" xlink:href="#item_3">
<title>item, id: 3, transf: [r: -90.000°, t: (1412.362, 2152.480)]</title>
</use>
<use transform="translate(1722.1876 1426.6653), rotate(-180)" xlink:href="#item_3">
<title>item, id: 3, transf: [r: -180.000°, t: (1722.188, 1426.665)]</title>
</use>
<use transform="translate(0.014450073 746.5221), rotate(-90)" xlink:href="#item_8">
<title>item, id: 8, transf: [r: -90.000°, t: (0.014, 746.522)]</title>
</use>
<use transform="translate(0.000076293945 2138.4224), rotate(-90)" xlink:href="#item_8">
<title>item, id: 8, transf: [r: -90.000°, t: (0.000, 2138.422)]</title>
</use>
<use transform="translate(319.52655 1024.1185), rotate(-180)" xlink:href="#item_1">
<title>item, id: 1, transf: [r: -180.000°, t: (319.527, 1024.119)]</title>
</use>
<use transform="translate(275.00275 1037.9963), rotate(90)" xlink:href="#item_1">
<title>item, id: 1, transf: [r: 90.000°, t: (275.003, 1037.996)]</title>
</use>
<use transform="translate(703.7742 1364.3835), rotate(-90)" xlink:href="#item_4">
<title>item, id: 4, transf: [r: -90.000°, t: (703.774, 1364.384)]</title>
</use>
<use transform="translate(870.6614 2011.5836), rotate(90)" xlink:href="#item_4">
<title>item, id: 4, transf: [r: 90.000°, t: (870.661, 2011.584)]</title>
</use>
<use transform="translate(1482.2767 1526.8523), rotate(90)" xlink:href="#item_2">
<title>item, id: 2, transf: [r: 90.000°, t: (1482.277, 1526.852)]</title>
</use>
<use transform="translate(348.76566 1579.746), rotate(90)" xlink:href="#item_2">
<title>item, id: 2, transf: [r: 90.000°, t: (348.766, 1579.746)]</title>
</use>
<use transform="translate(1311.8124 1847.8337), rotate(-90)" xlink:href="#item_2">
<title>item, id: 2, transf: [r: -90.000°, t: (1311.812, 1847.834)]</title>
</use>
<use transform="translate(375.21497 81.57133), rotate(-180)" xlink:href="#item_2">
<title>item, id: 2, transf: [r: -180.000°, t: (375.215, 81.571)]</title>
</use>
</g>
<g id="quality_zones"/>
<g id="optionals">
<g id="overlap_lines" transform="translate(0 0), rotate(0)"/>
</g>
<text font-family="monospace" font-size="43.059143" font-weight="500" x="0" y="-21.529572">
height: 2550.000 | width: 1722.366 | usage: 85.578% | final_bench_36
</text>
</svg>