<svg viewBox="-86.451614 -127.50003 1901.9352 2805" xmlns="http://www.w3.org/2000/svg" xmlns:xlink="http://www.w3.org/1999/xlink">
<g id="bin_0">
<path d="M0,0 L1729.0319,0 L1729.0319,2550 L0,2550 z" fill="#D3D3D3" stroke="black" stroke-width="9.509676"/>
<title>bin, id: 0, bbox: [x_min: 0.000, y_min: 0.000, x_max: 1729.032, y_max: 2550.000]</title>
</g>
<g id="items">
<defs>
<g id="item_0">
<path d="M10,115 L478,113 L727,21 L856,44 L930,47 L1049,0 L1097,295 L1078,396 L0,407 z" fill="#7A7A7A" fill-opacity="0.5" fill-rule="nonzero" stroke="black" stroke-width="4.754838"/>
</g>
<g id="item_1">
<path d="M0,0 L316,2 L316,274 L0,275 z" fill="#7A7A7A" fill-opacity="0.5" fill-rule="nonzero" stroke="black" stroke-width="4.754838"/>
</g>
<g id="item_2">
<path d="M0,1 L239,0 L242,80 L0,78 z" fill="#7A7A7A" fill-opacity="0.5" fill-rule="nonzero" stroke="black" stroke-width="4.754838"/>
</g>
<g id="item_3">
<path d="M0,310 L0,119 L384,0 L384,70 L759,69 L758,310 z" fill="#7A7A7A" fill-opacity="0.5" fill-rule="nonzero" stroke="black" stroke-width="4.754838"/>
</g>
<g id="item_4">
<path d="M0,252 L0,75 L150,0 L148,175 z" fill="#7A7A7A" fill-opacity="0.5" fill-rule="nonzero" stroke="black" stroke-width="4.754838"/>
</g>
<g id="item_5">
<path d="M852,412 L503,414 L387,451 L355,505 L300,451 L45,325 L0,221 L0,154 L55,53 L145,16 L329,25 L407,35 L539,38 L597,51 L668,20 L736,0 L784,3 L849,194 z" fill="#7A7A7A" fill-opacity="0.5" fill-rule="nonzero" stroke="black" stroke-width="4.754838"/>
</g>
<g id="item_6">
<path d="M0,232 L827,0 L894,20 L975,258 L1097,260 L1003,500 L884,463 L845,453 L761,490 L732,547 L694,544 L616,477 L539,414 L0,426 z" fill="#7A7A7A" fill-opacity="0.5" fill-rule="nonzero" stroke="black" stroke-width="4.754838"/>
</g>
<g id="item_7">
<path d="M151,427 L97,266 L0,259 L75,28 L126,21 L191,61 L271,50 L316,64 L359,10 L436,6 L442,43 L694,75 L726,42 L1091,0 L1094,211 L1033,208 L987,346 L926,393 z" fill="#7A7A7A" fill-opacity="0.5" fill-rule="nonzero" stroke="black" stroke-width="4.754838"/>
</g>
<g id="item_8">
<path d="M0,0 L745,24 L619,196 L590,276 L522,260 L6,282 z" fill="#7A7A7A" fill-opacity="0.5" fill-rule="nonzero" stroke="black" stroke-width="4.754838"/>
</g>
</defs>
<use transform="translate(1466.8992 1363.5413), rotate(-180)" xlink:href="#item_6">
<title>item, id: 6, transf: [r: -180.000°, t: (1466.899, 1363.541)]</title>
</use>
<use transform="translate(326.26416 399.5388), rotate(0)" xlink:href="#item_6">
<title>item, id: 6, transf: [r: 0.000°, t: (326.264, 399.539)]</title>
</use>
<use transform="translate(360.09576 2122.479), rotate(0)" xlink:href="#item_7">
<title>item, id: 7, transf: [r: 0.000°, t: (360.096, 2122.479)]</title>
</use>
<use transform="translate(1727.1987 427.04837), rotate(-180)" xlink:href="#item_7">
<title>item, id: 7, transf: [r: -180.000°, t: (1727.199, 427.048)]</title>
</use>
<use transform="translate(407.0345 281.328), rotate(90)" xlink:href="#item_0">
<title>item, id: 0, transf: [r: 90.000°, t: (407.034, 281.328)]</title>
</use>
<use transform="translate(407.00092 1452.9943), rotate(90)" xlink:href="#item_0">
<title>item, id: 0, transf: [r: 90.000°, t: (407.001, 1452.994)]</title>
</use>
<use transform="translate(603.13464 1680.2664), rotate(0)" xlink:href="#item_5">
<title>item, id: 5, transf: [r: 0.000°, t: (603.135, 1680.266)]</title>
</use>
<use transform="translate(1728.8354 1709.7388), rotate(-180)" xlink:href="#item_5">
<title>item, id: 5, transf: [r: -180.000°, t: (1728.835, 1709.739)]</title>
</use>
<use transform="translate(293.1338 2110.7769), rotate(-90)" xlink:href="#item_3">
<title>item, id: 3, transf: [r: -90.000°, t: (293.134, 2110.777)]</title>
</use>
<use transform="translate(1419.0317 1165.4094), rotate(-90)" xlink:href="#item_3">
<title>item, id: 3, transf: [r: -90.000°, t: (1419.032, 1165.409)]</title>
</use>
<use transform="translate(20.374664 0.0027923584), rotate(0)" xlink:href="#item_8">
<title>item, id: 8, transf: [r: 0.000°, t: (20.375, 0.003)]</title>
</use>
<use transform="translate(1729.0273 1748.4318), rotate(90)" xlink:href="#item_8">
<title>item, id: 8, transf: [r: 90.000°, t: (1729.027, 1748.432)]</title>
</use>
<use transform="translate(610.4137 551.34674), rotate(-180)" xlink:href="#item_1">
<title>item, id: 1, transf: [r: -180.000°, t: (610.414, 551.347)]</title>
</use>
<use transform="translate(603.61914 1691.1877), rotate(-90)" xlink:href="#item_1">
<title>item, id: 1, transf: [r: -90.000°, t: (603.619, 1691.188)]</title>
</use>
<use transform="translate(1724.8403 1168.4501), rotate(90)" xlink:href="#item_4">
<title>item, id: 4, transf: [r: 90.000°, t: (1724.840, 1168.450)]</title>
</use>
<use transform="translate(1381.9954 2549.8782), rotate(-90)" xlink:href="#item_4">
<title>item, id: 4, transf: [r: -90.000°, t: (1381.995, 2549.878)]</title>
</use>
<use transform="translate(361.22986 1457.1682), rotate(-180)" xlink:href="#item_2">
<title>item, id: 2, transf: [r: -180.000°, t: (361.230, 1457.168)]</title>
</use>
<use transform="translate(1488.5753 377.1433), rotate(90)" xlink:href="#item_2">
<title>item, id: 2, transf: [r: 90.000°, t: (1488.575, 377.143)]</title>
</use>
<use transform="translate(1330.1564 658.0258), rotate(-90)" xlink:href="#item_2">
<title>item, id: 2, transf: [r: -90.000°, t: (1330.156, 658.026)]</title>
</use>
<use transform="translate(491.67374 1108.4216), rotate(90)" xlink:href="#item_2">
<title>item, id: 2, transf: [r: 90.000°, t: (491.674, 1108.422)]</title>
</use>
</g>
<g id="quality_zones"/>
<g id="optionals">
<g id="overlap_lines" transform="translate(0 0), rotate(0)"/>
</g>
<text font-family="monospace" font-size="43.225796" font-weight="500" x="0" y="-21.612898">
height: 2550.000 | width: 1729.032 | usage: 85.248% | final_bench_100
</text>
</svg>