<svg viewBox="-85.06814 -127.50003 1871.4987 2805" xmlns="http://www.w3.org/2000/svg" xmlns:xlink="http://www.w3.org/1999/xlink">
<g id="bin_0">
<path d="M0,0 L1701.3624,0 L1701.3624,2550 L0,2550 z" fill="#D3D3D3" stroke="black" stroke-width="9.357493"/>
<title>bin, id: 0, bbox: [x_min: 0.000, y_min: 0.000, x_max: 1701.362, y_max: 2550.000]</title>
</g>
<g id="items">
<defs>
<g id="item_0">
<path d="M10,115 L478,113 L727,21 L856,44 L930,47 L1049,0 L1097,295 L1078,396 L0,407 z" fill="#7A7A7A" fill-opacity="0.5" fill-rule="nonzero" stroke="black" stroke-width="4.6787467"/>
</g>
<g id="item_1">
<path d="M0,0 L316,2 L316,274 L0,275 z" fill="#7A7A7A" fill-opacity="0.5" fill-rule="nonzero" stroke="black" stroke-width="4.6787467"/>
</g>
<g id="item_2">
<path d="M0,1 L239,0 L242,80 L0,78 z" fill="#7A7A7A" fill-opacity="0.5" fill-rule="nonzero" stroke="black" stroke-width="4.6787467"/>
</g>
<g id="item_3">
<path d="M0,310 L0,119 L384,0 L384,70 L759,69 L758,310 z" fill="#7A7A7A" fill-opacity="0.5" fill-rule="nonzero" stroke="black" stroke-width="4.6787467"/>
</g>
<g id="item_4">
<path d="M0,252 L0,75 L150,0 L148,175 z" fill="#7A7A7A" fill-opacity="0.5" fill-rule="nonzero" stroke="black" stroke-width="4.6787467"/>
</g>
<g id="item_5">
<path d="M852,412 L503,414 L387,451 L355,505 L300,451 L45,325 L0,221 L0,154 L55,53 L145,16 L329,25 L407,35 L539,38 L597,51 L668,20 L736,0 L784,3 L849,194 z" fill="#7A7A7A" fill-opacity="0.5" fill-rule="nonzero" stroke="black" stroke-width="4.6787467"/>
</g>
<g id="item_6">
<path d="M0,232 L827,0 L894,20 L975,258 L1097,260 L1003,500 L884,463 L845,453 L761,490 L732,547 L694,544 L616,477 L539,414 L0,426 z" fill="#7A7A7A" fill-opacity="0.5" fill-rule="nonzero" stroke="black" stroke-width="4.6787467"/>
</g>
<g id="item_7">
<path d="M151,427 L97,266 L0,259 L75,28 L126,21 L191,61 L271,50 L316,64 L359,10 L436,6 L442,43 L694,75 L726,42 L1091,0 L1094,211 L1033,208 L987,346 L926,393 z" fill="#7A7A7A" fill-opacity="0.5" fill-rule="nonzero" stroke="black" stroke-width="4.6787467"/>
</g>
<g id="item_8">
<path d="M0,0 L745,24 L619,196 L590,276 L522,260 L6,282 z" fill="#7A7A7A" fill-opacity="0.5" fill-rule="nonzero" stroke="black" stroke-width="4.6787467"/>
</g>
</defs>
<use transform="translate(1395.5393 1790.3944), rotate(-180)" xlink:href="#item_6">
<title>item, id: 6, transf: [r: -180.000°, t: (1395.539, 1790.394)]</title>
</use>
<use transform="translate(477.25867 1584.2039), rotate(0)" xlink:href="#item_6">
<title>item, id: 6, transf: [r: 0.000°, t: (477.259, 1584.204)]</title>
</use>
<use transform="translate(282.03528 1334.9114), rotate(-90)" xlink:href="#item_7">
<title>item, id: 7, transf: [r: -90.000°, t: (282.035, 1334.911)]</title>
</use>
<use transform="translate(1103.1764 277.28394), rotate(90)" xlink:href="#item_7">
<title>item, id: 7, transf: [r: 90.000°, t: (1103.176, 277.284)]</title>
</use>
<use transform="translate(1294.3558 1097.6104), rotate(-90)" xlink:href="#item_0">
<title>item, id: 0, transf: [r: -90.000°, t: (1294.356, 1097.610)]</title>
</use>
<use transform="translate(407.01642 1040.1652), rotate(90)" xlink:href="#item_0">
<title>item, id: 0, transf: [r: 90.000°, t: (407.016, 1040.165)]</title>
</use>
<use transform="translate(1701.3582 2548.7615), rotate(-180)" xlink:href="#item_5">
<title>item, id: 5, transf: [r: -180.000°, t: (1701.358, 2548.761)]</title>
</use>
<use transform="translate(852.00287 2549.9973), rotate(-180)" xlink:href="#item_5">
<title>item, id: 5, transf: [r: -180.000°, t: (852.003, 2549.997)]</title>
</use>
<use transform="translate(1007.31836 310.02682), rotate(-180)" xlink:href="#item_3">
<title>item, id: 3, transf: [r: -180.000°, t: (1007.318, 310.027)]</title>
</use>
<use transform="translate(310.0019 252.04987), rotate(90)" xlink:href="#item_3">
<title>item, id: 3, transf: [r: 90.000°, t: (310.002, 252.050)]</title>
</use>
<use transform="translate(1701.2329 1168.8044), rotate(90)" xlink:href="#item_8">
<title>item, id: 8, transf: [r: 90.000°, t: (1701.233, 1168.804)]</title>
</use>
<use transform="translate(1086.6173 1090.2944), rotate(-90)" xlink:href="#item_8">
<title>item, id: 8, transf: [r: -90.000°, t: (1086.617, 1090.294)]</title>
</use>
<use transform="translate(1017.3928 333.30905), rotate(-90)" xlink:href="#item_1">
<title>item, id: 1, transf: [r: -90.000°, t: (1017.393, 333.309)]</title>
</use>
<use transform="translate(1418.4957 1364.2351), rotate(-180)" xlink:href="#item_1">
<title>item, id: 1, transf: [r: -180.000°, t: (1418.496, 1364.235)]</title>
</use>
<use transform="translate(0.012413025 0.031829834), rotate(0)" xlink:href="#item_4">
<title>item, id: 4, transf: [r: 0.000°, t: (0.012, 0.032)]</title>
</use>
<use transform="translate(1701.217 2171.771), rotate(-180)" xlink:href="#item_4">
<title>item, id: 4, transf: [r: -180.000°, t: (1701.217, 2171.771)]</title>
</use>
<use transform="translate(791.1875 2098.3894), rotate(-180)" xlink:href="#item_2">
<title>item, id: 2, transf: [r: -180.000°, t: (791.188, 2098.389)]</title>
</use>
<use transform="translate(464.47922 1785.7412), rotate(90)" xlink:href="#item_2">
<title>item, id: 2, transf: [r: 90.000°, t: (464.479, 1785.741)]</title>
</use>
<use transform="translate(227.89955 10.016136), rotate(90)" xlink:href="#item_2">
<title>item, id: 2, transf: [r: 90.000°, t: (227.900, 10.016)]</title>
</use>
<use transform="translate(809.2491 2055.302), rotate(0)" xlink:href="#item_2">
<title>item, id: 2, transf: [r: 0.000°, t: (809.249, 2055.302)]</title>
</use>
</g>
<g id="quality_zones"/>
<g id="optionals">
<g id="overlap_lines" transform="translate(0 0), rotate(0)"/>
</g>
<text font-family="monospace" font-size="42.53406" font-weight="500" x="0" y="-21.26703">
height: 2550.000 | width: 1701.362 | usage: 86.635% | final_bench_102
</text>
</svg>