<svg viewBox="-86.33349 -127.50003 1899.3363 2805" xmlns="http://www.w3.org/2000/svg" xmlns:xlink="http://www.w3.org/1999/xlink">
<g id="bin_0">
<path d="M0,0 L1726.6693,0 L1726.6693,2550 L0,2550 z" fill="#D3D3D3" stroke="black" stroke-width="9.496681"/>
<title>bin, id: 0, bbox: [x_min: 0.000, y_min: 0.000, x_max: 1726.669, y_max: 2550.000]</title>
</g>
<g id="items">
<defs>
<g id="item_0">
<path d="M10,115 L478,113 L727,21 L856,44 L930,47 L1049,0 L1097,295 L1078,396 L0,407 z" fill="#7A7A7A" fill-opacity="0.5" fill-rule="nonzero" stroke="black" stroke-width="4.7483406"/>
</g>
<g id="item_1">
<path d="M0,0 L316,2 L316,274 L0,275 z" fill="#7A7A7A" fill-opacity="0.5" fill-rule="nonzero" stroke="black" stroke-width="4.7483406"/>
</g>
<g id="item_2">
<path d="M0,1 L239,0 L242,80 L0,78 z" fill="#7A7A7A" fill-opacity="0.5" fill-rule="nonzero" stroke="black" stroke-width="4.7483406"/>
</g>
<g id="item_3">
<path d="M0,310 L0,119 L384,0 L384,70 L759,69 L758,310 z" fill="#7A7A7A" fill-opacity="0.5" fill-rule="nonzero" stroke="black" stroke-width="4.7483406"/>
</g>
<g id="item_4">
<path d="M0,252 L0,75 L150,0 L148,175 z" fill="#7A7A7A" fill-opacity="0.5" fill-rule="nonzero" stroke="black" stroke-width="4.7483406"/>
</g>
<g id="item_5">
<path d="M852,412 L503,414 L387,451 L355,505 L300,451 L45,325 L0,221 L0,154 L55,53 L145,16 L329,25 L407,35 L539,38 L597,51 L668,20 L736,0 L784,3 L849,194 z" fill="#7A7A7A" fill-opacity="0.5" fill-rule="nonzero" stroke="black" stroke-width="4.7483406"/>
</g>
<g id="item_6">
<path d="M0,232 L827,0 L894,20 L975,258 L1097,260 L1003,500 L884,463 L845,453 L761,490 L732,547 L694,544 L616,477 L539,414 L0,426 z" fill="#7A7A7A" fill-opacity="0.5" fill-rule="nonzero" stroke="black" stroke-width="4.7483406"/>
</g>
<g id="item_7">
<path d="M151,427 L97,266 L0,259 L75,28 L126,21 L191,61 L271,50 L316,64 L359,10 L436,6 L442,43 L694,75 L726,42 L1091,0 L1094,211 L1033,208 L987,346 L926,393 z" fill="#7A7A7A" fill-opacity="0.5" fill-rule="nonzero" stroke="black" stroke-width="4.7483406"/>
</g>
<g id="item_8">
<path d="M0,0 L745,24 L619,196 L590,276 L522,260 L6,282 z" fill="#7A7A7A" fill-opacity="0.5" fill-rule="nonzero" stroke="black" stroke-width="4.7483406"/>
</g>
</defs>
<use transform="translate(965.73895 1237.8453), rotate(90)" xlink:href="#item_6">
<title>item, id: 6, transf: [r: 90.000°, t: (965.739, 1237.845)]</title>
</use>
<use transform="translate(801.2528 2305.1606), rotate(-90)" xlink:href="#item_6">
<title>item, id: 6, transf: [r: -90.000°, t: (801.253, 2305.161)]</title>
</use>
<use transform="translate(352.9386 0.092315674), rotate(0)" xlink:href="#item_7">
<title>item, id: 7, transf: [r: 0.000°, t: (352.939, 0.092)]</title>
</use>
<use transform="translate(1365.131 822.96204), rotate(-180)" xlink:href="#item_7">
<title>item, id: 7, transf: [r: -180.000°, t: (1365.131, 822.962)]</title>
</use>
<use transform="translate(1319.6111 2549.6343), rotate(-90)" xlink:href="#item_0">
<title>item, id: 0, transf: [r: -90.000°, t: (1319.611, 2549.634)]</title>
</use>
<use transform="translate(1319.6617 1456.4282), rotate(-90)" xlink:href="#item_0">
<title>item, id: 0, transf: [r: -90.000°, t: (1319.662, 1456.428)]</title>
</use>
<use transform="translate(0.7151947 2464.0745), rotate(-90)" xlink:href="#item_5">
<title>item, id: 5, transf: [r: -90.000°, t: (0.715, 2464.074)]</title>
</use>
<use transform="translate(558.2521 793.8714), rotate(0)" xlink:href="#item_5">
<title>item, id: 5, transf: [r: 0.000°, t: (558.252, 793.871)]</title>
</use>
<use transform="translate(630.5893 2239.8936), rotate(0)" xlink:href="#item_3">
<title>item, id: 3, transf: [r: 0.000°, t: (630.589, 2239.894)]</title>
</use>
<use transform="translate(609.64075 820.2111), rotate(90)" xlink:href="#item_3">
<title>item, id: 3, transf: [r: 90.000°, t: (609.641, 820.211)]</title>
</use>
<use transform="translate(0.31455994 1619.2094), rotate(-90)" xlink:href="#item_8">
<title>item, id: 8, transf: [r: -90.000°, t: (0.315, 1619.209)]</title>
</use>
<use transform="translate(282.00214 274.36273), rotate(90)" xlink:href="#item_8">
<title>item, id: 8, transf: [r: 90.000°, t: (282.002, 274.363)]</title>
</use>
<use transform="translate(31.32727 0.11907959), rotate(0)" xlink:href="#item_1">
<title>item, id: 1, transf: [r: 0.000°, t: (31.327, 0.119)]</title>
</use>
<use transform="translate(1721.6278 43.386734), rotate(90)" xlink:href="#item_1">
<title>item, id: 1, transf: [r: 90.000°, t: (1721.628, 43.387)]</title>
</use>
<use transform="translate(1249.8947 2045.513), rotate(0)" xlink:href="#item_4">
<title>item, id: 4, transf: [r: 0.000°, t: (1249.895, 2045.513)]</title>
</use>
<use transform="translate(400.2503 2297.6965), rotate(0)" xlink:href="#item_4">
<title>item, id: 4, transf: [r: 0.000°, t: (400.250, 2297.697)]</title>
</use>
<use transform="translate(1419.4763 1215.9668), rotate(90)" xlink:href="#item_2">
<title>item, id: 2, transf: [r: 90.000°, t: (1419.476, 1215.967)]</title>
</use>
<use transform="translate(128.46936 2469.9155), rotate(0)" xlink:href="#item_2">
<title>item, id: 2, transf: [r: 0.000°, t: (128.469, 2469.916)]</title>
</use>
<use transform="translate(550.97577 2549.4307), rotate(-90)" xlink:href="#item_2">
<title>item, id: 2, transf: [r: -90.000°, t: (550.976, 2549.431)]</title>
</use>
<use transform="translate(1255.7013 2076.8704), rotate(-90)" xlink:href="#item_2">
<title>item, id: 2, transf: [r: -90.000°, t: (1255.701, 2076.870)]</title>
</use>
</g>
<g id="quality_zones"/>
<g id="optionals">
<g id="overlap_lines" transform="translate(0 0), rotate(0)"/>
</g>
<text font-family="monospace" font-size="43.166733" font-weight="500" x="0" y="-21.583366">
height: 2550.000 | width: 1726.669 | usage: 85.365% | final_bench_21
</text>
</svg>