<svg viewBox="-86.66936 -127.50003 1906.7253 2805" xmlns="http://www.w3.org/2000/svg" xmlns:xlink="http://www.w3.org/1999/xlink">
<g id="bin_0">
<path d="M0,0 L1733.3867,0 L1733.3867,2550 L0,2550 z" fill="#D3D3D3" stroke="black" stroke-width="9.533627"/>
<title>bin, id: 0, bbox: [x_min: 0.000, y_min: 0.000, x_max: 1733.387, y_max: 2550.000]</title>
</g>
<g id="items">
<defs>
<g id="item_0">
<path d="M10,115 L478,113 L727,21 L856,44 L930,47 L1049,0 L1097,295 L1078,396 L0,407 z" fill="#7A7A7A" fill-opacity="0.5" fill-rule="nonzero" stroke="black" stroke-width="4.7668133"/>
</g>
<g id="item_1">
<path d="M0,0 L316,2 L316,274 L0,275 z" fill="#7A7A7A" fill-opacity="0.5" fill-rule="nonzero" stroke="black" stroke-width="4.7668133"/>
</g>
<g id="item_2">
<path d="M0,1 L239,0 L242,80 L0,78 z" fill="#7A7A7A" fill-opacity="0.5" fill-rule="nonzero" stroke="black" stroke-width="4.7668133"/>
</g>
<g id="item_3">
<path d="M0,310 L0,119 L384,0 L384,70 L759,69 L758,310 z" fill="#7A7A7A" fill-opacity="0.5" fill-rule="nonzero" stroke="black" stroke-width="4.7668133"/>
</g>
<g id="item_4">
<path d="M0,252 L0,75 L150,0 L148,175 z" fill="#7A7A7A" fill-opacity="0.5" fill-rule="nonzero" stroke="black" stroke-width="4.7668133"/>
</g>
<g id="item_5">
<path d="M852,412 L503,414 L387,451 L355,505 L300,451 L45,325 L0,221 L0,154 L55,53 L145,16 L329,25 L407,35 L539,38 L597,51 L668,20 L736,0 L784,3 L849,194 z" fill="#7A7A7A" fill-opacity="0.5" fill-rule="nonzero" stroke="black" stroke-width="4.7668133"/>
</g>
<g id="item_6">
<path d="M0,232 L827,0 L894,20 L975,258 L1097,260 L1003,500 L884,463 L845,453 L761,490 L732,547 L694,544 L616,477 L539,414 L0,426 z" fill="#7A7A7A" fill-opacity="0.5" fill-rule="nonzero" stroke="black" stroke-width="4.7668133"/>
</g>
<g id="item_7">
<path d="M151,427 L97,266 L0,259 L75,28 L126,21 L191,61 L271,50 L316,64 L359,10 L436,6 L442,43 L694,75 L726,42 L1091,0 L1094,211 L1033,208 L987,346 L926,393 z" fill="#7A7A7A" fill-opacity="0.5" fill-rule="nonzero" stroke="black" stroke-width="4.7668133"/>
</g>
<g id="item_8">
<path d="M0,0 L745,24 L619,196 L590,276 L522,260 L6,282 z" fill="#7A7A7A" fill-opacity="0.5" fill-rule="nonzero" stroke="black" stroke-width="4.7668133"/>
</g>
</defs>
<use transform="translate(1432.4398 1073.865), rotate(-180)" xlink:href="#item_6">
<title>item, id: 6, transf: [r: -180.000°, t: (1432.440, 1073.865)]</title>
</use>
<use transform="translate(258.65533 110.64728), rotate(0)" xlink:href="#item_6">
<title>item, id: 6, transf: [r: 0.000°, t: (258.655, 110.647)]</title>
</use>
<use transform="translate(1105.8671 1007.6945), rotate(90)" xlink:href="#item_7">
<title>item, id: 7, transf: [r: 90.000°, t: (1105.867, 1007.695)]</title>
</use>
<use transform="translate(262.0326 2064.1772), rotate(-90)" xlink:href="#item_7">
<title>item, id: 7, transf: [r: -90.000°, t: (262.033, 2064.177)]</title>
</use>
<use transform="translate(1326.3798 1144.0667), rotate(-90)" xlink:href="#item_0">
<title>item, id: 0, transf: [r: -90.000°, t: (1326.380, 1144.067)]</title>
</use>
<use transform="translate(1041.5275 2002.3491), rotate(-90)" xlink:href="#item_0">
<title>item, id: 0, transf: [r: -90.000°, t: (1041.527, 2002.349)]</title>
</use>
<use transform="translate(887.4251 2549.987), rotate(-180)" xlink:href="#item_5">
<title>item, id: 5, transf: [r: -180.000°, t: (887.425, 2549.987)]</title>
</use>
<use transform="translate(1733.3701 2513.7725), rotate(-180)" xlink:href="#item_5">
<title>item, id: 5, transf: [r: -180.000°, t: (1733.370, 2513.772)]</title>
</use>
<use transform="translate(759.0026 310.00647), rotate(-180)" xlink:href="#item_3">
<title>item, id: 3, transf: [r: -180.000°, t: (759.003, 310.006)]</title>
</use>
<use transform="translate(310.00702 318.56635), rotate(90)" xlink:href="#item_3">
<title>item, id: 3, transf: [r: 90.000°, t: (310.007, 318.566)]</title>
</use>
<use transform="translate(0.030578613 2138.7383), rotate(-90)" xlink:href="#item_8">
<title>item, id: 8, transf: [r: -90.000°, t: (0.031, 2138.738)]</title>
</use>
<use transform="translate(1733.3579 1459.1414), rotate(90)" xlink:href="#item_8">
<title>item, id: 8, transf: [r: 90.000°, t: (1733.358, 1459.141)]</title>
</use>
<use transform="translate(1716.9926 1143.5297), rotate(90)" xlink:href="#item_1">
<title>item, id: 1, transf: [r: 90.000°, t: (1716.993, 1143.530)]</title>
</use>
<use transform="translate(0.027709961 1393.7146), rotate(-90)" xlink:href="#item_1">
<title>item, id: 1, transf: [r: -90.000°, t: (0.028, 1393.715)]</title>
</use>
<use transform="translate(240.31812 964.5448), rotate(-90)" xlink:href="#item_4">
<title>item, id: 4, transf: [r: -90.000°, t: (240.318, 964.545)]</title>
</use>
<use transform="translate(569.1345 2125.1956), rotate(-90)" xlink:href="#item_4">
<title>item, id: 4, transf: [r: -90.000°, t: (569.135, 2125.196)]</title>
</use>
<use transform="translate(1252.3546 368.27014), rotate(-90)" xlink:href="#item_2">
<title>item, id: 2, transf: [r: -90.000°, t: (1252.355, 368.270)]</title>
</use>
<use transform="translate(1155.3348 1528.5608), rotate(90)" xlink:href="#item_2">
<title>item, id: 2, transf: [r: 90.000°, t: (1155.335, 1528.561)]</title>
</use>
<use transform="translate(1005.2423 31.882668), rotate(0)" xlink:href="#item_2">
<title>item, id: 2, transf: [r: 0.000°, t: (1005.242, 31.883)]</title>
</use>
<use transform="translate(761.3776 8.348003), rotate(0)" xlink:href="#item_2">
<title>item, id: 2, transf: [r: 0.000°, t: (761.378, 8.348)]</title>
</use>
</g>
<g id="quality_zones"/>
<g id="optionals">
<g id="overlap_lines" transform="translate(0 0), rotate(0)"/>
</g>
<text font-family="monospace" font-size="43.334667" font-weight="500" x="0" y="-21.667334">
height: 2550.000 | width: 1733.387 | usage: 85.034% | final_bench_12
</text>
</svg>