<svg viewBox="-86.36257 -127.50003 1899.9761 2805" xmlns="http://www.w3.org/2000/svg" xmlns:xlink="http://www.w3.org/1999/xlink">
<g id="bin_0">
<path d="M0,0 L1727.251,0 L1727.251,2550 L0,2550 z" fill="#D3D3D3" stroke="black" stroke-width="9.499881"/>
<title>bin, id: 0, bbox: [x_min: 0.000, y_min: 0.000, x_max: 1727.251, y_max: 2550.000]</title>
</g>
<g id="items">
<defs>
<g id="item_0">
<path d="M10,115 L478,113 L727,21 L856,44 L930,47 L1049,0 L1097,295 L1078,396 L0,407 z" fill="#7A7A7A" fill-opacity="0.5" fill-rule="nonzero" stroke="black" stroke-width="4.7499404"/>
</g>
<g id="item_1">
<path d="M0,0 L316,2 L316,274 L0,275 z" fill="#7A7A7A" fill-opacity="0.5" fill-rule="nonzero" stroke="black" stroke-width="4.7499404"/>
</g>
<g id="item_2">
<path d="M0,1 L239,0 L242,80 L0,78 z" fill="#7A7A7A" fill-opacity="0.5" fill-rule="nonzero" stroke="black" stroke-width="4.7499404"/>
</g>
<g id="item_3">
<path d="M0,310 L0,119 L384,0 L384,70 L759,69 L758,310 z" fill="#7A7A7A" fill-opacity="0.5" fill-rule="nonzero" stroke="black" stroke-width="4.7499404"/>
</g>
<g id="item_4">
<path d="M0,252 L0,75 L150,0 L148,175 z" fill="#7A7A7A" fill-opacity="0.5" fill-rule="nonzero" stroke="black" stroke-width="4.7499404"/>
</g>
<g id="item_5">
<path d="M852,412 L503,414 L387,451 L355,505 L300,451 L45,325 L0,221 L0,154 L55,53 L145,16 L329,25 L407,35 L539,38 L597,51 L668,20 L736,0 L784,3 L849,194 z" fill="#7A7A7A" fill-opacity="0.5" fill-rule="nonzero" stroke="black" stroke-width="4.7499404"/>
</g>
<g id="item_6">
<path d="M0,232 L827,0 L894,20 L975,258 L1097,260 L1003,500 L884,463 L845,453 L761,490 L732,547 L694,544 L616,477 L539,414 L0,426 z" fill="#7A7A7A" fill-opacity="0.5" fill-rule="nonzero" stroke="black" stroke-width="4.7499404"/>
</g>
<g id="item_7">
<path d="M151,427 L97,266 L0,259 L75,28 L126,21 L191,61 L271,50 L316,64 L359,10 L436,6 L442,43 L694,75 L726,42 L1091,0 L1094,211 L1033,208 L987,346 L926,393 z" fill="#7A7A7A" fill-opacity="0.5" fill-rule="nonzero" stroke="black" stroke-width="4.7499404"/>
</g>
<g id="item_8">
<path d="M0,0 L745,24 L619,196 L590,276 L522,260 L6,282 z" fill="#7A7A7A" fill-opacity="0.5" fill-rule="nonzero" stroke="black" stroke-width="4.7499404"/>
</g>
</defs>
<use transform="translate(1097.6143 1874.762), rotate(-180)" xlink:href="#item_6">
<title>item, id: 6, transf: [r: -180.000°, t: (1097.614, 1874.762)]</title>
</use>
<use transform="translate(280.52234 1639.9839), rotate(0)" xlink:href="#item_6">
<title>item, id: 6, transf: [r: 0.000°, t: (280.522, 1639.984)]</title>
</use>
<use transform="translate(1684.8295 1459.8716), rotate(-180)" xlink:href="#item_7">
<title>item, id: 7, transf: [r: -180.000°, t: (1684.829, 1459.872)]</title>
</use>
<use transform="translate(340.4112 2122.997), rotate(0)" xlink:href="#item_7">
<title>item, id: 7, transf: [r: 0.000°, t: (340.411, 2122.997)]</title>
</use>
<use transform="translate(365.2032 640.0037), rotate(0)" xlink:href="#item_0">
<title>item, id: 0, transf: [r: 0.000°, t: (365.203, 640.004)]</title>
</use>
<use transform="translate(1320.236 2528.0488), rotate(-90)" xlink:href="#item_0">
<title>item, id: 0, transf: [r: -90.000°, t: (1320.236, 2528.049)]</title>
</use>
<use transform="translate(1111.9907 723.25037), rotate(-180)" xlink:href="#item_5">
<title>item, id: 5, transf: [r: -180.000°, t: (1111.991, 723.250)]</title>
</use>
<use transform="translate(873.88196 0.0035247803), rotate(0)" xlink:href="#item_5">
<title>item, id: 5, transf: [r: 0.000°, t: (873.882, 0.004)]</title>
</use>
<use transform="translate(784.1693 310.42923), rotate(-180)" xlink:href="#item_3">
<title>item, id: 3, transf: [r: -180.000°, t: (784.169, 310.429)]</title>
</use>
<use transform="translate(310.00964 297.3028), rotate(90)" xlink:href="#item_3">
<title>item, id: 3, transf: [r: 90.000°, t: (310.010, 297.303)]</title>
</use>
<use transform="translate(0.015548706 2549.7617), rotate(-90)" xlink:href="#item_8">
<title>item, id: 8, transf: [r: -90.000°, t: (0.016, 2549.762)]</title>
</use>
<use transform="translate(1727.2489 411.9748), rotate(90)" xlink:href="#item_8">
<title>item, id: 8, transf: [r: 90.000°, t: (1727.249, 411.975)]</title>
</use>
<use transform="translate(0.0027313232 1374.75), rotate(-90)" xlink:href="#item_1">
<title>item, id: 1, transf: [r: -90.000°, t: (0.003, 1374.750)]</title>
</use>
<use transform="translate(590.82947 1321.293), rotate(-180)" xlink:href="#item_1">
<title>item, id: 1, transf: [r: -180.000°, t: (590.829, 1321.293)]</title>
</use>
<use transform="translate(1108.9476 1604.1207), rotate(-90)" xlink:href="#item_4">
<title>item, id: 4, transf: [r: -90.000°, t: (1108.948, 1604.121)]</title>
</use>
<use transform="translate(1292.6593 433.12766), rotate(0)" xlink:href="#item_4">
<title>item, id: 4, transf: [r: 0.000°, t: (1292.659, 433.128)]</title>
</use>
<use transform="translate(1261.4803 1846.1782), rotate(-90)" xlink:href="#item_2">
<title>item, id: 2, transf: [r: -90.000°, t: (1261.480, 1846.178)]</title>
</use>
<use transform="translate(794.20776 254.9744), rotate(-90)" xlink:href="#item_2">
<title>item, id: 2, transf: [r: -90.000°, t: (794.208, 254.974)]</title>
</use>
<use transform="translate(331.09012 723.39905), rotate(90)" xlink:href="#item_2">
<title>item, id: 2, transf: [r: 90.000°, t: (331.090, 723.399)]</title>
</use>
<use transform="translate(356.54138 2083.4802), rotate(90)" xlink:href="#item_2">
<title>item, id: 2, transf: [r: 90.000°, t: (356.541, 2083.480)]</title>
</use>
</g>
<g id="quality_zones"/>
<g id="optionals">
<g id="overlap_lines" transform="translate(0 0), rotate(0)"/>
</g>
<text font-family="monospace" font-size="43.181274" font-weight="500" x="0" y="-21.590637">
height: 2550.000 | width: 1727.251 | usage: 85.336% | final_bench_44
</text>
</svg>