<svg viewBox="-86.43738 -127.50003 1901.622 2805" xmlns="http://www.w3.org/2000/svg" xmlns:xlink="http://www.w3.org/1999/xlink">
<g id="bin_0">
<path d="M0,0 L1728.7472,0 L1728.7472,2550 L0,2550 z" fill="#D3D3D3" stroke="black" stroke-width="9.50811"/>
<title>bin, id: 0, bbox: [x_min: 0.000, y_min: 0.000, x_max: 1728.747, y_max: 2550.000]</title>
</g>
<g id="items">
<defs>
<g id="item_0">
<path d="M10,115 L478,113 L727,21 L856,44 L930,47 L1049,0 L1097,295 L1078,396 L0,407 z" fill="#7A7A7A" fill-opacity="0.5" fill-rule="nonzero" stroke="black" stroke-width="4.754055"/>
</g>
<g id="item_1">
<path d="M0,0 L316,2 L316,274 L0,275 z" fill="#7A7A7A" fill-opacity="0.5" fill-rule="nonzero" stroke="black" stroke-width="4.754055"/>
</g>
<g id="item_2">
<path d="M0,1 L239,0 L242,80 L0,78 z" fill="#7A7A7A" fill-opacity="0.5" fill-rule="nonzero" stroke="black" stroke-width="4.754055"/>
</g>
<g id="item_3">
<path d="M0,310 L0,119 L384,0 L384,70 L759,69 L758,310 z" fill="#7A7A7A" fill-opacity="0.5" fill-rule="nonzero" stroke="black" stroke-width="4.754055"/>
</g>
<g id="item_4">
<path d="M0,252 L0,75 L150,0 L148,175 z" fill="#7A7A7A" fill-opacity="0.5" fill-rule="nonzero" stroke="black" stroke-width="4.754055"/>
</g>
<g id="item_5">
<path d="M852,412 L503,414 L387,451 L355,505 L300,451 L45,325 L0,221 L0,154 L55,53 L145,16 L329,25 L407,35 L539,38 L597,51 L668,20 L736,0 L784,3 L849,194 z" fill="#7A7A7A" fill-opacity="0.5" fill-rule="nonzero" stroke="black" stroke-width="4.754055"/>
</g>
<g id="item_6">
<path d="M0,232 L827,0 L894,20 L975,258 L1097,260 L1003,500 L884,463 L845,453 L761,490 L732,547 L694,544 L616,477 L539,414 L0,426 z" fill="#7A7A7A" fill-opacity="0.5" fill-rule="nonzero" stroke="black" stroke-width="4.754055"/>
</g>
<g id="item_7">
<path d="M151,427 L97,266 L0,259 L75,28 L126,21 L191,61 L271,50 L316,64 L359,10 L436,6 L442,43 L694,75 L726,42 L1091,0 L1094,211 L1033,208 L987,346 L926,393 z" fill="#7A7A7A" fill-opacity="0.5" fill-rule="nonzero" stroke="black" stroke-width="4.754055"/>
</g>
<g id="item_8">
<path d="M0,0 L745,24 L619,196 L590,276 L522,260 L6,282 z" fill="#7A7A7A" fill-opacity="0.5" fill-rule="nonzero" stroke="black" stroke-width="4.754055"/>
</g>
</defs>
<use transform="translate(547.0072 802.61), rotate(90)" xlink:href="#item_6">
<title>item, id: 6, transf: [r: 90.000°, t: (547.007, 802.610)]</title>
</use>
<use transform="translate(267.20657 1459.1155), rotate(-90)" xlink:href="#item_6">
<title>item, id: 6, transf: [r: -90.000°, t: (267.207, 1459.115)]</title>
</use>
<use transform="translate(275.14117 2122.9712), rotate(0)" xlink:href="#item_7">
<title>item, id: 7, transf: [r: 0.000°, t: (275.141, 2122.971)]</title>
</use>
<use transform="translate(942.2708 1816.4814), rotate(-90)" xlink:href="#item_7">
<title>item, id: 7, transf: [r: -90.000°, t: (942.271, 1816.481)]</title>
</use>
<use transform="translate(1321.7302 1787.471), rotate(-90)" xlink:href="#item_0">
<title>item, id: 0, transf: [r: -90.000°, t: (1321.730, 1787.471)]</title>
</use>
<use transform="translate(1405.7352 407.02118), rotate(-180)" xlink:href="#item_0">
<title>item, id: 0, transf: [r: -180.000°, t: (1405.735, 407.021)]</title>
</use>
<use transform="translate(1214.1019 2164.747), rotate(-180)" xlink:href="#item_5">
<title>item, id: 5, transf: [r: -180.000°, t: (1214.102, 2164.747)]</title>
</use>
<use transform="translate(870.82104 277.73145), rotate(0)" xlink:href="#item_5">
<title>item, id: 5, transf: [r: 0.000°, t: (870.821, 277.731)]</title>
</use>
<use transform="translate(1418.7394 2549.9963), rotate(-90)" xlink:href="#item_3">
<title>item, id: 3, transf: [r: -90.000°, t: (1418.739, 2549.996)]</title>
</use>
<use transform="translate(310.00513 0.68356323), rotate(90)" xlink:href="#item_3">
<title>item, id: 3, transf: [r: 90.000°, t: (310.005, 0.684)]</title>
</use>
<use transform="translate(963.2478 914.9347), rotate(90)" xlink:href="#item_8">
<title>item, id: 8, transf: [r: 90.000°, t: (963.248, 914.935)]</title>
</use>
<use transform="translate(0.02960205 2549.6577), rotate(-90)" xlink:href="#item_8">
<title>item, id: 8, transf: [r: -90.000°, t: (0.030, 2549.658)]</title>
</use>
<use transform="translate(1213.5096 2121.958), rotate(-90)" xlink:href="#item_1">
<title>item, id: 1, transf: [r: -90.000°, t: (1213.510, 2121.958)]</title>
</use>
<use transform="translate(1722.9531 275.05865), rotate(-180)" xlink:href="#item_1">
<title>item, id: 1, transf: [r: -180.000°, t: (1722.953, 275.059)]</title>
</use>
<use transform="translate(1303.0068 2297.5637), rotate(0)" xlink:href="#item_4">
<title>item, id: 4, transf: [r: 0.000°, t: (1303.007, 2297.564)]</title>
</use>
<use transform="translate(789.00366 1535.8557), rotate(90)" xlink:href="#item_4">
<title>item, id: 4, transf: [r: 90.000°, t: (789.004, 1535.856)]</title>
</use>
<use transform="translate(863.68225 423.7573), rotate(90)" xlink:href="#item_2">
<title>item, id: 2, transf: [r: 90.000°, t: (863.682, 423.757)]</title>
</use>
<use transform="translate(80.01688 1107.9923), rotate(90)" xlink:href="#item_2">
<title>item, id: 2, transf: [r: 90.000°, t: (80.017, 1107.992)]</title>
</use>
<use transform="translate(10.913506 1072.4839), rotate(-90)" xlink:href="#item_2">
<title>item, id: 2, transf: [r: -90.000°, t: (10.914, 1072.484)]</title>
</use>
<use transform="translate(941.85565 675.0461), rotate(90)" xlink:href="#item_2">
<title>item, id: 2, transf: [r: 90.000°, t: (941.856, 675.046)]</title>
</use>
</g>
<g id="quality_zones"/>
<g id="optionals">
<g id="overlap_lines" transform="translate(0 0), rotate(0)"/>
</g>
<text font-family="monospace" font-size="43.21868" font-weight="500" x="0" y="-21.60934">
height: 2550.000 | width: 1728.747 | usage: 85.262% | final_bench_96
</text>
</svg>