<svg viewBox="-86.05485 -127.50003 1893.2062 2805" xmlns="http://www.w3.org/2000/svg" xmlns:xlink="http://www.w3.org/1999/xlink">
<g id="bin_0">
<path d="M0,0 L1721.0966,0 L1721.0966,2550 L0,2550 z" fill="#D3D3D3" stroke="black" stroke-width="9.466031"/>
<title>bin, id: 0, bbox: [x_min: 0.000, y_min: 0.000, x_max: 1721.097, y_max: 2550.000]</title>
</g>
<g id="items">
<defs>
<g id="item_0">
<path d="M10,115 L478,113 L727,21 L856,44 L930,47 L1049,0 L1097,295 L1078,396 L0,407 z" fill="#7A7A7A" fill-opacity="0.5" fill-rule="nonzero" stroke="black" stroke-width="4.7330155"/>
</g>
<g id="item_1">
<path d="M0,0 L316,2 L316,274 L0,275 z" fill="#7A7A7A" fill-opacity="0.5" fill-rule="nonzero" stroke="black" stroke-width="4.7330155"/>
</g>
<g id="item_2">
<path d="M0,1 L239,0 L242,80 L0,78 z" fill="#7A7A7A" fill-opacity="0.5" fill-rule="nonzero" stroke="black" stroke-width="4.7330155"/>
</g>
<g id="item_3">
<path d="M0,310 L0,119 L384,0 L384,70 L759,69 L758,310 z" fill="#7A7A7A" fill-opacity="0.5" fill-rule="nonzero" stroke="black" stroke-width="4.7330155"/>
</g>
<g id="item_4">
<path d="M0,252 L0,75 L150,0 L148,175 z" fill="#7A7A7A" fill-opacity="0.5" fill-rule="nonzero" stroke="black" stroke-width="4.7330155"/>
</g>
<g id="item_5">
<path d="M852,412 L503,414 L387,451 L355,505 L300,451 L45,325 L0,221 L0,154 L55,53 L145,16 L329,25 L407,35 L539,38 L597,51 L668,20 L736,0 L784,3 L849,194 z" fill="#7A7A7A" fill-opacity="0.5" fill-rule="nonzero" stroke="black" stroke-width="4.7330155"/>
</g>
<g id="item_6">
<path d="M0,232 L827,0 L894,20 L975,258 L1097,260 L1003,500 L884,463 L845,453 L761,490 L732,547 L694,544 L616,477 L539,414 L0,426 z" fill="#7A7A7A" fill-opacity="0.5" fill-rule="nonzero" stroke="black" stroke-width="4.7330155"/>
</g>
<g id="item_7">
<path d="M151,427 L97,266 L0,259 L75,28 L126,21 L191,61 L271,50 L316,64 L359,10 L436,6 L442,43 L694,75 L726,42 L1091,0 L1094,211 L1033,208 L987,346 L926,393 z" fill="#7A7A7A" fill-opacity="0.5" fill-rule="nonzero" stroke="black" stroke-width="4.7330155"/>
</g>
<g id="item_8">
<path d="M0,0 L745,24 L619,196 L590,276 L522,260 L6,282 z" fill="#7A7A7A" fill-opacity="0.5" fill-rule="nonzero" stroke="black" stroke-width="4.7330155"/>
</g>
</defs>
<use transform="translate(328.45844 1779.9056), rotate(0)" xlink:href="#item_6">
<title>item, id: 6, transf: [r: 0.000°, t: (328.458, 1779.906)]</title>
</use>
<use transform="translate(1153.5669 2012.3386), rotate(-180)" xlink:href="#item_6">
<title>item, id: 6, transf: [r: -180.000°, t: (1153.567, 2012.339)]</title>
</use>
<use transform="translate(1294.0675 1108.7649), rotate(-90)" xlink:href="#item_7">
<title>item, id: 7, transf: [r: -90.000°, t: (1294.068, 1108.765)]</title>
</use>
<use transform="translate(1340.9773 1096.3557), rotate(-180)" xlink:href="#item_7">
<title>item, id: 7, transf: [r: -180.000°, t: (1340.977, 1096.356)]</title>
</use>
<use transform="translate(252.7649 271.747), rotate(0)" xlink:href="#item_0">
<title>item, id: 0, transf: [r: 0.000°, t: (252.765, 271.747)]</title>
</use>
<use transform="translate(1156.3005 407.00928), rotate(-180)" xlink:href="#item_0">
<title>item, id: 0, transf: [r: -180.000°, t: (1156.301, 407.009)]</title>
</use>
<use transform="translate(1687.018 1102.3104), rotate(90)" xlink:href="#item_5">
<title>item, id: 5, transf: [r: 90.000°, t: (1687.018, 1102.310)]</title>
</use>
<use transform="translate(328.52066 1060.2426), rotate(0)" xlink:href="#item_5">
<title>item, id: 5, transf: [r: 0.000°, t: (328.521, 1060.243)]</title>
</use>
<use transform="translate(310.00967 1790.9243), rotate(90)" xlink:href="#item_3">
<title>item, id: 3, transf: [r: 90.000°, t: (310.010, 1790.924)]</title>
</use>
<use transform="translate(310.06915 479.70453), rotate(90)" xlink:href="#item_3">
<title>item, id: 3, transf: [r: 90.000°, t: (310.069, 479.705)]</title>
</use>
<use transform="translate(1677.3971 2549.9995), rotate(-180)" xlink:href="#item_8">
<title>item, id: 8, transf: [r: -180.000°, t: (1677.397, 2550.000)]</title>
</use>
<use transform="translate(240.28925 2267.999), rotate(0)" xlink:href="#item_8">
<title>item, id: 8, transf: [r: 0.000°, t: (240.289, 2267.999)]</title>
</use>
<use transform="translate(12.409988 1237.7725), rotate(0)" xlink:href="#item_1">
<title>item, id: 1, transf: [r: 0.000°, t: (12.410, 1237.772)]</title>
</use>
<use transform="translate(1721.0476 1951.9604), rotate(90)" xlink:href="#item_1">
<title>item, id: 1, transf: [r: 90.000°, t: (1721.048, 1951.960)]</title>
</use>
<use transform="translate(1178.0505 1040.1604), rotate(0)" xlink:href="#item_4">
<title>item, id: 4, transf: [r: 0.000°, t: (1178.051, 1040.160)]</title>
</use>
<use transform="translate(1299.5039 317.22845), rotate(-180)" xlink:href="#item_4">
<title>item, id: 4, transf: [r: -180.000°, t: (1299.504, 317.228)]</title>
</use>
<use transform="translate(80.40079 235.55933), rotate(90)" xlink:href="#item_2">
<title>item, id: 2, transf: [r: 90.000°, t: (80.401, 235.559)]</title>
</use>
<use transform="translate(1080.7429 1586.2968), rotate(-180)" xlink:href="#item_2">
<title>item, id: 2, transf: [r: -180.000°, t: (1080.743, 1586.297)]</title>
</use>
<use transform="translate(871.8668 2280.4507), rotate(-180)" xlink:href="#item_2">
<title>item, id: 2, transf: [r: -180.000°, t: (871.867, 2280.451)]</title>
</use>
<use transform="translate(1236.1373 1535.9309), rotate(90)" xlink:href="#item_2">
<title>item, id: 2, transf: [r: 90.000°, t: (1236.137, 1535.931)]</title>
</use>
</g>
<g id="quality_zones"/>
<g id="optionals">
<g id="overlap_lines" transform="translate(0 0), rotate(0)"/>
</g>
<text font-family="monospace" font-size="43.027416" font-weight="500" x="0" y="-21.513708">
height: 2550.000 | width: 1721.097 | usage: 85.641% | final_bench_1
</text>
</svg>