<svg viewBox="-86.10807 -127.50003 1894.3771 2805" xmlns="http://www.w3.org/2000/svg" xmlns:xlink="http://www.w3.org/1999/xlink">
<g id="bin_0">
<path d="M0,0 L1722.161,0 L1722.161,2550 L0,2550 z" fill="#D3D3D3" stroke="black" stroke-width="9.471886"/>
<title>bin, id: 0, bbox: [x_min: 0.000, y_min: 0.000, x_max: 1722.161, y_max: 2550.000]</title>
</g>
<g id="items">
<defs>
<g id="item_0">
<path d="M10,115 L478,113 L727,21 L856,44 L930,47 L1049,0 L1097,295 L1078,396 L0,407 z" fill="#7A7A7A" fill-opacity="0.5" fill-rule="nonzero" stroke="black" stroke-width="4.735943"/>
</g>
<g id="item_1">
<path d="M0,0 L316,2 L316,274 L0,275 z" fill="#7A7A7A" fill-opacity="0.5" fill-rule="nonzero" stroke="black" stroke-width="4.735943"/>
</g>
<g id="item_2">
<path d="M0,1 L239,0 L242,80 L0,78 z" fill="#7A7A7A" fill-opacity="0.5" fill-rule="nonzero" stroke="black" stroke-width="4.735943"/>
</g>
<g id="item_3">
<path d="M0,310 L0,119 L384,0 L384,70 L759,69 L758,310 z" fill="#7A7A7A" fill-opacity="0.5" fill-rule="nonzero" stroke="black" stroke-width="4.735943"/>
</g>
<g id="item_4">
<path d="M0,252 L0,75 L150,0 L148,175 z" fill="#7A7A7A" fill-opacity="0.5" fill-rule="nonzero" stroke="black" stroke-width="4.735943"/>
</g>
<g id="item_5">
<path d="M852,412 L503,414 L387,451 L355,505 L300,451 L45,325 L0,221 L0,154 L55,53 L145,16 L329,25 L407,35 L539,38 L597,51 L668,20 L736,0 L784,3 L849,194 z" fill="#7A7A7A" fill-opacity="0.5" fill-rule="nonzero" stroke="black" stroke-width="4.735943"/>
</g>
<g id="item_6">
<path d="M0,232 L827,0 L894,20 L975,258 L1097,260 L1003,500 L884,463 L845,453 L761,490 L732,547 L694,544 L616,477 L539,414 L0,426 z" fill="#7A7A7A" fill-opacity="0.5" fill-rule="nonzero" stroke="black" stroke-width="4.735943"/>
</g>
<g id="item_7">
<path d="M151,427 L97,266 L0,259 L75,28 L126,21 L191,61 L271,50 L316,64 L359,10 L436,6 L442,43 L694,75 L726,42 L1091,0 L1094,211 L1033,208 L987,346 L926,393 z" fill="#7A7A7A" fill-opacity="0.5" fill-rule="nonzero" stroke="black" stroke-width="4.735943"/>
</g>
<g id="item_8">
<path d="M0,0 L745,24 L619,196 L590,276 L522,260 L6,282 z" fill="#7A7A7A" fill-opacity="0.5" fill-rule="nonzero" stroke="black" stroke-width="4.735943"/>
</g>
</defs>
<use transform="translate(1426.742 920.3628), rotate(-180)" xlink:href="#item_6">
<title>item, id: 6, transf: [r: -180.000°, t: (1426.742, 920.363)]</title>
</use>
<use transform="translate(625.02515 681.2888), rotate(0)" xlink:href="#item_6">
<title>item, id: 6, transf: [r: 0.000°, t: (625.025, 681.289)]</title>
</use>
<use transform="translate(930.3784 2191.974), rotate(-90)" xlink:href="#item_7">
<title>item, id: 7, transf: [r: -90.000°, t: (930.378, 2191.974)]</title>
</use>
<use transform="translate(966.37823 1105.4622), rotate(90)" xlink:href="#item_7">
<title>item, id: 7, transf: [r: 90.000°, t: (966.378, 1105.462)]</title>
</use>
<use transform="translate(1315.153 2284.143), rotate(-90)" xlink:href="#item_0">
<title>item, id: 0, transf: [r: -90.000°, t: (1315.153, 2284.143)]</title>
</use>
<use transform="translate(407.0172 1040.2944), rotate(90)" xlink:href="#item_0">
<title>item, id: 0, transf: [r: 90.000°, t: (407.017, 1040.294)]</title>
</use>
<use transform="translate(852.0608 2549.9995), rotate(-180)" xlink:href="#item_5">
<title>item, id: 5, transf: [r: -180.000°, t: (852.061, 2550.000)]</title>
</use>
<use transform="translate(591.4868 0.052246094), rotate(0)" xlink:href="#item_5">
<title>item, id: 5, transf: [r: 0.000°, t: (591.487, 0.052)]</title>
</use>
<use transform="translate(310.54227 274.64215), rotate(90)" xlink:href="#item_3">
<title>item, id: 3, transf: [r: 90.000°, t: (310.542, 274.642)]</title>
</use>
<use transform="translate(604.0789 760.36664), rotate(90)" xlink:href="#item_3">
<title>item, id: 3, transf: [r: 90.000°, t: (604.079, 760.367)]</title>
</use>
<use transform="translate(1722.073 0.16723633), rotate(90)" xlink:href="#item_8">
<title>item, id: 8, transf: [r: 90.000°, t: (1722.073, 0.167)]</title>
</use>
<use transform="translate(861.1925 2267.9714), rotate(0)" xlink:href="#item_8">
<title>item, id: 8, transf: [r: 0.000°, t: (861.193, 2267.971)]</title>
</use>
<use transform="translate(316.00995 275.2005), rotate(-180)" xlink:href="#item_1">
<title>item, id: 1, transf: [r: -180.000°, t: (316.010, 275.201)]</title>
</use>
<use transform="translate(316.63498 420.07266), rotate(-90)" xlink:href="#item_1">
<title>item, id: 1, transf: [r: -90.000°, t: (316.635, 420.073)]</title>
</use>
<use transform="translate(558.921 2088.7053), rotate(-180)" xlink:href="#item_4">
<title>item, id: 4, transf: [r: -180.000°, t: (558.921, 2088.705)]</title>
</use>
<use transform="translate(1705.2617 2549.07), rotate(-180)" xlink:href="#item_4">
<title>item, id: 4, transf: [r: -180.000°, t: (1705.262, 2549.070)]</title>
</use>
<use transform="translate(316.6776 0.02993393), rotate(0)" xlink:href="#item_2">
<title>item, id: 2, transf: [r: 0.000°, t: (316.678, 0.030)]</title>
</use>
<use transform="translate(386.41754 1786.9994), rotate(-90)" xlink:href="#item_2">
<title>item, id: 2, transf: [r: -90.000°, t: (386.418, 1786.999)]</title>
</use>
<use transform="translate(551.8367 1556.9644), rotate(90)" xlink:href="#item_2">
<title>item, id: 2, transf: [r: 90.000°, t: (551.837, 1556.964)]</title>
</use>
<use transform="translate(1185.3584 2200.2302), rotate(0)" xlink:href="#item_2">
<title>item, id: 2, transf: [r: 0.000°, t: (1185.358, 2200.230)]</title>
</use>
</g>
<g id="quality_zones"/>
<g id="optionals">
<g id="overlap_lines" transform="translate(0 0), rotate(0)"/>
</g>
<text font-family="monospace" font-size="43.054028" font-weight="500" x="0" y="-21.527014">
height: 2550.000 | width: 1722.161 | usage: 85.588% | final_bench_8
</text>
</svg>