<svg viewBox="-86.70478 -127.50003 1907.5049 2805" xmlns="http://www.w3.org/2000/svg" xmlns:xlink="http://www.w3.org/1999/xlink">
<g id="bin_0">
<path d="M0,0 L1734.0952,0 L1734.0952,2550 L0,2550 z" fill="#D3D3D3" stroke="black" stroke-width="9.537524"/>
<title>bin, id: 0, bbox: [x_min: 0.000, y_min: 0.000, x_max: 1734.095, y_max: 2550.000]</title>
</g>
<g id="items">
<defs>
<g id="item_0">
<path d="M10,115 L478,113 L727,21 L856,44 L930,47 L1049,0 L1097,295 L1078,396 L0,407 z" fill="#7A7A7A" fill-opacity="0.5" fill-rule="nonzero" stroke="black" stroke-width="4.768762"/>
</g>
<g id="item_1">
<path d="M0,0 L316,2 L316,274 L0,275 z" fill="#7A7A7A" fill-opacity="0.5" fill-rule="nonzero" stroke="black" stroke-width="4.768762"/>
</g>
<g id="item_2">
<path d="M0,1 L239,0 L242,80 L0,78 z" fill="#7A7A7A" fill-opacity="0.5" fill-rule="nonzero" stroke="black" stroke-width="4.768762"/>
</g>
<g id="item_3">
<path d="M0,310 L0,119 L384,0 L384,70 L759,69 L758,310 z" fill="#7A7A7A" fill-opacity="0.5" fill-rule="nonzero" stroke="black" stroke-width="4.768762"/>
</g>
<g id="item_4">
<path d="M0,252 L0,75 L150,0 L148,175 z" fill="#7A7A7A" fill-opacity="0.5" fill-rule="nonzero" stroke="black" stroke-width="4.768762"/>
</g>
<g id="item_5">
<path d="M852,412 L503,414 L387,451 L355,505 L300,451 L45,325 L0,221 L0,154 L55,53 L145,16 L329,25 L407,35 L539,38 L597,51 L668,20 L736,0 L784,3 L849,194 z" fill="#7A7A7A" fill-opacity="0.5" fill-rule="nonzero" stroke="black" stroke-width="4.768762"/>
</g>
<g id="item_6">
<path d="M0,232 L827,0 L894,20 L975,258 L1097,260 L1003,500 L884,463 L845,453 L761,490 L732,547 L694,544 L616,477 L539,414 L0,426 z" fill="#7A7A7A" fill-opacity="0.5" fill-rule="nonzero" stroke="black" stroke-width="4.768762"/>
</g>
<g id="item_7">
<path d="M151,427 L97,266 L0,259 L75,28 L126,21 L191,61 L271,50 L316,64 L359,10 L436,6 L442,43 L694,75 L726,42 L1091,0 L1094,211 L1033,208 L987,346 L926,393 z" fill="#7A7A7A" fill-opacity="0.5" fill-rule="nonzero" stroke="black" stroke-width="4.768762"/>
</g>
<g id="item_8">
<path d="M0,0 L745,24 L619,196 L590,276 L522,260 L6,282 z" fill="#7A7A7A" fill-opacity="0.5" fill-rule="nonzero" stroke="black" stroke-width="4.768762"/>
</g>
</defs>
<use transform="translate(411.258 2264.1616), rotate(-90)" xlink:href="#item_6">
<title>item, id: 6, transf: [r: -90.000°, t: (411.258, 2264.162)]</title>
</use>
<use transform="translate(562.0219 1147.8745), rotate(90)" xlink:href="#item_6">
<title>item, id: 6, transf: [r: 90.000°, t: (562.022, 1147.875)]</title>
</use>
<use transform="translate(1733.645 1215.5085), rotate(90)" xlink:href="#item_7">
<title>item, id: 7, transf: [r: 90.000°, t: (1733.645, 1215.509)]</title>
</use>
<use transform="translate(998.439 1462.4418), rotate(-90)" xlink:href="#item_7">
<title>item, id: 7, transf: [r: -90.000°, t: (998.439, 1462.442)]</title>
</use>
<use transform="translate(1327.0941 1145.8395), rotate(-90)" xlink:href="#item_0">
<title>item, id: 0, transf: [r: -90.000°, t: (1327.094, 1145.839)]</title>
</use>
<use transform="translate(1330.4087 407.01294), rotate(-180)" xlink:href="#item_0">
<title>item, id: 0, transf: [r: -180.000°, t: (1330.409, 407.013)]</title>
</use>
<use transform="translate(560.78174 1183.641), rotate(-90)" xlink:href="#item_5">
<title>item, id: 5, transf: [r: -90.000°, t: (560.782, 1183.641)]</title>
</use>
<use transform="translate(1331.8617 1436.6201), rotate(90)" xlink:href="#item_5">
<title>item, id: 5, transf: [r: 90.000°, t: (1331.862, 1436.620)]</title>
</use>
<use transform="translate(310.00323 115.28967), rotate(90)" xlink:href="#item_3">
<title>item, id: 3, transf: [r: 90.000°, t: (310.003, 115.290)]</title>
</use>
<use transform="translate(975.0926 2239.955), rotate(0)" xlink:href="#item_3">
<title>item, id: 3, transf: [r: 0.000°, t: (975.093, 2239.955)]</title>
</use>
<use transform="translate(274.33374 2267.9006), rotate(0)" xlink:href="#item_8">
<title>item, id: 8, transf: [r: 0.000°, t: (274.334, 2267.901)]</title>
</use>
<use transform="translate(592.3926 550.9171), rotate(90)" xlink:href="#item_8">
<title>item, id: 8, transf: [r: 90.000°, t: (592.393, 550.917)]</title>
</use>
<use transform="translate(0.03692627 873.29736), rotate(0)" xlink:href="#item_1">
<title>item, id: 1, transf: [r: 0.000°, t: (0.037, 873.297)]</title>
</use>
<use transform="translate(0.026657104 2549.9175), rotate(-90)" xlink:href="#item_1">
<title>item, id: 1, transf: [r: -90.000°, t: (0.027, 2549.917)]</title>
</use>
<use transform="translate(385.98108 2268.3555), rotate(-90)" xlink:href="#item_4">
<title>item, id: 4, transf: [r: -90.000°, t: (385.981, 2268.355)]</title>
</use>
<use transform="translate(316.77658 550.4732), rotate(-90)" xlink:href="#item_4">
<title>item, id: 4, transf: [r: -90.000°, t: (316.777, 550.473)]</title>
</use>
<use transform="translate(1002.4909 1099.1748), rotate(90)" xlink:href="#item_2">
<title>item, id: 2, transf: [r: 90.000°, t: (1002.491, 1099.175)]</title>
</use>
<use transform="translate(0.05392456 1475.7507), rotate(-90)" xlink:href="#item_2">
<title>item, id: 2, transf: [r: -90.000°, t: (0.054, 1475.751)]</title>
</use>
<use transform="translate(30.04741 1726.9478), rotate(-90)" xlink:href="#item_2">
<title>item, id: 2, transf: [r: -90.000°, t: (30.047, 1726.948)]</title>
</use>
<use transform="translate(917.34094 2028.7065), rotate(90)" xlink:href="#item_2">
<title>item, id: 2, transf: [r: 90.000°, t: (917.341, 2028.707)]</title>
</use>
</g>
<g id="quality_zones"/>
<g id="optionals">
<g id="overlap_lines" transform="translate(0 0), rotate(0)"/>
</g>
<text font-family="monospace" font-size="43.352383" font-weight="500" x="0" y="-21.676191">
height: 2550.000 | width: 1734.095 | usage: 84.999% | final_bench_39
</text>
</svg>