<svg viewBox="-86.227806 -127.50003 1897.0112 2805" xmlns="http://www.w3.org/2000/svg" xmlns:xlink="http://www.w3.org/1999/xlink">
<g id="bin_0">
<path d="M0,0 L1724.5557,0 L1724.5557,2550 L0,2550 z" fill="#D3D3D3" stroke="black" stroke-width="9.485056"/>
<title>bin, id: 0, bbox: [x_min: 0.000, y_min: 0.000, x_max: 1724.556, y_max: 2550.000]</title>
</g>
<g id="items">
<defs>
<g id="item_0">
<path d="M10,115 L478,113 L727,21 L856,44 L930,47 L1049,0 L1097,295 L1078,396 L0,407 z" fill="#7A7A7A" fill-opacity="0.5" fill-rule="nonzero" stroke="black" stroke-width="4.742528"/>
</g>
<g id="item_1">
<path d="M0,0 L316,2 L316,274 L0,275 z" fill="#7A7A7A" fill-opacity="0.5" fill-rule="nonzero" stroke="black" stroke-width="4.742528"/>
</g>
<g id="item_2">
<path d="M0,1 L239,0 L242,80 L0,78 z" fill="#7A7A7A" fill-opacity="0.5" fill-rule="nonzero" stroke="black" stroke-width="4.742528"/>
</g>
<g id="item_3">
<path d="M0,310 L0,119 L384,0 L384,70 L759,69 L758,310 z" fill="#7A7A7A" fill-opacity="0.5" fill-rule="nonzero" stroke="black" stroke-width="4.742528"/>
</g>
<g id="item_4">
<path d="M0,252 L0,75 L150,0 L148,175 z" fill="#7A7A7A" fill-opacity="0.5" fill-rule="nonzero" stroke="black" stroke-width="4.742528"/>
</g>
<g id="item_5">
<path d="M852,412 L503,414 L387,451 L355,505 L300,451 L45,325 L0,221 L0,154 L55,53 L145,16 L329,25 L407,35 L539,38 L597,51 L668,20 L736,0 L784,3 L849,194 z" fill="#7A7A7A" fill-opacity="0.5" fill-rule="nonzero" stroke="black" stroke-width="4.742528"/>
</g>
<g id="item_6">
<path d="M0,232 L827,0 L894,20 L975,258 L1097,260 L1003,500 L884,463 L845,453 L761,490 L732,547 L694,544 L616,477 L539,414 L0,426 z" fill="#7A7A7A" fill-opacity="0.5" fill-rule="nonzero" stroke="black" stroke-width="4.742528"/>
</g>
<g id="item_7">
<path d="M151,427 L97,266 L0,259 L75,28 L126,21 L191,61 L271,50 L316,64 L359,10 L436,6 L442,43 L694,75 L726,42 L1091,0 L1094,211 L1033,208 L987,346 L926,393 z" fill="#7A7A7A" fill-opacity="0.5" fill-rule="nonzero" stroke="black" stroke-width="4.742528"/>
</g>
<g id="item_8">
<path d="M0,0 L745,24 L619,196 L590,276 L522,260 L6,282 z" fill="#7A7A7A" fill-opacity="0.5" fill-rule="nonzero" stroke="black" stroke-width="4.742528"/>
</g>
</defs>
<use transform="translate(312.59998 1388.321), rotate(0)" xlink:href="#item_6">
<title>item, id: 6, transf: [r: 0.000°, t: (312.600, 1388.321)]</title>
</use>
<use transform="translate(1105.0381 1630.0151), rotate(-180)" xlink:href="#item_6">
<title>item, id: 6, transf: [r: -180.000°, t: (1105.038, 1630.015)]</title>
</use>
<use transform="translate(1297.5522 1094.1492), rotate(-90)" xlink:href="#item_7">
<title>item, id: 7, transf: [r: -90.000°, t: (1297.552, 1094.149)]</title>
</use>
<use transform="translate(338.11194 1875.2853), rotate(0)" xlink:href="#item_7">
<title>item, id: 7, transf: [r: 0.000°, t: (338.112, 1875.285)]</title>
</use>
<use transform="translate(1317.5504 2183.003), rotate(-90)" xlink:href="#item_0">
<title>item, id: 0, transf: [r: -90.000°, t: (1317.550, 2183.003)]</title>
</use>
<use transform="translate(407.00195 18.732788), rotate(90)" xlink:href="#item_0">
<title>item, id: 0, transf: [r: 90.000°, t: (407.002, 18.733)]</title>
</use>
<use transform="translate(1318.7014 37.317535), rotate(90)" xlink:href="#item_5">
<title>item, id: 5, transf: [r: 90.000°, t: (1318.701, 37.318)]</title>
</use>
<use transform="translate(355.15936 1120.3083), rotate(-90)" xlink:href="#item_5">
<title>item, id: 5, transf: [r: -90.000°, t: (355.159, 1120.308)]</title>
</use>
<use transform="translate(84.183716 2239.982), rotate(0)" xlink:href="#item_3">
<title>item, id: 3, transf: [r: 0.000°, t: (84.184, 2239.982)]</title>
</use>
<use transform="translate(310.0347 1551.2871), rotate(90)" xlink:href="#item_3">
<title>item, id: 3, transf: [r: 90.000°, t: (310.035, 1551.287)]</title>
</use>
<use transform="translate(1724.4233 2549.98), rotate(-180)" xlink:href="#item_8">
<title>item, id: 8, transf: [r: -180.000°, t: (1724.423, 2549.980)]</title>
</use>
<use transform="translate(291.39905 0.024353027), rotate(0)" xlink:href="#item_8">
<title>item, id: 8, transf: [r: 0.000°, t: (291.399, 0.024)]</title>
</use>
<use transform="translate(770.063 1205.332), rotate(-90)" xlink:href="#item_1">
<title>item, id: 1, transf: [r: -90.000°, t: (770.063, 1205.332)]</title>
</use>
<use transform="translate(1319.0579 887.49524), rotate(90)" xlink:href="#item_1">
<title>item, id: 1, transf: [r: 90.000°, t: (1319.058, 887.495)]</title>
</use>
<use transform="translate(870.998 2295.84), rotate(0)" xlink:href="#item_4">
<title>item, id: 4, transf: [r: 0.000°, t: (870.998, 2295.840)]</title>
</use>
<use transform="translate(1356.7788 1203.5002), rotate(90)" xlink:href="#item_4">
<title>item, id: 4, transf: [r: 90.000°, t: (1356.779, 1203.500)]</title>
</use>
<use transform="translate(879.1269 466.84872), rotate(90)" xlink:href="#item_2">
<title>item, id: 2, transf: [r: 90.000°, t: (879.127, 466.849)]</title>
</use>
<use transform="translate(258.8535 2280.6746), rotate(-90)" xlink:href="#item_2">
<title>item, id: 2, transf: [r: -90.000°, t: (258.853, 2280.675)]</title>
</use>
<use transform="translate(1585.8849 2266.0227), rotate(-180)" xlink:href="#item_2">
<title>item, id: 2, transf: [r: -180.000°, t: (1585.885, 2266.023)]</title>
</use>
<use transform="translate(340.36154 1812.7179), rotate(0)" xlink:href="#item_2">
<title>item, id: 2, transf: [r: 0.000°, t: (340.362, 1812.718)]</title>
</use>
</g>
<g id="quality_zones"/>
<g id="optionals">
<g id="overlap_lines" transform="translate(0 0), rotate(0)"/>
</g>
<text font-family="monospace" font-size="43.11389" font-weight="500" x="0" y="-21.556946">
height: 2550.000 | width: 1724.556 | usage: 85.469% | final_bench_65
</text>
</svg>