<svg viewBox="-85.78212 -127.50003 1887.2062 2805" xmlns="http://www.w3.org/2000/svg" xmlns:xlink="http://www.w3.org/1999/xlink">
<g id="bin_0">
<path d="M0,0 L1715.642,0 L1715.642,2550 L0,2550 z" fill="#D3D3D3" stroke="black" stroke-width="9.436031"/>
<title>bin, id: 0, bbox: [x_min: 0.000, y_min: 0.000, x_max: 1715.642, y_max: 2550.000]</title>
</g>
<g id="items">
<defs>
<g id="item_0">
<path d="M10,115 L478,113 L727,21 L856,44 L930,47 L1049,0 L1097,295 L1078,396 L0,407 z" fill="#7A7A7A" fill-opacity="0.5" fill-rule="nonzero" stroke="black" stroke-width="4.7180157"/>
</g>
<g id="item_1">
<path d="M0,0 L316,2 L316,274 L0,275 z" fill="#7A7A7A" fill-opacity="0.5" fill-rule="nonzero" stroke="black" stroke-width="4.7180157"/>
</g>
<g id="item_2">
<path d="M0,1 L239,0 L242,80 L0,78 z" fill="#7A7A7A" fill-opacity="0.5" fill-rule="nonzero" stroke="black" stroke-width="4.7180157"/>
</g>
<g id="item_3">
<path d="M0,310 L0,119 L384,0 L384,70 L759,69 L758,310 z" fill="#7A7A7A" fill-opacity="0.5" fill-rule="nonzero" stroke="black" stroke-width="4.7180157"/>
</g>
<g id="item_4">
<path d="M0,252 L0,75 L150,0 L148,175 z" fill="#7A7A7A" fill-opacity="0.5" fill-rule="nonzero" stroke="black" stroke-width="4.7180157"/>
</g>
<g id="item_5">
<path d="M852,412 L503,414 L387,451 L355,505 L300,451 L45,325 L0,221 L0,154 L55,53 L145,16 L329,25 L407,35 L539,38 L597,51 L668,20 L736,0 L784,3 L849,194 z" fill="#7A7A7A" fill-opacity="0.5" fill-rule="nonzero" stroke="black" stroke-width="4.7180157"/>
</g>
<g id="item_6">
<path d="M0,232 L827,0 L894,20 L975,258 L1097,260 L1003,500 L884,463 L845,453 L761,490 L732,547 L694,544 L616,477 L539,414 L0,426 z" fill="#7A7A7A" fill-opacity="0.5" fill-rule="nonzero" stroke="black" stroke-width="4.7180157"/>
</g>
<g id="item_7">
<path d="M151,427 L97,266 L0,259 L75,28 L126,21 L191,61 L271,50 L316,64 L359,10 L436,6 L442,43 L694,75 L726,42 L1091,0 L1094,211 L1033,208 L987,346 L926,393 z" fill="#7A7A7A" fill-opacity="0.5" fill-rule="nonzero" stroke="black" stroke-width="4.7180157"/>
</g>
<g id="item_8">
<path d="M0,0 L745,24 L619,196 L590,276 L522,260 L6,282 z" fill="#7A7A7A" fill-opacity="0.5" fill-rule="nonzero" stroke="black" stroke-width="4.7180157"/>
</g>
</defs>
<use transform="translate(893.2475 1968.8505), rotate(-90)" xlink:href="#item_6">
<title>item, id: 6, transf: [r: -90.000°, t: (893.247, 1968.850)]</title>
</use>
<use transform="translate(1110.4192 1088.993), rotate(90)" xlink:href="#item_6">
<title>item, id: 6, transf: [r: 90.000°, t: (1110.419, 1088.993)]</title>
</use>
<use transform="translate(0.11956787 1500.3641), rotate(-90)" xlink:href="#item_7">
<title>item, id: 7, transf: [r: -90.000°, t: (0.120, 1500.364)]</title>
</use>
<use transform="translate(413.28235 470.67175), rotate(0)" xlink:href="#item_7">
<title>item, id: 7, transf: [r: 0.000°, t: (413.282, 470.672)]</title>
</use>
<use transform="translate(1308.6323 2540.8794), rotate(-90)" xlink:href="#item_0">
<title>item, id: 0, transf: [r: -90.000°, t: (1308.632, 2540.879)]</title>
</use>
<use transform="translate(0.04626465 2142.998), rotate(0)" xlink:href="#item_0">
<title>item, id: 0, transf: [r: 0.000°, t: (0.046, 2142.998)]</title>
</use>
<use transform="translate(850.8546 0.000015258789), rotate(0)" xlink:href="#item_5">
<title>item, id: 5, transf: [r: 0.000°, t: (850.855, 0.000)]</title>
</use>
<use transform="translate(1.4801025 0.0046691895), rotate(0)" xlink:href="#item_5">
<title>item, id: 5, transf: [r: 0.000°, t: (1.480, 0.005)]</title>
</use>
<use transform="translate(1405.6418 1443.8508), rotate(-90)" xlink:href="#item_3">
<title>item, id: 3, transf: [r: -90.000°, t: (1405.642, 1443.851)]</title>
</use>
<use transform="translate(310.00043 1478.2529), rotate(90)" xlink:href="#item_3">
<title>item, id: 3, transf: [r: 90.000°, t: (310.000, 1478.253)]</title>
</use>
<use transform="translate(690.4324 899.9795), rotate(90)" xlink:href="#item_8">
<title>item, id: 8, transf: [r: 90.000°, t: (690.432, 899.979)]</title>
</use>
<use transform="translate(298.3462 2224.136), rotate(-90)" xlink:href="#item_8">
<title>item, id: 8, transf: [r: -90.000°, t: (298.346, 2224.136)]</title>
</use>
<use transform="translate(1103.1237 2274.966), rotate(0)" xlink:href="#item_1">
<title>item, id: 1, transf: [r: 0.000°, t: (1103.124, 2274.966)]</title>
</use>
<use transform="translate(1082.9398 2000.0137), rotate(0)" xlink:href="#item_1">
<title>item, id: 1, transf: [r: 0.000°, t: (1082.940, 2000.014)]</title>
</use>
<use transform="translate(942.0978 911.6899), rotate(90)" xlink:href="#item_4">
<title>item, id: 4, transf: [r: 90.000°, t: (942.098, 911.690)]</title>
</use>
<use transform="translate(1715.6395 685.2104), rotate(-180)" xlink:href="#item_4">
<title>item, id: 4, transf: [r: -180.000°, t: (1715.640, 685.210)]</title>
</use>
<use transform="translate(1394.9899 1059.8312), rotate(-90)" xlink:href="#item_2">
<title>item, id: 2, transf: [r: -90.000°, t: (1394.990, 1059.831)]</title>
</use>
<use transform="translate(1103.3497 505.56848), rotate(-180)" xlink:href="#item_2">
<title>item, id: 2, transf: [r: -180.000°, t: (1103.350, 505.568)]</title>
</use>
<use transform="translate(1148.4834 963.6726), rotate(-180)" xlink:href="#item_2">
<title>item, id: 2, transf: [r: -180.000°, t: (1148.483, 963.673)]</title>
</use>
<use transform="translate(519.3238 413.45407), rotate(0)" xlink:href="#item_2">
<title>item, id: 2, transf: [r: 0.000°, t: (519.324, 413.454)]</title>
</use>
</g>
<g id="quality_zones"/>
<g id="optionals">
<g id="overlap_lines" transform="translate(0 0), rotate(0)"/>
</g>
<text font-family="monospace" font-size="42.89105" font-weight="500" x="0" y="-21.445524">
height: 2550.000 | width: 1715.642 | usage: 85.913% | final_bench_26
</text>
</svg>