<svg viewBox="-85.0674 -127.50003 1871.4823 2805" xmlns="http://www.w3.org/2000/svg" xmlns:xlink="http://www.w3.org/1999/xlink">
<g id="bin_0">
<path d="M0,0 L1701.3475,0 L1701.3475,2550 L0,2550 z" fill="#D3D3D3" stroke="black" stroke-width="9.357412"/>
<title>bin, id: 0, bbox: [x_min: 0.000, y_min: 0.000, x_max: 1701.348, y_max: 2550.000]</title>
</g>
<g id="items">
<defs>
<g id="item_0">
<path d="M10,115 L478,113 L727,21 L856,44 L930,47 L1049,0 L1097,295 L1078,396 L0,407 z" fill="#7A7A7A" fill-opacity="0.5" fill-rule="nonzero" stroke="black" stroke-width="4.678706"/>
</g>
<g id="item_1">
<path d="M0,0 L316,2 L316,274 L0,275 z" fill="#7A7A7A" fill-opacity="0.5" fill-rule="nonzero" stroke="black" stroke-width="4.678706"/>
</g>
<g id="item_2">
<path d="M0,1 L239,0 L242,80 L0,78 z" fill="#7A7A7A" fill-opacity="0.5" fill-rule="nonzero" stroke="black" stroke-width="4.678706"/>
</g>
<g id="item_3">
<path d="M0,310 L0,119 L384,0 L384,70 L759,69 L758,310 z" fill="#7A7A7A" fill-opacity="0.5" fill-rule="nonzero" stroke="black" stroke-width="4.678706"/>
</g>
<g id="item_4">
<path d="M0,252 L0,75 L150,0 L148,175 z" fill="#7A7A7A" fill-opacity="0.5" fill-rule="nonzero" stroke="black" stroke-width="4.678706"/>
</g>
<g id="item_5">
<path d="M852,412 L503,414 L387,451 L355,505 L300,451 L45,325 L0,221 L0,154 L55,53 L145,16 L329,25 L407,35 L539,38 L597,51 L668,20 L736,0 L784,3 L849,194 z" fill="#7A7A7A" fill-opacity="0.5" fill-rule="nonzero" stroke="black" stroke-width="4.678706"/>
</g>
<g id="item_6">
<path d="M0,232 L827,0 L894,20 L975,258 L1097,260 L1003,500 L884,463 L845,453 L761,490 L732,547 L694,544 L616,477 L539,414 L0,426 z" fill="#7A7A7A" fill-opacity="0.5" fill-rule="nonzero" stroke="black" stroke-width="4.678706"/>
</g>
<g id="item_7">
<path d="M151,427 L97,266 L0,259 L75,28 L126,21 L191,61 L271,50 L316,64 L359,10 L436,6 L442,43 L694,75 L726,42 L1091,0 L1094,211 L1033,208 L987,346 L926,393 z" fill="#7A7A7A" fill-opacity="0.5" fill-rule="nonzero" stroke="black" stroke-width="4.678706"/>
</g>
<g id="item_8">
<path d="M0,0 L745,24 L619,196 L590,276 L522,260 L6,282 z" fill="#7A7A7A" fill-opacity="0.5" fill-rule="nonzero" stroke="black" stroke-width="4.678706"/>
</g>
</defs>
<use transform="translate(1395.2649 1789.6398), rotate(-180)" xlink:href="#item_6">
<title>item, id: 6, transf: [r: -180.000°, t: (1395.265, 1789.640)]</title>
</use>
<use transform="translate(477.87476 1583.1292), rotate(0)" xlink:href="#item_6">
<title>item, id: 6, transf: [r: 0.000°, t: (477.875, 1583.129)]</title>
</use>
<use transform="translate(282.86505 1334.1589), rotate(-90)" xlink:href="#item_7">
<title>item, id: 7, transf: [r: -90.000°, t: (282.865, 1334.159)]</title>
</use>
<use transform="translate(1101.9072 233.05048), rotate(90)" xlink:href="#item_7">
<title>item, id: 7, transf: [r: 90.000°, t: (1101.907, 233.050)]</title>
</use>
<use transform="translate(407.0523 1040.2697), rotate(90)" xlink:href="#item_0">
<title>item, id: 0, transf: [r: 90.000°, t: (407.052, 1040.270)]</title>
</use>
<use transform="translate(1294.3448 1098.1587), rotate(-90)" xlink:href="#item_0">
<title>item, id: 0, transf: [r: -90.000°, t: (1294.345, 1098.159)]</title>
</use>
<use transform="translate(852.0003 2549.9995), rotate(-180)" xlink:href="#item_5">
<title>item, id: 5, transf: [r: -180.000°, t: (852.000, 2550.000)]</title>
</use>
<use transform="translate(1701.3442 2547.8074), rotate(-180)" xlink:href="#item_5">
<title>item, id: 5, transf: [r: -180.000°, t: (1701.344, 2547.807)]</title>
</use>
<use transform="translate(935.85803 310.00012), rotate(-180)" xlink:href="#item_3">
<title>item, id: 3, transf: [r: -180.000°, t: (935.858, 310.000)]</title>
</use>
<use transform="translate(337.2807 282.8813), rotate(90)" xlink:href="#item_3">
<title>item, id: 3, transf: [r: 90.000°, t: (337.281, 282.881)]</title>
</use>
<use transform="translate(1700.4878 1165.702), rotate(90)" xlink:href="#item_8">
<title>item, id: 8, transf: [r: 90.000°, t: (1700.488, 1165.702)]</title>
</use>
<use transform="translate(1084.0039 1085.8213), rotate(-90)" xlink:href="#item_8">
<title>item, id: 8, transf: [r: -90.000°, t: (1084.004, 1085.821)]</title>
</use>
<use transform="translate(1101.9188 1086.5446), rotate(0)" xlink:href="#item_1">
<title>item, id: 1, transf: [r: 0.000°, t: (1101.919, 1086.545)]</title>
</use>
<use transform="translate(1293.8646 278.69632), rotate(-180)" xlink:href="#item_1">
<title>item, id: 1, transf: [r: -180.000°, t: (1293.865, 278.696)]</title>
</use>
<use transform="translate(0.06134796 15.420151), rotate(0)" xlink:href="#item_4">
<title>item, id: 4, transf: [r: 0.000°, t: (0.061, 15.420)]</title>
</use>
<use transform="translate(845.9313 2009.4806), rotate(90)" xlink:href="#item_4">
<title>item, id: 4, transf: [r: 90.000°, t: (845.931, 2009.481)]</title>
</use>
<use transform="translate(476.4423 1818.6311), rotate(90)" xlink:href="#item_2">
<title>item, id: 2, transf: [r: 90.000°, t: (476.442, 1818.631)]</title>
</use>
<use transform="translate(1543.3837 2165.4417), rotate(-90)" xlink:href="#item_2">
<title>item, id: 2, transf: [r: -90.000°, t: (1543.384, 2165.442)]</title>
</use>
<use transform="translate(1066.9081 2122.0122), rotate(-180)" xlink:href="#item_2">
<title>item, id: 2, transf: [r: -180.000°, t: (1066.908, 2122.012)]</title>
</use>
<use transform="translate(1701.1112 1961.3044), rotate(90)" xlink:href="#item_2">
<title>item, id: 2, transf: [r: 90.000°, t: (1701.111, 1961.304)]</title>
</use>
</g>
<g id="quality_zones"/>
<g id="optionals">
<g id="overlap_lines" transform="translate(0 0), rotate(0)"/>
</g>
<text font-family="monospace" font-size="42.533688" font-weight="500" x="0" y="-21.266844">
height: 2550.000 | width: 1701.348 | usage: 86.635% | final_bench_14
</text>
</svg>