<svg viewBox="-85.94812 -127.50003 1890.8583 2805" xmlns="http://www.w3.org/2000/svg" xmlns:xlink="http://www.w3.org/1999/xlink">
<g id="bin_0">
<path d="M0,0 L1718.962,0 L1718.962,2550 L0,2550 z" fill="#D3D3D3" stroke="black" stroke-width="9.454292"/>
<title>bin, id: 0, bbox: [x_min: 0.000, y_min: 0.000, x_max: 1718.962, y_max: 2550.000]</title>
</g>
<g id="items">
<defs>
<g id="item_0">
<path d="M10,115 L478,113 L727,21 L856,44 L930,47 L1049,0 L1097,295 L1078,396 L0,407 z" fill="#7A7A7A" fill-opacity="0.5" fill-rule="nonzero" stroke="black" stroke-width="4.727146"/>
</g>
<g id="item_1">
<path d="M0,0 L316,2 L316,274 L0,275 z" fill="#7A7A7A" fill-opacity="0.5" fill-rule="nonzero" stroke="black" stroke-width="4.727146"/>
</g>
<g id="item_2">
<path d="M0,1 L239,0 L242,80 L0,78 z" fill="#7A7A7A" fill-opacity="0.5" fill-rule="nonzero" stroke="black" stroke-width="4.727146"/>
</g>
<g id="item_3">
<path d="M0,310 L0,119 L384,0 L384,70 L759,69 L758,310 z" fill="#7A7A7A" fill-opacity="0.5" fill-rule="nonzero" stroke="black" stroke-width="4.727146"/>
</g>
<g id="item_4">
<path d="M0,252 L0,75 L150,0 L148,175 z" fill="#7A7A7A" fill-opacity="0.5" fill-rule="nonzero" stroke="black" stroke-width="4.727146"/>
</g>
<g id="item_5">
<path d="M852,412 L503,414 L387,451 L355,505 L300,451 L45,325 L0,221 L0,154 L55,53 L145,16 L329,25 L407,35 L539,38 L597,51 L668,20 L736,0 L784,3 L849,194 z" fill="#7A7A7A" fill-opacity="0.5" fill-rule="nonzero" stroke="black" stroke-width="4.727146"/>
</g>
<g id="item_6">
<path d="M0,232 L827,0 L894,20 L975,258 L1097,260 L1003,500 L884,463 L845,453 L761,490 L732,547 L694,544 L616,477 L539,414 L0,426 z" fill="#7A7A7A" fill-opacity="0.5" fill-rule="nonzero" stroke="black" stroke-width="4.727146"/>
</g>
<g id="item_7">
<path d="M151,427 L97,266 L0,259 L75,28 L126,21 L191,61 L271,50 L316,64 L359,10 L436,6 L442,43 L694,75 L726,42 L1091,0 L1094,211 L1033,208 L987,346 L926,393 z" fill="#7A7A7A" fill-opacity="0.5" fill-rule="nonzero" stroke="black" stroke-width="4.727146"/>
</g>
<g id="item_8">
<path d="M0,0 L745,24 L619,196 L590,276 L522,260 L6,282 z" fill="#7A7A7A" fill-opacity="0.5" fill-rule="nonzero" stroke="black" stroke-width="4.727146"/>
</g>
</defs>
<use transform="translate(1335.8452 2257.08), rotate(-180)" xlink:href="#item_6">
<title>item, id: 6, transf: [r: -180.000°, t: (1335.845, 2257.080)]</title>
</use>
<use transform="translate(1567.5167 526.7511), rotate(90)" xlink:href="#item_6">
<title>item, id: 6, transf: [r: 90.000°, t: (1567.517, 526.751)]</title>
</use>
<use transform="translate(260.0573 1791.6455), rotate(-90)" xlink:href="#item_7">
<title>item, id: 7, transf: [r: -90.000°, t: (260.057, 1791.646)]</title>
</use>
<use transform="translate(1078.6696 682.94415), rotate(90)" xlink:href="#item_7">
<title>item, id: 7, transf: [r: 90.000°, t: (1078.670, 682.944)]</title>
</use>
<use transform="translate(1311.9464 2549.989), rotate(-90)" xlink:href="#item_0">
<title>item, id: 0, transf: [r: -90.000°, t: (1311.946, 2549.989)]</title>
</use>
<use transform="translate(329.338 2142.805), rotate(0)" xlink:href="#item_0">
<title>item, id: 0, transf: [r: 0.000°, t: (329.338, 2142.805)]</title>
</use>
<use transform="translate(866.29236 0.0050201416), rotate(0)" xlink:href="#item_5">
<title>item, id: 5, transf: [r: 0.000°, t: (866.292, 0.005)]</title>
</use>
<use transform="translate(0.15835571 0.0005645752), rotate(0)" xlink:href="#item_5">
<title>item, id: 5, transf: [r: 0.000°, t: (0.158, 0.001)]</title>
</use>
<use transform="translate(1408.9587 1172.4907), rotate(-90)" xlink:href="#item_3">
<title>item, id: 3, transf: [r: -90.000°, t: (1408.959, 1172.491)]</title>
</use>
<use transform="translate(310.60077 1229.6453), rotate(90)" xlink:href="#item_3">
<title>item, id: 3, transf: [r: 90.000°, t: (310.601, 1229.645)]</title>
</use>
<use transform="translate(1088.3636 691.5926), rotate(-180)" xlink:href="#item_8">
<title>item, id: 8, transf: [r: -180.000°, t: (1088.364, 691.593)]</title>
</use>
<use transform="translate(0.00024414063 1222.811), rotate(-90)" xlink:href="#item_8">
<title>item, id: 8, transf: [r: -90.000°, t: (0.000, 1222.811)]</title>
</use>
<use transform="translate(329.15952 2549.5474), rotate(-180)" xlink:href="#item_1">
<title>item, id: 1, transf: [r: -180.000°, t: (329.160, 2549.547)]</title>
</use>
<use transform="translate(316.1294 2274.0486), rotate(-180)" xlink:href="#item_1">
<title>item, id: 1, transf: [r: -180.000°, t: (316.129, 2274.049)]</title>
</use>
<use transform="translate(120.89014 597.17804), rotate(-90)" xlink:href="#item_4">
<title>item, id: 4, transf: [r: -90.000°, t: (120.890, 597.178)]</title>
</use>
<use transform="translate(1317.7963 1602.4994), rotate(90)" xlink:href="#item_4">
<title>item, id: 4, transf: [r: 90.000°, t: (1317.796, 1602.499)]</title>
</use>
<use transform="translate(549.1992 685.8176), rotate(0)" xlink:href="#item_2">
<title>item, id: 2, transf: [r: 0.000°, t: (549.199, 685.818)]</title>
</use>
<use transform="translate(1332.6812 1830.7087), rotate(-180)" xlink:href="#item_2">
<title>item, id: 2, transf: [r: -180.000°, t: (1332.681, 1830.709)]</title>
</use>
<use transform="translate(1142.1844 778.2895), rotate(90)" xlink:href="#item_2">
<title>item, id: 2, transf: [r: 90.000°, t: (1142.184, 778.289)]</title>
</use>
<use transform="translate(1393.2885 672.48315), rotate(-90)" xlink:href="#item_2">
<title>item, id: 2, transf: [r: -90.000°, t: (1393.288, 672.483)]</title>
</use>
</g>
<g id="quality_zones"/>
<g id="optionals">
<g id="overlap_lines" transform="translate(0 0), rotate(0)"/>
</g>
<text font-family="monospace" font-size="42.974052" font-weight="500" x="0" y="-21.487026">
height: 2550.000 | width: 1718.962 | usage: 85.748% | final_bench_63
</text>
</svg>