<svg viewBox="-86.06259 -127.50003 1893.3767 2805" xmlns="http://www.w3.org/2000/svg" xmlns:xlink="http://www.w3.org/1999/xlink">
<g id="bin_0">
<path d="M0,0 L1721.2515,0 L1721.2515,2550 L0,2550 z" fill="#D3D3D3" stroke="black" stroke-width="9.466885"/>
<title>bin, id: 0, bbox: [x_min: 0.000, y_min: 0.000, x_max: 1721.251, y_max: 2550.000]</title>
</g>
<g id="items">
<defs>
<g id="item_0">
<path d="M10,115 L478,113 L727,21 L856,44 L930,47 L1049,0 L1097,295 L1078,396 L0,407 z" fill="#7A7A7A" fill-opacity="0.5" fill-rule="nonzero" stroke="black" stroke-width="4.7334423"/>
</g>
<g id="item_1">
<path d="M0,0 L316,2 L316,274 L0,275 z" fill="#7A7A7A" fill-opacity="0.5" fill-rule="nonzero" stroke="black" stroke-width="4.7334423"/>
</g>
<g id="item_2">
<path d="M0,1 L239,0 L242,80 L0,78 z" fill="#7A7A7A" fill-opacity="0.5" fill-rule="nonzero" stroke="black" stroke-width="4.7334423"/>
</g>
<g id="item_3">
<path d="M0,310 L0,119 L384,0 L384,70 L759,69 L758,310 z" fill="#7A7A7A" fill-opacity="0.5" fill-rule="nonzero" stroke="black" stroke-width="4.7334423"/>
</g>
<g id="item_4">
<path d="M0,252 L0,75 L150,0 L148,175 z" fill="#7A7A7A" fill-opacity="0.5" fill-rule="nonzero" stroke="black" stroke-width="4.7334423"/>
</g>
<g id="item_5">
<path d="M852,412 L503,414 L387,451 L355,505 L300,451 L45,325 L0,221 L0,154 L55,53 L145,16 L329,25 L407,35 L539,38 L597,51 L668,20 L736,0 L784,3 L849,194 z" fill="#7A7A7A" fill-opacity="0.5" fill-rule="nonzero" stroke="black" stroke-width="4.7334423"/>
</g>
<g id="item_6">
<path d="M0,232 L827,0 L894,20 L975,258 L1097,260 L1003,500 L884,463 L845,453 L761,490 L732,547 L694,544 L616,477 L539,414 L0,426 z" fill="#7A7A7A" fill-opacity="0.5" fill-rule="nonzero" stroke="black" stroke-width="4.7334423"/>
</g>
<g id="item_7">
<path d="M151,427 L97,266 L0,259 L75,28 L126,21 L191,61 L271,50 L316,64 L359,10 L436,6 L442,43 L694,75 L726,42 L1091,0 L1094,211 L1033,208 L987,346 L926,393 z" fill="#7A7A7A" fill-opacity="0.5" fill-rule="nonzero" stroke="black" stroke-width="4.7334423"/>
</g>
<g id="item_8">
<path d="M0,0 L745,24 L619,196 L590,276 L522,260 L6,282 z" fill="#7A7A7A" fill-opacity="0.5" fill-rule="nonzero" stroke="black" stroke-width="4.7334423"/>
</g>
</defs>
<use transform="translate(1228.3748 886.7577), rotate(-180)" xlink:href="#item_6">
<title>item, id: 6, transf: [r: -180.000°, t: (1228.375, 886.758)]</title>
</use>
<use transform="translate(327.74426 675.4833), rotate(0)" xlink:href="#item_6">
<title>item, id: 6, transf: [r: 0.000°, t: (327.744, 675.483)]</title>
</use>
<use transform="translate(632.08875 2227.3225), rotate(-90)" xlink:href="#item_7">
<title>item, id: 7, transf: [r: -90.000°, t: (632.089, 2227.323)]</title>
</use>
<use transform="translate(1453.2456 1176.3748), rotate(90)" xlink:href="#item_7">
<title>item, id: 7, transf: [r: 90.000°, t: (1453.246, 1176.375)]</title>
</use>
<use transform="translate(407.00342 1040.3314), rotate(90)" xlink:href="#item_0">
<title>item, id: 0, transf: [r: 90.000°, t: (407.003, 1040.331)]</title>
</use>
<use transform="translate(1097.0156 407.20523), rotate(-180)" xlink:href="#item_0">
<title>item, id: 0, transf: [r: -180.000°, t: (1097.016, 407.205)]</title>
</use>
<use transform="translate(1210.7546 852.0338), rotate(-90)" xlink:href="#item_5">
<title>item, id: 5, transf: [r: -90.000°, t: (1210.755, 852.034)]</title>
</use>
<use transform="translate(852.00195 2549.9934), rotate(-180)" xlink:href="#item_5">
<title>item, id: 5, transf: [r: -180.000°, t: (852.002, 2549.993)]</title>
</use>
<use transform="translate(852.10236 2239.979), rotate(0)" xlink:href="#item_3">
<title>item, id: 3, transf: [r: 0.000°, t: (852.102, 2239.979)]</title>
</use>
<use transform="translate(1411.2285 1590.0989), rotate(-90)" xlink:href="#item_3">
<title>item, id: 3, transf: [r: -90.000°, t: (1411.229, 1590.099)]</title>
</use>
<use transform="translate(651.5172 1374.4769), rotate(90)" xlink:href="#item_8">
<title>item, id: 8, transf: [r: 90.000°, t: (651.517, 1374.477)]</title>
</use>
<use transform="translate(1721.2424 1607.7682), rotate(90)" xlink:href="#item_8">
<title>item, id: 8, transf: [r: 90.000°, t: (1721.242, 1607.768)]</title>
</use>
<use transform="translate(275.01553 724.18286), rotate(90)" xlink:href="#item_1">
<title>item, id: 1, transf: [r: 90.000°, t: (275.016, 724.183)]</title>
</use>
<use transform="translate(293.40085 1101.3629), rotate(0)" xlink:href="#item_1">
<title>item, id: 1, transf: [r: 0.000°, t: (293.401, 1101.363)]</title>
</use>
<use transform="translate(1055.7068 2341.5571), rotate(-180)" xlink:href="#item_4">
<title>item, id: 4, transf: [r: -180.000°, t: (1055.707, 2341.557)]</title>
</use>
<use transform="translate(1227.6782 310.56604), rotate(90)" xlink:href="#item_4">
<title>item, id: 4, transf: [r: 90.000°, t: (1227.678, 310.566)]</title>
</use>
<use transform="translate(45.10148 706.0813), rotate(-90)" xlink:href="#item_2">
<title>item, id: 2, transf: [r: -90.000°, t: (45.101, 706.081)]</title>
</use>
<use transform="translate(956.1827 467.58682), rotate(-180)" xlink:href="#item_2">
<title>item, id: 2, transf: [r: -180.000°, t: (956.183, 467.587)]</title>
</use>
<use transform="translate(963.28064 387.1834), rotate(-180)" xlink:href="#item_2">
<title>item, id: 2, transf: [r: -180.000°, t: (963.281, 387.183)]</title>
</use>
<use transform="translate(1126.0496 309.33142), rotate(-90)" xlink:href="#item_2">
<title>item, id: 2, transf: [r: -90.000°, t: (1126.050, 309.331)]</title>
</use>
</g>
<g id="quality_zones"/>
<g id="optionals">
<g id="overlap_lines" transform="translate(0 0), rotate(0)"/>
</g>
<text font-family="monospace" font-size="43.03129" font-weight="500" x="0" y="-21.515644">
height: 2550.000 | width: 1721.251 | usage: 85.633% | final_bench_30
</text>
</svg>