<svg viewBox="-86.056786 -127.50003 1893.2488 2805" xmlns="http://www.w3.org/2000/svg" xmlns:xlink="http://www.w3.org/1999/xlink">
<g id="bin_0">
<path d="M0,0 L1721.1353,0 L1721.1353,2550 L0,2550 z" fill="#D3D3D3" stroke="black" stroke-width="9.466245"/>
<title>bin, id: 0, bbox: [x_min: 0.000, y_min: 0.000, x_max: 1721.135, y_max: 2550.000]</title>
</g>
<g id="items">
<defs>
<g id="item_0">
<path d="M10,115 L478,113 L727,21 L856,44 L930,47 L1049,0 L1097,295 L1078,396 L0,407 z" fill="#7A7A7A" fill-opacity="0.5" fill-rule="nonzero" stroke="black" stroke-width="4.7331223"/>
</g>
<g id="item_1">
<path d="M0,0 L316,2 L316,274 L0,275 z" fill="#7A7A7A" fill-opacity="0.5" fill-rule="nonzero" stroke="black" stroke-width="4.7331223"/>
</g>
<g id="item_2">
<path d="M0,1 L239,0 L242,80 L0,78 z" fill="#7A7A7A" fill-opacity="0.5" fill-rule="nonzero" stroke="black" stroke-width="4.7331223"/>
</g>
<g id="item_3">
<path d="M0,310 L0,119 L384,0 L384,70 L759,69 L758,310 z" fill="#7A7A7A" fill-opacity="0.5" fill-rule="nonzero" stroke="black" stroke-width="4.7331223"/>
</g>
<g id="item_4">
<path d="M0,252 L0,75 L150,0 L148,175 z" fill="#7A7A7A" fill-opacity="0.5" fill-rule="nonzero" stroke="black" stroke-width="4.7331223"/>
</g>
<g id="item_5">
<path d="M852,412 L503,414 L387,451 L355,505 L300,451 L45,325 L0,221 L0,154 L55,53 L145,16 L329,25 L407,35 L539,38 L597,51 L668,20 L736,0 L784,3 L849,194 z" fill="#7A7A7A" fill-opacity="0.5" fill-rule="nonzero" stroke="black" stroke-width="4.7331223"/>
</g>
<g id="item_6">
<path d="M0,232 L827,0 L894,20 L975,258 L1097,260 L1003,500 L884,463 L845,453 L761,490 L732,547 L694,544 L616,477 L539,414 L0,426 z" fill="#7A7A7A" fill-opacity="0.5" fill-rule="nonzero" stroke="black" stroke-width="4.7331223"/>
</g>
<g id="item_7">
<path d="M151,427 L97,266 L0,259 L75,28 L126,21 L191,61 L271,50 L316,64 L359,10 L436,6 L442,43 L694,75 L726,42 L1091,0 L1094,211 L1033,208 L987,346 L926,393 z" fill="#7A7A7A" fill-opacity="0.5" fill-rule="nonzero" stroke="black" stroke-width="4.7331223"/>
</g>
<g id="item_8">
<path d="M0,0 L745,24 L619,196 L590,276 L522,260 L6,282 z" fill="#7A7A7A" fill-opacity="0.5" fill-rule="nonzero" stroke="black" stroke-width="4.7331223"/>
</g>
</defs>
<use transform="translate(330.08057 366.51016), rotate(0)" xlink:href="#item_6">
<title>item, id: 6, transf: [r: 0.000°, t: (330.081, 366.510)]</title>
</use>
<use transform="translate(1340.5289 547.0426), rotate(-180)" xlink:href="#item_6">
<title>item, id: 6, transf: [r: -180.000°, t: (1340.529, 547.043)]</title>
</use>
<use transform="translate(1094.065 2549.973), rotate(-180)" xlink:href="#item_7">
<title>item, id: 7, transf: [r: -180.000°, t: (1094.065, 2549.973)]</title>
</use>
<use transform="translate(52.000793 1728.4291), rotate(0)" xlink:href="#item_7">
<title>item, id: 7, transf: [r: 0.000°, t: (52.001, 1728.429)]</title>
</use>
<use transform="translate(1314.1212 1097.142), rotate(-90)" xlink:href="#item_0">
<title>item, id: 0, transf: [r: -90.000°, t: (1314.121, 1097.142)]</title>
</use>
<use transform="translate(1031.1788 1974.9993), rotate(-90)" xlink:href="#item_0">
<title>item, id: 0, transf: [r: -90.000°, t: (1031.179, 1974.999)]</title>
</use>
<use transform="translate(1072.3337 1288.8922), rotate(-180)" xlink:href="#item_5">
<title>item, id: 5, transf: [r: -180.000°, t: (1072.334, 1288.892)]</title>
</use>
<use transform="translate(279.46048 1276.7777), rotate(0)" xlink:href="#item_5">
<title>item, id: 5, transf: [r: 0.000°, t: (279.460, 1276.778)]</title>
</use>
<use transform="translate(310.00613 117.56506), rotate(90)" xlink:href="#item_3">
<title>item, id: 3, transf: [r: 90.000°, t: (310.006, 117.565)]</title>
</use>
<use transform="translate(310.00488 990.633), rotate(90)" xlink:href="#item_3">
<title>item, id: 3, transf: [r: 90.000°, t: (310.005, 990.633)]</title>
</use>
<use transform="translate(1438.1575 1969.1008), rotate(-90)" xlink:href="#item_8">
<title>item, id: 8, transf: [r: -90.000°, t: (1438.157, 1969.101)]</title>
</use>
<use transform="translate(1721.1287 2245.2202), rotate(-180)" xlink:href="#item_8">
<title>item, id: 8, transf: [r: -180.000°, t: (1721.129, 2245.220)]</title>
</use>
<use transform="translate(1405.1261 2274.8682), rotate(0)" xlink:href="#item_1">
<title>item, id: 1, transf: [r: 0.000°, t: (1405.126, 2274.868)]</title>
</use>
<use transform="translate(1368.8873 2233.9978), rotate(90)" xlink:href="#item_1">
<title>item, id: 1, transf: [r: 90.000°, t: (1368.887, 2233.998)]</title>
</use>
<use transform="translate(1464.8944 1281.0052), rotate(-90)" xlink:href="#item_4">
<title>item, id: 4, transf: [r: -90.000°, t: (1464.894, 1281.005)]</title>
</use>
<use transform="translate(0.0026779175 1997.4253), rotate(0)" xlink:href="#item_4">
<title>item, id: 4, transf: [r: 0.000°, t: (0.003, 1997.425)]</title>
</use>
<use transform="translate(501.524 875.77203), rotate(-180)" xlink:href="#item_2">
<title>item, id: 2, transf: [r: -180.000°, t: (501.524, 875.772)]</title>
</use>
<use transform="translate(797.6776 13.984386), rotate(0)" xlink:href="#item_2">
<title>item, id: 2, transf: [r: 0.000°, t: (797.678, 13.984)]</title>
</use>
<use transform="translate(247.3347 110.294495), rotate(-180)" xlink:href="#item_2">
<title>item, id: 2, transf: [r: -180.000°, t: (247.335, 110.294)]</title>
</use>
<use transform="translate(1303.6436 90.37897), rotate(-180)" xlink:href="#item_2">
<title>item, id: 2, transf: [r: -180.000°, t: (1303.644, 90.379)]</title>
</use>
</g>
<g id="quality_zones"/>
<g id="optionals">
<g id="overlap_lines" transform="translate(0 0), rotate(0)"/>
</g>
<text font-family="monospace" font-size="43.02838" font-weight="500" x="0" y="-21.51419">
height: 2550.000 | width: 1721.135 | usage: 85.639% | final_bench_91
</text>
</svg>