<svg viewBox="-85.90655 -127.50003 1889.9436 2805" xmlns="http://www.w3.org/2000/svg" xmlns:xlink="http://www.w3.org/1999/xlink">
<g id="bin_0">
<path d="M0,0 L1718.1306,0 L1718.1306,2550 L0,2550 z" fill="#D3D3D3" stroke="black" stroke-width="9.449718"/>
<title>bin, id: 0, bbox: [x_min: 0.000, y_min: 0.000, x_max: 1718.131, y_max: 2550.000]</title>
</g>
<g id="items">
<defs>
<g id="item_0">
<path d="M10,115 L478,113 L727,21 L856,44 L930,47 L1049,0 L1097,295 L1078,396 L0,407 z" fill="#7A7A7A" fill-opacity="0.5" fill-rule="nonzero" stroke="black" stroke-width="4.724859"/>
</g>
<g id="item_1">
<path d="M0,0 L316,2 L316,274 L0,275 z" fill="#7A7A7A" fill-opacity="0.5" fill-rule="nonzero" stroke="black" stroke-width="4.724859"/>
</g>
<g id="item_2">
<path d="M0,1 L239,0 L242,80 L0,78 z" fill="#7A7A7A" fill-opacity="0.5" fill-rule="nonzero" stroke="black" stroke-width="4.724859"/>
</g>
<g id="item_3">
<path d="M0,310 L0,119 L384,0 L384,70 L759,69 L758,310 z" fill="#7A7A7A" fill-opacity="0.5" fill-rule="nonzero" stroke="black" stroke-width="4.724859"/>
</g>
<g id="item_4">
<path d="M0,252 L0,75 L150,0 L148,175 z" fill="#7A7A7A" fill-opacity="0.5" fill-rule="nonzero" stroke="black" stroke-width="4.724859"/>
</g>
<g id="item_5">
<path d="M852,412 L503,414 L387,451 L355,505 L300,451 L45,325 L0,221 L0,154 L55,53 L145,16 L329,25 L407,35 L539,38 L597,51 L668,20 L736,0 L784,3 L849,194 z" fill="#7A7A7A" fill-opacity="0.5" fill-rule="nonzero" stroke="black" stroke-width="4.724859"/>
</g>
<g id="item_6">
<path d="M0,232 L827,0 L894,20 L975,258 L1097,260 L1003,500 L884,463 L845,453 L761,490 L732,547 L694,544 L616,477 L539,414 L0,426 z" fill="#7A7A7A" fill-opacity="0.5" fill-rule="nonzero" stroke="black" stroke-width="4.724859"/>
</g>
<g id="item_7">
<path d="M151,427 L97,266 L0,259 L75,28 L126,21 L191,61 L271,50 L316,64 L359,10 L436,6 L442,43 L694,75 L726,42 L1091,0 L1094,211 L1033,208 L987,346 L926,393 z" fill="#7A7A7A" fill-opacity="0.5" fill-rule="nonzero" stroke="black" stroke-width="4.724859"/>
</g>
<g id="item_8">
<path d="M0,0 L745,24 L619,196 L590,276 L522,260 L6,282 z" fill="#7A7A7A" fill-opacity="0.5" fill-rule="nonzero" stroke="black" stroke-width="4.724859"/>
</g>
</defs>
<use transform="translate(1147.1848 1992.4), rotate(-180)" xlink:href="#item_6">
<title>item, id: 6, transf: [r: -180.000°, t: (1147.185, 1992.400)]</title>
</use>
<use transform="translate(346.13055 1753.3383), rotate(0)" xlink:href="#item_6">
<title>item, id: 6, transf: [r: 0.000°, t: (346.131, 1753.338)]</title>
</use>
<use transform="translate(0.008285522 1527.3517), rotate(-90)" xlink:href="#item_7">
<title>item, id: 7, transf: [r: -90.000°, t: (0.008, 1527.352)]</title>
</use>
<use transform="translate(818.40753 413.86188), rotate(90)" xlink:href="#item_7">
<title>item, id: 7, transf: [r: 90.000°, t: (818.408, 413.862)]</title>
</use>
<use transform="translate(1215.5908 473.96887), rotate(90)" xlink:href="#item_0">
<title>item, id: 0, transf: [r: 90.000°, t: (1215.591, 473.969)]</title>
</use>
<use transform="translate(1037.4913 1097.0232), rotate(-90)" xlink:href="#item_0">
<title>item, id: 0, transf: [r: -90.000°, t: (1037.491, 1097.023)]</title>
</use>
<use transform="translate(0.60202026 0.0016784668), rotate(0)" xlink:href="#item_5">
<title>item, id: 5, transf: [r: 0.000°, t: (0.602, 0.002)]</title>
</use>
<use transform="translate(1718.075 1074.2777), rotate(90)" xlink:href="#item_5">
<title>item, id: 5, transf: [r: 90.000°, t: (1718.075, 1074.278)]</title>
</use>
<use transform="translate(922.04913 2239.9995), rotate(0)" xlink:href="#item_3">
<title>item, id: 3, transf: [r: 0.000°, t: (922.049, 2240.000)]</title>
</use>
<use transform="translate(310.0141 1790.8447), rotate(90)" xlink:href="#item_3">
<title>item, id: 3, transf: [r: 90.000°, t: (310.014, 1790.845)]</title>
</use>
<use transform="translate(240.22247 2248.7512), rotate(0)" xlink:href="#item_8">
<title>item, id: 8, transf: [r: 0.000°, t: (240.222, 2248.751)]</title>
</use>
<use transform="translate(1718.101 0.0071105957), rotate(90)" xlink:href="#item_8">
<title>item, id: 8, transf: [r: 90.000°, t: (1718.101, 0.007)]</title>
</use>
<use transform="translate(1443.0797 2308.802), rotate(-90)" xlink:href="#item_1">
<title>item, id: 1, transf: [r: -90.000°, t: (1443.080, 2308.802)]</title>
</use>
<use transform="translate(1718.1295 745.36584), rotate(90)" xlink:href="#item_1">
<title>item, id: 1, transf: [r: 90.000°, t: (1718.130, 745.366)]</title>
</use>
<use transform="translate(795.4784 161.06721), rotate(-90)" xlink:href="#item_4">
<title>item, id: 4, transf: [r: -90.000°, t: (795.478, 161.067)]</title>
</use>
<use transform="translate(918.3666 150.82523), rotate(0)" xlink:href="#item_4">
<title>item, id: 4, transf: [r: 0.000°, t: (918.367, 150.825)]</title>
</use>
<use transform="translate(1194.2094 1336.9485), rotate(-90)" xlink:href="#item_2">
<title>item, id: 2, transf: [r: -90.000°, t: (1194.209, 1336.948)]</title>
</use>
<use transform="translate(666.68445 2184.202), rotate(0)" xlink:href="#item_2">
<title>item, id: 2, transf: [r: 0.000°, t: (666.684, 2184.202)]</title>
</use>
<use transform="translate(424.63052 2176.596), rotate(0)" xlink:href="#item_2">
<title>item, id: 2, transf: [r: 0.000°, t: (424.631, 2176.596)]</title>
</use>
<use transform="translate(1206.2902 1763.5343), rotate(-90)" xlink:href="#item_2">
<title>item, id: 2, transf: [r: -90.000°, t: (1206.290, 1763.534)]</title>
</use>
</g>
<g id="quality_zones"/>
<g id="optionals">
<g id="overlap_lines" transform="translate(0 0), rotate(0)"/>
</g>
<text font-family="monospace" font-size="42.953266" font-weight="500" x="0" y="-21.476633">
height: 2550.000 | width: 1718.131 | usage: 85.789% | final_bench_35
</text>
</svg>