<svg viewBox="-85.760284 -127.50003 1886.7258 2805" xmlns="http://www.w3.org/2000/svg" xmlns:xlink="http://www.w3.org/1999/xlink">
<g id="bin_0">
<path d="M0,0 L1715.2053,0 L1715.2053,2550 L0,2550 z" fill="#D3D3D3" stroke="black" stroke-width="9.43363"/>
<title>bin, id: 0, bbox: [x_min: 0.000, y_min: 0.000, x_max: 1715.205, y_max: 2550.000]</title>
</g>
<g id="items">
<defs>
<g id="item_0">
<path d="M10,115 L478,113 L727,21 L856,44 L930,47 L1049,0 L1097,295 L1078,396 L0,407 z" fill="#7A7A7A" fill-opacity="0.5" fill-rule="nonzero" stroke="black" stroke-width="4.716815"/>
</g>
<g id="item_1">
<path d="M0,0 L316,2 L316,274 L0,275 z" fill="#7A7A7A" fill-opacity="0.5" fill-rule="nonzero" stroke="black" stroke-width="4.716815"/>
</g>
<g id="item_2">
<path d="M0,1 L239,0 L242,80 L0,78 z" fill="#7A7A7A" fill-opacity="0.5" fill-rule="nonzero" stroke="black" stroke-width="4.716815"/>
</g>
<g id="item_3">
<path d="M0,310 L0,119 L384,0 L384,70 L759,69 L758,310 z" fill="#7A7A7A" fill-opacity="0.5" fill-rule="nonzero" stroke="black" stroke-width="4.716815"/>
</g>
<g id="item_4">
<path d="M0,252 L0,75 L150,0 L148,175 z" fill="#7A7A7A" fill-opacity="0.5" fill-rule="nonzero" stroke="black" stroke-width="4.716815"/>
</g>
<g id="item_5">
<path d="M852,412 L503,414 L387,451 L355,505 L300,451 L45,325 L0,221 L0,154 L55,53 L145,16 L329,25 L407,35 L539,38 L597,51 L668,20 L736,0 L784,3 L849,194 z" fill="#7A7A7A" fill-opacity="0.5" fill-rule="nonzero" stroke="black" stroke-width="4.716815"/>
</g>
<g id="item_6">
<path d="M0,232 L827,0 L894,20 L975,258 L1097,260 L1003,500 L884,463 L845,453 L761,490 L732,547 L694,544 L616,477 L539,414 L0,426 z" fill="#7A7A7A" fill-opacity="0.5" fill-rule="nonzero" stroke="black" stroke-width="4.716815"/>
</g>
<g id="item_7">
<path d="M151,427 L97,266 L0,259 L75,28 L126,21 L191,61 L271,50 L316,64 L359,10 L436,6 L442,43 L694,75 L726,42 L1091,0 L1094,211 L1033,208 L987,346 L926,393 z" fill="#7A7A7A" fill-opacity="0.5" fill-rule="nonzero" stroke="black" stroke-width="4.716815"/>
</g>
<g id="item_8">
<path d="M0,0 L745,24 L619,196 L590,276 L522,260 L6,282 z" fill="#7A7A7A" fill-opacity="0.5" fill-rule="nonzero" stroke="black" stroke-width="4.716815"/>
</g>
</defs>
<use transform="translate(1385.1172 768.8167), rotate(-180)" xlink:href="#item_6">
<title>item, id: 6, transf: [r: -180.000°, t: (1385.117, 768.817)]</title>
</use>
<use transform="translate(560.94604 536.0592), rotate(0)" xlink:href="#item_6">
<title>item, id: 6, transf: [r: 0.000°, t: (560.946, 536.059)]</title>
</use>
<use transform="translate(247.69493 2538.7168), rotate(-90)" xlink:href="#item_7">
<title>item, id: 7, transf: [r: -90.000°, t: (247.695, 2538.717)]</title>
</use>
<use transform="translate(1065.876 1420.1069), rotate(90)" xlink:href="#item_7">
<title>item, id: 7, transf: [r: 90.000°, t: (1065.876, 1420.107)]</title>
</use>
<use transform="translate(1462.7495 1451.6353), rotate(90)" xlink:href="#item_0">
<title>item, id: 0, transf: [r: 90.000°, t: (1462.750, 1451.635)]</title>
</use>
<use transform="translate(1308.1964 2126.6873), rotate(-90)" xlink:href="#item_0">
<title>item, id: 0, transf: [r: -90.000°, t: (1308.196, 2126.687)]</title>
</use>
<use transform="translate(1346.1526 1458.125), rotate(-180)" xlink:href="#item_5">
<title>item, id: 5, transf: [r: -180.000°, t: (1346.153, 1458.125)]</title>
</use>
<use transform="translate(505.00385 597.7339), rotate(90)" xlink:href="#item_5">
<title>item, id: 5, transf: [r: 90.000°, t: (505.004, 597.734)]</title>
</use>
<use transform="translate(310.00522 1494.3032), rotate(90)" xlink:href="#item_3">
<title>item, id: 3, transf: [r: 90.000°, t: (310.005, 1494.303)]</title>
</use>
<use transform="translate(1405.191 759.0143), rotate(-90)" xlink:href="#item_3">
<title>item, id: 3, transf: [r: -90.000°, t: (1405.191, 759.014)]</title>
</use>
<use transform="translate(15.083466 0.113342285), rotate(0)" xlink:href="#item_8">
<title>item, id: 8, transf: [r: 0.000°, t: (15.083, 0.113)]</title>
</use>
<use transform="translate(1474.9097 282.04117), rotate(-180)" xlink:href="#item_8">
<title>item, id: 8, transf: [r: -180.000°, t: (1474.910, 282.041)]</title>
</use>
<use transform="translate(1.0872803 600.6429), rotate(-90)" xlink:href="#item_1">
<title>item, id: 1, transf: [r: -90.000°, t: (1.087, 600.643)]</title>
</use>
<use transform="translate(1440.0923 2442.7341), rotate(-90)" xlink:href="#item_1">
<title>item, id: 1, transf: [r: -90.000°, t: (1440.092, 2442.734)]</title>
</use>
<use transform="translate(0.00019836426 2549.9993), rotate(-90)" xlink:href="#item_4">
<title>item, id: 4, transf: [r: -90.000°, t: (0.000, 2549.999)]</title>
</use>
<use transform="translate(274.4579 2253.1335), rotate(90)" xlink:href="#item_4">
<title>item, id: 4, transf: [r: 90.000°, t: (274.458, 2253.134)]</title>
</use>
<use transform="translate(1703.8055 2546.9285), rotate(-180)" xlink:href="#item_2">
<title>item, id: 2, transf: [r: -180.000°, t: (1703.806, 2546.928)]</title>
</use>
<use transform="translate(521.67346 964.5686), rotate(0)" xlink:href="#item_2">
<title>item, id: 2, transf: [r: 0.000°, t: (521.673, 964.569)]</title>
</use>
<use transform="translate(1080.3682 347.88406), rotate(-180)" xlink:href="#item_2">
<title>item, id: 2, transf: [r: -180.000°, t: (1080.368, 347.884)]</title>
</use>
<use transform="translate(1.4065018 1323.0541), rotate(-90)" xlink:href="#item_2">
<title>item, id: 2, transf: [r: -90.000°, t: (1.407, 1323.054)]</title>
</use>
</g>
<g id="quality_zones"/>
<g id="optionals">
<g id="overlap_lines" transform="translate(0 0), rotate(0)"/>
</g>
<text font-family="monospace" font-size="42.880135" font-weight="500" x="0" y="-21.440067">
height: 2550.000 | width: 1715.205 | usage: 85.935% | final_bench_27
</text>
</svg>