<svg viewBox="-85.69405 -127.50003 1885.2689 2805" xmlns="http://www.w3.org/2000/svg" xmlns:xlink="http://www.w3.org/1999/xlink">
<g id="bin_0">
<path d="M0,0 L1713.8807,0 L1713.8807,2550 L0,2550 z" fill="#D3D3D3" stroke="black" stroke-width="9.426345"/>
<title>bin, id: 0, bbox: [x_min: 0.000, y_min: 0.000, x_max: 1713.881, y_max: 2550.000]</title>
</g>
<g id="items">
<defs>
<g id="item_0">
<path d="M10,115 L478,113 L727,21 L856,44 L930,47 L1049,0 L1097,295 L1078,396 L0,407 z" fill="#7A7A7A" fill-opacity="0.5" fill-rule="nonzero" stroke="black" stroke-width="4.7131724"/>
</g>
<g id="item_1">
<path d="M0,0 L316,2 L316,274 L0,275 z" fill="#7A7A7A" fill-opacity="0.5" fill-rule="nonzero" stroke="black" stroke-width="4.7131724"/>
</g>
<g id="item_2">
<path d="M0,1 L239,0 L242,80 L0,78 z" fill="#7A7A7A" fill-opacity="0.5" fill-rule="nonzero" stroke="black" stroke-width="4.7131724"/>
</g>
<g id="item_3">
<path d="M0,310 L0,119 L384,0 L384,70 L759,69 L758,310 z" fill="#7A7A7A" fill-opacity="0.5" fill-rule="nonzero" stroke="black" stroke-width="4.7131724"/>
</g>
<g id="item_4">
<path d="M0,252 L0,75 L150,0 L148,175 z" fill="#7A7A7A" fill-opacity="0.5" fill-rule="nonzero" stroke="black" stroke-width="4.7131724"/>
</g>
<g id="item_5">
<path d="M852,412 L503,414 L387,451 L355,505 L300,451 L45,325 L0,221 L0,154 L55,53 L145,16 L329,25 L407,35 L539,38 L597,51 L668,20 L736,0 L784,3 L849,194 z" fill="#7A7A7A" fill-opacity="0.5" fill-rule="nonzero" stroke="black" stroke-width="4.7131724"/>
</g>
<g id="item_6">
<path d="M0,232 L827,0 L894,20 L975,258 L1097,260 L1003,500 L884,463 L845,453 L761,490 L732,547 L694,544 L616,477 L539,414 L0,426 z" fill="#7A7A7A" fill-opacity="0.5" fill-rule="nonzero" stroke="black" stroke-width="4.7131724"/>
</g>
<g id="item_7">
<path d="M151,427 L97,266 L0,259 L75,28 L126,21 L191,61 L271,50 L316,64 L359,10 L436,6 L442,43 L694,75 L726,42 L1091,0 L1094,211 L1033,208 L987,346 L926,393 z" fill="#7A7A7A" fill-opacity="0.5" fill-rule="nonzero" stroke="black" stroke-width="4.7131724"/>
</g>
<g id="item_8">
<path d="M0,0 L745,24 L619,196 L590,276 L522,260 L6,282 z" fill="#7A7A7A" fill-opacity="0.5" fill-rule="nonzero" stroke="black" stroke-width="4.7131724"/>
</g>
</defs>
<use transform="translate(603.12195 667.88403), rotate(0)" xlink:href="#item_6">
<title>item, id: 6, transf: [r: 0.000°, t: (603.122, 667.884)]</title>
</use>
<use transform="translate(1368.2982 917.2191), rotate(-180)" xlink:href="#item_6">
<title>item, id: 6, transf: [r: -180.000°, t: (1368.298, 917.219)]</title>
</use>
<use transform="translate(892.7613 2178.6277), rotate(-90)" xlink:href="#item_7">
<title>item, id: 7, transf: [r: -90.000°, t: (892.761, 2178.628)]</title>
</use>
<use transform="translate(1713.8771 1126.1443), rotate(90)" xlink:href="#item_7">
<title>item, id: 7, transf: [r: 90.000°, t: (1713.877, 1126.144)]</title>
</use>
<use transform="translate(342.56128 2142.9958), rotate(0)" xlink:href="#item_0">
<title>item, id: 0, transf: [r: 0.000°, t: (342.561, 2142.996)]</title>
</use>
<use transform="translate(1472.9882 407.00092), rotate(-180)" xlink:href="#item_0">
<title>item, id: 0, transf: [r: -180.000°, t: (1472.988, 407.001)]</title>
</use>
<use transform="translate(0.0037231445 2358.7402), rotate(-90)" xlink:href="#item_5">
<title>item, id: 5, transf: [r: -90.000°, t: (0.004, 2358.740)]</title>
</use>
<use transform="translate(921.6532 1405.3138), rotate(90)" xlink:href="#item_5">
<title>item, id: 5, transf: [r: 90.000°, t: (921.653, 1405.314)]</title>
</use>
<use transform="translate(1403.8774 762.3332), rotate(-90)" xlink:href="#item_3">
<title>item, id: 3, transf: [r: -90.000°, t: (1403.877, 762.333)]</title>
</use>
<use transform="translate(310.0962 0.28649902), rotate(90)" xlink:href="#item_3">
<title>item, id: 3, transf: [r: 90.000°, t: (310.096, 0.286)]</title>
</use>
<use transform="translate(282.00055 758.8489), rotate(90)" xlink:href="#item_8">
<title>item, id: 8, transf: [r: 90.000°, t: (282.001, 758.849)]</title>
</use>
<use transform="translate(257.84134 1508.8583), rotate(-90)" xlink:href="#item_8">
<title>item, id: 8, transf: [r: -90.000°, t: (257.841, 1508.858)]</title>
</use>
<use transform="translate(1438.8685 2548.2349), rotate(-90)" xlink:href="#item_1">
<title>item, id: 1, transf: [r: -90.000°, t: (1438.869, 2548.235)]</title>
</use>
<use transform="translate(872.3501 1373.5923), rotate(-180)" xlink:href="#item_1">
<title>item, id: 1, transf: [r: -180.000°, t: (872.350, 1373.592)]</title>
</use>
<use transform="translate(1033.948 474.167), rotate(-90)" xlink:href="#item_4">
<title>item, id: 4, transf: [r: -90.000°, t: (1033.948, 474.167)]</title>
</use>
<use transform="translate(866.4464 494.83124), rotate(-90)" xlink:href="#item_4">
<title>item, id: 4, transf: [r: -90.000°, t: (866.446, 494.831)]</title>
</use>
<use transform="translate(284.27994 262.17972), rotate(-90)" xlink:href="#item_2">
<title>item, id: 2, transf: [r: -90.000°, t: (284.280, 262.180)]</title>
</use>
<use transform="translate(100.952934 2392.6582), rotate(0)" xlink:href="#item_2">
<title>item, id: 2, transf: [r: 0.000°, t: (100.953, 2392.658)]</title>
</use>
<use transform="translate(242.12688 2549.901), rotate(-180)" xlink:href="#item_2">
<title>item, id: 2, transf: [r: -180.000°, t: (242.127, 2549.901)]</title>
</use>
<use transform="translate(1473.1443 373.9759), rotate(-180)" xlink:href="#item_2">
<title>item, id: 2, transf: [r: -180.000°, t: (1473.144, 373.976)]</title>
</use>
</g>
<g id="quality_zones"/>
<g id="optionals">
<g id="overlap_lines" transform="translate(0 0), rotate(0)"/>
</g>
<text font-family="monospace" font-size="42.84702" font-weight="500" x="0" y="-21.42351">
height: 2550.000 | width: 1713.881 | usage: 86.002% | final_bench_72
</text>
</svg>