<svg viewBox="-86.71537 -127.50003 1907.7377 2805" xmlns="http://www.w3.org/2000/svg" xmlns:xlink="http://www.w3.org/1999/xlink">
<g id="bin_0">
<path d="M0,0 L1734.307,0 L1734.307,2550 L0,2550 z" fill="#D3D3D3" stroke="black" stroke-width="9.538689"/>
<title>bin, id: 0, bbox: [x_min: 0.000, y_min: 0.000, x_max: 1734.307, y_max: 2550.000]</title>
</g>
<g id="items">
<defs>
<g id="item_0">
<path d="M10,115 L478,113 L727,21 L856,44 L930,47 L1049,0 L1097,295 L1078,396 L0,407 z" fill="#7A7A7A" fill-opacity="0.5" fill-rule="nonzero" stroke="black" stroke-width="4.7693443"/>
</g>
<g id="item_1">
<path d="M0,0 L316,2 L316,274 L0,275 z" fill="#7A7A7A" fill-opacity="0.5" fill-rule="nonzero" stroke="black" stroke-width="4.7693443"/>
</g>
<g id="item_2">
<path d="M0,1 L239,0 L242,80 L0,78 z" fill="#7A7A7A" fill-opacity="0.5" fill-rule="nonzero" stroke="black" stroke-width="4.7693443"/>
</g>
<g id="item_3">
<path d="M0,310 L0,119 L384,0 L384,70 L759,69 L758,310 z" fill="#7A7A7A" fill-opacity="0.5" fill-rule="nonzero" stroke="black" stroke-width="4.7693443"/>
</g>
<g id="item_4">
<path d="M0,252 L0,75 L150,0 L148,175 z" fill="#7A7A7A" fill-opacity="0.5" fill-rule="nonzero" stroke="black" stroke-width="4.7693443"/>
</g>
<g id="item_5">
<path d="M852,412 L503,414 L387,451 L355,505 L300,451 L45,325 L0,221 L0,154 L55,53 L145,16 L329,25 L407,35 L539,38 L597,51 L668,20 L736,0 L784,3 L849,194 z" fill="#7A7A7A" fill-opacity="0.5" fill-rule="nonzero" stroke="black" stroke-width="4.7693443"/>
</g>
<g id="item_6">
<path d="M0,232 L827,0 L894,20 L975,258 L1097,260 L1003,500 L884,463 L845,453 L761,490 L732,547 L694,544 L616,477 L539,414 L0,426 z" fill="#7A7A7A" fill-opacity="0.5" fill-rule="nonzero" stroke="black" stroke-width="4.7693443"/>
</g>
<g id="item_7">
<path d="M151,427 L97,266 L0,259 L75,28 L126,21 L191,61 L271,50 L316,64 L359,10 L436,6 L442,43 L694,75 L726,42 L1091,0 L1094,211 L1033,208 L987,346 L926,393 z" fill="#7A7A7A" fill-opacity="0.5" fill-rule="nonzero" stroke="black" stroke-width="4.7693443"/>
</g>
<g id="item_8">
<path d="M0,0 L745,24 L619,196 L590,276 L522,260 L6,282 z" fill="#7A7A7A" fill-opacity="0.5" fill-rule="nonzero" stroke="black" stroke-width="4.7693443"/>
</g>
</defs>
<use transform="translate(84.74179 1097.7671), rotate(-90)" xlink:href="#item_6">
<title>item, id: 6, transf: [r: -90.000°, t: (84.742, 1097.767)]</title>
</use>
<use transform="translate(510.61853 412.5173), rotate(0)" xlink:href="#item_6">
<title>item, id: 6, transf: [r: 0.000°, t: (510.619, 412.517)]</title>
</use>
<use transform="translate(1094.033 2161.3845), rotate(-180)" xlink:href="#item_7">
<title>item, id: 7, transf: [r: -180.000°, t: (1094.033, 2161.385)]</title>
</use>
<use transform="translate(28.304138 2122.9893), rotate(0)" xlink:href="#item_7">
<title>item, id: 7, transf: [r: 0.000°, t: (28.304, 2122.989)]</title>
</use>
<use transform="translate(1327.3013 2000.8734), rotate(-90)" xlink:href="#item_0">
<title>item, id: 0, transf: [r: -90.000°, t: (1327.301, 2000.873)]</title>
</use>
<use transform="translate(12.528564 1336.7626), rotate(0)" xlink:href="#item_0">
<title>item, id: 0, transf: [r: 0.000°, t: (12.529, 1336.763)]</title>
</use>
<use transform="translate(1364.2737 1338.2478), rotate(-180)" xlink:href="#item_5">
<title>item, id: 5, transf: [r: -180.000°, t: (1364.274, 1338.248)]</title>
</use>
<use transform="translate(566.3313 0.04321289), rotate(0)" xlink:href="#item_5">
<title>item, id: 5, transf: [r: 0.000°, t: (566.331, 0.043)]</title>
</use>
<use transform="translate(310.005 689.84845), rotate(90)" xlink:href="#item_3">
<title>item, id: 3, transf: [r: 90.000°, t: (310.005, 689.848)]</title>
</use>
<use transform="translate(1419.6606 1322.456), rotate(90)" xlink:href="#item_3">
<title>item, id: 3, transf: [r: 90.000°, t: (1419.661, 1322.456)]</title>
</use>
<use transform="translate(1734.2891 0.00079345703), rotate(90)" xlink:href="#item_8">
<title>item, id: 8, transf: [r: 90.000°, t: (1734.289, 0.001)]</title>
</use>
<use transform="translate(1734.3053 2549.9968), rotate(-180)" xlink:href="#item_8">
<title>item, id: 8, transf: [r: -180.000°, t: (1734.305, 2549.997)]</title>
</use>
<use transform="translate(240.99173 1440.0193), rotate(-90)" xlink:href="#item_1">
<title>item, id: 1, transf: [r: -90.000°, t: (240.992, 1440.019)]</title>
</use>
<use transform="translate(1350.6647 1996.5854), rotate(0)" xlink:href="#item_1">
<title>item, id: 1, transf: [r: 0.000°, t: (1350.665, 1996.585)]</title>
</use>
<use transform="translate(261.87146 0.22531891), rotate(90)" xlink:href="#item_4">
<title>item, id: 4, transf: [r: 90.000°, t: (261.871, 0.225)]</title>
</use>
<use transform="translate(1098.4224 2231.1213), rotate(-90)" xlink:href="#item_4">
<title>item, id: 4, transf: [r: -90.000°, t: (1098.422, 2231.121)]</title>
</use>
<use transform="translate(80.02089 133.8569), rotate(90)" xlink:href="#item_2">
<title>item, id: 2, transf: [r: 90.000°, t: (80.021, 133.857)]</title>
</use>
<use transform="translate(114.72685 374.5515), rotate(90)" xlink:href="#item_2">
<title>item, id: 2, transf: [r: 90.000°, t: (114.727, 374.552)]</title>
</use>
<use transform="translate(553.8232 841.03015), rotate(0)" xlink:href="#item_2">
<title>item, id: 2, transf: [r: 0.000°, t: (553.823, 841.030)]</title>
</use>
<use transform="translate(850.3735 541.6638), rotate(-180)" xlink:href="#item_2">
<title>item, id: 2, transf: [r: -180.000°, t: (850.373, 541.664)]</title>
</use>
</g>
<g id="quality_zones"/>
<g id="optionals">
<g id="overlap_lines" transform="translate(0 0), rotate(0)"/>
</g>
<text font-family="monospace" font-size="43.357677" font-weight="500" x="0" y="-21.678839">
height: 2550.000 | width: 1734.307 | usage: 84.989% | final_bench_95
</text>
</svg>