<svg viewBox="-85.75349 -127.50003 1886.5764 2805" xmlns="http://www.w3.org/2000/svg" xmlns:xlink="http://www.w3.org/1999/xlink">
<g id="bin_0">
<path d="M0,0 L1715.0693,0 L1715.0693,2550 L0,2550 z" fill="#D3D3D3" stroke="black" stroke-width="9.432882"/>
<title>bin, id: 0, bbox: [x_min: 0.000, y_min: 0.000, x_max: 1715.069, y_max: 2550.000]</title>
</g>
<g id="items">
<defs>
<g id="item_0">
<path d="M10,115 L478,113 L727,21 L856,44 L930,47 L1049,0 L1097,295 L1078,396 L0,407 z" fill="#7A7A7A" fill-opacity="0.5" fill-rule="nonzero" stroke="black" stroke-width="4.716441"/>
</g>
<g id="item_1">
<path d="M0,0 L316,2 L316,274 L0,275 z" fill="#7A7A7A" fill-opacity="0.5" fill-rule="nonzero" stroke="black" stroke-width="4.716441"/>
</g>
<g id="item_2">
<path d="M0,1 L239,0 L242,80 L0,78 z" fill="#7A7A7A" fill-opacity="0.5" fill-rule="nonzero" stroke="black" stroke-width="4.716441"/>
</g>
<g id="item_3">
<path d="M0,310 L0,119 L384,0 L384,70 L759,69 L758,310 z" fill="#7A7A7A" fill-opacity="0.5" fill-rule="nonzero" stroke="black" stroke-width="4.716441"/>
</g>
<g id="item_4">
<path d="M0,252 L0,75 L150,0 L148,175 z" fill="#7A7A7A" fill-opacity="0.5" fill-rule="nonzero" stroke="black" stroke-width="4.716441"/>
</g>
<g id="item_5">
<path d="M852,412 L503,414 L387,451 L355,505 L300,451 L45,325 L0,221 L0,154 L55,53 L145,16 L329,25 L407,35 L539,38 L597,51 L668,20 L736,0 L784,3 L849,194 z" fill="#7A7A7A" fill-opacity="0.5" fill-rule="nonzero" stroke="black" stroke-width="4.716441"/>
</g>
<g id="item_6">
<path d="M0,232 L827,0 L894,20 L975,258 L1097,260 L1003,500 L884,463 L845,453 L761,490 L732,547 L694,544 L616,477 L539,414 L0,426 z" fill="#7A7A7A" fill-opacity="0.5" fill-rule="nonzero" stroke="black" stroke-width="4.716441"/>
</g>
<g id="item_7">
<path d="M151,427 L97,266 L0,259 L75,28 L126,21 L191,61 L271,50 L316,64 L359,10 L436,6 L442,43 L694,75 L726,42 L1091,0 L1094,211 L1033,208 L987,346 L926,393 z" fill="#7A7A7A" fill-opacity="0.5" fill-rule="nonzero" stroke="black" stroke-width="4.716441"/>
</g>
<g id="item_8">
<path d="M0,0 L745,24 L619,196 L590,276 L522,260 L6,282 z" fill="#7A7A7A" fill-opacity="0.5" fill-rule="nonzero" stroke="black" stroke-width="4.716441"/>
</g>
</defs>
<use transform="translate(1097.2429 1554.3982), rotate(-180)" xlink:href="#item_6">
<title>item, id: 6, transf: [r: -180.000°, t: (1097.243, 1554.398)]</title>
</use>
<use transform="translate(204.55267 1340.8792), rotate(0)" xlink:href="#item_6">
<title>item, id: 6, transf: [r: 0.000°, t: (204.553, 1340.879)]</title>
</use>
<use transform="translate(280.90332 1821.9882), rotate(0)" xlink:href="#item_7">
<title>item, id: 7, transf: [r: 0.000°, t: (280.903, 1821.988)]</title>
</use>
<use transform="translate(0.0026245117 1098.2358), rotate(-90)" xlink:href="#item_7">
<title>item, id: 7, transf: [r: -90.000°, t: (0.003, 1098.236)]</title>
</use>
<use transform="translate(618.04944 2142.9995), rotate(0)" xlink:href="#item_0">
<title>item, id: 0, transf: [r: 0.000°, t: (618.049, 2143.000)]</title>
</use>
<use transform="translate(1480.2081 407.00787), rotate(-180)" xlink:href="#item_0">
<title>item, id: 0, transf: [r: -180.000°, t: (1480.208, 407.008)]</title>
</use>
<use transform="translate(972.78265 1144.3868), rotate(-90)" xlink:href="#item_5">
<title>item, id: 5, transf: [r: -90.000°, t: (972.783, 1144.387)]</title>
</use>
<use transform="translate(1715.0643 939.1393), rotate(90)" xlink:href="#item_5">
<title>item, id: 5, transf: [r: 90.000°, t: (1715.064, 939.139)]</title>
</use>
<use transform="translate(1405.0677 938.6647), rotate(-90)" xlink:href="#item_3">
<title>item, id: 3, transf: [r: -90.000°, t: (1405.068, 938.665)]</title>
</use>
<use transform="translate(310.00873 1790.9822), rotate(90)" xlink:href="#item_3">
<title>item, id: 3, transf: [r: 90.000°, t: (310.009, 1790.982)]</title>
</use>
<use transform="translate(736.3125 391.8858), rotate(90)" xlink:href="#item_8">
<title>item, id: 8, transf: [r: 90.000°, t: (736.312, 391.886)]</title>
</use>
<use transform="translate(712.3541 1136.4114), rotate(-90)" xlink:href="#item_8">
<title>item, id: 8, transf: [r: -90.000°, t: (712.354, 1136.411)]</title>
</use>
<use transform="translate(1387.3163 1868.7559), rotate(0)" xlink:href="#item_1">
<title>item, id: 1, transf: [r: 0.000°, t: (1387.316, 1868.756)]</title>
</use>
<use transform="translate(302.07727 2274.964), rotate(0)" xlink:href="#item_1">
<title>item, id: 1, transf: [r: 0.000°, t: (302.077, 2274.964)]</title>
</use>
<use transform="translate(150.08641 1640.0978), rotate(-180)" xlink:href="#item_4">
<title>item, id: 4, transf: [r: -180.000°, t: (150.086, 1640.098)]</title>
</use>
<use transform="translate(201.6514 1790.5815), rotate(-180)" xlink:href="#item_4">
<title>item, id: 4, transf: [r: -180.000°, t: (201.651, 1790.582)]</title>
</use>
<use transform="translate(1106.9508 1386.6216), rotate(-90)" xlink:href="#item_2">
<title>item, id: 2, transf: [r: -90.000°, t: (1106.951, 1386.622)]</title>
</use>
<use transform="translate(334.8309 1764.2225), rotate(0)" xlink:href="#item_2">
<title>item, id: 2, transf: [r: 0.000°, t: (334.831, 1764.223)]</title>
</use>
<use transform="translate(1188.2793 1599.0001), rotate(-90)" xlink:href="#item_2">
<title>item, id: 2, transf: [r: -90.000°, t: (1188.279, 1599.000)]</title>
</use>
<use transform="translate(1414.2646 1788.6532), rotate(0)" xlink:href="#item_2">
<title>item, id: 2, transf: [r: 0.000°, t: (1414.265, 1788.653)]</title>
</use>
</g>
<g id="quality_zones"/>
<g id="optionals">
<g id="overlap_lines" transform="translate(0 0), rotate(0)"/>
</g>
<text font-family="monospace" font-size="42.876736" font-weight="500" x="0" y="-21.438368">
height: 2550.000 | width: 1715.069 | usage: 85.942% | final_bench_34
</text>
</svg>