<svg viewBox="-86.736786 -127.50003 1908.2089 2805" xmlns="http://www.w3.org/2000/svg" xmlns:xlink="http://www.w3.org/1999/xlink">
<g id="bin_0">
<path d="M0,0 L1734.7352,0 L1734.7352,2550 L0,2550 z" fill="#D3D3D3" stroke="black" stroke-width="9.541045"/>
<title>bin, id: 0, bbox: [x_min: 0.000, y_min: 0.000, x_max: 1734.735, y_max: 2550.000]</title>
</g>
<g id="items">
<defs>
<g id="item_0">
<path d="M10,115 L478,113 L727,21 L856,44 L930,47 L1049,0 L1097,295 L1078,396 L0,407 z" fill="#7A7A7A" fill-opacity="0.5" fill-rule="nonzero" stroke="black" stroke-width="4.7705226"/>
</g>
<g id="item_1">
<path d="M0,0 L316,2 L316,274 L0,275 z" fill="#7A7A7A" fill-opacity="0.5" fill-rule="nonzero" stroke="black" stroke-width="4.7705226"/>
</g>
<g id="item_2">
<path d="M0,1 L239,0 L242,80 L0,78 z" fill="#7A7A7A" fill-opacity="0.5" fill-rule="nonzero" stroke="black" stroke-width="4.7705226"/>
</g>
<g id="item_3">
<path d="M0,310 L0,119 L384,0 L384,70 L759,69 L758,310 z" fill="#7A7A7A" fill-opacity="0.5" fill-rule="nonzero" stroke="black" stroke-width="4.7705226"/>
</g>
<g id="item_4">
<path d="M0,252 L0,75 L150,0 L148,175 z" fill="#7A7A7A" fill-opacity="0.5" fill-rule="nonzero" stroke="black" stroke-width="4.7705226"/>
</g>
<g id="item_5">
<path d="M852,412 L503,414 L387,451 L355,505 L300,451 L45,325 L0,221 L0,154 L55,53 L145,16 L329,25 L407,35 L539,38 L597,51 L668,20 L736,0 L784,3 L849,194 z" fill="#7A7A7A" fill-opacity="0.5" fill-rule="nonzero" stroke="black" stroke-width="4.7705226"/>
</g>
<g id="item_6">
<path d="M0,232 L827,0 L894,20 L975,258 L1097,260 L1003,500 L884,463 L845,453 L761,490 L732,547 L694,544 L616,477 L539,414 L0,426 z" fill="#7A7A7A" fill-opacity="0.5" fill-rule="nonzero" stroke="black" stroke-width="4.7705226"/>
</g>
<g id="item_7">
<path d="M151,427 L97,266 L0,259 L75,28 L126,21 L191,61 L271,50 L316,64 L359,10 L436,6 L442,43 L694,75 L726,42 L1091,0 L1094,211 L1033,208 L987,346 L926,393 z" fill="#7A7A7A" fill-opacity="0.5" fill-rule="nonzero" stroke="black" stroke-width="4.7705226"/>
</g>
<g id="item_8">
<path d="M0,0 L745,24 L619,196 L590,276 L522,260 L6,282 z" fill="#7A7A7A" fill-opacity="0.5" fill-rule="nonzero" stroke="black" stroke-width="4.7705226"/>
</g>
</defs>
<use transform="translate(343.8061 390.6393), rotate(0)" xlink:href="#item_6">
<title>item, id: 6, transf: [r: 0.000°, t: (343.806, 390.639)]</title>
</use>
<use transform="translate(1330.1487 2186.9526), rotate(-180)" xlink:href="#item_6">
<title>item, id: 6, transf: [r: -180.000°, t: (1330.149, 2186.953)]</title>
</use>
<use transform="translate(1734.7339 1099.0132), rotate(90)" xlink:href="#item_7">
<title>item, id: 7, transf: [r: 90.000°, t: (1734.734, 1099.013)]</title>
</use>
<use transform="translate(1609.6422 2549.7246), rotate(-180)" xlink:href="#item_7">
<title>item, id: 7, transf: [r: -180.000°, t: (1609.642, 2549.725)]</title>
</use>
<use transform="translate(412.4068 623.3071), rotate(90)" xlink:href="#item_0">
<title>item, id: 0, transf: [r: 90.000°, t: (412.407, 623.307)]</title>
</use>
<use transform="translate(1327.697 1097.1006), rotate(-90)" xlink:href="#item_0">
<title>item, id: 0, transf: [r: -90.000°, t: (1327.697, 1097.101)]</title>
</use>
<use transform="translate(1163.7971 1311.3555), rotate(-180)" xlink:href="#item_5">
<title>item, id: 5, transf: [r: -180.000°, t: (1163.797, 1311.355)]</title>
</use>
<use transform="translate(467.52933 1256.8578), rotate(0)" xlink:href="#item_5">
<title>item, id: 5, transf: [r: 0.000°, t: (467.529, 1256.858)]</title>
</use>
<use transform="translate(759.00354 613.86066), rotate(-180)" xlink:href="#item_3">
<title>item, id: 3, transf: [r: -180.000°, t: (759.004, 613.861)]</title>
</use>
<use transform="translate(310.00037 1790.9456), rotate(90)" xlink:href="#item_3">
<title>item, id: 3, transf: [r: 90.000°, t: (310.000, 1790.946)]</title>
</use>
<use transform="translate(0.0413208 0.08830261), rotate(0)" xlink:href="#item_8">
<title>item, id: 8, transf: [r: 0.000°, t: (0.041, 0.088)]</title>
</use>
<use transform="translate(1333.053 302.80603), rotate(-180)" xlink:href="#item_8">
<title>item, id: 8, transf: [r: -180.000°, t: (1333.053, 302.806)]</title>
</use>
<use transform="translate(241.14398 2549.996), rotate(-90)" xlink:href="#item_1">
<title>item, id: 1, transf: [r: -90.000°, t: (241.144, 2549.996)]</title>
</use>
<use transform="translate(1438.6469 890.77), rotate(90)" xlink:href="#item_1">
<title>item, id: 1, transf: [r: 90.000°, t: (1438.647, 890.770)]</title>
</use>
<use transform="translate(1734.6569 2549.9866), rotate(-180)" xlink:href="#item_4">
<title>item, id: 4, transf: [r: -180.000°, t: (1734.657, 2549.987)]</title>
</use>
<use transform="translate(751.0265 437.7018), rotate(-90)" xlink:href="#item_4">
<title>item, id: 4, transf: [r: -90.000°, t: (751.026, 437.702)]</title>
</use>
<use transform="translate(1022.5209 1681.418), rotate(0)" xlink:href="#item_2">
<title>item, id: 2, transf: [r: 0.000°, t: (1022.521, 1681.418)]</title>
</use>
<use transform="translate(1273.5173 382.7423), rotate(-180)" xlink:href="#item_2">
<title>item, id: 2, transf: [r: -180.000°, t: (1273.517, 382.742)]</title>
</use>
<use transform="translate(1218.2717 2134.2546), rotate(-180)" xlink:href="#item_2">
<title>item, id: 2, transf: [r: -180.000°, t: (1218.272, 2134.255)]</title>
</use>
<use transform="translate(371.1863 815.53894), rotate(0)" xlink:href="#item_2">
<title>item, id: 2, transf: [r: 0.000°, t: (371.186, 815.539)]</title>
</use>
</g>
<g id="quality_zones"/>
<g id="optionals">
<g id="overlap_lines" transform="translate(0 0), rotate(0)"/>
</g>
<text font-family="monospace" font-size="43.36838" font-weight="500" x="0" y="-21.68419">
height: 2550.000 | width: 1734.735 | usage: 84.968% | final_bench_58
</text>
</svg>