<svg viewBox="-85.69757 -127.50003 1885.3462 2805" xmlns="http://www.w3.org/2000/svg" xmlns:xlink="http://www.w3.org/1999/xlink">
<g id="bin_0">
<path d="M0,0 L1713.951,0 L1713.951,2550 L0,2550 z" fill="#D3D3D3" stroke="black" stroke-width="9.426731"/>
<title>bin, id: 0, bbox: [x_min: 0.000, y_min: 0.000, x_max: 1713.951, y_max: 2550.000]</title>
</g>
<g id="items">
<defs>
<g id="item_0">
<path d="M10,115 L478,113 L727,21 L856,44 L930,47 L1049,0 L1097,295 L1078,396 L0,407 z" fill="#7A7A7A" fill-opacity="0.5" fill-rule="nonzero" stroke="black" stroke-width="4.7133656"/>
</g>
<g id="item_1">
<path d="M0,0 L316,2 L316,274 L0,275 z" fill="#7A7A7A" fill-opacity="0.5" fill-rule="nonzero" stroke="black" stroke-width="4.7133656"/>
</g>
<g id="item_2">
<path d="M0,1 L239,0 L242,80 L0,78 z" fill="#7A7A7A" fill-opacity="0.5" fill-rule="nonzero" stroke="black" stroke-width="4.7133656"/>
</g>
<g id="item_3">
<path d="M0,310 L0,119 L384,0 L384,70 L759,69 L758,310 z" fill="#7A7A7A" fill-opacity="0.5" fill-rule="nonzero" stroke="black" stroke-width="4.7133656"/>
</g>
<g id="item_4">
<path d="M0,252 L0,75 L150,0 L148,175 z" fill="#7A7A7A" fill-opacity="0.5" fill-rule="nonzero" stroke="black" stroke-width="4.7133656"/>
</g>
<g id="item_5">
<path d="M852,412 L503,414 L387,451 L355,505 L300,451 L45,325 L0,221 L0,154 L55,53 L145,16 L329,25 L407,35 L539,38 L597,51 L668,20 L736,0 L784,3 L849,194 z" fill="#7A7A7A" fill-opacity="0.5" fill-rule="nonzero" stroke="black" stroke-width="4.7133656"/>
</g>
<g id="item_6">
<path d="M0,232 L827,0 L894,20 L975,258 L1097,260 L1003,500 L884,463 L845,453 L761,490 L732,547 L694,544 L616,477 L539,414 L0,426 z" fill="#7A7A7A" fill-opacity="0.5" fill-rule="nonzero" stroke="black" stroke-width="4.7133656"/>
</g>
<g id="item_7">
<path d="M151,427 L97,266 L0,259 L75,28 L126,21 L191,61 L271,50 L316,64 L359,10 L436,6 L442,43 L694,75 L726,42 L1091,0 L1094,211 L1033,208 L987,346 L926,393 z" fill="#7A7A7A" fill-opacity="0.5" fill-rule="nonzero" stroke="black" stroke-width="4.7133656"/>
</g>
<g id="item_8">
<path d="M0,0 L745,24 L619,196 L590,276 L522,260 L6,282 z" fill="#7A7A7A" fill-opacity="0.5" fill-rule="nonzero" stroke="black" stroke-width="4.7133656"/>
</g>
</defs>
<use transform="translate(346.31696 1632.8612), rotate(0)" xlink:href="#item_6">
<title>item, id: 6, transf: [r: 0.000°, t: (346.317, 1632.861)]</title>
</use>
<use transform="translate(1110.4143 1882.5071), rotate(-180)" xlink:href="#item_6">
<title>item, id: 6, transf: [r: -180.000°, t: (1110.414, 1882.507)]</title>
</use>
<use transform="translate(0.14608765 1427.6051), rotate(-90)" xlink:href="#item_7">
<title>item, id: 7, transf: [r: -90.000°, t: (0.146, 1427.605)]</title>
</use>
<use transform="translate(821.3158 371.68323), rotate(90)" xlink:href="#item_7">
<title>item, id: 7, transf: [r: 90.000°, t: (821.316, 371.683)]</title>
</use>
<use transform="translate(241.00232 2142.9956), rotate(0)" xlink:href="#item_0">
<title>item, id: 0, transf: [r: 0.000°, t: (241.002, 2142.996)]</title>
</use>
<use transform="translate(1371.31 407.0155), rotate(-180)" xlink:href="#item_0">
<title>item, id: 0, transf: [r: -180.000°, t: (1371.310, 407.016)]</title>
</use>
<use transform="translate(789.6825 1169.1721), rotate(-90)" xlink:href="#item_5">
<title>item, id: 5, transf: [r: -90.000°, t: (789.682, 1169.172)]</title>
</use>
<use transform="translate(1713.9336 191.13333), rotate(90)" xlink:href="#item_5">
<title>item, id: 5, transf: [r: 90.000°, t: (1713.934, 191.133)]</title>
</use>
<use transform="translate(310.00534 1787.8984), rotate(90)" xlink:href="#item_3">
<title>item, id: 3, transf: [r: 90.000°, t: (310.005, 1787.898)]</title>
</use>
<use transform="translate(1398.8018 2549.9968), rotate(-90)" xlink:href="#item_3">
<title>item, id: 3, transf: [r: -90.000°, t: (1398.802, 2549.997)]</title>
</use>
<use transform="translate(1431.95 1791.4846), rotate(-90)" xlink:href="#item_8">
<title>item, id: 8, transf: [r: -90.000°, t: (1431.950, 1791.485)]</title>
</use>
<use transform="translate(1456.1029 1041.0295), rotate(90)" xlink:href="#item_8">
<title>item, id: 8, transf: [r: 90.000°, t: (1456.103, 1041.030)]</title>
</use>
<use transform="translate(0.008468628 333.31445), rotate(-90)" xlink:href="#item_1">
<title>item, id: 1, transf: [r: -90.000°, t: (0.008, 333.314)]</title>
</use>
<use transform="translate(860.49084 1178.266), rotate(0)" xlink:href="#item_1">
<title>item, id: 1, transf: [r: 0.000°, t: (860.491, 1178.266)]</title>
</use>
<use transform="translate(430.61124 2212.0474), rotate(-90)" xlink:href="#item_4">
<title>item, id: 4, transf: [r: -90.000°, t: (430.611, 2212.047)]</title>
</use>
<use transform="translate(604.1061 2204.3494), rotate(-90)" xlink:href="#item_4">
<title>item, id: 4, transf: [r: -90.000°, t: (604.106, 2204.349)]</title>
</use>
<use transform="translate(482.00793 2252.4275), rotate(-180)" xlink:href="#item_2">
<title>item, id: 2, transf: [r: -180.000°, t: (482.008, 2252.427)]</title>
</use>
<use transform="translate(1454.2762 1.6213608), rotate(0)" xlink:href="#item_2">
<title>item, id: 2, transf: [r: 0.000°, t: (1454.276, 1.621)]</title>
</use>
<use transform="translate(1617.7404 164.72832), rotate(-180)" xlink:href="#item_2">
<title>item, id: 2, transf: [r: -180.000°, t: (1617.740, 164.728)]</title>
</use>
<use transform="translate(1443.291 2307.3726), rotate(90)" xlink:href="#item_2">
<title>item, id: 2, transf: [r: 90.000°, t: (1443.291, 2307.373)]</title>
</use>
</g>
<g id="quality_zones"/>
<g id="optionals">
<g id="overlap_lines" transform="translate(0 0), rotate(0)"/>
</g>
<text font-family="monospace" font-size="42.848778" font-weight="500" x="0" y="-21.424389">
height: 2550.000 | width: 1713.951 | usage: 85.998% | final_bench_92
</text>
</svg>