<svg viewBox="-84.84176 -127.50003 1866.5184 2805" xmlns="http://www.w3.org/2000/svg" xmlns:xlink="http://www.w3.org/1999/xlink">
<g id="bin_0">
<path d="M0,0 L1696.8348,0 L1696.8348,2550 L0,2550 z" fill="#D3D3D3" stroke="black" stroke-width="9.332592"/>
<title>bin, id: 0, bbox: [x_min: 0.000, y_min: 0.000, x_max: 1696.835, y_max: 2550.000]</title>
</g>
<g id="items">
<defs>
<g id="item_0">
<path d="M10,115 L478,113 L727,21 L856,44 L930,47 L1049,0 L1097,295 L1078,396 L0,407 z" fill="#7A7A7A" fill-opacity="0.5" fill-rule="nonzero" stroke="black" stroke-width="4.666296"/>
</g>
<g id="item_1">
<path d="M0,0 L316,2 L316,274 L0,275 z" fill="#7A7A7A" fill-opacity="0.5" fill-rule="nonzero" stroke="black" stroke-width="4.666296"/>
</g>
<g id="item_2">
<path d="M0,1 L239,0 L242,80 L0,78 z" fill="#7A7A7A" fill-opacity="0.5" fill-rule="nonzero" stroke="black" stroke-width="4.666296"/>
</g>
<g id="item_3">
<path d="M0,310 L0,119 L384,0 L384,70 L759,69 L758,310 z" fill="#7A7A7A" fill-opacity="0.5" fill-rule="nonzero" stroke="black" stroke-width="4.666296"/>
</g>
<g id="item_4">
<path d="M0,252 L0,75 L150,0 L148,175 z" fill="#7A7A7A" fill-opacity="0.5" fill-rule="nonzero" stroke="black" stroke-width="4.666296"/>
</g>
<g id="item_5">
<path d="M852,412 L503,414 L387,451 L355,505 L300,451 L45,325 L0,221 L0,154 L55,53 L145,16 L329,25 L407,35 L539,38 L597,51 L668,20 L736,0 L784,3 L849,194 z" fill="#7A7A7A" fill-opacity="0.5" fill-rule="nonzero" stroke="black" stroke-width="4.666296"/>
</g>
<g id="item_6">
<path d="M0,232 L827,0 L894,20 L975,258 L1097,260 L1003,500 L884,463 L845,453 L761,490 L732,547 L694,544 L616,477 L539,414 L0,426 z" fill="#7A7A7A" fill-opacity="0.5" fill-rule="nonzero" stroke="black" stroke-width="4.666296"/>
</g>
<g id="item_7">
<path d="M151,427 L97,266 L0,259 L75,28 L126,21 L191,61 L271,50 L316,64 L359,10 L436,6 L442,43 L694,75 L726,42 L1091,0 L1094,211 L1033,208 L987,346 L926,393 z" fill="#7A7A7A" fill-opacity="0.5" fill-rule="nonzero" stroke="black" stroke-width="4.666296"/>
</g>
<g id="item_8">
<path d="M0,0 L745,24 L619,196 L590,276 L522,260 L6,282 z" fill="#7A7A7A" fill-opacity="0.5" fill-rule="nonzero" stroke="black" stroke-width="4.666296"/>
</g>
</defs>
<use transform="translate(1390.0073 1224.5825), rotate(-180)" xlink:href="#item_6">
<title>item, id: 6, transf: [r: -180.000°, t: (1390.007, 1224.583)]</title>
</use>
<use transform="translate(557.80054 994.0436), rotate(0)" xlink:href="#item_6">
<title>item, id: 6, transf: [r: 0.000°, t: (557.801, 994.044)]</title>
</use>
<use transform="translate(876.4368 2544.8098), rotate(-90)" xlink:href="#item_7">
<title>item, id: 7, transf: [r: -90.000°, t: (876.437, 2544.810)]</title>
</use>
<use transform="translate(1696.3154 1455.9714), rotate(90)" xlink:href="#item_7">
<title>item, id: 7, transf: [r: 90.000°, t: (1696.315, 1455.971)]</title>
</use>
<use transform="translate(478.943 2548.1206), rotate(-90)" xlink:href="#item_0">
<title>item, id: 0, transf: [r: -90.000°, t: (478.943, 2548.121)]</title>
</use>
<use transform="translate(407.00995 721.6244), rotate(90)" xlink:href="#item_0">
<title>item, id: 0, transf: [r: 90.000°, t: (407.010, 721.624)]</title>
</use>
<use transform="translate(833.1072 0.0002746582), rotate(0)" xlink:href="#item_5">
<title>item, id: 5, transf: [r: 0.000°, t: (833.107, 0.000)]</title>
</use>
<use transform="translate(4.792328 264.44177), rotate(0)" xlink:href="#item_5">
<title>item, id: 5, transf: [r: 0.000°, t: (4.792, 264.442)]</title>
</use>
<use transform="translate(592.178 1790.9573), rotate(90)" xlink:href="#item_3">
<title>item, id: 3, transf: [r: 90.000°, t: (592.178, 1790.957)]</title>
</use>
<use transform="translate(1386.8325 1172.3154), rotate(-90)" xlink:href="#item_3">
<title>item, id: 3, transf: [r: -90.000°, t: (1386.833, 1172.315)]</title>
</use>
<use transform="translate(0.0032043457 0.11708069), rotate(0)" xlink:href="#item_8">
<title>item, id: 8, transf: [r: 0.000°, t: (0.003, 0.117)]</title>
</use>
<use transform="translate(0.0393219 2549.851), rotate(-90)" xlink:href="#item_8">
<title>item, id: 8, transf: [r: -90.000°, t: (0.039, 2549.851)]</title>
</use>
<use transform="translate(1139.112 486.71426), rotate(90)" xlink:href="#item_1">
<title>item, id: 1, transf: [r: 90.000°, t: (1139.112, 486.714)]</title>
</use>
<use transform="translate(1456.0531 779.25696), rotate(-180)" xlink:href="#item_1">
<title>item, id: 1, transf: [r: -180.000°, t: (1456.053, 779.257)]</title>
</use>
<use transform="translate(551.99554 1520.0486), rotate(-180)" xlink:href="#item_4">
<title>item, id: 4, transf: [r: -180.000°, t: (551.996, 1520.049)]</title>
</use>
<use transform="translate(832.9353 281.2042), rotate(-180)" xlink:href="#item_4">
<title>item, id: 4, transf: [r: -180.000°, t: (832.935, 281.204)]</title>
</use>
<use transform="translate(1149.9036 2469.8916), rotate(0)" xlink:href="#item_2">
<title>item, id: 2, transf: [r: 0.000°, t: (1149.904, 2469.892)]</title>
</use>
<use transform="translate(297.30612 1208.3469), rotate(-90)" xlink:href="#item_2">
<title>item, id: 2, transf: [r: -90.000°, t: (297.306, 1208.347)]</title>
</use>
<use transform="translate(454.45285 1079.6847), rotate(90)" xlink:href="#item_2">
<title>item, id: 2, transf: [r: 90.000°, t: (454.453, 1079.685)]</title>
</use>
<use transform="translate(486.95673 1516.9443), rotate(90)" xlink:href="#item_2">
<title>item, id: 2, transf: [r: 90.000°, t: (486.957, 1516.944)]</title>
</use>
</g>
<g id="quality_zones"/>
<g id="optionals">
<g id="overlap_lines" transform="translate(0 0), rotate(0)"/>
</g>
<text font-family="monospace" font-size="42.42087" font-weight="500" x="0" y="-21.210436">
height: 2550.000 | width: 1696.835 | usage: 86.866% | final_bench_11
</text>
</svg>