<svg viewBox="-84.970085 -127.50003 1869.3416 2805" xmlns="http://www.w3.org/2000/svg" xmlns:xlink="http://www.w3.org/1999/xlink">
<g id="bin_0">
<path d="M0,0 L1699.4014,0 L1699.4014,2550 L0,2550 z" fill="#D3D3D3" stroke="black" stroke-width="9.346708"/>
<title>bin, id: 0, bbox: [x_min: 0.000, y_min: 0.000, x_max: 1699.401, y_max: 2550.000]</title>
</g>
<g id="items">
<defs>
<g id="item_0">
<path d="M10,115 L478,113 L727,21 L856,44 L930,47 L1049,0 L1097,295 L1078,396 L0,407 z" fill="#7A7A7A" fill-opacity="0.5" fill-rule="nonzero" stroke="black" stroke-width="4.673354"/>
</g>
<g id="item_1">
<path d="M0,0 L316,2 L316,274 L0,275 z" fill="#7A7A7A" fill-opacity="0.5" fill-rule="nonzero" stroke="black" stroke-width="4.673354"/>
</g>
<g id="item_2">
<path d="M0,1 L239,0 L242,80 L0,78 z" fill="#7A7A7A" fill-opacity="0.5" fill-rule="nonzero" stroke="black" stroke-width="4.673354"/>
</g>
<g id="item_3">
<path d="M0,310 L0,119 L384,0 L384,70 L759,69 L758,310 z" fill="#7A7A7A" fill-opacity="0.5" fill-rule="nonzero" stroke="black" stroke-width="4.673354"/>
</g>
<g id="item_4">
<path d="M0,252 L0,75 L150,0 L148,175 z" fill="#7A7A7A" fill-opacity="0.5" fill-rule="nonzero" stroke="black" stroke-width="4.673354"/>
</g>
<g id="item_5">
<path d="M852,412 L503,414 L387,451 L355,505 L300,451 L45,325 L0,221 L0,154 L55,53 L145,16 L329,25 L407,35 L539,38 L597,51 L668,20 L736,0 L784,3 L849,194 z" fill="#7A7A7A" fill-opacity="0.5" fill-rule="nonzero" stroke="black" stroke-width="4.673354"/>
</g>
<g id="item_6">
<path d="M0,232 L827,0 L894,20 L975,258 L1097,260 L1003,500 L884,463 L845,453 L761,490 L732,547 L694,544 L616,477 L539,414 L0,426 z" fill="#7A7A7A" fill-opacity="0.5" fill-rule="nonzero" stroke="black" stroke-width="4.673354"/>
</g>
<g id="item_7">
<path d="M151,427 L97,266 L0,259 L75,28 L126,21 L191,61 L271,50 L316,64 L359,10 L436,6 L442,43 L694,75 L726,42 L1091,0 L1094,211 L1033,208 L987,346 L926,393 z" fill="#7A7A7A" fill-opacity="0.5" fill-rule="nonzero" stroke="black" stroke-width="4.673354"/>
</g>
<g id="item_8">
<path d="M0,0 L745,24 L619,196 L590,276 L522,260 L6,282 z" fill="#7A7A7A" fill-opacity="0.5" fill-rule="nonzero" stroke="black" stroke-width="4.673354"/>
</g>
</defs>
<use transform="translate(358.98688 1507.4014), rotate(0)" xlink:href="#item_6">
<title>item, id: 6, transf: [r: 0.000°, t: (358.987, 1507.401)]</title>
</use>
<use transform="translate(1156.948 1747.5349), rotate(-180)" xlink:href="#item_6">
<title>item, id: 6, transf: [r: -180.000°, t: (1156.948, 1747.535)]</title>
</use>
<use transform="translate(1699.4009 745.22784), rotate(90)" xlink:href="#item_7">
<title>item, id: 7, transf: [r: 90.000°, t: (1699.401, 745.228)]</title>
</use>
<use transform="translate(1456.2131 427.03223), rotate(-180)" xlink:href="#item_7">
<title>item, id: 7, transf: [r: -180.000°, t: (1456.213, 427.032)]</title>
</use>
<use transform="translate(323.8499 2142.9988), rotate(0)" xlink:href="#item_0">
<title>item, id: 0, transf: [r: 0.000°, t: (323.850, 2142.999)]</title>
</use>
<use transform="translate(407.01904 157.33807), rotate(90)" xlink:href="#item_0">
<title>item, id: 0, transf: [r: 90.000°, t: (407.019, 157.338)]</title>
</use>
<use transform="translate(1160.9254 862.7071), rotate(-180)" xlink:href="#item_5">
<title>item, id: 5, transf: [r: -180.000°, t: (1160.925, 862.707)]</title>
</use>
<use transform="translate(370.39346 818.62335), rotate(0)" xlink:href="#item_5">
<title>item, id: 5, transf: [r: 0.000°, t: (370.393, 818.623)]</title>
</use>
<use transform="translate(310.00513 1516.3887), rotate(90)" xlink:href="#item_3">
<title>item, id: 3, transf: [r: 90.000°, t: (310.005, 1516.389)]</title>
</use>
<use transform="translate(1389.3933 759.0122), rotate(-90)" xlink:href="#item_3">
<title>item, id: 3, transf: [r: -90.000°, t: (1389.393, 759.012)]</title>
</use>
<use transform="translate(1417.3933 2549.8198), rotate(-90)" xlink:href="#item_8">
<title>item, id: 8, transf: [r: -90.000°, t: (1417.393, 2549.820)]</title>
</use>
<use transform="translate(240.21173 1969.3213), rotate(0)" xlink:href="#item_8">
<title>item, id: 8, transf: [r: 0.000°, t: (240.212, 1969.321)]</title>
</use>
<use transform="translate(1435.5562 524.06616), rotate(90)" xlink:href="#item_1">
<title>item, id: 1, transf: [r: 90.000°, t: (1435.556, 524.066)]</title>
</use>
<use transform="translate(0.28878784 2274.9792), rotate(0)" xlink:href="#item_1">
<title>item, id: 1, transf: [r: 0.000°, t: (0.289, 2274.979)]</title>
</use>
<use transform="translate(183.74255 164.29897), rotate(-90)" xlink:href="#item_4">
<title>item, id: 4, transf: [r: -90.000°, t: (183.743, 164.299)]</title>
</use>
<use transform="translate(2.135849 158.433), rotate(-90)" xlink:href="#item_4">
<title>item, id: 4, transf: [r: -90.000°, t: (2.136, 158.433)]</title>
</use>
<use transform="translate(868.1238 1239.6782), rotate(0)" xlink:href="#item_2">
<title>item, id: 2, transf: [r: 0.000°, t: (868.124, 1239.678)]</title>
</use>
<use transform="translate(1287.7695 1263.8281), rotate(90)" xlink:href="#item_2">
<title>item, id: 2, transf: [r: 90.000°, t: (1287.770, 1263.828)]</title>
</use>
<use transform="translate(1088.0302 430.2078), rotate(0)" xlink:href="#item_2">
<title>item, id: 2, transf: [r: 0.000°, t: (1088.030, 430.208)]</title>
</use>
<use transform="translate(1420.4026 2102.015), rotate(-180)" xlink:href="#item_2">
<title>item, id: 2, transf: [r: -180.000°, t: (1420.403, 2102.015)]</title>
</use>
</g>
<g id="quality_zones"/>
<g id="optionals">
<g id="overlap_lines" transform="translate(0 0), rotate(0)"/>
</g>
<text font-family="monospace" font-size="42.485035" font-weight="500" x="0" y="-21.242517">
height: 2550.000 | width: 1699.401 | usage: 86.735% | final_bench_42
</text>
</svg>