<svg viewBox="-85.689606 -127.50003 1885.1709 2805" xmlns="http://www.w3.org/2000/svg" xmlns:xlink="http://www.w3.org/1999/xlink">
<g id="bin_0">
<path d="M0,0 L1713.7917,0 L1713.7917,2550 L0,2550 z" fill="#D3D3D3" stroke="black" stroke-width="9.425855"/>
<title>bin, id: 0, bbox: [x_min: 0.000, y_min: 0.000, x_max: 1713.792, y_max: 2550.000]</title>
</g>
<g id="items">
<defs>
<g id="item_0">
<path d="M10,115 L478,113 L727,21 L856,44 L930,47 L1049,0 L1097,295 L1078,396 L0,407 z" fill="#7A7A7A" fill-opacity="0.5" fill-rule="nonzero" stroke="black" stroke-width="4.7129273"/>
</g>
<g id="item_1">
<path d="M0,0 L316,2 L316,274 L0,275 z" fill="#7A7A7A" fill-opacity="0.5" fill-rule="nonzero" stroke="black" stroke-width="4.7129273"/>
</g>
<g id="item_2">
<path d="M0,1 L239,0 L242,80 L0,78 z" fill="#7A7A7A" fill-opacity="0.5" fill-rule="nonzero" stroke="black" stroke-width="4.7129273"/>
</g>
<g id="item_3">
<path d="M0,310 L0,119 L384,0 L384,70 L759,69 L758,310 z" fill="#7A7A7A" fill-opacity="0.5" fill-rule="nonzero" stroke="black" stroke-width="4.7129273"/>
</g>
<g id="item_4">
<path d="M0,252 L0,75 L150,0 L148,175 z" fill="#7A7A7A" fill-opacity="0.5" fill-rule="nonzero" stroke="black" stroke-width="4.7129273"/>
</g>
<g id="item_5">
<path d="M852,412 L503,414 L387,451 L355,505 L300,451 L45,325 L0,221 L0,154 L55,53 L145,16 L329,25 L407,35 L539,38 L597,51 L668,20 L736,0 L784,3 L849,194 z" fill="#7A7A7A" fill-opacity="0.5" fill-rule="nonzero" stroke="black" stroke-width="4.7129273"/>
</g>
<g id="item_6">
<path d="M0,232 L827,0 L894,20 L975,258 L1097,260 L1003,500 L884,463 L845,453 L761,490 L732,547 L694,544 L616,477 L539,414 L0,426 z" fill="#7A7A7A" fill-opacity="0.5" fill-rule="nonzero" stroke="black" stroke-width="4.7129273"/>
</g>
<g id="item_7">
<path d="M151,427 L97,266 L0,259 L75,28 L126,21 L191,61 L271,50 L316,64 L359,10 L436,6 L442,43 L694,75 L726,42 L1091,0 L1094,211 L1033,208 L987,346 L926,393 z" fill="#7A7A7A" fill-opacity="0.5" fill-rule="nonzero" stroke="black" stroke-width="4.7129273"/>
</g>
<g id="item_8">
<path d="M0,0 L745,24 L619,196 L590,276 L522,260 L6,282 z" fill="#7A7A7A" fill-opacity="0.5" fill-rule="nonzero" stroke="black" stroke-width="4.7129273"/>
</g>
</defs>
<use transform="translate(1079.5145 1091.6951), rotate(90)" xlink:href="#item_6">
<title>item, id: 6, transf: [r: 90.000°, t: (1079.515, 1091.695)]</title>
</use>
<use transform="translate(869.9875 1996.5342), rotate(-90)" xlink:href="#item_6">
<title>item, id: 6, transf: [r: -90.000°, t: (869.987, 1996.534)]</title>
</use>
<use transform="translate(1713.788 0.024291992), rotate(90)" xlink:href="#item_7">
<title>item, id: 7, transf: [r: 90.000°, t: (1713.788, 0.024)]</title>
</use>
<use transform="translate(1713.7911 1410.0767), rotate(90)" xlink:href="#item_7">
<title>item, id: 7, transf: [r: 90.000°, t: (1713.791, 1410.077)]</title>
</use>
<use transform="translate(240.37146 2142.998), rotate(0)" xlink:href="#item_0">
<title>item, id: 0, transf: [r: 0.000°, t: (240.371, 2142.998)]</title>
</use>
<use transform="translate(407.00085 0.1385498), rotate(90)" xlink:href="#item_0">
<title>item, id: 0, transf: [r: 90.000°, t: (407.001, 0.139)]</title>
</use>
<use transform="translate(1304.943 56.74579), rotate(90)" xlink:href="#item_5">
<title>item, id: 5, transf: [r: 90.000°, t: (1304.943, 56.746)]</title>
</use>
<use transform="translate(361.8952 1120.3483), rotate(-90)" xlink:href="#item_5">
<title>item, id: 5, transf: [r: -90.000°, t: (361.895, 1120.348)]</title>
</use>
<use transform="translate(310.00104 1772.6062), rotate(90)" xlink:href="#item_3">
<title>item, id: 3, transf: [r: 90.000°, t: (310.001, 1772.606)]</title>
</use>
<use transform="translate(222.47897 2255.9163), rotate(-90)" xlink:href="#item_3">
<title>item, id: 3, transf: [r: -90.000°, t: (222.479, 2255.916)]</title>
</use>
<use transform="translate(304.47192 1093.0944), rotate(90)" xlink:href="#item_8">
<title>item, id: 8, transf: [r: 90.000°, t: (304.472, 1093.094)]</title>
</use>
<use transform="translate(291.8485 0.0012054443), rotate(0)" xlink:href="#item_8">
<title>item, id: 8, transf: [r: 0.000°, t: (291.849, 0.001)]</title>
</use>
<use transform="translate(633.4619 1418.596), rotate(-180)" xlink:href="#item_1">
<title>item, id: 1, transf: [r: -180.000°, t: (633.462, 1418.596)]</title>
</use>
<use transform="translate(1438.6445 1410.0403), rotate(-90)" xlink:href="#item_1">
<title>item, id: 1, transf: [r: -90.000°, t: (1438.645, 1410.040)]</title>
</use>
<use transform="translate(1279.157 1996.986), rotate(90)" xlink:href="#item_4">
<title>item, id: 4, transf: [r: 90.000°, t: (1279.157, 1996.986)]</title>
</use>
<use transform="translate(770.2178 1057.4634), rotate(-90)" xlink:href="#item_4">
<title>item, id: 4, transf: [r: -90.000°, t: (770.218, 1057.463)]</title>
</use>
<use transform="translate(1206.075 5.890873), rotate(0)" xlink:href="#item_2">
<title>item, id: 2, transf: [r: 0.000°, t: (1206.075, 5.891)]</title>
</use>
<use transform="translate(1064.3599 2164.5662), rotate(-180)" xlink:href="#item_2">
<title>item, id: 2, transf: [r: -180.000°, t: (1064.360, 2164.566)]</title>
</use>
<use transform="translate(642.20264 1419.2032), rotate(90)" xlink:href="#item_2">
<title>item, id: 2, transf: [r: 90.000°, t: (642.203, 1419.203)]</title>
</use>
<use transform="translate(320.45853 1418.1509), rotate(0)" xlink:href="#item_2">
<title>item, id: 2, transf: [r: 0.000°, t: (320.459, 1418.151)]</title>
</use>
</g>
<g id="quality_zones"/>
<g id="optionals">
<g id="overlap_lines" transform="translate(0 0), rotate(0)"/>
</g>
<text font-family="monospace" font-size="42.844795" font-weight="500" x="0" y="-21.422398">
height: 2550.000 | width: 1713.792 | usage: 86.006% | final_bench_43
</text>
</svg>