<svg viewBox="-86.02731 -127.50003 1892.6006 2805" xmlns="http://www.w3.org/2000/svg" xmlns:xlink="http://www.w3.org/1999/xlink">
<g id="bin_0">
<path d="M0,0 L1720.5459,0 L1720.5459,2550 L0,2550 z" fill="#D3D3D3" stroke="black" stroke-width="9.463003"/>
<title>bin, id: 0, bbox: [x_min: 0.000, y_min: 0.000, x_max: 1720.546, y_max: 2550.000]</title>
</g>
<g id="items">
<defs>
<g id="item_0">
<path d="M10,115 L478,113 L727,21 L856,44 L930,47 L1049,0 L1097,295 L1078,396 L0,407 z" fill="#7A7A7A" fill-opacity="0.5" fill-rule="nonzero" stroke="black" stroke-width="4.7315016"/>
</g>
<g id="item_1">
<path d="M0,0 L316,2 L316,274 L0,275 z" fill="#7A7A7A" fill-opacity="0.5" fill-rule="nonzero" stroke="black" stroke-width="4.7315016"/>
</g>
<g id="item_2">
<path d="M0,1 L239,0 L242,80 L0,78 z" fill="#7A7A7A" fill-opacity="0.5" fill-rule="nonzero" stroke="black" stroke-width="4.7315016"/>
</g>
<g id="item_3">
<path d="M0,310 L0,119 L384,0 L384,70 L759,69 L758,310 z" fill="#7A7A7A" fill-opacity="0.5" fill-rule="nonzero" stroke="black" stroke-width="4.7315016"/>
</g>
<g id="item_4">
<path d="M0,252 L0,75 L150,0 L148,175 z" fill="#7A7A7A" fill-opacity="0.5" fill-rule="nonzero" stroke="black" stroke-width="4.7315016"/>
</g>
<g id="item_5">
<path d="M852,412 L503,414 L387,451 L355,505 L300,451 L45,325 L0,221 L0,154 L55,53 L145,16 L329,25 L407,35 L539,38 L597,51 L668,20 L736,0 L784,3 L849,194 z" fill="#7A7A7A" fill-opacity="0.5" fill-rule="nonzero" stroke="black" stroke-width="4.7315016"/>
</g>
<g id="item_6">
<path d="M0,232 L827,0 L894,20 L975,258 L1097,260 L1003,500 L884,463 L845,453 L761,490 L732,547 L694,544 L616,477 L539,414 L0,426 z" fill="#7A7A7A" fill-opacity="0.5" fill-rule="nonzero" stroke="black" stroke-width="4.7315016"/>
</g>
<g id="item_7">
<path d="M151,427 L97,266 L0,259 L75,28 L126,21 L191,61 L271,50 L316,64 L359,10 L436,6 L442,43 L694,75 L726,42 L1091,0 L1094,211 L1033,208 L987,346 L926,393 z" fill="#7A7A7A" fill-opacity="0.5" fill-rule="nonzero" stroke="black" stroke-width="4.7315016"/>
</g>
<g id="item_8">
<path d="M0,0 L745,24 L619,196 L590,276 L522,260 L6,282 z" fill="#7A7A7A" fill-opacity="0.5" fill-rule="nonzero" stroke="black" stroke-width="4.7315016"/>
</g>
</defs>
<use transform="translate(1173.5326 2452.4458), rotate(-90)" xlink:href="#item_6">
<title>item, id: 6, transf: [r: -90.000°, t: (1173.533, 2452.446)]</title>
</use>
<use transform="translate(793.081 269.7295), rotate(90)" xlink:href="#item_6">
<title>item, id: 6, transf: [r: 90.000°, t: (793.081, 269.729)]</title>
</use>
<use transform="translate(1013.6766 1483.8129), rotate(-90)" xlink:href="#item_7">
<title>item, id: 7, transf: [r: -90.000°, t: (1013.677, 1483.813)]</title>
</use>
<use transform="translate(1705.913 427.0042), rotate(-180)" xlink:href="#item_7">
<title>item, id: 7, transf: [r: -180.000°, t: (1705.913, 427.004)]</title>
</use>
<use transform="translate(407.0307 1040.1531), rotate(90)" xlink:href="#item_0">
<title>item, id: 0, transf: [r: 90.000°, t: (407.031, 1040.153)]</title>
</use>
<use transform="translate(269.71973 2142.992), rotate(0)" xlink:href="#item_0">
<title>item, id: 0, transf: [r: 0.000°, t: (269.720, 2142.992)]</title>
</use>
<use transform="translate(405.47543 1744.1116), rotate(0)" xlink:href="#item_5">
<title>item, id: 5, transf: [r: 0.000°, t: (405.475, 1744.112)]</title>
</use>
<use transform="translate(1173.4839 1780.2736), rotate(-180)" xlink:href="#item_5">
<title>item, id: 5, transf: [r: -180.000°, t: (1173.484, 1780.274)]</title>
</use>
<use transform="translate(705.67975 1168.561), rotate(-90)" xlink:href="#item_3">
<title>item, id: 3, transf: [r: -90.000°, t: (705.680, 1168.561)]</title>
</use>
<use transform="translate(314.98126 282.18878), rotate(90)" xlink:href="#item_3">
<title>item, id: 3, transf: [r: 90.000°, t: (314.981, 282.189)]</title>
</use>
<use transform="translate(1720.5402 721.287), rotate(90)" xlink:href="#item_8">
<title>item, id: 8, transf: [r: 90.000°, t: (1720.540, 721.287)]</title>
</use>
<use transform="translate(0.08795166 0.13076782), rotate(0)" xlink:href="#item_8">
<title>item, id: 8, transf: [r: 0.000°, t: (0.088, 0.131)]</title>
</use>
<use transform="translate(275.02966 2137.1653), rotate(90)" xlink:href="#item_1">
<title>item, id: 1, transf: [r: 90.000°, t: (275.030, 2137.165)]</title>
</use>
<use transform="translate(1688.5255 406.00662), rotate(90)" xlink:href="#item_1">
<title>item, id: 1, transf: [r: 90.000°, t: (1688.526, 406.007)]</title>
</use>
<use transform="translate(353.40018 2256.5112), rotate(-90)" xlink:href="#item_4">
<title>item, id: 4, transf: [r: -90.000°, t: (353.400, 2256.511)]</title>
</use>
<use transform="translate(806.8474 1318.4996), rotate(-90)" xlink:href="#item_4">
<title>item, id: 4, transf: [r: -90.000°, t: (806.847, 1318.500)]</title>
</use>
<use transform="translate(361.17548 278.2472), rotate(90)" xlink:href="#item_2">
<title>item, id: 2, transf: [r: 90.000°, t: (361.175, 278.247)]</title>
</use>
<use transform="translate(1720.2084 2233.6384), rotate(90)" xlink:href="#item_2">
<title>item, id: 2, transf: [r: 90.000°, t: (1720.208, 2233.638)]</title>
</use>
<use transform="translate(1614.5134 2208.6458), rotate(-90)" xlink:href="#item_2">
<title>item, id: 2, transf: [r: -90.000°, t: (1614.513, 2208.646)]</title>
</use>
<use transform="translate(1399.1945 2457.1887), rotate(0)" xlink:href="#item_2">
<title>item, id: 2, transf: [r: 0.000°, t: (1399.194, 2457.189)]</title>
</use>
</g>
<g id="quality_zones"/>
<g id="optionals">
<g id="overlap_lines" transform="translate(0 0), rotate(0)"/>
</g>
<text font-family="monospace" font-size="43.01365" font-weight="500" x="0" y="-21.506824">
height: 2550.000 | width: 1720.546 | usage: 85.669% | final_bench_28
</text>
</svg>