<svg viewBox="-86.153145 -127.50003 1895.3689 2805" xmlns="http://www.w3.org/2000/svg" xmlns:xlink="http://www.w3.org/1999/xlink">
<g id="bin_0">
<path d="M0,0 L1723.0625,0 L1723.0625,2550 L0,2550 z" fill="#D3D3D3" stroke="black" stroke-width="9.476845"/>
<title>bin, id: 0, bbox: [x_min: 0.000, y_min: 0.000, x_max: 1723.062, y_max: 2550.000]</title>
</g>
<g id="items">
<defs>
<g id="item_0">
<path d="M10,115 L478,113 L727,21 L856,44 L930,47 L1049,0 L1097,295 L1078,396 L0,407 z" fill="#7A7A7A" fill-opacity="0.5" fill-rule="nonzero" stroke="black" stroke-width="4.7384224"/>
</g>
<g id="item_1">
<path d="M0,0 L316,2 L316,274 L0,275 z" fill="#7A7A7A" fill-opacity="0.5" fill-rule="nonzero" stroke="black" stroke-width="4.7384224"/>
</g>
<g id="item_2">
<path d="M0,1 L239,0 L242,80 L0,78 z" fill="#7A7A7A" fill-opacity="0.5" fill-rule="nonzero" stroke="black" stroke-width="4.7384224"/>
</g>
<g id="item_3">
<path d="M0,310 L0,119 L384,0 L384,70 L759,69 L758,310 z" fill="#7A7A7A" fill-opacity="0.5" fill-rule="nonzero" stroke="black" stroke-width="4.7384224"/>
</g>
<g id="item_4">
<path d="M0,252 L0,75 L150,0 L148,175 z" fill="#7A7A7A" fill-opacity="0.5" fill-rule="nonzero" stroke="black" stroke-width="4.7384224"/>
</g>
<g id="item_5">
<path d="M852,412 L503,414 L387,451 L355,505 L300,451 L45,325 L0,221 L0,154 L55,53 L145,16 L329,25 L407,35 L539,38 L597,51 L668,20 L736,0 L784,3 L849,194 z" fill="#7A7A7A" fill-opacity="0.5" fill-rule="nonzero" stroke="black" stroke-width="4.7384224"/>
</g>
<g id="item_6">
<path d="M0,232 L827,0 L894,20 L975,258 L1097,260 L1003,500 L884,463 L845,453 L761,490 L732,547 L694,544 L616,477 L539,414 L0,426 z" fill="#7A7A7A" fill-opacity="0.5" fill-rule="nonzero" stroke="black" stroke-width="4.7384224"/>
</g>
<g id="item_7">
<path d="M151,427 L97,266 L0,259 L75,28 L126,21 L191,61 L271,50 L316,64 L359,10 L436,6 L442,43 L694,75 L726,42 L1091,0 L1094,211 L1033,208 L987,346 L926,393 z" fill="#7A7A7A" fill-opacity="0.5" fill-rule="nonzero" stroke="black" stroke-width="4.7384224"/>
</g>
<g id="item_8">
<path d="M0,0 L745,24 L619,196 L590,276 L522,260 L6,282 z" fill="#7A7A7A" fill-opacity="0.5" fill-rule="nonzero" stroke="black" stroke-width="4.7384224"/>
</g>
</defs>
<use transform="translate(151.63846 2023.3987), rotate(-90)" xlink:href="#item_6">
<title>item, id: 6, transf: [r: -90.000°, t: (151.638, 2023.399)]</title>
</use>
<use transform="translate(1723.0605 2295.8386), rotate(-180)" xlink:href="#item_6">
<title>item, id: 6, transf: [r: -180.000°, t: (1723.061, 2295.839)]</title>
</use>
<use transform="translate(645.0325 1831.3865), rotate(-90)" xlink:href="#item_7">
<title>item, id: 7, transf: [r: -90.000°, t: (645.032, 1831.386)]</title>
</use>
<use transform="translate(1466.3695 784.2891), rotate(90)" xlink:href="#item_7">
<title>item, id: 7, transf: [r: 90.000°, t: (1466.370, 784.289)]</title>
</use>
<use transform="translate(1712.6592 407.01575), rotate(-180)" xlink:href="#item_0">
<title>item, id: 0, transf: [r: -180.000°, t: (1712.659, 407.016)]</title>
</use>
<use transform="translate(407.00348 0.22027588), rotate(90)" xlink:href="#item_0">
<title>item, id: 0, transf: [r: 90.000°, t: (407.003, 0.220)]</title>
</use>
<use transform="translate(1721.9011 798.6819), rotate(-180)" xlink:href="#item_5">
<title>item, id: 5, transf: [r: -180.000°, t: (1721.901, 798.682)]</title>
</use>
<use transform="translate(852.0168 2549.994), rotate(-180)" xlink:href="#item_5">
<title>item, id: 5, transf: [r: -180.000°, t: (852.017, 2549.994)]</title>
</use>
<use transform="translate(310.15045 1377.4722), rotate(90)" xlink:href="#item_3">
<title>item, id: 3, transf: [r: 90.000°, t: (310.150, 1377.472)]</title>
</use>
<use transform="translate(1413.0559 1857.7654), rotate(-90)" xlink:href="#item_3">
<title>item, id: 3, transf: [r: -90.000°, t: (1413.056, 1857.765)]</title>
</use>
<use transform="translate(1618.6785 2536.4229), rotate(-180)" xlink:href="#item_8">
<title>item, id: 8, transf: [r: -180.000°, t: (1618.678, 2536.423)]</title>
</use>
<use transform="translate(611.475 0.36663818), rotate(90)" xlink:href="#item_8">
<title>item, id: 8, transf: [r: 90.000°, t: (611.475, 0.367)]</title>
</use>
<use transform="translate(1444.9874 1098.7327), rotate(-90)" xlink:href="#item_1">
<title>item, id: 1, transf: [r: -90.000°, t: (1444.987, 1098.733)]</title>
</use>
<use transform="translate(596.1885 736.35364), rotate(-90)" xlink:href="#item_1">
<title>item, id: 1, transf: [r: -90.000°, t: (596.188, 736.354)]</title>
</use>
<use transform="translate(150.05789 1377.5164), rotate(-180)" xlink:href="#item_4">
<title>item, id: 4, transf: [r: -180.000°, t: (150.058, 1377.516)]</title>
</use>
<use transform="translate(642.60474 771.6016), rotate(90)" xlink:href="#item_4">
<title>item, id: 4, transf: [r: 90.000°, t: (642.605, 771.602)]</title>
</use>
<use transform="translate(1479.3632 2172.0667), rotate(0)" xlink:href="#item_2">
<title>item, id: 2, transf: [r: 0.000°, t: (1479.363, 2172.067)]</title>
</use>
<use transform="translate(1479.4773 297.45538), rotate(0)" xlink:href="#item_2">
<title>item, id: 2, transf: [r: 0.000°, t: (1479.477, 297.455)]</title>
</use>
<use transform="translate(261.73956 2135.7847), rotate(-90)" xlink:href="#item_2">
<title>item, id: 2, transf: [r: -90.000°, t: (261.740, 2135.785)]</title>
</use>
<use transform="translate(579.9015 1937.8558), rotate(-90)" xlink:href="#item_2">
<title>item, id: 2, transf: [r: -90.000°, t: (579.901, 1937.856)]</title>
</use>
</g>
<g id="quality_zones"/>
<g id="optionals">
<g id="overlap_lines" transform="translate(0 0), rotate(0)"/>
</g>
<text font-family="monospace" font-size="43.076565" font-weight="500" x="0" y="-21.538282">
height: 2550.000 | width: 1723.062 | usage: 85.543% | final_bench_87
</text>
</svg>