<svg viewBox="-86.45861 -127.50003 1902.089 2805" xmlns="http://www.w3.org/2000/svg" xmlns:xlink="http://www.w3.org/1999/xlink">
<g id="bin_0">
<path d="M0,0 L1729.1718,0 L1729.1718,2550 L0,2550 z" fill="#D3D3D3" stroke="black" stroke-width="9.510446"/>
<title>bin, id: 0, bbox: [x_min: 0.000, y_min: 0.000, x_max: 1729.172, y_max: 2550.000]</title>
</g>
<g id="items">
<defs>
<g id="item_0">
<path d="M10,115 L478,113 L727,21 L856,44 L930,47 L1049,0 L1097,295 L1078,396 L0,407 z" fill="#7A7A7A" fill-opacity="0.5" fill-rule="nonzero" stroke="black" stroke-width="4.755223"/>
</g>
<g id="item_1">
<path d="M0,0 L316,2 L316,274 L0,275 z" fill="#7A7A7A" fill-opacity="0.5" fill-rule="nonzero" stroke="black" stroke-width="4.755223"/>
</g>
<g id="item_2">
<path d="M0,1 L239,0 L242,80 L0,78 z" fill="#7A7A7A" fill-opacity="0.5" fill-rule="nonzero" stroke="black" stroke-width="4.755223"/>
</g>
<g id="item_3">
<path d="M0,310 L0,119 L384,0 L384,70 L759,69 L758,310 z" fill="#7A7A7A" fill-opacity="0.5" fill-rule="nonzero" stroke="black" stroke-width="4.755223"/>
</g>
<g id="item_4">
<path d="M0,252 L0,75 L150,0 L148,175 z" fill="#7A7A7A" fill-opacity="0.5" fill-rule="nonzero" stroke="black" stroke-width="4.755223"/>
</g>
<g id="item_5">
<path d="M852,412 L503,414 L387,451 L355,505 L300,451 L45,325 L0,221 L0,154 L55,53 L145,16 L329,25 L407,35 L539,38 L597,51 L668,20 L736,0 L784,3 L849,194 z" fill="#7A7A7A" fill-opacity="0.5" fill-rule="nonzero" stroke="black" stroke-width="4.755223"/>
</g>
<g id="item_6">
<path d="M0,232 L827,0 L894,20 L975,258 L1097,260 L1003,500 L884,463 L845,453 L761,490 L732,547 L694,544 L616,477 L539,414 L0,426 z" fill="#7A7A7A" fill-opacity="0.5" fill-rule="nonzero" stroke="black" stroke-width="4.755223"/>
</g>
<g id="item_7">
<path d="M151,427 L97,266 L0,259 L75,28 L126,21 L191,61 L271,50 L316,64 L359,10 L436,6 L442,43 L694,75 L726,42 L1091,0 L1094,211 L1033,208 L987,346 L926,393 z" fill="#7A7A7A" fill-opacity="0.5" fill-rule="nonzero" stroke="black" stroke-width="4.755223"/>
</g>
<g id="item_8">
<path d="M0,0 L745,24 L619,196 L590,276 L522,260 L6,282 z" fill="#7A7A7A" fill-opacity="0.5" fill-rule="nonzero" stroke="black" stroke-width="4.755223"/>
</g>
</defs>
<use transform="translate(1188.8273 1396.8287), rotate(90)" xlink:href="#item_6">
<title>item, id: 6, transf: [r: 90.000°, t: (1188.827, 1396.829)]</title>
</use>
<use transform="translate(953.45404 2211.377), rotate(-90)" xlink:href="#item_6">
<title>item, id: 6, transf: [r: -90.000°, t: (953.454, 2211.377)]</title>
</use>
<use transform="translate(705.5061 1455.9863), rotate(90)" xlink:href="#item_7">
<title>item, id: 7, transf: [r: 90.000°, t: (705.506, 1455.986)]</title>
</use>
<use transform="translate(1099.7344 427.00366), rotate(-180)" xlink:href="#item_7">
<title>item, id: 7, transf: [r: -180.000°, t: (1099.734, 427.004)]</title>
</use>
<use transform="translate(1052.9059 1097.095), rotate(-90)" xlink:href="#item_0">
<title>item, id: 0, transf: [r: -90.000°, t: (1052.906, 1097.095)]</title>
</use>
<use transform="translate(407.02753 514.8655), rotate(90)" xlink:href="#item_0">
<title>item, id: 0, transf: [r: 90.000°, t: (407.028, 514.865)]</title>
</use>
<use transform="translate(318.12344 837.03705), rotate(0)" xlink:href="#item_5">
<title>item, id: 5, transf: [r: 0.000°, t: (318.123, 837.037)]</title>
</use>
<use transform="translate(1143.2255 869.4519), rotate(-180)" xlink:href="#item_5">
<title>item, id: 5, transf: [r: -180.000°, t: (1143.225, 869.452)]</title>
</use>
<use transform="translate(1419.1415 1481.1003), rotate(-90)" xlink:href="#item_3">
<title>item, id: 3, transf: [r: -90.000°, t: (1419.141, 1481.100)]</title>
</use>
<use transform="translate(970.0776 2239.9976), rotate(0)" xlink:href="#item_3">
<title>item, id: 3, transf: [r: 0.000°, t: (970.078, 2239.998)]</title>
</use>
<use transform="translate(1443.2231 2309.751), rotate(-90)" xlink:href="#item_8">
<title>item, id: 8, transf: [r: -90.000°, t: (1443.223, 2309.751)]</title>
</use>
<use transform="translate(284.72025 1803.547), rotate(90)" xlink:href="#item_8">
<title>item, id: 8, transf: [r: 90.000°, t: (284.720, 1803.547)]</title>
</use>
<use transform="translate(1454.1674 316.0047), rotate(-90)" xlink:href="#item_1">
<title>item, id: 1, transf: [r: -90.000°, t: (1454.167, 316.005)]</title>
</use>
<use transform="translate(1729.1709 316.57108), rotate(90)" xlink:href="#item_1">
<title>item, id: 1, transf: [r: 90.000°, t: (1729.171, 316.571)]</title>
</use>
<use transform="translate(683.6852 1327.478), rotate(90)" xlink:href="#item_4">
<title>item, id: 4, transf: [r: 90.000°, t: (683.685, 1327.478)]</title>
</use>
<use transform="translate(274.5735 1617.909), rotate(90)" xlink:href="#item_4">
<title>item, id: 4, transf: [r: 90.000°, t: (274.573, 1617.909)]</title>
</use>
<use transform="translate(265.1717 511.08142), rotate(-180)" xlink:href="#item_2">
<title>item, id: 2, transf: [r: -180.000°, t: (265.172, 511.081)]</title>
</use>
<use transform="translate(766.7179 1565.8643), rotate(90)" xlink:href="#item_2">
<title>item, id: 2, transf: [r: 90.000°, t: (766.718, 1565.864)]</title>
</use>
<use transform="translate(704.2032 1307.0872), rotate(0)" xlink:href="#item_2">
<title>item, id: 2, transf: [r: 0.000°, t: (704.203, 1307.087)]</title>
</use>
<use transform="translate(1376.0387 1913.2726), rotate(-90)" xlink:href="#item_2">
<title>item, id: 2, transf: [r: -90.000°, t: (1376.039, 1913.273)]</title>
</use>
</g>
<g id="quality_zones"/>
<g id="optionals">
<g id="overlap_lines" transform="translate(0 0), rotate(0)"/>
</g>
<text font-family="monospace" font-size="43.229294" font-weight="500" x="0" y="-21.614647">
height: 2550.000 | width: 1729.172 | usage: 85.241% | final_bench_20
</text>
</svg>