<svg viewBox="-86.32836 -127.50003 1899.2235 2805" xmlns="http://www.w3.org/2000/svg" xmlns:xlink="http://www.w3.org/1999/xlink">
<g id="bin_0">
<path d="M0,0 L1726.5668,0 L1726.5668,2550 L0,2550 z" fill="#D3D3D3" stroke="black" stroke-width="9.496118"/>
<title>bin, id: 0, bbox: [x_min: 0.000, y_min: 0.000, x_max: 1726.567, y_max: 2550.000]</title>
</g>
<g id="items">
<defs>
<g id="item_0">
<path d="M10,115 L478,113 L727,21 L856,44 L930,47 L1049,0 L1097,295 L1078,396 L0,407 z" fill="#7A7A7A" fill-opacity="0.5" fill-rule="nonzero" stroke="black" stroke-width="4.748059"/>
</g>
<g id="item_1">
<path d="M0,0 L316,2 L316,274 L0,275 z" fill="#7A7A7A" fill-opacity="0.5" fill-rule="nonzero" stroke="black" stroke-width="4.748059"/>
</g>
<g id="item_2">
<path d="M0,1 L239,0 L242,80 L0,78 z" fill="#7A7A7A" fill-opacity="0.5" fill-rule="nonzero" stroke="black" stroke-width="4.748059"/>
</g>
<g id="item_3">
<path d="M0,310 L0,119 L384,0 L384,70 L759,69 L758,310 z" fill="#7A7A7A" fill-opacity="0.5" fill-rule="nonzero" stroke="black" stroke-width="4.748059"/>
</g>
<g id="item_4">
<path d="M0,252 L0,75 L150,0 L148,175 z" fill="#7A7A7A" fill-opacity="0.5" fill-rule="nonzero" stroke="black" stroke-width="4.748059"/>
</g>
<g id="item_5">
<path d="M852,412 L503,414 L387,451 L355,505 L300,451 L45,325 L0,221 L0,154 L55,53 L145,16 L329,25 L407,35 L539,38 L597,51 L668,20 L736,0 L784,3 L849,194 z" fill="#7A7A7A" fill-opacity="0.5" fill-rule="nonzero" stroke="black" stroke-width="4.748059"/>
</g>
<g id="item_6">
<path d="M0,232 L827,0 L894,20 L975,258 L1097,260 L1003,500 L884,463 L845,453 L761,490 L732,547 L694,544 L616,477 L539,414 L0,426 z" fill="#7A7A7A" fill-opacity="0.5" fill-rule="nonzero" stroke="black" stroke-width="4.748059"/>
</g>
<g id="item_7">
<path d="M151,427 L97,266 L0,259 L75,28 L126,21 L191,61 L271,50 L316,64 L359,10 L436,6 L442,43 L694,75 L726,42 L1091,0 L1094,211 L1033,208 L987,346 L926,393 z" fill="#7A7A7A" fill-opacity="0.5" fill-rule="nonzero" stroke="black" stroke-width="4.748059"/>
</g>
<g id="item_8">
<path d="M0,0 L745,24 L619,196 L590,276 L522,260 L6,282 z" fill="#7A7A7A" fill-opacity="0.5" fill-rule="nonzero" stroke="black" stroke-width="4.748059"/>
</g>
</defs>
<use transform="translate(1219.1719 1580.1438), rotate(-180)" xlink:href="#item_6">
<title>item, id: 6, transf: [r: -180.000°, t: (1219.172, 1580.144)]</title>
</use>
<use transform="translate(402.24457 1345.4558), rotate(0)" xlink:href="#item_6">
<title>item, id: 6, transf: [r: 0.000°, t: (402.245, 1345.456)]</title>
</use>
<use transform="translate(1726.5377 548.8555), rotate(90)" xlink:href="#item_7">
<title>item, id: 7, transf: [r: 90.000°, t: (1726.538, 548.856)]</title>
</use>
<use transform="translate(1465.5442 695.95215), rotate(-180)" xlink:href="#item_7">
<title>item, id: 7, transf: [r: -180.000°, t: (1465.544, 695.952)]</title>
</use>
<use transform="translate(407.00415 0.0031738281), rotate(90)" xlink:href="#item_0">
<title>item, id: 0, transf: [r: 90.000°, t: (407.004, 0.003)]</title>
</use>
<use transform="translate(407.00616 1452.8735), rotate(90)" xlink:href="#item_0">
<title>item, id: 0, transf: [r: 90.000°, t: (407.006, 1452.874)]</title>
</use>
<use transform="translate(1209.1387 2272.4011), rotate(-180)" xlink:href="#item_5">
<title>item, id: 5, transf: [r: -180.000°, t: (1209.139, 2272.401)]</title>
</use>
<use transform="translate(457.20706 657.96594), rotate(0)" xlink:href="#item_5">
<title>item, id: 5, transf: [r: 0.000°, t: (457.207, 657.966)]</title>
</use>
<use transform="translate(1416.5597 2545.5315), rotate(-90)" xlink:href="#item_3">
<title>item, id: 3, transf: [r: -90.000°, t: (1416.560, 2545.531)]</title>
</use>
<use transform="translate(407.01715 2237.3833), rotate(0)" xlink:href="#item_3">
<title>item, id: 3, transf: [r: 0.000°, t: (407.017, 2237.383)]</title>
</use>
<use transform="translate(372.4502 0.011795044), rotate(0)" xlink:href="#item_8">
<title>item, id: 8, transf: [r: 0.000°, t: (372.450, 0.012)]</title>
</use>
<use transform="translate(1726.5637 282.0157), rotate(-180)" xlink:href="#item_8">
<title>item, id: 8, transf: [r: -180.000°, t: (1726.564, 282.016)]</title>
</use>
<use transform="translate(1165.0011 2549.9514), rotate(-90)" xlink:href="#item_1">
<title>item, id: 1, transf: [r: -90.000°, t: (1165.001, 2549.951)]</title>
</use>
<use transform="translate(1485.2805 1845.4934), rotate(90)" xlink:href="#item_1">
<title>item, id: 1, transf: [r: 90.000°, t: (1485.281, 1845.493)]</title>
</use>
<use transform="translate(1726.5168 428.0086), rotate(90)" xlink:href="#item_4">
<title>item, id: 4, transf: [r: 90.000°, t: (1726.517, 428.009)]</title>
</use>
<use transform="translate(1569.4994 277.73383), rotate(90)" xlink:href="#item_4">
<title>item, id: 4, transf: [r: 90.000°, t: (1569.499, 277.734)]</title>
</use>
<use transform="translate(1065.3009 1074.8081), rotate(0)" xlink:href="#item_2">
<title>item, id: 2, transf: [r: 0.000°, t: (1065.301, 1074.808)]</title>
</use>
<use transform="translate(293.2705 286.12064), rotate(-90)" xlink:href="#item_2">
<title>item, id: 2, transf: [r: -90.000°, t: (293.271, 286.121)]</title>
</use>
<use transform="translate(357.38638 1778.1946), rotate(0)" xlink:href="#item_2">
<title>item, id: 2, transf: [r: 0.000°, t: (357.386, 1778.195)]</title>
</use>
<use transform="translate(97.75807 1187.912), rotate(90)" xlink:href="#item_2">
<title>item, id: 2, transf: [r: 90.000°, t: (97.758, 1187.912)]</title>
</use>
</g>
<g id="quality_zones"/>
<g id="optionals">
<g id="overlap_lines" transform="translate(0 0), rotate(0)"/>
</g>
<text font-family="monospace" font-size="43.16417" font-weight="500" x="0" y="-21.582085">
height: 2550.000 | width: 1726.567 | usage: 85.370% | final_bench_70
</text>
</svg>