<svg viewBox="-85.167076 -127.50003 1873.6754 2805" xmlns="http://www.w3.org/2000/svg" xmlns:xlink="http://www.w3.org/1999/xlink">
<g id="bin_0">
<path d="M0,0 L1703.3412,0 L1703.3412,2550 L0,2550 z" fill="#D3D3D3" stroke="black" stroke-width="9.368378"/>
<title>bin, id: 0, bbox: [x_min: 0.000, y_min: 0.000, x_max: 1703.341, y_max: 2550.000]</title>
</g>
<g id="items">
<defs>
<g id="item_0">
<path d="M10,115 L478,113 L727,21 L856,44 L930,47 L1049,0 L1097,295 L1078,396 L0,407 z" fill="#7A7A7A" fill-opacity="0.5" fill-rule="nonzero" stroke="black" stroke-width="4.684189"/>
</g>
<g id="item_1">
<path d="M0,0 L316,2 L316,274 L0,275 z" fill="#7A7A7A" fill-opacity="0.5" fill-rule="nonzero" stroke="black" stroke-width="4.684189"/>
</g>
<g id="item_2">
<path d="M0,1 L239,0 L242,80 L0,78 z" fill="#7A7A7A" fill-opacity="0.5" fill-rule="nonzero" stroke="black" stroke-width="4.684189"/>
</g>
<g id="item_3">
<path d="M0,310 L0,119 L384,0 L384,70 L759,69 L758,310 z" fill="#7A7A7A" fill-opacity="0.5" fill-rule="nonzero" stroke="black" stroke-width="4.684189"/>
</g>
<g id="item_4">
<path d="M0,252 L0,75 L150,0 L148,175 z" fill="#7A7A7A" fill-opacity="0.5" fill-rule="nonzero" stroke="black" stroke-width="4.684189"/>
</g>
<g id="item_5">
<path d="M852,412 L503,414 L387,451 L355,505 L300,451 L45,325 L0,221 L0,154 L55,53 L145,16 L329,25 L407,35 L539,38 L597,51 L668,20 L736,0 L784,3 L849,194 z" fill="#7A7A7A" fill-opacity="0.5" fill-rule="nonzero" stroke="black" stroke-width="4.684189"/>
</g>
<g id="item_6">
<path d="M0,232 L827,0 L894,20 L975,258 L1097,260 L1003,500 L884,463 L845,453 L761,490 L732,547 L694,544 L616,477 L539,414 L0,426 z" fill="#7A7A7A" fill-opacity="0.5" fill-rule="nonzero" stroke="black" stroke-width="4.684189"/>
</g>
<g id="item_7">
<path d="M151,427 L97,266 L0,259 L75,28 L126,21 L191,61 L271,50 L316,64 L359,10 L436,6 L442,43 L694,75 L726,42 L1091,0 L1094,211 L1033,208 L987,346 L926,393 z" fill="#7A7A7A" fill-opacity="0.5" fill-rule="nonzero" stroke="black" stroke-width="4.684189"/>
</g>
<g id="item_8">
<path d="M0,0 L745,24 L619,196 L590,276 L522,260 L6,282 z" fill="#7A7A7A" fill-opacity="0.5" fill-rule="nonzero" stroke="black" stroke-width="4.684189"/>
</g>
</defs>
<use transform="translate(1149.9412 1999.7532), rotate(-180)" xlink:href="#item_6">
<title>item, id: 6, transf: [r: -180.000°, t: (1149.941, 1999.753)]</title>
</use>
<use transform="translate(316.4076 1769.5925), rotate(0)" xlink:href="#item_6">
<title>item, id: 6, transf: [r: 0.000°, t: (316.408, 1769.593)]</title>
</use>
<use transform="translate(672.6749 1094.3306), rotate(-90)" xlink:href="#item_7">
<title>item, id: 7, transf: [r: -90.000°, t: (672.675, 1094.331)]</title>
</use>
<use transform="translate(707.78296 0.064453125), rotate(90)" xlink:href="#item_7">
<title>item, id: 7, transf: [r: 90.000°, t: (707.783, 0.064)]</title>
</use>
<use transform="translate(1296.331 1097.0074), rotate(-90)" xlink:href="#item_0">
<title>item, id: 0, transf: [r: -90.000°, t: (1296.331, 1097.007)]</title>
</use>
<use transform="translate(407.00104 396.83807), rotate(90)" xlink:href="#item_0">
<title>item, id: 0, transf: [r: 90.000°, t: (407.001, 396.838)]</title>
</use>
<use transform="translate(1198.2742 1945.8972), rotate(-90)" xlink:href="#item_5">
<title>item, id: 5, transf: [r: -90.000°, t: (1198.274, 1945.897)]</title>
</use>
<use transform="translate(366.69382 1078.2098), rotate(0)" xlink:href="#item_5">
<title>item, id: 5, transf: [r: 0.000°, t: (366.694, 1078.210)]</title>
</use>
<use transform="translate(1409.6898 319.63757), rotate(90)" xlink:href="#item_3">
<title>item, id: 3, transf: [r: 90.000°, t: (1409.690, 319.638)]</title>
</use>
<use transform="translate(310.00583 1790.9272), rotate(90)" xlink:href="#item_3">
<title>item, id: 3, transf: [r: 90.000°, t: (310.006, 1790.927)]</title>
</use>
<use transform="translate(1667.8273 2549.997), rotate(-180)" xlink:href="#item_8">
<title>item, id: 8, transf: [r: -180.000°, t: (1667.827, 2549.997)]</title>
</use>
<use transform="translate(240.25513 2267.9932), rotate(0)" xlink:href="#item_8">
<title>item, id: 8, transf: [r: 0.000°, t: (240.255, 2267.993)]</title>
</use>
<use transform="translate(1418.6324 2265.9297), rotate(-90)" xlink:href="#item_1">
<title>item, id: 1, transf: [r: -90.000°, t: (1418.632, 2265.930)]</title>
</use>
<use transform="translate(280.68634 74.73076), rotate(90)" xlink:href="#item_1">
<title>item, id: 1, transf: [r: 90.000°, t: (280.686, 74.731)]</title>
</use>
<use transform="translate(1270.952 0.014678955), rotate(90)" xlink:href="#item_4">
<title>item, id: 4, transf: [r: 90.000°, t: (1270.952, 0.015)]</title>
</use>
<use transform="translate(1068.1313 313.9461), rotate(-90)" xlink:href="#item_4">
<title>item, id: 4, transf: [r: -90.000°, t: (1068.131, 313.946)]</title>
</use>
<use transform="translate(1701.4615 1138.6156), rotate(90)" xlink:href="#item_2">
<title>item, id: 2, transf: [r: 90.000°, t: (1701.462, 1138.616)]</title>
</use>
<use transform="translate(987.07825 1490.738), rotate(0)" xlink:href="#item_2">
<title>item, id: 2, transf: [r: 0.000°, t: (987.078, 1490.738)]</title>
</use>
<use transform="translate(1703.3247 1707.6443), rotate(90)" xlink:href="#item_2">
<title>item, id: 2, transf: [r: 90.000°, t: (1703.325, 1707.644)]</title>
</use>
<use transform="translate(627.1621 2202.2966), rotate(0)" xlink:href="#item_2">
<title>item, id: 2, transf: [r: 0.000°, t: (627.162, 2202.297)]</title>
</use>
</g>
<g id="quality_zones"/>
<g id="optionals">
<g id="overlap_lines" transform="translate(0 0), rotate(0)"/>
</g>
<text font-family="monospace" font-size="42.58353" font-weight="500" x="0" y="-21.291765">
height: 2550.000 | width: 1703.341 | usage: 86.534% | final_bench_89
</text>
</svg>