<svg viewBox="-85.06757 -127.50003 1871.4863 2805" xmlns="http://www.w3.org/2000/svg" xmlns:xlink="http://www.w3.org/1999/xlink">
<g id="bin_0">
<path d="M0,0 L1701.3511,0 L1701.3511,2550 L0,2550 z" fill="#D3D3D3" stroke="black" stroke-width="9.357432"/>
<title>bin, id: 0, bbox: [x_min: 0.000, y_min: 0.000, x_max: 1701.351, y_max: 2550.000]</title>
</g>
<g id="items">
<defs>
<g id="item_0">
<path d="M10,115 L478,113 L727,21 L856,44 L930,47 L1049,0 L1097,295 L1078,396 L0,407 z" fill="#7A7A7A" fill-opacity="0.5" fill-rule="nonzero" stroke="black" stroke-width="4.678716"/>
</g>
<g id="item_1">
<path d="M0,0 L316,2 L316,274 L0,275 z" fill="#7A7A7A" fill-opacity="0.5" fill-rule="nonzero" stroke="black" stroke-width="4.678716"/>
</g>
<g id="item_2">
<path d="M0,1 L239,0 L242,80 L0,78 z" fill="#7A7A7A" fill-opacity="0.5" fill-rule="nonzero" stroke="black" stroke-width="4.678716"/>
</g>
<g id="item_3">
<path d="M0,310 L0,119 L384,0 L384,70 L759,69 L758,310 z" fill="#7A7A7A" fill-opacity="0.5" fill-rule="nonzero" stroke="black" stroke-width="4.678716"/>
</g>
<g id="item_4">
<path d="M0,252 L0,75 L150,0 L148,175 z" fill="#7A7A7A" fill-opacity="0.5" fill-rule="nonzero" stroke="black" stroke-width="4.678716"/>
</g>
<g id="item_5">
<path d="M852,412 L503,414 L387,451 L355,505 L300,451 L45,325 L0,221 L0,154 L55,53 L145,16 L329,25 L407,35 L539,38 L597,51 L668,20 L736,0 L784,3 L849,194 z" fill="#7A7A7A" fill-opacity="0.5" fill-rule="nonzero" stroke="black" stroke-width="4.678716"/>
</g>
<g id="item_6">
<path d="M0,232 L827,0 L894,20 L975,258 L1097,260 L1003,500 L884,463 L845,453 L761,490 L732,547 L694,544 L616,477 L539,414 L0,426 z" fill="#7A7A7A" fill-opacity="0.5" fill-rule="nonzero" stroke="black" stroke-width="4.678716"/>
</g>
<g id="item_7">
<path d="M151,427 L97,266 L0,259 L75,28 L126,21 L191,61 L271,50 L316,64 L359,10 L436,6 L442,43 L694,75 L726,42 L1091,0 L1094,211 L1033,208 L987,346 L926,393 z" fill="#7A7A7A" fill-opacity="0.5" fill-rule="nonzero" stroke="black" stroke-width="4.678716"/>
</g>
<g id="item_8">
<path d="M0,0 L745,24 L619,196 L590,276 L522,260 L6,282 z" fill="#7A7A7A" fill-opacity="0.5" fill-rule="nonzero" stroke="black" stroke-width="4.678716"/>
</g>
</defs>
<use transform="translate(1395.4568 1789.5006), rotate(-180)" xlink:href="#item_6">
<title>item, id: 6, transf: [r: -180.000°, t: (1395.457, 1789.501)]</title>
</use>
<use transform="translate(478.15552 1582.8846), rotate(0)" xlink:href="#item_6">
<title>item, id: 6, transf: [r: 0.000°, t: (478.156, 1582.885)]</title>
</use>
<use transform="translate(283.03326 1334.2952), rotate(-90)" xlink:href="#item_7">
<title>item, id: 7, transf: [r: -90.000°, t: (283.033, 1334.295)]</title>
</use>
<use transform="translate(1102.7429 249.21332), rotate(90)" xlink:href="#item_7">
<title>item, id: 7, transf: [r: 90.000°, t: (1102.743, 249.213)]</title>
</use>
<use transform="translate(407.02042 1039.9354), rotate(90)" xlink:href="#item_0">
<title>item, id: 0, transf: [r: 90.000°, t: (407.020, 1039.935)]</title>
</use>
<use transform="translate(1294.2798 1098.08), rotate(-90)" xlink:href="#item_0">
<title>item, id: 0, transf: [r: -90.000°, t: (1294.280, 1098.080)]</title>
</use>
<use transform="translate(1701.3499 2548.0842), rotate(-180)" xlink:href="#item_5">
<title>item, id: 5, transf: [r: -180.000°, t: (1701.350, 2548.084)]</title>
</use>
<use transform="translate(852.00183 2549.9888), rotate(-180)" xlink:href="#item_5">
<title>item, id: 5, transf: [r: -180.000°, t: (852.002, 2549.989)]</title>
</use>
<use transform="translate(977.4181 310.00964), rotate(-180)" xlink:href="#item_3">
<title>item, id: 3, transf: [r: -180.000°, t: (977.418, 310.010)]</title>
</use>
<use transform="translate(1407.516 292.14056), rotate(90)" xlink:href="#item_3">
<title>item, id: 3, transf: [r: 90.000°, t: (1407.516, 292.141)]</title>
</use>
<use transform="translate(11.836304 877.4767), rotate(-90)" xlink:href="#item_8">
<title>item, id: 8, transf: [r: -90.000°, t: (11.836, 877.477)]</title>
</use>
<use transform="translate(1701.3094 1111.5942), rotate(90)" xlink:href="#item_8">
<title>item, id: 8, transf: [r: 90.000°, t: (1701.309, 1111.594)]</title>
</use>
<use transform="translate(978.2616 17.381012), rotate(0)" xlink:href="#item_1">
<title>item, id: 1, transf: [r: 0.000°, t: (978.262, 17.381)]</title>
</use>
<use transform="translate(1103.2065 1086.7966), rotate(0)" xlink:href="#item_1">
<title>item, id: 1, transf: [r: 0.000°, t: (1103.207, 1086.797)]</title>
</use>
<use transform="translate(849.0123 2010.264), rotate(90)" xlink:href="#item_4">
<title>item, id: 4, transf: [r: 90.000°, t: (849.012, 2010.264)]</title>
</use>
<use transform="translate(252.00674 881.84174), rotate(90)" xlink:href="#item_4">
<title>item, id: 4, transf: [r: 90.000°, t: (252.007, 881.842)]</title>
</use>
<use transform="translate(1076.5396 2129.986), rotate(-180)" xlink:href="#item_2">
<title>item, id: 2, transf: [r: -180.000°, t: (1076.540, 2129.986)]</title>
</use>
<use transform="translate(394.66116 2043.8457), rotate(-90)" xlink:href="#item_2">
<title>item, id: 2, transf: [r: -90.000°, t: (394.661, 2043.846)]</title>
</use>
<use transform="translate(1701.351 1868.102), rotate(90)" xlink:href="#item_2">
<title>item, id: 2, transf: [r: 90.000°, t: (1701.351, 1868.102)]</title>
</use>
<use transform="translate(1542.7692 2166.4922), rotate(-90)" xlink:href="#item_2">
<title>item, id: 2, transf: [r: -90.000°, t: (1542.769, 2166.492)]</title>
</use>
</g>
<g id="quality_zones"/>
<g id="optionals">
<g id="overlap_lines" transform="translate(0 0), rotate(0)"/>
</g>
<text font-family="monospace" font-size="42.53378" font-weight="500" x="0" y="-21.26689">
height: 2550.000 | width: 1701.351 | usage: 86.635% | final_bench_50
</text>
</svg>