<svg viewBox="-84.97271 -127.50003 1869.399 2805" xmlns="http://www.w3.org/2000/svg" xmlns:xlink="http://www.w3.org/1999/xlink">
<g id="bin_0">
<path d="M0,0 L1699.4537,0 L1699.4537,2550 L0,2550 z" fill="#D3D3D3" stroke="black" stroke-width="9.346996"/>
<title>bin, id: 0, bbox: [x_min: 0.000, y_min: 0.000, x_max: 1699.454, y_max: 2550.000]</title>
</g>
<g id="items">
<defs>
<g id="item_0">
<path d="M10,115 L478,113 L727,21 L856,44 L930,47 L1049,0 L1097,295 L1078,396 L0,407 z" fill="#7A7A7A" fill-opacity="0.5" fill-rule="nonzero" stroke="black" stroke-width="4.673498"/>
</g>
<g id="item_1">
<path d="M0,0 L316,2 L316,274 L0,275 z" fill="#7A7A7A" fill-opacity="0.5" fill-rule="nonzero" stroke="black" stroke-width="4.673498"/>
</g>
<g id="item_2">
<path d="M0,1 L239,0 L242,80 L0,78 z" fill="#7A7A7A" fill-opacity="0.5" fill-rule="nonzero" stroke="black" stroke-width="4.673498"/>
</g>
<g id="item_3">
<path d="M0,310 L0,119 L384,0 L384,70 L759,69 L758,310 z" fill="#7A7A7A" fill-opacity="0.5" fill-rule="nonzero" stroke="black" stroke-width="4.673498"/>
</g>
<g id="item_4">
<path d="M0,252 L0,75 L150,0 L148,175 z" fill="#7A7A7A" fill-opacity="0.5" fill-rule="nonzero" stroke="black" stroke-width="4.673498"/>
</g>
<g id="item_5">
<path d="M852,412 L503,414 L387,451 L355,505 L300,451 L45,325 L0,221 L0,154 L55,53 L145,16 L329,25 L407,35 L539,38 L597,51 L668,20 L736,0 L784,3 L849,194 z" fill="#7A7A7A" fill-opacity="0.5" fill-rule="nonzero" stroke="black" stroke-width="4.673498"/>
</g>
<g id="item_6">
<path d="M0,232 L827,0 L894,20 L975,258 L1097,260 L1003,500 L884,463 L845,453 L761,490 L732,547 L694,544 L616,477 L539,414 L0,426 z" fill="#7A7A7A" fill-opacity="0.5" fill-rule="nonzero" stroke="black" stroke-width="4.673498"/>
</g>
<g id="item_7">
<path d="M151,427 L97,266 L0,259 L75,28 L126,21 L191,61 L271,50 L316,64 L359,10 L436,6 L442,43 L694,75 L726,42 L1091,0 L1094,211 L1033,208 L987,346 L926,393 z" fill="#7A7A7A" fill-opacity="0.5" fill-rule="nonzero" stroke="black" stroke-width="4.673498"/>
</g>
<g id="item_8">
<path d="M0,0 L745,24 L619,196 L590,276 L522,260 L6,282 z" fill="#7A7A7A" fill-opacity="0.5" fill-rule="nonzero" stroke="black" stroke-width="4.673498"/>
</g>
</defs>
<use transform="translate(1157.2917 1747.3398), rotate(-180)" xlink:href="#item_6">
<title>item, id: 6, transf: [r: -180.000°, t: (1157.292, 1747.340)]</title>
</use>
<use transform="translate(358.92944 1507.4904), rotate(0)" xlink:href="#item_6">
<title>item, id: 6, transf: [r: 0.000°, t: (358.929, 1507.490)]</title>
</use>
<use transform="translate(1455.137 427.01306), rotate(-180)" xlink:href="#item_7">
<title>item, id: 7, transf: [r: -180.000°, t: (1455.137, 427.013)]</title>
</use>
<use transform="translate(1699.437 745.2796), rotate(90)" xlink:href="#item_7">
<title>item, id: 7, transf: [r: 90.000°, t: (1699.437, 745.280)]</title>
</use>
<use transform="translate(407.00696 157.18854), rotate(90)" xlink:href="#item_0">
<title>item, id: 0, transf: [r: 90.000°, t: (407.007, 157.189)]</title>
</use>
<use transform="translate(324.04712 2142.9998), rotate(0)" xlink:href="#item_0">
<title>item, id: 0, transf: [r: 0.000°, t: (324.047, 2143.000)]</title>
</use>
<use transform="translate(1160.9729 862.7368), rotate(-180)" xlink:href="#item_5">
<title>item, id: 5, transf: [r: -180.000°, t: (1160.973, 862.737)]</title>
</use>
<use transform="translate(369.30466 825.58514), rotate(0)" xlink:href="#item_5">
<title>item, id: 5, transf: [r: 0.000°, t: (369.305, 825.585)]</title>
</use>
<use transform="translate(1389.4437 759.0398), rotate(-90)" xlink:href="#item_3">
<title>item, id: 3, transf: [r: -90.000°, t: (1389.444, 759.040)]</title>
</use>
<use transform="translate(310.00717 1515.0608), rotate(90)" xlink:href="#item_3">
<title>item, id: 3, transf: [r: 90.000°, t: (310.007, 1515.061)]</title>
</use>
<use transform="translate(1417.4491 2549.9087), rotate(-90)" xlink:href="#item_8">
<title>item, id: 8, transf: [r: -90.000°, t: (1417.449, 2549.909)]</title>
</use>
<use transform="translate(240.33905 1969.5251), rotate(0)" xlink:href="#item_8">
<title>item, id: 8, transf: [r: 0.000°, t: (240.339, 1969.525)]</title>
</use>
<use transform="translate(0.3862152 2274.9902), rotate(0)" xlink:href="#item_1">
<title>item, id: 1, transf: [r: 0.000°, t: (0.386, 2274.990)]</title>
</use>
<use transform="translate(1435.6016 523.99585), rotate(90)" xlink:href="#item_1">
<title>item, id: 1, transf: [r: 90.000°, t: (1435.602, 523.996)]</title>
</use>
<use transform="translate(438.22418 16.491554), rotate(90)" xlink:href="#item_4">
<title>item, id: 4, transf: [r: 90.000°, t: (438.224, 16.492)]</title>
</use>
<use transform="translate(0.0053100586 158.36856), rotate(-90)" xlink:href="#item_4">
<title>item, id: 4, transf: [r: -90.000°, t: (0.005, 158.369)]</title>
</use>
<use transform="translate(1209.4542 1321.9822), rotate(-180)" xlink:href="#item_2">
<title>item, id: 2, transf: [r: -180.000°, t: (1209.454, 1321.982)]</title>
</use>
<use transform="translate(1360.7849 485.41116), rotate(-180)" xlink:href="#item_2">
<title>item, id: 2, transf: [r: -180.000°, t: (1360.785, 485.411)]</title>
</use>
<use transform="translate(948.8771 2079.2378), rotate(0)" xlink:href="#item_2">
<title>item, id: 2, transf: [r: 0.000°, t: (948.877, 2079.238)]</title>
</use>
<use transform="translate(1190.0209 2012.5775), rotate(0)" xlink:href="#item_2">
<title>item, id: 2, transf: [r: 0.000°, t: (1190.021, 2012.578)]</title>
</use>
</g>
<g id="quality_zones"/>
<g id="optionals">
<g id="overlap_lines" transform="translate(0 0), rotate(0)"/>
</g>
<text font-family="monospace" font-size="42.486343" font-weight="500" x="0" y="-21.243172">
height: 2550.000 | width: 1699.454 | usage: 86.732% | final_bench_17
</text>
</svg>