<svg viewBox="-85.25884 -127.50003 1875.694 2805" xmlns="http://www.w3.org/2000/svg" xmlns:xlink="http://www.w3.org/1999/xlink">
<g id="bin_0">
<path d="M0,0 L1705.1764,0 L1705.1764,2550 L0,2550 z" fill="#D3D3D3" stroke="black" stroke-width="9.37847"/>
<title>bin, id: 0, bbox: [x_min: 0.000, y_min: 0.000, x_max: 1705.176, y_max: 2550.000]</title>
</g>
<g id="items">
<defs>
<g id="item_0">
<path d="M10,115 L478,113 L727,21 L856,44 L930,47 L1049,0 L1097,295 L1078,396 L0,407 z" fill="#7A7A7A" fill-opacity="0.5" fill-rule="nonzero" stroke="black" stroke-width="4.689235"/>
</g>
<g id="item_1">
<path d="M0,0 L316,2 L316,274 L0,275 z" fill="#7A7A7A" fill-opacity="0.5" fill-rule="nonzero" stroke="black" stroke-width="4.689235"/>
</g>
<g id="item_2">
<path d="M0,1 L239,0 L242,80 L0,78 z" fill="#7A7A7A" fill-opacity="0.5" fill-rule="nonzero" stroke="black" stroke-width="4.689235"/>
</g>
<g id="item_3">
<path d="M0,310 L0,119 L384,0 L384,70 L759,69 L758,310 z" fill="#7A7A7A" fill-opacity="0.5" fill-rule="nonzero" stroke="black" stroke-width="4.689235"/>
</g>
<g id="item_4">
<path d="M0,252 L0,75 L150,0 L148,175 z" fill="#7A7A7A" fill-opacity="0.5" fill-rule="nonzero" stroke="black" stroke-width="4.689235"/>
</g>
<g id="item_5">
<path d="M852,412 L503,414 L387,451 L355,505 L300,451 L45,325 L0,221 L0,154 L55,53 L145,16 L329,25 L407,35 L539,38 L597,51 L668,20 L736,0 L784,3 L849,194 z" fill="#7A7A7A" fill-opacity="0.5" fill-rule="nonzero" stroke="black" stroke-width="4.689235"/>
</g>
<g id="item_6">
<path d="M0,232 L827,0 L894,20 L975,258 L1097,260 L1003,500 L884,463 L845,453 L761,490 L732,547 L694,544 L616,477 L539,414 L0,426 z" fill="#7A7A7A" fill-opacity="0.5" fill-rule="nonzero" stroke="black" stroke-width="4.689235"/>
</g>
<g id="item_7">
<path d="M151,427 L97,266 L0,259 L75,28 L126,21 L191,61 L271,50 L316,64 L359,10 L436,6 L442,43 L694,75 L726,42 L1091,0 L1094,211 L1033,208 L987,346 L926,393 z" fill="#7A7A7A" fill-opacity="0.5" fill-rule="nonzero" stroke="black" stroke-width="4.689235"/>
</g>
<g id="item_8">
<path d="M0,0 L745,24 L619,196 L590,276 L522,260 L6,282 z" fill="#7A7A7A" fill-opacity="0.5" fill-rule="nonzero" stroke="black" stroke-width="4.689235"/>
</g>
</defs>
<use transform="translate(864.13385 1142.2367), rotate(-90)" xlink:href="#item_6">
<title>item, id: 6, transf: [r: -90.000°, t: (864.134, 1142.237)]</title>
</use>
<use transform="translate(1110.5105 366.5221), rotate(90)" xlink:href="#item_6">
<title>item, id: 6, transf: [r: 90.000°, t: (1110.510, 366.522)]</title>
</use>
<use transform="translate(1291.2767 2549.9932), rotate(-180)" xlink:href="#item_7">
<title>item, id: 7, transf: [r: -180.000°, t: (1291.277, 2549.993)]</title>
</use>
<use transform="translate(1278.1686 1695.4841), rotate(-90)" xlink:href="#item_7">
<title>item, id: 7, transf: [r: -90.000°, t: (1278.169, 1695.484)]</title>
</use>
<use transform="translate(407.00015 4.977417), rotate(90)" xlink:href="#item_0">
<title>item, id: 0, transf: [r: 90.000°, t: (407.000, 4.977)]</title>
</use>
<use transform="translate(407.00873 1101.1978), rotate(90)" xlink:href="#item_0">
<title>item, id: 0, transf: [r: 90.000°, t: (407.009, 1101.198)]</title>
</use>
<use transform="translate(1705.1716 1697.9531), rotate(90)" xlink:href="#item_5">
<title>item, id: 5, transf: [r: 90.000°, t: (1705.172, 1697.953)]</title>
</use>
<use transform="translate(863.93805 2120.6763), rotate(-90)" xlink:href="#item_5">
<title>item, id: 5, transf: [r: -90.000°, t: (863.938, 2120.676)]</title>
</use>
<use transform="translate(300.29285 1935.5867), rotate(-90)" xlink:href="#item_3">
<title>item, id: 3, transf: [r: -90.000°, t: (300.293, 1935.587)]</title>
</use>
<use transform="translate(1052.2892 310.00092), rotate(-180)" xlink:href="#item_3">
<title>item, id: 3, transf: [r: -180.000°, t: (1052.289, 310.001)]</title>
</use>
<use transform="translate(604.11255 2127.4849), rotate(-90)" xlink:href="#item_8">
<title>item, id: 8, transf: [r: -90.000°, t: (604.113, 2127.485)]</title>
</use>
<use transform="translate(655.2943 240.08557), rotate(90)" xlink:href="#item_8">
<title>item, id: 8, transf: [r: 90.000°, t: (655.294, 240.086)]</title>
</use>
<use transform="translate(1367.0901 9.167633), rotate(0)" xlink:href="#item_1">
<title>item, id: 1, transf: [r: 0.000°, t: (1367.090, 9.168)]</title>
</use>
<use transform="translate(1415.8712 601.46387), rotate(-90)" xlink:href="#item_1">
<title>item, id: 1, transf: [r: -90.000°, t: (1415.871, 601.464)]</title>
</use>
<use transform="translate(197.27519 2529.807), rotate(-180)" xlink:href="#item_4">
<title>item, id: 4, transf: [r: -180.000°, t: (197.275, 2529.807)]</title>
</use>
<use transform="translate(361.53952 2146.0989), rotate(-90)" xlink:href="#item_4">
<title>item, id: 4, transf: [r: -90.000°, t: (361.540, 2146.099)]</title>
</use>
<use transform="translate(374.06125 241.11606), rotate(90)" xlink:href="#item_2">
<title>item, id: 2, transf: [r: 90.000°, t: (374.061, 241.116)]</title>
</use>
<use transform="translate(406.28146 1120.9677), rotate(-90)" xlink:href="#item_2">
<title>item, id: 2, transf: [r: -90.000°, t: (406.281, 1120.968)]</title>
</use>
<use transform="translate(563.82086 934.9629), rotate(90)" xlink:href="#item_2">
<title>item, id: 2, transf: [r: 90.000°, t: (563.821, 934.963)]</title>
</use>
<use transform="translate(261.05206 2277.4712), rotate(-180)" xlink:href="#item_2">
<title>item, id: 2, transf: [r: -180.000°, t: (261.052, 2277.471)]</title>
</use>
</g>
<g id="quality_zones"/>
<g id="optionals">
<g id="overlap_lines" transform="translate(0 0), rotate(0)"/>
</g>
<text font-family="monospace" font-size="42.62941" font-weight="500" x="0" y="-21.314705">
height: 2550.000 | width: 1705.176 | usage: 86.441% | final_bench_23
</text>
</svg>