<svg viewBox="-85.13663 -127.50003 1873.0054 2805" xmlns="http://www.w3.org/2000/svg" xmlns:xlink="http://www.w3.org/1999/xlink">
<g id="bin_0">
<path d="M0,0 L1702.7322,0 L1702.7322,2550 L0,2550 z" fill="#D3D3D3" stroke="black" stroke-width="9.365027"/>
<title>bin, id: 0, bbox: [x_min: 0.000, y_min: 0.000, x_max: 1702.732, y_max: 2550.000]</title>
</g>
<g id="items">
<defs>
<g id="item_0">
<path d="M10,115 L478,113 L727,21 L856,44 L930,47 L1049,0 L1097,295 L1078,396 L0,407 z" fill="#7A7A7A" fill-opacity="0.5" fill-rule="nonzero" stroke="black" stroke-width="4.6825137"/>
</g>
<g id="item_1">
<path d="M0,0 L316,2 L316,274 L0,275 z" fill="#7A7A7A" fill-opacity="0.5" fill-rule="nonzero" stroke="black" stroke-width="4.6825137"/>
</g>
<g id="item_2">
<path d="M0,1 L239,0 L242,80 L0,78 z" fill="#7A7A7A" fill-opacity="0.5" fill-rule="nonzero" stroke="black" stroke-width="4.6825137"/>
</g>
<g id="item_3">
<path d="M0,310 L0,119 L384,0 L384,70 L759,69 L758,310 z" fill="#7A7A7A" fill-opacity="0.5" fill-rule="nonzero" stroke="black" stroke-width="4.6825137"/>
</g>
<g id="item_4">
<path d="M0,252 L0,75 L150,0 L148,175 z" fill="#7A7A7A" fill-opacity="0.5" fill-rule="nonzero" stroke="black" stroke-width="4.6825137"/>
</g>
<g id="item_5">
<path d="M852,412 L503,414 L387,451 L355,505 L300,451 L45,325 L0,221 L0,154 L55,53 L145,16 L329,25 L407,35 L539,38 L597,51 L668,20 L736,0 L784,3 L849,194 z" fill="#7A7A7A" fill-opacity="0.5" fill-rule="nonzero" stroke="black" stroke-width="4.6825137"/>
</g>
<g id="item_6">
<path d="M0,232 L827,0 L894,20 L975,258 L1097,260 L1003,500 L884,463 L845,453 L761,490 L732,547 L694,544 L616,477 L539,414 L0,426 z" fill="#7A7A7A" fill-opacity="0.5" fill-rule="nonzero" stroke="black" stroke-width="4.6825137"/>
</g>
<g id="item_7">
<path d="M151,427 L97,266 L0,259 L75,28 L126,21 L191,61 L271,50 L316,64 L359,10 L436,6 L442,43 L694,75 L726,42 L1091,0 L1094,211 L1033,208 L987,346 L926,393 z" fill="#7A7A7A" fill-opacity="0.5" fill-rule="nonzero" stroke="black" stroke-width="4.6825137"/>
</g>
<g id="item_8">
<path d="M0,0 L745,24 L619,196 L590,276 L522,260 L6,282 z" fill="#7A7A7A" fill-opacity="0.5" fill-rule="nonzero" stroke="black" stroke-width="4.6825137"/>
</g>
</defs>
<use transform="translate(499.91296 547.17346), rotate(0)" xlink:href="#item_6">
<title>item, id: 6, transf: [r: 0.000°, t: (499.913, 547.173)]</title>
</use>
<use transform="translate(1370.5823 766.9219), rotate(-180)" xlink:href="#item_6">
<title>item, id: 6, transf: [r: -180.000°, t: (1370.582, 766.922)]</title>
</use>
<use transform="translate(986.153 2549.7314), rotate(-90)" xlink:href="#item_7">
<title>item, id: 7, transf: [r: -90.000°, t: (986.153, 2549.731)]</title>
</use>
<use transform="translate(1021.2649 1455.9912), rotate(90)" xlink:href="#item_7">
<title>item, id: 7, transf: [r: 90.000°, t: (1021.265, 1455.991)]</title>
</use>
<use transform="translate(196.66649 2549.9045), rotate(-90)" xlink:href="#item_0">
<title>item, id: 0, transf: [r: -90.000°, t: (196.666, 2549.905)]</title>
</use>
<use transform="translate(1295.7064 2180.9482), rotate(-90)" xlink:href="#item_0">
<title>item, id: 0, transf: [r: -90.000°, t: (1295.706, 2180.948)]</title>
</use>
<use transform="translate(505.167 633.08545), rotate(90)" xlink:href="#item_5">
<title>item, id: 5, transf: [r: 90.000°, t: (505.167, 633.085)]</title>
</use>
<use transform="translate(1339.1713 1467.5555), rotate(-180)" xlink:href="#item_5">
<title>item, id: 5, transf: [r: -180.000°, t: (1339.171, 1467.556)]</title>
</use>
<use transform="translate(1392.727 769.66693), rotate(-90)" xlink:href="#item_3">
<title>item, id: 3, transf: [r: -90.000°, t: (1392.727, 769.667)]</title>
</use>
<use transform="translate(310.05038 1790.9058), rotate(90)" xlink:href="#item_3">
<title>item, id: 3, transf: [r: 90.000°, t: (310.050, 1790.906)]</title>
</use>
<use transform="translate(7.9100647 0.00047302246), rotate(0)" xlink:href="#item_8">
<title>item, id: 8, transf: [r: 0.000°, t: (7.910, 0.000)]</title>
</use>
<use transform="translate(1462.4349 282.01117), rotate(-180)" xlink:href="#item_8">
<title>item, id: 8, transf: [r: -180.000°, t: (1462.435, 282.011)]</title>
</use>
<use transform="translate(1427.6989 2549.9272), rotate(-90)" xlink:href="#item_1">
<title>item, id: 1, transf: [r: -90.000°, t: (1427.699, 2549.927)]</title>
</use>
<use transform="translate(275.00284 282.22495), rotate(90)" xlink:href="#item_1">
<title>item, id: 1, transf: [r: 90.000°, t: (275.003, 282.225)]</title>
</use>
<use transform="translate(200.57301 1790.8853), rotate(-180)" xlink:href="#item_4">
<title>item, id: 4, transf: [r: -180.000°, t: (200.573, 1790.885)]</title>
</use>
<use transform="translate(1702.699 1090.0103), rotate(-180)" xlink:href="#item_4">
<title>item, id: 4, transf: [r: -180.000°, t: (1702.699, 1090.010)]</title>
</use>
<use transform="translate(82.46945 1348.8988), rotate(90)" xlink:href="#item_2">
<title>item, id: 2, transf: [r: 90.000°, t: (82.469, 1348.899)]</title>
</use>
<use transform="translate(81.33898 1106.3082), rotate(90)" xlink:href="#item_2">
<title>item, id: 2, transf: [r: 90.000°, t: (81.339, 1106.308)]</title>
</use>
<use transform="translate(1067.9368 348.11658), rotate(-180)" xlink:href="#item_2">
<title>item, id: 2, transf: [r: -180.000°, t: (1067.937, 348.117)]</title>
</use>
<use transform="translate(543.56226 973.01355), rotate(0)" xlink:href="#item_2">
<title>item, id: 2, transf: [r: 0.000°, t: (543.562, 973.014)]</title>
</use>
</g>
<g id="quality_zones"/>
<g id="optionals">
<g id="overlap_lines" transform="translate(0 0), rotate(0)"/>
</g>
<text font-family="monospace" font-size="42.568306" font-weight="500" x="0" y="-21.284153">
height: 2550.000 | width: 1702.732 | usage: 86.565% | final_bench_68
</text>
</svg>