<svg viewBox="-85.8028 -127.50003 1887.6614 2805" xmlns="http://www.w3.org/2000/svg" xmlns:xlink="http://www.w3.org/1999/xlink">
<g id="bin_0">
<path d="M0,0 L1716.0557,0 L1716.0557,2550 L0,2550 z" fill="#D3D3D3" stroke="black" stroke-width="9.438307"/>
<title>bin, id: 0, bbox: [x_min: 0.000, y_min: 0.000, x_max: 1716.056, y_max: 2550.000]</title>
</g>
<g id="items">
<defs>
<g id="item_0">
<path d="M10,115 L478,113 L727,21 L856,44 L930,47 L1049,0 L1097,295 L1078,396 L0,407 z" fill="#7A7A7A" fill-opacity="0.5" fill-rule="nonzero" stroke="black" stroke-width="4.7191534"/>
</g>
<g id="item_1">
<path d="M0,0 L316,2 L316,274 L0,275 z" fill="#7A7A7A" fill-opacity="0.5" fill-rule="nonzero" stroke="black" stroke-width="4.7191534"/>
</g>
<g id="item_2">
<path d="M0,1 L239,0 L242,80 L0,78 z" fill="#7A7A7A" fill-opacity="0.5" fill-rule="nonzero" stroke="black" stroke-width="4.7191534"/>
</g>
<g id="item_3">
<path d="M0,310 L0,119 L384,0 L384,70 L759,69 L758,310 z" fill="#7A7A7A" fill-opacity="0.5" fill-rule="nonzero" stroke="black" stroke-width="4.7191534"/>
</g>
<g id="item_4">
<path d="M0,252 L0,75 L150,0 L148,175 z" fill="#7A7A7A" fill-opacity="0.5" fill-rule="nonzero" stroke="black" stroke-width="4.7191534"/>
</g>
<g id="item_5">
<path d="M852,412 L503,414 L387,451 L355,505 L300,451 L45,325 L0,221 L0,154 L55,53 L145,16 L329,25 L407,35 L539,38 L597,51 L668,20 L736,0 L784,3 L849,194 z" fill="#7A7A7A" fill-opacity="0.5" fill-rule="nonzero" stroke="black" stroke-width="4.7191534"/>
</g>
<g id="item_6">
<path d="M0,232 L827,0 L894,20 L975,258 L1097,260 L1003,500 L884,463 L845,453 L761,490 L732,547 L694,544 L616,477 L539,414 L0,426 z" fill="#7A7A7A" fill-opacity="0.5" fill-rule="nonzero" stroke="black" stroke-width="4.7191534"/>
</g>
<g id="item_7">
<path d="M151,427 L97,266 L0,259 L75,28 L126,21 L191,61 L271,50 L316,64 L359,10 L436,6 L442,43 L694,75 L726,42 L1091,0 L1094,211 L1033,208 L987,346 L926,393 z" fill="#7A7A7A" fill-opacity="0.5" fill-rule="nonzero" stroke="black" stroke-width="4.7191534"/>
</g>
<g id="item_8">
<path d="M0,0 L745,24 L619,196 L590,276 L522,260 L6,282 z" fill="#7A7A7A" fill-opacity="0.5" fill-rule="nonzero" stroke="black" stroke-width="4.7191534"/>
</g>
</defs>
<use transform="translate(149.05344 2428.2441), rotate(-90)" xlink:href="#item_6">
<title>item, id: 6, transf: [r: -90.000°, t: (149.053, 2428.244)]</title>
</use>
<use transform="translate(618.83813 264.72476), rotate(0)" xlink:href="#item_6">
<title>item, id: 6, transf: [r: 0.000°, t: (618.838, 264.725)]</title>
</use>
<use transform="translate(896.0136 1797.4116), rotate(-90)" xlink:href="#item_7">
<title>item, id: 7, transf: [r: -90.000°, t: (896.014, 1797.412)]</title>
</use>
<use transform="translate(1716.0526 721.081), rotate(90)" xlink:href="#item_7">
<title>item, id: 7, transf: [r: 90.000°, t: (1716.053, 721.081)]</title>
</use>
<use transform="translate(618.9774 2142.974), rotate(0)" xlink:href="#item_0">
<title>item, id: 0, transf: [r: 0.000°, t: (618.977, 2142.974)]</title>
</use>
<use transform="translate(407.02142 403.31305), rotate(90)" xlink:href="#item_0">
<title>item, id: 0, transf: [r: 90.000°, t: (407.021, 403.313)]</title>
</use>
<use transform="translate(68.30798 0.0026550293), rotate(0)" xlink:href="#item_5">
<title>item, id: 5, transf: [r: 0.000°, t: (68.308, 0.003)]</title>
</use>
<use transform="translate(578.72485 1751.3564), rotate(0)" xlink:href="#item_5">
<title>item, id: 5, transf: [r: 0.000°, t: (578.725, 1751.356)]</title>
</use>
<use transform="translate(310.00076 1790.9731), rotate(90)" xlink:href="#item_3">
<title>item, id: 3, transf: [r: 90.000°, t: (310.001, 1790.973)]</title>
</use>
<use transform="translate(308.7104 1263.9661), rotate(-90)" xlink:href="#item_3">
<title>item, id: 3, transf: [r: -90.000°, t: (308.710, 1263.966)]</title>
</use>
<use transform="translate(956.0294 0.000091552734), rotate(0)" xlink:href="#item_8">
<title>item, id: 8, transf: [r: 0.000°, t: (956.029, 0.000)]</title>
</use>
<use transform="translate(913.4525 1006.322), rotate(90)" xlink:href="#item_8">
<title>item, id: 8, transf: [r: 90.000°, t: (913.453, 1006.322)]</title>
</use>
<use transform="translate(618.9144 1006.70654), rotate(-90)" xlink:href="#item_1">
<title>item, id: 1, transf: [r: -90.000°, t: (618.914, 1006.707)]</title>
</use>
<use transform="translate(1431.7948 2141.6753), rotate(-90)" xlink:href="#item_1">
<title>item, id: 1, transf: [r: -90.000°, t: (1431.795, 2141.675)]</title>
</use>
<use transform="translate(0.16024017 1502.5007), rotate(0)" xlink:href="#item_4">
<title>item, id: 4, transf: [r: 0.000°, t: (0.160, 1502.501)]</title>
</use>
<use transform="translate(1715.9729 392.25342), rotate(-180)" xlink:href="#item_4">
<title>item, id: 4, transf: [r: -180.000°, t: (1715.973, 392.253)]</title>
</use>
<use transform="translate(820.2829 2257.9407), rotate(-180)" xlink:href="#item_2">
<title>item, id: 2, transf: [r: -180.000°, t: (820.283, 2257.941)]</title>
</use>
<use transform="translate(310.5938 2469.9993), rotate(0)" xlink:href="#item_2">
<title>item, id: 2, transf: [r: 0.000°, t: (310.594, 2469.999)]</title>
</use>
<use transform="translate(378.14337 476.7759), rotate(90)" xlink:href="#item_2">
<title>item, id: 2, transf: [r: 90.000°, t: (378.143, 476.776)]</title>
</use>
<use transform="translate(323.81024 2224.8577), rotate(90)" xlink:href="#item_2">
<title>item, id: 2, transf: [r: 90.000°, t: (323.810, 2224.858)]</title>
</use>
</g>
<g id="quality_zones"/>
<g id="optionals">
<g id="overlap_lines" transform="translate(0 0), rotate(0)"/>
</g>
<text font-family="monospace" font-size="42.901394" font-weight="500" x="0" y="-21.450697">
height: 2550.000 | width: 1716.056 | usage: 85.893% | final_bench_54
</text>
</svg>