<svg viewBox="-86.511566 -127.50003 1903.254 2805" xmlns="http://www.w3.org/2000/svg" xmlns:xlink="http://www.w3.org/1999/xlink">
<g id="bin_0">
<path d="M0,0 L1730.2308,0 L1730.2308,2550 L0,2550 z" fill="#D3D3D3" stroke="black" stroke-width="9.516271"/>
<title>bin, id: 0, bbox: [x_min: 0.000, y_min: 0.000, x_max: 1730.231, y_max: 2550.000]</title>
</g>
<g id="items">
<defs>
<g id="item_0">
<path d="M10,115 L478,113 L727,21 L856,44 L930,47 L1049,0 L1097,295 L1078,396 L0,407 z" fill="#7A7A7A" fill-opacity="0.5" fill-rule="nonzero" stroke="black" stroke-width="4.7581353"/>
</g>
<g id="item_1">
<path d="M0,0 L316,2 L316,274 L0,275 z" fill="#7A7A7A" fill-opacity="0.5" fill-rule="nonzero" stroke="black" stroke-width="4.7581353"/>
</g>
<g id="item_2">
<path d="M0,1 L239,0 L242,80 L0,78 z" fill="#7A7A7A" fill-opacity="0.5" fill-rule="nonzero" stroke="black" stroke-width="4.7581353"/>
</g>
<g id="item_3">
<path d="M0,310 L0,119 L384,0 L384,70 L759,69 L758,310 z" fill="#7A7A7A" fill-opacity="0.5" fill-rule="nonzero" stroke="black" stroke-width="4.7581353"/>
</g>
<g id="item_4">
<path d="M0,252 L0,75 L150,0 L148,175 z" fill="#7A7A7A" fill-opacity="0.5" fill-rule="nonzero" stroke="black" stroke-width="4.7581353"/>
</g>
<g id="item_5">
<path d="M852,412 L503,414 L387,451 L355,505 L300,451 L45,325 L0,221 L0,154 L55,53 L145,16 L329,25 L407,35 L539,38 L597,51 L668,20 L736,0 L784,3 L849,194 z" fill="#7A7A7A" fill-opacity="0.5" fill-rule="nonzero" stroke="black" stroke-width="4.7581353"/>
</g>
<g id="item_6">
<path d="M0,232 L827,0 L894,20 L975,258 L1097,260 L1003,500 L884,463 L845,453 L761,490 L732,547 L694,544 L616,477 L539,414 L0,426 z" fill="#7A7A7A" fill-opacity="0.5" fill-rule="nonzero" stroke="black" stroke-width="4.7581353"/>
</g>
<g id="item_7">
<path d="M151,427 L97,266 L0,259 L75,28 L126,21 L191,61 L271,50 L316,64 L359,10 L436,6 L442,43 L694,75 L726,42 L1091,0 L1094,211 L1033,208 L987,346 L926,393 z" fill="#7A7A7A" fill-opacity="0.5" fill-rule="nonzero" stroke="black" stroke-width="4.7581353"/>
</g>
<g id="item_8">
<path d="M0,0 L745,24 L619,196 L590,276 L522,260 L6,282 z" fill="#7A7A7A" fill-opacity="0.5" fill-rule="nonzero" stroke="black" stroke-width="4.7581353"/>
</g>
</defs>
<use transform="translate(1660.1439 417.6538), rotate(90)" xlink:href="#item_6">
<title>item, id: 6, transf: [r: 90.000°, t: (1660.144, 417.654)]</title>
</use>
<use transform="translate(843.9908 534.6566), rotate(90)" xlink:href="#item_6">
<title>item, id: 6, transf: [r: 90.000°, t: (843.991, 534.657)]</title>
</use>
<use transform="translate(0.011489868 1094.0645), rotate(-90)" xlink:href="#item_7">
<title>item, id: 7, transf: [r: -90.000°, t: (0.011, 1094.064)]</title>
</use>
<use transform="translate(1477.3308 1455.7854), rotate(90)" xlink:href="#item_7">
<title>item, id: 7, transf: [r: 90.000°, t: (1477.331, 1455.785)]</title>
</use>
<use transform="translate(1481.021 407.00983), rotate(-180)" xlink:href="#item_0">
<title>item, id: 0, transf: [r: -180.000°, t: (1481.021, 407.010)]</title>
</use>
<use transform="translate(652.9015 2545.3706), rotate(-90)" xlink:href="#item_0">
<title>item, id: 0, transf: [r: -90.000°, t: (652.901, 2545.371)]</title>
</use>
<use transform="translate(260.84314 2486.6755), rotate(-90)" xlink:href="#item_5">
<title>item, id: 5, transf: [r: -90.000°, t: (260.843, 2486.676)]</title>
</use>
<use transform="translate(737.8898 1174.4835), rotate(-90)" xlink:href="#item_5">
<title>item, id: 5, transf: [r: -90.000°, t: (737.890, 1174.484)]</title>
</use>
<use transform="translate(1415.0444 759.0168), rotate(-90)" xlink:href="#item_3">
<title>item, id: 3, transf: [r: -90.000°, t: (1415.044, 759.017)]</title>
</use>
<use transform="translate(1420.1614 2516.3518), rotate(-90)" xlink:href="#item_3">
<title>item, id: 3, transf: [r: -90.000°, t: (1420.161, 2516.352)]</title>
</use>
<use transform="translate(282.00128 1093.8417), rotate(90)" xlink:href="#item_8">
<title>item, id: 8, transf: [r: 90.000°, t: (282.001, 1093.842)]</title>
</use>
<use transform="translate(0.010253906 2549.98), rotate(-90)" xlink:href="#item_8">
<title>item, id: 8, transf: [r: -90.000°, t: (0.010, 2549.980)]</title>
</use>
<use transform="translate(1160.0847 1449.3875), rotate(-180)" xlink:href="#item_1">
<title>item, id: 1, transf: [r: -180.000°, t: (1160.085, 1449.387)]</title>
</use>
<use transform="translate(1455.2306 1757.1603), rotate(-90)" xlink:href="#item_1">
<title>item, id: 1, transf: [r: -90.000°, t: (1455.231, 1757.160)]</title>
</use>
<use transform="translate(766.865 2549.9792), rotate(-180)" xlink:href="#item_4">
<title>item, id: 4, transf: [r: -180.000°, t: (766.865, 2549.979)]</title>
</use>
<use transform="translate(765.63184 374.91498), rotate(90)" xlink:href="#item_4">
<title>item, id: 4, transf: [r: 90.000°, t: (765.632, 374.915)]</title>
</use>
<use transform="translate(1173.1041 308.36746), rotate(0)" xlink:href="#item_2">
<title>item, id: 2, transf: [r: 0.000°, t: (1173.104, 308.367)]</title>
</use>
<use transform="translate(1233.2062 389.14716), rotate(90)" xlink:href="#item_2">
<title>item, id: 2, transf: [r: 90.000°, t: (1233.206, 389.147)]</title>
</use>
<use transform="translate(1650.1844 1206.0133), rotate(-90)" xlink:href="#item_2">
<title>item, id: 2, transf: [r: -90.000°, t: (1650.184, 1206.013)]</title>
</use>
<use transform="translate(687.13275 793.3783), rotate(-90)" xlink:href="#item_2">
<title>item, id: 2, transf: [r: -90.000°, t: (687.133, 793.378)]</title>
</use>
</g>
<g id="quality_zones"/>
<g id="optionals">
<g id="overlap_lines" transform="translate(0 0), rotate(0)"/>
</g>
<text font-family="monospace" font-size="43.25577" font-weight="500" x="0" y="-21.627886">
height: 2550.000 | width: 1730.231 | usage: 85.189% | final_bench_80
</text>
</svg>