<svg viewBox="-86.224785 -127.50003 1896.9448 2805" xmlns="http://www.w3.org/2000/svg" xmlns:xlink="http://www.w3.org/1999/xlink">
<g id="bin_0">
<path d="M0,0 L1724.4954,0 L1724.4954,2550 L0,2550 z" fill="#D3D3D3" stroke="black" stroke-width="9.484724"/>
<title>bin, id: 0, bbox: [x_min: 0.000, y_min: 0.000, x_max: 1724.495, y_max: 2550.000]</title>
</g>
<g id="items">
<defs>
<g id="item_0">
<path d="M10,115 L478,113 L727,21 L856,44 L930,47 L1049,0 L1097,295 L1078,396 L0,407 z" fill="#7A7A7A" fill-opacity="0.5" fill-rule="nonzero" stroke="black" stroke-width="4.742362"/>
</g>
<g id="item_1">
<path d="M0,0 L316,2 L316,274 L0,275 z" fill="#7A7A7A" fill-opacity="0.5" fill-rule="nonzero" stroke="black" stroke-width="4.742362"/>
</g>
<g id="item_2">
<path d="M0,1 L239,0 L242,80 L0,78 z" fill="#7A7A7A" fill-opacity="0.5" fill-rule="nonzero" stroke="black" stroke-width="4.742362"/>
</g>
<g id="item_3">
<path d="M0,310 L0,119 L384,0 L384,70 L759,69 L758,310 z" fill="#7A7A7A" fill-opacity="0.5" fill-rule="nonzero" stroke="black" stroke-width="4.742362"/>
</g>
<g id="item_4">
<path d="M0,252 L0,75 L150,0 L148,175 z" fill="#7A7A7A" fill-opacity="0.5" fill-rule="nonzero" stroke="black" stroke-width="4.742362"/>
</g>
<g id="item_5">
<path d="M852,412 L503,414 L387,451 L355,505 L300,451 L45,325 L0,221 L0,154 L55,53 L145,16 L329,25 L407,35 L539,38 L597,51 L668,20 L736,0 L784,3 L849,194 z" fill="#7A7A7A" fill-opacity="0.5" fill-rule="nonzero" stroke="black" stroke-width="4.742362"/>
</g>
<g id="item_6">
<path d="M0,232 L827,0 L894,20 L975,258 L1097,260 L1003,500 L884,463 L845,453 L761,490 L732,547 L694,544 L616,477 L539,414 L0,426 z" fill="#7A7A7A" fill-opacity="0.5" fill-rule="nonzero" stroke="black" stroke-width="4.742362"/>
</g>
<g id="item_7">
<path d="M151,427 L97,266 L0,259 L75,28 L126,21 L191,61 L271,50 L316,64 L359,10 L436,6 L442,43 L694,75 L726,42 L1091,0 L1094,211 L1033,208 L987,346 L926,393 z" fill="#7A7A7A" fill-opacity="0.5" fill-rule="nonzero" stroke="black" stroke-width="4.742362"/>
</g>
<g id="item_8">
<path d="M0,0 L745,24 L619,196 L590,276 L522,260 L6,282 z" fill="#7A7A7A" fill-opacity="0.5" fill-rule="nonzero" stroke="black" stroke-width="4.742362"/>
</g>
</defs>
<use transform="translate(324.10016 333.7797), rotate(0)" xlink:href="#item_6">
<title>item, id: 6, transf: [r: 0.000°, t: (324.100, 333.780)]</title>
</use>
<use transform="translate(1724.4878 2299.2314), rotate(-180)" xlink:href="#item_6">
<title>item, id: 6, transf: [r: -180.000°, t: (1724.488, 2299.231)]</title>
</use>
<use transform="translate(1435.0428 788.61237), rotate(90)" xlink:href="#item_7">
<title>item, id: 7, transf: [r: 90.000°, t: (1435.043, 788.612)]</title>
</use>
<use transform="translate(613.57465 1844.4114), rotate(-90)" xlink:href="#item_7">
<title>item, id: 7, transf: [r: -90.000°, t: (613.575, 1844.411)]</title>
</use>
<use transform="translate(407.55014 1040.1743), rotate(90)" xlink:href="#item_0">
<title>item, id: 0, transf: [r: 90.000°, t: (407.550, 1040.174)]</title>
</use>
<use transform="translate(1317.4482 1097.0076), rotate(-90)" xlink:href="#item_0">
<title>item, id: 0, transf: [r: -90.000°, t: (1317.448, 1097.008)]</title>
</use>
<use transform="translate(19.854004 0.044128418), rotate(0)" xlink:href="#item_5">
<title>item, id: 5, transf: [r: 0.000°, t: (19.854, 0.044)]</title>
</use>
<use transform="translate(852.0032 2549.9988), rotate(-180)" xlink:href="#item_5">
<title>item, id: 5, transf: [r: -180.000°, t: (852.003, 2549.999)]</title>
</use>
<use transform="translate(1411.8212 1870.6157), rotate(-90)" xlink:href="#item_3">
<title>item, id: 3, transf: [r: -90.000°, t: (1411.821, 1870.616)]</title>
</use>
<use transform="translate(295.5496 1850.2227), rotate(-90)" xlink:href="#item_3">
<title>item, id: 3, transf: [r: -90.000°, t: (295.550, 1850.223)]</title>
</use>
<use transform="translate(1723.9849 2549.5117), rotate(-180)" xlink:href="#item_8">
<title>item, id: 8, transf: [r: -180.000°, t: (1723.985, 2549.512)]</title>
</use>
<use transform="translate(0.009628296 1040.1692), rotate(-90)" xlink:href="#item_8">
<title>item, id: 8, transf: [r: -90.000°, t: (0.010, 1040.169)]</title>
</use>
<use transform="translate(1038.9528 324.0035), rotate(-90)" xlink:href="#item_1">
<title>item, id: 1, transf: [r: -90.000°, t: (1038.953, 324.004)]</title>
</use>
<use transform="translate(601.4584 774.88196), rotate(90)" xlink:href="#item_1">
<title>item, id: 1, transf: [r: 90.000°, t: (601.458, 774.882)]</title>
</use>
<use transform="translate(1037.3783 358.13907), rotate(-180)" xlink:href="#item_4">
<title>item, id: 4, transf: [r: -180.000°, t: (1037.378, 358.139)]</title>
</use>
<use transform="translate(870.57275 2294.036), rotate(0)" xlink:href="#item_4">
<title>item, id: 4, transf: [r: 0.000°, t: (870.573, 2294.036)]</title>
</use>
<use transform="translate(1709.7628 2261.621), rotate(-180)" xlink:href="#item_2">
<title>item, id: 2, transf: [r: -180.000°, t: (1709.763, 2261.621)]</title>
</use>
<use transform="translate(624.2328 2031.5825), rotate(-180)" xlink:href="#item_2">
<title>item, id: 2, transf: [r: -180.000°, t: (624.233, 2031.583)]</title>
</use>
<use transform="translate(643.0834 1942.1179), rotate(-180)" xlink:href="#item_2">
<title>item, id: 2, transf: [r: -180.000°, t: (643.083, 1942.118)]</title>
</use>
<use transform="translate(1401.0552 1482.559), rotate(-90)" xlink:href="#item_2">
<title>item, id: 2, transf: [r: -90.000°, t: (1401.055, 1482.559)]</title>
</use>
</g>
<g id="quality_zones"/>
<g id="optionals">
<g id="overlap_lines" transform="translate(0 0), rotate(0)"/>
</g>
<text font-family="monospace" font-size="43.112385" font-weight="500" x="0" y="-21.556192">
height: 2550.000 | width: 1724.495 | usage: 85.472% | final_bench_73
</text>
</svg>