<svg viewBox="-86.562836 -127.50003 1904.3821 2805" xmlns="http://www.w3.org/2000/svg" xmlns:xlink="http://www.w3.org/1999/xlink">
<g id="bin_0">
<path d="M0,0 L1731.2563,0 L1731.2563,2550 L0,2550 z" fill="#D3D3D3" stroke="black" stroke-width="9.521912"/>
<title>bin, id: 0, bbox: [x_min: 0.000, y_min: 0.000, x_max: 1731.256, y_max: 2550.000]</title>
</g>
<g id="items">
<defs>
<g id="item_0">
<path d="M10,115 L478,113 L727,21 L856,44 L930,47 L1049,0 L1097,295 L1078,396 L0,407 z" fill="#7A7A7A" fill-opacity="0.5" fill-rule="nonzero" stroke="black" stroke-width="4.760956"/>
</g>
<g id="item_1">
<path d="M0,0 L316,2 L316,274 L0,275 z" fill="#7A7A7A" fill-opacity="0.5" fill-rule="nonzero" stroke="black" stroke-width="4.760956"/>
</g>
<g id="item_2">
<path d="M0,1 L239,0 L242,80 L0,78 z" fill="#7A7A7A" fill-opacity="0.5" fill-rule="nonzero" stroke="black" stroke-width="4.760956"/>
</g>
<g id="item_3">
<path d="M0,310 L0,119 L384,0 L384,70 L759,69 L758,310 z" fill="#7A7A7A" fill-opacity="0.5" fill-rule="nonzero" stroke="black" stroke-width="4.760956"/>
</g>
<g id="item_4">
<path d="M0,252 L0,75 L150,0 L148,175 z" fill="#7A7A7A" fill-opacity="0.5" fill-rule="nonzero" stroke="black" stroke-width="4.760956"/>
</g>
<g id="item_5">
<path d="M852,412 L503,414 L387,451 L355,505 L300,451 L45,325 L0,221 L0,154 L55,53 L145,16 L329,25 L407,35 L539,38 L597,51 L668,20 L736,0 L784,3 L849,194 z" fill="#7A7A7A" fill-opacity="0.5" fill-rule="nonzero" stroke="black" stroke-width="4.760956"/>
</g>
<g id="item_6">
<path d="M0,232 L827,0 L894,20 L975,258 L1097,260 L1003,500 L884,463 L845,453 L761,490 L732,547 L694,544 L616,477 L539,414 L0,426 z" fill="#7A7A7A" fill-opacity="0.5" fill-rule="nonzero" stroke="black" stroke-width="4.760956"/>
</g>
<g id="item_7">
<path d="M151,427 L97,266 L0,259 L75,28 L126,21 L191,61 L271,50 L316,64 L359,10 L436,6 L442,43 L694,75 L726,42 L1091,0 L1094,211 L1033,208 L987,346 L926,393 z" fill="#7A7A7A" fill-opacity="0.5" fill-rule="nonzero" stroke="black" stroke-width="4.760956"/>
</g>
<g id="item_8">
<path d="M0,0 L745,24 L619,196 L590,276 L522,260 L6,282 z" fill="#7A7A7A" fill-opacity="0.5" fill-rule="nonzero" stroke="black" stroke-width="4.760956"/>
</g>
</defs>
<use transform="translate(632.4304 1349.9562), rotate(0)" xlink:href="#item_6">
<title>item, id: 6, transf: [r: 0.000°, t: (632.430, 1349.956)]</title>
</use>
<use transform="translate(1731.2422 2314.8147), rotate(-180)" xlink:href="#item_6">
<title>item, id: 6, transf: [r: -180.000°, t: (1731.242, 2314.815)]</title>
</use>
<use transform="translate(1731.1255 3.840149), rotate(90)" xlink:href="#item_7">
<title>item, id: 7, transf: [r: 90.000°, t: (1731.125, 3.840)]</title>
</use>
<use transform="translate(910.20746 1094.0027), rotate(-90)" xlink:href="#item_7">
<title>item, id: 7, transf: [r: -90.000°, t: (910.207, 1094.003)]</title>
</use>
<use transform="translate(1004.28864 414.04523), rotate(90)" xlink:href="#item_0">
<title>item, id: 0, transf: [r: 90.000°, t: (1004.289, 414.045)]</title>
</use>
<use transform="translate(407.03986 1040.2717), rotate(90)" xlink:href="#item_0">
<title>item, id: 0, transf: [r: 90.000°, t: (407.040, 1040.272)]</title>
</use>
<use transform="translate(44.0744 0.22210693), rotate(0)" xlink:href="#item_5">
<title>item, id: 5, transf: [r: 0.000°, t: (44.074, 0.222)]</title>
</use>
<use transform="translate(852.0215 2549.9949), rotate(-180)" xlink:href="#item_5">
<title>item, id: 5, transf: [r: -180.000°, t: (852.021, 2549.995)]</title>
</use>
<use transform="translate(867.6976 2239.5688), rotate(0)" xlink:href="#item_3">
<title>item, id: 3, transf: [r: 0.000°, t: (867.698, 2239.569)]</title>
</use>
<use transform="translate(294.13074 1854.6885), rotate(-90)" xlink:href="#item_3">
<title>item, id: 3, transf: [r: -90.000°, t: (294.131, 1854.688)]</title>
</use>
<use transform="translate(0.0004119873 1040.2091), rotate(-90)" xlink:href="#item_8">
<title>item, id: 8, transf: [r: -90.000°, t: (0.000, 1040.209)]</title>
</use>
<use transform="translate(983.09863 1088.0083), rotate(0)" xlink:href="#item_8">
<title>item, id: 8, transf: [r: 0.000°, t: (983.099, 1088.008)]</title>
</use>
<use transform="translate(309.1128 1095.5656), rotate(-90)" xlink:href="#item_1">
<title>item, id: 1, transf: [r: -90.000°, t: (309.113, 1095.566)]</title>
</use>
<use transform="translate(596.04364 779.6433), rotate(-180)" xlink:href="#item_1">
<title>item, id: 1, transf: [r: -180.000°, t: (596.044, 779.643)]</title>
</use>
<use transform="translate(1580.6307 1275.6333), rotate(0)" xlink:href="#item_4">
<title>item, id: 4, transf: [r: 0.000°, t: (1580.631, 1275.633)]</title>
</use>
<use transform="translate(1731.2183 2158.1926), rotate(90)" xlink:href="#item_4">
<title>item, id: 4, transf: [r: 90.000°, t: (1731.218, 2158.193)]</title>
</use>
<use transform="translate(632.43964 2045.2778), rotate(-180)" xlink:href="#item_2">
<title>item, id: 2, transf: [r: -180.000°, t: (632.440, 2045.278)]</title>
</use>
<use transform="translate(1259.0608 2219.2166), rotate(0)" xlink:href="#item_2">
<title>item, id: 2, transf: [r: 0.000°, t: (1259.061, 2219.217)]</title>
</use>
<use transform="translate(1632.9647 2549.9998), rotate(-90)" xlink:href="#item_2">
<title>item, id: 2, transf: [r: -90.000°, t: (1632.965, 2550.000)]</title>
</use>
<use transform="translate(614.18164 1949.4838), rotate(-180)" xlink:href="#item_2">
<title>item, id: 2, transf: [r: -180.000°, t: (614.182, 1949.484)]</title>
</use>
</g>
<g id="quality_zones"/>
<g id="optionals">
<g id="overlap_lines" transform="translate(0 0), rotate(0)"/>
</g>
<text font-family="monospace" font-size="43.28141" font-weight="500" x="0" y="-21.640705">
height: 2550.000 | width: 1731.256 | usage: 85.139% | final_bench_69
</text>
</svg>