<svg viewBox="-86.6161 -127.50003 1905.5537 2805" xmlns="http://www.w3.org/2000/svg" xmlns:xlink="http://www.w3.org/1999/xlink">
<g id="bin_0">
<path d="M0,0 L1732.3215,0 L1732.3215,2550 L0,2550 z" fill="#D3D3D3" stroke="black" stroke-width="9.527769"/>
<title>bin, id: 0, bbox: [x_min: 0.000, y_min: 0.000, x_max: 1732.322, y_max: 2550.000]</title>
</g>
<g id="items">
<defs>
<g id="item_0">
<path d="M10,115 L478,113 L727,21 L856,44 L930,47 L1049,0 L1097,295 L1078,396 L0,407 z" fill="#7A7A7A" fill-opacity="0.5" fill-rule="nonzero" stroke="black" stroke-width="4.7638845"/>
</g>
<g id="item_1">
<path d="M0,0 L316,2 L316,274 L0,275 z" fill="#7A7A7A" fill-opacity="0.5" fill-rule="nonzero" stroke="black" stroke-width="4.7638845"/>
</g>
<g id="item_2">
<path d="M0,1 L239,0 L242,80 L0,78 z" fill="#7A7A7A" fill-opacity="0.5" fill-rule="nonzero" stroke="black" stroke-width="4.7638845"/>
</g>
<g id="item_3">
<path d="M0,310 L0,119 L384,0 L384,70 L759,69 L758,310 z" fill="#7A7A7A" fill-opacity="0.5" fill-rule="nonzero" stroke="black" stroke-width="4.7638845"/>
</g>
<g id="item_4">
<path d="M0,252 L0,75 L150,0 L148,175 z" fill="#7A7A7A" fill-opacity="0.5" fill-rule="nonzero" stroke="black" stroke-width="4.7638845"/>
</g>
<g id="item_5">
<path d="M852,412 L503,414 L387,451 L355,505 L300,451 L45,325 L0,221 L0,154 L55,53 L145,16 L329,25 L407,35 L539,38 L597,51 L668,20 L736,0 L784,3 L849,194 z" fill="#7A7A7A" fill-opacity="0.5" fill-rule="nonzero" stroke="black" stroke-width="4.7638845"/>
</g>
<g id="item_6">
<path d="M0,232 L827,0 L894,20 L975,258 L1097,260 L1003,500 L884,463 L845,453 L761,490 L732,547 L694,544 L616,477 L539,414 L0,426 z" fill="#7A7A7A" fill-opacity="0.5" fill-rule="nonzero" stroke="black" stroke-width="4.7638845"/>
</g>
<g id="item_7">
<path d="M151,427 L97,266 L0,259 L75,28 L126,21 L191,61 L271,50 L316,64 L359,10 L436,6 L442,43 L694,75 L726,42 L1091,0 L1094,211 L1033,208 L987,346 L926,393 z" fill="#7A7A7A" fill-opacity="0.5" fill-rule="nonzero" stroke="black" stroke-width="4.7638845"/>
</g>
<g id="item_8">
<path d="M0,0 L745,24 L619,196 L590,276 L522,260 L6,282 z" fill="#7A7A7A" fill-opacity="0.5" fill-rule="nonzero" stroke="black" stroke-width="4.7638845"/>
</g>
</defs>
<use transform="translate(1180.8805 1389.1036), rotate(-90)" xlink:href="#item_6">
<title>item, id: 6, transf: [r: -90.000°, t: (1180.880, 1389.104)]</title>
</use>
<use transform="translate(1399.6333 529.6437), rotate(90)" xlink:href="#item_6">
<title>item, id: 6, transf: [r: 90.000°, t: (1399.633, 529.644)]</title>
</use>
<use transform="translate(343.6443 2122.854), rotate(0)" xlink:href="#item_7">
<title>item, id: 7, transf: [r: 0.000°, t: (343.644, 2122.854)]</title>
</use>
<use transform="translate(1397.2837 2162.2288), rotate(-180)" xlink:href="#item_7">
<title>item, id: 7, transf: [r: -180.000°, t: (1397.284, 2162.229)]</title>
</use>
<use transform="translate(1325.2499 2492.0713), rotate(-90)" xlink:href="#item_0">
<title>item, id: 0, transf: [r: -90.000°, t: (1325.250, 2492.071)]</title>
</use>
<use transform="translate(407.0052 1.4419556), rotate(90)" xlink:href="#item_0">
<title>item, id: 0, transf: [r: 90.000°, t: (407.005, 1.442)]</title>
</use>
<use transform="translate(1.5346985 1339.0096), rotate(0)" xlink:href="#item_5">
<title>item, id: 5, transf: [r: 0.000°, t: (1.535, 1339.010)]</title>
</use>
<use transform="translate(566.3125 7.007126), rotate(0)" xlink:href="#item_5">
<title>item, id: 5, transf: [r: 0.000°, t: (566.312, 7.007)]</title>
</use>
<use transform="translate(310.0504 1790.8994), rotate(90)" xlink:href="#item_3">
<title>item, id: 3, transf: [r: 90.000°, t: (310.050, 1790.899)]</title>
</use>
<use transform="translate(93.57663 1028.7574), rotate(0)" xlink:href="#item_3">
<title>item, id: 3, transf: [r: 0.000°, t: (93.577, 1028.757)]</title>
</use>
<use transform="translate(653.7301 353.04858), rotate(90)" xlink:href="#item_8">
<title>item, id: 8, transf: [r: 90.000°, t: (653.730, 353.049)]</title>
</use>
<use transform="translate(630.1834 1098.3403), rotate(-90)" xlink:href="#item_8">
<title>item, id: 8, transf: [r: -90.000°, t: (630.183, 1098.340)]</title>
</use>
<use transform="translate(567.3276 0.57577515), rotate(90)" xlink:href="#item_1">
<title>item, id: 1, transf: [r: 90.000°, t: (567.328, 0.576)]</title>
</use>
<use transform="translate(1732.3136 275.0561), rotate(-180)" xlink:href="#item_1">
<title>item, id: 1, transf: [r: -180.000°, t: (1732.314, 275.056)]</title>
</use>
<use transform="translate(242.1937 2549.8992), rotate(-90)" xlink:href="#item_4">
<title>item, id: 4, transf: [r: -90.000°, t: (242.194, 2549.899)]</title>
</use>
<use transform="translate(1176.6046 1461.92), rotate(0)" xlink:href="#item_4">
<title>item, id: 4, transf: [r: 0.000°, t: (1176.605, 1461.920)]</title>
</use>
<use transform="translate(1716.5621 844.65857), rotate(90)" xlink:href="#item_2">
<title>item, id: 2, transf: [r: 90.000°, t: (1716.562, 844.659)]</title>
</use>
<use transform="translate(1713.6907 1132.7512), rotate(90)" xlink:href="#item_2">
<title>item, id: 2, transf: [r: 90.000°, t: (1713.691, 1132.751)]</title>
</use>
<use transform="translate(931.07874 1633.7865), rotate(0)" xlink:href="#item_2">
<title>item, id: 2, transf: [r: 0.000°, t: (931.079, 1633.786)]</title>
</use>
<use transform="translate(83.28667 1125.9111), rotate(90)" xlink:href="#item_2">
<title>item, id: 2, transf: [r: 90.000°, t: (83.287, 1125.911)]</title>
</use>
</g>
<g id="quality_zones"/>
<g id="optionals">
<g id="overlap_lines" transform="translate(0 0), rotate(0)"/>
</g>
<text font-family="monospace" font-size="43.30804" font-weight="500" x="0" y="-21.65402">
height: 2550.000 | width: 1732.322 | usage: 85.086% | final_bench_77
</text>
</svg>