<svg viewBox="-86.46214 -127.50003 1902.1667 2805" xmlns="http://www.w3.org/2000/svg" xmlns:xlink="http://www.w3.org/1999/xlink">
<g id="bin_0">
<path d="M0,0 L1729.2424,0 L1729.2424,2550 L0,2550 z" fill="#D3D3D3" stroke="black" stroke-width="9.510834"/>
<title>bin, id: 0, bbox: [x_min: 0.000, y_min: 0.000, x_max: 1729.242, y_max: 2550.000]</title>
</g>
<g id="items">
<defs>
<g id="item_0">
<path d="M10,115 L478,113 L727,21 L856,44 L930,47 L1049,0 L1097,295 L1078,396 L0,407 z" fill="#7A7A7A" fill-opacity="0.5" fill-rule="nonzero" stroke="black" stroke-width="4.755417"/>
</g>
<g id="item_1">
<path d="M0,0 L316,2 L316,274 L0,275 z" fill="#7A7A7A" fill-opacity="0.5" fill-rule="nonzero" stroke="black" stroke-width="4.755417"/>
</g>
<g id="item_2">
<path d="M0,1 L239,0 L242,80 L0,78 z" fill="#7A7A7A" fill-opacity="0.5" fill-rule="nonzero" stroke="black" stroke-width="4.755417"/>
</g>
<g id="item_3">
<path d="M0,310 L0,119 L384,0 L384,70 L759,69 L758,310 z" fill="#7A7A7A" fill-opacity="0.5" fill-rule="nonzero" stroke="black" stroke-width="4.755417"/>
</g>
<g id="item_4">
<path d="M0,252 L0,75 L150,0 L148,175 z" fill="#7A7A7A" fill-opacity="0.5" fill-rule="nonzero" stroke="black" stroke-width="4.755417"/>
</g>
<g id="item_5">
<path d="M852,412 L503,414 L387,451 L355,505 L300,451 L45,325 L0,221 L0,154 L55,53 L145,16 L329,25 L407,35 L539,38 L597,51 L668,20 L736,0 L784,3 L849,194 z" fill="#7A7A7A" fill-opacity="0.5" fill-rule="nonzero" stroke="black" stroke-width="4.755417"/>
</g>
<g id="item_6">
<path d="M0,232 L827,0 L894,20 L975,258 L1097,260 L1003,500 L884,463 L845,453 L761,490 L732,547 L694,544 L616,477 L539,414 L0,426 z" fill="#7A7A7A" fill-opacity="0.5" fill-rule="nonzero" stroke="black" stroke-width="4.755417"/>
</g>
<g id="item_7">
<path d="M151,427 L97,266 L0,259 L75,28 L126,21 L191,61 L271,50 L316,64 L359,10 L436,6 L442,43 L694,75 L726,42 L1091,0 L1094,211 L1033,208 L987,346 L926,393 z" fill="#7A7A7A" fill-opacity="0.5" fill-rule="nonzero" stroke="black" stroke-width="4.755417"/>
</g>
<g id="item_8">
<path d="M0,0 L745,24 L619,196 L590,276 L522,260 L6,282 z" fill="#7A7A7A" fill-opacity="0.5" fill-rule="nonzero" stroke="black" stroke-width="4.755417"/>
</g>
</defs>
<use transform="translate(546.4533 1906.8964), rotate(-90)" xlink:href="#item_6">
<title>item, id: 6, transf: [r: -90.000°, t: (546.453, 1906.896)]</title>
</use>
<use transform="translate(841.0436 1303.0283), rotate(90)" xlink:href="#item_6">
<title>item, id: 6, transf: [r: 90.000°, t: (841.044, 1303.028)]</title>
</use>
<use transform="translate(427.00256 750.1514), rotate(90)" xlink:href="#item_7">
<title>item, id: 7, transf: [r: 90.000°, t: (427.003, 750.151)]</title>
</use>
<use transform="translate(1094.0103 427.09552), rotate(-180)" xlink:href="#item_7">
<title>item, id: 7, transf: [r: -180.000°, t: (1094.010, 427.096)]</title>
</use>
<use transform="translate(1047.0597 1097.2769), rotate(-90)" xlink:href="#item_0">
<title>item, id: 0, transf: [r: -90.000°, t: (1047.060, 1097.277)]</title>
</use>
<use transform="translate(632.1406 2142.9954), rotate(0)" xlink:href="#item_0">
<title>item, id: 0, transf: [r: 0.000°, t: (632.141, 2142.995)]</title>
</use>
<use transform="translate(294.06046 395.88867), rotate(0)" xlink:href="#item_5">
<title>item, id: 5, transf: [r: 0.000°, t: (294.060, 395.889)]</title>
</use>
<use transform="translate(963.2327 2228.491), rotate(-90)" xlink:href="#item_5">
<title>item, id: 5, transf: [r: -90.000°, t: (963.233, 2228.491)]</title>
</use>
<use transform="translate(1419.2264 2099.3167), rotate(-90)" xlink:href="#item_3">
<title>item, id: 3, transf: [r: -90.000°, t: (1419.226, 2099.317)]</title>
</use>
<use transform="translate(310.02643 1782.6533), rotate(90)" xlink:href="#item_3">
<title>item, id: 3, transf: [r: 90.000°, t: (310.026, 1782.653)]</title>
</use>
<use transform="translate(1729.2089 0.0021972656), rotate(90)" xlink:href="#item_8">
<title>item, id: 8, transf: [r: 90.000°, t: (1729.209, 0.002)]</title>
</use>
<use transform="translate(1446.2228 1341.1711), rotate(-90)" xlink:href="#item_8">
<title>item, id: 8, transf: [r: -90.000°, t: (1446.223, 1341.171)]</title>
</use>
<use transform="translate(1424.7722 1375.2202), rotate(-180)" xlink:href="#item_1">
<title>item, id: 1, transf: [r: -180.000°, t: (1424.772, 1375.220)]</title>
</use>
<use transform="translate(0.37670898 743.16626), rotate(-90)" xlink:href="#item_1">
<title>item, id: 1, transf: [r: -90.000°, t: (0.377, 743.166)]</title>
</use>
<use transform="translate(399.50174 831.84436), rotate(0)" xlink:href="#item_4">
<title>item, id: 4, transf: [r: 0.000°, t: (399.502, 831.844)]</title>
</use>
<use transform="translate(328.60574 2546.7163), rotate(-90)" xlink:href="#item_4">
<title>item, id: 4, transf: [r: -90.000°, t: (328.606, 2546.716)]</title>
</use>
<use transform="translate(1065.618 1070.465), rotate(-90)" xlink:href="#item_2">
<title>item, id: 2, transf: [r: -90.000°, t: (1065.618, 1070.465)]</title>
</use>
<use transform="translate(888.7906 2210.636), rotate(-90)" xlink:href="#item_2">
<title>item, id: 2, transf: [r: -90.000°, t: (888.791, 2210.636)]</title>
</use>
<use transform="translate(320.69525 2166.7107), rotate(90)" xlink:href="#item_2">
<title>item, id: 2, transf: [r: 90.000°, t: (320.695, 2166.711)]</title>
</use>
<use transform="translate(464.67303 1297.0096), rotate(-90)" xlink:href="#item_2">
<title>item, id: 2, transf: [r: -90.000°, t: (464.673, 1297.010)]</title>
</use>
</g>
<g id="quality_zones"/>
<g id="optionals">
<g id="overlap_lines" transform="translate(0 0), rotate(0)"/>
</g>
<text font-family="monospace" font-size="43.23106" font-weight="500" x="0" y="-21.61553">
height: 2550.000 | width: 1729.242 | usage: 85.238% | final_bench_16
</text>
</svg>