<svg viewBox="-85.68302 -127.50003 1885.026 2805" xmlns="http://www.w3.org/2000/svg" xmlns:xlink="http://www.w3.org/1999/xlink">
<g id="bin_0">
<path d="M0,0 L1713.66,0 L1713.66,2550 L0,2550 z" fill="#D3D3D3" stroke="black" stroke-width="9.425131"/>
<title>bin, id: 0, bbox: [x_min: 0.000, y_min: 0.000, x_max: 1713.660, y_max: 2550.000]</title>
</g>
<g id="items">
<defs>
<g id="item_0">
<path d="M10,115 L478,113 L727,21 L856,44 L930,47 L1049,0 L1097,295 L1078,396 L0,407 z" fill="#7A7A7A" fill-opacity="0.5" fill-rule="nonzero" stroke="black" stroke-width="4.7125654"/>
</g>
<g id="item_1">
<path d="M0,0 L316,2 L316,274 L0,275 z" fill="#7A7A7A" fill-opacity="0.5" fill-rule="nonzero" stroke="black" stroke-width="4.7125654"/>
</g>
<g id="item_2">
<path d="M0,1 L239,0 L242,80 L0,78 z" fill="#7A7A7A" fill-opacity="0.5" fill-rule="nonzero" stroke="black" stroke-width="4.7125654"/>
</g>
<g id="item_3">
<path d="M0,310 L0,119 L384,0 L384,70 L759,69 L758,310 z" fill="#7A7A7A" fill-opacity="0.5" fill-rule="nonzero" stroke="black" stroke-width="4.7125654"/>
</g>
<g id="item_4">
<path d="M0,252 L0,75 L150,0 L148,175 z" fill="#7A7A7A" fill-opacity="0.5" fill-rule="nonzero" stroke="black" stroke-width="4.7125654"/>
</g>
<g id="item_5">
<path d="M852,412 L503,414 L387,451 L355,505 L300,451 L45,325 L0,221 L0,154 L55,53 L145,16 L329,25 L407,35 L539,38 L597,51 L668,20 L736,0 L784,3 L849,194 z" fill="#7A7A7A" fill-opacity="0.5" fill-rule="nonzero" stroke="black" stroke-width="4.7125654"/>
</g>
<g id="item_6">
<path d="M0,232 L827,0 L894,20 L975,258 L1097,260 L1003,500 L884,463 L845,453 L761,490 L732,547 L694,544 L616,477 L539,414 L0,426 z" fill="#7A7A7A" fill-opacity="0.5" fill-rule="nonzero" stroke="black" stroke-width="4.7125654"/>
</g>
<g id="item_7">
<path d="M151,427 L97,266 L0,259 L75,28 L126,21 L191,61 L271,50 L316,64 L359,10 L436,6 L442,43 L694,75 L726,42 L1091,0 L1094,211 L1033,208 L987,346 L926,393 z" fill="#7A7A7A" fill-opacity="0.5" fill-rule="nonzero" stroke="black" stroke-width="4.7125654"/>
</g>
<g id="item_8">
<path d="M0,0 L745,24 L619,196 L590,276 L522,260 L6,282 z" fill="#7A7A7A" fill-opacity="0.5" fill-rule="nonzero" stroke="black" stroke-width="4.7125654"/>
</g>
</defs>
<use transform="translate(331.0407 1782.1085), rotate(0)" xlink:href="#item_6">
<title>item, id: 6, transf: [r: 0.000°, t: (331.041, 1782.109)]</title>
</use>
<use transform="translate(1154.8792 2014.9646), rotate(-180)" xlink:href="#item_6">
<title>item, id: 6, transf: [r: -180.000°, t: (1154.879, 2014.965)]</title>
</use>
<use transform="translate(1387.2288 806.45886), rotate(-180)" xlink:href="#item_7">
<title>item, id: 7, transf: [r: -180.000°, t: (1387.229, 806.459)]</title>
</use>
<use transform="translate(0.32592773 0.0362854), rotate(0)" xlink:href="#item_7">
<title>item, id: 7, transf: [r: 0.000°, t: (0.326, 0.036)]</title>
</use>
<use transform="translate(1306.6437 1097.0688), rotate(-90)" xlink:href="#item_0">
<title>item, id: 0, transf: [r: -90.000°, t: (1306.644, 1097.069)]</title>
</use>
<use transform="translate(407.00186 424.33295), rotate(90)" xlink:href="#item_0">
<title>item, id: 0, transf: [r: 90.000°, t: (407.002, 424.333)]</title>
</use>
<use transform="translate(1208.6433 1946.0248), rotate(-90)" xlink:href="#item_5">
<title>item, id: 5, transf: [r: -90.000°, t: (1208.643, 1946.025)]</title>
</use>
<use transform="translate(369.12332 1092.4026), rotate(0)" xlink:href="#item_5">
<title>item, id: 5, transf: [r: 0.000°, t: (369.123, 1092.403)]</title>
</use>
<use transform="translate(310.00565 1790.9937), rotate(90)" xlink:href="#item_3">
<title>item, id: 3, transf: [r: 90.000°, t: (310.006, 1790.994)]</title>
</use>
<use transform="translate(1104.493 1110.6759), rotate(-180)" xlink:href="#item_3">
<title>item, id: 3, transf: [r: -180.000°, t: (1104.493, 1110.676)]</title>
</use>
<use transform="translate(1713.0349 2549.9229), rotate(-180)" xlink:href="#item_8">
<title>item, id: 8, transf: [r: -180.000°, t: (1713.035, 2549.923)]</title>
</use>
<use transform="translate(240.30756 2267.9905), rotate(0)" xlink:href="#item_8">
<title>item, id: 8, transf: [r: 0.000°, t: (240.308, 2267.990)]</title>
</use>
<use transform="translate(1709.4257 1951.4783), rotate(90)" xlink:href="#item_1">
<title>item, id: 1, transf: [r: 90.000°, t: (1709.426, 1951.478)]</title>
</use>
<use transform="translate(1104.4955 816.50256), rotate(0)" xlink:href="#item_1">
<title>item, id: 1, transf: [r: 0.000°, t: (1104.495, 816.503)]</title>
</use>
<use transform="translate(1318.0591 218.46675), rotate(90)" xlink:href="#item_4">
<title>item, id: 4, transf: [r: 90.000°, t: (1318.059, 218.467)]</title>
</use>
<use transform="translate(1346.1831 3.7486877), rotate(90)" xlink:href="#item_4">
<title>item, id: 4, transf: [r: 90.000°, t: (1346.183, 3.749)]</title>
</use>
<use transform="translate(1712.0552 1705.7493), rotate(90)" xlink:href="#item_2">
<title>item, id: 2, transf: [r: 90.000°, t: (1712.055, 1705.749)]</title>
</use>
<use transform="translate(1713.5126 1202.1233), rotate(90)" xlink:href="#item_2">
<title>item, id: 2, transf: [r: 90.000°, t: (1713.513, 1202.123)]</title>
</use>
<use transform="translate(1237.2025 1586.9088), rotate(-180)" xlink:href="#item_2">
<title>item, id: 2, transf: [r: -180.000°, t: (1237.203, 1586.909)]</title>
</use>
<use transform="translate(635.12256 2202.6025), rotate(0)" xlink:href="#item_2">
<title>item, id: 2, transf: [r: 0.000°, t: (635.123, 2202.603)]</title>
</use>
</g>
<g id="quality_zones"/>
<g id="optionals">
<g id="overlap_lines" transform="translate(0 0), rotate(0)"/>
</g>
<text font-family="monospace" font-size="42.841503" font-weight="500" x="0" y="-21.420752">
height: 2550.000 | width: 1713.660 | usage: 86.013% | final_bench_85
</text>
</svg>