<svg viewBox="-85.70464 -127.50003 1885.5017 2805" xmlns="http://www.w3.org/2000/svg" xmlns:xlink="http://www.w3.org/1999/xlink">
<g id="bin_0">
<path d="M0,0 L1714.0925,0 L1714.0925,2550 L0,2550 z" fill="#D3D3D3" stroke="black" stroke-width="9.427508"/>
<title>bin, id: 0, bbox: [x_min: 0.000, y_min: 0.000, x_max: 1714.093, y_max: 2550.000]</title>
</g>
<g id="items">
<defs>
<g id="item_0">
<path d="M10,115 L478,113 L727,21 L856,44 L930,47 L1049,0 L1097,295 L1078,396 L0,407 z" fill="#7A7A7A" fill-opacity="0.5" fill-rule="nonzero" stroke="black" stroke-width="4.713754"/>
</g>
<g id="item_1">
<path d="M0,0 L316,2 L316,274 L0,275 z" fill="#7A7A7A" fill-opacity="0.5" fill-rule="nonzero" stroke="black" stroke-width="4.713754"/>
</g>
<g id="item_2">
<path d="M0,1 L239,0 L242,80 L0,78 z" fill="#7A7A7A" fill-opacity="0.5" fill-rule="nonzero" stroke="black" stroke-width="4.713754"/>
</g>
<g id="item_3">
<path d="M0,310 L0,119 L384,0 L384,70 L759,69 L758,310 z" fill="#7A7A7A" fill-opacity="0.5" fill-rule="nonzero" stroke="black" stroke-width="4.713754"/>
</g>
<g id="item_4">
<path d="M0,252 L0,75 L150,0 L148,175 z" fill="#7A7A7A" fill-opacity="0.5" fill-rule="nonzero" stroke="black" stroke-width="4.713754"/>
</g>
<g id="item_5">
<path d="M852,412 L503,414 L387,451 L355,505 L300,451 L45,325 L0,221 L0,154 L55,53 L145,16 L329,25 L407,35 L539,38 L597,51 L668,20 L736,0 L784,3 L849,194 z" fill="#7A7A7A" fill-opacity="0.5" fill-rule="nonzero" stroke="black" stroke-width="4.713754"/>
</g>
<g id="item_6">
<path d="M0,232 L827,0 L894,20 L975,258 L1097,260 L1003,500 L884,463 L845,453 L761,490 L732,547 L694,544 L616,477 L539,414 L0,426 z" fill="#7A7A7A" fill-opacity="0.5" fill-rule="nonzero" stroke="black" stroke-width="4.713754"/>
</g>
<g id="item_7">
<path d="M151,427 L97,266 L0,259 L75,28 L126,21 L191,61 L271,50 L316,64 L359,10 L436,6 L442,43 L694,75 L726,42 L1091,0 L1094,211 L1033,208 L987,346 L926,393 z" fill="#7A7A7A" fill-opacity="0.5" fill-rule="nonzero" stroke="black" stroke-width="4.713754"/>
</g>
<g id="item_8">
<path d="M0,0 L745,24 L619,196 L590,276 L522,260 L6,282 z" fill="#7A7A7A" fill-opacity="0.5" fill-rule="nonzero" stroke="black" stroke-width="4.713754"/>
</g>
</defs>
<use transform="translate(1139.829 841.42957), rotate(-180)" xlink:href="#item_6">
<title>item, id: 6, transf: [r: -180.000°, t: (1139.829, 841.430)]</title>
</use>
<use transform="translate(271.07867 621.31616), rotate(0)" xlink:href="#item_6">
<title>item, id: 6, transf: [r: 0.000°, t: (271.079, 621.316)]</title>
</use>
<use transform="translate(1706.357 427.02344), rotate(-180)" xlink:href="#item_7">
<title>item, id: 7, transf: [r: -180.000°, t: (1706.357, 427.023)]</title>
</use>
<use transform="translate(707.2308 1043.3975), rotate(90)" xlink:href="#item_7">
<title>item, id: 7, transf: [r: 90.000°, t: (707.231, 1043.397)]</title>
</use>
<use transform="translate(407.0066 1452.9348), rotate(90)" xlink:href="#item_0">
<title>item, id: 0, transf: [r: 90.000°, t: (407.007, 1452.935)]</title>
</use>
<use transform="translate(1307.0775 1500.0442), rotate(-90)" xlink:href="#item_0">
<title>item, id: 0, transf: [r: -90.000°, t: (1307.078, 1500.044)]</title>
</use>
<use transform="translate(1247.7928 2549.9822), rotate(-180)" xlink:href="#item_5">
<title>item, id: 5, transf: [r: -180.000°, t: (1247.793, 2549.982)]</title>
</use>
<use transform="translate(663.78015 2039.5653), rotate(-90)" xlink:href="#item_5">
<title>item, id: 5, transf: [r: -90.000°, t: (663.780, 2039.565)]</title>
</use>
<use transform="translate(1110.5011 1880.1394), rotate(-90)" xlink:href="#item_3">
<title>item, id: 3, transf: [r: -90.000°, t: (1110.501, 1880.139)]</title>
</use>
<use transform="translate(1404.0521 2264.343), rotate(-90)" xlink:href="#item_3">
<title>item, id: 3, transf: [r: -90.000°, t: (1404.052, 2264.343)]</title>
</use>
<use transform="translate(0.004638672 1422.3706), rotate(-90)" xlink:href="#item_8">
<title>item, id: 8, transf: [r: -90.000°, t: (0.005, 1422.371)]</title>
</use>
<use transform="translate(0.46328735 0.28723145), rotate(0)" xlink:href="#item_8">
<title>item, id: 8, transf: [r: 0.000°, t: (0.463, 0.287)]</title>
</use>
<use transform="translate(1714.0753 2549.6904), rotate(-180)" xlink:href="#item_1">
<title>item, id: 1, transf: [r: -180.000°, t: (1714.075, 2549.690)]</title>
</use>
<use transform="translate(1088.2828 1879.2842), rotate(0)" xlink:href="#item_1">
<title>item, id: 1, transf: [r: 0.000°, t: (1088.283, 1879.284)]</title>
</use>
<use transform="translate(890.87354 1040.061), rotate(90)" xlink:href="#item_4">
<title>item, id: 4, transf: [r: 90.000°, t: (890.874, 1040.061)]</title>
</use>
<use transform="translate(1248.019 2297.967), rotate(0)" xlink:href="#item_4">
<title>item, id: 4, transf: [r: 0.000°, t: (1248.019, 2297.967)]</title>
</use>
<use transform="translate(1163.0323 1099.4939), rotate(90)" xlink:href="#item_2">
<title>item, id: 2, transf: [r: 90.000°, t: (1163.032, 1099.494)]</title>
</use>
<use transform="translate(1487.5612 2244.8152), rotate(-180)" xlink:href="#item_2">
<title>item, id: 2, transf: [r: -180.000°, t: (1487.561, 2244.815)]</title>
</use>
<use transform="translate(1327.9979 606.7426), rotate(90)" xlink:href="#item_2">
<title>item, id: 2, transf: [r: 90.000°, t: (1327.998, 606.743)]</title>
</use>
<use transform="translate(1170.2169 650.53), rotate(-90)" xlink:href="#item_2">
<title>item, id: 2, transf: [r: -90.000°, t: (1170.217, 650.530)]</title>
</use>
</g>
<g id="quality_zones"/>
<g id="optionals">
<g id="overlap_lines" transform="translate(0 0), rotate(0)"/>
</g>
<text font-family="monospace" font-size="42.852314" font-weight="500" x="0" y="-21.426157">
height: 2550.000 | width: 1714.093 | usage: 85.991% | final_bench_10
</text>
</svg>