<svg viewBox="-85.37825 -127.50003 1878.3212 2805" xmlns="http://www.w3.org/2000/svg" xmlns:xlink="http://www.w3.org/1999/xlink">
<g id="bin_0">
<path d="M0,0 L1707.5646,0 L1707.5646,2550 L0,2550 z" fill="#D3D3D3" stroke="black" stroke-width="9.391606"/>
<title>bin, id: 0, bbox: [x_min: 0.000, y_min: 0.000, x_max: 1707.565, y_max: 2550.000]</title>
</g>
<g id="items">
<defs>
<g id="item_0">
<path d="M10,115 L478,113 L727,21 L856,44 L930,47 L1049,0 L1097,295 L1078,396 L0,407 z" fill="#7A7A7A" fill-opacity="0.5" fill-rule="nonzero" stroke="black" stroke-width="4.695803"/>
</g>
<g id="item_1">
<path d="M0,0 L316,2 L316,274 L0,275 z" fill="#7A7A7A" fill-opacity="0.5" fill-rule="nonzero" stroke="black" stroke-width="4.695803"/>
</g>
<g id="item_2">
<path d="M0,1 L239,0 L242,80 L0,78 z" fill="#7A7A7A" fill-opacity="0.5" fill-rule="nonzero" stroke="black" stroke-width="4.695803"/>
</g>
<g id="item_3">
<path d="M0,310 L0,119 L384,0 L384,70 L759,69 L758,310 z" fill="#7A7A7A" fill-opacity="0.5" fill-rule="nonzero" stroke="black" stroke-width="4.695803"/>
</g>
<g id="item_4">
<path d="M0,252 L0,75 L150,0 L148,175 z" fill="#7A7A7A" fill-opacity="0.5" fill-rule="nonzero" stroke="black" stroke-width="4.695803"/>
</g>
<g id="item_5">
<path d="M852,412 L503,414 L387,451 L355,505 L300,451 L45,325 L0,221 L0,154 L55,53 L145,16 L329,25 L407,35 L539,38 L597,51 L668,20 L736,0 L784,3 L849,194 z" fill="#7A7A7A" fill-opacity="0.5" fill-rule="nonzero" stroke="black" stroke-width="4.695803"/>
</g>
<g id="item_6">
<path d="M0,232 L827,0 L894,20 L975,258 L1097,260 L1003,500 L884,463 L845,453 L761,490 L732,547 L694,544 L616,477 L539,414 L0,426 z" fill="#7A7A7A" fill-opacity="0.5" fill-rule="nonzero" stroke="black" stroke-width="4.695803"/>
</g>
<g id="item_7">
<path d="M151,427 L97,266 L0,259 L75,28 L126,21 L191,61 L271,50 L316,64 L359,10 L436,6 L442,43 L694,75 L726,42 L1091,0 L1094,211 L1033,208 L987,346 L926,393 z" fill="#7A7A7A" fill-opacity="0.5" fill-rule="nonzero" stroke="black" stroke-width="4.695803"/>
</g>
<g id="item_8">
<path d="M0,0 L745,24 L619,196 L590,276 L522,260 L6,282 z" fill="#7A7A7A" fill-opacity="0.5" fill-rule="nonzero" stroke="black" stroke-width="4.695803"/>
</g>
</defs>
<use transform="translate(1155.5364 2017.7583), rotate(-180)" xlink:href="#item_6">
<title>item, id: 6, transf: [r: -180.000°, t: (1155.536, 2017.758)]</title>
</use>
<use transform="translate(336.96436 1783.4076), rotate(0)" xlink:href="#item_6">
<title>item, id: 6, transf: [r: 0.000°, t: (336.964, 1783.408)]</title>
</use>
<use transform="translate(311.91022 687.75366), rotate(0)" xlink:href="#item_7">
<title>item, id: 7, transf: [r: 0.000°, t: (311.910, 687.754)]</title>
</use>
<use transform="translate(1466.8416 715.89545), rotate(-180)" xlink:href="#item_7">
<title>item, id: 7, transf: [r: -180.000°, t: (1466.842, 715.895)]</title>
</use>
<use transform="translate(1097.0005 407.01276), rotate(-180)" xlink:href="#item_0">
<title>item, id: 0, transf: [r: -180.000°, t: (1097.000, 407.013)]</title>
</use>
<use transform="translate(407.0376 423.77704), rotate(90)" xlink:href="#item_0">
<title>item, id: 0, transf: [r: 90.000°, t: (407.038, 423.777)]</title>
</use>
<use transform="translate(384.51877 1095.8904), rotate(0)" xlink:href="#item_5">
<title>item, id: 5, transf: [r: 0.000°, t: (384.519, 1095.890)]</title>
</use>
<use transform="translate(1202.4175 1914.7092), rotate(-90)" xlink:href="#item_5">
<title>item, id: 5, transf: [r: -90.000°, t: (1202.417, 1914.709)]</title>
</use>
<use transform="translate(1397.5616 1054.3428), rotate(-90)" xlink:href="#item_3">
<title>item, id: 3, transf: [r: -90.000°, t: (1397.562, 1054.343)]</title>
</use>
<use transform="translate(310.0564 1790.9922), rotate(90)" xlink:href="#item_3">
<title>item, id: 3, transf: [r: 90.000°, t: (310.056, 1790.992)]</title>
</use>
<use transform="translate(1707.4657 2549.996), rotate(-180)" xlink:href="#item_8">
<title>item, id: 8, transf: [r: -180.000°, t: (1707.466, 2549.996)]</title>
</use>
<use transform="translate(240.62122 2267.6257), rotate(0)" xlink:href="#item_8">
<title>item, id: 8, transf: [r: 0.000°, t: (240.621, 2267.626)]</title>
</use>
<use transform="translate(1432.5592 2266.3057), rotate(-90)" xlink:href="#item_1">
<title>item, id: 1, transf: [r: -90.000°, t: (1432.559, 2266.306)]</title>
</use>
<use transform="translate(1707.559 295.68945), rotate(-180)" xlink:href="#item_1">
<title>item, id: 1, transf: [r: -180.000°, t: (1707.559, 295.689)]</title>
</use>
<use transform="translate(1241.8794 271.83865), rotate(-180)" xlink:href="#item_4">
<title>item, id: 4, transf: [r: -180.000°, t: (1241.879, 271.839)]</title>
</use>
<use transform="translate(1391.5177 252.29222), rotate(-180)" xlink:href="#item_4">
<title>item, id: 4, transf: [r: -180.000°, t: (1391.518, 252.292)]</title>
</use>
<use transform="translate(639.9156 2202.4597), rotate(0)" xlink:href="#item_2">
<title>item, id: 2, transf: [r: 0.000°, t: (639.916, 2202.460)]</title>
</use>
<use transform="translate(919.1858 1511.729), rotate(0)" xlink:href="#item_2">
<title>item, id: 2, transf: [r: 0.000°, t: (919.186, 1511.729)]</title>
</use>
<use transform="translate(1616.5166 1948.108), rotate(-90)" xlink:href="#item_2">
<title>item, id: 2, transf: [r: -90.000°, t: (1616.517, 1948.108)]</title>
</use>
<use transform="translate(1704.7987 1073.3547), rotate(90)" xlink:href="#item_2">
<title>item, id: 2, transf: [r: 90.000°, t: (1704.799, 1073.355)]</title>
</use>
</g>
<g id="quality_zones"/>
<g id="optionals">
<g id="overlap_lines" transform="translate(0 0), rotate(0)"/>
</g>
<text font-family="monospace" font-size="42.689114" font-weight="500" x="0" y="-21.344557">
height: 2550.000 | width: 1707.565 | usage: 86.320% | final_bench_66
</text>
</svg>