<svg viewBox="-86.83771 -127.50003 1910.4292 2805" xmlns="http://www.w3.org/2000/svg" xmlns:xlink="http://www.w3.org/1999/xlink">
<g id="bin_0">
<path d="M0,0 L1736.7538,0 L1736.7538,2550 L0,2550 z" fill="#D3D3D3" stroke="black" stroke-width="9.552146"/>
<title>bin, id: 0, bbox: [x_min: 0.000, y_min: 0.000, x_max: 1736.754, y_max: 2550.000]</title>
</g>
<g id="items">
<defs>
<g id="item_0">
<path d="M10,115 L478,113 L727,21 L856,44 L930,47 L1049,0 L1097,295 L1078,396 L0,407 z" fill="#7A7A7A" fill-opacity="0.5" fill-rule="nonzero" stroke="black" stroke-width="4.776073"/>
</g>
<g id="item_1">
<path d="M0,0 L316,2 L316,274 L0,275 z" fill="#7A7A7A" fill-opacity="0.5" fill-rule="nonzero" stroke="black" stroke-width="4.776073"/>
</g>
<g id="item_2">
<path d="M0,1 L239,0 L242,80 L0,78 z" fill="#7A7A7A" fill-opacity="0.5" fill-rule="nonzero" stroke="black" stroke-width="4.776073"/>
</g>
<g id="item_3">
<path d="M0,310 L0,119 L384,0 L384,70 L759,69 L758,310 z" fill="#7A7A7A" fill-opacity="0.5" fill-rule="nonzero" stroke="black" stroke-width="4.776073"/>
</g>
<g id="item_4">
<path d="M0,252 L0,75 L150,0 L148,175 z" fill="#7A7A7A" fill-opacity="0.5" fill-rule="nonzero" stroke="black" stroke-width="4.776073"/>
</g>
<g id="item_5">
<path d="M852,412 L503,414 L387,451 L355,505 L300,451 L45,325 L0,221 L0,154 L55,53 L145,16 L329,25 L407,35 L539,38 L597,51 L668,20 L736,0 L784,3 L849,194 z" fill="#7A7A7A" fill-opacity="0.5" fill-rule="nonzero" stroke="black" stroke-width="4.776073"/>
</g>
<g id="item_6">
<path d="M0,232 L827,0 L894,20 L975,258 L1097,260 L1003,500 L884,463 L845,453 L761,490 L732,547 L694,544 L616,477 L539,414 L0,426 z" fill="#7A7A7A" fill-opacity="0.5" fill-rule="nonzero" stroke="black" stroke-width="4.776073"/>
</g>
<g id="item_7">
<path d="M151,427 L97,266 L0,259 L75,28 L126,21 L191,61 L271,50 L316,64 L359,10 L436,6 L442,43 L694,75 L726,42 L1091,0 L1094,211 L1033,208 L987,346 L926,393 z" fill="#7A7A7A" fill-opacity="0.5" fill-rule="nonzero" stroke="black" stroke-width="4.776073"/>
</g>
<g id="item_8">
<path d="M0,0 L745,24 L619,196 L590,276 L522,260 L6,282 z" fill="#7A7A7A" fill-opacity="0.5" fill-rule="nonzero" stroke="black" stroke-width="4.776073"/>
</g>
</defs>
<use transform="translate(639.4885 540.4929), rotate(0)" xlink:href="#item_6">
<title>item, id: 6, transf: [r: 0.000°, t: (639.489, 540.493)]</title>
</use>
<use transform="translate(1610.1942 732.15686), rotate(-180)" xlink:href="#item_6">
<title>item, id: 6, transf: [r: -180.000°, t: (1610.194, 732.157)]</title>
</use>
<use transform="translate(1359.3357 1428.2468), rotate(-180)" xlink:href="#item_7">
<title>item, id: 7, transf: [r: -180.000°, t: (1359.336, 1428.247)]</title>
</use>
<use transform="translate(1408.7369 1834.6738), rotate(-180)" xlink:href="#item_7">
<title>item, id: 7, transf: [r: -180.000°, t: (1408.737, 1834.674)]</title>
</use>
<use transform="translate(1329.7399 2143.293), rotate(-90)" xlink:href="#item_0">
<title>item, id: 0, transf: [r: -90.000°, t: (1329.740, 2143.293)]</title>
</use>
<use transform="translate(639.7427 2142.8477), rotate(0)" xlink:href="#item_0">
<title>item, id: 0, transf: [r: 0.000°, t: (639.743, 2142.848)]</title>
</use>
<use transform="translate(53.384293 1121.4177), rotate(-90)" xlink:href="#item_5">
<title>item, id: 5, transf: [r: -90.000°, t: (53.384, 1121.418)]</title>
</use>
<use transform="translate(1129.4034 2272.3645), rotate(-180)" xlink:href="#item_5">
<title>item, id: 5, transf: [r: -180.000°, t: (1129.403, 2272.365)]</title>
</use>
<use transform="translate(310.01105 1790.4985), rotate(90)" xlink:href="#item_3">
<title>item, id: 3, transf: [r: 90.000°, t: (310.011, 1790.499)]</title>
</use>
<use transform="translate(1736.7384 310.00873), rotate(-180)" xlink:href="#item_3">
<title>item, id: 3, transf: [r: -180.000°, t: (1736.738, 310.009)]</title>
</use>
<use transform="translate(0.0028076172 0.014129639), rotate(0)" xlink:href="#item_8">
<title>item, id: 8, transf: [r: 0.000°, t: (0.003, 0.014)]</title>
</use>
<use transform="translate(0.23344421 1760.846), rotate(-90)" xlink:href="#item_8">
<title>item, id: 8, transf: [r: -90.000°, t: (0.233, 1760.846)]</title>
</use>
<use transform="translate(323.7359 2274.8838), rotate(0)" xlink:href="#item_1">
<title>item, id: 1, transf: [r: 0.000°, t: (323.736, 2274.884)]</title>
</use>
<use transform="translate(1436.5066 1844.5977), rotate(90)" xlink:href="#item_1">
<title>item, id: 1, transf: [r: 90.000°, t: (1436.507, 1844.598)]</title>
</use>
<use transform="translate(472.47653 736.4694), rotate(-90)" xlink:href="#item_4">
<title>item, id: 4, transf: [r: -90.000°, t: (472.477, 736.469)]</title>
</use>
<use transform="translate(638.30066 1032.8328), rotate(-180)" xlink:href="#item_4">
<title>item, id: 4, transf: [r: -180.000°, t: (638.301, 1032.833)]</title>
</use>
<use transform="translate(1.661232 780.6552), rotate(-90)" xlink:href="#item_2">
<title>item, id: 2, transf: [r: -90.000°, t: (1.661, 780.655)]</title>
</use>
<use transform="translate(1644.4476 697.3587), rotate(-90)" xlink:href="#item_2">
<title>item, id: 2, transf: [r: -90.000°, t: (1644.448, 697.359)]</title>
</use>
<use transform="translate(719.17554 79.21506), rotate(0)" xlink:href="#item_2">
<title>item, id: 2, transf: [r: 0.000°, t: (719.176, 79.215)]</title>
</use>
<use transform="translate(242.00232 2520.9978), rotate(-90)" xlink:href="#item_2">
<title>item, id: 2, transf: [r: -90.000°, t: (242.002, 2520.998)]</title>
</use>
</g>
<g id="quality_zones"/>
<g id="optionals">
<g id="overlap_lines" transform="translate(0 0), rotate(0)"/>
</g>
<text font-family="monospace" font-size="43.418846" font-weight="500" x="0" y="-21.709423">
height: 2550.000 | width: 1736.754 | usage: 84.869% | final_bench_41
</text>
</svg>