<svg viewBox="-87.04448 -127.50003 1914.978 2805" xmlns="http://www.w3.org/2000/svg" xmlns:xlink="http://www.w3.org/1999/xlink">
<g id="bin_0">
<path d="M0,0 L1740.8892,0 L1740.8892,2550 L0,2550 z" fill="#D3D3D3" stroke="black" stroke-width="9.574891"/>
<title>bin, id: 0, bbox: [x_min: 0.000, y_min: 0.000, x_max: 1740.889, y_max: 2550.000]</title>
</g>
<g id="items">
<defs>
<g id="item_0">
<path d="M10,115 L478,113 L727,21 L856,44 L930,47 L1049,0 L1097,295 L1078,396 L0,407 z" fill="#7A7A7A" fill-opacity="0.5" fill-rule="nonzero" stroke="black" stroke-width="4.7874455"/>
</g>
<g id="item_1">
<path d="M0,0 L316,2 L316,274 L0,275 z" fill="#7A7A7A" fill-opacity="0.5" fill-rule="nonzero" stroke="black" stroke-width="4.7874455"/>
</g>
<g id="item_2">
<path d="M0,1 L239,0 L242,80 L0,78 z" fill="#7A7A7A" fill-opacity="0.5" fill-rule="nonzero" stroke="black" stroke-width="4.7874455"/>
</g>
<g id="item_3">
<path d="M0,310 L0,119 L384,0 L384,70 L759,69 L758,310 z" fill="#7A7A7A" fill-opacity="0.5" fill-rule="nonzero" stroke="black" stroke-width="4.7874455"/>
</g>
<g id="item_4">
<path d="M0,252 L0,75 L150,0 L148,175 z" fill="#7A7A7A" fill-opacity="0.5" fill-rule="nonzero" stroke="black" stroke-width="4.7874455"/>
</g>
<g id="item_5">
<path d="M852,412 L503,414 L387,451 L355,505 L300,451 L45,325 L0,221 L0,154 L55,53 L145,16 L329,25 L407,35 L539,38 L597,51 L668,20 L736,0 L784,3 L849,194 z" fill="#7A7A7A" fill-opacity="0.5" fill-rule="nonzero" stroke="black" stroke-width="4.7874455"/>
</g>
<g id="item_6">
<path d="M0,232 L827,0 L894,20 L975,258 L1097,260 L1003,500 L884,463 L845,453 L761,490 L732,547 L694,544 L616,477 L539,414 L0,426 z" fill="#7A7A7A" fill-opacity="0.5" fill-rule="nonzero" stroke="black" stroke-width="4.7874455"/>
</g>
<g id="item_7">
<path d="M151,427 L97,266 L0,259 L75,28 L126,21 L191,61 L271,50 L316,64 L359,10 L436,6 L442,43 L694,75 L726,42 L1091,0 L1094,211 L1033,208 L987,346 L926,393 z" fill="#7A7A7A" fill-opacity="0.5" fill-rule="nonzero" stroke="black" stroke-width="4.7874455"/>
</g>
<g id="item_8">
<path d="M0,0 L745,24 L619,196 L590,276 L522,260 L6,282 z" fill="#7A7A7A" fill-opacity="0.5" fill-rule="nonzero" stroke="black" stroke-width="4.7874455"/>
</g>
</defs>
<use transform="translate(604.4996 274.70648), rotate(90)" xlink:href="#item_6">
<title>item, id: 6, transf: [r: 90.000°, t: (604.500, 274.706)]</title>
</use>
<use transform="translate(409.1899 1224.735), rotate(-90)" xlink:href="#item_6">
<title>item, id: 6, transf: [r: -90.000°, t: (409.190, 1224.735)]</title>
</use>
<use transform="translate(786.6072 1188.072), rotate(90)" xlink:href="#item_7">
<title>item, id: 7, transf: [r: 90.000°, t: (786.607, 1188.072)]</title>
</use>
<use transform="translate(1028.8909 2549.9778), rotate(-90)" xlink:href="#item_7">
<title>item, id: 7, transf: [r: -90.000°, t: (1028.891, 2549.978)]</title>
</use>
<use transform="translate(407.0291 1341.1766), rotate(90)" xlink:href="#item_0">
<title>item, id: 0, transf: [r: 90.000°, t: (407.029, 1341.177)]</title>
</use>
<use transform="translate(1333.8868 2169.6072), rotate(-90)" xlink:href="#item_0">
<title>item, id: 0, transf: [r: -90.000°, t: (1333.887, 2169.607)]</title>
</use>
<use transform="translate(1740.8827 236.94907), rotate(90)" xlink:href="#item_5">
<title>item, id: 5, transf: [r: 90.000°, t: (1740.883, 236.949)]</title>
</use>
<use transform="translate(1341.7172 594.7688), rotate(90)" xlink:href="#item_5">
<title>item, id: 5, transf: [r: 90.000°, t: (1341.717, 594.769)]</title>
</use>
<use transform="translate(1668.1324 310.0023), rotate(-180)" xlink:href="#item_3">
<title>item, id: 3, transf: [r: -180.000°, t: (1668.132, 310.002)]</title>
</use>
<use transform="translate(718.70435 2213.5085), rotate(-90)" xlink:href="#item_3">
<title>item, id: 3, transf: [r: -90.000°, t: (718.704, 2213.509)]</title>
</use>
<use transform="translate(0.0047302246 0.00289917), rotate(0)" xlink:href="#item_8">
<title>item, id: 8, transf: [r: 0.000°, t: (0.005, 0.003)]</title>
</use>
<use transform="translate(1052.565 2549.9941), rotate(-180)" xlink:href="#item_8">
<title>item, id: 8, transf: [r: -180.000°, t: (1052.565, 2549.994)]</title>
</use>
<use transform="translate(1465.7549 2549.9973), rotate(-90)" xlink:href="#item_1">
<title>item, id: 1, transf: [r: -90.000°, t: (1465.755, 2549.997)]</title>
</use>
<use transform="translate(1240.3522 247.56583), rotate(90)" xlink:href="#item_1">
<title>item, id: 1, transf: [r: 90.000°, t: (1240.352, 247.566)]</title>
</use>
<use transform="translate(772.9779 1208.7067), rotate(0)" xlink:href="#item_4">
<title>item, id: 4, transf: [r: 0.000°, t: (772.978, 1208.707)]</title>
</use>
<use transform="translate(0.7716675 614.59143), rotate(0)" xlink:href="#item_4">
<title>item, id: 4, transf: [r: 0.000°, t: (0.772, 614.591)]</title>
</use>
<use transform="translate(64.72677 2469.483), rotate(0)" xlink:href="#item_2">
<title>item, id: 2, transf: [r: 0.000°, t: (64.727, 2469.483)]</title>
</use>
<use transform="translate(85.85547 313.37512), rotate(90)" xlink:href="#item_2">
<title>item, id: 2, transf: [r: 90.000°, t: (85.855, 313.375)]</title>
</use>
<use transform="translate(89.05815 1079.4519), rotate(90)" xlink:href="#item_2">
<title>item, id: 2, transf: [r: 90.000°, t: (89.058, 1079.452)]</title>
</use>
<use transform="translate(171.8077 342.16525), rotate(90)" xlink:href="#item_2">
<title>item, id: 2, transf: [r: 90.000°, t: (171.808, 342.165)]</title>
</use>
</g>
<g id="quality_zones"/>
<g id="optionals">
<g id="overlap_lines" transform="translate(0 0), rotate(0)"/>
</g>
<text font-family="monospace" font-size="43.52223" font-weight="500" x="0" y="-21.761114">
height: 2550.000 | width: 1740.889 | usage: 84.668% | final_bench_86
</text>
</svg>