<svg viewBox="-87.37402 -127.50003 1922.228 2805" xmlns="http://www.w3.org/2000/svg" xmlns:xlink="http://www.w3.org/1999/xlink">
<g id="bin_0">
<path d="M0,0 L1747.48,0 L1747.48,2550 L0,2550 z" fill="#D3D3D3" stroke="black" stroke-width="9.61114"/>
<title>bin, id: 0, bbox: [x_min: 0.000, y_min: 0.000, x_max: 1747.480, y_max: 2550.000]</title>
</g>
<g id="items">
<defs>
<g id="item_0">
<path d="M10,115 L478,113 L727,21 L856,44 L930,47 L1049,0 L1097,295 L1078,396 L0,407 z" fill="#7A7A7A" fill-opacity="0.5" fill-rule="nonzero" stroke="black" stroke-width="4.80557"/>
</g>
<g id="item_1">
<path d="M0,0 L316,2 L316,274 L0,275 z" fill="#7A7A7A" fill-opacity="0.5" fill-rule="nonzero" stroke="black" stroke-width="4.80557"/>
</g>
<g id="item_2">
<path d="M0,1 L239,0 L242,80 L0,78 z" fill="#7A7A7A" fill-opacity="0.5" fill-rule="nonzero" stroke="black" stroke-width="4.80557"/>
</g>
<g id="item_3">
<path d="M0,310 L0,119 L384,0 L384,70 L759,69 L758,310 z" fill="#7A7A7A" fill-opacity="0.5" fill-rule="nonzero" stroke="black" stroke-width="4.80557"/>
</g>
<g id="item_4">
<path d="M0,252 L0,75 L150,0 L148,175 z" fill="#7A7A7A" fill-opacity="0.5" fill-rule="nonzero" stroke="black" stroke-width="4.80557"/>
</g>
<g id="item_5">
<path d="M852,412 L503,414 L387,451 L355,505 L300,451 L45,325 L0,221 L0,154 L55,53 L145,16 L329,25 L407,35 L539,38 L597,51 L668,20 L736,0 L784,3 L849,194 z" fill="#7A7A7A" fill-opacity="0.5" fill-rule="nonzero" stroke="black" stroke-width="4.80557"/>
</g>
<g id="item_6">
<path d="M0,232 L827,0 L894,20 L975,258 L1097,260 L1003,500 L884,463 L845,453 L761,490 L732,547 L694,544 L616,477 L539,414 L0,426 z" fill="#7A7A7A" fill-opacity="0.5" fill-rule="nonzero" stroke="black" stroke-width="4.80557"/>
</g>
<g id="item_7">
<path d="M151,427 L97,266 L0,259 L75,28 L126,21 L191,61 L271,50 L316,64 L359,10 L436,6 L442,43 L694,75 L726,42 L1091,0 L1094,211 L1033,208 L987,346 L926,393 z" fill="#7A7A7A" fill-opacity="0.5" fill-rule="nonzero" stroke="black" stroke-width="4.80557"/>
</g>
<g id="item_8">
<path d="M0,0 L745,24 L619,196 L590,276 L522,260 L6,282 z" fill="#7A7A7A" fill-opacity="0.5" fill-rule="nonzero" stroke="black" stroke-width="4.80557"/>
</g>
</defs>
<use transform="translate(946.54016 1820.4749), rotate(-90)" xlink:href="#item_6">
<title>item, id: 6, transf: [r: -90.000°, t: (946.540, 1820.475)]</title>
</use>
<use transform="translate(1201.1039 1075.6576), rotate(90)" xlink:href="#item_6">
<title>item, id: 6, transf: [r: 90.000°, t: (1201.104, 1075.658)]</title>
</use>
<use transform="translate(438.08972 0.012329102), rotate(90)" xlink:href="#item_7">
<title>item, id: 7, transf: [r: 90.000°, t: (438.090, 0.012)]</title>
</use>
<use transform="translate(386.53796 0.12541199), rotate(0)" xlink:href="#item_7">
<title>item, id: 7, transf: [r: 0.000°, t: (386.538, 0.125)]</title>
</use>
<use transform="translate(237.95862 2142.9993), rotate(0)" xlink:href="#item_0">
<title>item, id: 0, transf: [r: 0.000°, t: (237.959, 2142.999)]</title>
</use>
<use transform="translate(1479.6836 837.117), rotate(-180)" xlink:href="#item_0">
<title>item, id: 0, transf: [r: -180.000°, t: (1479.684, 837.117)]</title>
</use>
<use transform="translate(1747.4777 1674.4602), rotate(90)" xlink:href="#item_5">
<title>item, id: 5, transf: [r: 90.000°, t: (1747.478, 1674.460)]</title>
</use>
<use transform="translate(261.92645 1956.4094), rotate(-90)" xlink:href="#item_5">
<title>item, id: 5, transf: [r: -90.000°, t: (261.926, 1956.409)]</title>
</use>
<use transform="translate(1435.7533 1661.1399), rotate(-90)" xlink:href="#item_3">
<title>item, id: 3, transf: [r: -90.000°, t: (1435.753, 1661.140)]</title>
</use>
<use transform="translate(310.01144 1701.856), rotate(90)" xlink:href="#item_3">
<title>item, id: 3, transf: [r: 90.000°, t: (310.011, 1701.856)]</title>
</use>
<use transform="translate(1465.3657 874.84625), rotate(-90)" xlink:href="#item_8">
<title>item, id: 8, transf: [r: -90.000°, t: (1465.366, 874.846)]</title>
</use>
<use transform="translate(0.0026397705 1701.7614), rotate(-90)" xlink:href="#item_8">
<title>item, id: 8, transf: [r: -90.000°, t: (0.003, 1701.761)]</title>
</use>
<use transform="translate(773.82904 1103.6123), rotate(-180)" xlink:href="#item_1">
<title>item, id: 1, transf: [r: -180.000°, t: (773.829, 1103.612)]</title>
</use>
<use transform="translate(656.8772 2255.9214), rotate(-180)" xlink:href="#item_1">
<title>item, id: 1, transf: [r: -180.000°, t: (656.877, 2255.921)]</title>
</use>
<use transform="translate(1746.7379 41.906563), rotate(90)" xlink:href="#item_4">
<title>item, id: 4, transf: [r: 90.000°, t: (1746.738, 41.907)]</title>
</use>
<use transform="translate(933.3062 1036.2389), rotate(-180)" xlink:href="#item_4">
<title>item, id: 4, transf: [r: -180.000°, t: (933.306, 1036.239)]</title>
</use>
<use transform="translate(1447.5483 1313.0085), rotate(90)" xlink:href="#item_2">
<title>item, id: 2, transf: [r: 90.000°, t: (1447.548, 1313.009)]</title>
</use>
<use transform="translate(756.44806 1207.5281), rotate(90)" xlink:href="#item_2">
<title>item, id: 2, transf: [r: 90.000°, t: (756.448, 1207.528)]</title>
</use>
<use transform="translate(1263.7924 2152.6885), rotate(-180)" xlink:href="#item_2">
<title>item, id: 2, transf: [r: -180.000°, t: (1263.792, 2152.688)]</title>
</use>
<use transform="translate(936.38354 759.7291), rotate(0)" xlink:href="#item_2">
<title>item, id: 2, transf: [r: 0.000°, t: (936.384, 759.729)]</title>
</use>
</g>
<g id="quality_zones"/>
<g id="optionals">
<g id="overlap_lines" transform="translate(0 0), rotate(0)"/>
</g>
<text font-family="monospace" font-size="43.687" font-weight="500" x="0" y="-21.8435">
height: 2550.000 | width: 1747.480 | usage: 84.348% | final_bench_94
</text>
</svg>