<svg viewBox="-86.61391 -127.50003 1905.5055 2805" xmlns="http://www.w3.org/2000/svg" xmlns:xlink="http://www.w3.org/1999/xlink">
<g id="bin_0">
<path d="M0,0 L1732.2777,0 L1732.2777,2550 L0,2550 z" fill="#D3D3D3" stroke="black" stroke-width="9.527528"/>
<title>bin, id: 0, bbox: [x_min: 0.000, y_min: 0.000, x_max: 1732.278, y_max: 2550.000]</title>
</g>
<g id="items">
<defs>
<g id="item_0">
<path d="M10,115 L478,113 L727,21 L856,44 L930,47 L1049,0 L1097,295 L1078,396 L0,407 z" fill="#7A7A7A" fill-opacity="0.5" fill-rule="nonzero" stroke="black" stroke-width="4.763764"/>
</g>
<g id="item_1">
<path d="M0,0 L316,2 L316,274 L0,275 z" fill="#7A7A7A" fill-opacity="0.5" fill-rule="nonzero" stroke="black" stroke-width="4.763764"/>
</g>
<g id="item_2">
<path d="M0,1 L239,0 L242,80 L0,78 z" fill="#7A7A7A" fill-opacity="0.5" fill-rule="nonzero" stroke="black" stroke-width="4.763764"/>
</g>
<g id="item_3">
<path d="M0,310 L0,119 L384,0 L384,70 L759,69 L758,310 z" fill="#7A7A7A" fill-opacity="0.5" fill-rule="nonzero" stroke="black" stroke-width="4.763764"/>
</g>
<g id="item_4">
<path d="M0,252 L0,75 L150,0 L148,175 z" fill="#7A7A7A" fill-opacity="0.5" fill-rule="nonzero" stroke="black" stroke-width="4.763764"/>
</g>
<g id="item_5">
<path d="M852,412 L503,414 L387,451 L355,505 L300,451 L45,325 L0,221 L0,154 L55,53 L145,16 L329,25 L407,35 L539,38 L597,51 L668,20 L736,0 L784,3 L849,194 z" fill="#7A7A7A" fill-opacity="0.5" fill-rule="nonzero" stroke="black" stroke-width="4.763764"/>
</g>
<g id="item_6">
<path d="M0,232 L827,0 L894,20 L975,258 L1097,260 L1003,500 L884,463 L845,453 L761,490 L732,547 L694,544 L616,477 L539,414 L0,426 z" fill="#7A7A7A" fill-opacity="0.5" fill-rule="nonzero" stroke="black" stroke-width="4.763764"/>
</g>
<g id="item_7">
<path d="M151,427 L97,266 L0,259 L75,28 L126,21 L191,61 L271,50 L316,64 L359,10 L436,6 L442,43 L694,75 L726,42 L1091,0 L1094,211 L1033,208 L987,346 L926,393 z" fill="#7A7A7A" fill-opacity="0.5" fill-rule="nonzero" stroke="black" stroke-width="4.763764"/>
</g>
<g id="item_8">
<path d="M0,0 L745,24 L619,196 L590,276 L522,260 L6,282 z" fill="#7A7A7A" fill-opacity="0.5" fill-rule="nonzero" stroke="black" stroke-width="4.763764"/>
</g>
</defs>
<use transform="translate(842.615 705.91516), rotate(90)" xlink:href="#item_6">
<title>item, id: 6, transf: [r: 90.000°, t: (842.615, 705.915)]</title>
</use>
<use transform="translate(680.1995 1780.7343), rotate(-90)" xlink:href="#item_6">
<title>item, id: 6, transf: [r: -90.000°, t: (680.200, 1780.734)]</title>
</use>
<use transform="translate(0.02909851 1395.5238), rotate(-90)" xlink:href="#item_7">
<title>item, id: 7, transf: [r: -90.000°, t: (0.029, 1395.524)]</title>
</use>
<use transform="translate(395.81122 273.92633), rotate(0)" xlink:href="#item_7">
<title>item, id: 7, transf: [r: 0.000°, t: (395.811, 273.926)]</title>
</use>
<use transform="translate(407.00165 1452.98), rotate(90)" xlink:href="#item_0">
<title>item, id: 0, transf: [r: 90.000°, t: (407.002, 1452.980)]</title>
</use>
<use transform="translate(409.48456 2142.9907), rotate(0)" xlink:href="#item_0">
<title>item, id: 0, transf: [r: 0.000°, t: (409.485, 2142.991)]</title>
</use>
<use transform="translate(1181.5896 2216.7246), rotate(-180)" xlink:href="#item_5">
<title>item, id: 5, transf: [r: -180.000°, t: (1181.590, 2216.725)]</title>
</use>
<use transform="translate(1732.2777 525.7855), rotate(90)" xlink:href="#item_5">
<title>item, id: 5, transf: [r: 90.000°, t: (1732.278, 525.786)]</title>
</use>
<use transform="translate(1422.2776 2409.6484), rotate(-90)" xlink:href="#item_3">
<title>item, id: 3, transf: [r: -90.000°, t: (1422.278, 2409.648)]</title>
</use>
<use transform="translate(1106.1539 2136.274), rotate(-90)" xlink:href="#item_3">
<title>item, id: 3, transf: [r: -90.000°, t: (1106.154, 2136.274)]</title>
</use>
<use transform="translate(0.010803223 0.008483887), rotate(0)" xlink:href="#item_8">
<title>item, id: 8, transf: [r: 0.000°, t: (0.011, 0.008)]</title>
</use>
<use transform="translate(1338.3005 290.93695), rotate(-180)" xlink:href="#item_8">
<title>item, id: 8, transf: [r: -180.000°, t: (1338.301, 290.937)]</title>
</use>
<use transform="translate(1732.2316 1650.4675), rotate(-180)" xlink:href="#item_1">
<title>item, id: 1, transf: [r: -180.000°, t: (1732.232, 1650.468)]</title>
</use>
<use transform="translate(1732.2716 275.47522), rotate(-180)" xlink:href="#item_1">
<title>item, id: 1, transf: [r: -180.000°, t: (1732.272, 275.475)]</title>
</use>
<use transform="translate(1098.078 1163.9071), rotate(0)" xlink:href="#item_4">
<title>item, id: 4, transf: [r: 0.000°, t: (1098.078, 1163.907)]</title>
</use>
<use transform="translate(1639.4272 527.00867), rotate(-180)" xlink:href="#item_4">
<title>item, id: 4, transf: [r: -180.000°, t: (1639.427, 527.009)]</title>
</use>
<use transform="translate(453.98883 353.247), rotate(-180)" xlink:href="#item_2">
<title>item, id: 2, transf: [r: -180.000°, t: (453.989, 353.247)]</title>
</use>
<use transform="translate(882.77136 824.0391), rotate(-180)" xlink:href="#item_2">
<title>item, id: 2, transf: [r: -180.000°, t: (882.771, 824.039)]</title>
</use>
<use transform="translate(1336.2817 242.04085), rotate(-90)" xlink:href="#item_2">
<title>item, id: 2, transf: [r: -90.000°, t: (1336.282, 242.041)]</title>
</use>
<use transform="translate(1718.7621 295.70264), rotate(90)" xlink:href="#item_2">
<title>item, id: 2, transf: [r: 90.000°, t: (1718.762, 295.703)]</title>
</use>
</g>
<g id="quality_zones"/>
<g id="optionals">
<g id="overlap_lines" transform="translate(0 0), rotate(0)"/>
</g>
<text font-family="monospace" font-size="43.306942" font-weight="500" x="0" y="-21.653471">
height: 2550.000 | width: 1732.278 | usage: 85.088% | final_bench_88
</text>
</svg>