<svg viewBox="-86.67732 -127.50003 1906.9008 2805" xmlns="http://www.w3.org/2000/svg" xmlns:xlink="http://www.w3.org/1999/xlink">
<g id="bin_0">
<path d="M0,0 L1733.546,0 L1733.546,2550 L0,2550 z" fill="#D3D3D3" stroke="black" stroke-width="9.534504"/>
<title>bin, id: 0, bbox: [x_min: 0.000, y_min: 0.000, x_max: 1733.546, y_max: 2550.000]</title>
</g>
<g id="items">
<defs>
<g id="item_0">
<path d="M10,115 L478,113 L727,21 L856,44 L930,47 L1049,0 L1097,295 L1078,396 L0,407 z" fill="#7A7A7A" fill-opacity="0.5" fill-rule="nonzero" stroke="black" stroke-width="4.767252"/>
</g>
<g id="item_1">
<path d="M0,0 L316,2 L316,274 L0,275 z" fill="#7A7A7A" fill-opacity="0.5" fill-rule="nonzero" stroke="black" stroke-width="4.767252"/>
</g>
<g id="item_2">
<path d="M0,1 L239,0 L242,80 L0,78 z" fill="#7A7A7A" fill-opacity="0.5" fill-rule="nonzero" stroke="black" stroke-width="4.767252"/>
</g>
<g id="item_3">
<path d="M0,310 L0,119 L384,0 L384,70 L759,69 L758,310 z" fill="#7A7A7A" fill-opacity="0.5" fill-rule="nonzero" stroke="black" stroke-width="4.767252"/>
</g>
<g id="item_4">
<path d="M0,252 L0,75 L150,0 L148,175 z" fill="#7A7A7A" fill-opacity="0.5" fill-rule="nonzero" stroke="black" stroke-width="4.767252"/>
</g>
<g id="item_5">
<path d="M852,412 L503,414 L387,451 L355,505 L300,451 L45,325 L0,221 L0,154 L55,53 L145,16 L329,25 L407,35 L539,38 L597,51 L668,20 L736,0 L784,3 L849,194 z" fill="#7A7A7A" fill-opacity="0.5" fill-rule="nonzero" stroke="black" stroke-width="4.767252"/>
</g>
<g id="item_6">
<path d="M0,232 L827,0 L894,20 L975,258 L1097,260 L1003,500 L884,463 L845,453 L761,490 L732,547 L694,544 L616,477 L539,414 L0,426 z" fill="#7A7A7A" fill-opacity="0.5" fill-rule="nonzero" stroke="black" stroke-width="4.767252"/>
</g>
<g id="item_7">
<path d="M151,427 L97,266 L0,259 L75,28 L126,21 L191,61 L271,50 L316,64 L359,10 L436,6 L442,43 L694,75 L726,42 L1091,0 L1094,211 L1033,208 L987,346 L926,393 z" fill="#7A7A7A" fill-opacity="0.5" fill-rule="nonzero" stroke="black" stroke-width="4.767252"/>
</g>
<g id="item_8">
<path d="M0,0 L745,24 L619,196 L590,276 L522,260 L6,282 z" fill="#7A7A7A" fill-opacity="0.5" fill-rule="nonzero" stroke="black" stroke-width="4.767252"/>
</g>
</defs>
<use transform="translate(274.64673 180.78857), rotate(0)" xlink:href="#item_6">
<title>item, id: 6, transf: [r: 0.000°, t: (274.647, 180.789)]</title>
</use>
<use transform="translate(894.20355 1743.4584), rotate(-90)" xlink:href="#item_6">
<title>item, id: 6, transf: [r: -90.000°, t: (894.204, 1743.458)]</title>
</use>
<use transform="translate(1460.1261 2549.8726), rotate(-180)" xlink:href="#item_7">
<title>item, id: 7, transf: [r: -180.000°, t: (1460.126, 2549.873)]</title>
</use>
<use transform="translate(338.8199 1731.2034), rotate(0)" xlink:href="#item_7">
<title>item, id: 7, transf: [r: 0.000°, t: (338.820, 1731.203)]</title>
</use>
<use transform="translate(1326.255 2232.8093), rotate(-90)" xlink:href="#item_0">
<title>item, id: 0, transf: [r: -90.000°, t: (1326.255, 2232.809)]</title>
</use>
<use transform="translate(1326.541 1097.0717), rotate(-90)" xlink:href="#item_0">
<title>item, id: 0, transf: [r: -90.000°, t: (1326.541, 1097.072)]</title>
</use>
<use transform="translate(918.6892 597.7455), rotate(90)" xlink:href="#item_5">
<title>item, id: 5, transf: [r: 90.000°, t: (918.689, 597.745)]</title>
</use>
<use transform="translate(0.5587311 1608.6996), rotate(-90)" xlink:href="#item_5">
<title>item, id: 5, transf: [r: -90.000°, t: (0.559, 1608.700)]</title>
</use>
<use transform="translate(1024.9299 310.0229), rotate(-180)" xlink:href="#item_3">
<title>item, id: 3, transf: [r: -180.000°, t: (1024.930, 310.023)]</title>
</use>
<use transform="translate(310.22018 0.009002686), rotate(90)" xlink:href="#item_3">
<title>item, id: 3, transf: [r: 90.000°, t: (310.220, 0.009)]</title>
</use>
<use transform="translate(0.00091552734 2277.0513), rotate(-90)" xlink:href="#item_8">
<title>item, id: 8, transf: [r: -90.000°, t: (0.001, 2277.051)]</title>
</use>
<use transform="translate(1029.4722 1745.4048), rotate(-180)" xlink:href="#item_8">
<title>item, id: 8, transf: [r: -180.000°, t: (1029.472, 1745.405)]</title>
</use>
<use transform="translate(1458.5381 2549.4143), rotate(-90)" xlink:href="#item_1">
<title>item, id: 1, transf: [r: -90.000°, t: (1458.538, 2549.414)]</title>
</use>
<use transform="translate(366.12238 2549.9949), rotate(-180)" xlink:href="#item_1">
<title>item, id: 1, transf: [r: -180.000°, t: (366.122, 2549.995)]</title>
</use>
<use transform="translate(1314.8705 34.780304), rotate(90)" xlink:href="#item_4">
<title>item, id: 4, transf: [r: 90.000°, t: (1314.870, 34.780)]</title>
</use>
<use transform="translate(520.50366 607.91376), rotate(90)" xlink:href="#item_4">
<title>item, id: 4, transf: [r: 90.000°, t: (520.504, 607.914)]</title>
</use>
<use transform="translate(1433.1848 2008.1155), rotate(90)" xlink:href="#item_2">
<title>item, id: 2, transf: [r: 90.000°, t: (1433.185, 2008.115)]</title>
</use>
<use transform="translate(1336.32 185.90341), rotate(90)" xlink:href="#item_2">
<title>item, id: 2, transf: [r: 90.000°, t: (1336.320, 185.903)]</title>
</use>
<use transform="translate(308.74557 251.19064), rotate(0)" xlink:href="#item_2">
<title>item, id: 2, transf: [r: 0.000°, t: (308.746, 251.191)]</title>
</use>
<use transform="translate(412.92343 2005.5313), rotate(90)" xlink:href="#item_2">
<title>item, id: 2, transf: [r: 90.000°, t: (412.923, 2005.531)]</title>
</use>
</g>
<g id="quality_zones"/>
<g id="optionals">
<g id="overlap_lines" transform="translate(0 0), rotate(0)"/>
</g>
<text font-family="monospace" font-size="43.33865" font-weight="500" x="0" y="-21.669325">
height: 2550.000 | width: 1733.546 | usage: 85.026% | final_bench_15
</text>
</svg>