<svg viewBox="-85.11753 -127.50003 1872.5853 2805" xmlns="http://www.w3.org/2000/svg" xmlns:xlink="http://www.w3.org/1999/xlink">
<g id="bin_0">
<path d="M0,0 L1702.3502,0 L1702.3502,2550 L0,2550 z" fill="#D3D3D3" stroke="black" stroke-width="9.362927"/>
<title>bin, id: 0, bbox: [x_min: 0.000, y_min: 0.000, x_max: 1702.350, y_max: 2550.000]</title>
</g>
<g id="items">
<defs>
<g id="item_0">
<path d="M10,115 L478,113 L727,21 L856,44 L930,47 L1049,0 L1097,295 L1078,396 L0,407 z" fill="#7A7A7A" fill-opacity="0.5" fill-rule="nonzero" stroke="black" stroke-width="4.6814637"/>
</g>
<g id="item_1">
<path d="M0,0 L316,2 L316,274 L0,275 z" fill="#7A7A7A" fill-opacity="0.5" fill-rule="nonzero" stroke="black" stroke-width="4.6814637"/>
</g>
<g id="item_2">
<path d="M0,1 L239,0 L242,80 L0,78 z" fill="#7A7A7A" fill-opacity="0.5" fill-rule="nonzero" stroke="black" stroke-width="4.6814637"/>
</g>
<g id="item_3">
<path d="M0,310 L0,119 L384,0 L384,70 L759,69 L758,310 z" fill="#7A7A7A" fill-opacity="0.5" fill-rule="nonzero" stroke="black" stroke-width="4.6814637"/>
</g>
<g id="item_4">
<path d="M0,252 L0,75 L150,0 L148,175 z" fill="#7A7A7A" fill-opacity="0.5" fill-rule="nonzero" stroke="black" stroke-width="4.6814637"/>
</g>
<g id="item_5">
<path d="M852,412 L503,414 L387,451 L355,505 L300,451 L45,325 L0,221 L0,154 L55,53 L145,16 L329,25 L407,35 L539,38 L597,51 L668,20 L736,0 L784,3 L849,194 z" fill="#7A7A7A" fill-opacity="0.5" fill-rule="nonzero" stroke="black" stroke-width="4.6814637"/>
</g>
<g id="item_6">
<path d="M0,232 L827,0 L894,20 L975,258 L1097,260 L1003,500 L884,463 L845,453 L761,490 L732,547 L694,544 L616,477 L539,414 L0,426 z" fill="#7A7A7A" fill-opacity="0.5" fill-rule="nonzero" stroke="black" stroke-width="4.6814637"/>
</g>
<g id="item_7">
<path d="M151,427 L97,266 L0,259 L75,28 L126,21 L191,61 L271,50 L316,64 L359,10 L436,6 L442,43 L694,75 L726,42 L1091,0 L1094,211 L1033,208 L987,346 L926,393 z" fill="#7A7A7A" fill-opacity="0.5" fill-rule="nonzero" stroke="black" stroke-width="4.6814637"/>
</g>
<g id="item_8">
<path d="M0,0 L745,24 L619,196 L590,276 L522,260 L6,282 z" fill="#7A7A7A" fill-opacity="0.5" fill-rule="nonzero" stroke="black" stroke-width="4.6814637"/>
</g>
</defs>
<use transform="translate(331.75757 1782.6779), rotate(0)" xlink:href="#item_6">
<title>item, id: 6, transf: [r: 0.000°, t: (331.758, 1782.678)]</title>
</use>
<use transform="translate(1202.8586 2002.2681), rotate(-180)" xlink:href="#item_6">
<title>item, id: 6, transf: [r: -180.000°, t: (1202.859, 2002.268)]</title>
</use>
<use transform="translate(716.47754 0.13458252), rotate(90)" xlink:href="#item_7">
<title>item, id: 7, transf: [r: 90.000°, t: (716.478, 0.135)]</title>
</use>
<use transform="translate(681.32404 1094.045), rotate(-90)" xlink:href="#item_7">
<title>item, id: 7, transf: [r: -90.000°, t: (681.324, 1094.045)]</title>
</use>
<use transform="translate(407.00012 368.60052), rotate(90)" xlink:href="#item_0">
<title>item, id: 0, transf: [r: 90.000°, t: (407.000, 368.601)]</title>
</use>
<use transform="translate(1505.7057 0.07470703), rotate(90)" xlink:href="#item_0">
<title>item, id: 0, transf: [r: 90.000°, t: (1505.706, 0.075)]</title>
</use>
<use transform="translate(1197.3462 1917.0831), rotate(-90)" xlink:href="#item_5">
<title>item, id: 5, transf: [r: -90.000°, t: (1197.346, 1917.083)]</title>
</use>
<use transform="translate(362.53873 1082.0524), rotate(0)" xlink:href="#item_5">
<title>item, id: 5, transf: [r: 0.000°, t: (362.539, 1082.052)]</title>
</use>
<use transform="translate(1392.35 759.0043), rotate(-90)" xlink:href="#item_3">
<title>item, id: 3, transf: [r: -90.000°, t: (1392.350, 759.004)]</title>
</use>
<use transform="translate(310.00018 1780.6011), rotate(90)" xlink:href="#item_3">
<title>item, id: 3, transf: [r: 90.000°, t: (310.000, 1780.601)]</title>
</use>
<use transform="translate(240.3034 2267.9885), rotate(0)" xlink:href="#item_8">
<title>item, id: 8, transf: [r: 0.000°, t: (240.303, 2267.989)]</title>
</use>
<use transform="translate(1687.5936 2549.987), rotate(-180)" xlink:href="#item_8">
<title>item, id: 8, transf: [r: -180.000°, t: (1687.594, 2549.987)]</title>
</use>
<use transform="translate(1427.3397 2266.7886), rotate(-90)" xlink:href="#item_1">
<title>item, id: 1, transf: [r: -90.000°, t: (1427.340, 2266.789)]</title>
</use>
<use transform="translate(9.076096 368.4461), rotate(-90)" xlink:href="#item_1">
<title>item, id: 1, transf: [r: -90.000°, t: (9.076, 368.446)]</title>
</use>
<use transform="translate(1640.9033 1011.1004), rotate(-180)" xlink:href="#item_4">
<title>item, id: 4, transf: [r: -180.000°, t: (1640.903, 1011.100)]</title>
</use>
<use transform="translate(0.008239746 1459.463), rotate(0)" xlink:href="#item_4">
<title>item, id: 4, transf: [r: 0.000°, t: (0.008, 1459.463)]</title>
</use>
<use transform="translate(1702.3346 967.9884), rotate(90)" xlink:href="#item_2">
<title>item, id: 2, transf: [r: 90.000°, t: (1702.335, 967.988)]</title>
</use>
<use transform="translate(1220.253 1576.1954), rotate(-180)" xlink:href="#item_2">
<title>item, id: 2, transf: [r: -180.000°, t: (1220.253, 1576.195)]</title>
</use>
<use transform="translate(633.3405 2202.5269), rotate(0)" xlink:href="#item_2">
<title>item, id: 2, transf: [r: 0.000°, t: (633.341, 2202.527)]</title>
</use>
<use transform="translate(1622.3168 1449.0067), rotate(-90)" xlink:href="#item_2">
<title>item, id: 2, transf: [r: -90.000°, t: (1622.317, 1449.007)]</title>
</use>
</g>
<g id="quality_zones"/>
<g id="optionals">
<g id="overlap_lines" transform="translate(0 0), rotate(0)"/>
</g>
<text font-family="monospace" font-size="42.558758" font-weight="500" x="0" y="-21.279379">
height: 2550.000 | width: 1702.350 | usage: 86.584% | final_bench_101
</text>
</svg>