<svg viewBox="-86.475 -127.50003 1902.4495 2805" xmlns="http://www.w3.org/2000/svg" xmlns:xlink="http://www.w3.org/1999/xlink">
<g id="bin_0">
<path d="M0,0 L1729.4995,0 L1729.4995,2550 L0,2550 z" fill="#D3D3D3" stroke="black" stroke-width="9.512248"/>
<title>bin, id: 0, bbox: [x_min: 0.000, y_min: 0.000, x_max: 1729.500, y_max: 2550.000]</title>
</g>
<g id="items">
<defs>
<g id="item_0">
<path d="M10,115 L478,113 L727,21 L856,44 L930,47 L1049,0 L1097,295 L1078,396 L0,407 z" fill="#7A7A7A" fill-opacity="0.5" fill-rule="nonzero" stroke="black" stroke-width="4.756124"/>
</g>
<g id="item_1">
<path d="M0,0 L316,2 L316,274 L0,275 z" fill="#7A7A7A" fill-opacity="0.5" fill-rule="nonzero" stroke="black" stroke-width="4.756124"/>
</g>
<g id="item_2">
<path d="M0,1 L239,0 L242,80 L0,78 z" fill="#7A7A7A" fill-opacity="0.5" fill-rule="nonzero" stroke="black" stroke-width="4.756124"/>
</g>
<g id="item_3">
<path d="M0,310 L0,119 L384,0 L384,70 L759,69 L758,310 z" fill="#7A7A7A" fill-opacity="0.5" fill-rule="nonzero" stroke="black" stroke-width="4.756124"/>
</g>
<g id="item_4">
<path d="M0,252 L0,75 L150,0 L148,175 z" fill="#7A7A7A" fill-opacity="0.5" fill-rule="nonzero" stroke="black" stroke-width="4.756124"/>
</g>
<g id="item_5">
<path d="M852,412 L503,414 L387,451 L355,505 L300,451 L45,325 L0,221 L0,154 L55,53 L145,16 L329,25 L407,35 L539,38 L597,51 L668,20 L736,0 L784,3 L849,194 z" fill="#7A7A7A" fill-opacity="0.5" fill-rule="nonzero" stroke="black" stroke-width="4.756124"/>
</g>
<g id="item_6">
<path d="M0,232 L827,0 L894,20 L975,258 L1097,260 L1003,500 L884,463 L845,453 L761,490 L732,547 L694,544 L616,477 L539,414 L0,426 z" fill="#7A7A7A" fill-opacity="0.5" fill-rule="nonzero" stroke="black" stroke-width="4.756124"/>
</g>
<g id="item_7">
<path d="M151,427 L97,266 L0,259 L75,28 L126,21 L191,61 L271,50 L316,64 L359,10 L436,6 L442,43 L694,75 L726,42 L1091,0 L1094,211 L1033,208 L987,346 L926,393 z" fill="#7A7A7A" fill-opacity="0.5" fill-rule="nonzero" stroke="black" stroke-width="4.756124"/>
</g>
<g id="item_8">
<path d="M0,0 L745,24 L619,196 L590,276 L522,260 L6,282 z" fill="#7A7A7A" fill-opacity="0.5" fill-rule="nonzero" stroke="black" stroke-width="4.756124"/>
</g>
</defs>
<use transform="translate(1452.3894 992.95776), rotate(-180)" xlink:href="#item_6">
<title>item, id: 6, transf: [r: -180.000°, t: (1452.389, 992.958)]</title>
</use>
<use transform="translate(622.83496 761.99744), rotate(0)" xlink:href="#item_6">
<title>item, id: 6, transf: [r: 0.000°, t: (622.835, 761.997)]</title>
</use>
<use transform="translate(1728.5759 1215.5205), rotate(90)" xlink:href="#item_7">
<title>item, id: 7, transf: [r: 90.000°, t: (1728.576, 1215.521)]</title>
</use>
<use transform="translate(427.01624 65.26117), rotate(90)" xlink:href="#item_7">
<title>item, id: 7, transf: [r: 90.000°, t: (427.016, 65.261)]</title>
</use>
<use transform="translate(407.61328 1452.7021), rotate(90)" xlink:href="#item_0">
<title>item, id: 0, transf: [r: 90.000°, t: (407.613, 1452.702)]</title>
</use>
<use transform="translate(1491.4178 407.00015), rotate(-180)" xlink:href="#item_0">
<title>item, id: 0, transf: [r: -180.000°, t: (1491.418, 407.000)]</title>
</use>
<use transform="translate(1326.1722 1459.8823), rotate(90)" xlink:href="#item_5">
<title>item, id: 5, transf: [r: 90.000°, t: (1326.172, 1459.882)]</title>
</use>
<use transform="translate(408.44684 2549.996), rotate(-90)" xlink:href="#item_5">
<title>item, id: 5, transf: [r: -90.000°, t: (408.447, 2549.996)]</title>
</use>
<use transform="translate(970.483 2239.9941), rotate(0)" xlink:href="#item_3">
<title>item, id: 3, transf: [r: 0.000°, t: (970.483, 2239.994)]</title>
</use>
<use transform="translate(1419.4945 844.46277), rotate(-90)" xlink:href="#item_3">
<title>item, id: 3, transf: [r: -90.000°, t: (1419.495, 844.463)]</title>
</use>
<use transform="translate(1150.639 1459.5077), rotate(-180)" xlink:href="#item_8">
<title>item, id: 8, transf: [r: -180.000°, t: (1150.639, 1459.508)]</title>
</use>
<use transform="translate(291.9795 1431.9763), rotate(0)" xlink:href="#item_8">
<title>item, id: 8, transf: [r: 0.000°, t: (291.979, 1431.976)]</title>
</use>
<use transform="translate(1103.307 293.6431), rotate(0)" xlink:href="#item_1">
<title>item, id: 1, transf: [r: 0.000°, t: (1103.307, 293.643)]</title>
</use>
<use transform="translate(0.0036010742 1157.8959), rotate(0)" xlink:href="#item_1">
<title>item, id: 1, transf: [r: 0.000°, t: (0.004, 1157.896)]</title>
</use>
<use transform="translate(879.1793 296.14926), rotate(0)" xlink:href="#item_4">
<title>item, id: 4, transf: [r: 0.000°, t: (879.179, 296.149)]</title>
</use>
<use transform="translate(427.02448 984.0659), rotate(0)" xlink:href="#item_4">
<title>item, id: 4, transf: [r: 0.000°, t: (427.024, 984.066)]</title>
</use>
<use transform="translate(430.9349 412.59866), rotate(0)" xlink:href="#item_2">
<title>item, id: 2, transf: [r: 0.000°, t: (430.935, 412.599)]</title>
</use>
<use transform="translate(493.36465 785.5333), rotate(90)" xlink:href="#item_2">
<title>item, id: 2, transf: [r: 90.000°, t: (493.365, 785.533)]</title>
</use>
<use transform="translate(393.2246 1715.7467), rotate(90)" xlink:href="#item_2">
<title>item, id: 2, transf: [r: 90.000°, t: (393.225, 1715.747)]</title>
</use>
<use transform="translate(398.62582 1164.1296), rotate(90)" xlink:href="#item_2">
<title>item, id: 2, transf: [r: 90.000°, t: (398.626, 1164.130)]</title>
</use>
</g>
<g id="quality_zones"/>
<g id="optionals">
<g id="overlap_lines" transform="translate(0 0), rotate(0)"/>
</g>
<text font-family="monospace" font-size="43.237488" font-weight="500" x="0" y="-21.618744">
height: 2550.000 | width: 1729.500 | usage: 85.225% | final_bench_38
</text>
</svg>