<svg viewBox="-85.956825 -127.50003 1891.0497 2805" xmlns="http://www.w3.org/2000/svg" xmlns:xlink="http://www.w3.org/1999/xlink">
<g id="bin_0">
<path d="M0,0 L1719.1361,0 L1719.1361,2550 L0,2550 z" fill="#D3D3D3" stroke="black" stroke-width="9.455249"/>
<title>bin, id: 0, bbox: [x_min: 0.000, y_min: 0.000, x_max: 1719.136, y_max: 2550.000]</title>
</g>
<g id="items">
<defs>
<g id="item_0">
<path d="M10,115 L478,113 L727,21 L856,44 L930,47 L1049,0 L1097,295 L1078,396 L0,407 z" fill="#7A7A7A" fill-opacity="0.5" fill-rule="nonzero" stroke="black" stroke-width="4.7276244"/>
</g>
<g id="item_1">
<path d="M0,0 L316,2 L316,274 L0,275 z" fill="#7A7A7A" fill-opacity="0.5" fill-rule="nonzero" stroke="black" stroke-width="4.7276244"/>
</g>
<g id="item_2">
<path d="M0,1 L239,0 L242,80 L0,78 z" fill="#7A7A7A" fill-opacity="0.5" fill-rule="nonzero" stroke="black" stroke-width="4.7276244"/>
</g>
<g id="item_3">
<path d="M0,310 L0,119 L384,0 L384,70 L759,69 L758,310 z" fill="#7A7A7A" fill-opacity="0.5" fill-rule="nonzero" stroke="black" stroke-width="4.7276244"/>
</g>
<g id="item_4">
<path d="M0,252 L0,75 L150,0 L148,175 z" fill="#7A7A7A" fill-opacity="0.5" fill-rule="nonzero" stroke="black" stroke-width="4.7276244"/>
</g>
<g id="item_5">
<path d="M852,412 L503,414 L387,451 L355,505 L300,451 L45,325 L0,221 L0,154 L55,53 L145,16 L329,25 L407,35 L539,38 L597,51 L668,20 L736,0 L784,3 L849,194 z" fill="#7A7A7A" fill-opacity="0.5" fill-rule="nonzero" stroke="black" stroke-width="4.7276244"/>
</g>
<g id="item_6">
<path d="M0,232 L827,0 L894,20 L975,258 L1097,260 L1003,500 L884,463 L845,453 L761,490 L732,547 L694,544 L616,477 L539,414 L0,426 z" fill="#7A7A7A" fill-opacity="0.5" fill-rule="nonzero" stroke="black" stroke-width="4.7276244"/>
</g>
<g id="item_7">
<path d="M151,427 L97,266 L0,259 L75,28 L126,21 L191,61 L271,50 L316,64 L359,10 L436,6 L442,43 L694,75 L726,42 L1091,0 L1094,211 L1033,208 L987,346 L926,393 z" fill="#7A7A7A" fill-opacity="0.5" fill-rule="nonzero" stroke="black" stroke-width="4.7276244"/>
</g>
<g id="item_8">
<path d="M0,0 L745,24 L619,196 L590,276 L522,260 L6,282 z" fill="#7A7A7A" fill-opacity="0.5" fill-rule="nonzero" stroke="black" stroke-width="4.7276244"/>
</g>
</defs>
<use transform="translate(976.09204 410.53918), rotate(90)" xlink:href="#item_6">
<title>item, id: 6, transf: [r: 90.000°, t: (976.092, 410.539)]</title>
</use>
<use transform="translate(798.65326 1431.993), rotate(-90)" xlink:href="#item_6">
<title>item, id: 6, transf: [r: -90.000°, t: (798.653, 1431.993)]</title>
</use>
<use transform="translate(687.5231 1455.9553), rotate(90)" xlink:href="#item_7">
<title>item, id: 7, transf: [r: 90.000°, t: (687.523, 1455.955)]</title>
</use>
<use transform="translate(1092.4303 1373.6843), rotate(90)" xlink:href="#item_7">
<title>item, id: 7, transf: [r: 90.000°, t: (1092.430, 1373.684)]</title>
</use>
<use transform="translate(1647.1254 407.00742), rotate(-180)" xlink:href="#item_0">
<title>item, id: 0, transf: [r: -180.000°, t: (1647.125, 407.007)]</title>
</use>
<use transform="translate(1312.1345 2522.3335), rotate(-90)" xlink:href="#item_0">
<title>item, id: 0, transf: [r: -90.000°, t: (1312.135, 2522.333)]</title>
</use>
<use transform="translate(1719.0658 589.5791), rotate(90)" xlink:href="#item_5">
<title>item, id: 5, transf: [r: 90.000°, t: (1719.066, 589.579)]</title>
</use>
<use transform="translate(0.9045868 1620.3207), rotate(-90)" xlink:href="#item_5">
<title>item, id: 5, transf: [r: -90.000°, t: (0.905, 1620.321)]</title>
</use>
<use transform="translate(310.00647 0.0018005371), rotate(90)" xlink:href="#item_3">
<title>item, id: 3, transf: [r: 90.000°, t: (310.006, 0.002)]</title>
</use>
<use transform="translate(240.08774 768.30493), rotate(-90)" xlink:href="#item_3">
<title>item, id: 3, transf: [r: -90.000°, t: (240.088, 768.305)]</title>
</use>
<use transform="translate(0.0048828125 2549.8599), rotate(-90)" xlink:href="#item_8">
<title>item, id: 8, transf: [r: -90.000°, t: (0.005, 2549.860)]</title>
</use>
<use transform="translate(1071.3904 2276.7183), rotate(-90)" xlink:href="#item_8">
<title>item, id: 8, transf: [r: -90.000°, t: (1071.390, 2276.718)]</title>
</use>
<use transform="translate(1304.4695 304.01974), rotate(0)" xlink:href="#item_1">
<title>item, id: 1, transf: [r: 0.000°, t: (1304.469, 304.020)]</title>
</use>
<use transform="translate(1426.0938 2549.98), rotate(-180)" xlink:href="#item_1">
<title>item, id: 1, transf: [r: -180.000°, t: (1426.094, 2549.980)]</title>
</use>
<use transform="translate(261.22253 1679.6963), rotate(90)" xlink:href="#item_4">
<title>item, id: 4, transf: [r: 90.000°, t: (261.223, 1679.696)]</title>
</use>
<use transform="translate(1350.9708 1438.6576), rotate(90)" xlink:href="#item_4">
<title>item, id: 4, transf: [r: 90.000°, t: (1350.971, 1438.658)]</title>
</use>
<use transform="translate(864.2892 2469.8845), rotate(0)" xlink:href="#item_2">
<title>item, id: 2, transf: [r: 0.000°, t: (864.289, 2469.885)]</title>
</use>
<use transform="translate(1225.5477 1432.2609), rotate(-90)" xlink:href="#item_2">
<title>item, id: 2, transf: [r: -90.000°, t: (1225.548, 1432.261)]</title>
</use>
<use transform="translate(1627.8735 567.49066), rotate(-90)" xlink:href="#item_2">
<title>item, id: 2, transf: [r: -90.000°, t: (1627.874, 567.491)]</title>
</use>
<use transform="translate(498.02243 782.27246), rotate(90)" xlink:href="#item_2">
<title>item, id: 2, transf: [r: 90.000°, t: (498.022, 782.272)]</title>
</use>
</g>
<g id="quality_zones"/>
<g id="optionals">
<g id="overlap_lines" transform="translate(0 0), rotate(0)"/>
</g>
<text font-family="monospace" font-size="42.978405" font-weight="500" x="0" y="-21.489202">
height: 2550.000 | width: 1719.136 | usage: 85.739% | final_bench_4
</text>
</svg>