<svg viewBox="-85.38187 -127.50003 1878.4006 2805" xmlns="http://www.w3.org/2000/svg" xmlns:xlink="http://www.w3.org/1999/xlink">
<g id="bin_0">
<path d="M0,0 L1707.637,0 L1707.637,2550 L0,2550 z" fill="#D3D3D3" stroke="black" stroke-width="9.392003"/>
<title>bin, id: 0, bbox: [x_min: 0.000, y_min: 0.000, x_max: 1707.637, y_max: 2550.000]</title>
</g>
<g id="items">
<defs>
<g id="item_0">
<path d="M10,115 L478,113 L727,21 L856,44 L930,47 L1049,0 L1097,295 L1078,396 L0,407 z" fill="#7A7A7A" fill-opacity="0.5" fill-rule="nonzero" stroke="black" stroke-width="4.6960015"/>
</g>
<g id="item_1">
<path d="M0,0 L316,2 L316,274 L0,275 z" fill="#7A7A7A" fill-opacity="0.5" fill-rule="nonzero" stroke="black" stroke-width="4.6960015"/>
</g>
<g id="item_2">
<path d="M0,1 L239,0 L242,80 L0,78 z" fill="#7A7A7A" fill-opacity="0.5" fill-rule="nonzero" stroke="black" stroke-width="4.6960015"/>
</g>
<g id="item_3">
<path d="M0,310 L0,119 L384,0 L384,70 L759,69 L758,310 z" fill="#7A7A7A" fill-opacity="0.5" fill-rule="nonzero" stroke="black" stroke-width="4.6960015"/>
</g>
<g id="item_4">
<path d="M0,252 L0,75 L150,0 L148,175 z" fill="#7A7A7A" fill-opacity="0.5" fill-rule="nonzero" stroke="black" stroke-width="4.6960015"/>
</g>
<g id="item_5">
<path d="M852,412 L503,414 L387,451 L355,505 L300,451 L45,325 L0,221 L0,154 L55,53 L145,16 L329,25 L407,35 L539,38 L597,51 L668,20 L736,0 L784,3 L849,194 z" fill="#7A7A7A" fill-opacity="0.5" fill-rule="nonzero" stroke="black" stroke-width="4.6960015"/>
</g>
<g id="item_6">
<path d="M0,232 L827,0 L894,20 L975,258 L1097,260 L1003,500 L884,463 L845,453 L761,490 L732,547 L694,544 L616,477 L539,414 L0,426 z" fill="#7A7A7A" fill-opacity="0.5" fill-rule="nonzero" stroke="black" stroke-width="4.6960015"/>
</g>
<g id="item_7">
<path d="M151,427 L97,266 L0,259 L75,28 L126,21 L191,61 L271,50 L316,64 L359,10 L436,6 L442,43 L694,75 L726,42 L1091,0 L1094,211 L1033,208 L987,346 L926,393 z" fill="#7A7A7A" fill-opacity="0.5" fill-rule="nonzero" stroke="black" stroke-width="4.6960015"/>
</g>
<g id="item_8">
<path d="M0,0 L745,24 L619,196 L590,276 L522,260 L6,282 z" fill="#7A7A7A" fill-opacity="0.5" fill-rule="nonzero" stroke="black" stroke-width="4.6960015"/>
</g>
</defs>
<use transform="translate(1370.6174 766.60284), rotate(-180)" xlink:href="#item_6">
<title>item, id: 6, transf: [r: -180.000°, t: (1370.617, 766.603)]</title>
</use>
<use transform="translate(552.2245 532.26953), rotate(0)" xlink:href="#item_6">
<title>item, id: 6, transf: [r: 0.000°, t: (552.224, 532.270)]</title>
</use>
<use transform="translate(1396.0093 1862.2476), rotate(-180)" xlink:href="#item_7">
<title>item, id: 7, transf: [r: -180.000°, t: (1396.009, 1862.248)]</title>
</use>
<use transform="translate(240.6012 1834.1776), rotate(0)" xlink:href="#item_7">
<title>item, id: 7, transf: [r: 0.000°, t: (240.601, 1834.178)]</title>
</use>
<use transform="translate(610.61633 2142.9995), rotate(0)" xlink:href="#item_0">
<title>item, id: 0, transf: [r: 0.000°, t: (610.616, 2143.000)]</title>
</use>
<use transform="translate(1300.6318 2122.7017), rotate(-90)" xlink:href="#item_0">
<title>item, id: 0, transf: [r: -90.000°, t: (1300.632, 2122.702)]</title>
</use>
<use transform="translate(505.5625 640.04517), rotate(90)" xlink:href="#item_5">
<title>item, id: 5, transf: [r: 90.000°, t: (505.562, 640.045)]</title>
</use>
<use transform="translate(1329.0708 1453.8903), rotate(-180)" xlink:href="#item_5">
<title>item, id: 5, transf: [r: -180.000°, t: (1329.071, 1453.890)]</title>
</use>
<use transform="translate(1397.6272 759.02234), rotate(-90)" xlink:href="#item_3">
<title>item, id: 3, transf: [r: -90.000°, t: (1397.627, 759.022)]</title>
</use>
<use transform="translate(310.01163 1494.4072), rotate(90)" xlink:href="#item_3">
<title>item, id: 3, transf: [r: 90.000°, t: (310.012, 1494.407)]</title>
</use>
<use transform="translate(1466.9036 282.6222), rotate(-180)" xlink:href="#item_8">
<title>item, id: 8, transf: [r: -180.000°, t: (1466.904, 282.622)]</title>
</use>
<use transform="translate(0.45437622 0.000869751), rotate(0)" xlink:href="#item_8">
<title>item, id: 8, transf: [r: 0.000°, t: (0.454, 0.001)]</title>
</use>
<use transform="translate(275.01883 285.09238), rotate(90)" xlink:href="#item_1">
<title>item, id: 1, transf: [r: 90.000°, t: (275.019, 285.092)]</title>
</use>
<use transform="translate(292.8429 2274.987), rotate(0)" xlink:href="#item_1">
<title>item, id: 1, transf: [r: 0.000°, t: (292.843, 2274.987)]</title>
</use>
<use transform="translate(290.803 2253.3098), rotate(90)" xlink:href="#item_4">
<title>item, id: 4, transf: [r: 90.000°, t: (290.803, 2253.310)]</title>
</use>
<use transform="translate(0.0072784424 2549.9883), rotate(-90)" xlink:href="#item_4">
<title>item, id: 4, transf: [r: -90.000°, t: (0.007, 2549.988)]</title>
</use>
<use transform="translate(557.56665 957.5686), rotate(0)" xlink:href="#item_2">
<title>item, id: 2, transf: [r: 0.000°, t: (557.567, 957.569)]</title>
</use>
<use transform="translate(1334.271 2162.4429), rotate(-90)" xlink:href="#item_2">
<title>item, id: 2, transf: [r: -90.000°, t: (1334.271, 2162.443)]</title>
</use>
<use transform="translate(85.96036 616.8857), rotate(90)" xlink:href="#item_2">
<title>item, id: 2, transf: [r: 90.000°, t: (85.960, 616.886)]</title>
</use>
<use transform="translate(1069.3602 347.8495), rotate(-180)" xlink:href="#item_2">
<title>item, id: 2, transf: [r: -180.000°, t: (1069.360, 347.849)]</title>
</use>
</g>
<g id="quality_zones"/>
<g id="optionals">
<g id="overlap_lines" transform="translate(0 0), rotate(0)"/>
</g>
<text font-family="monospace" font-size="42.690926" font-weight="500" x="0" y="-21.345463">
height: 2550.000 | width: 1707.637 | usage: 86.316% | final_bench_81
</text>
</svg>