<svg viewBox="-85.124565 -127.50003 1872.74 2805" xmlns="http://www.w3.org/2000/svg" xmlns:xlink="http://www.w3.org/1999/xlink">
<g id="bin_0">
<path d="M0,0 L1702.491,0 L1702.491,2550 L0,2550 z" fill="#D3D3D3" stroke="black" stroke-width="9.3637"/>
<title>bin, id: 0, bbox: [x_min: 0.000, y_min: 0.000, x_max: 1702.491, y_max: 2550.000]</title>
</g>
<g id="items">
<defs>
<g id="item_0">
<path d="M10,115 L478,113 L727,21 L856,44 L930,47 L1049,0 L1097,295 L1078,396 L0,407 z" fill="#7A7A7A" fill-opacity="0.5" fill-rule="nonzero" stroke="black" stroke-width="4.68185"/>
</g>
<g id="item_1">
<path d="M0,0 L316,2 L316,274 L0,275 z" fill="#7A7A7A" fill-opacity="0.5" fill-rule="nonzero" stroke="black" stroke-width="4.68185"/>
</g>
<g id="item_2">
<path d="M0,1 L239,0 L242,80 L0,78 z" fill="#7A7A7A" fill-opacity="0.5" fill-rule="nonzero" stroke="black" stroke-width="4.68185"/>
</g>
<g id="item_3">
<path d="M0,310 L0,119 L384,0 L384,70 L759,69 L758,310 z" fill="#7A7A7A" fill-opacity="0.5" fill-rule="nonzero" stroke="black" stroke-width="4.68185"/>
</g>
<g id="item_4">
<path d="M0,252 L0,75 L150,0 L148,175 z" fill="#7A7A7A" fill-opacity="0.5" fill-rule="nonzero" stroke="black" stroke-width="4.68185"/>
</g>
<g id="item_5">
<path d="M852,412 L503,414 L387,451 L355,505 L300,451 L45,325 L0,221 L0,154 L55,53 L145,16 L329,25 L407,35 L539,38 L597,51 L668,20 L736,0 L784,3 L849,194 z" fill="#7A7A7A" fill-opacity="0.5" fill-rule="nonzero" stroke="black" stroke-width="4.68185"/>
</g>
<g id="item_6">
<path d="M0,232 L827,0 L894,20 L975,258 L1097,260 L1003,500 L884,463 L845,453 L761,490 L732,547 L694,544 L616,477 L539,414 L0,426 z" fill="#7A7A7A" fill-opacity="0.5" fill-rule="nonzero" stroke="black" stroke-width="4.68185"/>
</g>
<g id="item_7">
<path d="M151,427 L97,266 L0,259 L75,28 L126,21 L191,61 L271,50 L316,64 L359,10 L436,6 L442,43 L694,75 L726,42 L1091,0 L1094,211 L1033,208 L987,346 L926,393 z" fill="#7A7A7A" fill-opacity="0.5" fill-rule="nonzero" stroke="black" stroke-width="4.68185"/>
</g>
<g id="item_8">
<path d="M0,0 L745,24 L619,196 L590,276 L522,260 L6,282 z" fill="#7A7A7A" fill-opacity="0.5" fill-rule="nonzero" stroke="black" stroke-width="4.68185"/>
</g>
</defs>
<use transform="translate(1370.6006 767.1386), rotate(-180)" xlink:href="#item_6">
<title>item, id: 6, transf: [r: -180.000°, t: (1370.601, 767.139)]</title>
</use>
<use transform="translate(499.24365 547.5841), rotate(0)" xlink:href="#item_6">
<title>item, id: 6, transf: [r: 0.000°, t: (499.244, 547.584)]</title>
</use>
<use transform="translate(986.14557 2549.8018), rotate(-90)" xlink:href="#item_7">
<title>item, id: 7, transf: [r: -90.000°, t: (986.146, 2549.802)]</title>
</use>
<use transform="translate(1021.119 1455.7097), rotate(90)" xlink:href="#item_7">
<title>item, id: 7, transf: [r: 90.000°, t: (1021.119, 1455.710)]</title>
</use>
<use transform="translate(1295.3115 2180.477), rotate(-90)" xlink:href="#item_0">
<title>item, id: 0, transf: [r: -90.000°, t: (1295.312, 2180.477)]</title>
</use>
<use transform="translate(196.6082 2549.8767), rotate(-90)" xlink:href="#item_0">
<title>item, id: 0, transf: [r: -90.000°, t: (196.608, 2549.877)]</title>
</use>
<use transform="translate(1339.4277 1467.8513), rotate(-180)" xlink:href="#item_5">
<title>item, id: 5, transf: [r: -180.000°, t: (1339.428, 1467.851)]</title>
</use>
<use transform="translate(505.062 632.7295), rotate(90)" xlink:href="#item_5">
<title>item, id: 5, transf: [r: 90.000°, t: (505.062, 632.729)]</title>
</use>
<use transform="translate(1392.4846 765.767), rotate(-90)" xlink:href="#item_3">
<title>item, id: 3, transf: [r: -90.000°, t: (1392.485, 765.767)]</title>
</use>
<use transform="translate(310.0005 1790.9653), rotate(90)" xlink:href="#item_3">
<title>item, id: 3, transf: [r: 90.000°, t: (310.000, 1790.965)]</title>
</use>
<use transform="translate(1462.2059 282.00616), rotate(-180)" xlink:href="#item_8">
<title>item, id: 8, transf: [r: -180.000°, t: (1462.206, 282.006)]</title>
</use>
<use transform="translate(11.012787 0.035461426), rotate(0)" xlink:href="#item_8">
<title>item, id: 8, transf: [r: 0.000°, t: (11.013, 0.035)]</title>
</use>
<use transform="translate(1696.3542 2222.0444), rotate(90)" xlink:href="#item_1">
<title>item, id: 1, transf: [r: 90.000°, t: (1696.354, 2222.044)]</title>
</use>
<use transform="translate(275.00873 284.61447), rotate(90)" xlink:href="#item_1">
<title>item, id: 1, transf: [r: 90.000°, t: (275.009, 284.614)]</title>
</use>
<use transform="translate(61.11042 1538.9274), rotate(0)" xlink:href="#item_4">
<title>item, id: 4, transf: [r: 0.000°, t: (61.110, 1538.927)]</title>
</use>
<use transform="translate(1702.4337 1089.5665), rotate(-180)" xlink:href="#item_4">
<title>item, id: 4, transf: [r: -180.000°, t: (1702.434, 1089.567)]</title>
</use>
<use transform="translate(5.6939545 1365.3868), rotate(-90)" xlink:href="#item_2">
<title>item, id: 2, transf: [r: -90.000°, t: (5.694, 1365.387)]</title>
</use>
<use transform="translate(80.0001 1365.4784), rotate(90)" xlink:href="#item_2">
<title>item, id: 2, transf: [r: 90.000°, t: (80.000, 1365.478)]</title>
</use>
<use transform="translate(86.78339 618.07355), rotate(90)" xlink:href="#item_2">
<title>item, id: 2, transf: [r: 90.000°, t: (86.783, 618.074)]</title>
</use>
<use transform="translate(726.10205 1055.379), rotate(-180)" xlink:href="#item_2">
<title>item, id: 2, transf: [r: -180.000°, t: (726.102, 1055.379)]</title>
</use>
</g>
<g id="quality_zones"/>
<g id="optionals">
<g id="overlap_lines" transform="translate(0 0), rotate(0)"/>
</g>
<text font-family="monospace" font-size="42.562275" font-weight="500" x="0" y="-21.281137">
height: 2550.000 | width: 1702.491 | usage: 86.577% | final_bench_53
</text>
</svg>