<svg viewBox="-85.69608 -127.50003 1885.3134 2805" xmlns="http://www.w3.org/2000/svg" xmlns:xlink="http://www.w3.org/1999/xlink">
<g id="bin_0">
<path d="M0,0 L1713.9213,0 L1713.9213,2550 L0,2550 z" fill="#D3D3D3" stroke="black" stroke-width="9.426567"/>
<title>bin, id: 0, bbox: [x_min: 0.000, y_min: 0.000, x_max: 1713.921, y_max: 2550.000]</title>
</g>
<g id="items">
<defs>
<g id="item_0">
<path d="M10,115 L478,113 L727,21 L856,44 L930,47 L1049,0 L1097,295 L1078,396 L0,407 z" fill="#7A7A7A" fill-opacity="0.5" fill-rule="nonzero" stroke="black" stroke-width="4.7132835"/>
</g>
<g id="item_1">
<path d="M0,0 L316,2 L316,274 L0,275 z" fill="#7A7A7A" fill-opacity="0.5" fill-rule="nonzero" stroke="black" stroke-width="4.7132835"/>
</g>
<g id="item_2">
<path d="M0,1 L239,0 L242,80 L0,78 z" fill="#7A7A7A" fill-opacity="0.5" fill-rule="nonzero" stroke="black" stroke-width="4.7132835"/>
</g>
<g id="item_3">
<path d="M0,310 L0,119 L384,0 L384,70 L759,69 L758,310 z" fill="#7A7A7A" fill-opacity="0.5" fill-rule="nonzero" stroke="black" stroke-width="4.7132835"/>
</g>
<g id="item_4">
<path d="M0,252 L0,75 L150,0 L148,175 z" fill="#7A7A7A" fill-opacity="0.5" fill-rule="nonzero" stroke="black" stroke-width="4.7132835"/>
</g>
<g id="item_5">
<path d="M852,412 L503,414 L387,451 L355,505 L300,451 L45,325 L0,221 L0,154 L55,53 L145,16 L329,25 L407,35 L539,38 L597,51 L668,20 L736,0 L784,3 L849,194 z" fill="#7A7A7A" fill-opacity="0.5" fill-rule="nonzero" stroke="black" stroke-width="4.7132835"/>
</g>
<g id="item_6">
<path d="M0,232 L827,0 L894,20 L975,258 L1097,260 L1003,500 L884,463 L845,453 L761,490 L732,547 L694,544 L616,477 L539,414 L0,426 z" fill="#7A7A7A" fill-opacity="0.5" fill-rule="nonzero" stroke="black" stroke-width="4.7132835"/>
</g>
<g id="item_7">
<path d="M151,427 L97,266 L0,259 L75,28 L126,21 L191,61 L271,50 L316,64 L359,10 L436,6 L442,43 L694,75 L726,42 L1091,0 L1094,211 L1033,208 L987,346 L926,393 z" fill="#7A7A7A" fill-opacity="0.5" fill-rule="nonzero" stroke="black" stroke-width="4.7132835"/>
</g>
<g id="item_8">
<path d="M0,0 L745,24 L619,196 L590,276 L522,260 L6,282 z" fill="#7A7A7A" fill-opacity="0.5" fill-rule="nonzero" stroke="black" stroke-width="4.7132835"/>
</g>
</defs>
<use transform="translate(1075.4534 1123.0618), rotate(90)" xlink:href="#item_6">
<title>item, id: 6, transf: [r: 90.000°, t: (1075.453, 1123.062)]</title>
</use>
<use transform="translate(871.8076 2050.8833), rotate(-90)" xlink:href="#item_6">
<title>item, id: 6, transf: [r: -90.000°, t: (871.808, 2050.883)]</title>
</use>
<use transform="translate(1713.6019 0.024963379), rotate(90)" xlink:href="#item_7">
<title>item, id: 7, transf: [r: 90.000°, t: (1713.602, 0.025)]</title>
</use>
<use transform="translate(1713.9211 1410.0317), rotate(90)" xlink:href="#item_7">
<title>item, id: 7, transf: [r: 90.000°, t: (1713.921, 1410.032)]</title>
</use>
<use transform="translate(407.04062 0.52593994), rotate(90)" xlink:href="#item_0">
<title>item, id: 0, transf: [r: 90.000°, t: (407.041, 0.526)]</title>
</use>
<use transform="translate(240.50684 2142.979), rotate(0)" xlink:href="#item_0">
<title>item, id: 0, transf: [r: 0.000°, t: (240.507, 2142.979)]</title>
</use>
<use transform="translate(361.76178 1120.0352), rotate(-90)" xlink:href="#item_5">
<title>item, id: 5, transf: [r: -90.000°, t: (361.762, 1120.035)]</title>
</use>
<use transform="translate(1304.8185 57.056763), rotate(90)" xlink:href="#item_5">
<title>item, id: 5, transf: [r: 90.000°, t: (1304.818, 57.057)]</title>
</use>
<use transform="translate(310.00513 1776.4033), rotate(90)" xlink:href="#item_3">
<title>item, id: 3, transf: [r: 90.000°, t: (310.005, 1776.403)]</title>
</use>
<use transform="translate(218.27638 2248.3215), rotate(-90)" xlink:href="#item_3">
<title>item, id: 3, transf: [r: -90.000°, t: (218.276, 2248.322)]</title>
</use>
<use transform="translate(299.9173 1093.5374), rotate(90)" xlink:href="#item_8">
<title>item, id: 8, transf: [r: 90.000°, t: (299.917, 1093.537)]</title>
</use>
<use transform="translate(291.83398 0.0004272461), rotate(0)" xlink:href="#item_8">
<title>item, id: 8, transf: [r: 0.000°, t: (291.834, 0.000)]</title>
</use>
<use transform="translate(296.9709 1452.9473), rotate(-90)" xlink:href="#item_1">
<title>item, id: 1, transf: [r: -90.000°, t: (296.971, 1452.947)]</title>
</use>
<use transform="translate(1693.1407 1094.029), rotate(90)" xlink:href="#item_1">
<title>item, id: 1, transf: [r: 90.000°, t: (1693.141, 1094.029)]</title>
</use>
<use transform="translate(737.1918 1123.0403), rotate(-90)" xlink:href="#item_4">
<title>item, id: 4, transf: [r: -90.000°, t: (737.192, 1123.040)]</title>
</use>
<use transform="translate(1130.0077 909.0816), rotate(90)" xlink:href="#item_4">
<title>item, id: 4, transf: [r: 90.000°, t: (1130.008, 909.082)]</title>
</use>
<use transform="translate(535.7009 1701.2952), rotate(-90)" xlink:href="#item_2">
<title>item, id: 2, transf: [r: -90.000°, t: (535.701, 1701.295)]</title>
</use>
<use transform="translate(652.334 1211.9227), rotate(90)" xlink:href="#item_2">
<title>item, id: 2, transf: [r: 90.000°, t: (652.334, 1211.923)]</title>
</use>
<use transform="translate(855.2285 2085.012), rotate(0)" xlink:href="#item_2">
<title>item, id: 2, transf: [r: 0.000°, t: (855.229, 2085.012)]</title>
</use>
<use transform="translate(1205.9287 0.16617203), rotate(0)" xlink:href="#item_2">
<title>item, id: 2, transf: [r: 0.000°, t: (1205.929, 0.166)]</title>
</use>
</g>
<g id="quality_zones"/>
<g id="optionals">
<g id="overlap_lines" transform="translate(0 0), rotate(0)"/>
</g>
<text font-family="monospace" font-size="42.848034" font-weight="500" x="0" y="-21.424017">
height: 2550.000 | width: 1713.921 | usage: 86.000% | final_bench_78
</text>
</svg>