<svg viewBox="-86.47507 -127.50003 1902.451 2805" xmlns="http://www.w3.org/2000/svg" xmlns:xlink="http://www.w3.org/1999/xlink">
<g id="bin_0">
<path d="M0,0 L1729.5009,0 L1729.5009,2550 L0,2550 z" fill="#D3D3D3" stroke="black" stroke-width="9.512256"/>
<title>bin, id: 0, bbox: [x_min: 0.000, y_min: 0.000, x_max: 1729.501, y_max: 2550.000]</title>
</g>
<g id="items">
<defs>
<g id="item_0">
<path d="M10,115 L478,113 L727,21 L856,44 L930,47 L1049,0 L1097,295 L1078,396 L0,407 z" fill="#7A7A7A" fill-opacity="0.5" fill-rule="nonzero" stroke="black" stroke-width="4.756128"/>
</g>
<g id="item_1">
<path d="M0,0 L316,2 L316,274 L0,275 z" fill="#7A7A7A" fill-opacity="0.5" fill-rule="nonzero" stroke="black" stroke-width="4.756128"/>
</g>
<g id="item_2">
<path d="M0,1 L239,0 L242,80 L0,78 z" fill="#7A7A7A" fill-opacity="0.5" fill-rule="nonzero" stroke="black" stroke-width="4.756128"/>
</g>
<g id="item_3">
<path d="M0,310 L0,119 L384,0 L384,70 L759,69 L758,310 z" fill="#7A7A7A" fill-opacity="0.5" fill-rule="nonzero" stroke="black" stroke-width="4.756128"/>
</g>
<g id="item_4">
<path d="M0,252 L0,75 L150,0 L148,175 z" fill="#7A7A7A" fill-opacity="0.5" fill-rule="nonzero" stroke="black" stroke-width="4.756128"/>
</g>
<g id="item_5">
<path d="M852,412 L503,414 L387,451 L355,505 L300,451 L45,325 L0,221 L0,154 L55,53 L145,16 L329,25 L407,35 L539,38 L597,51 L668,20 L736,0 L784,3 L849,194 z" fill="#7A7A7A" fill-opacity="0.5" fill-rule="nonzero" stroke="black" stroke-width="4.756128"/>
</g>
<g id="item_6">
<path d="M0,232 L827,0 L894,20 L975,258 L1097,260 L1003,500 L884,463 L845,453 L761,490 L732,547 L694,544 L616,477 L539,414 L0,426 z" fill="#7A7A7A" fill-opacity="0.5" fill-rule="nonzero" stroke="black" stroke-width="4.756128"/>
</g>
<g id="item_7">
<path d="M151,427 L97,266 L0,259 L75,28 L126,21 L191,61 L271,50 L316,64 L359,10 L436,6 L442,43 L694,75 L726,42 L1091,0 L1094,211 L1033,208 L987,346 L926,393 z" fill="#7A7A7A" fill-opacity="0.5" fill-rule="nonzero" stroke="black" stroke-width="4.756128"/>
</g>
<g id="item_8">
<path d="M0,0 L745,24 L619,196 L590,276 L522,260 L6,282 z" fill="#7A7A7A" fill-opacity="0.5" fill-rule="nonzero" stroke="black" stroke-width="4.756128"/>
</g>
</defs>
<use transform="translate(970.8332 418.88727), rotate(90)" xlink:href="#item_6">
<title>item, id: 6, transf: [r: 90.000°, t: (970.833, 418.887)]</title>
</use>
<use transform="translate(764.7371 1337.7676), rotate(-90)" xlink:href="#item_6">
<title>item, id: 6, transf: [r: -90.000°, t: (764.737, 1337.768)]</title>
</use>
<use transform="translate(635.4085 2122.8704), rotate(0)" xlink:href="#item_7">
<title>item, id: 7, transf: [r: 0.000°, t: (635.409, 2122.870)]</title>
</use>
<use transform="translate(1729.4785 242.58105), rotate(90)" xlink:href="#item_7">
<title>item, id: 7, transf: [r: 90.000°, t: (1729.479, 242.581)]</title>
</use>
<use transform="translate(677.8324 1452.8398), rotate(90)" xlink:href="#item_0">
<title>item, id: 0, transf: [r: 90.000°, t: (677.832, 1452.840)]</title>
</use>
<use transform="translate(632.50037 1706.6912), rotate(0)" xlink:href="#item_0">
<title>item, id: 0, transf: [r: 0.000°, t: (632.500, 1706.691)]</title>
</use>
<use transform="translate(1729.4993 1751.5784), rotate(-180)" xlink:href="#item_5">
<title>item, id: 5, transf: [r: -180.000°, t: (1729.499, 1751.578)]</title>
</use>
<use transform="translate(11.862427 0.055923462), rotate(0)" xlink:href="#item_5">
<title>item, id: 5, transf: [r: 0.000°, t: (11.862, 0.056)]</title>
</use>
<use transform="translate(310.05 1046.7424), rotate(90)" xlink:href="#item_3">
<title>item, id: 3, transf: [r: 90.000°, t: (310.050, 1046.742)]</title>
</use>
<use transform="translate(1635.0072 310.1066), rotate(-180)" xlink:href="#item_3">
<title>item, id: 3, transf: [r: -180.000°, t: (1635.007, 310.107)]</title>
</use>
<use transform="translate(0.0030670166 1046.3293), rotate(-90)" xlink:href="#item_8">
<title>item, id: 8, transf: [r: -90.000°, t: (0.003, 1046.329)]</title>
</use>
<use transform="translate(0.0035552979 2549.9487), rotate(-90)" xlink:href="#item_8">
<title>item, id: 8, transf: [r: -90.000°, t: (0.004, 2549.949)]</title>
</use>
<use transform="translate(272.78137 823.3198), rotate(-90)" xlink:href="#item_1">
<title>item, id: 1, transf: [r: -90.000°, t: (272.781, 823.320)]</title>
</use>
<use transform="translate(564.3622 1545.8108), rotate(0)" xlink:href="#item_1">
<title>item, id: 1, transf: [r: 0.000°, t: (564.362, 1545.811)]</title>
</use>
<use transform="translate(477.7506 1433.3771), rotate(-180)" xlink:href="#item_4">
<title>item, id: 4, transf: [r: -180.000°, t: (477.751, 1433.377)]</title>
</use>
<use transform="translate(268.64404 1002.34924), rotate(0)" xlink:href="#item_4">
<title>item, id: 4, transf: [r: 0.000°, t: (268.644, 1002.349)]</title>
</use>
<use transform="translate(1287.2676 1035.5719), rotate(90)" xlink:href="#item_2">
<title>item, id: 2, transf: [r: 90.000°, t: (1287.268, 1035.572)]</title>
</use>
<use transform="translate(278.78894 879.8723), rotate(0)" xlink:href="#item_2">
<title>item, id: 2, transf: [r: 0.000°, t: (278.789, 879.872)]</title>
</use>
<use transform="translate(1285.1243 782.67487), rotate(90)" xlink:href="#item_2">
<title>item, id: 2, transf: [r: 90.000°, t: (1285.124, 782.675)]</title>
</use>
<use transform="translate(1639.6924 250.85376), rotate(-90)" xlink:href="#item_2">
<title>item, id: 2, transf: [r: -90.000°, t: (1639.692, 250.854)]</title>
</use>
</g>
<g id="quality_zones"/>
<g id="optionals">
<g id="overlap_lines" transform="translate(0 0), rotate(0)"/>
</g>
<text font-family="monospace" font-size="43.237522" font-weight="500" x="0" y="-21.618761">
height: 2550.000 | width: 1729.501 | usage: 85.225% | final_bench_71
</text>
</svg>