<svg viewBox="-86.03357 -127.50003 1892.7382 2805" xmlns="http://www.w3.org/2000/svg" xmlns:xlink="http://www.w3.org/1999/xlink">
<g id="bin_0">
<path d="M0,0 L1720.671,0 L1720.671,2550 L0,2550 z" fill="#D3D3D3" stroke="black" stroke-width="9.463691"/>
<title>bin, id: 0, bbox: [x_min: 0.000, y_min: 0.000, x_max: 1720.671, y_max: 2550.000]</title>
</g>
<g id="items">
<defs>
<g id="item_0">
<path d="M10,115 L478,113 L727,21 L856,44 L930,47 L1049,0 L1097,295 L1078,396 L0,407 z" fill="#7A7A7A" fill-opacity="0.5" fill-rule="nonzero" stroke="black" stroke-width="4.7318454"/>
</g>
<g id="item_1">
<path d="M0,0 L316,2 L316,274 L0,275 z" fill="#7A7A7A" fill-opacity="0.5" fill-rule="nonzero" stroke="black" stroke-width="4.7318454"/>
</g>
<g id="item_2">
<path d="M0,1 L239,0 L242,80 L0,78 z" fill="#7A7A7A" fill-opacity="0.5" fill-rule="nonzero" stroke="black" stroke-width="4.7318454"/>
</g>
<g id="item_3">
<path d="M0,310 L0,119 L384,0 L384,70 L759,69 L758,310 z" fill="#7A7A7A" fill-opacity="0.5" fill-rule="nonzero" stroke="black" stroke-width="4.7318454"/>
</g>
<g id="item_4">
<path d="M0,252 L0,75 L150,0 L148,175 z" fill="#7A7A7A" fill-opacity="0.5" fill-rule="nonzero" stroke="black" stroke-width="4.7318454"/>
</g>
<g id="item_5">
<path d="M852,412 L503,414 L387,451 L355,505 L300,451 L45,325 L0,221 L0,154 L55,53 L145,16 L329,25 L407,35 L539,38 L597,51 L668,20 L736,0 L784,3 L849,194 z" fill="#7A7A7A" fill-opacity="0.5" fill-rule="nonzero" stroke="black" stroke-width="4.7318454"/>
</g>
<g id="item_6">
<path d="M0,232 L827,0 L894,20 L975,258 L1097,260 L1003,500 L884,463 L845,453 L761,490 L732,547 L694,544 L616,477 L539,414 L0,426 z" fill="#7A7A7A" fill-opacity="0.5" fill-rule="nonzero" stroke="black" stroke-width="4.7318454"/>
</g>
<g id="item_7">
<path d="M151,427 L97,266 L0,259 L75,28 L126,21 L191,61 L271,50 L316,64 L359,10 L436,6 L442,43 L694,75 L726,42 L1091,0 L1094,211 L1033,208 L987,346 L926,393 z" fill="#7A7A7A" fill-opacity="0.5" fill-rule="nonzero" stroke="black" stroke-width="4.7318454"/>
</g>
<g id="item_8">
<path d="M0,0 L745,24 L619,196 L590,276 L522,260 L6,282 z" fill="#7A7A7A" fill-opacity="0.5" fill-rule="nonzero" stroke="black" stroke-width="4.7318454"/>
</g>
</defs>
<use transform="translate(612.60266 952.2728), rotate(0)" xlink:href="#item_6">
<title>item, id: 6, transf: [r: 0.000°, t: (612.603, 952.273)]</title>
</use>
<use transform="translate(1440.3967 1178.0723), rotate(-180)" xlink:href="#item_6">
<title>item, id: 6, transf: [r: -180.000°, t: (1440.397, 1178.072)]</title>
</use>
<use transform="translate(348.8241 2465.221), rotate(-90)" xlink:href="#item_7">
<title>item, id: 7, transf: [r: -90.000°, t: (348.824, 2465.221)]</title>
</use>
<use transform="translate(1386.7943 694.1902), rotate(-180)" xlink:href="#item_7">
<title>item, id: 7, transf: [r: -180.000°, t: (1386.794, 694.190)]</title>
</use>
<use transform="translate(407.0017 1452.8184), rotate(90)" xlink:href="#item_0">
<title>item, id: 0, transf: [r: 90.000°, t: (407.002, 1452.818)]</title>
</use>
<use transform="translate(407.00146 306.40186), rotate(90)" xlink:href="#item_0">
<title>item, id: 0, transf: [r: 90.000°, t: (407.001, 306.402)]</title>
</use>
<use transform="translate(750.1794 2236.9526), rotate(-90)" xlink:href="#item_5">
<title>item, id: 5, transf: [r: -90.000°, t: (750.179, 2236.953)]</title>
</use>
<use transform="translate(1684.2761 1425.7682), rotate(90)" xlink:href="#item_5">
<title>item, id: 5, transf: [r: 90.000°, t: (1684.276, 1425.768)]</title>
</use>
<use transform="translate(1410.67 1040.0465), rotate(-90)" xlink:href="#item_3">
<title>item, id: 3, transf: [r: -90.000°, t: (1410.670, 1040.047)]</title>
</use>
<use transform="translate(642.5285 2239.9985), rotate(0)" xlink:href="#item_3">
<title>item, id: 3, transf: [r: 0.000°, t: (642.529, 2239.999)]</title>
</use>
<use transform="translate(359.8645 3.5586243), rotate(0)" xlink:href="#item_8">
<title>item, id: 8, transf: [r: 0.000°, t: (359.865, 3.559)]</title>
</use>
<use transform="translate(1711.3485 282.0078), rotate(-180)" xlink:href="#item_8">
<title>item, id: 8, transf: [r: -180.000°, t: (1711.349, 282.008)]</title>
</use>
<use transform="translate(1720.6702 2549.9648), rotate(-180)" xlink:href="#item_1">
<title>item, id: 1, transf: [r: -180.000°, t: (1720.670, 2549.965)]</title>
</use>
<use transform="translate(316.1117 275.08615), rotate(-180)" xlink:href="#item_1">
<title>item, id: 1, transf: [r: -180.000°, t: (316.112, 275.086)]</title>
</use>
<use transform="translate(612.5978 1221.782), rotate(90)" xlink:href="#item_4">
<title>item, id: 4, transf: [r: 90.000°, t: (612.598, 1221.782)]</title>
</use>
<use transform="translate(1117.357 2053.9937), rotate(0)" xlink:href="#item_4">
<title>item, id: 4, transf: [r: 0.000°, t: (1117.357, 2053.994)]</title>
</use>
<use transform="translate(465.04095 920.05554), rotate(90)" xlink:href="#item_2">
<title>item, id: 2, transf: [r: 90.000°, t: (465.041, 920.056)]</title>
</use>
<use transform="translate(385.1296 1718.9264), rotate(90)" xlink:href="#item_2">
<title>item, id: 2, transf: [r: 90.000°, t: (385.130, 1718.926)]</title>
</use>
<use transform="translate(1169.9587 1692.4059), rotate(-90)" xlink:href="#item_2">
<title>item, id: 2, transf: [r: -90.000°, t: (1169.959, 1692.406)]</title>
</use>
<use transform="translate(1349.9459 754.5363), rotate(-180)" xlink:href="#item_2">
<title>item, id: 2, transf: [r: -180.000°, t: (1349.946, 754.536)]</title>
</use>
</g>
<g id="quality_zones"/>
<g id="optionals">
<g id="overlap_lines" transform="translate(0 0), rotate(0)"/>
</g>
<text font-family="monospace" font-size="43.016777" font-weight="500" x="0" y="-21.508389">
height: 2550.000 | width: 1720.671 | usage: 85.662% | final_bench_7
</text>
</svg>