<svg viewBox="-85.95467 -127.50003 1891.0026 2805" xmlns="http://www.w3.org/2000/svg" xmlns:xlink="http://www.w3.org/1999/xlink">
<g id="bin_0">
<path d="M0,0 L1719.0931,0 L1719.0931,2550 L0,2550 z" fill="#D3D3D3" stroke="black" stroke-width="9.455013"/>
<title>bin, id: 0, bbox: [x_min: 0.000, y_min: 0.000, x_max: 1719.093, y_max: 2550.000]</title>
</g>
<g id="items">
<defs>
<g id="item_0">
<path d="M10,115 L478,113 L727,21 L856,44 L930,47 L1049,0 L1097,295 L1078,396 L0,407 z" fill="#7A7A7A" fill-opacity="0.5" fill-rule="nonzero" stroke="black" stroke-width="4.7275066"/>
</g>
<g id="item_1">
<path d="M0,0 L316,2 L316,274 L0,275 z" fill="#7A7A7A" fill-opacity="0.5" fill-rule="nonzero" stroke="black" stroke-width="4.7275066"/>
</g>
<g id="item_2">
<path d="M0,1 L239,0 L242,80 L0,78 z" fill="#7A7A7A" fill-opacity="0.5" fill-rule="nonzero" stroke="black" stroke-width="4.7275066"/>
</g>
<g id="item_3">
<path d="M0,310 L0,119 L384,0 L384,70 L759,69 L758,310 z" fill="#7A7A7A" fill-opacity="0.5" fill-rule="nonzero" stroke="black" stroke-width="4.7275066"/>
</g>
<g id="item_4">
<path d="M0,252 L0,75 L150,0 L148,175 z" fill="#7A7A7A" fill-opacity="0.5" fill-rule="nonzero" stroke="black" stroke-width="4.7275066"/>
</g>
<g id="item_5">
<path d="M852,412 L503,414 L387,451 L355,505 L300,451 L45,325 L0,221 L0,154 L55,53 L145,16 L329,25 L407,35 L539,38 L597,51 L668,20 L736,0 L784,3 L849,194 z" fill="#7A7A7A" fill-opacity="0.5" fill-rule="nonzero" stroke="black" stroke-width="4.7275066"/>
</g>
<g id="item_6">
<path d="M0,232 L827,0 L894,20 L975,258 L1097,260 L1003,500 L884,463 L845,453 L761,490 L732,547 L694,544 L616,477 L539,414 L0,426 z" fill="#7A7A7A" fill-opacity="0.5" fill-rule="nonzero" stroke="black" stroke-width="4.7275066"/>
</g>
<g id="item_7">
<path d="M151,427 L97,266 L0,259 L75,28 L126,21 L191,61 L271,50 L316,64 L359,10 L436,6 L442,43 L694,75 L726,42 L1091,0 L1094,211 L1033,208 L987,346 L926,393 z" fill="#7A7A7A" fill-opacity="0.5" fill-rule="nonzero" stroke="black" stroke-width="4.7275066"/>
</g>
<g id="item_8">
<path d="M0,0 L745,24 L619,196 L590,276 L522,260 L6,282 z" fill="#7A7A7A" fill-opacity="0.5" fill-rule="nonzero" stroke="black" stroke-width="4.7275066"/>
</g>
</defs>
<use transform="translate(522.4835 2147.227), rotate(-90)" xlink:href="#item_6">
<title>item, id: 6, transf: [r: -90.000°, t: (522.484, 2147.227)]</title>
</use>
<use transform="translate(709.5281 1159.9786), rotate(90)" xlink:href="#item_6">
<title>item, id: 6, transf: [r: 90.000°, t: (709.528, 1159.979)]</title>
</use>
<use transform="translate(390.10138 1094.0706), rotate(-90)" xlink:href="#item_7">
<title>item, id: 7, transf: [r: -90.000°, t: (390.101, 1094.071)]</title>
</use>
<use transform="translate(427.01242 15.559021), rotate(90)" xlink:href="#item_7">
<title>item, id: 7, transf: [r: 90.000°, t: (427.012, 15.559)]</title>
</use>
<use transform="translate(271.55365 2142.9976), rotate(0)" xlink:href="#item_0">
<title>item, id: 0, transf: [r: 0.000°, t: (271.554, 2142.998)]</title>
</use>
<use transform="translate(1312.0928 1509.4843), rotate(-90)" xlink:href="#item_0">
<title>item, id: 0, transf: [r: -90.000°, t: (1312.093, 1509.484)]</title>
</use>
<use transform="translate(837.1758 0.00050354004), rotate(0)" xlink:href="#item_5">
<title>item, id: 5, transf: [r: 0.000°, t: (837.176, 0.001)]</title>
</use>
<use transform="translate(1442.9332 1317.7566), rotate(90)" xlink:href="#item_5">
<title>item, id: 5, transf: [r: 90.000°, t: (1442.933, 1317.757)]</title>
</use>
<use transform="translate(1403.815 2275.1484), rotate(-90)" xlink:href="#item_3">
<title>item, id: 3, transf: [r: -90.000°, t: (1403.815, 2275.148)]</title>
</use>
<use transform="translate(1382.7883 558.8559), rotate(90)" xlink:href="#item_3">
<title>item, id: 3, transf: [r: 90.000°, t: (1382.788, 558.856)]</title>
</use>
<use transform="translate(0.056640625 1721.4133), rotate(-90)" xlink:href="#item_8">
<title>item, id: 8, transf: [r: -90.000°, t: (0.057, 1721.413)]</title>
</use>
<use transform="translate(1077.1686 421.35925), rotate(90)" xlink:href="#item_8">
<title>item, id: 8, transf: [r: 90.000°, t: (1077.169, 421.359)]</title>
</use>
<use transform="translate(275.03748 2188.893), rotate(90)" xlink:href="#item_1">
<title>item, id: 1, transf: [r: 90.000°, t: (275.037, 2188.893)]</title>
</use>
<use transform="translate(1388.8024 2274.9307), rotate(0)" xlink:href="#item_1">
<title>item, id: 1, transf: [r: 0.000°, t: (1388.802, 2274.931)]</title>
</use>
<use transform="translate(167.29292 2177.4292), rotate(-180)" xlink:href="#item_4">
<title>item, id: 4, transf: [r: -180.000°, t: (167.293, 2177.429)]</title>
</use>
<use transform="translate(158.1998 1988.0818), rotate(-180)" xlink:href="#item_4">
<title>item, id: 4, transf: [r: -180.000°, t: (158.200, 1988.082)]</title>
</use>
<use transform="translate(1030.08 1913.0568), rotate(90)" xlink:href="#item_2">
<title>item, id: 2, transf: [r: 90.000°, t: (1030.080, 1913.057)]</title>
</use>
<use transform="translate(734.6038 2224.7798), rotate(-180)" xlink:href="#item_2">
<title>item, id: 2, transf: [r: -180.000°, t: (734.604, 2224.780)]</title>
</use>
<use transform="translate(1410.5394 1018.5226), rotate(90)" xlink:href="#item_2">
<title>item, id: 2, transf: [r: 90.000°, t: (1410.539, 1018.523)]</title>
</use>
<use transform="translate(727.5163 1177.9869), rotate(-180)" xlink:href="#item_2">
<title>item, id: 2, transf: [r: -180.000°, t: (727.516, 1177.987)]</title>
</use>
</g>
<g id="quality_zones"/>
<g id="optionals">
<g id="overlap_lines" transform="translate(0 0), rotate(0)"/>
</g>
<text font-family="monospace" font-size="42.97733" font-weight="500" x="0" y="-21.488665">
height: 2550.000 | width: 1719.093 | usage: 85.741% | final_bench_3
</text>
</svg>