<svg viewBox="-485.89084 -245.00006 10689.596 5390" xmlns="http://www.w3.org/2000/svg" xmlns:xlink="http://www.w3.org/1999/xlink">
<g id="bin_0">
<path d="M0,0 L9717.814,0 L9717.814,4900 L0,4900 z" fill="#D3D3D3" stroke="black" stroke-width="26.95"/>
<title>bin, id: 0, bbox: [x_min: 0.000, y_min: 0.000, x_max: 9717.814, y_max: 4900.000]</title>
</g>
<g id="items">
<defs>
<g id="item_0">
<path d="M0,86 L966,142 L1983,0 L2185,238 L2734,217 L3000,767 L2819,900 L2819,1360 L3000,1493 L2734,2043 L2185,2022 L1983,2260 L966,2118 L0,2174 z" fill="#7A7A7A" fill-opacity="0.5" fill-rule="nonzero" stroke="black" stroke-width="13.475"/>
</g>
<g id="item_1">
<path d="M0,0 L3034,0 L3034,261 L0,261 z" fill="#7A7A7A" fill-opacity="0.5" fill-rule="nonzero" stroke="black" stroke-width="13.475"/>
</g>
<g id="item_2">
<path d="M0,173 L1761,0 L2183,650 L2183,1010 L1761,1660 L0,1487 z" fill="#7A7A7A" fill-opacity="0.5" fill-rule="nonzero" stroke="black" stroke-width="13.475"/>
</g>
<g id="item_3">
<path d="M74,0 L870,119 L1666,0 L1740,125 L870,305 L0,125 z" fill="#7A7A7A" fill-opacity="0.5" fill-rule="nonzero" stroke="black" stroke-width="13.475"/>
</g>
<g id="item_4">
<path d="M0,0 L411,65 L800,0 L1189,65 L1600,0 L1500,368 L800,286 L100,368 z" fill="#7A7A7A" fill-opacity="0.5" fill-rule="nonzero" stroke="black" stroke-width="13.475"/>
</g>
<g id="item_5">
<path d="M0,0 L936,0 L936,659 L0,659 z" fill="#7A7A7A" fill-opacity="0.5" fill-rule="nonzero" stroke="black" stroke-width="13.475"/>
</g>
<g id="item_6">
<path d="M56,73 L1066,143 L1891,0 L2186,288 L2573,241 L2676,926 L2594,1366 L0,1366 z" fill="#7A7A7A" fill-opacity="0.5" fill-rule="nonzero" stroke="black" stroke-width="13.475"/>
</g>
<g id="item_7">
<path d="M0,0 L2499,0 L2705,387 L2622,934 L2148,967 L1920,1152 L1061,1059 L0,1125 z" fill="#7A7A7A" fill-opacity="0.5" fill-rule="nonzero" stroke="black" stroke-width="13.475"/>
</g>
</defs>
<use transform="translate(0.029541016 1558.2585), rotate(0)" xlink:href="#item_0">
<title>item, id: 0, transf: [r: 0.000°, t: (0.030, 1558.259)]</title>
</use>
<use transform="translate(9717.652 3647.0322), rotate(-180)" xlink:href="#item_0">
<title>item, id: 0, transf: [r: -180.000°, t: (9717.652, 3647.032)]</title>
</use>
<use transform="translate(7648.7275 1627.1573), rotate(-180)" xlink:href="#item_6">
<title>item, id: 6, transf: [r: -180.000°, t: (7648.728, 1627.157)]</title>
</use>
<use transform="translate(7041.764 3532.2363), rotate(0)" xlink:href="#item_6">
<title>item, id: 6, transf: [r: 0.000°, t: (7041.764, 3532.236)]</title>
</use>
<use transform="translate(2705.0327 4899.9727), rotate(-180)" xlink:href="#item_7">
<title>item, id: 7, transf: [r: -180.000°, t: (2705.033, 4899.973)]</title>
</use>
<use transform="translate(2183.018 17.342102), rotate(0)" xlink:href="#item_7">
<title>item, id: 7, transf: [r: 0.000°, t: (2183.018, 17.342)]</title>
</use>
<use transform="translate(4888.9478 4725.377), rotate(-180)" xlink:href="#item_2">
<title>item, id: 2, transf: [r: -180.000°, t: (4888.948, 4725.377)]</title>
</use>
<use transform="translate(2183.0012 1660.0154), rotate(-180)" xlink:href="#item_2">
<title>item, id: 2, transf: [r: -180.000°, t: (2183.001, 1660.015)]</title>
</use>
<use transform="translate(4891.986 2977.9946), rotate(0)" xlink:href="#item_2">
<title>item, id: 2, transf: [r: 0.000°, t: (4891.986, 2977.995)]</title>
</use>
<use transform="translate(3022.0898 1567.6719), rotate(0)" xlink:href="#item_2">
<title>item, id: 2, transf: [r: 0.000°, t: (3022.090, 1567.672)]</title>
</use>
<use transform="translate(4811.7476 0.016845703), rotate(0)" xlink:href="#item_1">
<title>item, id: 1, transf: [r: 0.000°, t: (4811.748, 0.017)]</title>
</use>
<use transform="translate(7041.723 4899.9946), rotate(-180)" xlink:href="#item_1">
<title>item, id: 1, transf: [r: -180.000°, t: (7041.723, 4899.995)]</title>
</use>
<use transform="translate(6898.5903 2631.6187), rotate(-180)" xlink:href="#item_4">
<title>item, id: 4, transf: [r: -180.000°, t: (6898.590, 2631.619)]</title>
</use>
<use transform="translate(6621.471 1934.2717), rotate(-180)" xlink:href="#item_4">
<title>item, id: 4, transf: [r: -180.000°, t: (6621.471, 1934.272)]</title>
</use>
<use transform="translate(5186.3574 2613.8936), rotate(0)" xlink:href="#item_4">
<title>item, id: 4, transf: [r: 0.000°, t: (5186.357, 2613.894)]</title>
</use>
<use transform="translate(5181.4736 1909.3376), rotate(0)" xlink:href="#item_4">
<title>item, id: 4, transf: [r: 0.000°, t: (5181.474, 1909.338)]</title>
</use>
<use transform="translate(9566.7295 1480.7339), rotate(-180)" xlink:href="#item_5">
<title>item, id: 5, transf: [r: -180.000°, t: (9566.729, 1480.734)]</title>
</use>
<use transform="translate(8781.764 725.9792), rotate(-180)" xlink:href="#item_5">
<title>item, id: 5, transf: [r: -180.000°, t: (8781.764, 725.979)]</title>
</use>
<use transform="translate(9717.801 821.68585), rotate(-180)" xlink:href="#item_5">
<title>item, id: 5, transf: [r: -180.000°, t: (9717.801, 821.686)]</title>
</use>
<use transform="translate(7632.6567 726.02954), rotate(0)" xlink:href="#item_5">
<title>item, id: 5, transf: [r: 0.000°, t: (7632.657, 726.030)]</title>
</use>
<use transform="translate(3923.0422 1468.4213), rotate(-180)" xlink:href="#item_3">
<title>item, id: 3, transf: [r: -180.000°, t: (3923.042, 1468.421)]</title>
</use>
<use transform="translate(5531.5923 1605.5228), rotate(-180)" xlink:href="#item_3">
<title>item, id: 3, transf: [r: -180.000°, t: (5531.592, 1605.523)]</title>
</use>
<use transform="translate(3827.9863 1668.7426), rotate(-180)" xlink:href="#item_3">
<title>item, id: 3, transf: [r: -180.000°, t: (3827.986, 1668.743)]</title>
</use>
<use transform="translate(3310.1265 1091.5232), rotate(0)" xlink:href="#item_3">
<title>item, id: 3, transf: [r: 0.000°, t: (3310.126, 1091.523)]</title>
</use>
</g>
<g id="quality_zones"/>
<g id="optionals">
<g id="overlap_lines" transform="translate(0 0), rotate(0)"/>
</g>
<text font-family="monospace" font-size="122.5" font-weight="500" x="0" y="-61.25">
height: 4900.000 | width: 9717.814 | usage: 89.583% | final_bench_3
</text>
</svg>