<svg viewBox="-485.87433 -245.00006 10689.232 5390" xmlns="http://www.w3.org/2000/svg" xmlns:xlink="http://www.w3.org/1999/xlink">
<g id="bin_0">
<path d="M0,0 L9717.484,0 L9717.484,4900 L0,4900 z" fill="#D3D3D3" stroke="black" stroke-width="26.95"/>
<title>bin, id: 0, bbox: [x_min: 0.000, y_min: 0.000, x_max: 9717.484, y_max: 4900.000]</title>
</g>
<g id="items">
<defs>
<g id="item_0">
<path d="M0,86 L966,142 L1983,0 L2185,238 L2734,217 L3000,767 L2819,900 L2819,1360 L3000,1493 L2734,2043 L2185,2022 L1983,2260 L966,2118 L0,2174 z" fill="#7A7A7A" fill-opacity="0.5" fill-rule="nonzero" stroke="black" stroke-width="13.475"/>
</g>
<g id="item_1">
<path d="M0,0 L3034,0 L3034,261 L0,261 z" fill="#7A7A7A" fill-opacity="0.5" fill-rule="nonzero" stroke="black" stroke-width="13.475"/>
</g>
<g id="item_2">
<path d="M0,173 L1761,0 L2183,650 L2183,1010 L1761,1660 L0,1487 z" fill="#7A7A7A" fill-opacity="0.5" fill-rule="nonzero" stroke="black" stroke-width="13.475"/>
</g>
<g id="item_3">
<path d="M74,0 L870,119 L1666,0 L1740,125 L870,305 L0,125 z" fill="#7A7A7A" fill-opacity="0.5" fill-rule="nonzero" stroke="black" stroke-width="13.475"/>
</g>
<g id="item_4">
<path d="M0,0 L411,65 L800,0 L1189,65 L1600,0 L1500,368 L800,286 L100,368 z" fill="#7A7A7A" fill-opacity="0.5" fill-rule="nonzero" stroke="black" stroke-width="13.475"/>
</g>
<g id="item_5">
<path d="M0,0 L936,0 L936,659 L0,659 z" fill="#7A7A7A" fill-opacity="0.5" fill-rule="nonzero" stroke="black" stroke-width="13.475"/>
</g>
<g id="item_6">
<path d="M56,73 L1066,143 L1891,0 L2186,288 L2573,241 L2676,926 L2594,1366 L0,1366 z" fill="#7A7A7A" fill-opacity="0.5" fill-rule="nonzero" stroke="black" stroke-width="13.475"/>
</g>
<g id="item_7">
<path d="M0,0 L2499,0 L2705,387 L2622,934 L2148,967 L1920,1152 L1061,1059 L0,1125 z" fill="#7A7A7A" fill-opacity="0.5" fill-rule="nonzero" stroke="black" stroke-width="13.475"/>
</g>
</defs>
<use transform="translate(1.6137695 1249.0359), rotate(0)" xlink:href="#item_0">
<title>item, id: 0, transf: [r: 0.000°, t: (1.614, 1249.036)]</title>
</use>
<use transform="translate(9717.142 3587.336), rotate(-180)" xlink:href="#item_0">
<title>item, id: 0, transf: [r: -180.000°, t: (9717.142, 3587.336)]</title>
</use>
<use transform="translate(2676.0244 1366.0686), rotate(-180)" xlink:href="#item_6">
<title>item, id: 6, transf: [r: -180.000°, t: (2676.024, 1366.069)]</title>
</use>
<use transform="translate(4990.8896 3271.7275), rotate(0)" xlink:href="#item_6">
<title>item, id: 6, transf: [r: 0.000°, t: (4990.890, 3271.728)]</title>
</use>
<use transform="translate(7012.456 0.27526855), rotate(0)" xlink:href="#item_7">
<title>item, id: 7, transf: [r: 0.000°, t: (7012.456, 0.275)]</title>
</use>
<use transform="translate(2705.1138 4638.948), rotate(-180)" xlink:href="#item_7">
<title>item, id: 7, transf: [r: -180.000°, t: (2705.114, 4638.948)]</title>
</use>
<use transform="translate(4889.047 4674.1836), rotate(-180)" xlink:href="#item_2">
<title>item, id: 2, transf: [r: -180.000°, t: (4889.047, 4674.184)]</title>
</use>
<use transform="translate(4829.4478 1694.2402), rotate(-180)" xlink:href="#item_2">
<title>item, id: 2, transf: [r: -180.000°, t: (4829.448, 1694.240)]</title>
</use>
<use transform="translate(4829.4526 2.3475952), rotate(0)" xlink:href="#item_2">
<title>item, id: 2, transf: [r: 0.000°, t: (4829.453, 2.348)]</title>
</use>
<use transform="translate(3068.999 1521.2661), rotate(0)" xlink:href="#item_2">
<title>item, id: 2, transf: [r: 0.000°, t: (3068.999, 1521.266)]</title>
</use>
<use transform="translate(3034.8542 4899.994), rotate(-180)" xlink:href="#item_1">
<title>item, id: 1, transf: [r: -180.000°, t: (3034.854, 4899.994)]</title>
</use>
<use transform="translate(4811.207 4637.76), rotate(0)" xlink:href="#item_1">
<title>item, id: 1, transf: [r: 0.000°, t: (4811.207, 4637.760)]</title>
</use>
<use transform="translate(6758.7446 2983.2915), rotate(-180)" xlink:href="#item_4">
<title>item, id: 4, transf: [r: -180.000°, t: (6758.745, 2983.292)]</title>
</use>
<use transform="translate(4997.2 2962.7031), rotate(0)" xlink:href="#item_4">
<title>item, id: 4, transf: [r: 0.000°, t: (4997.200, 2962.703)]</title>
</use>
<use transform="translate(5174.1177 1884.6367), rotate(0)" xlink:href="#item_4">
<title>item, id: 4, transf: [r: 0.000°, t: (5174.118, 1884.637)]</title>
</use>
<use transform="translate(5296.366 2258.8506), rotate(0)" xlink:href="#item_4">
<title>item, id: 4, transf: [r: 0.000°, t: (5296.366, 2258.851)]</title>
</use>
<use transform="translate(9717.481 4819.41), rotate(-180)" xlink:href="#item_5">
<title>item, id: 5, transf: [r: -180.000°, t: (9717.481, 4819.410)]</title>
</use>
<use transform="translate(8775.998 4239.9424), rotate(-180)" xlink:href="#item_5">
<title>item, id: 5, transf: [r: -180.000°, t: (8775.998, 4239.942)]</title>
</use>
<use transform="translate(8781.397 4899.695), rotate(-180)" xlink:href="#item_5">
<title>item, id: 5, transf: [r: -180.000°, t: (8781.397, 4899.695)]</title>
</use>
<use transform="translate(9716.377 4160.3174), rotate(-180)" xlink:href="#item_5">
<title>item, id: 5, transf: [r: -180.000°, t: (9716.377, 4160.317)]</title>
</use>
<use transform="translate(6743.3384 1898.7513), rotate(-180)" xlink:href="#item_3">
<title>item, id: 3, transf: [r: -180.000°, t: (6743.338, 1898.751)]</title>
</use>
<use transform="translate(4810.9473 4899.998), rotate(-180)" xlink:href="#item_3">
<title>item, id: 3, transf: [r: -180.000°, t: (4810.947, 4899.998)]</title>
</use>
<use transform="translate(7977.4756 1060.9585), rotate(0)" xlink:href="#item_3">
<title>item, id: 3, transf: [r: 0.000°, t: (7977.476, 1060.958)]</title>
</use>
<use transform="translate(8565.802 1432.7787), rotate(-180)" xlink:href="#item_3">
<title>item, id: 3, transf: [r: -180.000°, t: (8565.802, 1432.779)]</title>
</use>
</g>
<g id="quality_zones"/>
<g id="optionals">
<g id="overlap_lines" transform="translate(0 0), rotate(0)"/>
</g>
<text font-family="monospace" font-size="122.5" font-weight="500" x="0" y="-61.25">
height: 4900.000 | width: 9717.484 | usage: 89.586% | final_bench_85
</text>
</svg>