<svg viewBox="-486.8648 -245.00006 10711.024 5390" xmlns="http://www.w3.org/2000/svg" xmlns:xlink="http://www.w3.org/1999/xlink">
<g id="bin_0">
<path d="M0,0 L9737.294,0 L9737.294,4900 L0,4900 z" fill="#D3D3D3" stroke="black" stroke-width="26.95"/>
<title>bin, id: 0, bbox: [x_min: 0.000, y_min: 0.000, x_max: 9737.294, y_max: 4900.000]</title>
</g>
<g id="items">
<defs>
<g id="item_0">
<path d="M0,86 L966,142 L1983,0 L2185,238 L2734,217 L3000,767 L2819,900 L2819,1360 L3000,1493 L2734,2043 L2185,2022 L1983,2260 L966,2118 L0,2174 z" fill="#7A7A7A" fill-opacity="0.5" fill-rule="nonzero" stroke="black" stroke-width="13.475"/>
</g>
<g id="item_1">
<path d="M0,0 L3034,0 L3034,261 L0,261 z" fill="#7A7A7A" fill-opacity="0.5" fill-rule="nonzero" stroke="black" stroke-width="13.475"/>
</g>
<g id="item_2">
<path d="M0,173 L1761,0 L2183,650 L2183,1010 L1761,1660 L0,1487 z" fill="#7A7A7A" fill-opacity="0.5" fill-rule="nonzero" stroke="black" stroke-width="13.475"/>
</g>
<g id="item_3">
<path d="M74,0 L870,119 L1666,0 L1740,125 L870,305 L0,125 z" fill="#7A7A7A" fill-opacity="0.5" fill-rule="nonzero" stroke="black" stroke-width="13.475"/>
</g>
<g id="item_4">
<path d="M0,0 L411,65 L800,0 L1189,65 L1600,0 L1500,368 L800,286 L100,368 z" fill="#7A7A7A" fill-opacity="0.5" fill-rule="nonzero" stroke="black" stroke-width="13.475"/>
</g>
<g id="item_5">
<path d="M0,0 L936,0 L936,659 L0,659 z" fill="#7A7A7A" fill-opacity="0.5" fill-rule="nonzero" stroke="black" stroke-width="13.475"/>
</g>
<g id="item_6">
<path d="M56,73 L1066,143 L1891,0 L2186,288 L2573,241 L2676,926 L2594,1366 L0,1366 z" fill="#7A7A7A" fill-opacity="0.5" fill-rule="nonzero" stroke="black" stroke-width="13.475"/>
</g>
<g id="item_7">
<path d="M0,0 L2499,0 L2705,387 L2622,934 L2148,967 L1920,1152 L1061,1059 L0,1125 z" fill="#7A7A7A" fill-opacity="0.5" fill-rule="nonzero" stroke="black" stroke-width="13.475"/>
</g>
</defs>
<use transform="translate(9737.284 3741.4402), rotate(-180)" xlink:href="#item_0">
<title>item, id: 0, transf: [r: -180.000°, t: (9737.284, 3741.440)]</title>
</use>
<use transform="translate(0.052124023 1298.0928), rotate(0)" xlink:href="#item_0">
<title>item, id: 0, transf: [r: 0.000°, t: (0.052, 1298.093)]</title>
</use>
<use transform="translate(2678.7563 1368.8016), rotate(-180)" xlink:href="#item_6">
<title>item, id: 6, transf: [r: -180.000°, t: (2678.756, 1368.802)]</title>
</use>
<use transform="translate(5689.124 1366.043), rotate(-180)" xlink:href="#item_6">
<title>item, id: 6, transf: [r: -180.000°, t: (5689.124, 1366.043)]</title>
</use>
<use transform="translate(2705.0054 4638.5947), rotate(-180)" xlink:href="#item_7">
<title>item, id: 7, transf: [r: -180.000°, t: (2705.005, 4638.595)]</title>
</use>
<use transform="translate(9703.422 4899.999), rotate(-180)" xlink:href="#item_7">
<title>item, id: 7, transf: [r: -180.000°, t: (9703.422, 4899.999)]</title>
</use>
<use transform="translate(6737.278 3143.1213), rotate(-180)" xlink:href="#item_2">
<title>item, id: 2, transf: [r: -180.000°, t: (6737.278, 3143.121)]</title>
</use>
<use transform="translate(5680.2437 55.127686), rotate(0)" xlink:href="#item_2">
<title>item, id: 2, transf: [r: 0.000°, t: (5680.244, 55.128)]</title>
</use>
<use transform="translate(4888.0337 2978.882), rotate(0)" xlink:href="#item_2">
<title>item, id: 2, transf: [r: 0.000°, t: (4888.034, 2978.882)]</title>
</use>
<use transform="translate(4888.0313 4724.9453), rotate(-180)" xlink:href="#item_2">
<title>item, id: 2, transf: [r: -180.000°, t: (4888.031, 4724.945)]</title>
</use>
<use transform="translate(6.949707 4638.8813), rotate(0)" xlink:href="#item_1">
<title>item, id: 1, transf: [r: 0.000°, t: (6.950, 4638.881)]</title>
</use>
<use transform="translate(7065.3584 4899.9854), rotate(-180)" xlink:href="#item_1">
<title>item, id: 1, transf: [r: -180.000°, t: (7065.358, 4899.985)]</title>
</use>
<use transform="translate(4607.1826 2030.7545), rotate(-180)" xlink:href="#item_4">
<title>item, id: 4, transf: [r: -180.000°, t: (4607.183, 2030.755)]</title>
</use>
<use transform="translate(4783.676 3067.7217), rotate(-180)" xlink:href="#item_4">
<title>item, id: 4, transf: [r: -180.000°, t: (4783.676, 3067.722)]</title>
</use>
<use transform="translate(4554.2524 2391.8906), rotate(-180)" xlink:href="#item_4">
<title>item, id: 4, transf: [r: -180.000°, t: (4554.252, 2391.891)]</title>
</use>
<use transform="translate(2831.8499 2372.8323), rotate(0)" xlink:href="#item_4">
<title>item, id: 4, transf: [r: 0.000°, t: (2831.850, 2372.832)]</title>
</use>
<use transform="translate(9735.493 659.0033), rotate(-180)" xlink:href="#item_5">
<title>item, id: 5, transf: [r: -180.000°, t: (9735.493, 659.003)]</title>
</use>
<use transform="translate(8789.009 659.115), rotate(-180)" xlink:href="#item_5">
<title>item, id: 5, transf: [r: -180.000°, t: (8789.009, 659.115)]</title>
</use>
<use transform="translate(8801.251 659.1156), rotate(0)" xlink:href="#item_5">
<title>item, id: 5, transf: [r: 0.000°, t: (8801.251, 659.116)]</title>
</use>
<use transform="translate(7863.4775 659.4186), rotate(0)" xlink:href="#item_5">
<title>item, id: 5, transf: [r: 0.000°, t: (7863.478, 659.419)]</title>
</use>
<use transform="translate(7901.259 1318.4272), rotate(0)" xlink:href="#item_3">
<title>item, id: 3, transf: [r: 0.000°, t: (7901.259, 1318.427)]</title>
</use>
<use transform="translate(3097.9434 1420.3792), rotate(0)" xlink:href="#item_3">
<title>item, id: 3, transf: [r: 0.000°, t: (3097.943, 1420.379)]</title>
</use>
<use transform="translate(5640.637 1538.31), rotate(-180)" xlink:href="#item_3">
<title>item, id: 3, transf: [r: -180.000°, t: (5640.637, 1538.310)]</title>
</use>
<use transform="translate(3913.5696 1514.9543), rotate(-180)" xlink:href="#item_3">
<title>item, id: 3, transf: [r: -180.000°, t: (3913.570, 1514.954)]</title>
</use>
</g>
<g id="quality_zones"/>
<g id="optionals">
<g id="overlap_lines" transform="translate(0 0), rotate(0)"/>
</g>
<text font-family="monospace" font-size="122.5" font-weight="500" x="0" y="-61.25">
height: 4900.000 | width: 9737.294 | usage: 89.403% | final_bench_44
</text>
</svg>