<svg viewBox="-487.15103 -245.00006 10717.321 5390" xmlns="http://www.w3.org/2000/svg" xmlns:xlink="http://www.w3.org/1999/xlink">
<g id="bin_0">
<path d="M0,0 L9743.019,0 L9743.019,4900 L0,4900 z" fill="#D3D3D3" stroke="black" stroke-width="26.95"/>
<title>bin, id: 0, bbox: [x_min: 0.000, y_min: 0.000, x_max: 9743.019, y_max: 4900.000]</title>
</g>
<g id="items">
<defs>
<g id="item_0">
<path d="M0,86 L966,142 L1983,0 L2185,238 L2734,217 L3000,767 L2819,900 L2819,1360 L3000,1493 L2734,2043 L2185,2022 L1983,2260 L966,2118 L0,2174 z" fill="#7A7A7A" fill-opacity="0.5" fill-rule="nonzero" stroke="black" stroke-width="13.475"/>
</g>
<g id="item_1">
<path d="M0,0 L3034,0 L3034,261 L0,261 z" fill="#7A7A7A" fill-opacity="0.5" fill-rule="nonzero" stroke="black" stroke-width="13.475"/>
</g>
<g id="item_2">
<path d="M0,173 L1761,0 L2183,650 L2183,1010 L1761,1660 L0,1487 z" fill="#7A7A7A" fill-opacity="0.5" fill-rule="nonzero" stroke="black" stroke-width="13.475"/>
</g>
<g id="item_3">
<path d="M74,0 L870,119 L1666,0 L1740,125 L870,305 L0,125 z" fill="#7A7A7A" fill-opacity="0.5" fill-rule="nonzero" stroke="black" stroke-width="13.475"/>
</g>
<g id="item_4">
<path d="M0,0 L411,65 L800,0 L1189,65 L1600,0 L1500,368 L800,286 L100,368 z" fill="#7A7A7A" fill-opacity="0.5" fill-rule="nonzero" stroke="black" stroke-width="13.475"/>
</g>
<g id="item_5">
<path d="M0,0 L936,0 L936,659 L0,659 z" fill="#7A7A7A" fill-opacity="0.5" fill-rule="nonzero" stroke="black" stroke-width="13.475"/>
</g>
<g id="item_6">
<path d="M56,73 L1066,143 L1891,0 L2186,288 L2573,241 L2676,926 L2594,1366 L0,1366 z" fill="#7A7A7A" fill-opacity="0.5" fill-rule="nonzero" stroke="black" stroke-width="13.475"/>
</g>
<g id="item_7">
<path d="M0,0 L2499,0 L2705,387 L2622,934 L2148,967 L1920,1152 L1061,1059 L0,1125 z" fill="#7A7A7A" fill-opacity="0.5" fill-rule="nonzero" stroke="black" stroke-width="13.475"/>
</g>
</defs>
<use transform="translate(0.22814941 1559.7864), rotate(0)" xlink:href="#item_0">
<title>item, id: 0, transf: [r: 0.000°, t: (0.228, 1559.786)]</title>
</use>
<use transform="translate(9742.465 3340.6416), rotate(-180)" xlink:href="#item_0">
<title>item, id: 0, transf: [r: -180.000°, t: (9742.465, 3340.642)]</title>
</use>
<use transform="translate(7053.4126 3272.9492), rotate(0)" xlink:href="#item_6">
<title>item, id: 6, transf: [r: 0.000°, t: (7053.413, 3272.949)]</title>
</use>
<use transform="translate(2178.474 297.16016), rotate(0)" xlink:href="#item_6">
<title>item, id: 6, transf: [r: 0.000°, t: (2178.474, 297.160)]</title>
</use>
<use transform="translate(7038.0176 0.0063476563), rotate(0)" xlink:href="#item_7">
<title>item, id: 7, transf: [r: 0.000°, t: (7038.018, 0.006)]</title>
</use>
<use transform="translate(2705.0967 4899.998), rotate(-180)" xlink:href="#item_7">
<title>item, id: 7, transf: [r: -180.000°, t: (2705.097, 4899.998)]</title>
</use>
<use transform="translate(4854.9277 73.02966), rotate(0)" xlink:href="#item_2">
<title>item, id: 2, transf: [r: 0.000°, t: (4854.928, 73.030)]</title>
</use>
<use transform="translate(4889.6563 3068.539), rotate(0)" xlink:href="#item_2">
<title>item, id: 2, transf: [r: 0.000°, t: (4889.656, 3068.539)]</title>
</use>
<use transform="translate(6742.274 3232.4875), rotate(-180)" xlink:href="#item_2">
<title>item, id: 2, transf: [r: -180.000°, t: (6742.274, 3232.488)]</title>
</use>
<use transform="translate(2183.4854 1670.1925), rotate(-180)" xlink:href="#item_2">
<title>item, id: 2, transf: [r: -180.000°, t: (2183.485, 1670.193)]</title>
</use>
<use transform="translate(6708.959 4638.9893), rotate(0)" xlink:href="#item_1">
<title>item, id: 1, transf: [r: 0.000°, t: (6708.959, 4638.989)]</title>
</use>
<use transform="translate(5739.183 4899.997), rotate(-180)" xlink:href="#item_1">
<title>item, id: 1, transf: [r: -180.000°, t: (5739.183, 4899.997)]</title>
</use>
<use transform="translate(2133.7075 0.005355835), rotate(0)" xlink:href="#item_4">
<title>item, id: 4, transf: [r: 0.000°, t: (2133.708, 0.005)]</title>
</use>
<use transform="translate(3189.869 2952.647), rotate(0)" xlink:href="#item_4">
<title>item, id: 4, transf: [r: 0.000°, t: (3189.869, 2952.647)]</title>
</use>
<use transform="translate(4680.3496 2031.1931), rotate(-180)" xlink:href="#item_4">
<title>item, id: 4, transf: [r: -180.000°, t: (4680.350, 2031.193)]</title>
</use>
<use transform="translate(2945.7468 2013.6284), rotate(0)" xlink:href="#item_4">
<title>item, id: 4, transf: [r: 0.000°, t: (2945.747, 2013.628)]</title>
</use>
<use transform="translate(3953.0518 3320.9172), rotate(0)" xlink:href="#item_5">
<title>item, id: 5, transf: [r: 0.000°, t: (3953.052, 3320.917)]</title>
</use>
<use transform="translate(2870.713 3320.759), rotate(0)" xlink:href="#item_5">
<title>item, id: 5, transf: [r: 0.000°, t: (2870.713, 3320.759)]</title>
</use>
<use transform="translate(4880.0186 4638.958), rotate(-180)" xlink:href="#item_5">
<title>item, id: 5, transf: [r: -180.000°, t: (4880.019, 4638.958)]</title>
</use>
<use transform="translate(2941.261 3979.9312), rotate(0)" xlink:href="#item_5">
<title>item, id: 5, transf: [r: 0.000°, t: (2941.261, 3979.931)]</title>
</use>
<use transform="translate(3699.7437 0.022949219), rotate(0)" xlink:href="#item_3">
<title>item, id: 3, transf: [r: 0.000°, t: (3699.744, 0.023)]</title>
</use>
<use transform="translate(4592.2827 2991.8074), rotate(-180)" xlink:href="#item_3">
<title>item, id: 3, transf: [r: -180.000°, t: (4592.283, 2991.807)]</title>
</use>
<use transform="translate(4565.537 2798.2966), rotate(-180)" xlink:href="#item_3">
<title>item, id: 3, transf: [r: -180.000°, t: (4565.537, 2798.297)]</title>
</use>
<use transform="translate(4559.234 2611.291), rotate(-180)" xlink:href="#item_3">
<title>item, id: 3, transf: [r: -180.000°, t: (4559.234, 2611.291)]</title>
</use>
</g>
<g id="quality_zones"/>
<g id="optionals">
<g id="overlap_lines" transform="translate(0 0), rotate(0)"/>
</g>
<text font-family="monospace" font-size="122.5" font-weight="500" x="0" y="-61.25">
height: 4900.000 | width: 9743.019 | usage: 89.351% | final_bench_1
</text>
</svg>