<svg viewBox="-487.35535 -245.00006 10721.815 5390" xmlns="http://www.w3.org/2000/svg" xmlns:xlink="http://www.w3.org/1999/xlink">
<g id="bin_0">
<path d="M0,0 L9747.1045,0 L9747.1045,4900 L0,4900 z" fill="#D3D3D3" stroke="black" stroke-width="26.95"/>
<title>bin, id: 0, bbox: [x_min: 0.000, y_min: 0.000, x_max: 9747.104, y_max: 4900.000]</title>
</g>
<g id="items">
<defs>
<g id="item_0">
<path d="M0,86 L966,142 L1983,0 L2185,238 L2734,217 L3000,767 L2819,900 L2819,1360 L3000,1493 L2734,2043 L2185,2022 L1983,2260 L966,2118 L0,2174 z" fill="#7A7A7A" fill-opacity="0.5" fill-rule="nonzero" stroke="black" stroke-width="13.475"/>
</g>
<g id="item_1">
<path d="M0,0 L3034,0 L3034,261 L0,261 z" fill="#7A7A7A" fill-opacity="0.5" fill-rule="nonzero" stroke="black" stroke-width="13.475"/>
</g>
<g id="item_2">
<path d="M0,173 L1761,0 L2183,650 L2183,1010 L1761,1660 L0,1487 z" fill="#7A7A7A" fill-opacity="0.5" fill-rule="nonzero" stroke="black" stroke-width="13.475"/>
</g>
<g id="item_3">
<path d="M74,0 L870,119 L1666,0 L1740,125 L870,305 L0,125 z" fill="#7A7A7A" fill-opacity="0.5" fill-rule="nonzero" stroke="black" stroke-width="13.475"/>
</g>
<g id="item_4">
<path d="M0,0 L411,65 L800,0 L1189,65 L1600,0 L1500,368 L800,286 L100,368 z" fill="#7A7A7A" fill-opacity="0.5" fill-rule="nonzero" stroke="black" stroke-width="13.475"/>
</g>
<g id="item_5">
<path d="M0,0 L936,0 L936,659 L0,659 z" fill="#7A7A7A" fill-opacity="0.5" fill-rule="nonzero" stroke="black" stroke-width="13.475"/>
</g>
<g id="item_6">
<path d="M56,73 L1066,143 L1891,0 L2186,288 L2573,241 L2676,926 L2594,1366 L0,1366 z" fill="#7A7A7A" fill-opacity="0.5" fill-rule="nonzero" stroke="black" stroke-width="13.475"/>
</g>
<g id="item_7">
<path d="M0,0 L2499,0 L2705,387 L2622,934 L2148,967 L1920,1152 L1061,1059 L0,1125 z" fill="#7A7A7A" fill-opacity="0.5" fill-rule="nonzero" stroke="black" stroke-width="13.475"/>
</g>
</defs>
<use transform="translate(0.15100098 1558.5823), rotate(0)" xlink:href="#item_0">
<title>item, id: 0, transf: [r: 0.000°, t: (0.151, 1558.582)]</title>
</use>
<use transform="translate(9746.953 2261.9238), rotate(-180)" xlink:href="#item_0">
<title>item, id: 0, transf: [r: -180.000°, t: (9746.953, 2261.924)]</title>
</use>
<use transform="translate(9747.045 4877.863), rotate(-180)" xlink:href="#item_6">
<title>item, id: 6, transf: [r: -180.000°, t: (9747.045, 4877.863)]</title>
</use>
<use transform="translate(7071.0923 2145.7197), rotate(0)" xlink:href="#item_6">
<title>item, id: 6, transf: [r: 0.000°, t: (7071.092, 2145.720)]</title>
</use>
<use transform="translate(2705.018 4899.7354), rotate(-180)" xlink:href="#item_7">
<title>item, id: 7, transf: [r: -180.000°, t: (2705.018, 4899.735)]</title>
</use>
<use transform="translate(4058.8245 522.2374), rotate(0)" xlink:href="#item_7">
<title>item, id: 7, transf: [r: 0.000°, t: (4058.824, 522.237)]</title>
</use>
<use transform="translate(4888.0283 4804.596), rotate(-180)" xlink:href="#item_2">
<title>item, id: 2, transf: [r: -180.000°, t: (4888.028, 4804.596)]</title>
</use>
<use transform="translate(3015.3403 1646.5107), rotate(0)" xlink:href="#item_2">
<title>item, id: 2, transf: [r: 0.000°, t: (3015.340, 1646.511)]</title>
</use>
<use transform="translate(2183.002 1668.9333), rotate(-180)" xlink:href="#item_2">
<title>item, id: 2, transf: [r: -180.000°, t: (2183.002, 1668.933)]</title>
</use>
<use transform="translate(7071.032 4495.4385), rotate(-180)" xlink:href="#item_2">
<title>item, id: 2, transf: [r: -180.000°, t: (7071.032, 4495.438)]</title>
</use>
<use transform="translate(6943.7637 261.0033), rotate(-180)" xlink:href="#item_1">
<title>item, id: 1, transf: [r: -180.000°, t: (6943.764, 261.003)]</title>
</use>
<use transform="translate(3832.21 261.02426), rotate(0)" xlink:href="#item_1">
<title>item, id: 1, transf: [r: 0.000°, t: (3832.210, 261.024)]</title>
</use>
<use transform="translate(6745.011 2175.646), rotate(-180)" xlink:href="#item_4">
<title>item, id: 4, transf: [r: -180.000°, t: (6745.011, 2175.646)]</title>
</use>
<use transform="translate(2133.6104 0.010467529), rotate(0)" xlink:href="#item_4">
<title>item, id: 4, transf: [r: 0.000°, t: (2133.610, 0.010)]</title>
</use>
<use transform="translate(3885.486 718.2231), rotate(-180)" xlink:href="#item_4">
<title>item, id: 4, transf: [r: -180.000°, t: (3885.486, 718.223)]</title>
</use>
<use transform="translate(2243.6267 1378.9994), rotate(0)" xlink:href="#item_4">
<title>item, id: 4, transf: [r: 0.000°, t: (2243.627, 1378.999)]</title>
</use>
<use transform="translate(2183.0752 718.2822), rotate(0)" xlink:href="#item_5">
<title>item, id: 5, transf: [r: 0.000°, t: (2183.075, 718.282)]</title>
</use>
<use transform="translate(6155.21 2230.7598), rotate(0)" xlink:href="#item_5">
<title>item, id: 5, transf: [r: 0.000°, t: (6155.210, 2230.760)]</title>
</use>
<use transform="translate(6134.8516 2834.8313), rotate(-180)" xlink:href="#item_5">
<title>item, id: 5, transf: [r: -180.000°, t: (6134.852, 2834.831)]</title>
</use>
<use transform="translate(3121.966 718.5957), rotate(0)" xlink:href="#item_5">
<title>item, id: 5, transf: [r: 0.000°, t: (3121.966, 718.596)]</title>
</use>
<use transform="translate(7750.546 4899.9927), rotate(-180)" xlink:href="#item_3">
<title>item, id: 3, transf: [r: -180.000°, t: (7750.546, 4899.993)]</title>
</use>
<use transform="translate(5937.263 4899.981), rotate(-180)" xlink:href="#item_3">
<title>item, id: 3, transf: [r: -180.000°, t: (5937.263, 4899.981)]</title>
</use>
<use transform="translate(5050.5547 1581.7507), rotate(0)" xlink:href="#item_3">
<title>item, id: 3, transf: [r: 0.000°, t: (5050.555, 1581.751)]</title>
</use>
<use transform="translate(5079.521 4472.48), rotate(0)" xlink:href="#item_3">
<title>item, id: 3, transf: [r: 0.000°, t: (5079.521, 4472.480)]</title>
</use>
</g>
<g id="quality_zones"/>
<g id="optionals">
<g id="overlap_lines" transform="translate(0 0), rotate(0)"/>
</g>
<text font-family="monospace" font-size="122.5" font-weight="500" x="0" y="-61.25">
height: 4900.000 | width: 9747.104 | usage: 89.313% | final_bench_18
</text>
</svg>