<svg viewBox="-2.8510125 -3.0000007 62.722263 66" xmlns="http://www.w3.org/2000/svg" xmlns:xlink="http://www.w3.org/1999/xlink">
<g id="bin_0">
<path d="M0,0 L57.020237,0 L57.020237,60 L0,60 z" fill="#D3D3D3" stroke="black" stroke-width="0.31361133"/>
<title>bin, id: 0, bbox: [x_min: 0.000, y_min: 0.000, x_max: 57.020, y_max: 60.000]</title>
</g>
<g id="items">
<defs>
<g id="item_0">
<path d="M0,8 L1,7 L7,5 L12,0 L15,3 L10,8 L11,9 L1,9 z" fill="#7A7A7A" fill-opacity="0.5" fill-rule="nonzero" stroke="black" stroke-width="0.15680566"/>
</g>
<g id="item_1">
<path d="M2,12 L0,0 L4,0 L4,1 L5,1 L5,0 L9,0 L9,2 L5,12 z" fill="#7A7A7A" fill-opacity="0.5" fill-rule="nonzero" stroke="black" stroke-width="0.15680566"/>
</g>
<g id="item_2">
<path d="M2,24 L0,18 L0,6 L2,0 L9,0 L11,6 L11,18 L9,24 z" fill="#7A7A7A" fill-opacity="0.5" fill-rule="nonzero" stroke="black" stroke-width="0.15680566"/>
</g>
<g id="item_3">
<path d="M0,15 L0,0 L14,0 L14,15 z" fill="#7A7A7A" fill-opacity="0.5" fill-rule="nonzero" stroke="black" stroke-width="0.15680566"/>
</g>
<g id="item_4">
<path d="M0,0 L9,0 L7,5 L2,5 z" fill="#7A7A7A" fill-opacity="0.5" fill-rule="nonzero" stroke="black" stroke-width="0.15680566"/>
</g>
<g id="item_5">
<path d="M0,32 L1,3 L3,0 L6,1 L11,11 L5,31 L2,33 z" fill="#7A7A7A" fill-opacity="0.5" fill-rule="nonzero" stroke="black" stroke-width="0.15680566"/>
</g>
<g id="item_6">
<path d="M0,3 L5,0 L23,0 L13,5 L1,5 z" fill="#7A7A7A" fill-opacity="0.5" fill-rule="nonzero" stroke="black" stroke-width="0.15680566"/>
</g>
<g id="item_7">
<path d="M1,0 L4,0 L5,6 L4,6 L4,5 L3,4 L2,4 L1,5 L1,6 L0,6 z" fill="#7A7A7A" fill-opacity="0.5" fill-rule="nonzero" stroke="black" stroke-width="0.15680566"/>
</g>
<g id="item_8">
<path d="M0,2 L1,0 L8,0 L6,3 z" fill="#7A7A7A" fill-opacity="0.5" fill-rule="nonzero" stroke="black" stroke-width="0.15680566"/>
</g>
<g id="item_9">
<path d="M0,0 L14,0 L5,6 z" fill="#7A7A7A" fill-opacity="0.5" fill-rule="nonzero" stroke="black" stroke-width="0.15680566"/>
</g>
</defs>
<use transform="translate(39.81385 59.62048), rotate(-180)" xlink:href="#item_5">
<title>item, id: 5, transf: [r: -180.000°, t: (39.814, 59.620)]</title>
</use>
<use transform="translate(38.795483 25.15657), rotate(0)" xlink:href="#item_5">
<title>item, id: 5, transf: [r: 0.000°, t: (38.795, 25.157)]</title>
</use>
<use transform="translate(57.019157 59.74527), rotate(-180)" xlink:href="#item_5">
<title>item, id: 5, transf: [r: -180.000°, t: (57.019, 59.745)]</title>
</use>
<use transform="translate(11.000256 35.73725), rotate(-180)" xlink:href="#item_2">
<title>item, id: 2, transf: [r: -180.000°, t: (11.000, 35.737)]</title>
</use>
<use transform="translate(11.002213 59.73795), rotate(-180)" xlink:href="#item_2">
<title>item, id: 2, transf: [r: -180.000°, t: (11.002, 59.738)]</title>
</use>
<use transform="translate(46.019638 0.020756721), rotate(0)" xlink:href="#item_2">
<title>item, id: 2, transf: [r: 0.000°, t: (46.020, 0.021)]</title>
</use>
<use transform="translate(46.01942 23.373203), rotate(-180)" xlink:href="#item_3">
<title>item, id: 3, transf: [r: -180.000°, t: (46.019, 23.373)]</title>
</use>
<use transform="translate(18.01899 8.378859), rotate(0)" xlink:href="#item_3">
<title>item, id: 3, transf: [r: 0.000°, t: (18.019, 8.379)]</title>
</use>
<use transform="translate(25.002499 59.825153), rotate(-180)" xlink:href="#item_3">
<title>item, id: 3, transf: [r: -180.000°, t: (25.002, 59.825)]</title>
</use>
<use transform="translate(0.000029563904 0.00000166893), rotate(0)" xlink:href="#item_6">
<title>item, id: 6, transf: [r: 0.000°, t: (0.000, 0.000)]</title>
</use>
<use transform="translate(0.0043678284 5.8858085), rotate(0)" xlink:href="#item_6">
<title>item, id: 6, transf: [r: 0.000°, t: (0.004, 5.886)]</title>
</use>
<use transform="translate(34.229515 5.8854313), rotate(-180)" xlink:href="#item_6">
<title>item, id: 6, transf: [r: -180.000°, t: (34.230, 5.885)]</title>
</use>
<use transform="translate(26.416441 32.47881), rotate(-180)" xlink:href="#item_0">
<title>item, id: 0, transf: [r: -180.000°, t: (26.416, 32.479)]</title>
</use>
<use transform="translate(42.514084 32.381954), rotate(-180)" xlink:href="#item_0">
<title>item, id: 0, transf: [r: -180.000°, t: (42.514, 32.382)]</title>
</use>
<use transform="translate(15.433206 23.462648), rotate(0)" xlink:href="#item_0">
<title>item, id: 0, transf: [r: 0.000°, t: (15.433, 23.463)]</title>
</use>
<use transform="translate(24.948677 44.469147), rotate(-180)" xlink:href="#item_1">
<title>item, id: 1, transf: [r: -180.000°, t: (24.949, 44.469)]</title>
</use>
<use transform="translate(9.977732 32.814854), rotate(0)" xlink:href="#item_1">
<title>item, id: 1, transf: [r: 0.000°, t: (9.978, 32.815)]</title>
</use>
<use transform="translate(23.344196 34.809437), rotate(0)" xlink:href="#item_1">
<title>item, id: 1, transf: [r: 0.000°, t: (23.344, 34.809)]</title>
</use>
<use transform="translate(40.000347 8.371544), rotate(-180)" xlink:href="#item_9">
<title>item, id: 9, transf: [r: -180.000°, t: (40.000, 8.372)]</title>
</use>
<use transform="translate(52.05556 59.99729), rotate(-180)" xlink:href="#item_9">
<title>item, id: 9, transf: [r: -180.000°, t: (52.056, 59.997)]</title>
</use>
<use transform="translate(43.020195 24.024683), rotate(0)" xlink:href="#item_9">
<title>item, id: 9, transf: [r: 0.000°, t: (43.020, 24.025)]</title>
</use>
<use transform="translate(37.929523 3.2840552), rotate(0)" xlink:href="#item_4">
<title>item, id: 4, transf: [r: 0.000°, t: (37.930, 3.284)]</title>
</use>
<use transform="translate(34.0027 59.999958), rotate(-180)" xlink:href="#item_4">
<title>item, id: 4, transf: [r: -180.000°, t: (34.003, 60.000)]</title>
</use>
<use transform="translate(8.662956 10.886094), rotate(0)" xlink:href="#item_4">
<title>item, id: 4, transf: [r: 0.000°, t: (8.663, 10.886)]</title>
</use>
<use transform="translate(16.001055 25.891829), rotate(-180)" xlink:href="#item_7">
<title>item, id: 7, transf: [r: -180.000°, t: (16.001, 25.892)]</title>
</use>
<use transform="translate(12.999504 15.88849), rotate(0)" xlink:href="#item_7">
<title>item, id: 7, transf: [r: 0.000°, t: (13.000, 15.888)]</title>
</use>
<use transform="translate(25.002617 48.999172), rotate(0)" xlink:href="#item_7">
<title>item, id: 7, transf: [r: 0.000°, t: (25.003, 48.999)]</title>
</use>
<use transform="translate(47.597862 3.283826), rotate(-180)" xlink:href="#item_8">
<title>item, id: 8, transf: [r: -180.000°, t: (47.598, 3.284)]</title>
</use>
<use transform="translate(32.990456 34.8076), rotate(-180)" xlink:href="#item_8">
<title>item, id: 8, transf: [r: -180.000°, t: (32.990, 34.808)]</title>
</use>
<use transform="translate(33.786953 0.000045895576), rotate(0)" xlink:href="#item_8">
<title>item, id: 8, transf: [r: 0.000°, t: (33.787, 0.000)]</title>
</use>
</g>
<g id="quality_zones"/>
<g id="optionals">
<g id="overlap_lines" transform="translate(0 0), rotate(0)"/>
</g>
<text font-family="monospace" font-size="1.425506" font-weight="500" x="0" y="-0.712753">
height: 60.000 | width: 57.020 | usage: 88.697% | final_bench_22
</text>
</svg>