<svg viewBox="-2.831727 -3.0000007 62.29798 66" xmlns="http://www.w3.org/2000/svg" xmlns:xlink="http://www.w3.org/1999/xlink">
<g id="bin_0">
<path d="M0,0 L56.63453,0 L56.63453,60 L0,60 z" fill="#D3D3D3" stroke="black" stroke-width="0.31148994"/>
<title>bin, id: 0, bbox: [x_min: 0.000, y_min: 0.000, x_max: 56.635, y_max: 60.000]</title>
</g>
<g id="items">
<defs>
<g id="item_0">
<path d="M0,8 L1,7 L7,5 L12,0 L15,3 L10,8 L11,9 L1,9 z" fill="#7A7A7A" fill-opacity="0.5" fill-rule="nonzero" stroke="black" stroke-width="0.15574497"/>
</g>
<g id="item_1">
<path d="M2,12 L0,0 L4,0 L4,1 L5,1 L5,0 L9,0 L9,2 L5,12 z" fill="#7A7A7A" fill-opacity="0.5" fill-rule="nonzero" stroke="black" stroke-width="0.15574497"/>
</g>
<g id="item_2">
<path d="M2,24 L0,18 L0,6 L2,0 L9,0 L11,6 L11,18 L9,24 z" fill="#7A7A7A" fill-opacity="0.5" fill-rule="nonzero" stroke="black" stroke-width="0.15574497"/>
</g>
<g id="item_3">
<path d="M0,15 L0,0 L14,0 L14,15 z" fill="#7A7A7A" fill-opacity="0.5" fill-rule="nonzero" stroke="black" stroke-width="0.15574497"/>
</g>
<g id="item_4">
<path d="M0,0 L9,0 L7,5 L2,5 z" fill="#7A7A7A" fill-opacity="0.5" fill-rule="nonzero" stroke="black" stroke-width="0.15574497"/>
</g>
<g id="item_5">
<path d="M0,32 L1,3 L3,0 L6,1 L11,11 L5,31 L2,33 z" fill="#7A7A7A" fill-opacity="0.5" fill-rule="nonzero" stroke="black" stroke-width="0.15574497"/>
</g>
<g id="item_6">
<path d="M0,3 L5,0 L23,0 L13,5 L1,5 z" fill="#7A7A7A" fill-opacity="0.5" fill-rule="nonzero" stroke="black" stroke-width="0.15574497"/>
</g>
<g id="item_7">
<path d="M1,0 L4,0 L5,6 L4,6 L4,5 L3,4 L2,4 L1,5 L1,6 L0,6 z" fill="#7A7A7A" fill-opacity="0.5" fill-rule="nonzero" stroke="black" stroke-width="0.15574497"/>
</g>
<g id="item_8">
<path d="M0,2 L1,0 L8,0 L6,3 z" fill="#7A7A7A" fill-opacity="0.5" fill-rule="nonzero" stroke="black" stroke-width="0.15574497"/>
</g>
<g id="item_9">
<path d="M0,0 L14,0 L5,6 z" fill="#7A7A7A" fill-opacity="0.5" fill-rule="nonzero" stroke="black" stroke-width="0.15574497"/>
</g>
</defs>
<use transform="translate(16.380388 42.729866), rotate(-180)" xlink:href="#item_5">
<title>item, id: 5, transf: [r: -180.000°, t: (16.380, 42.730)]</title>
</use>
<use transform="translate(0.00023078918 1.9936142), rotate(0)" xlink:href="#item_5">
<title>item, id: 5, transf: [r: 0.000°, t: (0.000, 1.994)]</title>
</use>
<use transform="translate(15.415007 6.726473), rotate(0)" xlink:href="#item_5">
<title>item, id: 5, transf: [r: 0.000°, t: (15.415, 6.726)]</title>
</use>
<use transform="translate(31.633364 54.99959), rotate(-180)" xlink:href="#item_2">
<title>item, id: 2, transf: [r: -180.000°, t: (31.633, 55.000)]</title>
</use>
<use transform="translate(45.63417 35.997498), rotate(0)" xlink:href="#item_2">
<title>item, id: 2, transf: [r: 0.000°, t: (45.634, 35.997)]</title>
</use>
<use transform="translate(45.62783 11.9916935), rotate(0)" xlink:href="#item_2">
<title>item, id: 2, transf: [r: 0.000°, t: (45.628, 11.992)]</title>
</use>
<use transform="translate(31.633896 38.998566), rotate(0)" xlink:href="#item_3">
<title>item, id: 3, transf: [r: 0.000°, t: (31.634, 38.999)]</title>
</use>
<use transform="translate(14.000138 59.999805), rotate(-180)" xlink:href="#item_3">
<title>item, id: 3, transf: [r: -180.000°, t: (14.000, 60.000)]</title>
</use>
<use transform="translate(45.616825 26.99096), rotate(-180)" xlink:href="#item_3">
<title>item, id: 3, transf: [r: -180.000°, t: (45.617, 26.991)]</title>
</use>
<use transform="translate(44.043564 5.495118), rotate(-180)" xlink:href="#item_6">
<title>item, id: 6, transf: [r: -180.000°, t: (44.044, 5.495)]</title>
</use>
<use transform="translate(9.031168 0.00022673607), rotate(0)" xlink:href="#item_6">
<title>item, id: 6, transf: [r: 0.000°, t: (9.031, 0.000)]</title>
</use>
<use transform="translate(38.126575 59.99996), rotate(-180)" xlink:href="#item_6">
<title>item, id: 6, transf: [r: -180.000°, t: (38.127, 60.000)]</title>
</use>
<use transform="translate(40.124428 14.495375), rotate(-180)" xlink:href="#item_0">
<title>item, id: 0, transf: [r: -180.000°, t: (40.124, 14.495)]</title>
</use>
<use transform="translate(31.631786 2.9906201), rotate(0)" xlink:href="#item_0">
<title>item, id: 0, transf: [r: 0.000°, t: (31.632, 2.991)]</title>
</use>
<use transform="translate(41.634224 2.9885583), rotate(0)" xlink:href="#item_0">
<title>item, id: 0, transf: [r: 0.000°, t: (41.634, 2.989)]</title>
</use>
<use transform="translate(31.8355 26.993156), rotate(0)" xlink:href="#item_1">
<title>item, id: 1, transf: [r: 0.000°, t: (31.836, 26.993)]</title>
</use>
<use transform="translate(46.633854 38.99831), rotate(-180)" xlink:href="#item_1">
<title>item, id: 1, transf: [r: -180.000°, t: (46.634, 38.998)]</title>
</use>
<use transform="translate(32.284718 30.999062), rotate(-180)" xlink:href="#item_1">
<title>item, id: 1, transf: [r: -180.000°, t: (32.285, 30.999)]</title>
</use>
<use transform="translate(7.0043035 5.000251), rotate(0)" xlink:href="#item_9">
<title>item, id: 9, transf: [r: 0.000°, t: (7.004, 5.000)]</title>
</use>
<use transform="translate(47.63162 59.99969), rotate(-180)" xlink:href="#item_9">
<title>item, id: 9, transf: [r: -180.000°, t: (47.632, 60.000)]</title>
</use>
<use transform="translate(42.633728 0.0022821426), rotate(0)" xlink:href="#item_9">
<title>item, id: 9, transf: [r: 0.000°, t: (42.634, 0.002)]</title>
</use>
<use transform="translate(23.011341 56.054253), rotate(-180)" xlink:href="#item_4">
<title>item, id: 4, transf: [r: -180.000°, t: (23.011, 56.054)]</title>
</use>
<use transform="translate(9.001524 39.99719), rotate(-180)" xlink:href="#item_4">
<title>item, id: 4, transf: [r: -180.000°, t: (9.002, 39.997)]</title>
</use>
<use transform="translate(0.0002951622 39.99762), rotate(0)" xlink:href="#item_4">
<title>item, id: 4, transf: [r: 0.000°, t: (0.000, 39.998)]</title>
</use>
<use transform="translate(30.6277 18.998745), rotate(-180)" xlink:href="#item_7">
<title>item, id: 7, transf: [r: -180.000°, t: (30.628, 18.999)]</title>
</use>
<use transform="translate(20.627588 51.05367), rotate(-180)" xlink:href="#item_7">
<title>item, id: 7, transf: [r: -180.000°, t: (20.628, 51.054)]</title>
</use>
<use transform="translate(14.514376 40.160995), rotate(0)" xlink:href="#item_7">
<title>item, id: 7, transf: [r: 0.000°, t: (14.514, 40.161)]</title>
</use>
<use transform="translate(21.271336 5.6767707), rotate(0)" xlink:href="#item_8">
<title>item, id: 8, transf: [r: 0.000°, t: (21.271, 5.677)]</title>
</use>
<use transform="translate(14.999519 44.999752), rotate(-180)" xlink:href="#item_8">
<title>item, id: 8, transf: [r: -180.000°, t: (15.000, 45.000)]</title>
</use>
<use transform="translate(3.0262673 0.0019686222), rotate(0)" xlink:href="#item_8">
<title>item, id: 8, transf: [r: 0.000°, t: (3.026, 0.002)]</title>
</use>
</g>
<g id="quality_zones"/>
<g id="optionals">
<g id="overlap_lines" transform="translate(0 0), rotate(0)"/>
</g>
<text font-family="monospace" font-size="1.4158633" font-weight="500" x="0" y="-0.70793164">
height: 60.000 | width: 56.635 | usage: 89.301% | final_bench_76
</text>
</svg>