<svg viewBox="-2.845464 -3.0000007 62.600193 66" xmlns="http://www.w3.org/2000/svg" xmlns:xlink="http://www.w3.org/1999/xlink">
<g id="bin_0">
<path d="M0,0 L56.909267,0 L56.909267,60 L0,60 z" fill="#D3D3D3" stroke="black" stroke-width="0.31300098"/>
<title>bin, id: 0, bbox: [x_min: 0.000, y_min: 0.000, x_max: 56.909, y_max: 60.000]</title>
</g>
<g id="items">
<defs>
<g id="item_0">
<path d="M0,8 L1,7 L7,5 L12,0 L15,3 L10,8 L11,9 L1,9 z" fill="#7A7A7A" fill-opacity="0.5" fill-rule="nonzero" stroke="black" stroke-width="0.15650049"/>
</g>
<g id="item_1">
<path d="M2,12 L0,0 L4,0 L4,1 L5,1 L5,0 L9,0 L9,2 L5,12 z" fill="#7A7A7A" fill-opacity="0.5" fill-rule="nonzero" stroke="black" stroke-width="0.15650049"/>
</g>
<g id="item_2">
<path d="M2,24 L0,18 L0,6 L2,0 L9,0 L11,6 L11,18 L9,24 z" fill="#7A7A7A" fill-opacity="0.5" fill-rule="nonzero" stroke="black" stroke-width="0.15650049"/>
</g>
<g id="item_3">
<path d="M0,15 L0,0 L14,0 L14,15 z" fill="#7A7A7A" fill-opacity="0.5" fill-rule="nonzero" stroke="black" stroke-width="0.15650049"/>
</g>
<g id="item_4">
<path d="M0,0 L9,0 L7,5 L2,5 z" fill="#7A7A7A" fill-opacity="0.5" fill-rule="nonzero" stroke="black" stroke-width="0.15650049"/>
</g>
<g id="item_5">
<path d="M0,32 L1,3 L3,0 L6,1 L11,11 L5,31 L2,33 z" fill="#7A7A7A" fill-opacity="0.5" fill-rule="nonzero" stroke="black" stroke-width="0.15650049"/>
</g>
<g id="item_6">
<path d="M0,3 L5,0 L23,0 L13,5 L1,5 z" fill="#7A7A7A" fill-opacity="0.5" fill-rule="nonzero" stroke="black" stroke-width="0.15650049"/>
</g>
<g id="item_7">
<path d="M1,0 L4,0 L5,6 L4,6 L4,5 L3,4 L2,4 L1,5 L1,6 L0,6 z" fill="#7A7A7A" fill-opacity="0.5" fill-rule="nonzero" stroke="black" stroke-width="0.15650049"/>
</g>
<g id="item_8">
<path d="M0,2 L1,0 L8,0 L6,3 z" fill="#7A7A7A" fill-opacity="0.5" fill-rule="nonzero" stroke="black" stroke-width="0.15650049"/>
</g>
<g id="item_9">
<path d="M0,0 L14,0 L5,6 z" fill="#7A7A7A" fill-opacity="0.5" fill-rule="nonzero" stroke="black" stroke-width="0.15650049"/>
</g>
</defs>
<use transform="translate(24.942873 10.48955), rotate(0)" xlink:href="#item_5">
<title>item, id: 5, transf: [r: 0.000°, t: (24.943, 10.490)]</title>
</use>
<use transform="translate(25.970564 44.68104), rotate(-180)" xlink:href="#item_5">
<title>item, id: 5, transf: [r: -180.000°, t: (25.971, 44.681)]</title>
</use>
<use transform="translate(10.729696 0.14267349), rotate(0)" xlink:href="#item_5">
<title>item, id: 5, transf: [r: 0.000°, t: (10.730, 0.143)]</title>
</use>
<use transform="translate(11.000006 54.04002), rotate(-180)" xlink:href="#item_2">
<title>item, id: 2, transf: [r: -180.000°, t: (11.000, 54.040)]</title>
</use>
<use transform="translate(11.001072 30.038574), rotate(-180)" xlink:href="#item_2">
<title>item, id: 2, transf: [r: -180.000°, t: (11.001, 30.039)]</title>
</use>
<use transform="translate(42.90521 54.269688), rotate(-180)" xlink:href="#item_2">
<title>item, id: 2, transf: [r: -180.000°, t: (42.905, 54.270)]</title>
</use>
<use transform="translate(42.908707 44.99989), rotate(0)" xlink:href="#item_3">
<title>item, id: 3, transf: [r: 0.000°, t: (42.909, 45.000)]</title>
</use>
<use transform="translate(56.908833 29.992336), rotate(-180)" xlink:href="#item_3">
<title>item, id: 3, transf: [r: -180.000°, t: (56.909, 29.992)]</title>
</use>
<use transform="translate(42.909016 29.99963), rotate(0)" xlink:href="#item_3">
<title>item, id: 3, transf: [r: 0.000°, t: (42.909, 30.000)]</title>
</use>
<use transform="translate(35.26854 59.999996), rotate(-180)" xlink:href="#item_6">
<title>item, id: 6, transf: [r: -180.000°, t: (35.269, 60.000)]</title>
</use>
<use transform="translate(0.0015668869 54.63341), rotate(0)" xlink:href="#item_6">
<title>item, id: 6, transf: [r: 0.000°, t: (0.002, 54.633)]</title>
</use>
<use transform="translate(32.72439 0.00000071525574), rotate(0)" xlink:href="#item_6">
<title>item, id: 6, transf: [r: 0.000°, t: (32.724, 0.000)]</title>
</use>
<use transform="translate(35.19021 4.2672343), rotate(0)" xlink:href="#item_0">
<title>item, id: 0, transf: [r: 0.000°, t: (35.190, 4.267)]</title>
</use>
<use transform="translate(45.453682 14.000065), rotate(-180)" xlink:href="#item_0">
<title>item, id: 0, transf: [r: -180.000°, t: (45.454, 14.000)]</title>
</use>
<use transform="translate(10.772466 45.632103), rotate(0)" xlink:href="#item_0">
<title>item, id: 0, transf: [r: 0.000°, t: (10.772, 45.632)]</title>
</use>
<use transform="translate(56.908924 14.991613), rotate(-180)" xlink:href="#item_1">
<title>item, id: 1, transf: [r: -180.000°, t: (56.909, 14.992)]</title>
</use>
<use transform="translate(33.02661 54.998905), rotate(-180)" xlink:href="#item_1">
<title>item, id: 1, transf: [r: -180.000°, t: (33.027, 54.999)]</title>
</use>
<use transform="translate(42.908978 30.269625), rotate(-180)" xlink:href="#item_1">
<title>item, id: 1, transf: [r: -180.000°, t: (42.909, 30.270)]</title>
</use>
<use transform="translate(15.779139 0.001550436), rotate(0)" xlink:href="#item_9">
<title>item, id: 9, transf: [r: 0.000°, t: (15.779, 0.002)]</title>
</use>
<use transform="translate(20.189404 6.290311), rotate(0)" xlink:href="#item_9">
<title>item, id: 9, transf: [r: 0.000°, t: (20.189, 6.290)]</title>
</use>
<use transform="translate(34.346546 6.2902226), rotate(-180)" xlink:href="#item_9">
<title>item, id: 9, transf: [r: -180.000°, t: (34.347, 6.290)]</title>
</use>
<use transform="translate(34.5919 13.269045), rotate(0)" xlink:href="#item_4">
<title>item, id: 4, transf: [r: 0.000°, t: (34.592, 13.269)]</title>
</use>
<use transform="translate(20.00043 44.741547), rotate(-180)" xlink:href="#item_4">
<title>item, id: 4, transf: [r: -180.000°, t: (20.000, 44.742)]</title>
</use>
<use transform="translate(3.9866571 0.000059604645), rotate(0)" xlink:href="#item_4">
<title>item, id: 4, transf: [r: 0.000°, t: (3.987, 0.000)]</title>
</use>
<use transform="translate(11.000191 33.741455), rotate(0)" xlink:href="#item_7">
<title>item, id: 7, transf: [r: 0.000°, t: (11.000, 33.741)]</title>
</use>
<use transform="translate(10.439625 45.403088), rotate(0)" xlink:href="#item_7">
<title>item, id: 7, transf: [r: 0.000°, t: (10.440, 45.403)]</title>
</use>
<use transform="translate(0.00057697296 0.03502798), rotate(0)" xlink:href="#item_7">
<title>item, id: 7, transf: [r: 0.000°, t: (0.001, 0.035)]</title>
</use>
<use transform="translate(14.662748 44.741558), rotate(0)" xlink:href="#item_8">
<title>item, id: 8, transf: [r: 0.000°, t: (14.663, 44.742)]</title>
</use>
<use transform="translate(42.718613 59.576096), rotate(-180)" xlink:href="#item_8">
<title>item, id: 8, transf: [r: -180.000°, t: (42.719, 59.576)]</title>
</use>
<use transform="translate(34.908024 54.27182), rotate(0)" xlink:href="#item_8">
<title>item, id: 8, transf: [r: 0.000°, t: (34.908, 54.272)]</title>
</use>
</g>
<g id="quality_zones"/>
<g id="optionals">
<g id="overlap_lines" transform="translate(0 0), rotate(0)"/>
</g>
<text font-family="monospace" font-size="1.4227318" font-weight="500" x="0" y="-0.7113659">
height: 60.000 | width: 56.909 | usage: 88.870% | final_bench_103
</text>
</svg>