<svg viewBox="-2.868702 -3.0000007 63.11143 66" xmlns="http://www.w3.org/2000/svg" xmlns:xlink="http://www.w3.org/1999/xlink">
<g id="bin_0">
<path d="M0,0 L57.374027,0 L57.374027,60 L0,60 z" fill="#D3D3D3" stroke="black" stroke-width="0.31555715"/>
<title>bin, id: 0, bbox: [x_min: 0.000, y_min: 0.000, x_max: 57.374, y_max: 60.000]</title>
</g>
<g id="items">
<defs>
<g id="item_0">
<path d="M0,8 L1,7 L7,5 L12,0 L15,3 L10,8 L11,9 L1,9 z" fill="#7A7A7A" fill-opacity="0.5" fill-rule="nonzero" stroke="black" stroke-width="0.15777858"/>
</g>
<g id="item_1">
<path d="M2,12 L0,0 L4,0 L4,1 L5,1 L5,0 L9,0 L9,2 L5,12 z" fill="#7A7A7A" fill-opacity="0.5" fill-rule="nonzero" stroke="black" stroke-width="0.15777858"/>
</g>
<g id="item_2">
<path d="M2,24 L0,18 L0,6 L2,0 L9,0 L11,6 L11,18 L9,24 z" fill="#7A7A7A" fill-opacity="0.5" fill-rule="nonzero" stroke="black" stroke-width="0.15777858"/>
</g>
<g id="item_3">
<path d="M0,15 L0,0 L14,0 L14,15 z" fill="#7A7A7A" fill-opacity="0.5" fill-rule="nonzero" stroke="black" stroke-width="0.15777858"/>
</g>
<g id="item_4">
<path d="M0,0 L9,0 L7,5 L2,5 z" fill="#7A7A7A" fill-opacity="0.5" fill-rule="nonzero" stroke="black" stroke-width="0.15777858"/>
</g>
<g id="item_5">
<path d="M0,32 L1,3 L3,0 L6,1 L11,11 L5,31 L2,33 z" fill="#7A7A7A" fill-opacity="0.5" fill-rule="nonzero" stroke="black" stroke-width="0.15777858"/>
</g>
<g id="item_6">
<path d="M0,3 L5,0 L23,0 L13,5 L1,5 z" fill="#7A7A7A" fill-opacity="0.5" fill-rule="nonzero" stroke="black" stroke-width="0.15777858"/>
</g>
<g id="item_7">
<path d="M1,0 L4,0 L5,6 L4,6 L4,5 L3,4 L2,4 L1,5 L1,6 L0,6 z" fill="#7A7A7A" fill-opacity="0.5" fill-rule="nonzero" stroke="black" stroke-width="0.15777858"/>
</g>
<g id="item_8">
<path d="M0,2 L1,0 L8,0 L6,3 z" fill="#7A7A7A" fill-opacity="0.5" fill-rule="nonzero" stroke="black" stroke-width="0.15777858"/>
</g>
<g id="item_9">
<path d="M0,0 L14,0 L5,6 z" fill="#7A7A7A" fill-opacity="0.5" fill-rule="nonzero" stroke="black" stroke-width="0.15777858"/>
</g>
</defs>
<use transform="translate(0.00018453598 0.00016117096), rotate(0)" xlink:href="#item_5">
<title>item, id: 5, transf: [r: 0.000°, t: (0.000, 0.000)]</title>
</use>
<use transform="translate(43.368843 41.976982), rotate(-180)" xlink:href="#item_5">
<title>item, id: 5, transf: [r: -180.000°, t: (43.369, 41.977)]</title>
</use>
<use transform="translate(17.876823 35.745773), rotate(-180)" xlink:href="#item_5">
<title>item, id: 5, transf: [r: -180.000°, t: (17.877, 35.746)]</title>
</use>
<use transform="translate(11.001081 35.99999), rotate(0)" xlink:href="#item_2">
<title>item, id: 2, transf: [r: 0.000°, t: (11.001, 36.000)]</title>
</use>
<use transform="translate(28.623608 29.15234), rotate(-180)" xlink:href="#item_2">
<title>item, id: 2, transf: [r: -180.000°, t: (28.624, 29.152)]</title>
</use>
<use transform="translate(11.001073 59.999203), rotate(-180)" xlink:href="#item_2">
<title>item, id: 2, transf: [r: -180.000°, t: (11.001, 59.999)]</title>
</use>
<use transform="translate(57.368 39.983673), rotate(-180)" xlink:href="#item_3">
<title>item, id: 3, transf: [r: -180.000°, t: (57.368, 39.984)]</title>
</use>
<use transform="translate(43.372208 44.986588), rotate(0)" xlink:href="#item_3">
<title>item, id: 3, transf: [r: 0.000°, t: (43.372, 44.987)]</title>
</use>
<use transform="translate(43.373016 9.98345), rotate(0)" xlink:href="#item_3">
<title>item, id: 3, transf: [r: 0.000°, t: (43.373, 9.983)]</title>
</use>
<use transform="translate(17.504177 0.0000076293945), rotate(0)" xlink:href="#item_6">
<title>item, id: 6, transf: [r: 0.000°, t: (17.504, 0.000)]</title>
</use>
<use transform="translate(57.373817 44.98376), rotate(-180)" xlink:href="#item_6">
<title>item, id: 6, transf: [r: -180.000°, t: (57.374, 44.984)]</title>
</use>
<use transform="translate(53.20381 5.150926), rotate(-180)" xlink:href="#item_6">
<title>item, id: 6, transf: [r: -180.000°, t: (53.204, 5.151)]</title>
</use>
<use transform="translate(37.517128 56.81547), rotate(-180)" xlink:href="#item_0">
<title>item, id: 0, transf: [r: -180.000°, t: (37.517, 56.815)]</title>
</use>
<use transform="translate(42.373924 0.981277), rotate(0)" xlink:href="#item_0">
<title>item, id: 0, transf: [r: 0.000°, t: (42.374, 0.981)]</title>
</use>
<use transform="translate(20.969158 50.998722), rotate(0)" xlink:href="#item_0">
<title>item, id: 0, transf: [r: 0.000°, t: (20.969, 50.999)]</title>
</use>
<use transform="translate(43.372204 59.99973), rotate(-180)" xlink:href="#item_1">
<title>item, id: 1, transf: [r: -180.000°, t: (43.372, 60.000)]</title>
</use>
<use transform="translate(21.128445 36.759937), rotate(0)" xlink:href="#item_1">
<title>item, id: 1, transf: [r: 0.000°, t: (21.128, 36.760)]</title>
</use>
<use transform="translate(28.707926 11.152516), rotate(0)" xlink:href="#item_1">
<title>item, id: 1, transf: [r: 0.000°, t: (28.708, 11.153)]</title>
</use>
<use transform="translate(5.5385356 0.22266006), rotate(0)" xlink:href="#item_9">
<title>item, id: 9, transf: [r: 0.000°, t: (5.539, 0.223)]</title>
</use>
<use transform="translate(35.258564 36.759403), rotate(-180)" xlink:href="#item_9">
<title>item, id: 9, transf: [r: -180.000°, t: (35.259, 36.759)]</title>
</use>
<use transform="translate(18.668612 29.15258), rotate(0)" xlink:href="#item_9">
<title>item, id: 9, transf: [r: 0.000°, t: (18.669, 29.153)]</title>
</use>
<use transform="translate(12.001312 35.997517), rotate(-180)" xlink:href="#item_4">
<title>item, id: 4, transf: [r: -180.000°, t: (12.001, 35.998)]</title>
</use>
<use transform="translate(37.688976 42.79694), rotate(-180)" xlink:href="#item_4">
<title>item, id: 4, transf: [r: -180.000°, t: (37.689, 42.797)]</title>
</use>
<use transform="translate(35.506367 47.8153), rotate(-180)" xlink:href="#item_4">
<title>item, id: 4, transf: [r: -180.000°, t: (35.506, 47.815)]</title>
</use>
<use transform="translate(27.915653 23.152534), rotate(0)" xlink:href="#item_7">
<title>item, id: 7, transf: [r: 0.000°, t: (27.916, 23.153)]</title>
</use>
<use transform="translate(31.676758 5.15106), rotate(0)" xlink:href="#item_7">
<title>item, id: 7, transf: [r: 0.000°, t: (31.677, 5.151)]</title>
</use>
<use transform="translate(32.658955 11.1521225), rotate(-180)" xlink:href="#item_7">
<title>item, id: 7, transf: [r: -180.000°, t: (32.659, 11.152)]</title>
</use>
<use transform="translate(22.707718 35.999687), rotate(-180)" xlink:href="#item_8">
<title>item, id: 8, transf: [r: -180.000°, t: (22.708, 36.000)]</title>
</use>
<use transform="translate(35.331295 44.997093), rotate(0)" xlink:href="#item_8">
<title>item, id: 8, transf: [r: 0.000°, t: (35.331, 44.997)]</title>
</use>
<use transform="translate(36.543873 5.154214), rotate(0)" xlink:href="#item_8">
<title>item, id: 8, transf: [r: 0.000°, t: (36.544, 5.154)]</title>
</use>
</g>
<g id="quality_zones"/>
<g id="optionals">
<g id="overlap_lines" transform="translate(0 0), rotate(0)"/>
</g>
<text font-family="monospace" font-size="1.4343507" font-weight="500" x="0" y="-0.71717536">
height: 60.000 | width: 57.374 | usage: 88.150% | final_bench_9
</text>
</svg>