<svg viewBox="-2.8144596 -3.0000007 61.9181 66" xmlns="http://www.w3.org/2000/svg" xmlns:xlink="http://www.w3.org/1999/xlink">
<g id="bin_0">
<path d="M0,0 L56.289177,0 L56.289177,60 L0,60 z" fill="#D3D3D3" stroke="black" stroke-width="0.30959052"/>
<title>bin, id: 0, bbox: [x_min: 0.000, y_min: 0.000, x_max: 56.289, y_max: 60.000]</title>
</g>
<g id="items">
<defs>
<g id="item_0">
<path d="M0,8 L1,7 L7,5 L12,0 L15,3 L10,8 L11,9 L1,9 z" fill="#7A7A7A" fill-opacity="0.5" fill-rule="nonzero" stroke="black" stroke-width="0.15479526"/>
</g>
<g id="item_1">
<path d="M2,12 L0,0 L4,0 L4,1 L5,1 L5,0 L9,0 L9,2 L5,12 z" fill="#7A7A7A" fill-opacity="0.5" fill-rule="nonzero" stroke="black" stroke-width="0.15479526"/>
</g>
<g id="item_2">
<path d="M2,24 L0,18 L0,6 L2,0 L9,0 L11,6 L11,18 L9,24 z" fill="#7A7A7A" fill-opacity="0.5" fill-rule="nonzero" stroke="black" stroke-width="0.15479526"/>
</g>
<g id="item_3">
<path d="M0,15 L0,0 L14,0 L14,15 z" fill="#7A7A7A" fill-opacity="0.5" fill-rule="nonzero" stroke="black" stroke-width="0.15479526"/>
</g>
<g id="item_4">
<path d="M0,0 L9,0 L7,5 L2,5 z" fill="#7A7A7A" fill-opacity="0.5" fill-rule="nonzero" stroke="black" stroke-width="0.15479526"/>
</g>
<g id="item_5">
<path d="M0,32 L1,3 L3,0 L6,1 L11,11 L5,31 L2,33 z" fill="#7A7A7A" fill-opacity="0.5" fill-rule="nonzero" stroke="black" stroke-width="0.15479526"/>
</g>
<g id="item_6">
<path d="M0,3 L5,0 L23,0 L13,5 L1,5 z" fill="#7A7A7A" fill-opacity="0.5" fill-rule="nonzero" stroke="black" stroke-width="0.15479526"/>
</g>
<g id="item_7">
<path d="M1,0 L4,0 L5,6 L4,6 L4,5 L3,4 L2,4 L1,5 L1,6 L0,6 z" fill="#7A7A7A" fill-opacity="0.5" fill-rule="nonzero" stroke="black" stroke-width="0.15479526"/>
</g>
<g id="item_8">
<path d="M0,2 L1,0 L8,0 L6,3 z" fill="#7A7A7A" fill-opacity="0.5" fill-rule="nonzero" stroke="black" stroke-width="0.15479526"/>
</g>
<g id="item_9">
<path d="M0,0 L14,0 L5,6 z" fill="#7A7A7A" fill-opacity="0.5" fill-rule="nonzero" stroke="black" stroke-width="0.15479526"/>
</g>
</defs>
<use transform="translate(14.4435215 9.912455), rotate(0)" xlink:href="#item_5">
<title>item, id: 5, transf: [r: 0.000°, t: (14.444, 9.912)]</title>
</use>
<use transform="translate(15.441429 44.956196), rotate(-180)" xlink:href="#item_5">
<title>item, id: 5, transf: [r: -180.000°, t: (15.441, 44.956)]</title>
</use>
<use transform="translate(0.001288414 0.99700737), rotate(0)" xlink:href="#item_5">
<title>item, id: 5, transf: [r: 0.000°, t: (0.001, 0.997)]</title>
</use>
<use transform="translate(39.000626 58.929592), rotate(-180)" xlink:href="#item_2">
<title>item, id: 2, transf: [r: -180.000°, t: (39.001, 58.930)]</title>
</use>
<use transform="translate(45.289158 35.85923), rotate(0)" xlink:href="#item_2">
<title>item, id: 2, transf: [r: 0.000°, t: (45.289, 35.859)]</title>
</use>
<use transform="translate(45.28915 11.720455), rotate(0)" xlink:href="#item_2">
<title>item, id: 2, transf: [r: 0.000°, t: (45.289, 11.720)]</title>
</use>
<use transform="translate(31.28828 19.781727), rotate(0)" xlink:href="#item_3">
<title>item, id: 3, transf: [r: 0.000°, t: (31.288, 19.782)]</title>
</use>
<use transform="translate(14.000275 44.999264), rotate(0)" xlink:href="#item_3">
<title>item, id: 3, transf: [r: 0.000°, t: (14.000, 44.999)]</title>
</use>
<use transform="translate(14.0001545 59.999763), rotate(-180)" xlink:href="#item_3">
<title>item, id: 3, transf: [r: -180.000°, t: (14.000, 60.000)]</title>
</use>
<use transform="translate(42.7044 5.0019712), rotate(-180)" xlink:href="#item_6">
<title>item, id: 6, transf: [r: -180.000°, t: (42.704, 5.002)]</title>
</use>
<use transform="translate(6.6368923 0.000019073486), rotate(0)" xlink:href="#item_6">
<title>item, id: 6, transf: [r: 0.000°, t: (6.637, 0.000)]</title>
</use>
<use transform="translate(17.005634 5.0029697), rotate(0)" xlink:href="#item_6">
<title>item, id: 6, transf: [r: 0.000°, t: (17.006, 5.003)]</title>
</use>
<use transform="translate(40.497967 20.014137), rotate(-180)" xlink:href="#item_0">
<title>item, id: 0, transf: [r: -180.000°, t: (40.498, 20.014)]</title>
</use>
<use transform="translate(30.995583 2.0130415), rotate(0)" xlink:href="#item_0">
<title>item, id: 0, transf: [r: 0.000°, t: (30.996, 2.013)]</title>
</use>
<use transform="translate(33.23138 7.77784), rotate(0)" xlink:href="#item_0">
<title>item, id: 0, transf: [r: 0.000°, t: (33.231, 7.778)]</title>
</use>
<use transform="translate(37.97629 34.78295), rotate(0)" xlink:href="#item_1">
<title>item, id: 1, transf: [r: 0.000°, t: (37.976, 34.783)]</title>
</use>
<use transform="translate(46.312225 59.998173), rotate(-180)" xlink:href="#item_1">
<title>item, id: 1, transf: [r: -180.000°, t: (46.312, 59.998)]</title>
</use>
<use transform="translate(31.272654 33.502396), rotate(-180)" xlink:href="#item_1">
<title>item, id: 1, transf: [r: -180.000°, t: (31.273, 33.502)]</title>
</use>
<use transform="translate(41.81991 0.001802206), rotate(0)" xlink:href="#item_9">
<title>item, id: 9, transf: [r: 0.000°, t: (41.820, 0.002)]</title>
</use>
<use transform="translate(27.995544 44.998177), rotate(-180)" xlink:href="#item_9">
<title>item, id: 9, transf: [r: -180.000°, t: (27.996, 44.998)]</title>
</use>
<use transform="translate(7.506088 5.002273), rotate(0)" xlink:href="#item_9">
<title>item, id: 9, transf: [r: 0.000°, t: (7.506, 5.002)]</title>
</use>
<use transform="translate(46.760612 6.7033997), rotate(0)" xlink:href="#item_4">
<title>item, id: 4, transf: [r: 0.000°, t: (46.761, 6.703)]</title>
</use>
<use transform="translate(20.49356 10.002975), rotate(0)" xlink:href="#item_4">
<title>item, id: 4, transf: [r: 0.000°, t: (20.494, 10.003)]</title>
</use>
<use transform="translate(9.458454 44.999264), rotate(-180)" xlink:href="#item_4">
<title>item, id: 4, transf: [r: -180.000°, t: (9.458, 44.999)]</title>
</use>
<use transform="translate(20.533167 33.962555), rotate(0)" xlink:href="#item_7">
<title>item, id: 7, transf: [r: 0.000°, t: (20.533, 33.963)]</title>
</use>
<use transform="translate(0.45895815 33.99768), rotate(0)" xlink:href="#item_7">
<title>item, id: 7, transf: [r: 0.000°, t: (0.459, 33.998)]</title>
</use>
<use transform="translate(29.45915 39.506622), rotate(-180)" xlink:href="#item_7">
<title>item, id: 7, transf: [r: -180.000°, t: (29.459, 39.507)]</title>
</use>
<use transform="translate(38.32284 19.722593), rotate(-180)" xlink:href="#item_8">
<title>item, id: 8, transf: [r: -180.000°, t: (38.323, 19.723)]</title>
</use>
<use transform="translate(56.27786 6.699374), rotate(-180)" xlink:href="#item_8">
<title>item, id: 8, transf: [r: -180.000°, t: (56.278, 6.699)]</title>
</use>
<use transform="translate(45.28758 19.781664), rotate(-180)" xlink:href="#item_8">
<title>item, id: 8, transf: [r: -180.000°, t: (45.288, 19.782)]</title>
</use>
</g>
<g id="quality_zones"/>
<g id="optionals">
<g id="overlap_lines" transform="translate(0 0), rotate(0)"/>
</g>
<text font-family="monospace" font-size="1.4072294" font-weight="500" x="0" y="-0.7036147">
height: 60.000 | width: 56.289 | usage: 89.849% | final_bench_80
</text>
</svg>