<svg viewBox="-2.8383918 -3.0000007 62.444603 66" xmlns="http://www.w3.org/2000/svg" xmlns:xlink="http://www.w3.org/1999/xlink">
<g id="bin_0">
<path d="M0,0 L56.767822,0 L56.767822,60 L0,60 z" fill="#D3D3D3" stroke="black" stroke-width="0.31222302"/>
<title>bin, id: 0, bbox: [x_min: 0.000, y_min: 0.000, x_max: 56.768, y_max: 60.000]</title>
</g>
<g id="items">
<defs>
<g id="item_0">
<path d="M0,8 L1,7 L7,5 L12,0 L15,3 L10,8 L11,9 L1,9 z" fill="#7A7A7A" fill-opacity="0.5" fill-rule="nonzero" stroke="black" stroke-width="0.15611151"/>
</g>
<g id="item_1">
<path d="M2,12 L0,0 L4,0 L4,1 L5,1 L5,0 L9,0 L9,2 L5,12 z" fill="#7A7A7A" fill-opacity="0.5" fill-rule="nonzero" stroke="black" stroke-width="0.15611151"/>
</g>
<g id="item_2">
<path d="M2,24 L0,18 L0,6 L2,0 L9,0 L11,6 L11,18 L9,24 z" fill="#7A7A7A" fill-opacity="0.5" fill-rule="nonzero" stroke="black" stroke-width="0.15611151"/>
</g>
<g id="item_3">
<path d="M0,15 L0,0 L14,0 L14,15 z" fill="#7A7A7A" fill-opacity="0.5" fill-rule="nonzero" stroke="black" stroke-width="0.15611151"/>
</g>
<g id="item_4">
<path d="M0,0 L9,0 L7,5 L2,5 z" fill="#7A7A7A" fill-opacity="0.5" fill-rule="nonzero" stroke="black" stroke-width="0.15611151"/>
</g>
<g id="item_5">
<path d="M0,32 L1,3 L3,0 L6,1 L11,11 L5,31 L2,33 z" fill="#7A7A7A" fill-opacity="0.5" fill-rule="nonzero" stroke="black" stroke-width="0.15611151"/>
</g>
<g id="item_6">
<path d="M0,3 L5,0 L23,0 L13,5 L1,5 z" fill="#7A7A7A" fill-opacity="0.5" fill-rule="nonzero" stroke="black" stroke-width="0.15611151"/>
</g>
<g id="item_7">
<path d="M1,0 L4,0 L5,6 L4,6 L4,5 L3,4 L2,4 L1,5 L1,6 L0,6 z" fill="#7A7A7A" fill-opacity="0.5" fill-rule="nonzero" stroke="black" stroke-width="0.15611151"/>
</g>
<g id="item_8">
<path d="M0,2 L1,0 L8,0 L6,3 z" fill="#7A7A7A" fill-opacity="0.5" fill-rule="nonzero" stroke="black" stroke-width="0.15611151"/>
</g>
<g id="item_9">
<path d="M0,0 L14,0 L5,6 z" fill="#7A7A7A" fill-opacity="0.5" fill-rule="nonzero" stroke="black" stroke-width="0.15611151"/>
</g>
</defs>
<use transform="translate(16.535843 48.552944), rotate(-180)" xlink:href="#item_5">
<title>item, id: 5, transf: [r: -180.000°, t: (16.536, 48.553)]</title>
</use>
<use transform="translate(15.567078 12.651386), rotate(0)" xlink:href="#item_5">
<title>item, id: 5, transf: [r: 0.000°, t: (15.567, 12.651)]</title>
</use>
<use transform="translate(31.767673 53.984417), rotate(-180)" xlink:href="#item_5">
<title>item, id: 5, transf: [r: -180.000°, t: (31.768, 53.984)]</title>
</use>
<use transform="translate(45.767685 35.999905), rotate(0)" xlink:href="#item_2">
<title>item, id: 2, transf: [r: 0.000°, t: (45.768, 36.000)]</title>
</use>
<use transform="translate(45.76782 11.986235), rotate(0)" xlink:href="#item_2">
<title>item, id: 2, transf: [r: 0.000°, t: (45.768, 11.986)]</title>
</use>
<use transform="translate(11.000555 24.000198), rotate(-180)" xlink:href="#item_2">
<title>item, id: 2, transf: [r: -180.000°, t: (11.001, 24.000)]</title>
</use>
<use transform="translate(31.767761 14.995878), rotate(0)" xlink:href="#item_3">
<title>item, id: 3, transf: [r: 0.000°, t: (31.768, 14.996)]</title>
</use>
<use transform="translate(31.766205 44.998486), rotate(0)" xlink:href="#item_3">
<title>item, id: 3, transf: [r: 0.000°, t: (31.766, 44.998)]</title>
</use>
<use transform="translate(45.494423 44.997143), rotate(-180)" xlink:href="#item_3">
<title>item, id: 3, transf: [r: -180.000°, t: (45.494, 44.997)]</title>
</use>
<use transform="translate(55.146843 5.0006523), rotate(-180)" xlink:href="#item_6">
<title>item, id: 6, transf: [r: -180.000°, t: (55.147, 5.001)]</title>
</use>
<use transform="translate(16.600912 5.000907), rotate(0)" xlink:href="#item_6">
<title>item, id: 6, transf: [r: 0.000°, t: (16.601, 5.001)]</title>
</use>
<use transform="translate(19.144394 0.0008761883), rotate(0)" xlink:href="#item_6">
<title>item, id: 6, transf: [r: 0.000°, t: (19.144, 0.001)]</title>
</use>
<use transform="translate(41.765045 2.9858375), rotate(0)" xlink:href="#item_0">
<title>item, id: 0, transf: [r: 0.000°, t: (41.765, 2.986)]</title>
</use>
<use transform="translate(50.742985 14.00152), rotate(-180)" xlink:href="#item_0">
<title>item, id: 0, transf: [r: -180.000°, t: (50.743, 14.002)]</title>
</use>
<use transform="translate(11.781907 50.999268), rotate(0)" xlink:href="#item_0">
<title>item, id: 0, transf: [r: 0.000°, t: (11.782, 50.999)]</title>
</use>
<use transform="translate(0.0036115646 47.007042), rotate(0)" xlink:href="#item_1">
<title>item, id: 1, transf: [r: 0.000°, t: (0.004, 47.007)]</title>
</use>
<use transform="translate(0.0008816719 24.001266), rotate(0)" xlink:href="#item_1">
<title>item, id: 1, transf: [r: 0.000°, t: (0.001, 24.001)]</title>
</use>
<use transform="translate(10.000771 0.00024938583), rotate(0)" xlink:href="#item_1">
<title>item, id: 1, transf: [r: 0.000°, t: (10.001, 0.000)]</title>
</use>
<use transform="translate(39.067223 14.991142), rotate(-180)" xlink:href="#item_9">
<title>item, id: 9, transf: [r: -180.000°, t: (39.067, 14.991)]</title>
</use>
<use transform="translate(18.52988 10.001182), rotate(0)" xlink:href="#item_9">
<title>item, id: 9, transf: [r: 0.000°, t: (18.530, 10.001)]</title>
</use>
<use transform="translate(24.548283 50.546078), rotate(-180)" xlink:href="#item_9">
<title>item, id: 9, transf: [r: -180.000°, t: (24.548, 50.546)]</title>
</use>
<use transform="translate(9.002832 47.007), rotate(-180)" xlink:href="#item_4">
<title>item, id: 4, transf: [r: -180.000°, t: (9.003, 47.007)]</title>
</use>
<use transform="translate(14.810573 56.994377), rotate(-180)" xlink:href="#item_4">
<title>item, id: 4, transf: [r: -180.000°, t: (14.811, 56.994)]</title>
</use>
<use transform="translate(12.233807 50.546368), rotate(0)" xlink:href="#item_4">
<title>item, id: 4, transf: [r: 0.000°, t: (12.234, 50.546)]</title>
</use>
<use transform="translate(31.762386 59.65014), rotate(-180)" xlink:href="#item_7">
<title>item, id: 7, transf: [r: -180.000°, t: (31.762, 59.650)]</title>
</use>
<use transform="translate(5.085528 42.004604), rotate(-180)" xlink:href="#item_7">
<title>item, id: 7, transf: [r: -180.000°, t: (5.086, 42.005)]</title>
</use>
<use transform="translate(26.767706 14.995385), rotate(0)" xlink:href="#item_7">
<title>item, id: 7, transf: [r: 0.000°, t: (26.768, 14.995)]</title>
</use>
<use transform="translate(47.44013 14.962517), rotate(-180)" xlink:href="#item_8">
<title>item, id: 8, transf: [r: -180.000°, t: (47.440, 14.963)]</title>
</use>
<use transform="translate(5.048527 56.997063), rotate(0)" xlink:href="#item_8">
<title>item, id: 8, transf: [r: 0.000°, t: (5.049, 56.997)]</title>
</use>
<use transform="translate(11.00058 12.000257), rotate(0)" xlink:href="#item_8">
<title>item, id: 8, transf: [r: 0.000°, t: (11.001, 12.000)]</title>
</use>
</g>
<g id="quality_zones"/>
<g id="optionals">
<g id="overlap_lines" transform="translate(0 0), rotate(0)"/>
</g>
<text font-family="monospace" font-size="1.4191955" font-weight="500" x="0" y="-0.70959777">
height: 60.000 | width: 56.768 | usage: 89.091% | final_bench_43
</text>
</svg>