<svg viewBox="-2.8418548 -3.0000007 62.52079 66" xmlns="http://www.w3.org/2000/svg" xmlns:xlink="http://www.w3.org/1999/xlink">
<g id="bin_0">
<path d="M0,0 L56.837082,0 L56.837082,60 L0,60 z" fill="#D3D3D3" stroke="black" stroke-width="0.31260398"/>
<title>bin, id: 0, bbox: [x_min: 0.000, y_min: 0.000, x_max: 56.837, y_max: 60.000]</title>
</g>
<g id="items">
<defs>
<g id="item_0">
<path d="M0,8 L1,7 L7,5 L12,0 L15,3 L10,8 L11,9 L1,9 z" fill="#7A7A7A" fill-opacity="0.5" fill-rule="nonzero" stroke="black" stroke-width="0.15630199"/>
</g>
<g id="item_1">
<path d="M2,12 L0,0 L4,0 L4,1 L5,1 L5,0 L9,0 L9,2 L5,12 z" fill="#7A7A7A" fill-opacity="0.5" fill-rule="nonzero" stroke="black" stroke-width="0.15630199"/>
</g>
<g id="item_2">
<path d="M2,24 L0,18 L0,6 L2,0 L9,0 L11,6 L11,18 L9,24 z" fill="#7A7A7A" fill-opacity="0.5" fill-rule="nonzero" stroke="black" stroke-width="0.15630199"/>
</g>
<g id="item_3">
<path d="M0,15 L0,0 L14,0 L14,15 z" fill="#7A7A7A" fill-opacity="0.5" fill-rule="nonzero" stroke="black" stroke-width="0.15630199"/>
</g>
<g id="item_4">
<path d="M0,0 L9,0 L7,5 L2,5 z" fill="#7A7A7A" fill-opacity="0.5" fill-rule="nonzero" stroke="black" stroke-width="0.15630199"/>
</g>
<g id="item_5">
<path d="M0,32 L1,3 L3,0 L6,1 L11,11 L5,31 L2,33 z" fill="#7A7A7A" fill-opacity="0.5" fill-rule="nonzero" stroke="black" stroke-width="0.15630199"/>
</g>
<g id="item_6">
<path d="M0,3 L5,0 L23,0 L13,5 L1,5 z" fill="#7A7A7A" fill-opacity="0.5" fill-rule="nonzero" stroke="black" stroke-width="0.15630199"/>
</g>
<g id="item_7">
<path d="M1,0 L4,0 L5,6 L4,6 L4,5 L3,4 L2,4 L1,5 L1,6 L0,6 z" fill="#7A7A7A" fill-opacity="0.5" fill-rule="nonzero" stroke="black" stroke-width="0.15630199"/>
</g>
<g id="item_8">
<path d="M0,2 L1,0 L8,0 L6,3 z" fill="#7A7A7A" fill-opacity="0.5" fill-rule="nonzero" stroke="black" stroke-width="0.15630199"/>
</g>
<g id="item_9">
<path d="M0,0 L14,0 L5,6 z" fill="#7A7A7A" fill-opacity="0.5" fill-rule="nonzero" stroke="black" stroke-width="0.15630199"/>
</g>
</defs>
<use transform="translate(17.880526 35.736675), rotate(-180)" xlink:href="#item_5">
<title>item, id: 5, transf: [r: -180.000°, t: (17.881, 35.737)]</title>
</use>
<use transform="translate(0.00007915497 0.0022630692), rotate(0)" xlink:href="#item_5">
<title>item, id: 5, transf: [r: 0.000°, t: (0.000, 0.002)]</title>
</use>
<use transform="translate(16.874426 0.930954), rotate(0)" xlink:href="#item_5">
<title>item, id: 5, transf: [r: 0.000°, t: (16.874, 0.931)]</title>
</use>
<use transform="translate(45.835567 30.99728), rotate(0)" xlink:href="#item_2">
<title>item, id: 2, transf: [r: 0.000°, t: (45.836, 30.997)]</title>
</use>
<use transform="translate(11.000454 59.99971), rotate(-180)" xlink:href="#item_2">
<title>item, id: 2, transf: [r: -180.000°, t: (11.000, 60.000)]</title>
</use>
<use transform="translate(45.83626 6.997162), rotate(0)" xlink:href="#item_2">
<title>item, id: 2, transf: [r: 0.000°, t: (45.836, 6.997)]</title>
</use>
<use transform="translate(31.780994 9.995558), rotate(0)" xlink:href="#item_3">
<title>item, id: 3, transf: [r: 0.000°, t: (31.781, 9.996)]</title>
</use>
<use transform="translate(45.835453 54.998993), rotate(-180)" xlink:href="#item_3">
<title>item, id: 3, transf: [r: -180.000°, t: (45.835, 54.999)]</title>
</use>
<use transform="translate(45.83523 39.997097), rotate(-180)" xlink:href="#item_3">
<title>item, id: 3, transf: [r: -180.000°, t: (45.835, 39.997)]</title>
</use>
<use transform="translate(20.48545 54.99969), rotate(0)" xlink:href="#item_6">
<title>item, id: 6, transf: [r: 0.000°, t: (20.485, 55.000)]</title>
</use>
<use transform="translate(56.83683 59.99957), rotate(-180)" xlink:href="#item_6">
<title>item, id: 6, transf: [r: -180.000°, t: (56.837, 60.000)]</title>
</use>
<use transform="translate(23.409143 0.00031542778), rotate(0)" xlink:href="#item_6">
<title>item, id: 6, transf: [r: 0.000°, t: (23.409, 0.000)]</title>
</use>
<use transform="translate(56.836884 9.286688), rotate(-180)" xlink:href="#item_0">
<title>item, id: 0, transf: [r: -180.000°, t: (56.837, 9.287)]</title>
</use>
<use transform="translate(9.508857 50.969), rotate(0)" xlink:href="#item_0">
<title>item, id: 0, transf: [r: 0.000°, t: (9.509, 50.969)]</title>
</use>
<use transform="translate(26.10209 56.732788), rotate(-180)" xlink:href="#item_0">
<title>item, id: 0, transf: [r: -180.000°, t: (26.102, 56.733)]</title>
</use>
<use transform="translate(31.835001 30.73153), rotate(-180)" xlink:href="#item_1">
<title>item, id: 1, transf: [r: -180.000°, t: (31.835, 30.732)]</title>
</use>
<use transform="translate(27.364988 42.731625), rotate(-180)" xlink:href="#item_1">
<title>item, id: 1, transf: [r: -180.000°, t: (27.365, 42.732)]</title>
</use>
<use transform="translate(9.998671 35.988045), rotate(0)" xlink:href="#item_1">
<title>item, id: 1, transf: [r: 0.000°, t: (9.999, 35.988)]</title>
</use>
<use transform="translate(24.413162 5.000379), rotate(0)" xlink:href="#item_9">
<title>item, id: 9, transf: [r: 0.000°, t: (24.413, 5.000)]</title>
</use>
<use transform="translate(44.92471 9.99495), rotate(-180)" xlink:href="#item_9">
<title>item, id: 9, transf: [r: -180.000°, t: (44.925, 9.995)]</title>
</use>
<use transform="translate(5.488298 0.2711556), rotate(0)" xlink:href="#item_9">
<title>item, id: 9, transf: [r: 0.000°, t: (5.488, 0.271)]</title>
</use>
<use transform="translate(24.102139 47.73163), rotate(-180)" xlink:href="#item_4">
<title>item, id: 4, transf: [r: -180.000°, t: (24.102, 47.732)]</title>
</use>
<use transform="translate(22.515934 42.732765), rotate(0)" xlink:href="#item_4">
<title>item, id: 4, transf: [r: 0.000°, t: (22.516, 42.733)]</title>
</use>
<use transform="translate(12.005943 35.98762), rotate(-180)" xlink:href="#item_4">
<title>item, id: 4, transf: [r: -180.000°, t: (12.006, 35.988)]</title>
</use>
<use transform="translate(26.765934 12.707637), rotate(0)" xlink:href="#item_7">
<title>item, id: 7, transf: [r: 0.000°, t: (26.766, 12.708)]</title>
</use>
<use transform="translate(31.834476 36.731853), rotate(-180)" xlink:href="#item_7">
<title>item, id: 7, transf: [r: -180.000°, t: (31.834, 36.732)]</title>
</use>
<use transform="translate(31.798277 42.73211), rotate(-180)" xlink:href="#item_7">
<title>item, id: 7, transf: [r: -180.000°, t: (31.798, 42.732)]</title>
</use>
<use transform="translate(31.835138 54.999687), rotate(-180)" xlink:href="#item_8">
<title>item, id: 8, transf: [r: -180.000°, t: (31.835, 55.000)]</title>
</use>
<use transform="translate(31.83545 51.9995), rotate(-180)" xlink:href="#item_8">
<title>item, id: 8, transf: [r: -180.000°, t: (31.835, 52.000)]</title>
</use>
<use transform="translate(56.826694 6.9957438), rotate(-180)" xlink:href="#item_8">
<title>item, id: 8, transf: [r: -180.000°, t: (56.827, 6.996)]</title>
</use>
</g>
<g id="quality_zones"/>
<g id="optionals">
<g id="overlap_lines" transform="translate(0 0), rotate(0)"/>
</g>
<text font-family="monospace" font-size="1.420927" font-weight="500" x="0" y="-0.7104635">
height: 60.000 | width: 56.837 | usage: 88.982% | final_bench_40
</text>
</svg>