<svg viewBox="-2.8288293 -3.0000007 62.234234 66" xmlns="http://www.w3.org/2000/svg" xmlns:xlink="http://www.w3.org/1999/xlink">
<g id="bin_0">
<path d="M0,0 L56.576572,0 L56.576572,60 L0,60 z" fill="#D3D3D3" stroke="black" stroke-width="0.31117117"/>
<title>bin, id: 0, bbox: [x_min: 0.000, y_min: 0.000, x_max: 56.577, y_max: 60.000]</title>
</g>
<g id="items">
<defs>
<g id="item_0">
<path d="M0,8 L1,7 L7,5 L12,0 L15,3 L10,8 L11,9 L1,9 z" fill="#7A7A7A" fill-opacity="0.5" fill-rule="nonzero" stroke="black" stroke-width="0.15558559"/>
</g>
<g id="item_1">
<path d="M2,12 L0,0 L4,0 L4,1 L5,1 L5,0 L9,0 L9,2 L5,12 z" fill="#7A7A7A" fill-opacity="0.5" fill-rule="nonzero" stroke="black" stroke-width="0.15558559"/>
</g>
<g id="item_2">
<path d="M2,24 L0,18 L0,6 L2,0 L9,0 L11,6 L11,18 L9,24 z" fill="#7A7A7A" fill-opacity="0.5" fill-rule="nonzero" stroke="black" stroke-width="0.15558559"/>
</g>
<g id="item_3">
<path d="M0,15 L0,0 L14,0 L14,15 z" fill="#7A7A7A" fill-opacity="0.5" fill-rule="nonzero" stroke="black" stroke-width="0.15558559"/>
</g>
<g id="item_4">
<path d="M0,0 L9,0 L7,5 L2,5 z" fill="#7A7A7A" fill-opacity="0.5" fill-rule="nonzero" stroke="black" stroke-width="0.15558559"/>
</g>
<g id="item_5">
<path d="M0,32 L1,3 L3,0 L6,1 L11,11 L5,31 L2,33 z" fill="#7A7A7A" fill-opacity="0.5" fill-rule="nonzero" stroke="black" stroke-width="0.15558559"/>
</g>
<g id="item_6">
<path d="M0,3 L5,0 L23,0 L13,5 L1,5 z" fill="#7A7A7A" fill-opacity="0.5" fill-rule="nonzero" stroke="black" stroke-width="0.15558559"/>
</g>
<g id="item_7">
<path d="M1,0 L4,0 L5,6 L4,6 L4,5 L3,4 L2,4 L1,5 L1,6 L0,6 z" fill="#7A7A7A" fill-opacity="0.5" fill-rule="nonzero" stroke="black" stroke-width="0.15558559"/>
</g>
<g id="item_8">
<path d="M0,2 L1,0 L8,0 L6,3 z" fill="#7A7A7A" fill-opacity="0.5" fill-rule="nonzero" stroke="black" stroke-width="0.15558559"/>
</g>
<g id="item_9">
<path d="M0,0 L14,0 L5,6 z" fill="#7A7A7A" fill-opacity="0.5" fill-rule="nonzero" stroke="black" stroke-width="0.15558559"/>
</g>
</defs>
<use transform="translate(42.413967 51.00442), rotate(-180)" xlink:href="#item_5">
<title>item, id: 5, transf: [r: -180.000°, t: (42.414, 51.004)]</title>
</use>
<use transform="translate(56.576508 59.92432), rotate(-180)" xlink:href="#item_5">
<title>item, id: 5, transf: [r: -180.000°, t: (56.577, 59.924)]</title>
</use>
<use transform="translate(41.4509 15.00223), rotate(0)" xlink:href="#item_5">
<title>item, id: 5, transf: [r: 0.000°, t: (41.451, 15.002)]</title>
</use>
<use transform="translate(11.000247 24.00473), rotate(-180)" xlink:href="#item_2">
<title>item, id: 2, transf: [r: -180.000°, t: (11.000, 24.005)]</title>
</use>
<use transform="translate(17.576242 0.28229046), rotate(0)" xlink:href="#item_2">
<title>item, id: 2, transf: [r: 0.000°, t: (17.576, 0.282)]</title>
</use>
<use transform="translate(11.017807 53.33151), rotate(-180)" xlink:href="#item_2">
<title>item, id: 2, transf: [r: -180.000°, t: (11.018, 53.332)]</title>
</use>
<use transform="translate(25.023378 49.570972), rotate(-180)" xlink:href="#item_3">
<title>item, id: 3, transf: [r: -180.000°, t: (25.023, 49.571)]</title>
</use>
<use transform="translate(42.576393 15.298456), rotate(-180)" xlink:href="#item_3">
<title>item, id: 3, transf: [r: -180.000°, t: (42.576, 15.298)]</title>
</use>
<use transform="translate(42.576565 0.00006055832), rotate(0)" xlink:href="#item_3">
<title>item, id: 3, transf: [r: 0.000°, t: (42.577, 0.000)]</title>
</use>
<use transform="translate(0.0011177063 24.28441), rotate(0)" xlink:href="#item_6">
<title>item, id: 6, transf: [r: 0.000°, t: (0.001, 24.284)]</title>
</use>
<use transform="translate(35.445114 29.563261), rotate(-180)" xlink:href="#item_6">
<title>item, id: 6, transf: [r: -180.000°, t: (35.445, 29.563)]</title>
</use>
<use transform="translate(22.708326 54.49778), rotate(0)" xlink:href="#item_6">
<title>item, id: 6, transf: [r: 0.000°, t: (22.708, 54.498)]</title>
</use>
<use transform="translate(43.167786 24.30074), rotate(-180)" xlink:href="#item_0">
<title>item, id: 0, transf: [r: -180.000°, t: (43.168, 24.301)]</title>
</use>
<use transform="translate(11.174394 50.999928), rotate(0)" xlink:href="#item_0">
<title>item, id: 0, transf: [r: 0.000°, t: (11.174, 51.000)]</title>
</use>
<use transform="translate(0.00008392334 50.99994), rotate(0)" xlink:href="#item_0">
<title>item, id: 0, transf: [r: 0.000°, t: (0.000, 51.000)]</title>
</use>
<use transform="translate(18.575523 24.281778), rotate(-180)" xlink:href="#item_1">
<title>item, id: 1, transf: [r: -180.000°, t: (18.576, 24.282)]</title>
</use>
<use transform="translate(9.999914 0.000992775), rotate(0)" xlink:href="#item_1">
<title>item, id: 1, transf: [r: 0.000°, t: (10.000, 0.001)]</title>
</use>
<use transform="translate(24.566984 29.564178), rotate(0)" xlink:href="#item_1">
<title>item, id: 1, transf: [r: 0.000°, t: (24.567, 29.564)]</title>
</use>
<use transform="translate(11.315407 49.572453), rotate(0)" xlink:href="#item_9">
<title>item, id: 9, transf: [r: 0.000°, t: (11.315, 49.572)]</title>
</use>
<use transform="translate(37.58171 51.40575), rotate(-180)" xlink:href="#item_9">
<title>item, id: 9, transf: [r: -180.000°, t: (37.582, 51.406)]</title>
</use>
<use transform="translate(51.46997 59.99998), rotate(-180)" xlink:href="#item_9">
<title>item, id: 9, transf: [r: -180.000°, t: (51.470, 60.000)]</title>
</use>
<use transform="translate(47.454067 15.000167), rotate(0)" xlink:href="#item_4">
<title>item, id: 4, transf: [r: 0.000°, t: (47.454, 15.000)]</title>
</use>
<use transform="translate(25.398148 34.570644), rotate(-180)" xlink:href="#item_4">
<title>item, id: 4, transf: [r: -180.000°, t: (25.398, 34.571)]</title>
</use>
<use transform="translate(9.097326 29.568481), rotate(0)" xlink:href="#item_4">
<title>item, id: 4, transf: [r: 0.000°, t: (9.097, 29.568)]</title>
</use>
<use transform="translate(30.024912 47.56429), rotate(-180)" xlink:href="#item_7">
<title>item, id: 7, transf: [r: -180.000°, t: (30.025, 47.564)]</title>
</use>
<use transform="translate(56.572994 26.419945), rotate(-180)" xlink:href="#item_7">
<title>item, id: 7, transf: [r: -180.000°, t: (56.573, 26.420)]</title>
</use>
<use transform="translate(40.703415 48.428932), rotate(0)" xlink:href="#item_7">
<title>item, id: 7, transf: [r: 0.000°, t: (40.703, 48.429)]</title>
</use>
<use transform="translate(41.023525 54.49033), rotate(-180)" xlink:href="#item_8">
<title>item, id: 8, transf: [r: -180.000°, t: (41.024, 54.490)]</title>
</use>
<use transform="translate(26.975904 51.497063), rotate(0)" xlink:href="#item_8">
<title>item, id: 8, transf: [r: 0.000°, t: (26.976, 51.497)]</title>
</use>
<use transform="translate(0.00014948845 53.331753), rotate(0)" xlink:href="#item_8">
<title>item, id: 8, transf: [r: 0.000°, t: (0.000, 53.332)]</title>
</use>
</g>
<g id="quality_zones"/>
<g id="optionals">
<g id="overlap_lines" transform="translate(0 0), rotate(0)"/>
</g>
<text font-family="monospace" font-size="1.4144143" font-weight="500" x="0" y="-0.70720714">
height: 60.000 | width: 56.577 | usage: 89.392% | final_bench_23
</text>
</svg>