<svg viewBox="-2.8691769 -3.0000007 63.12188 66" xmlns="http://www.w3.org/2000/svg" xmlns:xlink="http://www.w3.org/1999/xlink">
<g id="bin_0">
<path d="M0,0 L57.383526,0 L57.383526,60 L0,60 z" fill="#D3D3D3" stroke="black" stroke-width="0.31560943"/>
<title>bin, id: 0, bbox: [x_min: 0.000, y_min: 0.000, x_max: 57.384, y_max: 60.000]</title>
</g>
<g id="items">
<defs>
<g id="item_0">
<path d="M0,8 L1,7 L7,5 L12,0 L15,3 L10,8 L11,9 L1,9 z" fill="#7A7A7A" fill-opacity="0.5" fill-rule="nonzero" stroke="black" stroke-width="0.15780471"/>
</g>
<g id="item_1">
<path d="M2,12 L0,0 L4,0 L4,1 L5,1 L5,0 L9,0 L9,2 L5,12 z" fill="#7A7A7A" fill-opacity="0.5" fill-rule="nonzero" stroke="black" stroke-width="0.15780471"/>
</g>
<g id="item_2">
<path d="M2,24 L0,18 L0,6 L2,0 L9,0 L11,6 L11,18 L9,24 z" fill="#7A7A7A" fill-opacity="0.5" fill-rule="nonzero" stroke="black" stroke-width="0.15780471"/>
</g>
<g id="item_3">
<path d="M0,15 L0,0 L14,0 L14,15 z" fill="#7A7A7A" fill-opacity="0.5" fill-rule="nonzero" stroke="black" stroke-width="0.15780471"/>
</g>
<g id="item_4">
<path d="M0,0 L9,0 L7,5 L2,5 z" fill="#7A7A7A" fill-opacity="0.5" fill-rule="nonzero" stroke="black" stroke-width="0.15780471"/>
</g>
<g id="item_5">
<path d="M0,32 L1,3 L3,0 L6,1 L11,11 L5,31 L2,33 z" fill="#7A7A7A" fill-opacity="0.5" fill-rule="nonzero" stroke="black" stroke-width="0.15780471"/>
</g>
<g id="item_6">
<path d="M0,3 L5,0 L23,0 L13,5 L1,5 z" fill="#7A7A7A" fill-opacity="0.5" fill-rule="nonzero" stroke="black" stroke-width="0.15780471"/>
</g>
<g id="item_7">
<path d="M1,0 L4,0 L5,6 L4,6 L4,5 L3,4 L2,4 L1,5 L1,6 L0,6 z" fill="#7A7A7A" fill-opacity="0.5" fill-rule="nonzero" stroke="black" stroke-width="0.15780471"/>
</g>
<g id="item_8">
<path d="M0,2 L1,0 L8,0 L6,3 z" fill="#7A7A7A" fill-opacity="0.5" fill-rule="nonzero" stroke="black" stroke-width="0.15780471"/>
</g>
<g id="item_9">
<path d="M0,0 L14,0 L5,6 z" fill="#7A7A7A" fill-opacity="0.5" fill-rule="nonzero" stroke="black" stroke-width="0.15780471"/>
</g>
</defs>
<use transform="translate(0.00015974045 0.0031614304), rotate(0)" xlink:href="#item_5">
<title>item, id: 5, transf: [r: 0.000°, t: (0.000, 0.003)]</title>
</use>
<use transform="translate(15.107822 44.978172), rotate(-180)" xlink:href="#item_5">
<title>item, id: 5, transf: [r: -180.000°, t: (15.108, 44.978)]</title>
</use>
<use transform="translate(57.383255 59.623295), rotate(-180)" xlink:href="#item_5">
<title>item, id: 5, transf: [r: -180.000°, t: (57.383, 59.623)]</title>
</use>
<use transform="translate(36.1007 51.517365), rotate(-180)" xlink:href="#item_2">
<title>item, id: 2, transf: [r: -180.000°, t: (36.101, 51.517)]</title>
</use>
<use transform="translate(25.935036 35.99416), rotate(-180)" xlink:href="#item_2">
<title>item, id: 2, transf: [r: -180.000°, t: (25.935, 35.994)]</title>
</use>
<use transform="translate(25.100616 59.999977), rotate(-180)" xlink:href="#item_2">
<title>item, id: 2, transf: [r: -180.000°, t: (25.101, 60.000)]</title>
</use>
<use transform="translate(14.05192 59.9928), rotate(-180)" xlink:href="#item_3">
<title>item, id: 3, transf: [r: -180.000°, t: (14.052, 59.993)]</title>
</use>
<use transform="translate(57.382484 15.0048895), rotate(-180)" xlink:href="#item_3">
<title>item, id: 3, transf: [r: -180.000°, t: (57.382, 15.005)]</title>
</use>
<use transform="translate(29.382313 0.0020008087), rotate(0)" xlink:href="#item_3">
<title>item, id: 3, transf: [r: 0.000°, t: (29.382, 0.002)]</title>
</use>
<use transform="translate(56.97271 20.005226), rotate(-180)" xlink:href="#item_6">
<title>item, id: 6, transf: [r: -180.000°, t: (56.973, 20.005)]</title>
</use>
<use transform="translate(29.936129 20.007902), rotate(0)" xlink:href="#item_6">
<title>item, id: 6, transf: [r: 0.000°, t: (29.936, 20.008)]</title>
</use>
<use transform="translate(23.980291 54.365585), rotate(0)" xlink:href="#item_6">
<title>item, id: 6, transf: [r: 0.000°, t: (23.980, 54.366)]</title>
</use>
<use transform="translate(13.64144 2.9880252), rotate(0)" xlink:href="#item_0">
<title>item, id: 0, transf: [r: 0.000°, t: (13.641, 2.988)]</title>
</use>
<use transform="translate(40.935432 24.008316), rotate(-180)" xlink:href="#item_0">
<title>item, id: 0, transf: [r: -180.000°, t: (40.935, 24.008)]</title>
</use>
<use transform="translate(42.382473 18.561651), rotate(0)" xlink:href="#item_0">
<title>item, id: 0, transf: [r: 0.000°, t: (42.382, 18.562)]</title>
</use>
<use transform="translate(45.100845 39.559364), rotate(-180)" xlink:href="#item_1">
<title>item, id: 1, transf: [r: -180.000°, t: (45.101, 39.559)]</title>
</use>
<use transform="translate(43.101383 27.561916), rotate(0)" xlink:href="#item_1">
<title>item, id: 1, transf: [r: 0.000°, t: (43.101, 27.562)]</title>
</use>
<use transform="translate(39.499672 39.56444), rotate(0)" xlink:href="#item_1">
<title>item, id: 1, transf: [r: 0.000°, t: (39.500, 39.564)]</title>
</use>
<use transform="translate(8.097498 5.0026784), rotate(0)" xlink:href="#item_9">
<title>item, id: 9, transf: [r: 0.000°, t: (8.097, 5.003)]</title>
</use>
<use transform="translate(52.529865 59.99933), rotate(-180)" xlink:href="#item_9">
<title>item, id: 9, transf: [r: -180.000°, t: (52.530, 59.999)]</title>
</use>
<use transform="translate(43.832542 54.365345), rotate(-180)" xlink:href="#item_9">
<title>item, id: 9, transf: [r: -180.000°, t: (43.833, 54.365)]</title>
</use>
<use transform="translate(22.208403 5.001988), rotate(-180)" xlink:href="#item_4">
<title>item, id: 4, transf: [r: -180.000°, t: (22.208, 5.002)]</title>
</use>
<use transform="translate(9.004793 44.981056), rotate(-180)" xlink:href="#item_4">
<title>item, id: 4, transf: [r: -180.000°, t: (9.005, 44.981)]</title>
</use>
<use transform="translate(6.0394545 0.00030493736), rotate(0)" xlink:href="#item_4">
<title>item, id: 4, transf: [r: 0.000°, t: (6.039, 0.000)]</title>
</use>
<use transform="translate(35.73148 42.114197), rotate(0)" xlink:href="#item_7">
<title>item, id: 7, transf: [r: 0.000°, t: (35.731, 42.114)]</title>
</use>
<use transform="translate(0.059576273 33.979633), rotate(0)" xlink:href="#item_7">
<title>item, id: 7, transf: [r: 0.000°, t: (0.060, 33.980)]</title>
</use>
<use transform="translate(29.37929 16.260408), rotate(-180)" xlink:href="#item_7">
<title>item, id: 7, transf: [r: -180.000°, t: (29.379, 16.260)]</title>
</use>
<use transform="translate(21.20503 0.23550785), rotate(0)" xlink:href="#item_8">
<title>item, id: 8, transf: [r: 0.000°, t: (21.205, 0.236)]</title>
</use>
<use transform="translate(33.619007 25.27558), rotate(0)" xlink:href="#item_8">
<title>item, id: 8, transf: [r: 0.000°, t: (33.619, 25.276)]</title>
</use>
<use transform="translate(33.956894 27.515678), rotate(-180)" xlink:href="#item_8">
<title>item, id: 8, transf: [r: -180.000°, t: (33.957, 27.516)]</title>
</use>
</g>
<g id="quality_zones"/>
<g id="optionals">
<g id="overlap_lines" transform="translate(0 0), rotate(0)"/>
</g>
<text font-family="monospace" font-size="1.4345882" font-weight="500" x="0" y="-0.7172941">
height: 60.000 | width: 57.384 | usage: 88.135% | final_bench_99
</text>
</svg>