<svg viewBox="-2.8447723 -3.0000007 62.58498 66" xmlns="http://www.w3.org/2000/svg" xmlns:xlink="http://www.w3.org/1999/xlink">
<g id="bin_0">
<path d="M0,0 L56.895435,0 L56.895435,60 L0,60 z" fill="#D3D3D3" stroke="black" stroke-width="0.31292492"/>
<title>bin, id: 0, bbox: [x_min: 0.000, y_min: 0.000, x_max: 56.895, y_max: 60.000]</title>
</g>
<g id="items">
<defs>
<g id="item_0">
<path d="M0,8 L1,7 L7,5 L12,0 L15,3 L10,8 L11,9 L1,9 z" fill="#7A7A7A" fill-opacity="0.5" fill-rule="nonzero" stroke="black" stroke-width="0.15646246"/>
</g>
<g id="item_1">
<path d="M2,12 L0,0 L4,0 L4,1 L5,1 L5,0 L9,0 L9,2 L5,12 z" fill="#7A7A7A" fill-opacity="0.5" fill-rule="nonzero" stroke="black" stroke-width="0.15646246"/>
</g>
<g id="item_2">
<path d="M2,24 L0,18 L0,6 L2,0 L9,0 L11,6 L11,18 L9,24 z" fill="#7A7A7A" fill-opacity="0.5" fill-rule="nonzero" stroke="black" stroke-width="0.15646246"/>
</g>
<g id="item_3">
<path d="M0,15 L0,0 L14,0 L14,15 z" fill="#7A7A7A" fill-opacity="0.5" fill-rule="nonzero" stroke="black" stroke-width="0.15646246"/>
</g>
<g id="item_4">
<path d="M0,0 L9,0 L7,5 L2,5 z" fill="#7A7A7A" fill-opacity="0.5" fill-rule="nonzero" stroke="black" stroke-width="0.15646246"/>
</g>
<g id="item_5">
<path d="M0,32 L1,3 L3,0 L6,1 L11,11 L5,31 L2,33 z" fill="#7A7A7A" fill-opacity="0.5" fill-rule="nonzero" stroke="black" stroke-width="0.15646246"/>
</g>
<g id="item_6">
<path d="M0,3 L5,0 L23,0 L13,5 L1,5 z" fill="#7A7A7A" fill-opacity="0.5" fill-rule="nonzero" stroke="black" stroke-width="0.15646246"/>
</g>
<g id="item_7">
<path d="M1,0 L4,0 L5,6 L4,6 L4,5 L3,4 L2,4 L1,5 L1,6 L0,6 z" fill="#7A7A7A" fill-opacity="0.5" fill-rule="nonzero" stroke="black" stroke-width="0.15646246"/>
</g>
<g id="item_8">
<path d="M0,2 L1,0 L8,0 L6,3 z" fill="#7A7A7A" fill-opacity="0.5" fill-rule="nonzero" stroke="black" stroke-width="0.15646246"/>
</g>
<g id="item_9">
<path d="M0,0 L14,0 L5,6 z" fill="#7A7A7A" fill-opacity="0.5" fill-rule="nonzero" stroke="black" stroke-width="0.15646246"/>
</g>
</defs>
<use transform="translate(56.895386 59.729908), rotate(-180)" xlink:href="#item_5">
<title>item, id: 5, transf: [r: -180.000°, t: (56.895, 59.730)]</title>
</use>
<use transform="translate(15.100818 59.999557), rotate(-180)" xlink:href="#item_5">
<title>item, id: 5, transf: [r: -180.000°, t: (15.101, 60.000)]</title>
</use>
<use transform="translate(0.000034332275 15.000147), rotate(0)" xlink:href="#item_5">
<title>item, id: 5, transf: [r: 0.000°, t: (0.000, 15.000)]</title>
</use>
<use transform="translate(56.895203 24.04705), rotate(-180)" xlink:href="#item_2">
<title>item, id: 2, transf: [r: -180.000°, t: (56.895, 24.047)]</title>
</use>
<use transform="translate(39.216034 24.00756), rotate(-180)" xlink:href="#item_2">
<title>item, id: 2, transf: [r: -180.000°, t: (39.216, 24.008)]</title>
</use>
<use transform="translate(14.618202 35.995567), rotate(0)" xlink:href="#item_2">
<title>item, id: 2, transf: [r: 0.000°, t: (14.618, 35.996)]</title>
</use>
<use transform="translate(28.142334 15.000698), rotate(-180)" xlink:href="#item_3">
<title>item, id: 3, transf: [r: -180.000°, t: (28.142, 15.001)]</title>
</use>
<use transform="translate(14.136908 15.000032), rotate(-180)" xlink:href="#item_3">
<title>item, id: 3, transf: [r: -180.000°, t: (14.137, 15.000)]</title>
</use>
<use transform="translate(39.618217 54.77566), rotate(-180)" xlink:href="#item_3">
<title>item, id: 3, transf: [r: -180.000°, t: (39.618, 54.776)]</title>
</use>
<use transform="translate(20.09794 24.012413), rotate(0)" xlink:href="#item_6">
<title>item, id: 6, transf: [r: 0.000°, t: (20.098, 24.012)]</title>
</use>
<use transform="translate(50.023453 59.99982), rotate(-180)" xlink:href="#item_6">
<title>item, id: 6, transf: [r: -180.000°, t: (50.023, 60.000)]</title>
</use>
<use transform="translate(56.014374 29.054901), rotate(-180)" xlink:href="#item_6">
<title>item, id: 6, transf: [r: -180.000°, t: (56.014, 29.055)]</title>
</use>
<use transform="translate(40.600334 38.06214), rotate(-180)" xlink:href="#item_0">
<title>item, id: 0, transf: [r: -180.000°, t: (40.600, 38.062)]</title>
</use>
<use transform="translate(51.10137 38.055977), rotate(-180)" xlink:href="#item_0">
<title>item, id: 0, transf: [r: -180.000°, t: (51.101, 38.056)]</title>
</use>
<use transform="translate(29.10589 30.001568), rotate(-180)" xlink:href="#item_0">
<title>item, id: 0, transf: [r: -180.000°, t: (29.106, 30.002)]</title>
</use>
<use transform="translate(38.24084 0.0005221367), rotate(0)" xlink:href="#item_1">
<title>item, id: 1, transf: [r: 0.000°, t: (38.241, 0.001)]</title>
</use>
<use transform="translate(39.65605 37.513542), rotate(0)" xlink:href="#item_1">
<title>item, id: 1, transf: [r: 0.000°, t: (39.656, 37.514)]</title>
</use>
<use transform="translate(46.886482 24.004745), rotate(-180)" xlink:href="#item_1">
<title>item, id: 1, transf: [r: -180.000°, t: (46.886, 24.005)]</title>
</use>
<use transform="translate(40.03091 39.77514), rotate(-180)" xlink:href="#item_9">
<title>item, id: 9, transf: [r: -180.000°, t: (40.031, 39.775)]</title>
</use>
<use transform="translate(5.1809115 15.003088), rotate(0)" xlink:href="#item_9">
<title>item, id: 9, transf: [r: 0.000°, t: (5.181, 15.003)]</title>
</use>
<use transform="translate(24.200993 21.001144), rotate(-180)" xlink:href="#item_9">
<title>item, id: 9, transf: [r: -180.000°, t: (24.201, 21.001)]</title>
</use>
<use transform="translate(48.529617 54.99973), rotate(-180)" xlink:href="#item_4">
<title>item, id: 4, transf: [r: -180.000°, t: (48.530, 55.000)]</title>
</use>
<use transform="translate(9.038603 59.99805), rotate(-180)" xlink:href="#item_4">
<title>item, id: 4, transf: [r: -180.000°, t: (9.039, 59.998)]</title>
</use>
<use transform="translate(19.64559 29.016834), rotate(0)" xlink:href="#item_4">
<title>item, id: 4, transf: [r: 0.000°, t: (19.646, 29.017)]</title>
</use>
<use transform="translate(0.05727887 48.986668), rotate(0)" xlink:href="#item_7">
<title>item, id: 7, transf: [r: 0.000°, t: (0.057, 48.987)]</title>
</use>
<use transform="translate(20.033176 35.986607), rotate(-180)" xlink:href="#item_7">
<title>item, id: 7, transf: [r: -180.000°, t: (20.033, 35.987)]</title>
</use>
<use transform="translate(28.206728 21.00075), rotate(-180)" xlink:href="#item_7">
<title>item, id: 7, transf: [r: -180.000°, t: (28.207, 21.001)]</title>
</use>
<use transform="translate(24.988428 54.9678), rotate(0)" xlink:href="#item_8">
<title>item, id: 8, transf: [r: 0.000°, t: (24.988, 54.968)]</title>
</use>
<use transform="translate(42.230675 34.18717), rotate(0)" xlink:href="#item_8">
<title>item, id: 8, transf: [r: 0.000°, t: (42.231, 34.187)]</title>
</use>
<use transform="translate(9.76624 21.124773), rotate(0)" xlink:href="#item_8">
<title>item, id: 8, transf: [r: 0.000°, t: (9.766, 21.125)]</title>
</use>
</g>
<g id="quality_zones"/>
<g id="optionals">
<g id="overlap_lines" transform="translate(0 0), rotate(0)"/>
</g>
<text font-family="monospace" font-size="1.4223859" font-weight="500" x="0" y="-0.71119297">
height: 60.000 | width: 56.895 | usage: 88.891% | final_bench_1
</text>
</svg>