<svg viewBox="-2.8535252 -3.0000007 62.777534 66" xmlns="http://www.w3.org/2000/svg" xmlns:xlink="http://www.w3.org/1999/xlink">
<g id="bin_0">
<path d="M0,0 L57.070488,0 L57.070488,60 L0,60 z" fill="#D3D3D3" stroke="black" stroke-width="0.31388766"/>
<title>bin, id: 0, bbox: [x_min: 0.000, y_min: 0.000, x_max: 57.070, y_max: 60.000]</title>
</g>
<g id="items">
<defs>
<g id="item_0">
<path d="M0,8 L1,7 L7,5 L12,0 L15,3 L10,8 L11,9 L1,9 z" fill="#7A7A7A" fill-opacity="0.5" fill-rule="nonzero" stroke="black" stroke-width="0.15694383"/>
</g>
<g id="item_1">
<path d="M2,12 L0,0 L4,0 L4,1 L5,1 L5,0 L9,0 L9,2 L5,12 z" fill="#7A7A7A" fill-opacity="0.5" fill-rule="nonzero" stroke="black" stroke-width="0.15694383"/>
</g>
<g id="item_2">
<path d="M2,24 L0,18 L0,6 L2,0 L9,0 L11,6 L11,18 L9,24 z" fill="#7A7A7A" fill-opacity="0.5" fill-rule="nonzero" stroke="black" stroke-width="0.15694383"/>
</g>
<g id="item_3">
<path d="M0,15 L0,0 L14,0 L14,15 z" fill="#7A7A7A" fill-opacity="0.5" fill-rule="nonzero" stroke="black" stroke-width="0.15694383"/>
</g>
<g id="item_4">
<path d="M0,0 L9,0 L7,5 L2,5 z" fill="#7A7A7A" fill-opacity="0.5" fill-rule="nonzero" stroke="black" stroke-width="0.15694383"/>
</g>
<g id="item_5">
<path d="M0,32 L1,3 L3,0 L6,1 L11,11 L5,31 L2,33 z" fill="#7A7A7A" fill-opacity="0.5" fill-rule="nonzero" stroke="black" stroke-width="0.15694383"/>
</g>
<g id="item_6">
<path d="M0,3 L5,0 L23,0 L13,5 L1,5 z" fill="#7A7A7A" fill-opacity="0.5" fill-rule="nonzero" stroke="black" stroke-width="0.15694383"/>
</g>
<g id="item_7">
<path d="M1,0 L4,0 L5,6 L4,6 L4,5 L3,4 L2,4 L1,5 L1,6 L0,6 z" fill="#7A7A7A" fill-opacity="0.5" fill-rule="nonzero" stroke="black" stroke-width="0.15694383"/>
</g>
<g id="item_8">
<path d="M0,2 L1,0 L8,0 L6,3 z" fill="#7A7A7A" fill-opacity="0.5" fill-rule="nonzero" stroke="black" stroke-width="0.15694383"/>
</g>
<g id="item_9">
<path d="M0,0 L14,0 L5,6 z" fill="#7A7A7A" fill-opacity="0.5" fill-rule="nonzero" stroke="black" stroke-width="0.15694383"/>
</g>
</defs>
<use transform="translate(17.255287 41.500694), rotate(-180)" xlink:href="#item_5">
<title>item, id: 5, transf: [r: -180.000°, t: (17.255, 41.501)]</title>
</use>
<use transform="translate(16.286842 5.995638), rotate(0)" xlink:href="#item_5">
<title>item, id: 5, transf: [r: 0.000°, t: (16.287, 5.996)]</title>
</use>
<use transform="translate(0.0031757355 2.999607), rotate(0)" xlink:href="#item_5">
<title>item, id: 5, transf: [r: 0.000°, t: (0.003, 3.000)]</title>
</use>
<use transform="translate(57.047684 39.97824), rotate(-180)" xlink:href="#item_2">
<title>item, id: 2, transf: [r: -180.000°, t: (57.048, 39.978)]</title>
</use>
<use transform="translate(11.000021 59.99998), rotate(-180)" xlink:href="#item_2">
<title>item, id: 2, transf: [r: -180.000°, t: (11.000, 60.000)]</title>
</use>
<use transform="translate(28.364548 15.995487), rotate(0)" xlink:href="#item_2">
<title>item, id: 2, transf: [r: 0.000°, t: (28.365, 15.995)]</title>
</use>
<use transform="translate(29.069782 44.99761), rotate(0)" xlink:href="#item_3">
<title>item, id: 3, transf: [r: 0.000°, t: (29.070, 44.998)]</title>
</use>
<use transform="translate(15.069746 44.999565), rotate(0)" xlink:href="#item_3">
<title>item, id: 3, transf: [r: 0.000°, t: (15.070, 45.000)]</title>
</use>
<use transform="translate(43.070473 44.999313), rotate(0)" xlink:href="#item_3">
<title>item, id: 3, transf: [r: 0.000°, t: (43.070, 44.999)]</title>
</use>
<use transform="translate(21.310083 0.00073337555), rotate(0)" xlink:href="#item_6">
<title>item, id: 6, transf: [r: 0.000°, t: (21.310, 0.001)]</title>
</use>
<use transform="translate(57.07048 5.120701), rotate(-180)" xlink:href="#item_6">
<title>item, id: 6, transf: [r: -180.000°, t: (57.070, 5.121)]</title>
</use>
<use transform="translate(49.26336 44.996864), rotate(-180)" xlink:href="#item_6">
<title>item, id: 6, transf: [r: -180.000°, t: (49.263, 44.997)]</title>
</use>
<use transform="translate(40.989357 17.35968), rotate(-180)" xlink:href="#item_0">
<title>item, id: 0, transf: [r: -180.000°, t: (40.989, 17.360)]</title>
</use>
<use transform="translate(42.06484 6.8394246), rotate(0)" xlink:href="#item_0">
<title>item, id: 0, transf: [r: 0.000°, t: (42.065, 6.839)]</title>
</use>
<use transform="translate(31.515694 6.835958), rotate(0)" xlink:href="#item_0">
<title>item, id: 0, transf: [r: 0.000°, t: (31.516, 6.836)]</title>
</use>
<use transform="translate(47.03301 39.994087), rotate(-180)" xlink:href="#item_1">
<title>item, id: 1, transf: [r: -180.000°, t: (47.033, 39.994)]</title>
</use>
<use transform="translate(29.480022 41.71875), rotate(-180)" xlink:href="#item_1">
<title>item, id: 1, transf: [r: -180.000°, t: (29.480, 41.719)]</title>
</use>
<use transform="translate(38.342266 15.841264), rotate(0)" xlink:href="#item_1">
<title>item, id: 1, transf: [r: 0.000°, t: (38.342, 15.841)]</title>
</use>
<use transform="translate(6.5045896 5.0009108), rotate(0)" xlink:href="#item_9">
<title>item, id: 9, transf: [r: 0.000°, t: (6.505, 5.001)]</title>
</use>
<use transform="translate(42.60814 5.1336856), rotate(0)" xlink:href="#item_9">
<title>item, id: 9, transf: [r: 0.000°, t: (42.608, 5.134)]</title>
</use>
<use transform="translate(20.730385 5.12186), rotate(0)" xlink:href="#item_9">
<title>item, id: 9, transf: [r: 0.000°, t: (20.730, 5.122)]</title>
</use>
<use transform="translate(15.508552 5.000039), rotate(-180)" xlink:href="#item_4">
<title>item, id: 4, transf: [r: -180.000°, t: (15.509, 5.000)]</title>
</use>
<use transform="translate(57.06398 44.99873), rotate(-180)" xlink:href="#item_4">
<title>item, id: 4, transf: [r: -180.000°, t: (57.064, 44.999)]</title>
</use>
<use transform="translate(13.50984 0.00069737434), rotate(0)" xlink:href="#item_4">
<title>item, id: 4, transf: [r: 0.000°, t: (13.510, 0.001)]</title>
</use>
<use transform="translate(15.7847595 46.708336), rotate(-180)" xlink:href="#item_7">
<title>item, id: 7, transf: [r: -180.000°, t: (15.785, 46.708)]</title>
</use>
<use transform="translate(10.029688 53.92717), rotate(0)" xlink:href="#item_7">
<title>item, id: 7, transf: [r: 0.000°, t: (10.030, 53.927)]</title>
</use>
<use transform="translate(15.089825 38.995846), rotate(0)" xlink:href="#item_7">
<title>item, id: 7, transf: [r: 0.000°, t: (15.090, 38.996)]</title>
</use>
<use transform="translate(34.141342 5.3824925), rotate(0)" xlink:href="#item_8">
<title>item, id: 8, transf: [r: 0.000°, t: (34.141, 5.382)]</title>
</use>
<use transform="translate(0.0014753342 0.49854147), rotate(0)" xlink:href="#item_8">
<title>item, id: 8, transf: [r: 0.000°, t: (0.001, 0.499)]</title>
</use>
<use transform="translate(20.585953 41.831234), rotate(0)" xlink:href="#item_8">
<title>item, id: 8, transf: [r: 0.000°, t: (20.586, 41.831)]</title>
</use>
</g>
<g id="quality_zones"/>
<g id="optionals">
<g id="overlap_lines" transform="translate(0 0), rotate(0)"/>
</g>
<text font-family="monospace" font-size="1.4267622" font-weight="500" x="0" y="-0.7133811">
height: 60.000 | width: 57.070 | usage: 88.618% | final_bench_11
</text>
</svg>