<svg viewBox="-2.8452594 -3.0000007 62.595695 66" xmlns="http://www.w3.org/2000/svg" xmlns:xlink="http://www.w3.org/1999/xlink">
<g id="bin_0">
<path d="M0,0 L56.905174,0 L56.905174,60 L0,60 z" fill="#D3D3D3" stroke="black" stroke-width="0.31297848"/>
<title>bin, id: 0, bbox: [x_min: 0.000, y_min: 0.000, x_max: 56.905, y_max: 60.000]</title>
</g>
<g id="items">
<defs>
<g id="item_0">
<path d="M0,8 L1,7 L7,5 L12,0 L15,3 L10,8 L11,9 L1,9 z" fill="#7A7A7A" fill-opacity="0.5" fill-rule="nonzero" stroke="black" stroke-width="0.15648924"/>
</g>
<g id="item_1">
<path d="M2,12 L0,0 L4,0 L4,1 L5,1 L5,0 L9,0 L9,2 L5,12 z" fill="#7A7A7A" fill-opacity="0.5" fill-rule="nonzero" stroke="black" stroke-width="0.15648924"/>
</g>
<g id="item_2">
<path d="M2,24 L0,18 L0,6 L2,0 L9,0 L11,6 L11,18 L9,24 z" fill="#7A7A7A" fill-opacity="0.5" fill-rule="nonzero" stroke="black" stroke-width="0.15648924"/>
</g>
<g id="item_3">
<path d="M0,15 L0,0 L14,0 L14,15 z" fill="#7A7A7A" fill-opacity="0.5" fill-rule="nonzero" stroke="black" stroke-width="0.15648924"/>
</g>
<g id="item_4">
<path d="M0,0 L9,0 L7,5 L2,5 z" fill="#7A7A7A" fill-opacity="0.5" fill-rule="nonzero" stroke="black" stroke-width="0.15648924"/>
</g>
<g id="item_5">
<path d="M0,32 L1,3 L3,0 L6,1 L11,11 L5,31 L2,33 z" fill="#7A7A7A" fill-opacity="0.5" fill-rule="nonzero" stroke="black" stroke-width="0.15648924"/>
</g>
<g id="item_6">
<path d="M0,3 L5,0 L23,0 L13,5 L1,5 z" fill="#7A7A7A" fill-opacity="0.5" fill-rule="nonzero" stroke="black" stroke-width="0.15648924"/>
</g>
<g id="item_7">
<path d="M1,0 L4,0 L5,6 L4,6 L4,5 L3,4 L2,4 L1,5 L1,6 L0,6 z" fill="#7A7A7A" fill-opacity="0.5" fill-rule="nonzero" stroke="black" stroke-width="0.15648924"/>
</g>
<g id="item_8">
<path d="M0,2 L1,0 L8,0 L6,3 z" fill="#7A7A7A" fill-opacity="0.5" fill-rule="nonzero" stroke="black" stroke-width="0.15648924"/>
</g>
<g id="item_9">
<path d="M0,0 L14,0 L5,6 z" fill="#7A7A7A" fill-opacity="0.5" fill-rule="nonzero" stroke="black" stroke-width="0.15648924"/>
</g>
</defs>
<use transform="translate(39.972534 20.632755), rotate(0)" xlink:href="#item_5">
<title>item, id: 5, transf: [r: 0.000°, t: (39.973, 20.633)]</title>
</use>
<use transform="translate(56.904655 59.589996), rotate(-180)" xlink:href="#item_5">
<title>item, id: 5, transf: [r: -180.000°, t: (56.905, 59.590)]</title>
</use>
<use transform="translate(40.93966 56.57454), rotate(-180)" xlink:href="#item_5">
<title>item, id: 5, transf: [r: -180.000°, t: (40.940, 56.575)]</title>
</use>
<use transform="translate(0.0006418228 30.811123), rotate(0)" xlink:href="#item_2">
<title>item, id: 2, transf: [r: 0.000°, t: (0.001, 30.811)]</title>
</use>
<use transform="translate(36.00094 24.067812), rotate(-180)" xlink:href="#item_2">
<title>item, id: 2, transf: [r: -180.000°, t: (36.001, 24.068)]</title>
</use>
<use transform="translate(25.000614 24.000484), rotate(-180)" xlink:href="#item_2">
<title>item, id: 2, transf: [r: -180.000°, t: (25.001, 24.000)]</title>
</use>
<use transform="translate(42.90471 0.17399883), rotate(0)" xlink:href="#item_3">
<title>item, id: 3, transf: [r: 0.000°, t: (42.905, 0.174)]</title>
</use>
<use transform="translate(14.000172 30.00096), rotate(-180)" xlink:href="#item_3">
<title>item, id: 3, transf: [r: -180.000°, t: (14.000, 30.001)]</title>
</use>
<use transform="translate(14.000063 15.000061), rotate(-180)" xlink:href="#item_3">
<title>item, id: 3, transf: [r: -180.000°, t: (14.000, 15.000)]</title>
</use>
<use transform="translate(0.003334999 54.822853), rotate(0)" xlink:href="#item_6">
<title>item, id: 6, transf: [r: 0.000°, t: (0.003, 54.823)]</title>
</use>
<use transform="translate(35.65076 59.999977), rotate(-180)" xlink:href="#item_6">
<title>item, id: 6, transf: [r: -180.000°, t: (35.651, 60.000)]</title>
</use>
<use transform="translate(14.363949 24.068018), rotate(0)" xlink:href="#item_6">
<title>item, id: 6, transf: [r: 0.000°, t: (14.364, 24.068)]</title>
</use>
<use transform="translate(19.611996 26.99381), rotate(0)" xlink:href="#item_0">
<title>item, id: 0, transf: [r: 0.000°, t: (19.612, 26.994)]</title>
</use>
<use transform="translate(33.60916 50.999805), rotate(0)" xlink:href="#item_0">
<title>item, id: 0, transf: [r: 0.000°, t: (33.609, 51.000)]</title>
</use>
<use transform="translate(49.97228 24.174768), rotate(-180)" xlink:href="#item_0">
<title>item, id: 0, transf: [r: -180.000°, t: (49.972, 24.175)]</title>
</use>
<use transform="translate(10.869305 36.01024), rotate(0)" xlink:href="#item_1">
<title>item, id: 1, transf: [r: 0.000°, t: (10.869, 36.010)]</title>
</use>
<use transform="translate(25.348085 48.819786), rotate(-180)" xlink:href="#item_1">
<title>item, id: 1, transf: [r: -180.000°, t: (25.348, 48.820)]</title>
</use>
<use transform="translate(23.212658 35.997654), rotate(0)" xlink:href="#item_1">
<title>item, id: 1, transf: [r: 0.000°, t: (23.213, 35.998)]</title>
</use>
<use transform="translate(14.000292 29.06806), rotate(0)" xlink:href="#item_9">
<title>item, id: 9, transf: [r: 0.000°, t: (14.000, 29.068)]</title>
</use>
<use transform="translate(34.388897 54.774887), rotate(-180)" xlink:href="#item_9">
<title>item, id: 9, transf: [r: -180.000°, t: (34.389, 54.775)]</title>
</use>
<use transform="translate(15.31391 48.821667), rotate(0)" xlink:href="#item_9">
<title>item, id: 9, transf: [r: 0.000°, t: (15.314, 48.822)]</title>
</use>
<use transform="translate(17.996233 54.822243), rotate(-180)" xlink:href="#item_4">
<title>item, id: 4, transf: [r: -180.000°, t: (17.996, 54.822)]</title>
</use>
<use transform="translate(46.817955 22.31429), rotate(0)" xlink:href="#item_4">
<title>item, id: 4, transf: [r: 0.000°, t: (46.818, 22.314)]</title>
</use>
<use transform="translate(33.974167 0.0002503395), rotate(0)" xlink:href="#item_4">
<title>item, id: 4, transf: [r: 0.000°, t: (33.974, 0.000)]</title>
</use>
<use transform="translate(37.900784 5.0006127), rotate(0)" xlink:href="#item_7">
<title>item, id: 7, transf: [r: 0.000°, t: (37.901, 5.001)]</title>
</use>
<use transform="translate(41.01115 15.134438), rotate(-180)" xlink:href="#item_7">
<title>item, id: 7, transf: [r: -180.000°, t: (41.011, 15.134)]</title>
</use>
<use transform="translate(10.731197 30.00158), rotate(0)" xlink:href="#item_7">
<title>item, id: 7, transf: [r: 0.000°, t: (10.731, 30.002)]</title>
</use>
<use transform="translate(56.59856 18.527596), rotate(-180)" xlink:href="#item_8">
<title>item, id: 8, transf: [r: -180.000°, t: (56.599, 18.528)]</title>
</use>
<use transform="translate(56.904755 22.314041), rotate(-180)" xlink:href="#item_8">
<title>item, id: 8, transf: [r: -180.000°, t: (56.905, 22.314)]</title>
</use>
<use transform="translate(43.28803 18.736706), rotate(0)" xlink:href="#item_8">
<title>item, id: 8, transf: [r: 0.000°, t: (43.288, 18.737)]</title>
</use>
</g>
<g id="quality_zones"/>
<g id="optionals">
<g id="overlap_lines" transform="translate(0 0), rotate(0)"/>
</g>
<text font-family="monospace" font-size="1.4226294" font-weight="500" x="0" y="-0.7113147">
height: 60.000 | width: 56.905 | usage: 88.876% | final_bench_66
</text>
</svg>