<svg viewBox="-2.847639 -3.0000007 62.64805 66" xmlns="http://www.w3.org/2000/svg" xmlns:xlink="http://www.w3.org/1999/xlink">
<g id="bin_0">
<path d="M0,0 L56.952766,0 L56.952766,60 L0,60 z" fill="#D3D3D3" stroke="black" stroke-width="0.31324026"/>
<title>bin, id: 0, bbox: [x_min: 0.000, y_min: 0.000, x_max: 56.953, y_max: 60.000]</title>
</g>
<g id="items">
<defs>
<g id="item_0">
<path d="M0,8 L1,7 L7,5 L12,0 L15,3 L10,8 L11,9 L1,9 z" fill="#7A7A7A" fill-opacity="0.5" fill-rule="nonzero" stroke="black" stroke-width="0.15662013"/>
</g>
<g id="item_1">
<path d="M2,12 L0,0 L4,0 L4,1 L5,1 L5,0 L9,0 L9,2 L5,12 z" fill="#7A7A7A" fill-opacity="0.5" fill-rule="nonzero" stroke="black" stroke-width="0.15662013"/>
</g>
<g id="item_2">
<path d="M2,24 L0,18 L0,6 L2,0 L9,0 L11,6 L11,18 L9,24 z" fill="#7A7A7A" fill-opacity="0.5" fill-rule="nonzero" stroke="black" stroke-width="0.15662013"/>
</g>
<g id="item_3">
<path d="M0,15 L0,0 L14,0 L14,15 z" fill="#7A7A7A" fill-opacity="0.5" fill-rule="nonzero" stroke="black" stroke-width="0.15662013"/>
</g>
<g id="item_4">
<path d="M0,0 L9,0 L7,5 L2,5 z" fill="#7A7A7A" fill-opacity="0.5" fill-rule="nonzero" stroke="black" stroke-width="0.15662013"/>
</g>
<g id="item_5">
<path d="M0,32 L1,3 L3,0 L6,1 L11,11 L5,31 L2,33 z" fill="#7A7A7A" fill-opacity="0.5" fill-rule="nonzero" stroke="black" stroke-width="0.15662013"/>
</g>
<g id="item_6">
<path d="M0,3 L5,0 L23,0 L13,5 L1,5 z" fill="#7A7A7A" fill-opacity="0.5" fill-rule="nonzero" stroke="black" stroke-width="0.15662013"/>
</g>
<g id="item_7">
<path d="M1,0 L4,0 L5,6 L4,6 L4,5 L3,4 L2,4 L1,5 L1,6 L0,6 z" fill="#7A7A7A" fill-opacity="0.5" fill-rule="nonzero" stroke="black" stroke-width="0.15662013"/>
</g>
<g id="item_8">
<path d="M0,2 L1,0 L8,0 L6,3 z" fill="#7A7A7A" fill-opacity="0.5" fill-rule="nonzero" stroke="black" stroke-width="0.15662013"/>
</g>
<g id="item_9">
<path d="M0,0 L14,0 L5,6 z" fill="#7A7A7A" fill-opacity="0.5" fill-rule="nonzero" stroke="black" stroke-width="0.15662013"/>
</g>
</defs>
<use transform="translate(27.05637 15.218227), rotate(0)" xlink:href="#item_5">
<title>item, id: 5, transf: [r: 0.000°, t: (27.056, 15.218)]</title>
</use>
<use transform="translate(42.95266 57.56757), rotate(-180)" xlink:href="#item_5">
<title>item, id: 5, transf: [r: -180.000°, t: (42.953, 57.568)]</title>
</use>
<use transform="translate(28.124271 48.231743), rotate(-180)" xlink:href="#item_5">
<title>item, id: 5, transf: [r: -180.000°, t: (28.124, 48.232)]</title>
</use>
<use transform="translate(34.951736 0.005364418), rotate(0)" xlink:href="#item_2">
<title>item, id: 2, transf: [r: 0.000°, t: (34.952, 0.005)]</title>
</use>
<use transform="translate(45.952244 0.35764027), rotate(0)" xlink:href="#item_2">
<title>item, id: 2, transf: [r: 0.000°, t: (45.952, 0.358)]</title>
</use>
<use transform="translate(11.000793 24.00518), rotate(-180)" xlink:href="#item_2">
<title>item, id: 2, transf: [r: -180.000°, t: (11.001, 24.005)]</title>
</use>
<use transform="translate(14.000366 54.992657), rotate(-180)" xlink:href="#item_3">
<title>item, id: 3, transf: [r: -180.000°, t: (14.000, 54.993)]</title>
</use>
<use transform="translate(56.952686 39.361526), rotate(-180)" xlink:href="#item_3">
<title>item, id: 3, transf: [r: -180.000°, t: (56.953, 39.362)]</title>
</use>
<use transform="translate(56.49326 54.36623), rotate(-180)" xlink:href="#item_3">
<title>item, id: 3, transf: [r: -180.000°, t: (56.493, 54.366)]</title>
</use>
<use transform="translate(36.000458 59.99989), rotate(-180)" xlink:href="#item_6">
<title>item, id: 6, transf: [r: -180.000°, t: (36.000, 60.000)]</title>
</use>
<use transform="translate(34.784676 14.678883), rotate(-180)" xlink:href="#item_6">
<title>item, id: 6, transf: [r: -180.000°, t: (34.785, 14.679)]</title>
</use>
<use transform="translate(0.0000104904175 54.999928), rotate(0)" xlink:href="#item_6">
<title>item, id: 6, transf: [r: 0.000°, t: (0.000, 55.000)]</title>
</use>
<use transform="translate(32.400665 9.000082), rotate(-180)" xlink:href="#item_0">
<title>item, id: 0, transf: [r: -180.000°, t: (32.401, 9.000)]</title>
</use>
<use transform="translate(20.727901 0.67386866), rotate(0)" xlink:href="#item_0">
<title>item, id: 0, transf: [r: 0.000°, t: (20.728, 0.674)]</title>
</use>
<use transform="translate(19.249813 38.138855), rotate(-180)" xlink:href="#item_0">
<title>item, id: 0, transf: [r: -180.000°, t: (19.250, 38.139)]</title>
</use>
<use transform="translate(10.000175 0.0011968613), rotate(0)" xlink:href="#item_1">
<title>item, id: 1, transf: [r: 0.000°, t: (10.000, 0.001)]</title>
</use>
<use transform="translate(16.74967 29.133297), rotate(-180)" xlink:href="#item_1">
<title>item, id: 1, transf: [r: -180.000°, t: (16.750, 29.133)]</title>
</use>
<use transform="translate(14.343687 14.682618), rotate(0)" xlink:href="#item_1">
<title>item, id: 1, transf: [r: 0.000°, t: (14.344, 14.683)]</title>
</use>
<use transform="translate(18.480577 39.990997), rotate(-180)" xlink:href="#item_9">
<title>item, id: 9, transf: [r: -180.000°, t: (18.481, 39.991)]</title>
</use>
<use transform="translate(18.317444 48.23248), rotate(0)" xlink:href="#item_9">
<title>item, id: 9, transf: [r: 0.000°, t: (18.317, 48.232)]</title>
</use>
<use transform="translate(36.16652 54.999866), rotate(-180)" xlink:href="#item_9">
<title>item, id: 9, transf: [r: -180.000°, t: (36.167, 55.000)]</title>
</use>
<use transform="translate(47.952755 54.3695), rotate(0)" xlink:href="#item_4">
<title>item, id: 4, transf: [r: 0.000°, t: (47.953, 54.369)]</title>
</use>
<use transform="translate(0.000081539154 24.00523), rotate(0)" xlink:href="#item_4">
<title>item, id: 4, transf: [r: 0.000°, t: (0.000, 24.005)]</title>
</use>
<use transform="translate(50.20323 59.999733), rotate(-180)" xlink:href="#item_4">
<title>item, id: 4, transf: [r: -180.000°, t: (50.203, 60.000)]</title>
</use>
<use transform="translate(14.000673 46.33396), rotate(0)" xlink:href="#item_7">
<title>item, id: 7, transf: [r: 0.000°, t: (14.001, 46.334)]</title>
</use>
<use transform="translate(0.000094890594 33.642292), rotate(0)" xlink:href="#item_7">
<title>item, id: 7, transf: [r: 0.000°, t: (0.000, 33.642)]</title>
</use>
<use transform="translate(14.551954 40.08779), rotate(0)" xlink:href="#item_7">
<title>item, id: 7, transf: [r: 0.000°, t: (14.552, 40.088)]</title>
</use>
<use transform="translate(42.004642 59.99502), rotate(-180)" xlink:href="#item_8">
<title>item, id: 8, transf: [r: -180.000°, t: (42.005, 59.995)]</title>
</use>
<use transform="translate(21.995792 54.999874), rotate(-180)" xlink:href="#item_8">
<title>item, id: 8, transf: [r: -180.000°, t: (21.996, 55.000)]</title>
</use>
<use transform="translate(0.46983933 29.614021), rotate(0)" xlink:href="#item_8">
<title>item, id: 8, transf: [r: 0.000°, t: (0.470, 29.614)]</title>
</use>
</g>
<g id="quality_zones"/>
<g id="optionals">
<g id="overlap_lines" transform="translate(0 0), rotate(0)"/>
</g>
<text font-family="monospace" font-size="1.4238192" font-weight="500" x="0" y="-0.7119096">
height: 60.000 | width: 56.953 | usage: 88.802% | final_bench_2
</text>
</svg>