<svg viewBox="-2.8373117 -3.0000007 62.42084 66" xmlns="http://www.w3.org/2000/svg" xmlns:xlink="http://www.w3.org/1999/xlink">
<g id="bin_0">
<path d="M0,0 L56.74622,0 L56.74622,60 L0,60 z" fill="#D3D3D3" stroke="black" stroke-width="0.31210423"/>
<title>bin, id: 0, bbox: [x_min: 0.000, y_min: 0.000, x_max: 56.746, y_max: 60.000]</title>
</g>
<g id="items">
<defs>
<g id="item_0">
<path d="M0,8 L1,7 L7,5 L12,0 L15,3 L10,8 L11,9 L1,9 z" fill="#7A7A7A" fill-opacity="0.5" fill-rule="nonzero" stroke="black" stroke-width="0.15605211"/>
</g>
<g id="item_1">
<path d="M2,12 L0,0 L4,0 L4,1 L5,1 L5,0 L9,0 L9,2 L5,12 z" fill="#7A7A7A" fill-opacity="0.5" fill-rule="nonzero" stroke="black" stroke-width="0.15605211"/>
</g>
<g id="item_2">
<path d="M2,24 L0,18 L0,6 L2,0 L9,0 L11,6 L11,18 L9,24 z" fill="#7A7A7A" fill-opacity="0.5" fill-rule="nonzero" stroke="black" stroke-width="0.15605211"/>
</g>
<g id="item_3">
<path d="M0,15 L0,0 L14,0 L14,15 z" fill="#7A7A7A" fill-opacity="0.5" fill-rule="nonzero" stroke="black" stroke-width="0.15605211"/>
</g>
<g id="item_4">
<path d="M0,0 L9,0 L7,5 L2,5 z" fill="#7A7A7A" fill-opacity="0.5" fill-rule="nonzero" stroke="black" stroke-width="0.15605211"/>
</g>
<g id="item_5">
<path d="M0,32 L1,3 L3,0 L6,1 L11,11 L5,31 L2,33 z" fill="#7A7A7A" fill-opacity="0.5" fill-rule="nonzero" stroke="black" stroke-width="0.15605211"/>
</g>
<g id="item_6">
<path d="M0,3 L5,0 L23,0 L13,5 L1,5 z" fill="#7A7A7A" fill-opacity="0.5" fill-rule="nonzero" stroke="black" stroke-width="0.15605211"/>
</g>
<g id="item_7">
<path d="M1,0 L4,0 L5,6 L4,6 L4,5 L3,4 L2,4 L1,5 L1,6 L0,6 z" fill="#7A7A7A" fill-opacity="0.5" fill-rule="nonzero" stroke="black" stroke-width="0.15605211"/>
</g>
<g id="item_8">
<path d="M0,2 L1,0 L8,0 L6,3 z" fill="#7A7A7A" fill-opacity="0.5" fill-rule="nonzero" stroke="black" stroke-width="0.15605211"/>
</g>
<g id="item_9">
<path d="M0,0 L14,0 L5,6 z" fill="#7A7A7A" fill-opacity="0.5" fill-rule="nonzero" stroke="black" stroke-width="0.15605211"/>
</g>
</defs>
<use transform="translate(42.745514 59.99623), rotate(-180)" xlink:href="#item_5">
<title>item, id: 5, transf: [r: -180.000°, t: (42.746, 59.996)]</title>
</use>
<use transform="translate(28.515184 57.959675), rotate(-180)" xlink:href="#item_5">
<title>item, id: 5, transf: [r: -180.000°, t: (28.515, 57.960)]</title>
</use>
<use transform="translate(27.809605 14.448326), rotate(0)" xlink:href="#item_5">
<title>item, id: 5, transf: [r: 0.000°, t: (27.810, 14.448)]</title>
</use>
<use transform="translate(11.000843 14.001539), rotate(0)" xlink:href="#item_2">
<title>item, id: 2, transf: [r: 0.000°, t: (11.001, 14.002)]</title>
</use>
<use transform="translate(0.0001821518 11.996178), rotate(0)" xlink:href="#item_2">
<title>item, id: 2, transf: [r: 0.000°, t: (0.000, 11.996)]</title>
</use>
<use transform="translate(11.000004 59.99765), rotate(-180)" xlink:href="#item_2">
<title>item, id: 2, transf: [r: -180.000°, t: (11.000, 59.998)]</title>
</use>
<use transform="translate(42.20326 44.999077), rotate(0)" xlink:href="#item_3">
<title>item, id: 3, transf: [r: 0.000°, t: (42.203, 44.999)]</title>
</use>
<use transform="translate(42.745724 14.993845), rotate(0)" xlink:href="#item_3">
<title>item, id: 3, transf: [r: 0.000°, t: (42.746, 14.994)]</title>
</use>
<use transform="translate(56.745506 44.99808), rotate(-180)" xlink:href="#item_3">
<title>item, id: 3, transf: [r: -180.000°, t: (56.746, 44.998)]</title>
</use>
<use transform="translate(16.576057 7.917932), rotate(0)" xlink:href="#item_6">
<title>item, id: 6, transf: [r: 0.000°, t: (16.576, 7.918)]</title>
</use>
<use transform="translate(13.0109005 0.00006151199), rotate(0)" xlink:href="#item_6">
<title>item, id: 6, transf: [r: 0.000°, t: (13.011, 0.000)]</title>
</use>
<use transform="translate(33.745895 0.00002527237), rotate(0)" xlink:href="#item_6">
<title>item, id: 6, transf: [r: 0.000°, t: (33.746, 0.000)]</title>
</use>
<use transform="translate(0.00069618225 2.991529), rotate(0)" xlink:href="#item_0">
<title>item, id: 0, transf: [r: 0.000°, t: (0.001, 2.992)]</title>
</use>
<use transform="translate(15.095722 9.05695), rotate(-180)" xlink:href="#item_0">
<title>item, id: 0, transf: [r: -180.000°, t: (15.096, 9.057)]</title>
</use>
<use transform="translate(25.019186 14.0002), rotate(-180)" xlink:href="#item_0">
<title>item, id: 0, transf: [r: -180.000°, t: (25.019, 14.000)]</title>
</use>
<use transform="translate(10.335987 38.004784), rotate(0)" xlink:href="#item_1">
<title>item, id: 1, transf: [r: 0.000°, t: (10.336, 38.005)]</title>
</use>
<use transform="translate(56.74613 14.990147), rotate(-180)" xlink:href="#item_1">
<title>item, id: 1, transf: [r: -180.000°, t: (56.746, 14.990)]</title>
</use>
<use transform="translate(20.821005 12.918111), rotate(0)" xlink:href="#item_1">
<title>item, id: 1, transf: [r: 0.000°, t: (20.821, 12.918)]</title>
</use>
<use transform="translate(37.57655 59.99494), rotate(-180)" xlink:href="#item_9">
<title>item, id: 9, transf: [r: -180.000°, t: (37.577, 59.995)]</title>
</use>
<use transform="translate(37.17659 7.917507), rotate(-180)" xlink:href="#item_9">
<title>item, id: 9, transf: [r: -180.000°, t: (37.177, 7.918)]</title>
</use>
<use transform="translate(43.82919 14.309483), rotate(-180)" xlink:href="#item_9">
<title>item, id: 9, transf: [r: -180.000°, t: (43.829, 14.309)]</title>
</use>
<use transform="translate(40.739536 8.001332), rotate(0)" xlink:href="#item_4">
<title>item, id: 4, transf: [r: 0.000°, t: (40.740, 8.001)]</title>
</use>
<use transform="translate(33.741085 14.310849), rotate(0)" xlink:href="#item_4">
<title>item, id: 4, transf: [r: 0.000°, t: (33.741, 14.311)]</title>
</use>
<use transform="translate(23.534561 59.999847), rotate(-180)" xlink:href="#item_4">
<title>item, id: 4, transf: [r: -180.000°, t: (23.535, 60.000)]</title>
</use>
<use transform="translate(42.745346 25.318472), rotate(-180)" xlink:href="#item_7">
<title>item, id: 7, transf: [r: -180.000°, t: (42.745, 25.318)]</title>
</use>
<use transform="translate(27.564653 47.989635), rotate(0)" xlink:href="#item_7">
<title>item, id: 7, transf: [r: 0.000°, t: (27.565, 47.990)]</title>
</use>
<use transform="translate(16.000114 58.833576), rotate(-180)" xlink:href="#item_7">
<title>item, id: 7, transf: [r: -180.000°, t: (16.000, 58.834)]</title>
</use>
<use transform="translate(36.413998 5.000953), rotate(0)" xlink:href="#item_8">
<title>item, id: 8, transf: [r: 0.000°, t: (36.414, 5.001)]</title>
</use>
<use transform="translate(11.037158 50.005093), rotate(0)" xlink:href="#item_8">
<title>item, id: 8, transf: [r: 0.000°, t: (11.037, 50.005)]</title>
</use>
<use transform="translate(50.54078 8.001192), rotate(-180)" xlink:href="#item_8">
<title>item, id: 8, transf: [r: -180.000°, t: (50.541, 8.001)]</title>
</use>
</g>
<g id="quality_zones"/>
<g id="optionals">
<g id="overlap_lines" transform="translate(0 0), rotate(0)"/>
</g>
<text font-family="monospace" font-size="1.4186555" font-weight="500" x="0" y="-0.70932776">
height: 60.000 | width: 56.746 | usage: 89.125% | final_bench_69
</text>
</svg>