<svg viewBox="-2.8443525 -3.0000007 62.57574 66" xmlns="http://www.w3.org/2000/svg" xmlns:xlink="http://www.w3.org/1999/xlink">
<g id="bin_0">
<path d="M0,0 L56.887035,0 L56.887035,60 L0,60 z" fill="#D3D3D3" stroke="black" stroke-width="0.31287873"/>
<title>bin, id: 0, bbox: [x_min: 0.000, y_min: 0.000, x_max: 56.887, y_max: 60.000]</title>
</g>
<g id="items">
<defs>
<g id="item_0">
<path d="M0,8 L1,7 L7,5 L12,0 L15,3 L10,8 L11,9 L1,9 z" fill="#7A7A7A" fill-opacity="0.5" fill-rule="nonzero" stroke="black" stroke-width="0.15643936"/>
</g>
<g id="item_1">
<path d="M2,12 L0,0 L4,0 L4,1 L5,1 L5,0 L9,0 L9,2 L5,12 z" fill="#7A7A7A" fill-opacity="0.5" fill-rule="nonzero" stroke="black" stroke-width="0.15643936"/>
</g>
<g id="item_2">
<path d="M2,24 L0,18 L0,6 L2,0 L9,0 L11,6 L11,18 L9,24 z" fill="#7A7A7A" fill-opacity="0.5" fill-rule="nonzero" stroke="black" stroke-width="0.15643936"/>
</g>
<g id="item_3">
<path d="M0,15 L0,0 L14,0 L14,15 z" fill="#7A7A7A" fill-opacity="0.5" fill-rule="nonzero" stroke="black" stroke-width="0.15643936"/>
</g>
<g id="item_4">
<path d="M0,0 L9,0 L7,5 L2,5 z" fill="#7A7A7A" fill-opacity="0.5" fill-rule="nonzero" stroke="black" stroke-width="0.15643936"/>
</g>
<g id="item_5">
<path d="M0,32 L1,3 L3,0 L6,1 L11,11 L5,31 L2,33 z" fill="#7A7A7A" fill-opacity="0.5" fill-rule="nonzero" stroke="black" stroke-width="0.15643936"/>
</g>
<g id="item_6">
<path d="M0,3 L5,0 L23,0 L13,5 L1,5 z" fill="#7A7A7A" fill-opacity="0.5" fill-rule="nonzero" stroke="black" stroke-width="0.15643936"/>
</g>
<g id="item_7">
<path d="M1,0 L4,0 L5,6 L4,6 L4,5 L3,4 L2,4 L1,5 L1,6 L0,6 z" fill="#7A7A7A" fill-opacity="0.5" fill-rule="nonzero" stroke="black" stroke-width="0.15643936"/>
</g>
<g id="item_8">
<path d="M0,2 L1,0 L8,0 L6,3 z" fill="#7A7A7A" fill-opacity="0.5" fill-rule="nonzero" stroke="black" stroke-width="0.15643936"/>
</g>
<g id="item_9">
<path d="M0,0 L14,0 L5,6 z" fill="#7A7A7A" fill-opacity="0.5" fill-rule="nonzero" stroke="black" stroke-width="0.15643936"/>
</g>
</defs>
<use transform="translate(14.585066 46.94704), rotate(-180)" xlink:href="#item_5">
<title>item, id: 5, transf: [r: -180.000°, t: (14.585, 46.947)]</title>
</use>
<use transform="translate(0.0000009536743 0.23051643), rotate(0)" xlink:href="#item_5">
<title>item, id: 5, transf: [r: 0.000°, t: (0.000, 0.231)]</title>
</use>
<use transform="translate(13.479555 15.010305), rotate(0)" xlink:href="#item_5">
<title>item, id: 5, transf: [r: 0.000°, t: (13.480, 15.010)]</title>
</use>
<use transform="translate(56.886215 42.02816), rotate(-180)" xlink:href="#item_2">
<title>item, id: 2, transf: [r: -180.000°, t: (56.886, 42.028)]</title>
</use>
<use transform="translate(34.886086 20.391521), rotate(0)" xlink:href="#item_2">
<title>item, id: 2, transf: [r: 0.000°, t: (34.886, 20.392)]</title>
</use>
<use transform="translate(34.885124 45.99716), rotate(-180)" xlink:href="#item_2">
<title>item, id: 2, transf: [r: -180.000°, t: (34.885, 45.997)]</title>
</use>
<use transform="translate(42.88646 0.0070109367), rotate(0)" xlink:href="#item_3">
<title>item, id: 3, transf: [r: 0.000°, t: (42.886, 0.007)]</title>
</use>
<use transform="translate(28.885883 0.00009441376), rotate(0)" xlink:href="#item_3">
<title>item, id: 3, transf: [r: 0.000°, t: (28.886, 0.000)]</title>
</use>
<use transform="translate(14.885555 0.0040569305), rotate(0)" xlink:href="#item_3">
<title>item, id: 3, transf: [r: 0.000°, t: (14.886, 0.004)]</title>
</use>
<use transform="translate(36.98238 59.999912), rotate(-180)" xlink:href="#item_6">
<title>item, id: 6, transf: [r: -180.000°, t: (36.982, 60.000)]</title>
</use>
<use transform="translate(0.98136425 54.99977), rotate(0)" xlink:href="#item_6">
<title>item, id: 6, transf: [r: 0.000°, t: (0.981, 55.000)]</title>
</use>
<use transform="translate(56.762604 59.999973), rotate(-180)" xlink:href="#item_6">
<title>item, id: 6, transf: [r: -180.000°, t: (56.763, 60.000)]</title>
</use>
<use transform="translate(15.001263 56.78683), rotate(-180)" xlink:href="#item_0">
<title>item, id: 0, transf: [r: -180.000°, t: (15.001, 56.787)]</title>
</use>
<use transform="translate(6.499647 45.99433), rotate(0)" xlink:href="#item_0">
<title>item, id: 0, transf: [r: 0.000°, t: (6.500, 45.994)]</title>
</use>
<use transform="translate(33.910706 54.9991), rotate(-180)" xlink:href="#item_0">
<title>item, id: 0, transf: [r: -180.000°, t: (33.911, 54.999)]</title>
</use>
<use transform="translate(34.680252 44.395397), rotate(0)" xlink:href="#item_1">
<title>item, id: 1, transf: [r: 0.000°, t: (34.680, 44.395)]</title>
</use>
<use transform="translate(50.045174 54.985798), rotate(-180)" xlink:href="#item_1">
<title>item, id: 1, transf: [r: -180.000°, t: (50.045, 54.986)]</title>
</use>
<use transform="translate(47.88675 42.033123), rotate(0)" xlink:href="#item_1">
<title>item, id: 1, transf: [r: 0.000°, t: (47.887, 42.033)]</title>
</use>
<use transform="translate(36.403214 21.83411), rotate(-180)" xlink:href="#item_9">
<title>item, id: 9, transf: [r: -180.000°, t: (36.403, 21.834)]</title>
</use>
<use transform="translate(18.643908 15.005135), rotate(0)" xlink:href="#item_9">
<title>item, id: 9, transf: [r: 0.000°, t: (18.644, 15.005)]</title>
</use>
<use transform="translate(35.915173 54.999), rotate(-180)" xlink:href="#item_9">
<title>item, id: 9, transf: [r: -180.000°, t: (35.915, 54.999)]</title>
</use>
<use transform="translate(5.8858852 0.000018119812), rotate(0)" xlink:href="#item_4">
<title>item, id: 4, transf: [r: 0.000°, t: (5.886, 0.000)]</title>
</use>
<use transform="translate(9.000576 47.78431), rotate(-180)" xlink:href="#item_4">
<title>item, id: 4, transf: [r: -180.000°, t: (9.001, 47.784)]</title>
</use>
<use transform="translate(32.980816 15.057954), rotate(0)" xlink:href="#item_4">
<title>item, id: 4, transf: [r: 0.000°, t: (32.981, 15.058)]</title>
</use>
<use transform="translate(0.0014867783 36.78142), rotate(0)" xlink:href="#item_7">
<title>item, id: 7, transf: [r: 0.000°, t: (0.001, 36.781)]</title>
</use>
<use transform="translate(14.885376 11.000113), rotate(-180)" xlink:href="#item_7">
<title>item, id: 7, transf: [r: -180.000°, t: (14.885, 11.000)]</title>
</use>
<use transform="translate(19.671001 38.72111), rotate(0)" xlink:href="#item_7">
<title>item, id: 7, transf: [r: 0.000°, t: (19.671, 38.721)]</title>
</use>
<use transform="translate(47.763294 20.391338), rotate(-180)" xlink:href="#item_8">
<title>item, id: 8, transf: [r: -180.000°, t: (47.763, 20.391)]</title>
</use>
<use transform="translate(42.550575 15.007324), rotate(0)" xlink:href="#item_8">
<title>item, id: 8, transf: [r: 0.000°, t: (42.551, 15.007)]</title>
</use>
<use transform="translate(56.724022 18.022804), rotate(-180)" xlink:href="#item_8">
<title>item, id: 8, transf: [r: -180.000°, t: (56.724, 18.023)]</title>
</use>
</g>
<g id="quality_zones"/>
<g id="optionals">
<g id="overlap_lines" transform="translate(0 0), rotate(0)"/>
</g>
<text font-family="monospace" font-size="1.4221759" font-weight="500" x="0" y="-0.71108794">
height: 60.000 | width: 56.887 | usage: 88.904% | final_bench_65
</text>
</svg>