<svg viewBox="-2.8250103 -3.0000007 62.150215 66" xmlns="http://www.w3.org/2000/svg" xmlns:xlink="http://www.w3.org/1999/xlink">
<g id="bin_0">
<path d="M0,0 L56.500195,0 L56.500195,60 L0,60 z" fill="#D3D3D3" stroke="black" stroke-width="0.31075108"/>
<title>bin, id: 0, bbox: [x_min: 0.000, y_min: 0.000, x_max: 56.500, y_max: 60.000]</title>
</g>
<g id="items">
<defs>
<g id="item_0">
<path d="M0,8 L1,7 L7,5 L12,0 L15,3 L10,8 L11,9 L1,9 z" fill="#7A7A7A" fill-opacity="0.5" fill-rule="nonzero" stroke="black" stroke-width="0.15537554"/>
</g>
<g id="item_1">
<path d="M2,12 L0,0 L4,0 L4,1 L5,1 L5,0 L9,0 L9,2 L5,12 z" fill="#7A7A7A" fill-opacity="0.5" fill-rule="nonzero" stroke="black" stroke-width="0.15537554"/>
</g>
<g id="item_2">
<path d="M2,24 L0,18 L0,6 L2,0 L9,0 L11,6 L11,18 L9,24 z" fill="#7A7A7A" fill-opacity="0.5" fill-rule="nonzero" stroke="black" stroke-width="0.15537554"/>
</g>
<g id="item_3">
<path d="M0,15 L0,0 L14,0 L14,15 z" fill="#7A7A7A" fill-opacity="0.5" fill-rule="nonzero" stroke="black" stroke-width="0.15537554"/>
</g>
<g id="item_4">
<path d="M0,0 L9,0 L7,5 L2,5 z" fill="#7A7A7A" fill-opacity="0.5" fill-rule="nonzero" stroke="black" stroke-width="0.15537554"/>
</g>
<g id="item_5">
<path d="M0,32 L1,3 L3,0 L6,1 L11,11 L5,31 L2,33 z" fill="#7A7A7A" fill-opacity="0.5" fill-rule="nonzero" stroke="black" stroke-width="0.15537554"/>
</g>
<g id="item_6">
<path d="M0,3 L5,0 L23,0 L13,5 L1,5 z" fill="#7A7A7A" fill-opacity="0.5" fill-rule="nonzero" stroke="black" stroke-width="0.15537554"/>
</g>
<g id="item_7">
<path d="M1,0 L4,0 L5,6 L4,6 L4,5 L3,4 L2,4 L1,5 L1,6 L0,6 z" fill="#7A7A7A" fill-opacity="0.5" fill-rule="nonzero" stroke="black" stroke-width="0.15537554"/>
</g>
<g id="item_8">
<path d="M0,2 L1,0 L8,0 L6,3 z" fill="#7A7A7A" fill-opacity="0.5" fill-rule="nonzero" stroke="black" stroke-width="0.15537554"/>
</g>
<g id="item_9">
<path d="M0,0 L14,0 L5,6 z" fill="#7A7A7A" fill-opacity="0.5" fill-rule="nonzero" stroke="black" stroke-width="0.15537554"/>
</g>
</defs>
<use transform="translate(56.4991 58.08902), rotate(-180)" xlink:href="#item_5">
<title>item, id: 5, transf: [r: -180.000°, t: (56.499, 58.089)]</title>
</use>
<use transform="translate(40.1265 17.330921), rotate(0)" xlink:href="#item_5">
<title>item, id: 5, transf: [r: 0.000°, t: (40.126, 17.331)]</title>
</use>
<use transform="translate(41.195137 50.30839), rotate(-180)" xlink:href="#item_5">
<title>item, id: 5, transf: [r: -180.000°, t: (41.195, 50.308)]</title>
</use>
<use transform="translate(11.002196 48.04151), rotate(-180)" xlink:href="#item_2">
<title>item, id: 2, transf: [r: -180.000°, t: (11.002, 48.042)]</title>
</use>
<use transform="translate(17.5 0.5083771), rotate(0)" xlink:href="#item_2">
<title>item, id: 2, transf: [r: 0.000°, t: (17.500, 0.508)]</title>
</use>
<use transform="translate(11.000017 24.013355), rotate(-180)" xlink:href="#item_2">
<title>item, id: 2, transf: [r: -180.000°, t: (11.000, 24.013)]</title>
</use>
<use transform="translate(28.50005 0.0037879944), rotate(0)" xlink:href="#item_3">
<title>item, id: 3, transf: [r: 0.000°, t: (28.500, 0.004)]</title>
</use>
<use transform="translate(11.002495 24.517574), rotate(0)" xlink:href="#item_3">
<title>item, id: 3, transf: [r: 0.000°, t: (11.002, 24.518)]</title>
</use>
<use transform="translate(42.50016 0.00058174133), rotate(0)" xlink:href="#item_3">
<title>item, id: 3, transf: [r: 0.000°, t: (42.500, 0.001)]</title>
</use>
<use transform="translate(38.159145 54.99888), rotate(-180)" xlink:href="#item_6">
<title>item, id: 6, transf: [r: -180.000°, t: (38.159, 54.999)]</title>
</use>
<use transform="translate(46.208794 59.977898), rotate(-180)" xlink:href="#item_6">
<title>item, id: 6, transf: [r: -180.000°, t: (46.209, 59.978)]</title>
</use>
<use transform="translate(9.39002 54.999615), rotate(0)" xlink:href="#item_6">
<title>item, id: 6, transf: [r: 0.000°, t: (9.390, 55.000)]</title>
</use>
<use transform="translate(15.848399 37.63369), rotate(0)" xlink:href="#item_0">
<title>item, id: 0, transf: [r: 0.000°, t: (15.848, 37.634)]</title>
</use>
<use transform="translate(19.348608 59.999287), rotate(-180)" xlink:href="#item_0">
<title>item, id: 0, transf: [r: -180.000°, t: (19.349, 59.999)]</title>
</use>
<use transform="translate(24.946386 48.517696), rotate(-180)" xlink:href="#item_0">
<title>item, id: 0, transf: [r: -180.000°, t: (24.946, 48.518)]</title>
</use>
<use transform="translate(18.499615 24.517048), rotate(-180)" xlink:href="#item_1">
<title>item, id: 1, transf: [r: -180.000°, t: (18.500, 24.517)]</title>
</use>
<use transform="translate(25.030544 24.51408), rotate(0)" xlink:href="#item_1">
<title>item, id: 1, transf: [r: 0.000°, t: (25.031, 24.514)]</title>
</use>
<use transform="translate(10.000063 0.0014109612), rotate(0)" xlink:href="#item_1">
<title>item, id: 1, transf: [r: 0.000°, t: (10.000, 0.001)]</title>
</use>
<use transform="translate(28.575296 15.004019), rotate(0)" xlink:href="#item_9">
<title>item, id: 9, transf: [r: 0.000°, t: (28.575, 15.004)]</title>
</use>
<use transform="translate(14.878134 46.634636), rotate(0)" xlink:href="#item_9">
<title>item, id: 9, transf: [r: 0.000°, t: (14.878, 46.635)]</title>
</use>
<use transform="translate(49.292526 54.889843), rotate(-180)" xlink:href="#item_9">
<title>item, id: 9, transf: [r: -180.000°, t: (49.293, 54.890)]</title>
</use>
<use transform="translate(0.00011539459 48.044086), rotate(0)" xlink:href="#item_4">
<title>item, id: 4, transf: [r: 0.000°, t: (0.000, 48.044)]</title>
</use>
<use transform="translate(56.499664 20.056162), rotate(-180)" xlink:href="#item_4">
<title>item, id: 4, transf: [r: -180.000°, t: (56.500, 20.056)]</title>
</use>
<use transform="translate(47.490982 20.057823), rotate(0)" xlink:href="#item_4">
<title>item, id: 4, transf: [r: 0.000°, t: (47.491, 20.058)]</title>
</use>
<use transform="translate(27.499409 18.513851), rotate(0)" xlink:href="#item_7">
<title>item, id: 7, transf: [r: 0.000°, t: (27.499, 18.514)]</title>
</use>
<use transform="translate(5.0018167 59.046154), rotate(-180)" xlink:href="#item_7">
<title>item, id: 7, transf: [r: -180.000°, t: (5.002, 59.046)]</title>
</use>
<use transform="translate(28.344624 43.98906), rotate(0)" xlink:href="#item_7">
<title>item, id: 7, transf: [r: 0.000°, t: (28.345, 43.989)]</title>
</use>
<use transform="translate(41.494972 15.058189), rotate(0)" xlink:href="#item_8">
<title>item, id: 8, transf: [r: 0.000°, t: (41.495, 15.058)]</title>
</use>
<use transform="translate(53.026726 59.999096), rotate(-180)" xlink:href="#item_8">
<title>item, id: 8, transf: [r: -180.000°, t: (53.027, 59.999)]</title>
</use>
<use transform="translate(15.819214 50.997272), rotate(-180)" xlink:href="#item_8">
<title>item, id: 8, transf: [r: -180.000°, t: (15.819, 50.997)]</title>
</use>
</g>
<g id="quality_zones"/>
<g id="optionals">
<g id="overlap_lines" transform="translate(0 0), rotate(0)"/>
</g>
<text font-family="monospace" font-size="1.4125049" font-weight="500" x="0" y="-0.70625246">
height: 60.000 | width: 56.500 | usage: 89.513% | final_bench_93
</text>
</svg>