<svg viewBox="-2.8411694 -3.0000007 62.505714 66" xmlns="http://www.w3.org/2000/svg" xmlns:xlink="http://www.w3.org/1999/xlink">
<g id="bin_0">
<path d="M0,0 L56.823376,0 L56.823376,60 L0,60 z" fill="#D3D3D3" stroke="black" stroke-width="0.31252858"/>
<title>bin, id: 0, bbox: [x_min: 0.000, y_min: 0.000, x_max: 56.823, y_max: 60.000]</title>
</g>
<g id="items">
<defs>
<g id="item_0">
<path d="M0,8 L1,7 L7,5 L12,0 L15,3 L10,8 L11,9 L1,9 z" fill="#7A7A7A" fill-opacity="0.5" fill-rule="nonzero" stroke="black" stroke-width="0.15626429"/>
</g>
<g id="item_1">
<path d="M2,12 L0,0 L4,0 L4,1 L5,1 L5,0 L9,0 L9,2 L5,12 z" fill="#7A7A7A" fill-opacity="0.5" fill-rule="nonzero" stroke="black" stroke-width="0.15626429"/>
</g>
<g id="item_2">
<path d="M2,24 L0,18 L0,6 L2,0 L9,0 L11,6 L11,18 L9,24 z" fill="#7A7A7A" fill-opacity="0.5" fill-rule="nonzero" stroke="black" stroke-width="0.15626429"/>
</g>
<g id="item_3">
<path d="M0,15 L0,0 L14,0 L14,15 z" fill="#7A7A7A" fill-opacity="0.5" fill-rule="nonzero" stroke="black" stroke-width="0.15626429"/>
</g>
<g id="item_4">
<path d="M0,0 L9,0 L7,5 L2,5 z" fill="#7A7A7A" fill-opacity="0.5" fill-rule="nonzero" stroke="black" stroke-width="0.15626429"/>
</g>
<g id="item_5">
<path d="M0,32 L1,3 L3,0 L6,1 L11,11 L5,31 L2,33 z" fill="#7A7A7A" fill-opacity="0.5" fill-rule="nonzero" stroke="black" stroke-width="0.15626429"/>
</g>
<g id="item_6">
<path d="M0,3 L5,0 L23,0 L13,5 L1,5 z" fill="#7A7A7A" fill-opacity="0.5" fill-rule="nonzero" stroke="black" stroke-width="0.15626429"/>
</g>
<g id="item_7">
<path d="M1,0 L4,0 L5,6 L4,6 L4,5 L3,4 L2,4 L1,5 L1,6 L0,6 z" fill="#7A7A7A" fill-opacity="0.5" fill-rule="nonzero" stroke="black" stroke-width="0.15626429"/>
</g>
<g id="item_8">
<path d="M0,2 L1,0 L8,0 L6,3 z" fill="#7A7A7A" fill-opacity="0.5" fill-rule="nonzero" stroke="black" stroke-width="0.15626429"/>
</g>
<g id="item_9">
<path d="M0,0 L14,0 L5,6 z" fill="#7A7A7A" fill-opacity="0.5" fill-rule="nonzero" stroke="black" stroke-width="0.15626429"/>
</g>
</defs>
<use transform="translate(29.62273 47.70418), rotate(-180)" xlink:href="#item_5">
<title>item, id: 5, transf: [r: -180.000°, t: (29.623, 47.704)]</title>
</use>
<use transform="translate(13.944658 4.626953), rotate(0)" xlink:href="#item_5">
<title>item, id: 5, transf: [r: 0.000°, t: (13.945, 4.627)]</title>
</use>
<use transform="translate(28.728874 9.638884), rotate(0)" xlink:href="#item_5">
<title>item, id: 5, transf: [r: 0.000°, t: (28.729, 9.639)]</title>
</use>
<use transform="translate(45.82264 30.998806), rotate(0)" xlink:href="#item_2">
<title>item, id: 2, transf: [r: 0.000°, t: (45.823, 30.999)]</title>
</use>
<use transform="translate(45.822365 54.995396), rotate(-180)" xlink:href="#item_2">
<title>item, id: 2, transf: [r: -180.000°, t: (45.822, 54.995)]</title>
</use>
<use transform="translate(45.82334 6.863371), rotate(0)" xlink:href="#item_2">
<title>item, id: 2, transf: [r: 0.000°, t: (45.823, 6.863)]</title>
</use>
<use transform="translate(14.00025 53.19441), rotate(-180)" xlink:href="#item_3">
<title>item, id: 3, transf: [r: -180.000°, t: (14.000, 53.194)]</title>
</use>
<use transform="translate(14.502155 20.00047), rotate(-180)" xlink:href="#item_3">
<title>item, id: 3, transf: [r: -180.000°, t: (14.502, 20.000)]</title>
</use>
<use transform="translate(14.000108 35.00384), rotate(-180)" xlink:href="#item_3">
<title>item, id: 3, transf: [r: -180.000°, t: (14.000, 35.004)]</title>
</use>
<use transform="translate(56.822403 59.999996), rotate(-180)" xlink:href="#item_6">
<title>item, id: 6, transf: [r: -180.000°, t: (56.822, 60.000)]</title>
</use>
<use transform="translate(20.803024 54.997925), rotate(0)" xlink:href="#item_6">
<title>item, id: 6, transf: [r: 0.000°, t: (20.803, 54.998)]</title>
</use>
<use transform="translate(1.0351028 0.00017499924), rotate(0)" xlink:href="#item_6">
<title>item, id: 6, transf: [r: 0.000°, t: (1.035, 0.000)]</title>
</use>
<use transform="translate(35.132633 9.000515), rotate(-180)" xlink:href="#item_0">
<title>item, id: 0, transf: [r: -180.000°, t: (35.133, 9.001)]</title>
</use>
<use transform="translate(24.082394 0.050920963), rotate(0)" xlink:href="#item_0">
<title>item, id: 0, transf: [r: 0.000°, t: (24.082, 0.051)]</title>
</use>
<use transform="translate(34.751232 1.8267188), rotate(0)" xlink:href="#item_0">
<title>item, id: 0, transf: [r: 0.000°, t: (34.751, 1.827)]</title>
</use>
<use transform="translate(23.270065 53.999466), rotate(-180)" xlink:href="#item_1">
<title>item, id: 1, transf: [r: -180.000°, t: (23.270, 53.999)]</title>
</use>
<use transform="translate(35.808372 54.992924), rotate(-180)" xlink:href="#item_1">
<title>item, id: 1, transf: [r: -180.000°, t: (35.808, 54.993)]</title>
</use>
<use transform="translate(46.830475 30.906517), rotate(-180)" xlink:href="#item_1">
<title>item, id: 1, transf: [r: -180.000°, t: (46.830, 30.907)]</title>
</use>
<use transform="translate(12.7994995 53.99976), rotate(0)" xlink:href="#item_9">
<title>item, id: 9, transf: [r: 0.000°, t: (12.799, 54.000)]</title>
</use>
<use transform="translate(17.795198 59.998238), rotate(-180)" xlink:href="#item_9">
<title>item, id: 9, transf: [r: -180.000°, t: (17.795, 59.998)]</title>
</use>
<use transform="translate(0.00051546097 53.194637), rotate(0)" xlink:href="#item_9">
<title>item, id: 9, transf: [r: 0.000°, t: (0.001, 53.195)]</title>
</use>
<use transform="translate(22.159365 9.05166), rotate(0)" xlink:href="#item_4">
<title>item, id: 4, transf: [r: 0.000°, t: (22.159, 9.052)]</title>
</use>
<use transform="translate(47.822254 0.0012805462), rotate(0)" xlink:href="#item_4">
<title>item, id: 4, transf: [r: 0.000°, t: (47.822, 0.001)]</title>
</use>
<use transform="translate(36.823105 13.826768), rotate(0)" xlink:href="#item_4">
<title>item, id: 4, transf: [r: 0.000°, t: (36.823, 13.827)]</title>
</use>
<use transform="translate(27.504913 53.984005), rotate(-180)" xlink:href="#item_7">
<title>item, id: 7, transf: [r: -180.000°, t: (27.505, 53.984)]</title>
</use>
<use transform="translate(18.821514 43.115856), rotate(-180)" xlink:href="#item_7">
<title>item, id: 7, transf: [r: -180.000°, t: (18.822, 43.116)]</title>
</use>
<use transform="translate(43.57476 6.0013766), rotate(-180)" xlink:href="#item_7">
<title>item, id: 7, transf: [r: -180.000°, t: (43.575, 6.001)]</title>
</use>
<use transform="translate(45.46086 13.826723), rotate(-180)" xlink:href="#item_8">
<title>item, id: 8, transf: [r: -180.000°, t: (45.461, 13.827)]</title>
</use>
<use transform="translate(0.0000026226044 35.004803), rotate(0)" xlink:href="#item_8">
<title>item, id: 8, transf: [r: 0.000°, t: (0.000, 35.005)]</title>
</use>
<use transform="translate(13.94937 38.18906), rotate(-180)" xlink:href="#item_8">
<title>item, id: 8, transf: [r: -180.000°, t: (13.949, 38.189)]</title>
</use>
</g>
<g id="quality_zones"/>
<g id="optionals">
<g id="overlap_lines" transform="translate(0 0), rotate(0)"/>
</g>
<text font-family="monospace" font-size="1.4205844" font-weight="500" x="0" y="-0.7102922">
height: 60.000 | width: 56.823 | usage: 89.004% | final_bench_39
</text>
</svg>