<svg viewBox="-2.8549044 -3.0000007 62.807884 66" xmlns="http://www.w3.org/2000/svg" xmlns:xlink="http://www.w3.org/1999/xlink">
<g id="bin_0">
<path d="M0,0 L57.098076,0 L57.098076,60 L0,60 z" fill="#D3D3D3" stroke="black" stroke-width="0.31403944"/>
<title>bin, id: 0, bbox: [x_min: 0.000, y_min: 0.000, x_max: 57.098, y_max: 60.000]</title>
</g>
<g id="items">
<defs>
<g id="item_0">
<path d="M0,8 L1,7 L7,5 L12,0 L15,3 L10,8 L11,9 L1,9 z" fill="#7A7A7A" fill-opacity="0.5" fill-rule="nonzero" stroke="black" stroke-width="0.15701972"/>
</g>
<g id="item_1">
<path d="M2,12 L0,0 L4,0 L4,1 L5,1 L5,0 L9,0 L9,2 L5,12 z" fill="#7A7A7A" fill-opacity="0.5" fill-rule="nonzero" stroke="black" stroke-width="0.15701972"/>
</g>
<g id="item_2">
<path d="M2,24 L0,18 L0,6 L2,0 L9,0 L11,6 L11,18 L9,24 z" fill="#7A7A7A" fill-opacity="0.5" fill-rule="nonzero" stroke="black" stroke-width="0.15701972"/>
</g>
<g id="item_3">
<path d="M0,15 L0,0 L14,0 L14,15 z" fill="#7A7A7A" fill-opacity="0.5" fill-rule="nonzero" stroke="black" stroke-width="0.15701972"/>
</g>
<g id="item_4">
<path d="M0,0 L9,0 L7,5 L2,5 z" fill="#7A7A7A" fill-opacity="0.5" fill-rule="nonzero" stroke="black" stroke-width="0.15701972"/>
</g>
<g id="item_5">
<path d="M0,32 L1,3 L3,0 L6,1 L11,11 L5,31 L2,33 z" fill="#7A7A7A" fill-opacity="0.5" fill-rule="nonzero" stroke="black" stroke-width="0.15701972"/>
</g>
<g id="item_6">
<path d="M0,3 L5,0 L23,0 L13,5 L1,5 z" fill="#7A7A7A" fill-opacity="0.5" fill-rule="nonzero" stroke="black" stroke-width="0.15701972"/>
</g>
<g id="item_7">
<path d="M1,0 L4,0 L5,6 L4,6 L4,5 L3,4 L2,4 L1,5 L1,6 L0,6 z" fill="#7A7A7A" fill-opacity="0.5" fill-rule="nonzero" stroke="black" stroke-width="0.15701972"/>
</g>
<g id="item_8">
<path d="M0,2 L1,0 L8,0 L6,3 z" fill="#7A7A7A" fill-opacity="0.5" fill-rule="nonzero" stroke="black" stroke-width="0.15701972"/>
</g>
<g id="item_9">
<path d="M0,0 L14,0 L5,6 z" fill="#7A7A7A" fill-opacity="0.5" fill-rule="nonzero" stroke="black" stroke-width="0.15701972"/>
</g>
</defs>
<use transform="translate(15.100756 59.999275), rotate(-180)" xlink:href="#item_5">
<title>item, id: 5, transf: [r: -180.000°, t: (15.101, 59.999)]</title>
</use>
<use transform="translate(57.097153 35.917587), rotate(-180)" xlink:href="#item_5">
<title>item, id: 5, transf: [r: -180.000°, t: (57.097, 35.918)]</title>
</use>
<use transform="translate(0.0004310608 15.000235), rotate(0)" xlink:href="#item_5">
<title>item, id: 5, transf: [r: 0.000°, t: (0.000, 15.000)]</title>
</use>
<use transform="translate(39.514923 59.743393), rotate(-180)" xlink:href="#item_2">
<title>item, id: 2, transf: [r: -180.000°, t: (39.515, 59.743)]</title>
</use>
<use transform="translate(57.09783 59.996536), rotate(-180)" xlink:href="#item_2">
<title>item, id: 2, transf: [r: -180.000°, t: (57.098, 59.997)]</title>
</use>
<use transform="translate(28.009735 0.00026893616), rotate(0)" xlink:href="#item_2">
<title>item, id: 2, transf: [r: 0.000°, t: (28.010, 0.000)]</title>
</use>
<use transform="translate(28.005276 15.000734), rotate(-180)" xlink:href="#item_3">
<title>item, id: 3, transf: [r: -180.000°, t: (28.005, 15.001)]</title>
</use>
<use transform="translate(28.514832 59.99663), rotate(-180)" xlink:href="#item_3">
<title>item, id: 3, transf: [r: -180.000°, t: (28.515, 59.997)]</title>
</use>
<use transform="translate(14.004757 15.000128), rotate(-180)" xlink:href="#item_3">
<title>item, id: 3, transf: [r: -180.000°, t: (14.005, 15.000)]</title>
</use>
<use transform="translate(50.0076 35.740627), rotate(-180)" xlink:href="#item_6">
<title>item, id: 6, transf: [r: -180.000°, t: (50.008, 35.741)]</title>
</use>
<use transform="translate(14.601444 24.00064), rotate(0)" xlink:href="#item_6">
<title>item, id: 6, transf: [r: 0.000°, t: (14.601, 24.001)]</title>
</use>
<use transform="translate(47.42855 30.589775), rotate(-180)" xlink:href="#item_6">
<title>item, id: 6, transf: [r: -180.000°, t: (47.429, 30.590)]</title>
</use>
<use transform="translate(14.568702 35.57255), rotate(0)" xlink:href="#item_0">
<title>item, id: 0, transf: [r: 0.000°, t: (14.569, 35.573)]</title>
</use>
<use transform="translate(39.011703 0.0025057793), rotate(0)" xlink:href="#item_0">
<title>item, id: 0, transf: [r: 0.000°, t: (39.012, 0.003)]</title>
</use>
<use transform="translate(34.304466 39.591667), rotate(-180)" xlink:href="#item_0">
<title>item, id: 0, transf: [r: -180.000°, t: (34.304, 39.592)]</title>
</use>
<use transform="translate(41.230076 9.105329), rotate(0)" xlink:href="#item_1">
<title>item, id: 1, transf: [r: 0.000°, t: (41.230, 9.105)]</title>
</use>
<use transform="translate(38.514606 35.741104), rotate(0)" xlink:href="#item_1">
<title>item, id: 1, transf: [r: 0.000°, t: (38.515, 35.741)]</title>
</use>
<use transform="translate(47.09711 59.998272), rotate(-180)" xlink:href="#item_1">
<title>item, id: 1, transf: [r: -180.000°, t: (47.097, 59.998)]</title>
</use>
<use transform="translate(37.01136 0.0004878044), rotate(0)" xlink:href="#item_9">
<title>item, id: 9, transf: [r: 0.000°, t: (37.011, 0.000)]</title>
</use>
<use transform="translate(30.00799 24.00025), rotate(-180)" xlink:href="#item_9">
<title>item, id: 9, transf: [r: -180.000°, t: (30.008, 24.000)]</title>
</use>
<use transform="translate(8.002735 20.003237), rotate(0)" xlink:href="#item_9">
<title>item, id: 9, transf: [r: 0.000°, t: (8.003, 20.003)]</title>
</use>
<use transform="translate(9.013136 59.961052), rotate(-180)" xlink:href="#item_4">
<title>item, id: 4, transf: [r: -180.000°, t: (9.013, 59.961)]</title>
</use>
<use transform="translate(15.00231 15.001456), rotate(0)" xlink:href="#item_4">
<title>item, id: 4, transf: [r: 0.000°, t: (15.002, 15.001)]</title>
</use>
<use transform="translate(17.000961 20.001228), rotate(-180)" xlink:href="#item_4">
<title>item, id: 4, transf: [r: -180.000°, t: (17.001, 20.001)]</title>
</use>
<use transform="translate(0.008510828 48.955986), rotate(0)" xlink:href="#item_7">
<title>item, id: 7, transf: [r: 0.000°, t: (0.009, 48.956)]</title>
</use>
<use transform="translate(38.392803 16.112522), rotate(0)" xlink:href="#item_7">
<title>item, id: 7, transf: [r: 0.000°, t: (38.393, 16.113)]</title>
</use>
<use transform="translate(14.801189 35.157772), rotate(0)" xlink:href="#item_7">
<title>item, id: 7, transf: [r: 0.000°, t: (14.801, 35.158)]</title>
</use>
<use transform="translate(46.34959 25.5889), rotate(-180)" xlink:href="#item_8">
<title>item, id: 8, transf: [r: -180.000°, t: (46.350, 25.589)]</title>
</use>
<use transform="translate(14.894402 32.001534), rotate(0)" xlink:href="#item_8">
<title>item, id: 8, transf: [r: 0.000°, t: (14.894, 32.002)]</title>
</use>
<use transform="translate(23.00456 32.001453), rotate(-180)" xlink:href="#item_8">
<title>item, id: 8, transf: [r: -180.000°, t: (23.005, 32.001)]</title>
</use>
</g>
<g id="quality_zones"/>
<g id="optionals">
<g id="overlap_lines" transform="translate(0 0), rotate(0)"/>
</g>
<text font-family="monospace" font-size="1.427452" font-weight="500" x="0" y="-0.713726">
height: 60.000 | width: 57.098 | usage: 88.576% | final_bench_56
</text>
</svg>