<svg viewBox="-2.84973 -3.0000007 62.69405 66" xmlns="http://www.w3.org/2000/svg" xmlns:xlink="http://www.w3.org/1999/xlink">
<g id="bin_0">
<path d="M0,0 L56.994587,0 L56.994587,60 L0,60 z" fill="#D3D3D3" stroke="black" stroke-width="0.31347024"/>
<title>bin, id: 0, bbox: [x_min: 0.000, y_min: 0.000, x_max: 56.995, y_max: 60.000]</title>
</g>
<g id="items">
<defs>
<g id="item_0">
<path d="M0,8 L1,7 L7,5 L12,0 L15,3 L10,8 L11,9 L1,9 z" fill="#7A7A7A" fill-opacity="0.5" fill-rule="nonzero" stroke="black" stroke-width="0.15673512"/>
</g>
<g id="item_1">
<path d="M2,12 L0,0 L4,0 L4,1 L5,1 L5,0 L9,0 L9,2 L5,12 z" fill="#7A7A7A" fill-opacity="0.5" fill-rule="nonzero" stroke="black" stroke-width="0.15673512"/>
</g>
<g id="item_2">
<path d="M2,24 L0,18 L0,6 L2,0 L9,0 L11,6 L11,18 L9,24 z" fill="#7A7A7A" fill-opacity="0.5" fill-rule="nonzero" stroke="black" stroke-width="0.15673512"/>
</g>
<g id="item_3">
<path d="M0,15 L0,0 L14,0 L14,15 z" fill="#7A7A7A" fill-opacity="0.5" fill-rule="nonzero" stroke="black" stroke-width="0.15673512"/>
</g>
<g id="item_4">
<path d="M0,0 L9,0 L7,5 L2,5 z" fill="#7A7A7A" fill-opacity="0.5" fill-rule="nonzero" stroke="black" stroke-width="0.15673512"/>
</g>
<g id="item_5">
<path d="M0,32 L1,3 L3,0 L6,1 L11,11 L5,31 L2,33 z" fill="#7A7A7A" fill-opacity="0.5" fill-rule="nonzero" stroke="black" stroke-width="0.15673512"/>
</g>
<g id="item_6">
<path d="M0,3 L5,0 L23,0 L13,5 L1,5 z" fill="#7A7A7A" fill-opacity="0.5" fill-rule="nonzero" stroke="black" stroke-width="0.15673512"/>
</g>
<g id="item_7">
<path d="M1,0 L4,0 L5,6 L4,6 L4,5 L3,4 L2,4 L1,5 L1,6 L0,6 z" fill="#7A7A7A" fill-opacity="0.5" fill-rule="nonzero" stroke="black" stroke-width="0.15673512"/>
</g>
<g id="item_8">
<path d="M0,2 L1,0 L8,0 L6,3 z" fill="#7A7A7A" fill-opacity="0.5" fill-rule="nonzero" stroke="black" stroke-width="0.15673512"/>
</g>
<g id="item_9">
<path d="M0,0 L14,0 L5,6 z" fill="#7A7A7A" fill-opacity="0.5" fill-rule="nonzero" stroke="black" stroke-width="0.15673512"/>
</g>
</defs>
<use transform="translate(42.993843 36.22488), rotate(-180)" xlink:href="#item_5">
<title>item, id: 5, transf: [r: -180.000°, t: (42.994, 36.225)]</title>
</use>
<use transform="translate(10.881014 22.859844), rotate(0)" xlink:href="#item_5">
<title>item, id: 5, transf: [r: 0.000°, t: (10.881, 22.860)]</title>
</use>
<use transform="translate(0.00015306473 0.0016517639), rotate(0)" xlink:href="#item_5">
<title>item, id: 5, transf: [r: 0.000°, t: (0.000, 0.002)]</title>
</use>
<use transform="translate(20.762175 33.0573), rotate(0)" xlink:href="#item_2">
<title>item, id: 2, transf: [r: 0.000°, t: (20.762, 33.057)]</title>
</use>
<use transform="translate(0.009912491 32.996788), rotate(0)" xlink:href="#item_2">
<title>item, id: 2, transf: [r: 0.000°, t: (0.010, 32.997)]</title>
</use>
<use transform="translate(56.994217 59.901035), rotate(-180)" xlink:href="#item_2">
<title>item, id: 2, transf: [r: -180.000°, t: (56.994, 59.901)]</title>
</use>
<use transform="translate(56.994537 15.002361), rotate(-180)" xlink:href="#item_3">
<title>item, id: 3, transf: [r: -180.000°, t: (56.995, 15.002)]</title>
</use>
<use transform="translate(56.632454 30.003433), rotate(-180)" xlink:href="#item_3">
<title>item, id: 3, transf: [r: -180.000°, t: (56.632, 30.003)]</title>
</use>
<use transform="translate(45.992123 54.994713), rotate(-180)" xlink:href="#item_3">
<title>item, id: 3, transf: [r: -180.000°, t: (45.992, 54.995)]</title>
</use>
<use transform="translate(6.9995956 0.000019311905), rotate(0)" xlink:href="#item_6">
<title>item, id: 6, transf: [r: 0.000°, t: (7.000, 0.000)]</title>
</use>
<use transform="translate(42.994034 5.0029297), rotate(-180)" xlink:href="#item_6">
<title>item, id: 6, transf: [r: -180.000°, t: (42.994, 5.003)]</title>
</use>
<use transform="translate(47.02346 59.999367), rotate(-180)" xlink:href="#item_6">
<title>item, id: 6, transf: [r: -180.000°, t: (47.023, 59.999)]</title>
</use>
<use transform="translate(30.068146 14.00383), rotate(-180)" xlink:href="#item_0">
<title>item, id: 0, transf: [r: -180.000°, t: (30.068, 14.004)]</title>
</use>
<use transform="translate(34.589798 30.994116), rotate(0)" xlink:href="#item_0">
<title>item, id: 0, transf: [r: 0.000°, t: (34.590, 30.994)]</title>
</use>
<use transform="translate(6.7418976 50.99911), rotate(0)" xlink:href="#item_0">
<title>item, id: 0, transf: [r: 0.000°, t: (6.742, 50.999)]</title>
</use>
<use transform="translate(25.719471 14.0897875), rotate(0)" xlink:href="#item_1">
<title>item, id: 1, transf: [r: 0.000°, t: (25.719, 14.090)]</title>
</use>
<use transform="translate(17.043434 22.85941), rotate(-180)" xlink:href="#item_1">
<title>item, id: 1, transf: [r: -180.000°, t: (17.043, 22.859)]</title>
</use>
<use transform="translate(27.632269 26.089392), rotate(-180)" xlink:href="#item_1">
<title>item, id: 1, transf: [r: -180.000°, t: (27.632, 26.089)]</title>
</use>
<use transform="translate(31.940907 14.088916), rotate(-180)" xlink:href="#item_9">
<title>item, id: 9, transf: [r: -180.000°, t: (31.941, 14.089)]</title>
</use>
<use transform="translate(17.998291 26.0898), rotate(0)" xlink:href="#item_9">
<title>item, id: 9, transf: [r: 0.000°, t: (17.998, 26.090)]</title>
</use>
<use transform="translate(35.818165 32.876793), rotate(-180)" xlink:href="#item_9">
<title>item, id: 9, transf: [r: -180.000°, t: (35.818, 32.877)]</title>
</use>
<use transform="translate(28.392239 7.2297993), rotate(0)" xlink:href="#item_4">
<title>item, id: 4, transf: [r: 0.000°, t: (28.392, 7.230)]</title>
</use>
<use transform="translate(8.722 5.3088403), rotate(0)" xlink:href="#item_4">
<title>item, id: 4, transf: [r: 0.000°, t: (8.722, 5.309)]</title>
</use>
<use transform="translate(47.993687 30.003437), rotate(0)" xlink:href="#item_4">
<title>item, id: 4, transf: [r: 0.000°, t: (47.994, 30.003)]</title>
</use>
<use transform="translate(35.703003 38.877064), rotate(-180)" xlink:href="#item_7">
<title>item, id: 7, transf: [r: -180.000°, t: (35.703, 38.877)]</title>
</use>
<use transform="translate(21.066828 20.483946), rotate(-180)" xlink:href="#item_7">
<title>item, id: 7, transf: [r: -180.000°, t: (21.067, 20.484)]</title>
</use>
<use transform="translate(6.4442444 22.862381), rotate(0)" xlink:href="#item_7">
<title>item, id: 7, transf: [r: 0.000°, t: (6.444, 22.862)]</title>
</use>
<use transform="translate(25.843044 59.583656), rotate(-180)" xlink:href="#item_8">
<title>item, id: 8, transf: [r: -180.000°, t: (25.843, 59.584)]</title>
</use>
<use transform="translate(0.00038170815 56.997562), rotate(0)" xlink:href="#item_8">
<title>item, id: 8, transf: [r: 0.000°, t: (0.000, 56.998)]</title>
</use>
<use transform="translate(11.691849 32.987545), rotate(-180)" xlink:href="#item_8">
<title>item, id: 8, transf: [r: -180.000°, t: (11.692, 32.988)]</title>
</use>
</g>
<g id="quality_zones"/>
<g id="optionals">
<g id="overlap_lines" transform="translate(0 0), rotate(0)"/>
</g>
<text font-family="monospace" font-size="1.4248646" font-weight="500" x="0" y="-0.7124323">
height: 60.000 | width: 56.995 | usage: 88.736% | final_bench_12
</text>
</svg>