<svg viewBox="-2.8414822 -3.0000007 62.512596 66" xmlns="http://www.w3.org/2000/svg" xmlns:xlink="http://www.w3.org/1999/xlink">
<g id="bin_0">
<path d="M0,0 L56.82963,0 L56.82963,60 L0,60 z" fill="#D3D3D3" stroke="black" stroke-width="0.312563"/>
<title>bin, id: 0, bbox: [x_min: 0.000, y_min: 0.000, x_max: 56.830, y_max: 60.000]</title>
</g>
<g id="items">
<defs>
<g id="item_0">
<path d="M0,8 L1,7 L7,5 L12,0 L15,3 L10,8 L11,9 L1,9 z" fill="#7A7A7A" fill-opacity="0.5" fill-rule="nonzero" stroke="black" stroke-width="0.1562815"/>
</g>
<g id="item_1">
<path d="M2,12 L0,0 L4,0 L4,1 L5,1 L5,0 L9,0 L9,2 L5,12 z" fill="#7A7A7A" fill-opacity="0.5" fill-rule="nonzero" stroke="black" stroke-width="0.1562815"/>
</g>
<g id="item_2">
<path d="M2,24 L0,18 L0,6 L2,0 L9,0 L11,6 L11,18 L9,24 z" fill="#7A7A7A" fill-opacity="0.5" fill-rule="nonzero" stroke="black" stroke-width="0.1562815"/>
</g>
<g id="item_3">
<path d="M0,15 L0,0 L14,0 L14,15 z" fill="#7A7A7A" fill-opacity="0.5" fill-rule="nonzero" stroke="black" stroke-width="0.1562815"/>
</g>
<g id="item_4">
<path d="M0,0 L9,0 L7,5 L2,5 z" fill="#7A7A7A" fill-opacity="0.5" fill-rule="nonzero" stroke="black" stroke-width="0.1562815"/>
</g>
<g id="item_5">
<path d="M0,32 L1,3 L3,0 L6,1 L11,11 L5,31 L2,33 z" fill="#7A7A7A" fill-opacity="0.5" fill-rule="nonzero" stroke="black" stroke-width="0.1562815"/>
</g>
<g id="item_6">
<path d="M0,3 L5,0 L23,0 L13,5 L1,5 z" fill="#7A7A7A" fill-opacity="0.5" fill-rule="nonzero" stroke="black" stroke-width="0.1562815"/>
</g>
<g id="item_7">
<path d="M1,0 L4,0 L5,6 L4,6 L4,5 L3,4 L2,4 L1,5 L1,6 L0,6 z" fill="#7A7A7A" fill-opacity="0.5" fill-rule="nonzero" stroke="black" stroke-width="0.1562815"/>
</g>
<g id="item_8">
<path d="M0,2 L1,0 L8,0 L6,3 z" fill="#7A7A7A" fill-opacity="0.5" fill-rule="nonzero" stroke="black" stroke-width="0.1562815"/>
</g>
<g id="item_9">
<path d="M0,0 L14,0 L5,6 z" fill="#7A7A7A" fill-opacity="0.5" fill-rule="nonzero" stroke="black" stroke-width="0.1562815"/>
</g>
</defs>
<use transform="translate(17.361027 41.50335), rotate(-180)" xlink:href="#item_5">
<title>item, id: 5, transf: [r: -180.000°, t: (17.361, 41.503)]</title>
</use>
<use transform="translate(0.0010414124 2.779438), rotate(0)" xlink:href="#item_5">
<title>item, id: 5, transf: [r: 0.000°, t: (0.001, 2.779)]</title>
</use>
<use transform="translate(16.383928 5.8546276), rotate(0)" xlink:href="#item_5">
<title>item, id: 5, transf: [r: 0.000°, t: (16.384, 5.855)]</title>
</use>
<use transform="translate(11.000071 59.782516), rotate(-180)" xlink:href="#item_2">
<title>item, id: 2, transf: [r: -180.000°, t: (11.000, 59.783)]</title>
</use>
<use transform="translate(45.829014 35.937656), rotate(0)" xlink:href="#item_2">
<title>item, id: 2, transf: [r: 0.000°, t: (45.829, 35.938)]</title>
</use>
<use transform="translate(31.829155 5.6739616), rotate(0)" xlink:href="#item_2">
<title>item, id: 2, transf: [r: 0.000°, t: (31.829, 5.674)]</title>
</use>
<use transform="translate(31.828709 44.97842), rotate(0)" xlink:href="#item_3">
<title>item, id: 3, transf: [r: 0.000°, t: (31.829, 44.978)]</title>
</use>
<use transform="translate(31.828606 59.78611), rotate(-180)" xlink:href="#item_3">
<title>item, id: 3, transf: [r: -180.000°, t: (31.829, 59.786)]</title>
</use>
<use transform="translate(56.829235 30.005093), rotate(-180)" xlink:href="#item_3">
<title>item, id: 3, transf: [r: -180.000°, t: (56.829, 30.005)]</title>
</use>
<use transform="translate(42.014587 5.000453), rotate(-180)" xlink:href="#item_6">
<title>item, id: 6, transf: [r: -180.000°, t: (42.015, 5.000)]</title>
</use>
<use transform="translate(22.437922 30.345636), rotate(0)" xlink:href="#item_6">
<title>item, id: 6, transf: [r: 0.000°, t: (22.438, 30.346)]</title>
</use>
<use transform="translate(6.0011864 0.00026130676), rotate(0)" xlink:href="#item_6">
<title>item, id: 6, transf: [r: 0.000°, t: (6.001, 0.000)]</title>
</use>
<use transform="translate(34.37587 30.87631), rotate(0)" xlink:href="#item_0">
<title>item, id: 0, transf: [r: 0.000°, t: (34.376, 30.876)]</title>
</use>
<use transform="translate(37.944645 44.350986), rotate(-180)" xlink:href="#item_0">
<title>item, id: 0, transf: [r: -180.000°, t: (37.945, 44.351)]</title>
</use>
<use transform="translate(11.001571 35.293488), rotate(0)" xlink:href="#item_0">
<title>item, id: 0, transf: [r: 0.000°, t: (11.002, 35.293)]</title>
</use>
<use transform="translate(56.471394 15.00489), rotate(-180)" xlink:href="#item_1">
<title>item, id: 1, transf: [r: -180.000°, t: (56.471, 15.005)]</title>
</use>
<use transform="translate(41.66289 3.002595), rotate(0)" xlink:href="#item_1">
<title>item, id: 1, transf: [r: 0.000°, t: (41.663, 3.003)]</title>
</use>
<use transform="translate(32.940697 30.343885), rotate(-180)" xlink:href="#item_1">
<title>item, id: 1, transf: [r: -180.000°, t: (32.941, 30.344)]</title>
</use>
<use transform="translate(6.6136146 5.00153), rotate(0)" xlink:href="#item_9">
<title>item, id: 9, transf: [r: 0.000°, t: (6.614, 5.002)]</title>
</use>
<use transform="translate(20.839048 5.000656), rotate(0)" xlink:href="#item_9">
<title>item, id: 9, transf: [r: 0.000°, t: (20.839, 5.001)]</title>
</use>
<use transform="translate(39.295982 44.785915), rotate(-180)" xlink:href="#item_9">
<title>item, id: 9, transf: [r: -180.000°, t: (39.296, 44.786)]</title>
</use>
<use transform="translate(37.484615 39.965702), rotate(0)" xlink:href="#item_4">
<title>item, id: 4, transf: [r: 0.000°, t: (37.485, 39.966)]</title>
</use>
<use transform="translate(17.913765 59.999725), rotate(-180)" xlink:href="#item_4">
<title>item, id: 4, transf: [r: -180.000°, t: (17.914, 60.000)]</title>
</use>
<use transform="translate(47.829617 30.009544), rotate(0)" xlink:href="#item_4">
<title>item, id: 4, transf: [r: 0.000°, t: (47.830, 30.010)]</title>
</use>
<use transform="translate(17.792862 54.98748), rotate(-180)" xlink:href="#item_7">
<title>item, id: 7, transf: [r: -180.000°, t: (17.793, 54.987)]</title>
</use>
<use transform="translate(31.67179 17.522882), rotate(-180)" xlink:href="#item_7">
<title>item, id: 7, transf: [r: -180.000°, t: (31.672, 17.523)]</title>
</use>
<use transform="translate(11.152734 44.51605), rotate(0)" xlink:href="#item_7">
<title>item, id: 7, transf: [r: 0.000°, t: (11.153, 44.516)]</title>
</use>
<use transform="translate(0.00052189827 0.00046098232), rotate(0)" xlink:href="#item_8">
<title>item, id: 8, transf: [r: 0.000°, t: (0.001, 0.000)]</title>
</use>
<use transform="translate(49.348087 3.0008435), rotate(-180)" xlink:href="#item_8">
<title>item, id: 8, transf: [r: -180.000°, t: (49.348, 3.001)]</title>
</use>
<use transform="translate(48.827873 0.06058657), rotate(0)" xlink:href="#item_8">
<title>item, id: 8, transf: [r: 0.000°, t: (48.828, 0.061)]</title>
</use>
</g>
<g id="quality_zones"/>
<g id="optionals">
<g id="overlap_lines" transform="translate(0 0), rotate(0)"/>
</g>
<text font-family="monospace" font-size="1.4207408" font-weight="500" x="0" y="-0.7103704">
height: 60.000 | width: 56.830 | usage: 88.994% | final_bench_58
</text>
</svg>