<svg viewBox="-2.8422918 -3.0000007 62.53041 66" xmlns="http://www.w3.org/2000/svg" xmlns:xlink="http://www.w3.org/1999/xlink">
<g id="bin_0">
<path d="M0,0 L56.845825,0 L56.845825,60 L0,60 z" fill="#D3D3D3" stroke="black" stroke-width="0.31265205"/>
<title>bin, id: 0, bbox: [x_min: 0.000, y_min: 0.000, x_max: 56.846, y_max: 60.000]</title>
</g>
<g id="items">
<defs>
<g id="item_0">
<path d="M0,8 L1,7 L7,5 L12,0 L15,3 L10,8 L11,9 L1,9 z" fill="#7A7A7A" fill-opacity="0.5" fill-rule="nonzero" stroke="black" stroke-width="0.15632603"/>
</g>
<g id="item_1">
<path d="M2,12 L0,0 L4,0 L4,1 L5,1 L5,0 L9,0 L9,2 L5,12 z" fill="#7A7A7A" fill-opacity="0.5" fill-rule="nonzero" stroke="black" stroke-width="0.15632603"/>
</g>
<g id="item_2">
<path d="M2,24 L0,18 L0,6 L2,0 L9,0 L11,6 L11,18 L9,24 z" fill="#7A7A7A" fill-opacity="0.5" fill-rule="nonzero" stroke="black" stroke-width="0.15632603"/>
</g>
<g id="item_3">
<path d="M0,15 L0,0 L14,0 L14,15 z" fill="#7A7A7A" fill-opacity="0.5" fill-rule="nonzero" stroke="black" stroke-width="0.15632603"/>
</g>
<g id="item_4">
<path d="M0,0 L9,0 L7,5 L2,5 z" fill="#7A7A7A" fill-opacity="0.5" fill-rule="nonzero" stroke="black" stroke-width="0.15632603"/>
</g>
<g id="item_5">
<path d="M0,32 L1,3 L3,0 L6,1 L11,11 L5,31 L2,33 z" fill="#7A7A7A" fill-opacity="0.5" fill-rule="nonzero" stroke="black" stroke-width="0.15632603"/>
</g>
<g id="item_6">
<path d="M0,3 L5,0 L23,0 L13,5 L1,5 z" fill="#7A7A7A" fill-opacity="0.5" fill-rule="nonzero" stroke="black" stroke-width="0.15632603"/>
</g>
<g id="item_7">
<path d="M1,0 L4,0 L5,6 L4,6 L4,5 L3,4 L2,4 L1,5 L1,6 L0,6 z" fill="#7A7A7A" fill-opacity="0.5" fill-rule="nonzero" stroke="black" stroke-width="0.15632603"/>
</g>
<g id="item_8">
<path d="M0,2 L1,0 L8,0 L6,3 z" fill="#7A7A7A" fill-opacity="0.5" fill-rule="nonzero" stroke="black" stroke-width="0.15632603"/>
</g>
<g id="item_9">
<path d="M0,0 L14,0 L5,6 z" fill="#7A7A7A" fill-opacity="0.5" fill-rule="nonzero" stroke="black" stroke-width="0.15632603"/>
</g>
</defs>
<use transform="translate(17.294308 24.018768), rotate(0)" xlink:href="#item_5">
<title>item, id: 5, transf: [r: 0.000°, t: (17.294, 24.019)]</title>
</use>
<use transform="translate(0.0018153191 24.107727), rotate(0)" xlink:href="#item_5">
<title>item, id: 5, transf: [r: 0.000°, t: (0.002, 24.108)]</title>
</use>
<use transform="translate(18.297375 58.896225), rotate(-180)" xlink:href="#item_5">
<title>item, id: 5, transf: [r: -180.000°, t: (18.297, 58.896)]</title>
</use>
<use transform="translate(17.664755 0.00061511993), rotate(0)" xlink:href="#item_2">
<title>item, id: 2, transf: [r: 0.000°, t: (17.665, 0.001)]</title>
</use>
<use transform="translate(56.844955 54.999954), rotate(-180)" xlink:href="#item_2">
<title>item, id: 2, transf: [r: -180.000°, t: (56.845, 55.000)]</title>
</use>
<use transform="translate(11.0000515 24.019987), rotate(-180)" xlink:href="#item_2">
<title>item, id: 2, transf: [r: -180.000°, t: (11.000, 24.020)]</title>
</use>
<use transform="translate(31.844372 39.647255), rotate(0)" xlink:href="#item_3">
<title>item, id: 3, transf: [r: 0.000°, t: (31.844, 39.647)]</title>
</use>
<use transform="translate(56.845005 20.005932), rotate(-180)" xlink:href="#item_3">
<title>item, id: 3, transf: [r: -180.000°, t: (56.845, 20.006)]</title>
</use>
<use transform="translate(28.786495 5.007393), rotate(0)" xlink:href="#item_3">
<title>item, id: 3, transf: [r: 0.000°, t: (28.786, 5.007)]</title>
</use>
<use transform="translate(56.845818 5.0047145), rotate(-180)" xlink:href="#item_6">
<title>item, id: 6, transf: [r: -180.000°, t: (56.846, 5.005)]</title>
</use>
<use transform="translate(38.843132 59.99996), rotate(-180)" xlink:href="#item_6">
<title>item, id: 6, transf: [r: -180.000°, t: (38.843, 60.000)]</title>
</use>
<use transform="translate(56.84546 59.999996), rotate(-180)" xlink:href="#item_6">
<title>item, id: 6, transf: [r: -180.000°, t: (56.845, 60.000)]</title>
</use>
<use transform="translate(39.65136 29.014465), rotate(-180)" xlink:href="#item_0">
<title>item, id: 0, transf: [r: -180.000°, t: (39.651, 29.014)]</title>
</use>
<use transform="translate(55.658546 29.007736), rotate(-180)" xlink:href="#item_0">
<title>item, id: 0, transf: [r: -180.000°, t: (55.659, 29.008)]</title>
</use>
<use transform="translate(28.657707 20.00855), rotate(0)" xlink:href="#item_0">
<title>item, id: 0, transf: [r: 0.000°, t: (28.658, 20.009)]</title>
</use>
<use transform="translate(18.666931 24.02077), rotate(-180)" xlink:href="#item_1">
<title>item, id: 1, transf: [r: -180.000°, t: (18.667, 24.021)]</title>
</use>
<use transform="translate(31.902002 54.99775), rotate(-180)" xlink:href="#item_1">
<title>item, id: 1, transf: [r: -180.000°, t: (31.902, 54.998)]</title>
</use>
<use transform="translate(9.997465 0.0023794174), rotate(0)" xlink:href="#item_1">
<title>item, id: 1, transf: [r: 0.000°, t: (9.997, 0.002)]</title>
</use>
<use transform="translate(46.802197 33.616158), rotate(-180)" xlink:href="#item_9">
<title>item, id: 9, transf: [r: -180.000°, t: (46.802, 33.616)]</title>
</use>
<use transform="translate(25.304033 29.015305), rotate(0)" xlink:href="#item_9">
<title>item, id: 9, transf: [r: 0.000°, t: (25.304, 29.015)]</title>
</use>
<use transform="translate(5.10245 24.02122), rotate(0)" xlink:href="#item_9">
<title>item, id: 9, transf: [r: 0.000°, t: (5.102, 24.021)]</title>
</use>
<use transform="translate(26.841515 0.0065863132), rotate(0)" xlink:href="#item_4">
<title>item, id: 4, transf: [r: 0.000°, t: (26.842, 0.007)]</title>
</use>
<use transform="translate(53.66683 30.999872), rotate(-180)" xlink:href="#item_4">
<title>item, id: 4, transf: [r: -180.000°, t: (53.667, 31.000)]</title>
</use>
<use transform="translate(37.969906 33.624744), rotate(0)" xlink:href="#item_4">
<title>item, id: 4, transf: [r: 0.000°, t: (37.970, 33.625)]</title>
</use>
<use transform="translate(5.0911975 51.483887), rotate(0)" xlink:href="#item_7">
<title>item, id: 7, transf: [r: 0.000°, t: (5.091, 51.484)]</title>
</use>
<use transform="translate(26.817411 36.665478), rotate(0)" xlink:href="#item_7">
<title>item, id: 7, transf: [r: 0.000°, t: (26.817, 36.665)]</title>
</use>
<use transform="translate(56.845753 28.945644), rotate(-180)" xlink:href="#item_7">
<title>item, id: 7, transf: [r: -180.000°, t: (56.846, 28.946)]</title>
</use>
<use transform="translate(8.164273 59.999825), rotate(-180)" xlink:href="#item_8">
<title>item, id: 8, transf: [r: -180.000°, t: (8.164, 60.000)]</title>
</use>
<use transform="translate(38.37023 36.639633), rotate(-180)" xlink:href="#item_8">
<title>item, id: 8, transf: [r: -180.000°, t: (38.370, 36.640)]</title>
</use>
<use transform="translate(39.55665 39.646305), rotate(-180)" xlink:href="#item_8">
<title>item, id: 8, transf: [r: -180.000°, t: (39.557, 39.646)]</title>
</use>
</g>
<g id="quality_zones"/>
<g id="optionals">
<g id="overlap_lines" transform="translate(0 0), rotate(0)"/>
</g>
<text font-family="monospace" font-size="1.4211457" font-weight="500" x="0" y="-0.71057284">
height: 60.000 | width: 56.846 | usage: 88.969% | final_bench_90
</text>
</svg>