<svg viewBox="-2.8520088 -3.0000007 62.744183 66" xmlns="http://www.w3.org/2000/svg" xmlns:xlink="http://www.w3.org/1999/xlink">
<g id="bin_0">
<path d="M0,0 L57.040165,0 L57.040165,60 L0,60 z" fill="#D3D3D3" stroke="black" stroke-width="0.31372094"/>
<title>bin, id: 0, bbox: [x_min: 0.000, y_min: 0.000, x_max: 57.040, y_max: 60.000]</title>
</g>
<g id="items">
<defs>
<g id="item_0">
<path d="M0,8 L1,7 L7,5 L12,0 L15,3 L10,8 L11,9 L1,9 z" fill="#7A7A7A" fill-opacity="0.5" fill-rule="nonzero" stroke="black" stroke-width="0.15686047"/>
</g>
<g id="item_1">
<path d="M2,12 L0,0 L4,0 L4,1 L5,1 L5,0 L9,0 L9,2 L5,12 z" fill="#7A7A7A" fill-opacity="0.5" fill-rule="nonzero" stroke="black" stroke-width="0.15686047"/>
</g>
<g id="item_2">
<path d="M2,24 L0,18 L0,6 L2,0 L9,0 L11,6 L11,18 L9,24 z" fill="#7A7A7A" fill-opacity="0.5" fill-rule="nonzero" stroke="black" stroke-width="0.15686047"/>
</g>
<g id="item_3">
<path d="M0,15 L0,0 L14,0 L14,15 z" fill="#7A7A7A" fill-opacity="0.5" fill-rule="nonzero" stroke="black" stroke-width="0.15686047"/>
</g>
<g id="item_4">
<path d="M0,0 L9,0 L7,5 L2,5 z" fill="#7A7A7A" fill-opacity="0.5" fill-rule="nonzero" stroke="black" stroke-width="0.15686047"/>
</g>
<g id="item_5">
<path d="M0,32 L1,3 L3,0 L6,1 L11,11 L5,31 L2,33 z" fill="#7A7A7A" fill-opacity="0.5" fill-rule="nonzero" stroke="black" stroke-width="0.15686047"/>
</g>
<g id="item_6">
<path d="M0,3 L5,0 L23,0 L13,5 L1,5 z" fill="#7A7A7A" fill-opacity="0.5" fill-rule="nonzero" stroke="black" stroke-width="0.15686047"/>
</g>
<g id="item_7">
<path d="M1,0 L4,0 L5,6 L4,6 L4,5 L3,4 L2,4 L1,5 L1,6 L0,6 z" fill="#7A7A7A" fill-opacity="0.5" fill-rule="nonzero" stroke="black" stroke-width="0.15686047"/>
</g>
<g id="item_8">
<path d="M0,2 L1,0 L8,0 L6,3 z" fill="#7A7A7A" fill-opacity="0.5" fill-rule="nonzero" stroke="black" stroke-width="0.15686047"/>
</g>
<g id="item_9">
<path d="M0,0 L14,0 L5,6 z" fill="#7A7A7A" fill-opacity="0.5" fill-rule="nonzero" stroke="black" stroke-width="0.15686047"/>
</g>
</defs>
<use transform="translate(29.877785 19.281155), rotate(0)" xlink:href="#item_5">
<title>item, id: 5, transf: [r: 0.000°, t: (29.878, 19.281)]</title>
</use>
<use transform="translate(0.000035762787 0.0028324127), rotate(0)" xlink:href="#item_5">
<title>item, id: 5, transf: [r: 0.000°, t: (0.000, 0.003)]</title>
</use>
<use transform="translate(46.319725 59.809322), rotate(-180)" xlink:href="#item_5">
<title>item, id: 5, transf: [r: -180.000°, t: (46.320, 59.809)]</title>
</use>
<use transform="translate(57.04014 29.98238), rotate(-180)" xlink:href="#item_2">
<title>item, id: 2, transf: [r: -180.000°, t: (57.040, 29.982)]</title>
</use>
<use transform="translate(19.30127 20.99485), rotate(0)" xlink:href="#item_2">
<title>item, id: 2, transf: [r: 0.000°, t: (19.301, 20.995)]</title>
</use>
<use transform="translate(57.03933 53.982708), rotate(-180)" xlink:href="#item_2">
<title>item, id: 2, transf: [r: -180.000°, t: (57.039, 53.983)]</title>
</use>
<use transform="translate(5.301262 29.999355), rotate(0)" xlink:href="#item_3">
<title>item, id: 3, transf: [r: 0.000°, t: (5.301, 29.999)]</title>
</use>
<use transform="translate(28.005917 59.99975), rotate(-180)" xlink:href="#item_3">
<title>item, id: 3, transf: [r: -180.000°, t: (28.006, 60.000)]</title>
</use>
<use transform="translate(0.00049972534 44.999413), rotate(0)" xlink:href="#item_3">
<title>item, id: 3, transf: [r: 0.000°, t: (0.000, 44.999)]</title>
</use>
<use transform="translate(21.693253 5.0063705), rotate(0)" xlink:href="#item_6">
<title>item, id: 6, transf: [r: 0.000°, t: (21.693, 5.006)]</title>
</use>
<use transform="translate(57.037704 5.0046744), rotate(-180)" xlink:href="#item_6">
<title>item, id: 6, transf: [r: -180.000°, t: (57.038, 5.005)]</title>
</use>
<use transform="translate(21.033846 0.0063622), rotate(0)" xlink:href="#item_6">
<title>item, id: 6, transf: [r: 0.000°, t: (21.034, 0.006)]</title>
</use>
<use transform="translate(9.311658 8.632051), rotate(0)" xlink:href="#item_0">
<title>item, id: 0, transf: [r: 0.000°, t: (9.312, 8.632)]</title>
</use>
<use transform="translate(24.86118 9.436411), rotate(0)" xlink:href="#item_0">
<title>item, id: 0, transf: [r: 0.000°, t: (24.861, 9.436)]</title>
</use>
<use transform="translate(35.27317 19.021175), rotate(-180)" xlink:href="#item_0">
<title>item, id: 0, transf: [r: -180.000°, t: (35.273, 19.021)]</title>
</use>
<use transform="translate(45.99807 21.605312), rotate(-180)" xlink:href="#item_1">
<title>item, id: 1, transf: [r: -180.000°, t: (45.998, 21.605)]</title>
</use>
<use transform="translate(14.902058 29.99908), rotate(-180)" xlink:href="#item_1">
<title>item, id: 1, transf: [r: -180.000°, t: (14.902, 29.999)]</title>
</use>
<use transform="translate(12.844952 17.634064), rotate(0)" xlink:href="#item_1">
<title>item, id: 1, transf: [r: 0.000°, t: (12.845, 17.634)]</title>
</use>
<use transform="translate(5.1672254 0.0015485287), rotate(0)" xlink:href="#item_9">
<title>item, id: 9, transf: [r: 0.000°, t: (5.167, 0.002)]</title>
</use>
<use transform="translate(8.783295 6.561281), rotate(0)" xlink:href="#item_9">
<title>item, id: 9, transf: [r: 0.000°, t: (8.783, 6.561)]</title>
</use>
<use transform="translate(23.328014 6.5612655), rotate(-180)" xlink:href="#item_9">
<title>item, id: 9, transf: [r: -180.000°, t: (23.328, 6.561)]</title>
</use>
<use transform="translate(29.098713 54.99903), rotate(0)" xlink:href="#item_4">
<title>item, id: 4, transf: [r: 0.000°, t: (29.099, 54.999)]</title>
</use>
<use transform="translate(53.043934 59.999943), rotate(-180)" xlink:href="#item_4">
<title>item, id: 4, transf: [r: -180.000°, t: (53.044, 60.000)]</title>
</use>
<use transform="translate(37.04002 21.605442), rotate(0)" xlink:href="#item_4">
<title>item, id: 4, transf: [r: 0.000°, t: (37.040, 21.605)]</title>
</use>
<use transform="translate(5.257724 38.994858), rotate(-180)" xlink:href="#item_7">
<title>item, id: 7, transf: [r: -180.000°, t: (5.258, 38.995)]</title>
</use>
<use transform="translate(5.066705 44.997944), rotate(-180)" xlink:href="#item_7">
<title>item, id: 7, transf: [r: -180.000°, t: (5.067, 44.998)]</title>
</use>
<use transform="translate(57.040123 59.98599), rotate(-180)" xlink:href="#item_7">
<title>item, id: 7, transf: [r: -180.000°, t: (57.040, 59.986)]</title>
</use>
<use transform="translate(47.49728 9.6052475), rotate(-180)" xlink:href="#item_8">
<title>item, id: 8, transf: [r: -180.000°, t: (47.497, 9.605)]</title>
</use>
<use transform="translate(36.05922 54.99608), rotate(-180)" xlink:href="#item_8">
<title>item, id: 8, transf: [r: -180.000°, t: (36.059, 54.996)]</title>
</use>
<use transform="translate(25.402315 18.491764), rotate(0)" xlink:href="#item_8">
<title>item, id: 8, transf: [r: 0.000°, t: (25.402, 18.492)]</title>
</use>
</g>
<g id="quality_zones"/>
<g id="optionals">
<g id="overlap_lines" transform="translate(0 0), rotate(0)"/>
</g>
<text font-family="monospace" font-size="1.4260042" font-weight="500" x="0" y="-0.7130021">
height: 60.000 | width: 57.040 | usage: 88.666% | final_bench_64
</text>
</svg>