<svg viewBox="-2.8652952 -3.0000007 63.03648 66" xmlns="http://www.w3.org/2000/svg" xmlns:xlink="http://www.w3.org/1999/xlink">
<g id="bin_0">
<path d="M0,0 L57.30589,0 L57.30589,60 L0,60 z" fill="#D3D3D3" stroke="black" stroke-width="0.31518245"/>
<title>bin, id: 0, bbox: [x_min: 0.000, y_min: 0.000, x_max: 57.306, y_max: 60.000]</title>
</g>
<g id="items">
<defs>
<g id="item_0">
<path d="M0,8 L1,7 L7,5 L12,0 L15,3 L10,8 L11,9 L1,9 z" fill="#7A7A7A" fill-opacity="0.5" fill-rule="nonzero" stroke="black" stroke-width="0.15759122"/>
</g>
<g id="item_1">
<path d="M2,12 L0,0 L4,0 L4,1 L5,1 L5,0 L9,0 L9,2 L5,12 z" fill="#7A7A7A" fill-opacity="0.5" fill-rule="nonzero" stroke="black" stroke-width="0.15759122"/>
</g>
<g id="item_2">
<path d="M2,24 L0,18 L0,6 L2,0 L9,0 L11,6 L11,18 L9,24 z" fill="#7A7A7A" fill-opacity="0.5" fill-rule="nonzero" stroke="black" stroke-width="0.15759122"/>
</g>
<g id="item_3">
<path d="M0,15 L0,0 L14,0 L14,15 z" fill="#7A7A7A" fill-opacity="0.5" fill-rule="nonzero" stroke="black" stroke-width="0.15759122"/>
</g>
<g id="item_4">
<path d="M0,0 L9,0 L7,5 L2,5 z" fill="#7A7A7A" fill-opacity="0.5" fill-rule="nonzero" stroke="black" stroke-width="0.15759122"/>
</g>
<g id="item_5">
<path d="M0,32 L1,3 L3,0 L6,1 L11,11 L5,31 L2,33 z" fill="#7A7A7A" fill-opacity="0.5" fill-rule="nonzero" stroke="black" stroke-width="0.15759122"/>
</g>
<g id="item_6">
<path d="M0,3 L5,0 L23,0 L13,5 L1,5 z" fill="#7A7A7A" fill-opacity="0.5" fill-rule="nonzero" stroke="black" stroke-width="0.15759122"/>
</g>
<g id="item_7">
<path d="M1,0 L4,0 L5,6 L4,6 L4,5 L3,4 L2,4 L1,5 L1,6 L0,6 z" fill="#7A7A7A" fill-opacity="0.5" fill-rule="nonzero" stroke="black" stroke-width="0.15759122"/>
</g>
<g id="item_8">
<path d="M0,2 L1,0 L8,0 L6,3 z" fill="#7A7A7A" fill-opacity="0.5" fill-rule="nonzero" stroke="black" stroke-width="0.15759122"/>
</g>
<g id="item_9">
<path d="M0,0 L14,0 L5,6 z" fill="#7A7A7A" fill-opacity="0.5" fill-rule="nonzero" stroke="black" stroke-width="0.15759122"/>
</g>
</defs>
<use transform="translate(57.30458 59.61755), rotate(-180)" xlink:href="#item_5">
<title>item, id: 5, transf: [r: -180.000°, t: (57.305, 59.618)]</title>
</use>
<use transform="translate(0.0012292862 0.7368088), rotate(0)" xlink:href="#item_5">
<title>item, id: 5, transf: [r: 0.000°, t: (0.001, 0.737)]</title>
</use>
<use transform="translate(39.000454 25.29778), rotate(0)" xlink:href="#item_5">
<title>item, id: 5, transf: [r: 0.000°, t: (39.000, 25.298)]</title>
</use>
<use transform="translate(31.976803 39.488888), rotate(-180)" xlink:href="#item_2">
<title>item, id: 2, transf: [r: -180.000°, t: (31.977, 39.489)]</title>
</use>
<use transform="translate(46.303753 0.2611189), rotate(0)" xlink:href="#item_2">
<title>item, id: 2, transf: [r: 0.000°, t: (46.304, 0.261)]</title>
</use>
<use transform="translate(0.00016069412 35.998844), rotate(0)" xlink:href="#item_2">
<title>item, id: 2, transf: [r: 0.000°, t: (0.000, 35.999)]</title>
</use>
<use transform="translate(32.070316 9.262802), rotate(0)" xlink:href="#item_3">
<title>item, id: 3, transf: [r: 0.000°, t: (32.070, 9.263)]</title>
</use>
<use transform="translate(25.000168 59.999035), rotate(-180)" xlink:href="#item_3">
<title>item, id: 3, transf: [r: -180.000°, t: (25.000, 59.999)]</title>
</use>
<use transform="translate(25.000374 44.610855), rotate(0)" xlink:href="#item_3">
<title>item, id: 3, transf: [r: 0.000°, t: (25.000, 44.611)]</title>
</use>
<use transform="translate(35.038994 10.304895), rotate(-180)" xlink:href="#item_6">
<title>item, id: 6, transf: [r: -180.000°, t: (35.039, 10.305)]</title>
</use>
<use transform="translate(39.526024 44.610847), rotate(-180)" xlink:href="#item_6">
<title>item, id: 6, transf: [r: -180.000°, t: (39.526, 44.611)]</title>
</use>
<use transform="translate(42.576218 5.2731466), rotate(-180)" xlink:href="#item_6">
<title>item, id: 6, transf: [r: -180.000°, t: (42.576, 5.273)]</title>
</use>
<use transform="translate(20.908092 31.716343), rotate(-180)" xlink:href="#item_0">
<title>item, id: 0, transf: [r: -180.000°, t: (20.908, 31.716)]</title>
</use>
<use transform="translate(1.6359873 26.996641), rotate(0)" xlink:href="#item_0">
<title>item, id: 0, transf: [r: 0.000°, t: (1.636, 26.997)]</title>
</use>
<use transform="translate(26.634375 9.00324), rotate(-180)" xlink:href="#item_0">
<title>item, id: 0, transf: [r: -180.000°, t: (26.634, 9.003)]</title>
</use>
<use transform="translate(15.247705 10.309356), rotate(0)" xlink:href="#item_1">
<title>item, id: 1, transf: [r: 0.000°, t: (15.248, 10.309)]</title>
</use>
<use transform="translate(39.604332 39.60901), rotate(-180)" xlink:href="#item_1">
<title>item, id: 1, transf: [r: -180.000°, t: (39.604, 39.609)]</title>
</use>
<use transform="translate(17.31378 22.708702), rotate(-180)" xlink:href="#item_1">
<title>item, id: 1, transf: [r: -180.000°, t: (17.314, 22.709)]</title>
</use>
<use transform="translate(52.452774 59.99995), rotate(-180)" xlink:href="#item_9">
<title>item, id: 9, transf: [r: -180.000°, t: (52.453, 60.000)]</title>
</use>
<use transform="translate(46.104572 9.261435), rotate(-180)" xlink:href="#item_9">
<title>item, id: 9, transf: [r: -180.000°, t: (46.105, 9.261)]</title>
</use>
<use transform="translate(43.305767 24.263153), rotate(0)" xlink:href="#item_9">
<title>item, id: 9, transf: [r: 0.000°, t: (43.306, 24.263)]</title>
</use>
<use transform="translate(32.06896 15.421623), rotate(-180)" xlink:href="#item_4">
<title>item, id: 4, transf: [r: -180.000°, t: (32.069, 15.422)]</title>
</use>
<use transform="translate(5.633024 0.00017762184), rotate(0)" xlink:href="#item_4">
<title>item, id: 4, transf: [r: 0.000°, t: (5.633, 0.000)]</title>
</use>
<use transform="translate(9.005389 36.014076), rotate(0)" xlink:href="#item_4">
<title>item, id: 4, transf: [r: 0.000°, t: (9.005, 36.014)]</title>
</use>
<use transform="translate(17.133131 35.25674), rotate(0)" xlink:href="#item_7">
<title>item, id: 7, transf: [r: 0.000°, t: (17.133, 35.257)]</title>
</use>
<use transform="translate(20.976461 32.031483), rotate(-180)" xlink:href="#item_7">
<title>item, id: 7, transf: [r: -180.000°, t: (20.976, 32.031)]</title>
</use>
<use transform="translate(47.39042 6.0006056), rotate(-180)" xlink:href="#item_7">
<title>item, id: 7, transf: [r: -180.000°, t: (47.390, 6.001)]</title>
</use>
<use transform="translate(11.049785 41.342285), rotate(0)" xlink:href="#item_8">
<title>item, id: 8, transf: [r: 0.000°, t: (11.050, 41.342)]</title>
</use>
<use transform="translate(20.453327 35.225704), rotate(-180)" xlink:href="#item_8">
<title>item, id: 8, transf: [r: -180.000°, t: (20.453, 35.226)]</title>
</use>
<use transform="translate(33.987602 24.815987), rotate(0)" xlink:href="#item_8">
<title>item, id: 8, transf: [r: 0.000°, t: (33.988, 24.816)]</title>
</use>
</g>
<g id="quality_zones"/>
<g id="optionals">
<g id="overlap_lines" transform="translate(0 0), rotate(0)"/>
</g>
<text font-family="monospace" font-size="1.4326472" font-weight="500" x="0" y="-0.7163236">
height: 60.000 | width: 57.306 | usage: 88.254% | final_bench_14
</text>
</svg>