<svg viewBox="-2.8613 -3.0000007 62.94859 66" xmlns="http://www.w3.org/2000/svg" xmlns:xlink="http://www.w3.org/1999/xlink">
<g id="bin_0">
<path d="M0,0 L57.225986,0 L57.225986,60 L0,60 z" fill="#D3D3D3" stroke="black" stroke-width="0.31474295"/>
<title>bin, id: 0, bbox: [x_min: 0.000, y_min: 0.000, x_max: 57.226, y_max: 60.000]</title>
</g>
<g id="items">
<defs>
<g id="item_0">
<path d="M0,8 L1,7 L7,5 L12,0 L15,3 L10,8 L11,9 L1,9 z" fill="#7A7A7A" fill-opacity="0.5" fill-rule="nonzero" stroke="black" stroke-width="0.15737148"/>
</g>
<g id="item_1">
<path d="M2,12 L0,0 L4,0 L4,1 L5,1 L5,0 L9,0 L9,2 L5,12 z" fill="#7A7A7A" fill-opacity="0.5" fill-rule="nonzero" stroke="black" stroke-width="0.15737148"/>
</g>
<g id="item_2">
<path d="M2,24 L0,18 L0,6 L2,0 L9,0 L11,6 L11,18 L9,24 z" fill="#7A7A7A" fill-opacity="0.5" fill-rule="nonzero" stroke="black" stroke-width="0.15737148"/>
</g>
<g id="item_3">
<path d="M0,15 L0,0 L14,0 L14,15 z" fill="#7A7A7A" fill-opacity="0.5" fill-rule="nonzero" stroke="black" stroke-width="0.15737148"/>
</g>
<g id="item_4">
<path d="M0,0 L9,0 L7,5 L2,5 z" fill="#7A7A7A" fill-opacity="0.5" fill-rule="nonzero" stroke="black" stroke-width="0.15737148"/>
</g>
<g id="item_5">
<path d="M0,32 L1,3 L3,0 L6,1 L11,11 L5,31 L2,33 z" fill="#7A7A7A" fill-opacity="0.5" fill-rule="nonzero" stroke="black" stroke-width="0.15737148"/>
</g>
<g id="item_6">
<path d="M0,3 L5,0 L23,0 L13,5 L1,5 z" fill="#7A7A7A" fill-opacity="0.5" fill-rule="nonzero" stroke="black" stroke-width="0.15737148"/>
</g>
<g id="item_7">
<path d="M1,0 L4,0 L5,6 L4,6 L4,5 L3,4 L2,4 L1,5 L1,6 L0,6 z" fill="#7A7A7A" fill-opacity="0.5" fill-rule="nonzero" stroke="black" stroke-width="0.15737148"/>
</g>
<g id="item_8">
<path d="M0,2 L1,0 L8,0 L6,3 z" fill="#7A7A7A" fill-opacity="0.5" fill-rule="nonzero" stroke="black" stroke-width="0.15737148"/>
</g>
<g id="item_9">
<path d="M0,0 L14,0 L5,6 z" fill="#7A7A7A" fill-opacity="0.5" fill-rule="nonzero" stroke="black" stroke-width="0.15737148"/>
</g>
</defs>
<use transform="translate(42.072987 15.031511), rotate(0)" xlink:href="#item_5">
<title>item, id: 5, transf: [r: 0.000°, t: (42.073, 15.032)]</title>
</use>
<use transform="translate(43.221714 45.60737), rotate(-180)" xlink:href="#item_5">
<title>item, id: 5, transf: [r: -180.000°, t: (43.222, 45.607)]</title>
</use>
<use transform="translate(57.22471 59.860786), rotate(-180)" xlink:href="#item_5">
<title>item, id: 5, transf: [r: -180.000°, t: (57.225, 59.861)]</title>
</use>
<use transform="translate(11.005894 30.998123), rotate(0)" xlink:href="#item_2">
<title>item, id: 2, transf: [r: 0.000°, t: (11.006, 30.998)]</title>
</use>
<use transform="translate(0.0035338402 29.974537), rotate(0)" xlink:href="#item_2">
<title>item, id: 2, transf: [r: 0.000°, t: (0.004, 29.975)]</title>
</use>
<use transform="translate(22.010906 30.99818), rotate(0)" xlink:href="#item_2">
<title>item, id: 2, transf: [r: 0.000°, t: (22.011, 30.998)]</title>
</use>
<use transform="translate(43.225624 0.027242184), rotate(0)" xlink:href="#item_3">
<title>item, id: 3, transf: [r: 0.000°, t: (43.226, 0.027)]</title>
</use>
<use transform="translate(28.000269 20.670176), rotate(-180)" xlink:href="#item_3">
<title>item, id: 3, transf: [r: -180.000°, t: (28.000, 20.670)]</title>
</use>
<use transform="translate(14.000014 20.677534), rotate(-180)" xlink:href="#item_3">
<title>item, id: 3, transf: [r: -180.000°, t: (14.000, 20.678)]</title>
</use>
<use transform="translate(8.668402 54.998188), rotate(0)" xlink:href="#item_6">
<title>item, id: 6, transf: [r: 0.000°, t: (8.668, 54.998)]</title>
</use>
<use transform="translate(0.000032424927 0.0012516975), rotate(0)" xlink:href="#item_6">
<title>item, id: 6, transf: [r: 0.000°, t: (0.000, 0.001)]</title>
</use>
<use transform="translate(34.667328 5.6700487), rotate(-180)" xlink:href="#item_6">
<title>item, id: 6, transf: [r: -180.000°, t: (34.667, 5.670)]</title>
</use>
<use transform="translate(13.083928 21.996687), rotate(0)" xlink:href="#item_0">
<title>item, id: 0, transf: [r: 0.000°, t: (13.084, 21.997)]</title>
</use>
<use transform="translate(15.002378 29.677546), rotate(-180)" xlink:href="#item_0">
<title>item, id: 0, transf: [r: -180.000°, t: (15.002, 29.678)]</title>
</use>
<use transform="translate(25.406946 29.671795), rotate(-180)" xlink:href="#item_0">
<title>item, id: 0, transf: [r: -180.000°, t: (25.407, 29.672)]</title>
</use>
<use transform="translate(34.22546 0.00039958954), rotate(0)" xlink:href="#item_1">
<title>item, id: 1, transf: [r: 0.000°, t: (34.225, 0.000)]</title>
</use>
<use transform="translate(37.000305 16.65103), rotate(-180)" xlink:href="#item_1">
<title>item, id: 1, transf: [r: -180.000°, t: (37.000, 16.651)]</title>
</use>
<use transform="translate(28.008379 16.651176), rotate(0)" xlink:href="#item_1">
<title>item, id: 1, transf: [r: 0.000°, t: (28.008, 16.651)]</title>
</use>
<use transform="translate(33.17629 53.980774), rotate(0)" xlink:href="#item_9">
<title>item, id: 9, transf: [r: 0.000°, t: (33.176, 53.981)]</title>
</use>
<use transform="translate(38.168472 59.998703), rotate(-180)" xlink:href="#item_9">
<title>item, id: 9, transf: [r: -180.000°, t: (38.168, 59.999)]</title>
</use>
<use transform="translate(52.169006 59.996754), rotate(-180)" xlink:href="#item_9">
<title>item, id: 9, transf: [r: -180.000°, t: (52.169, 59.997)]</title>
</use>
<use transform="translate(33.071346 46.243153), rotate(0)" xlink:href="#item_4">
<title>item, id: 4, transf: [r: 0.000°, t: (33.071, 46.243)]</title>
</use>
<use transform="translate(48.269226 53.97226), rotate(-180)" xlink:href="#item_4">
<title>item, id: 4, transf: [r: -180.000°, t: (48.269, 53.972)]</title>
</use>
<use transform="translate(48.2247 15.32644), rotate(0)" xlink:href="#item_4">
<title>item, id: 4, transf: [r: 0.000°, t: (48.225, 15.326)]</title>
</use>
<use transform="translate(57.208454 26.82563), rotate(-180)" xlink:href="#item_7">
<title>item, id: 7, transf: [r: -180.000°, t: (57.208, 26.826)]</title>
</use>
<use transform="translate(5.0000277 59.974934), rotate(-180)" xlink:href="#item_7">
<title>item, id: 7, transf: [r: -180.000°, t: (5.000, 59.975)]</title>
</use>
<use transform="translate(3.9982119 53.987907), rotate(0)" xlink:href="#item_7">
<title>item, id: 7, transf: [r: 0.000°, t: (3.998, 53.988)]</title>
</use>
<use transform="translate(11.708509 29.973795), rotate(-180)" xlink:href="#item_8">
<title>item, id: 8, transf: [r: -180.000°, t: (11.709, 29.974)]</title>
</use>
<use transform="translate(32.083717 30.997814), rotate(-180)" xlink:href="#item_8">
<title>item, id: 8, transf: [r: -180.000°, t: (32.084, 30.998)]</title>
</use>
<use transform="translate(39.38891 53.97388), rotate(-180)" xlink:href="#item_8">
<title>item, id: 8, transf: [r: -180.000°, t: (39.389, 53.974)]</title>
</use>
</g>
<g id="quality_zones"/>
<g id="optionals">
<g id="overlap_lines" transform="translate(0 0), rotate(0)"/>
</g>
<text font-family="monospace" font-size="1.4306496" font-weight="500" x="0" y="-0.7153248">
height: 60.000 | width: 57.226 | usage: 88.378% | final_bench_61
</text>
</svg>