<svg viewBox="-2.8509588 -3.0000007 62.721085 66" xmlns="http://www.w3.org/2000/svg" xmlns:xlink="http://www.w3.org/1999/xlink">
<g id="bin_0">
<path d="M0,0 L57.019165,0 L57.019165,60 L0,60 z" fill="#D3D3D3" stroke="black" stroke-width="0.31360543"/>
<title>bin, id: 0, bbox: [x_min: 0.000, y_min: 0.000, x_max: 57.019, y_max: 60.000]</title>
</g>
<g id="items">
<defs>
<g id="item_0">
<path d="M0,8 L1,7 L7,5 L12,0 L15,3 L10,8 L11,9 L1,9 z" fill="#7A7A7A" fill-opacity="0.5" fill-rule="nonzero" stroke="black" stroke-width="0.15680271"/>
</g>
<g id="item_1">
<path d="M2,12 L0,0 L4,0 L4,1 L5,1 L5,0 L9,0 L9,2 L5,12 z" fill="#7A7A7A" fill-opacity="0.5" fill-rule="nonzero" stroke="black" stroke-width="0.15680271"/>
</g>
<g id="item_2">
<path d="M2,24 L0,18 L0,6 L2,0 L9,0 L11,6 L11,18 L9,24 z" fill="#7A7A7A" fill-opacity="0.5" fill-rule="nonzero" stroke="black" stroke-width="0.15680271"/>
</g>
<g id="item_3">
<path d="M0,15 L0,0 L14,0 L14,15 z" fill="#7A7A7A" fill-opacity="0.5" fill-rule="nonzero" stroke="black" stroke-width="0.15680271"/>
</g>
<g id="item_4">
<path d="M0,0 L9,0 L7,5 L2,5 z" fill="#7A7A7A" fill-opacity="0.5" fill-rule="nonzero" stroke="black" stroke-width="0.15680271"/>
</g>
<g id="item_5">
<path d="M0,32 L1,3 L3,0 L6,1 L11,11 L5,31 L2,33 z" fill="#7A7A7A" fill-opacity="0.5" fill-rule="nonzero" stroke="black" stroke-width="0.15680271"/>
</g>
<g id="item_6">
<path d="M0,3 L5,0 L23,0 L13,5 L1,5 z" fill="#7A7A7A" fill-opacity="0.5" fill-rule="nonzero" stroke="black" stroke-width="0.15680271"/>
</g>
<g id="item_7">
<path d="M1,0 L4,0 L5,6 L4,6 L4,5 L3,4 L2,4 L1,5 L1,6 L0,6 z" fill="#7A7A7A" fill-opacity="0.5" fill-rule="nonzero" stroke="black" stroke-width="0.15680271"/>
</g>
<g id="item_8">
<path d="M0,2 L1,0 L8,0 L6,3 z" fill="#7A7A7A" fill-opacity="0.5" fill-rule="nonzero" stroke="black" stroke-width="0.15680271"/>
</g>
<g id="item_9">
<path d="M0,0 L14,0 L5,6 z" fill="#7A7A7A" fill-opacity="0.5" fill-rule="nonzero" stroke="black" stroke-width="0.15680271"/>
</g>
</defs>
<use transform="translate(40.26966 58.01383), rotate(-180)" xlink:href="#item_5">
<title>item, id: 5, transf: [r: -180.000°, t: (40.270, 58.014)]</title>
</use>
<use transform="translate(24.898521 13.908649), rotate(0)" xlink:href="#item_5">
<title>item, id: 5, transf: [r: 0.000°, t: (24.899, 13.909)]</title>
</use>
<use transform="translate(39.589996 14.050659), rotate(0)" xlink:href="#item_5">
<title>item, id: 5, transf: [r: 0.000°, t: (39.590, 14.051)]</title>
</use>
<use transform="translate(11.000338 24.052475), rotate(-180)" xlink:href="#item_2">
<title>item, id: 2, transf: [r: -180.000°, t: (11.000, 24.052)]</title>
</use>
<use transform="translate(46.01898 35.65001), rotate(0)" xlink:href="#item_2">
<title>item, id: 2, transf: [r: 0.000°, t: (46.019, 35.650)]</title>
</use>
<use transform="translate(25.016338 48.009193), rotate(-180)" xlink:href="#item_2">
<title>item, id: 2, transf: [r: -180.000°, t: (25.016, 48.009)]</title>
</use>
<use transform="translate(0.00036478043 39.11956), rotate(0)" xlink:href="#item_3">
<title>item, id: 3, transf: [r: 0.000°, t: (0.000, 39.120)]</title>
</use>
<use transform="translate(11.004158 9.007875), rotate(0)" xlink:href="#item_3">
<title>item, id: 3, transf: [r: 0.000°, t: (11.004, 9.008)]</title>
</use>
<use transform="translate(14.001654 39.053135), rotate(-180)" xlink:href="#item_3">
<title>item, id: 3, transf: [r: -180.000°, t: (14.002, 39.053)]</title>
</use>
<use transform="translate(30.993757 0.000344038), rotate(0)" xlink:href="#item_6">
<title>item, id: 6, transf: [r: 0.000°, t: (30.994, 0.000)]</title>
</use>
<use transform="translate(0.0002193451 54.128994), rotate(0)" xlink:href="#item_6">
<title>item, id: 6, transf: [r: 0.000°, t: (0.000, 54.129)]</title>
</use>
<use transform="translate(34.26068 59.99974), rotate(-180)" xlink:href="#item_6">
<title>item, id: 6, transf: [r: -180.000°, t: (34.261, 60.000)]</title>
</use>
<use transform="translate(11.000682 0.007757187), rotate(0)" xlink:href="#item_0">
<title>item, id: 0, transf: [r: 0.000°, t: (11.001, 0.008)]</title>
</use>
<use transform="translate(37.22905 2.3828225), rotate(0)" xlink:href="#item_0">
<title>item, id: 0, transf: [r: 0.000°, t: (37.229, 2.383)]</title>
</use>
<use transform="translate(45.002064 14.00669), rotate(-180)" xlink:href="#item_0">
<title>item, id: 0, transf: [r: -180.000°, t: (45.002, 14.007)]</title>
</use>
<use transform="translate(57.018177 18.648457), rotate(-180)" xlink:href="#item_1">
<title>item, id: 1, transf: [r: -180.000°, t: (57.018, 18.648)]</title>
</use>
<use transform="translate(57.01175 35.649315), rotate(-180)" xlink:href="#item_1">
<title>item, id: 1, transf: [r: -180.000°, t: (57.012, 35.649)]</title>
</use>
<use transform="translate(47.075695 59.99919), rotate(-180)" xlink:href="#item_1">
<title>item, id: 1, transf: [r: -180.000°, t: (47.076, 59.999)]</title>
</use>
<use transform="translate(32.82562 54.128628), rotate(-180)" xlink:href="#item_9">
<title>item, id: 9, transf: [r: -180.000°, t: (32.826, 54.129)]</title>
</use>
<use transform="translate(8.971489 0.0045597553), rotate(0)" xlink:href="#item_9">
<title>item, id: 9, transf: [r: 0.000°, t: (8.971, 0.005)]</title>
</use>
<use transform="translate(14.002308 48.009823), rotate(0)" xlink:href="#item_9">
<title>item, id: 9, transf: [r: 0.000°, t: (14.002, 48.010)]</title>
</use>
<use transform="translate(32.69741 8.311092), rotate(-180)" xlink:href="#item_4">
<title>item, id: 4, transf: [r: -180.000°, t: (32.697, 8.311)]</title>
</use>
<use transform="translate(31.072643 14.013244), rotate(0)" xlink:href="#item_4">
<title>item, id: 4, transf: [r: 0.000°, t: (31.073, 14.013)]</title>
</use>
<use transform="translate(47.893192 18.649311), rotate(0)" xlink:href="#item_4">
<title>item, id: 4, transf: [r: 0.000°, t: (47.893, 18.649)]</title>
</use>
<use transform="translate(25.11641 8.3131485), rotate(0)" xlink:href="#item_7">
<title>item, id: 7, transf: [r: 0.000°, t: (25.116, 8.313)]</title>
</use>
<use transform="translate(40.522125 25.013634), rotate(-180)" xlink:href="#item_7">
<title>item, id: 7, transf: [r: -180.000°, t: (40.522, 25.014)]</title>
</use>
<use transform="translate(52.018852 0.64591885), rotate(0)" xlink:href="#item_7">
<title>item, id: 7, transf: [r: 0.000°, t: (52.019, 0.646)]</title>
</use>
<use transform="translate(41.903156 11.934666), rotate(0)" xlink:href="#item_8">
<title>item, id: 8, transf: [r: 0.000°, t: (41.903, 11.935)]</title>
</use>
<use transform="translate(24.993702 0.0002270937), rotate(0)" xlink:href="#item_8">
<title>item, id: 8, transf: [r: 0.000°, t: (24.994, 0.000)]</title>
</use>
<use transform="translate(41.996784 14.012184), rotate(-180)" xlink:href="#item_8">
<title>item, id: 8, transf: [r: -180.000°, t: (41.997, 14.012)]</title>
</use>
</g>
<g id="quality_zones"/>
<g id="optionals">
<g id="overlap_lines" transform="translate(0 0), rotate(0)"/>
</g>
<text font-family="monospace" font-size="1.4254792" font-weight="500" x="0" y="-0.7127396">
height: 60.000 | width: 57.019 | usage: 88.698% | final_bench_29
</text>
</svg>