<svg viewBox="-2.8044987 -3.0000007 61.69896 66" xmlns="http://www.w3.org/2000/svg" xmlns:xlink="http://www.w3.org/1999/xlink">
<g id="bin_0">
<path d="M0,0 L56.089962,0 L56.089962,60 L0,60 z" fill="#D3D3D3" stroke="black" stroke-width="0.3084948"/>
<title>bin, id: 0, bbox: [x_min: 0.000, y_min: 0.000, x_max: 56.090, y_max: 60.000]</title>
</g>
<g id="items">
<defs>
<g id="item_0">
<path d="M0,8 L1,7 L7,5 L12,0 L15,3 L10,8 L11,9 L1,9 z" fill="#7A7A7A" fill-opacity="0.5" fill-rule="nonzero" stroke="black" stroke-width="0.1542474"/>
</g>
<g id="item_1">
<path d="M2,12 L0,0 L4,0 L4,1 L5,1 L5,0 L9,0 L9,2 L5,12 z" fill="#7A7A7A" fill-opacity="0.5" fill-rule="nonzero" stroke="black" stroke-width="0.1542474"/>
</g>
<g id="item_2">
<path d="M2,24 L0,18 L0,6 L2,0 L9,0 L11,6 L11,18 L9,24 z" fill="#7A7A7A" fill-opacity="0.5" fill-rule="nonzero" stroke="black" stroke-width="0.1542474"/>
</g>
<g id="item_3">
<path d="M0,15 L0,0 L14,0 L14,15 z" fill="#7A7A7A" fill-opacity="0.5" fill-rule="nonzero" stroke="black" stroke-width="0.1542474"/>
</g>
<g id="item_4">
<path d="M0,0 L9,0 L7,5 L2,5 z" fill="#7A7A7A" fill-opacity="0.5" fill-rule="nonzero" stroke="black" stroke-width="0.1542474"/>
</g>
<g id="item_5">
<path d="M0,32 L1,3 L3,0 L6,1 L11,11 L5,31 L2,33 z" fill="#7A7A7A" fill-opacity="0.5" fill-rule="nonzero" stroke="black" stroke-width="0.1542474"/>
</g>
<g id="item_6">
<path d="M0,3 L5,0 L23,0 L13,5 L1,5 z" fill="#7A7A7A" fill-opacity="0.5" fill-rule="nonzero" stroke="black" stroke-width="0.1542474"/>
</g>
<g id="item_7">
<path d="M1,0 L4,0 L5,6 L4,6 L4,5 L3,4 L2,4 L1,5 L1,6 L0,6 z" fill="#7A7A7A" fill-opacity="0.5" fill-rule="nonzero" stroke="black" stroke-width="0.1542474"/>
</g>
<g id="item_8">
<path d="M0,2 L1,0 L8,0 L6,3 z" fill="#7A7A7A" fill-opacity="0.5" fill-rule="nonzero" stroke="black" stroke-width="0.1542474"/>
</g>
<g id="item_9">
<path d="M0,0 L14,0 L5,6 z" fill="#7A7A7A" fill-opacity="0.5" fill-rule="nonzero" stroke="black" stroke-width="0.1542474"/>
</g>
</defs>
<use transform="translate(42.0885 56.890995), rotate(-180)" xlink:href="#item_5">
<title>item, id: 5, transf: [r: -180.000°, t: (42.089, 56.891)]</title>
</use>
<use transform="translate(26.007872 53.826405), rotate(-180)" xlink:href="#item_5">
<title>item, id: 5, transf: [r: -180.000°, t: (26.008, 53.826)]</title>
</use>
<use transform="translate(25.022682 18.41187), rotate(0)" xlink:href="#item_5">
<title>item, id: 5, transf: [r: 0.000°, t: (25.023, 18.412)]</title>
</use>
<use transform="translate(56.089294 24.000553), rotate(-180)" xlink:href="#item_2">
<title>item, id: 2, transf: [r: -180.000°, t: (56.089, 24.001)]</title>
</use>
<use transform="translate(11.000551 24.271881), rotate(-180)" xlink:href="#item_2">
<title>item, id: 2, transf: [r: -180.000°, t: (11.001, 24.272)]</title>
</use>
<use transform="translate(11.000054 48.319077), rotate(-180)" xlink:href="#item_2">
<title>item, id: 2, transf: [r: -180.000°, t: (11.000, 48.319)]</title>
</use>
<use transform="translate(42.05699 39.961285), rotate(0)" xlink:href="#item_3">
<title>item, id: 3, transf: [r: 0.000°, t: (42.057, 39.961)]</title>
</use>
<use transform="translate(42.088963 24.00308), rotate(0)" xlink:href="#item_3">
<title>item, id: 3, transf: [r: 0.000°, t: (42.089, 24.003)]</title>
</use>
<use transform="translate(25.002441 15.408758), rotate(-180)" xlink:href="#item_3">
<title>item, id: 3, transf: [r: -180.000°, t: (25.002, 15.409)]</title>
</use>
<use transform="translate(55.89585 59.98806), rotate(-180)" xlink:href="#item_6">
<title>item, id: 6, transf: [r: -180.000°, t: (55.896, 59.988)]</title>
</use>
<use transform="translate(36.642303 59.999863), rotate(-180)" xlink:href="#item_6">
<title>item, id: 6, transf: [r: -180.000°, t: (36.642, 60.000)]</title>
</use>
<use transform="translate(0.64153576 54.999935), rotate(0)" xlink:href="#item_6">
<title>item, id: 6, transf: [r: 0.000°, t: (0.642, 55.000)]</title>
</use>
<use transform="translate(37.429287 21.005241), rotate(-180)" xlink:href="#item_0">
<title>item, id: 0, transf: [r: -180.000°, t: (37.429, 21.005)]</title>
</use>
<use transform="translate(30.088802 9.6510315), rotate(0)" xlink:href="#item_0">
<title>item, id: 0, transf: [r: 0.000°, t: (30.089, 9.651)]</title>
</use>
<use transform="translate(9.128676 16.704779), rotate(0)" xlink:href="#item_0">
<title>item, id: 0, transf: [r: 0.000°, t: (9.129, 16.705)]</title>
</use>
<use transform="translate(24.93511 0.003528595), rotate(0)" xlink:href="#item_1">
<title>item, id: 1, transf: [r: 0.000°, t: (24.935, 0.004)]</title>
</use>
<use transform="translate(10.234461 25.719929), rotate(0)" xlink:href="#item_1">
<title>item, id: 1, transf: [r: 0.000°, t: (10.234, 25.720)]</title>
</use>
<use transform="translate(39.73466 12.005127), rotate(-180)" xlink:href="#item_1">
<title>item, id: 1, transf: [r: -180.000°, t: (39.735, 12.005)]</title>
</use>
<use transform="translate(21.688171 54.969078), rotate(-180)" xlink:href="#item_9">
<title>item, id: 9, transf: [r: -180.000°, t: (21.688, 54.969)]</title>
</use>
<use transform="translate(3.310862 48.552986), rotate(0)" xlink:href="#item_9">
<title>item, id: 9, transf: [r: 0.000°, t: (3.311, 48.553)]</title>
</use>
<use transform="translate(35.642788 54.999596), rotate(-180)" xlink:href="#item_9">
<title>item, id: 9, transf: [r: -180.000°, t: (35.643, 55.000)]</title>
</use>
<use transform="translate(38.088074 0.0011513233), rotate(0)" xlink:href="#item_4">
<title>item, id: 4, transf: [r: 0.000°, t: (38.088, 0.001)]</title>
</use>
<use transform="translate(47.04991 23.890959), rotate(-180)" xlink:href="#item_4">
<title>item, id: 4, transf: [r: -180.000°, t: (47.050, 23.891)]</title>
</use>
<use transform="translate(31.143066 18.651546), rotate(0)" xlink:href="#item_4">
<title>item, id: 4, transf: [r: 0.000°, t: (31.143, 18.652)]</title>
</use>
<use transform="translate(10.461143 39.55286), rotate(0)" xlink:href="#item_7">
<title>item, id: 7, transf: [r: 0.000°, t: (10.461, 39.553)]</title>
</use>
<use transform="translate(0.0022287369 49.3833), rotate(0)" xlink:href="#item_7">
<title>item, id: 7, transf: [r: 0.000°, t: (0.002, 49.383)]</title>
</use>
<use transform="translate(39.576588 5.034239), rotate(0)" xlink:href="#item_7">
<title>item, id: 7, transf: [r: 0.000°, t: (39.577, 5.034)]</title>
</use>
<use transform="translate(16.86137 48.55298), rotate(-180)" xlink:href="#item_8">
<title>item, id: 8, transf: [r: -180.000°, t: (16.861, 48.553)]</title>
</use>
<use transform="translate(10.226606 18.600437), rotate(0)" xlink:href="#item_8">
<title>item, id: 8, transf: [r: 0.000°, t: (10.227, 18.600)]</title>
</use>
<use transform="translate(12.692123 15.676039), rotate(0)" xlink:href="#item_8">
<title>item, id: 8, transf: [r: 0.000°, t: (12.692, 15.676)]</title>
</use>
</g>
<g id="quality_zones"/>
<g id="optionals">
<g id="overlap_lines" transform="translate(0 0), rotate(0)"/>
</g>
<text font-family="monospace" font-size="1.4022491" font-weight="500" x="0" y="-0.70112455">
height: 60.000 | width: 56.090 | usage: 90.168% | final_bench_51
</text>
</svg>