<svg viewBox="-2.826795 -3.0000007 62.189476 66" xmlns="http://www.w3.org/2000/svg" xmlns:xlink="http://www.w3.org/1999/xlink">
<g id="bin_0">
<path d="M0,0 L56.53589,0 L56.53589,60 L0,60 z" fill="#D3D3D3" stroke="black" stroke-width="0.3109474"/>
<title>bin, id: 0, bbox: [x_min: 0.000, y_min: 0.000, x_max: 56.536, y_max: 60.000]</title>
</g>
<g id="items">
<defs>
<g id="item_0">
<path d="M0,8 L1,7 L7,5 L12,0 L15,3 L10,8 L11,9 L1,9 z" fill="#7A7A7A" fill-opacity="0.5" fill-rule="nonzero" stroke="black" stroke-width="0.1554737"/>
</g>
<g id="item_1">
<path d="M2,12 L0,0 L4,0 L4,1 L5,1 L5,0 L9,0 L9,2 L5,12 z" fill="#7A7A7A" fill-opacity="0.5" fill-rule="nonzero" stroke="black" stroke-width="0.1554737"/>
</g>
<g id="item_2">
<path d="M2,24 L0,18 L0,6 L2,0 L9,0 L11,6 L11,18 L9,24 z" fill="#7A7A7A" fill-opacity="0.5" fill-rule="nonzero" stroke="black" stroke-width="0.1554737"/>
</g>
<g id="item_3">
<path d="M0,15 L0,0 L14,0 L14,15 z" fill="#7A7A7A" fill-opacity="0.5" fill-rule="nonzero" stroke="black" stroke-width="0.1554737"/>
</g>
<g id="item_4">
<path d="M0,0 L9,0 L7,5 L2,5 z" fill="#7A7A7A" fill-opacity="0.5" fill-rule="nonzero" stroke="black" stroke-width="0.1554737"/>
</g>
<g id="item_5">
<path d="M0,32 L1,3 L3,0 L6,1 L11,11 L5,31 L2,33 z" fill="#7A7A7A" fill-opacity="0.5" fill-rule="nonzero" stroke="black" stroke-width="0.1554737"/>
</g>
<g id="item_6">
<path d="M0,3 L5,0 L23,0 L13,5 L1,5 z" fill="#7A7A7A" fill-opacity="0.5" fill-rule="nonzero" stroke="black" stroke-width="0.1554737"/>
</g>
<g id="item_7">
<path d="M1,0 L4,0 L5,6 L4,6 L4,5 L3,4 L2,4 L1,5 L1,6 L0,6 z" fill="#7A7A7A" fill-opacity="0.5" fill-rule="nonzero" stroke="black" stroke-width="0.1554737"/>
</g>
<g id="item_8">
<path d="M0,2 L1,0 L8,0 L6,3 z" fill="#7A7A7A" fill-opacity="0.5" fill-rule="nonzero" stroke="black" stroke-width="0.1554737"/>
</g>
<g id="item_9">
<path d="M0,0 L14,0 L5,6 z" fill="#7A7A7A" fill-opacity="0.5" fill-rule="nonzero" stroke="black" stroke-width="0.1554737"/>
</g>
</defs>
<use transform="translate(41.42381 15.017288), rotate(0)" xlink:href="#item_5">
<title>item, id: 5, transf: [r: 0.000°, t: (41.424, 15.017)]</title>
</use>
<use transform="translate(42.3936 50.88016), rotate(-180)" xlink:href="#item_5">
<title>item, id: 5, transf: [r: -180.000°, t: (42.394, 50.880)]</title>
</use>
<use transform="translate(56.535797 59.98409), rotate(-180)" xlink:href="#item_5">
<title>item, id: 5, transf: [r: -180.000°, t: (56.536, 59.984)]</title>
</use>
<use transform="translate(0.0000009536743 24.716003), rotate(0)" xlink:href="#item_2">
<title>item, id: 2, transf: [r: 0.000°, t: (0.000, 24.716)]</title>
</use>
<use transform="translate(28.535212 24.183434), rotate(-180)" xlink:href="#item_2">
<title>item, id: 2, transf: [r: -180.000°, t: (28.535, 24.183)]</title>
</use>
<use transform="translate(11.000025 24.432354), rotate(-180)" xlink:href="#item_2">
<title>item, id: 2, transf: [r: -180.000°, t: (11.000, 24.432)]</title>
</use>
<use transform="translate(42.535652 0.0072398186), rotate(0)" xlink:href="#item_3">
<title>item, id: 3, transf: [r: 0.000°, t: (42.536, 0.007)]</title>
</use>
<use transform="translate(25.001286 44.18507), rotate(-180)" xlink:href="#item_3">
<title>item, id: 3, transf: [r: -180.000°, t: (25.001, 44.185)]</title>
</use>
<use transform="translate(28.5355 0.111598015), rotate(0)" xlink:href="#item_3">
<title>item, id: 3, transf: [r: 0.000°, t: (28.535, 0.112)]</title>
</use>
<use transform="translate(5.6416807 54.999687), rotate(0)" xlink:href="#item_6">
<title>item, id: 6, transf: [r: 0.000°, t: (5.642, 55.000)]</title>
</use>
<use transform="translate(35.498207 29.185059), rotate(-180)" xlink:href="#item_6">
<title>item, id: 6, transf: [r: -180.000°, t: (35.498, 29.185)]</title>
</use>
<use transform="translate(41.642517 59.99938), rotate(-180)" xlink:href="#item_6">
<title>item, id: 6, transf: [r: -180.000°, t: (41.643, 59.999)]</title>
</use>
<use transform="translate(33.199715 53.583668), rotate(-180)" xlink:href="#item_0">
<title>item, id: 0, transf: [r: -180.000°, t: (33.200, 53.584)]</title>
</use>
<use transform="translate(20.899681 45.896366), rotate(0)" xlink:href="#item_0">
<title>item, id: 0, transf: [r: 0.000°, t: (20.900, 45.896)]</title>
</use>
<use transform="translate(22.52229 53.19452), rotate(-180)" xlink:href="#item_0">
<title>item, id: 0, transf: [r: -180.000°, t: (22.522, 53.195)]</title>
</use>
<use transform="translate(9.928934 0.0009741783), rotate(0)" xlink:href="#item_1">
<title>item, id: 1, transf: [r: 0.000°, t: (9.929, 0.001)]</title>
</use>
<use transform="translate(25.001625 29.185825), rotate(0)" xlink:href="#item_1">
<title>item, id: 1, transf: [r: 0.000°, t: (25.002, 29.186)]</title>
</use>
<use transform="translate(18.607296 24.61717), rotate(-180)" xlink:href="#item_1">
<title>item, id: 1, transf: [r: -180.000°, t: (18.607, 24.617)]</title>
</use>
<use transform="translate(30.34226 15.115765), rotate(0)" xlink:href="#item_9">
<title>item, id: 9, transf: [r: 0.000°, t: (30.342, 15.116)]</title>
</use>
<use transform="translate(21.818024 54.998894), rotate(-180)" xlink:href="#item_9">
<title>item, id: 9, transf: [r: -180.000°, t: (21.818, 54.999)]</title>
</use>
<use transform="translate(51.376965 59.999527), rotate(-180)" xlink:href="#item_9">
<title>item, id: 9, transf: [r: -180.000°, t: (51.377, 60.000)]</title>
</use>
<use transform="translate(35.6527 24.172546), rotate(-180)" xlink:href="#item_4">
<title>item, id: 4, transf: [r: -180.000°, t: (35.653, 24.173)]</title>
</use>
<use transform="translate(9.001362 53.99362), rotate(-180)" xlink:href="#item_4">
<title>item, id: 4, transf: [r: -180.000°, t: (9.001, 53.994)]</title>
</use>
<use transform="translate(47.53054 15.167687), rotate(0)" xlink:href="#item_4">
<title>item, id: 4, transf: [r: 0.000°, t: (47.531, 15.168)]</title>
</use>
<use transform="translate(41.19147 48.102043), rotate(0)" xlink:href="#item_7">
<title>item, id: 7, transf: [r: 0.000°, t: (41.191, 48.102)]</title>
</use>
<use transform="translate(6.305291 59.993927), rotate(-180)" xlink:href="#item_7">
<title>item, id: 7, transf: [r: -180.000°, t: (6.305, 59.994)]</title>
</use>
<use transform="translate(56.476185 26.293097), rotate(-180)" xlink:href="#item_7">
<title>item, id: 7, transf: [r: -180.000°, t: (56.476, 26.293)]</title>
</use>
<use transform="translate(32.91904 51.998734), rotate(0)" xlink:href="#item_8">
<title>item, id: 8, transf: [r: 0.000°, t: (32.919, 51.999)]</title>
</use>
<use transform="translate(9.633778 24.617239), rotate(0)" xlink:href="#item_8">
<title>item, id: 8, transf: [r: 0.000°, t: (9.634, 24.617)]</title>
</use>
<use transform="translate(32.742107 44.58021), rotate(-180)" xlink:href="#item_8">
<title>item, id: 8, transf: [r: -180.000°, t: (32.742, 44.580)]</title>
</use>
</g>
<g id="quality_zones"/>
<g id="optionals">
<g id="overlap_lines" transform="translate(0 0), rotate(0)"/>
</g>
<text font-family="monospace" font-size="1.4133972" font-weight="500" x="0" y="-0.7066986">
height: 60.000 | width: 56.536 | usage: 89.456% | final_bench_77
</text>
</svg>