<svg viewBox="-2.853423 -3.0000007 62.775295 66" xmlns="http://www.w3.org/2000/svg" xmlns:xlink="http://www.w3.org/1999/xlink">
<g id="bin_0">
<path d="M0,0 L57.068447,0 L57.068447,60 L0,60 z" fill="#D3D3D3" stroke="black" stroke-width="0.3138765"/>
<title>bin, id: 0, bbox: [x_min: 0.000, y_min: 0.000, x_max: 57.068, y_max: 60.000]</title>
</g>
<g id="items">
<defs>
<g id="item_0">
<path d="M0,8 L1,7 L7,5 L12,0 L15,3 L10,8 L11,9 L1,9 z" fill="#7A7A7A" fill-opacity="0.5" fill-rule="nonzero" stroke="black" stroke-width="0.15693825"/>
</g>
<g id="item_1">
<path d="M2,12 L0,0 L4,0 L4,1 L5,1 L5,0 L9,0 L9,2 L5,12 z" fill="#7A7A7A" fill-opacity="0.5" fill-rule="nonzero" stroke="black" stroke-width="0.15693825"/>
</g>
<g id="item_2">
<path d="M2,24 L0,18 L0,6 L2,0 L9,0 L11,6 L11,18 L9,24 z" fill="#7A7A7A" fill-opacity="0.5" fill-rule="nonzero" stroke="black" stroke-width="0.15693825"/>
</g>
<g id="item_3">
<path d="M0,15 L0,0 L14,0 L14,15 z" fill="#7A7A7A" fill-opacity="0.5" fill-rule="nonzero" stroke="black" stroke-width="0.15693825"/>
</g>
<g id="item_4">
<path d="M0,0 L9,0 L7,5 L2,5 z" fill="#7A7A7A" fill-opacity="0.5" fill-rule="nonzero" stroke="black" stroke-width="0.15693825"/>
</g>
<g id="item_5">
<path d="M0,32 L1,3 L3,0 L6,1 L11,11 L5,31 L2,33 z" fill="#7A7A7A" fill-opacity="0.5" fill-rule="nonzero" stroke="black" stroke-width="0.15693825"/>
</g>
<g id="item_6">
<path d="M0,3 L5,0 L23,0 L13,5 L1,5 z" fill="#7A7A7A" fill-opacity="0.5" fill-rule="nonzero" stroke="black" stroke-width="0.15693825"/>
</g>
<g id="item_7">
<path d="M1,0 L4,0 L5,6 L4,6 L4,5 L3,4 L2,4 L1,5 L1,6 L0,6 z" fill="#7A7A7A" fill-opacity="0.5" fill-rule="nonzero" stroke="black" stroke-width="0.15693825"/>
</g>
<g id="item_8">
<path d="M0,2 L1,0 L8,0 L6,3 z" fill="#7A7A7A" fill-opacity="0.5" fill-rule="nonzero" stroke="black" stroke-width="0.15693825"/>
</g>
<g id="item_9">
<path d="M0,0 L14,0 L5,6 z" fill="#7A7A7A" fill-opacity="0.5" fill-rule="nonzero" stroke="black" stroke-width="0.15693825"/>
</g>
</defs>
<use transform="translate(29.170132 43.019104), rotate(-180)" xlink:href="#item_5">
<title>item, id: 5, transf: [r: -180.000°, t: (29.170, 43.019)]</title>
</use>
<use transform="translate(43.06752 55.51011), rotate(-180)" xlink:href="#item_5">
<title>item, id: 5, transf: [r: -180.000°, t: (43.068, 55.510)]</title>
</use>
<use transform="translate(28.100086 10.066175), rotate(0)" xlink:href="#item_5">
<title>item, id: 5, transf: [r: 0.000°, t: (28.100, 10.066)]</title>
</use>
<use transform="translate(11.000631 35.99972), rotate(0)" xlink:href="#item_2">
<title>item, id: 2, transf: [r: 0.000°, t: (11.001, 36.000)]</title>
</use>
<use transform="translate(0.0011172295 0.008688927), rotate(0)" xlink:href="#item_2">
<title>item, id: 2, transf: [r: 0.000°, t: (0.001, 0.009)]</title>
</use>
<use transform="translate(0.0004310608 35.99928), rotate(0)" xlink:href="#item_2">
<title>item, id: 2, transf: [r: 0.000°, t: (0.000, 35.999)]</title>
</use>
<use transform="translate(43.06806 9.992611), rotate(0)" xlink:href="#item_3">
<title>item, id: 3, transf: [r: 0.000°, t: (43.068, 9.993)]</title>
</use>
<use transform="translate(56.50568 54.996082), rotate(-180)" xlink:href="#item_3">
<title>item, id: 3, transf: [r: -180.000°, t: (56.506, 54.996)]</title>
</use>
<use transform="translate(57.06306 39.9958), rotate(-180)" xlink:href="#item_3">
<title>item, id: 3, transf: [r: -180.000°, t: (57.063, 39.996)]</title>
</use>
<use transform="translate(57.068443 59.999996), rotate(-180)" xlink:href="#item_6">
<title>item, id: 6, transf: [r: -180.000°, t: (57.068, 60.000)]</title>
</use>
<use transform="translate(25.813974 5.000417), rotate(0)" xlink:href="#item_6">
<title>item, id: 6, transf: [r: 0.000°, t: (25.814, 5.000)]</title>
</use>
<use transform="translate(32.9179 0.00031590462), rotate(0)" xlink:href="#item_6">
<title>item, id: 6, transf: [r: 0.000°, t: (32.918, 0.000)]</title>
</use>
<use transform="translate(20.724747 49.830517), rotate(0)" xlink:href="#item_0">
<title>item, id: 0, transf: [r: 0.000°, t: (20.725, 49.831)]</title>
</use>
<use transform="translate(41.958897 0.97997665), rotate(0)" xlink:href="#item_0">
<title>item, id: 0, transf: [r: 0.000°, t: (41.959, 0.980)]</title>
</use>
<use transform="translate(11.477439 6.335812), rotate(0)" xlink:href="#item_0">
<title>item, id: 0, transf: [r: 0.000°, t: (11.477, 6.336)]</title>
</use>
<use transform="translate(22.003176 43.06744), rotate(0)" xlink:href="#item_1">
<title>item, id: 1, transf: [r: 0.000°, t: (22.003, 43.067)]</title>
</use>
<use transform="translate(10.001099 0.00004529953), rotate(0)" xlink:href="#item_1">
<title>item, id: 1, transf: [r: 0.000°, t: (10.001, 0.000)]</title>
</use>
<use transform="translate(13.566803 15.336268), rotate(0)" xlink:href="#item_1">
<title>item, id: 1, transf: [r: 0.000°, t: (13.567, 15.336)]</title>
</use>
<use transform="translate(0.8094969 24.008926), rotate(0)" xlink:href="#item_9">
<title>item, id: 9, transf: [r: 0.000°, t: (0.809, 24.009)]</title>
</use>
<use transform="translate(18.513445 30.87297), rotate(-180)" xlink:href="#item_9">
<title>item, id: 9, transf: [r: -180.000°, t: (18.513, 30.873)]</title>
</use>
<use transform="translate(23.416128 0.0012729168), rotate(0)" xlink:href="#item_9">
<title>item, id: 9, transf: [r: 0.000°, t: (23.416, 0.001)]</title>
</use>
<use transform="translate(34.06769 10.00044), rotate(0)" xlink:href="#item_4">
<title>item, id: 4, transf: [r: 0.000°, t: (34.068, 10.000)]</title>
</use>
<use transform="translate(26.397688 6.3167486), rotate(-180)" xlink:href="#item_4">
<title>item, id: 4, transf: [r: -180.000°, t: (26.398, 6.317)]</title>
</use>
<use transform="translate(19.762217 35.999443), rotate(-180)" xlink:href="#item_4">
<title>item, id: 4, transf: [r: -180.000°, t: (19.762, 35.999)]</title>
</use>
<use transform="translate(43.067616 21.001205), rotate(-180)" xlink:href="#item_7">
<title>item, id: 7, transf: [r: -180.000°, t: (43.068, 21.001)]</title>
</use>
<use transform="translate(0.001408577 27.839596), rotate(0)" xlink:href="#item_7">
<title>item, id: 7, transf: [r: 0.000°, t: (0.001, 27.840)]</title>
</use>
<use transform="translate(10.006775 18.00634), rotate(0)" xlink:href="#item_7">
<title>item, id: 7, transf: [r: 0.000°, t: (10.007, 18.006)]</title>
</use>
<use transform="translate(4.846388 30.873005), rotate(0)" xlink:href="#item_8">
<title>item, id: 8, transf: [r: 0.000°, t: (4.846, 30.873)]</title>
</use>
<use transform="translate(11.562189 35.999), rotate(-180)" xlink:href="#item_8">
<title>item, id: 8, transf: [r: -180.000°, t: (11.562, 35.999)]</title>
</use>
<use transform="translate(40.048386 57.508133), rotate(-180)" xlink:href="#item_8">
<title>item, id: 8, transf: [r: -180.000°, t: (40.048, 57.508)]</title>
</use>
</g>
<g id="quality_zones"/>
<g id="optionals">
<g id="overlap_lines" transform="translate(0 0), rotate(0)"/>
</g>
<text font-family="monospace" font-size="1.4267112" font-weight="500" x="0" y="-0.7133556">
height: 60.000 | width: 57.068 | usage: 88.622% | final_bench_83
</text>
</svg>