<svg viewBox="-2.8320477 -3.0000007 62.305035 66" xmlns="http://www.w3.org/2000/svg" xmlns:xlink="http://www.w3.org/1999/xlink">
<g id="bin_0">
<path d="M0,0 L56.64094,0 L56.64094,60 L0,60 z" fill="#D3D3D3" stroke="black" stroke-width="0.3115252"/>
<title>bin, id: 0, bbox: [x_min: 0.000, y_min: 0.000, x_max: 56.641, y_max: 60.000]</title>
</g>
<g id="items">
<defs>
<g id="item_0">
<path d="M0,8 L1,7 L7,5 L12,0 L15,3 L10,8 L11,9 L1,9 z" fill="#7A7A7A" fill-opacity="0.5" fill-rule="nonzero" stroke="black" stroke-width="0.1557626"/>
</g>
<g id="item_1">
<path d="M2,12 L0,0 L4,0 L4,1 L5,1 L5,0 L9,0 L9,2 L5,12 z" fill="#7A7A7A" fill-opacity="0.5" fill-rule="nonzero" stroke="black" stroke-width="0.1557626"/>
</g>
<g id="item_2">
<path d="M2,24 L0,18 L0,6 L2,0 L9,0 L11,6 L11,18 L9,24 z" fill="#7A7A7A" fill-opacity="0.5" fill-rule="nonzero" stroke="black" stroke-width="0.1557626"/>
</g>
<g id="item_3">
<path d="M0,15 L0,0 L14,0 L14,15 z" fill="#7A7A7A" fill-opacity="0.5" fill-rule="nonzero" stroke="black" stroke-width="0.1557626"/>
</g>
<g id="item_4">
<path d="M0,0 L9,0 L7,5 L2,5 z" fill="#7A7A7A" fill-opacity="0.5" fill-rule="nonzero" stroke="black" stroke-width="0.1557626"/>
</g>
<g id="item_5">
<path d="M0,32 L1,3 L3,0 L6,1 L11,11 L5,31 L2,33 z" fill="#7A7A7A" fill-opacity="0.5" fill-rule="nonzero" stroke="black" stroke-width="0.1557626"/>
</g>
<g id="item_6">
<path d="M0,3 L5,0 L23,0 L13,5 L1,5 z" fill="#7A7A7A" fill-opacity="0.5" fill-rule="nonzero" stroke="black" stroke-width="0.1557626"/>
</g>
<g id="item_7">
<path d="M1,0 L4,0 L5,6 L4,6 L4,5 L3,4 L2,4 L1,5 L1,6 L0,6 z" fill="#7A7A7A" fill-opacity="0.5" fill-rule="nonzero" stroke="black" stroke-width="0.1557626"/>
</g>
<g id="item_8">
<path d="M0,2 L1,0 L8,0 L6,3 z" fill="#7A7A7A" fill-opacity="0.5" fill-rule="nonzero" stroke="black" stroke-width="0.1557626"/>
</g>
<g id="item_9">
<path d="M0,0 L14,0 L5,6 z" fill="#7A7A7A" fill-opacity="0.5" fill-rule="nonzero" stroke="black" stroke-width="0.1557626"/>
</g>
</defs>
<use transform="translate(17.2878 41.573963), rotate(-180)" xlink:href="#item_5">
<title>item, id: 5, transf: [r: -180.000°, t: (17.288, 41.574)]</title>
</use>
<use transform="translate(42.647728 37.76943), rotate(-180)" xlink:href="#item_5">
<title>item, id: 5, transf: [r: -180.000°, t: (42.648, 37.769)]</title>
</use>
<use transform="translate(0.0002837181 2.9897194), rotate(0)" xlink:href="#item_5">
<title>item, id: 5, transf: [r: 0.000°, t: (0.000, 2.990)]</title>
</use>
<use transform="translate(28.063625 34.081547), rotate(-180)" xlink:href="#item_2">
<title>item, id: 2, transf: [r: -180.000°, t: (28.064, 34.082)]</title>
</use>
<use transform="translate(0.00021219254 35.99896), rotate(0)" xlink:href="#item_2">
<title>item, id: 2, transf: [r: 0.000°, t: (0.000, 35.999)]</title>
</use>
<use transform="translate(45.636906 35.99819), rotate(0)" xlink:href="#item_2">
<title>item, id: 2, transf: [r: 0.000°, t: (45.637, 35.998)]</title>
</use>
<use transform="translate(56.640396 20.996872), rotate(-180)" xlink:href="#item_3">
<title>item, id: 3, transf: [r: -180.000°, t: (56.640, 20.997)]</title>
</use>
<use transform="translate(42.128185 20.99769), rotate(0)" xlink:href="#item_3">
<title>item, id: 3, transf: [r: 0.000°, t: (42.128, 20.998)]</title>
</use>
<use transform="translate(31.611885 44.99929), rotate(0)" xlink:href="#item_3">
<title>item, id: 3, transf: [r: 0.000°, t: (31.612, 44.999)]</title>
</use>
<use transform="translate(5.9841995 0.01067853), rotate(0)" xlink:href="#item_6">
<title>item, id: 6, transf: [r: 0.000°, t: (5.984, 0.011)]</title>
</use>
<use transform="translate(41.8664 5.0704904), rotate(-180)" xlink:href="#item_6">
<title>item, id: 6, transf: [r: -180.000°, t: (41.866, 5.070)]</title>
</use>
<use transform="translate(16.537468 5.0707965), rotate(0)" xlink:href="#item_6">
<title>item, id: 6, transf: [r: 0.000°, t: (16.537, 5.071)]</title>
</use>
<use transform="translate(31.635063 35.998375), rotate(0)" xlink:href="#item_0">
<title>item, id: 0, transf: [r: 0.000°, t: (31.635, 35.998)]</title>
</use>
<use transform="translate(15.535943 32.6127), rotate(0)" xlink:href="#item_0">
<title>item, id: 0, transf: [r: 0.000°, t: (15.536, 32.613)]</title>
</use>
<use transform="translate(40.81294 46.81349), rotate(-180)" xlink:href="#item_0">
<title>item, id: 0, transf: [r: -180.000°, t: (40.813, 46.813)]</title>
</use>
<use transform="translate(18.795372 59.999943), rotate(-180)" xlink:href="#item_1">
<title>item, id: 1, transf: [r: -180.000°, t: (18.795, 60.000)]</title>
</use>
<use transform="translate(16.797392 47.9985), rotate(0)" xlink:href="#item_1">
<title>item, id: 1, transf: [r: 0.000°, t: (16.797, 47.999)]</title>
</use>
<use transform="translate(31.601542 59.999943), rotate(-180)" xlink:href="#item_1">
<title>item, id: 1, transf: [r: -180.000°, t: (31.602, 60.000)]</title>
</use>
<use transform="translate(29.298904 47.998177), rotate(-180)" xlink:href="#item_9">
<title>item, id: 9, transf: [r: -180.000°, t: (29.299, 47.998)]</title>
</use>
<use transform="translate(6.542579 5.0705757), rotate(0)" xlink:href="#item_9">
<title>item, id: 9, transf: [r: 0.000°, t: (6.543, 5.071)]</title>
</use>
<use transform="translate(10.876165 41.612846), rotate(0)" xlink:href="#item_9">
<title>item, id: 9, transf: [r: 0.000°, t: (10.876, 41.613)]</title>
</use>
<use transform="translate(26.900587 12.59161), rotate(0)" xlink:href="#item_4">
<title>item, id: 4, transf: [r: 0.000°, t: (26.901, 12.592)]</title>
</use>
<use transform="translate(41.038467 0.00055360794), rotate(0)" xlink:href="#item_4">
<title>item, id: 4, transf: [r: 0.000°, t: (41.038, 0.001)]</title>
</use>
<use transform="translate(56.640537 5.996669), rotate(-180)" xlink:href="#item_4">
<title>item, id: 4, transf: [r: -180.000°, t: (56.641, 5.997)]</title>
</use>
<use transform="translate(33.30611 24.567408), rotate(-180)" xlink:href="#item_7">
<title>item, id: 7, transf: [r: -180.000°, t: (33.306, 24.567)]</title>
</use>
<use transform="translate(27.480003 25.813026), rotate(0)" xlink:href="#item_7">
<title>item, id: 7, transf: [r: 0.000°, t: (27.480, 25.813)]</title>
</use>
<use transform="translate(30.169334 31.813152), rotate(0)" xlink:href="#item_7">
<title>item, id: 7, transf: [r: 0.000°, t: (30.169, 31.813)]</title>
</use>
<use transform="translate(16.382978 34.08158), rotate(0)" xlink:href="#item_8">
<title>item, id: 8, transf: [r: 0.000°, t: (16.383, 34.082)]</title>
</use>
<use transform="translate(36.49765 12.591537), rotate(-180)" xlink:href="#item_8">
<title>item, id: 8, transf: [r: -180.000°, t: (36.498, 12.592)]</title>
</use>
<use transform="translate(0.00040841103 0.000012516975), rotate(0)" xlink:href="#item_8">
<title>item, id: 8, transf: [r: 0.000°, t: (0.000, 0.000)]</title>
</use>
</g>
<g id="quality_zones"/>
<g id="optionals">
<g id="overlap_lines" transform="translate(0 0), rotate(0)"/>
</g>
<text font-family="monospace" font-size="1.4160236" font-weight="500" x="0" y="-0.7080118">
height: 60.000 | width: 56.641 | usage: 89.291% | final_bench_41
</text>
</svg>