<svg viewBox="-2.8310096 -3.0000007 62.282196 66" xmlns="http://www.w3.org/2000/svg" xmlns:xlink="http://www.w3.org/1999/xlink">
<g id="bin_0">
<path d="M0,0 L56.62018,0 L56.62018,60 L0,60 z" fill="#D3D3D3" stroke="black" stroke-width="0.311411"/>
<title>bin, id: 0, bbox: [x_min: 0.000, y_min: 0.000, x_max: 56.620, y_max: 60.000]</title>
</g>
<g id="items">
<defs>
<g id="item_0">
<path d="M0,8 L1,7 L7,5 L12,0 L15,3 L10,8 L11,9 L1,9 z" fill="#7A7A7A" fill-opacity="0.5" fill-rule="nonzero" stroke="black" stroke-width="0.1557055"/>
</g>
<g id="item_1">
<path d="M2,12 L0,0 L4,0 L4,1 L5,1 L5,0 L9,0 L9,2 L5,12 z" fill="#7A7A7A" fill-opacity="0.5" fill-rule="nonzero" stroke="black" stroke-width="0.1557055"/>
</g>
<g id="item_2">
<path d="M2,24 L0,18 L0,6 L2,0 L9,0 L11,6 L11,18 L9,24 z" fill="#7A7A7A" fill-opacity="0.5" fill-rule="nonzero" stroke="black" stroke-width="0.1557055"/>
</g>
<g id="item_3">
<path d="M0,15 L0,0 L14,0 L14,15 z" fill="#7A7A7A" fill-opacity="0.5" fill-rule="nonzero" stroke="black" stroke-width="0.1557055"/>
</g>
<g id="item_4">
<path d="M0,0 L9,0 L7,5 L2,5 z" fill="#7A7A7A" fill-opacity="0.5" fill-rule="nonzero" stroke="black" stroke-width="0.1557055"/>
</g>
<g id="item_5">
<path d="M0,32 L1,3 L3,0 L6,1 L11,11 L5,31 L2,33 z" fill="#7A7A7A" fill-opacity="0.5" fill-rule="nonzero" stroke="black" stroke-width="0.1557055"/>
</g>
<g id="item_6">
<path d="M0,3 L5,0 L23,0 L13,5 L1,5 z" fill="#7A7A7A" fill-opacity="0.5" fill-rule="nonzero" stroke="black" stroke-width="0.1557055"/>
</g>
<g id="item_7">
<path d="M1,0 L4,0 L5,6 L4,6 L4,5 L3,4 L2,4 L1,5 L1,6 L0,6 z" fill="#7A7A7A" fill-opacity="0.5" fill-rule="nonzero" stroke="black" stroke-width="0.1557055"/>
</g>
<g id="item_8">
<path d="M0,2 L1,0 L8,0 L6,3 z" fill="#7A7A7A" fill-opacity="0.5" fill-rule="nonzero" stroke="black" stroke-width="0.1557055"/>
</g>
<g id="item_9">
<path d="M0,0 L14,0 L5,6 z" fill="#7A7A7A" fill-opacity="0.5" fill-rule="nonzero" stroke="black" stroke-width="0.1557055"/>
</g>
</defs>
<use transform="translate(17.882824 59.7391), rotate(-180)" xlink:href="#item_5">
<title>item, id: 5, transf: [r: -180.000°, t: (17.883, 59.739)]</title>
</use>
<use transform="translate(0.0019431114 24.0075), rotate(0)" xlink:href="#item_5">
<title>item, id: 5, transf: [r: 0.000°, t: (0.002, 24.007)]</title>
</use>
<use transform="translate(16.868156 25.165035), rotate(0)" xlink:href="#item_5">
<title>item, id: 5, transf: [r: 0.000°, t: (16.868, 25.165)]</title>
</use>
<use transform="translate(11.000607 24.007198), rotate(-180)" xlink:href="#item_2">
<title>item, id: 2, transf: [r: -180.000°, t: (11.001, 24.007)]</title>
</use>
<use transform="translate(31.618523 30.997921), rotate(0)" xlink:href="#item_2">
<title>item, id: 2, transf: [r: 0.000°, t: (31.619, 30.998)]</title>
</use>
<use transform="translate(28.61566 24.154057), rotate(-180)" xlink:href="#item_2">
<title>item, id: 2, transf: [r: -180.000°, t: (28.616, 24.154)]</title>
</use>
<use transform="translate(28.619003 6.004057), rotate(0)" xlink:href="#item_3">
<title>item, id: 3, transf: [r: 0.000°, t: (28.619, 6.004)]</title>
</use>
<use transform="translate(42.618958 34.997295), rotate(0)" xlink:href="#item_3">
<title>item, id: 3, transf: [r: 0.000°, t: (42.619, 34.997)]</title>
</use>
<use transform="translate(56.62016 20.0029), rotate(-180)" xlink:href="#item_3">
<title>item, id: 3, transf: [r: -180.000°, t: (56.620, 20.003)]</title>
</use>
<use transform="translate(56.59749 5.00113), rotate(-180)" xlink:href="#item_6">
<title>item, id: 6, transf: [r: -180.000°, t: (56.597, 5.001)]</title>
</use>
<use transform="translate(56.59915 59.999832), rotate(-180)" xlink:href="#item_6">
<title>item, id: 6, transf: [r: -180.000°, t: (56.599, 60.000)]</title>
</use>
<use transform="translate(38.54397 59.999813), rotate(-180)" xlink:href="#item_6">
<title>item, id: 6, transf: [r: -180.000°, t: (38.544, 60.000)]</title>
</use>
<use transform="translate(38.762573 30.007992), rotate(-180)" xlink:href="#item_0">
<title>item, id: 0, transf: [r: -180.000°, t: (38.763, 30.008)]</title>
</use>
<use transform="translate(40.94983 20.011854), rotate(0)" xlink:href="#item_0">
<title>item, id: 0, transf: [r: 0.000°, t: (40.950, 20.012)]</title>
</use>
<use transform="translate(50.95714 30.004408), rotate(-180)" xlink:href="#item_0">
<title>item, id: 0, transf: [r: -180.000°, t: (50.957, 30.004)]</title>
</use>
<use transform="translate(18.617786 24.266272), rotate(-180)" xlink:href="#item_1">
<title>item, id: 1, transf: [r: -180.000°, t: (18.618, 24.266)]</title>
</use>
<use transform="translate(32.008247 54.999783), rotate(-180)" xlink:href="#item_1">
<title>item, id: 1, transf: [r: -180.000°, t: (32.008, 55.000)]</title>
</use>
<use transform="translate(9.999758 0.00033187866), rotate(0)" xlink:href="#item_1">
<title>item, id: 1, transf: [r: 0.000°, t: (10.000, 0.000)]</title>
</use>
<use transform="translate(26.523119 0.00004386902), rotate(0)" xlink:href="#item_9">
<title>item, id: 9, transf: [r: 0.000°, t: (26.523, 0.000)]</title>
</use>
<use transform="translate(39.284435 30.997398), rotate(-180)" xlink:href="#item_9">
<title>item, id: 9, transf: [r: -180.000°, t: (39.284, 30.997)]</title>
</use>
<use transform="translate(5.5077567 24.321026), rotate(0)" xlink:href="#item_9">
<title>item, id: 9, transf: [r: 0.000°, t: (5.508, 24.321)]</title>
</use>
<use transform="translate(12.011036 59.997574), rotate(-180)" xlink:href="#item_4">
<title>item, id: 4, transf: [r: -180.000°, t: (12.011, 59.998)]</title>
</use>
<use transform="translate(47.61988 49.9974), rotate(0)" xlink:href="#item_4">
<title>item, id: 4, transf: [r: 0.000°, t: (47.620, 49.997)]</title>
</use>
<use transform="translate(49.619854 54.999615), rotate(-180)" xlink:href="#item_4">
<title>item, id: 4, transf: [r: -180.000°, t: (49.620, 55.000)]</title>
</use>
<use transform="translate(26.61826 36.998093), rotate(0)" xlink:href="#item_7">
<title>item, id: 7, transf: [r: 0.000°, t: (26.618, 36.998)]</title>
</use>
<use transform="translate(51.619465 26.342346), rotate(0)" xlink:href="#item_7">
<title>item, id: 7, transf: [r: 0.000°, t: (51.619, 26.342)]</title>
</use>
<use transform="translate(32.608334 36.997974), rotate(-180)" xlink:href="#item_7">
<title>item, id: 7, transf: [r: -180.000°, t: (32.608, 36.998)]</title>
</use>
<use transform="translate(55.538643 34.995827), rotate(-180)" xlink:href="#item_8">
<title>item, id: 8, transf: [r: -180.000°, t: (55.539, 34.996)]</title>
</use>
<use transform="translate(41.591343 31.91581), rotate(0)" xlink:href="#item_8">
<title>item, id: 8, transf: [r: 0.000°, t: (41.591, 31.916)]</title>
</use>
<use transform="translate(44.17087 29.011871), rotate(0)" xlink:href="#item_8">
<title>item, id: 8, transf: [r: 0.000°, t: (44.171, 29.012)]</title>
</use>
</g>
<g id="quality_zones"/>
<g id="optionals">
<g id="overlap_lines" transform="translate(0 0), rotate(0)"/>
</g>
<text font-family="monospace" font-size="1.4155045" font-weight="500" x="0" y="-0.7077522">
height: 60.000 | width: 56.620 | usage: 89.323% | final_bench_59
</text>
</svg>