<svg viewBox="-2.8518429 -3.0000007 62.740532 66" xmlns="http://www.w3.org/2000/svg" xmlns:xlink="http://www.w3.org/1999/xlink">
<g id="bin_0">
<path d="M0,0 L57.036846,0 L57.036846,60 L0,60 z" fill="#D3D3D3" stroke="black" stroke-width="0.31370267"/>
<title>bin, id: 0, bbox: [x_min: 0.000, y_min: 0.000, x_max: 57.037, y_max: 60.000]</title>
</g>
<g id="items">
<defs>
<g id="item_0">
<path d="M0,8 L1,7 L7,5 L12,0 L15,3 L10,8 L11,9 L1,9 z" fill="#7A7A7A" fill-opacity="0.5" fill-rule="nonzero" stroke="black" stroke-width="0.15685134"/>
</g>
<g id="item_1">
<path d="M2,12 L0,0 L4,0 L4,1 L5,1 L5,0 L9,0 L9,2 L5,12 z" fill="#7A7A7A" fill-opacity="0.5" fill-rule="nonzero" stroke="black" stroke-width="0.15685134"/>
</g>
<g id="item_2">
<path d="M2,24 L0,18 L0,6 L2,0 L9,0 L11,6 L11,18 L9,24 z" fill="#7A7A7A" fill-opacity="0.5" fill-rule="nonzero" stroke="black" stroke-width="0.15685134"/>
</g>
<g id="item_3">
<path d="M0,15 L0,0 L14,0 L14,15 z" fill="#7A7A7A" fill-opacity="0.5" fill-rule="nonzero" stroke="black" stroke-width="0.15685134"/>
</g>
<g id="item_4">
<path d="M0,0 L9,0 L7,5 L2,5 z" fill="#7A7A7A" fill-opacity="0.5" fill-rule="nonzero" stroke="black" stroke-width="0.15685134"/>
</g>
<g id="item_5">
<path d="M0,32 L1,3 L3,0 L6,1 L11,11 L5,31 L2,33 z" fill="#7A7A7A" fill-opacity="0.5" fill-rule="nonzero" stroke="black" stroke-width="0.15685134"/>
</g>
<g id="item_6">
<path d="M0,3 L5,0 L23,0 L13,5 L1,5 z" fill="#7A7A7A" fill-opacity="0.5" fill-rule="nonzero" stroke="black" stroke-width="0.15685134"/>
</g>
<g id="item_7">
<path d="M1,0 L4,0 L5,6 L4,6 L4,5 L3,4 L2,4 L1,5 L1,6 L0,6 z" fill="#7A7A7A" fill-opacity="0.5" fill-rule="nonzero" stroke="black" stroke-width="0.15685134"/>
</g>
<g id="item_8">
<path d="M0,2 L1,0 L8,0 L6,3 z" fill="#7A7A7A" fill-opacity="0.5" fill-rule="nonzero" stroke="black" stroke-width="0.15685134"/>
</g>
<g id="item_9">
<path d="M0,0 L14,0 L5,6 z" fill="#7A7A7A" fill-opacity="0.5" fill-rule="nonzero" stroke="black" stroke-width="0.15685134"/>
</g>
</defs>
<use transform="translate(0.000091552734 24.003307), rotate(0)" xlink:href="#item_5">
<title>item, id: 5, transf: [r: 0.000°, t: (0.000, 24.003)]</title>
</use>
<use transform="translate(18.036545 5.595354), rotate(0)" xlink:href="#item_5">
<title>item, id: 5, transf: [r: 0.000°, t: (18.037, 5.595)]</title>
</use>
<use transform="translate(19.102911 38.66497), rotate(-180)" xlink:href="#item_5">
<title>item, id: 5, transf: [r: -180.000°, t: (19.103, 38.665)]</title>
</use>
<use transform="translate(46.03644 35.99892), rotate(0)" xlink:href="#item_2">
<title>item, id: 2, transf: [r: 0.000°, t: (46.036, 35.999)]</title>
</use>
<use transform="translate(0.0002861023 0.00005054474), rotate(0)" xlink:href="#item_2">
<title>item, id: 2, transf: [r: 0.000°, t: (0.000, 0.000)]</title>
</use>
<use transform="translate(35.035927 35.063454), rotate(0)" xlink:href="#item_2">
<title>item, id: 2, transf: [r: 0.000°, t: (35.036, 35.063)]</title>
</use>
<use transform="translate(29.036732 11.605616), rotate(0)" xlink:href="#item_3">
<title>item, id: 3, transf: [r: 0.000°, t: (29.037, 11.606)]</title>
</use>
<use transform="translate(21.03591 39.95313), rotate(0)" xlink:href="#item_3">
<title>item, id: 3, transf: [r: 0.000°, t: (21.036, 39.953)]</title>
</use>
<use transform="translate(43.036797 12.008894), rotate(0)" xlink:href="#item_3">
<title>item, id: 3, transf: [r: 0.000°, t: (43.037, 12.009)]</title>
</use>
<use transform="translate(36.344734 59.99761), rotate(-180)" xlink:href="#item_6">
<title>item, id: 6, transf: [r: -180.000°, t: (36.345, 59.998)]</title>
</use>
<use transform="translate(40.466866 5.005219), rotate(-180)" xlink:href="#item_6">
<title>item, id: 6, transf: [r: -180.000°, t: (40.467, 5.005)]</title>
</use>
<use transform="translate(0.33929825 54.9999), rotate(0)" xlink:href="#item_6">
<title>item, id: 6, transf: [r: 0.000°, t: (0.339, 55.000)]</title>
</use>
<use transform="translate(57.002968 36.009018), rotate(-180)" xlink:href="#item_0">
<title>item, id: 0, transf: [r: -180.000°, t: (57.003, 36.009)]</title>
</use>
<use transform="translate(20.603394 30.910162), rotate(0)" xlink:href="#item_0">
<title>item, id: 0, transf: [r: 0.000°, t: (20.603, 30.910)]</title>
</use>
<use transform="translate(39.28475 35.65146), rotate(-180)" xlink:href="#item_0">
<title>item, id: 0, transf: [r: -180.000°, t: (39.285, 35.651)]</title>
</use>
<use transform="translate(42.137306 0.00012636185), rotate(0)" xlink:href="#item_1">
<title>item, id: 1, transf: [r: 0.000°, t: (42.137, 0.000)]</title>
</use>
<use transform="translate(16.102642 49.999035), rotate(-180)" xlink:href="#item_1">
<title>item, id: 1, transf: [r: -180.000°, t: (16.103, 49.999)]</title>
</use>
<use transform="translate(57.0012 12.003914), rotate(-180)" xlink:href="#item_1">
<title>item, id: 1, transf: [r: -180.000°, t: (57.001, 12.004)]</title>
</use>
<use transform="translate(9.282465 0.41112208), rotate(0)" xlink:href="#item_9">
<title>item, id: 9, transf: [r: 0.000°, t: (9.282, 0.411)]</title>
</use>
<use transform="translate(41.0117 11.601952), rotate(-180)" xlink:href="#item_9">
<title>item, id: 9, transf: [r: -180.000°, t: (41.012, 11.602)]</title>
</use>
<use transform="translate(22.823914 5.0492673), rotate(0)" xlink:href="#item_9">
<title>item, id: 9, transf: [r: 0.000°, t: (22.824, 5.049)]</title>
</use>
<use transform="translate(34.10768 30.05679), rotate(0)" xlink:href="#item_4">
<title>item, id: 4, transf: [r: 0.000°, t: (34.108, 30.057)]</title>
</use>
<use transform="translate(14.005229 54.99912), rotate(-180)" xlink:href="#item_4">
<title>item, id: 4, transf: [r: -180.000°, t: (14.005, 54.999)]</title>
</use>
<use transform="translate(12.023033 49.999245), rotate(0)" xlink:href="#item_4">
<title>item, id: 4, transf: [r: 0.000°, t: (12.023, 49.999)]</title>
</use>
<use transform="translate(20.035702 49.597145), rotate(-180)" xlink:href="#item_7">
<title>item, id: 7, transf: [r: -180.000°, t: (20.036, 49.597)]</title>
</use>
<use transform="translate(38.570763 2.657135), rotate(0)" xlink:href="#item_7">
<title>item, id: 7, transf: [r: 0.000°, t: (38.571, 2.657)]</title>
</use>
<use transform="translate(16.03579 38.596283), rotate(0)" xlink:href="#item_7">
<title>item, id: 7, transf: [r: 0.000°, t: (16.036, 38.596)]</title>
</use>
<use transform="translate(54.0265 35.9948), rotate(-180)" xlink:href="#item_8">
<title>item, id: 8, transf: [r: -180.000°, t: (54.027, 35.995)]</title>
</use>
<use transform="translate(48.99951 31.014797), rotate(0)" xlink:href="#item_8">
<title>item, id: 8, transf: [r: 0.000°, t: (49.000, 31.015)]</title>
</use>
<use transform="translate(46.01441 29.606373), rotate(-180)" xlink:href="#item_8">
<title>item, id: 8, transf: [r: -180.000°, t: (46.014, 29.606)]</title>
</use>
</g>
<g id="quality_zones"/>
<g id="optionals">
<g id="overlap_lines" transform="translate(0 0), rotate(0)"/>
</g>
<text font-family="monospace" font-size="1.4259212" font-weight="500" x="0" y="-0.7129606">
height: 60.000 | width: 57.037 | usage: 88.671% | final_bench_17
</text>
</svg>