<svg viewBox="-2.8542478 -3.0000007 62.793438 66" xmlns="http://www.w3.org/2000/svg" xmlns:xlink="http://www.w3.org/1999/xlink">
<g id="bin_0">
<path d="M0,0 L57.08494,0 L57.08494,60 L0,60 z" fill="#D3D3D3" stroke="black" stroke-width="0.3139672"/>
<title>bin, id: 0, bbox: [x_min: 0.000, y_min: 0.000, x_max: 57.085, y_max: 60.000]</title>
</g>
<g id="items">
<defs>
<g id="item_0">
<path d="M0,8 L1,7 L7,5 L12,0 L15,3 L10,8 L11,9 L1,9 z" fill="#7A7A7A" fill-opacity="0.5" fill-rule="nonzero" stroke="black" stroke-width="0.1569836"/>
</g>
<g id="item_1">
<path d="M2,12 L0,0 L4,0 L4,1 L5,1 L5,0 L9,0 L9,2 L5,12 z" fill="#7A7A7A" fill-opacity="0.5" fill-rule="nonzero" stroke="black" stroke-width="0.1569836"/>
</g>
<g id="item_2">
<path d="M2,24 L0,18 L0,6 L2,0 L9,0 L11,6 L11,18 L9,24 z" fill="#7A7A7A" fill-opacity="0.5" fill-rule="nonzero" stroke="black" stroke-width="0.1569836"/>
</g>
<g id="item_3">
<path d="M0,15 L0,0 L14,0 L14,15 z" fill="#7A7A7A" fill-opacity="0.5" fill-rule="nonzero" stroke="black" stroke-width="0.1569836"/>
</g>
<g id="item_4">
<path d="M0,0 L9,0 L7,5 L2,5 z" fill="#7A7A7A" fill-opacity="0.5" fill-rule="nonzero" stroke="black" stroke-width="0.1569836"/>
</g>
<g id="item_5">
<path d="M0,32 L1,3 L3,0 L6,1 L11,11 L5,31 L2,33 z" fill="#7A7A7A" fill-opacity="0.5" fill-rule="nonzero" stroke="black" stroke-width="0.1569836"/>
</g>
<g id="item_6">
<path d="M0,3 L5,0 L23,0 L13,5 L1,5 z" fill="#7A7A7A" fill-opacity="0.5" fill-rule="nonzero" stroke="black" stroke-width="0.1569836"/>
</g>
<g id="item_7">
<path d="M1,0 L4,0 L5,6 L4,6 L4,5 L3,4 L2,4 L1,5 L1,6 L0,6 z" fill="#7A7A7A" fill-opacity="0.5" fill-rule="nonzero" stroke="black" stroke-width="0.1569836"/>
</g>
<g id="item_8">
<path d="M0,2 L1,0 L8,0 L6,3 z" fill="#7A7A7A" fill-opacity="0.5" fill-rule="nonzero" stroke="black" stroke-width="0.1569836"/>
</g>
<g id="item_9">
<path d="M0,0 L14,0 L5,6 z" fill="#7A7A7A" fill-opacity="0.5" fill-rule="nonzero" stroke="black" stroke-width="0.1569836"/>
</g>
</defs>
<use transform="translate(17.126232 39.841908), rotate(-180)" xlink:href="#item_5">
<title>item, id: 5, transf: [r: -180.000°, t: (17.126, 39.842)]</title>
</use>
<use transform="translate(0.00012779236 1.5940132), rotate(0)" xlink:href="#item_5">
<title>item, id: 5, transf: [r: 0.000°, t: (0.000, 1.594)]</title>
</use>
<use transform="translate(16.05204 6.9939995), rotate(0)" xlink:href="#item_5">
<title>item, id: 5, transf: [r: 0.000°, t: (16.052, 6.994)]</title>
</use>
<use transform="translate(11.0021 58.594677), rotate(-180)" xlink:href="#item_2">
<title>item, id: 2, transf: [r: -180.000°, t: (11.002, 58.595)]</title>
</use>
<use transform="translate(42.580757 40.005005), rotate(-180)" xlink:href="#item_2">
<title>item, id: 2, transf: [r: -180.000°, t: (42.581, 40.005)]</title>
</use>
<use transform="translate(46.08436 35.296227), rotate(0)" xlink:href="#item_2">
<title>item, id: 2, transf: [r: 0.000°, t: (46.084, 35.296)]</title>
</use>
<use transform="translate(25.004528 54.995552), rotate(-180)" xlink:href="#item_3">
<title>item, id: 3, transf: [r: -180.000°, t: (25.005, 54.996)]</title>
</use>
<use transform="translate(42.961536 20.089848), rotate(0)" xlink:href="#item_3">
<title>item, id: 3, transf: [r: 0.000°, t: (42.962, 20.090)]</title>
</use>
<use transform="translate(57.08029 20.08942), rotate(-180)" xlink:href="#item_3">
<title>item, id: 3, transf: [r: -180.000°, t: (57.080, 20.089)]</title>
</use>
<use transform="translate(57.0819 5.0002346), rotate(-180)" xlink:href="#item_6">
<title>item, id: 6, transf: [r: -180.000°, t: (57.082, 5.000)]</title>
</use>
<use transform="translate(29.204527 59.996014), rotate(-180)" xlink:href="#item_6">
<title>item, id: 6, transf: [r: -180.000°, t: (29.205, 59.996)]</title>
</use>
<use transform="translate(20.551292 0.0030429363), rotate(0)" xlink:href="#item_6">
<title>item, id: 6, transf: [r: 0.000°, t: (20.551, 0.003)]</title>
</use>
<use transform="translate(23.219166 9.002064), rotate(-180)" xlink:href="#item_0">
<title>item, id: 0, transf: [r: -180.000°, t: (23.219, 9.002)]</title>
</use>
<use transform="translate(26.534542 50.998764), rotate(0)" xlink:href="#item_0">
<title>item, id: 0, transf: [r: 0.000°, t: (26.535, 50.999)]</title>
</use>
<use transform="translate(30.999634 41.683056), rotate(0)" xlink:href="#item_0">
<title>item, id: 0, transf: [r: 0.000°, t: (31.000, 41.683)]</title>
</use>
<use transform="translate(31.637796 34.85053), rotate(-180)" xlink:href="#item_1">
<title>item, id: 1, transf: [r: -180.000°, t: (31.638, 34.851)]</title>
</use>
<use transform="translate(25.855894 10.816325), rotate(0)" xlink:href="#item_1">
<title>item, id: 1, transf: [r: 0.000°, t: (25.856, 10.816)]</title>
</use>
<use transform="translate(34.00963 48.012608), rotate(-180)" xlink:href="#item_1">
<title>item, id: 1, transf: [r: -180.000°, t: (34.010, 48.013)]</title>
</use>
<use transform="translate(38.927155 10.81616), rotate(-180)" xlink:href="#item_9">
<title>item, id: 9, transf: [r: -180.000°, t: (38.927, 10.816)]</title>
</use>
<use transform="translate(19.568686 5.012749), rotate(0)" xlink:href="#item_9">
<title>item, id: 9, transf: [r: 0.000°, t: (19.569, 5.013)]</title>
</use>
<use transform="translate(25.007097 50.68365), rotate(0)" xlink:href="#item_9">
<title>item, id: 9, transf: [r: 0.000°, t: (25.007, 50.684)]</title>
</use>
<use transform="translate(43.017124 16.001728), rotate(-180)" xlink:href="#item_4">
<title>item, id: 4, transf: [r: -180.000°, t: (43.017, 16.002)]</title>
</use>
<use transform="translate(47.5342 59.999474), rotate(-180)" xlink:href="#item_4">
<title>item, id: 4, transf: [r: -180.000°, t: (47.534, 59.999)]</title>
</use>
<use transform="translate(32.67564 40.005733), rotate(0)" xlink:href="#item_4">
<title>item, id: 4, transf: [r: 0.000°, t: (32.676, 40.006)]</title>
</use>
<use transform="translate(47.017086 41.699123), rotate(-180)" xlink:href="#item_7">
<title>item, id: 7, transf: [r: -180.000°, t: (47.017, 41.699)]</title>
</use>
<use transform="translate(43.094826 11.001383), rotate(-180)" xlink:href="#item_7">
<title>item, id: 7, transf: [r: -180.000°, t: (43.095, 11.001)]</title>
</use>
<use transform="translate(41.367897 48.999184), rotate(0)" xlink:href="#item_7">
<title>item, id: 7, transf: [r: 0.000°, t: (41.368, 48.999)]</title>
</use>
<use transform="translate(28.213846 39.99424), rotate(-180)" xlink:href="#item_8">
<title>item, id: 8, transf: [r: -180.000°, t: (28.214, 39.994)]</title>
</use>
<use transform="translate(4.2203093 0.00018191338), rotate(0)" xlink:href="#item_8">
<title>item, id: 8, transf: [r: 0.000°, t: (4.220, 0.000)]</title>
</use>
<use transform="translate(21.497597 34.851337), rotate(0)" xlink:href="#item_8">
<title>item, id: 8, transf: [r: 0.000°, t: (21.498, 34.851)]</title>
</use>
</g>
<g id="quality_zones"/>
<g id="optionals">
<g id="overlap_lines" transform="translate(0 0), rotate(0)"/>
</g>
<text font-family="monospace" font-size="1.4271235" font-weight="500" x="0" y="-0.7135618">
height: 60.000 | width: 57.085 | usage: 88.596% | final_bench_89
</text>
</svg>