<svg viewBox="-2.840787 -3.0000007 62.497295 66" xmlns="http://www.w3.org/2000/svg" xmlns:xlink="http://www.w3.org/1999/xlink">
<g id="bin_0">
<path d="M0,0 L56.815723,0 L56.815723,60 L0,60 z" fill="#D3D3D3" stroke="black" stroke-width="0.3124865"/>
<title>bin, id: 0, bbox: [x_min: 0.000, y_min: 0.000, x_max: 56.816, y_max: 60.000]</title>
</g>
<g id="items">
<defs>
<g id="item_0">
<path d="M0,8 L1,7 L7,5 L12,0 L15,3 L10,8 L11,9 L1,9 z" fill="#7A7A7A" fill-opacity="0.5" fill-rule="nonzero" stroke="black" stroke-width="0.15624325"/>
</g>
<g id="item_1">
<path d="M2,12 L0,0 L4,0 L4,1 L5,1 L5,0 L9,0 L9,2 L5,12 z" fill="#7A7A7A" fill-opacity="0.5" fill-rule="nonzero" stroke="black" stroke-width="0.15624325"/>
</g>
<g id="item_2">
<path d="M2,24 L0,18 L0,6 L2,0 L9,0 L11,6 L11,18 L9,24 z" fill="#7A7A7A" fill-opacity="0.5" fill-rule="nonzero" stroke="black" stroke-width="0.15624325"/>
</g>
<g id="item_3">
<path d="M0,15 L0,0 L14,0 L14,15 z" fill="#7A7A7A" fill-opacity="0.5" fill-rule="nonzero" stroke="black" stroke-width="0.15624325"/>
</g>
<g id="item_4">
<path d="M0,0 L9,0 L7,5 L2,5 z" fill="#7A7A7A" fill-opacity="0.5" fill-rule="nonzero" stroke="black" stroke-width="0.15624325"/>
</g>
<g id="item_5">
<path d="M0,32 L1,3 L3,0 L6,1 L11,11 L5,31 L2,33 z" fill="#7A7A7A" fill-opacity="0.5" fill-rule="nonzero" stroke="black" stroke-width="0.15624325"/>
</g>
<g id="item_6">
<path d="M0,3 L5,0 L23,0 L13,5 L1,5 z" fill="#7A7A7A" fill-opacity="0.5" fill-rule="nonzero" stroke="black" stroke-width="0.15624325"/>
</g>
<g id="item_7">
<path d="M1,0 L4,0 L5,6 L4,6 L4,5 L3,4 L2,4 L1,5 L1,6 L0,6 z" fill="#7A7A7A" fill-opacity="0.5" fill-rule="nonzero" stroke="black" stroke-width="0.15624325"/>
</g>
<g id="item_8">
<path d="M0,2 L1,0 L8,0 L6,3 z" fill="#7A7A7A" fill-opacity="0.5" fill-rule="nonzero" stroke="black" stroke-width="0.15624325"/>
</g>
<g id="item_9">
<path d="M0,0 L14,0 L5,6 z" fill="#7A7A7A" fill-opacity="0.5" fill-rule="nonzero" stroke="black" stroke-width="0.15624325"/>
</g>
</defs>
<use transform="translate(16.412712 37.407463), rotate(-180)" xlink:href="#item_5">
<title>item, id: 5, transf: [r: -180.000°, t: (16.413, 37.407)]</title>
</use>
<use transform="translate(32.014633 44.10734), rotate(-180)" xlink:href="#item_5">
<title>item, id: 5, transf: [r: -180.000°, t: (32.015, 44.107)]</title>
</use>
<use transform="translate(15.347101 4.331436), rotate(0)" xlink:href="#item_5">
<title>item, id: 5, transf: [r: 0.000°, t: (15.347, 4.331)]</title>
</use>
<use transform="translate(11.000269 59.44914), rotate(-180)" xlink:href="#item_2">
<title>item, id: 2, transf: [r: -180.000°, t: (11.000, 59.449)]</title>
</use>
<use transform="translate(31.813477 35.932873), rotate(0)" xlink:href="#item_2">
<title>item, id: 2, transf: [r: 0.000°, t: (31.813, 35.933)]</title>
</use>
<use transform="translate(42.81408 35.923645), rotate(-180)" xlink:href="#item_2">
<title>item, id: 2, transf: [r: -180.000°, t: (42.814, 35.924)]</title>
</use>
<use transform="translate(42.815342 11.992825), rotate(0)" xlink:href="#item_3">
<title>item, id: 3, transf: [r: 0.000°, t: (42.815, 11.993)]</title>
</use>
<use transform="translate(42.815575 26.992893), rotate(0)" xlink:href="#item_3">
<title>item, id: 3, transf: [r: 0.000°, t: (42.816, 26.993)]</title>
</use>
<use transform="translate(56.81379 59.999973), rotate(-180)" xlink:href="#item_3">
<title>item, id: 3, transf: [r: -180.000°, t: (56.814, 60.000)]</title>
</use>
<use transform="translate(19.460089 0.0008363724), rotate(0)" xlink:href="#item_6">
<title>item, id: 6, transf: [r: 0.000°, t: (19.460, 0.001)]</title>
</use>
<use transform="translate(55.422333 5.0197783), rotate(-180)" xlink:href="#item_6">
<title>item, id: 6, transf: [r: -180.000°, t: (55.422, 5.020)]</title>
</use>
<use transform="translate(0.22758865 0.00001692772), rotate(0)" xlink:href="#item_6">
<title>item, id: 6, transf: [r: 0.000°, t: (0.228, 0.000)]</title>
</use>
<use transform="translate(25.347504 58.407677), rotate(-180)" xlink:href="#item_0">
<title>item, id: 0, transf: [r: -180.000°, t: (25.348, 58.408)]</title>
</use>
<use transform="translate(12.755759 50.999737), rotate(0)" xlink:href="#item_0">
<title>item, id: 0, transf: [r: 0.000°, t: (12.756, 51.000)]</title>
</use>
<use transform="translate(41.811962 2.98694), rotate(0)" xlink:href="#item_0">
<title>item, id: 0, transf: [r: 0.000°, t: (41.812, 2.987)]</title>
</use>
<use transform="translate(0.00024032593 12.446509), rotate(0)" xlink:href="#item_1">
<title>item, id: 1, transf: [r: 0.000°, t: (0.000, 12.447)]</title>
</use>
<use transform="translate(10.330772 37.407608), rotate(0)" xlink:href="#item_1">
<title>item, id: 1, transf: [r: 0.000°, t: (10.331, 37.408)]</title>
</use>
<use transform="translate(25.139542 49.407272), rotate(-180)" xlink:href="#item_1">
<title>item, id: 1, transf: [r: -180.000°, t: (25.140, 49.407)]</title>
</use>
<use transform="translate(35.740788 5.15802), rotate(0)" xlink:href="#item_9">
<title>item, id: 9, transf: [r: 0.000°, t: (35.741, 5.158)]</title>
</use>
<use transform="translate(21.795477 5.0205083), rotate(0)" xlink:href="#item_9">
<title>item, id: 9, transf: [r: 0.000°, t: (21.795, 5.021)]</title>
</use>
<use transform="translate(40.694332 11.103959), rotate(-180)" xlink:href="#item_9">
<title>item, id: 9, transf: [r: -180.000°, t: (40.694, 11.104)]</title>
</use>
<use transform="translate(9.000691 12.445869), rotate(-180)" xlink:href="#item_4">
<title>item, id: 4, transf: [r: -180.000°, t: (9.001, 12.446)]</title>
</use>
<use transform="translate(9.430693 35.44913), rotate(-180)" xlink:href="#item_4">
<title>item, id: 4, transf: [r: -180.000°, t: (9.431, 35.449)]</title>
</use>
<use transform="translate(33.83725 59.99964), rotate(-180)" xlink:href="#item_4">
<title>item, id: 4, transf: [r: -180.000°, t: (33.837, 60.000)]</title>
</use>
<use transform="translate(31.81336 54.344654), rotate(-180)" xlink:href="#item_7">
<title>item, id: 7, transf: [r: -180.000°, t: (31.813, 54.345)]</title>
</use>
<use transform="translate(0.35344505 24.447407), rotate(0)" xlink:href="#item_7">
<title>item, id: 7, transf: [r: 0.000°, t: (0.353, 24.447)]</title>
</use>
<use transform="translate(25.04904 44.107407), rotate(0)" xlink:href="#item_7">
<title>item, id: 7, transf: [r: 0.000°, t: (25.049, 44.107)]</title>
</use>
<use transform="translate(4.3508797 5.000111), rotate(0)" xlink:href="#item_8">
<title>item, id: 8, transf: [r: 0.000°, t: (4.351, 5.000)]</title>
</use>
<use transform="translate(56.81427 44.99978), rotate(-180)" xlink:href="#item_8">
<title>item, id: 8, transf: [r: -180.000°, t: (56.814, 45.000)]</title>
</use>
<use transform="translate(42.814255 41.99812), rotate(0)" xlink:href="#item_8">
<title>item, id: 8, transf: [r: 0.000°, t: (42.814, 41.998)]</title>
</use>
</g>
<g id="quality_zones"/>
<g id="optionals">
<g id="overlap_lines" transform="translate(0 0), rotate(0)"/>
</g>
<text font-family="monospace" font-size="1.4203931" font-weight="500" x="0" y="-0.71019655">
height: 60.000 | width: 56.816 | usage: 89.016% | final_bench_30
</text>
</svg>