<svg viewBox="-2.8494735 -3.0000007 62.6884 66" xmlns="http://www.w3.org/2000/svg" xmlns:xlink="http://www.w3.org/1999/xlink">
<g id="bin_0">
<path d="M0,0 L56.989456,0 L56.989456,60 L0,60 z" fill="#D3D3D3" stroke="black" stroke-width="0.31344202"/>
<title>bin, id: 0, bbox: [x_min: 0.000, y_min: 0.000, x_max: 56.989, y_max: 60.000]</title>
</g>
<g id="items">
<defs>
<g id="item_0">
<path d="M0,8 L1,7 L7,5 L12,0 L15,3 L10,8 L11,9 L1,9 z" fill="#7A7A7A" fill-opacity="0.5" fill-rule="nonzero" stroke="black" stroke-width="0.15672101"/>
</g>
<g id="item_1">
<path d="M2,12 L0,0 L4,0 L4,1 L5,1 L5,0 L9,0 L9,2 L5,12 z" fill="#7A7A7A" fill-opacity="0.5" fill-rule="nonzero" stroke="black" stroke-width="0.15672101"/>
</g>
<g id="item_2">
<path d="M2,24 L0,18 L0,6 L2,0 L9,0 L11,6 L11,18 L9,24 z" fill="#7A7A7A" fill-opacity="0.5" fill-rule="nonzero" stroke="black" stroke-width="0.15672101"/>
</g>
<g id="item_3">
<path d="M0,15 L0,0 L14,0 L14,15 z" fill="#7A7A7A" fill-opacity="0.5" fill-rule="nonzero" stroke="black" stroke-width="0.15672101"/>
</g>
<g id="item_4">
<path d="M0,0 L9,0 L7,5 L2,5 z" fill="#7A7A7A" fill-opacity="0.5" fill-rule="nonzero" stroke="black" stroke-width="0.15672101"/>
</g>
<g id="item_5">
<path d="M0,32 L1,3 L3,0 L6,1 L11,11 L5,31 L2,33 z" fill="#7A7A7A" fill-opacity="0.5" fill-rule="nonzero" stroke="black" stroke-width="0.15672101"/>
</g>
<g id="item_6">
<path d="M0,3 L5,0 L23,0 L13,5 L1,5 z" fill="#7A7A7A" fill-opacity="0.5" fill-rule="nonzero" stroke="black" stroke-width="0.15672101"/>
</g>
<g id="item_7">
<path d="M1,0 L4,0 L5,6 L4,6 L4,5 L3,4 L2,4 L1,5 L1,6 L0,6 z" fill="#7A7A7A" fill-opacity="0.5" fill-rule="nonzero" stroke="black" stroke-width="0.15672101"/>
</g>
<g id="item_8">
<path d="M0,2 L1,0 L8,0 L6,3 z" fill="#7A7A7A" fill-opacity="0.5" fill-rule="nonzero" stroke="black" stroke-width="0.15672101"/>
</g>
<g id="item_9">
<path d="M0,0 L14,0 L5,6 z" fill="#7A7A7A" fill-opacity="0.5" fill-rule="nonzero" stroke="black" stroke-width="0.15672101"/>
</g>
</defs>
<use transform="translate(42.987686 57.720062), rotate(-180)" xlink:href="#item_5">
<title>item, id: 5, transf: [r: -180.000°, t: (42.988, 57.720)]</title>
</use>
<use transform="translate(28.21955 49.990448), rotate(-180)" xlink:href="#item_5">
<title>item, id: 5, transf: [r: -180.000°, t: (28.220, 49.990)]</title>
</use>
<use transform="translate(27.221783 14.939739), rotate(0)" xlink:href="#item_5">
<title>item, id: 5, transf: [r: 0.000°, t: (27.222, 14.940)]</title>
</use>
<use transform="translate(22.001701 29.049648), rotate(-180)" xlink:href="#item_2">
<title>item, id: 2, transf: [r: -180.000°, t: (22.002, 29.050)]</title>
</use>
<use transform="translate(11.000247 27.625496), rotate(-180)" xlink:href="#item_2">
<title>item, id: 2, transf: [r: -180.000°, t: (11.000, 27.625)]</title>
</use>
<use transform="translate(0.00011920929 27.62603), rotate(0)" xlink:href="#item_2">
<title>item, id: 2, transf: [r: 0.000°, t: (0.000, 27.626)]</title>
</use>
<use transform="translate(42.50261 39.998463), rotate(0)" xlink:href="#item_3">
<title>item, id: 3, transf: [r: 0.000°, t: (42.503, 39.998)]</title>
</use>
<use transform="translate(42.987904 24.998302), rotate(0)" xlink:href="#item_3">
<title>item, id: 3, transf: [r: 0.000°, t: (42.988, 24.998)]</title>
</use>
<use transform="translate(42.989407 9.995754), rotate(0)" xlink:href="#item_3">
<title>item, id: 3, transf: [r: 0.000°, t: (42.989, 9.996)]</title>
</use>
<use transform="translate(34.627136 54.999897), rotate(-180)" xlink:href="#item_6">
<title>item, id: 6, transf: [r: -180.000°, t: (34.627, 55.000)]</title>
</use>
<use transform="translate(35.411407 5.047098), rotate(-180)" xlink:href="#item_6">
<title>item, id: 6, transf: [r: -180.000°, t: (35.411, 5.047)]</title>
</use>
<use transform="translate(8.312641 54.999977), rotate(0)" xlink:href="#item_6">
<title>item, id: 6, transf: [r: 0.000°, t: (8.313, 55.000)]</title>
</use>
<use transform="translate(56.45815 9.000855), rotate(-180)" xlink:href="#item_0">
<title>item, id: 0, transf: [r: -180.000°, t: (56.458, 9.001)]</title>
</use>
<use transform="translate(21.400877 57.225613), rotate(-180)" xlink:href="#item_0">
<title>item, id: 0, transf: [r: -180.000°, t: (21.401, 57.226)]</title>
</use>
<use transform="translate(46.45159 9.007357), rotate(-180)" xlink:href="#item_0">
<title>item, id: 0, transf: [r: -180.000°, t: (46.452, 9.007)]</title>
</use>
<use transform="translate(42.989372 17.47481), rotate(-180)" xlink:href="#item_1">
<title>item, id: 1, transf: [r: -180.000°, t: (42.989, 17.475)]</title>
</use>
<use transform="translate(21.007723 5.082322), rotate(0)" xlink:href="#item_1">
<title>item, id: 1, transf: [r: 0.000°, t: (21.008, 5.082)]</title>
</use>
<use transform="translate(10.249907 29.051334), rotate(0)" xlink:href="#item_1">
<title>item, id: 1, transf: [r: 0.000°, t: (10.250, 29.051)]</title>
</use>
<use transform="translate(38.93993 59.248833), rotate(-180)" xlink:href="#item_9">
<title>item, id: 9, transf: [r: -180.000°, t: (38.940, 59.249)]</title>
</use>
<use transform="translate(56.989086 9.994971), rotate(-180)" xlink:href="#item_9">
<title>item, id: 9, transf: [r: -180.000°, t: (56.989, 9.995)]</title>
</use>
<use transform="translate(5.9816594 0.0000071525574), rotate(0)" xlink:href="#item_9">
<title>item, id: 9, transf: [r: 0.000°, t: (5.982, 0.000)]</title>
</use>
<use transform="translate(49.027233 59.999977), rotate(-180)" xlink:href="#item_4">
<title>item, id: 4, transf: [r: -180.000°, t: (49.027, 60.000)]</title>
</use>
<use transform="translate(9.000358 59.99796), rotate(-180)" xlink:href="#item_4">
<title>item, id: 4, transf: [r: -180.000°, t: (9.000, 59.998)]</title>
</use>
<use transform="translate(47.988075 54.99964), rotate(0)" xlink:href="#item_4">
<title>item, id: 4, transf: [r: 0.000°, t: (47.988, 55.000)]</title>
</use>
<use transform="translate(37.986965 17.480705), rotate(0)" xlink:href="#item_7">
<title>item, id: 7, transf: [r: 0.000°, t: (37.987, 17.481)]</title>
</use>
<use transform="translate(14.821365 42.20073), rotate(0)" xlink:href="#item_7">
<title>item, id: 7, transf: [r: 0.000°, t: (14.821, 42.201)]</title>
</use>
<use transform="translate(16.001642 47.05626), rotate(-180)" xlink:href="#item_7">
<title>item, id: 7, transf: [r: -180.000°, t: (16.002, 47.056)]</title>
</use>
<use transform="translate(34.966526 14.833632), rotate(-180)" xlink:href="#item_8">
<title>item, id: 8, transf: [r: -180.000°, t: (34.967, 14.834)]</title>
</use>
<use transform="translate(28.23951 9.6868105), rotate(0)" xlink:href="#item_8">
<title>item, id: 8, transf: [r: 0.000°, t: (28.240, 9.687)]</title>
</use>
<use transform="translate(0.014678717 51.66664), rotate(0)" xlink:href="#item_8">
<title>item, id: 8, transf: [r: 0.000°, t: (0.015, 51.667)]</title>
</use>
</g>
<g id="quality_zones"/>
<g id="optionals">
<g id="overlap_lines" transform="translate(0 0), rotate(0)"/>
</g>
<text font-family="monospace" font-size="1.4247364" font-weight="500" x="0" y="-0.7123682">
height: 60.000 | width: 56.989 | usage: 88.744% | final_bench_42
</text>
</svg>