<svg viewBox="-2.8503134 -3.0000007 62.706886 66" xmlns="http://www.w3.org/2000/svg" xmlns:xlink="http://www.w3.org/1999/xlink">
<g id="bin_0">
<path d="M0,0 L57.006256,0 L57.006256,60 L0,60 z" fill="#D3D3D3" stroke="black" stroke-width="0.31353444"/>
<title>bin, id: 0, bbox: [x_min: 0.000, y_min: 0.000, x_max: 57.006, y_max: 60.000]</title>
</g>
<g id="items">
<defs>
<g id="item_0">
<path d="M0,8 L1,7 L7,5 L12,0 L15,3 L10,8 L11,9 L1,9 z" fill="#7A7A7A" fill-opacity="0.5" fill-rule="nonzero" stroke="black" stroke-width="0.15676722"/>
</g>
<g id="item_1">
<path d="M2,12 L0,0 L4,0 L4,1 L5,1 L5,0 L9,0 L9,2 L5,12 z" fill="#7A7A7A" fill-opacity="0.5" fill-rule="nonzero" stroke="black" stroke-width="0.15676722"/>
</g>
<g id="item_2">
<path d="M2,24 L0,18 L0,6 L2,0 L9,0 L11,6 L11,18 L9,24 z" fill="#7A7A7A" fill-opacity="0.5" fill-rule="nonzero" stroke="black" stroke-width="0.15676722"/>
</g>
<g id="item_3">
<path d="M0,15 L0,0 L14,0 L14,15 z" fill="#7A7A7A" fill-opacity="0.5" fill-rule="nonzero" stroke="black" stroke-width="0.15676722"/>
</g>
<g id="item_4">
<path d="M0,0 L9,0 L7,5 L2,5 z" fill="#7A7A7A" fill-opacity="0.5" fill-rule="nonzero" stroke="black" stroke-width="0.15676722"/>
</g>
<g id="item_5">
<path d="M0,32 L1,3 L3,0 L6,1 L11,11 L5,31 L2,33 z" fill="#7A7A7A" fill-opacity="0.5" fill-rule="nonzero" stroke="black" stroke-width="0.15676722"/>
</g>
<g id="item_6">
<path d="M0,3 L5,0 L23,0 L13,5 L1,5 z" fill="#7A7A7A" fill-opacity="0.5" fill-rule="nonzero" stroke="black" stroke-width="0.15676722"/>
</g>
<g id="item_7">
<path d="M1,0 L4,0 L5,6 L4,6 L4,5 L3,4 L2,4 L1,5 L1,6 L0,6 z" fill="#7A7A7A" fill-opacity="0.5" fill-rule="nonzero" stroke="black" stroke-width="0.15676722"/>
</g>
<g id="item_8">
<path d="M0,2 L1,0 L8,0 L6,3 z" fill="#7A7A7A" fill-opacity="0.5" fill-rule="nonzero" stroke="black" stroke-width="0.15676722"/>
</g>
<g id="item_9">
<path d="M0,0 L14,0 L5,6 z" fill="#7A7A7A" fill-opacity="0.5" fill-rule="nonzero" stroke="black" stroke-width="0.15676722"/>
</g>
</defs>
<use transform="translate(18.6147 59.335167), rotate(-180)" xlink:href="#item_5">
<title>item, id: 5, transf: [r: -180.000°, t: (18.615, 59.335)]</title>
</use>
<use transform="translate(18.267197 11.257521), rotate(0)" xlink:href="#item_5">
<title>item, id: 5, transf: [r: 0.000°, t: (18.267, 11.258)]</title>
</use>
<use transform="translate(0.00003862381 25.66626), rotate(0)" xlink:href="#item_5">
<title>item, id: 5, transf: [r: 0.000°, t: (0.000, 25.666)]</title>
</use>
<use transform="translate(57.002342 30.866089), rotate(-180)" xlink:href="#item_2">
<title>item, id: 2, transf: [r: -180.000°, t: (57.002, 30.866)]</title>
</use>
<use transform="translate(46.006233 35.987957), rotate(0)" xlink:href="#item_2">
<title>item, id: 2, transf: [r: 0.000°, t: (46.006, 35.988)]</title>
</use>
<use transform="translate(45.992775 32.40785), rotate(-180)" xlink:href="#item_2">
<title>item, id: 2, transf: [r: -180.000°, t: (45.993, 32.408)]</title>
</use>
<use transform="translate(32.0059 59.997574), rotate(-180)" xlink:href="#item_3">
<title>item, id: 3, transf: [r: -180.000°, t: (32.006, 59.998)]</title>
</use>
<use transform="translate(14.008097 25.002375), rotate(-180)" xlink:href="#item_3">
<title>item, id: 3, transf: [r: -180.000°, t: (14.008, 25.002)]</title>
</use>
<use transform="translate(46.005943 59.977264), rotate(-180)" xlink:href="#item_3">
<title>item, id: 3, transf: [r: -180.000°, t: (46.006, 59.977)]</title>
</use>
<use transform="translate(8.541594 5.0021653), rotate(0)" xlink:href="#item_6">
<title>item, id: 6, transf: [r: 0.000°, t: (8.542, 5.002)]</title>
</use>
<use transform="translate(36.045525 5.001979), rotate(-180)" xlink:href="#item_6">
<title>item, id: 6, transf: [r: -180.000°, t: (36.046, 5.002)]</title>
</use>
<use transform="translate(0.0037384033 0.00005054474), rotate(0)" xlink:href="#item_6">
<title>item, id: 6, transf: [r: 0.000°, t: (0.004, 0.000)]</title>
</use>
<use transform="translate(57.006115 9.198611), rotate(-180)" xlink:href="#item_0">
<title>item, id: 0, transf: [r: -180.000°, t: (57.006, 9.199)]</title>
</use>
<use transform="translate(21.780537 35.9633), rotate(0)" xlink:href="#item_0">
<title>item, id: 0, transf: [r: 0.000°, t: (21.781, 35.963)]</title>
</use>
<use transform="translate(39.422104 41.40936), rotate(-180)" xlink:href="#item_0">
<title>item, id: 0, transf: [r: -180.000°, t: (39.422, 41.409)]</title>
</use>
<use transform="translate(39.61685 32.43241), rotate(0)" xlink:href="#item_1">
<title>item, id: 1, transf: [r: 0.000°, t: (39.617, 32.432)]</title>
</use>
<use transform="translate(27.362356 8.282496), rotate(0)" xlink:href="#item_1">
<title>item, id: 1, transf: [r: 0.000°, t: (27.362, 8.282)]</title>
</use>
<use transform="translate(35.890156 32.283188), rotate(-180)" xlink:href="#item_1">
<title>item, id: 1, transf: [r: -180.000°, t: (35.890, 32.283)]</title>
</use>
<use transform="translate(40.644535 8.26728), rotate(-180)" xlink:href="#item_9">
<title>item, id: 9, transf: [r: -180.000°, t: (40.645, 8.267)]</title>
</use>
<use transform="translate(4.613666 25.002415), rotate(0)" xlink:href="#item_9">
<title>item, id: 9, transf: [r: 0.000°, t: (4.614, 25.002)]</title>
</use>
<use transform="translate(14.001084 59.999317), rotate(-180)" xlink:href="#item_9">
<title>item, id: 9, transf: [r: -180.000°, t: (14.001, 59.999)]</title>
</use>
<use transform="translate(36.05377 0.1427021), rotate(0)" xlink:href="#item_4">
<title>item, id: 4, transf: [r: 0.000°, t: (36.054, 0.143)]</title>
</use>
<use transform="translate(0.17348433 5.000807), rotate(0)" xlink:href="#item_4">
<title>item, id: 4, transf: [r: 0.000°, t: (0.173, 5.001)]</title>
</use>
<use transform="translate(48.00188 30.870617), rotate(0)" xlink:href="#item_4">
<title>item, id: 4, transf: [r: 0.000°, t: (48.002, 30.871)]</title>
</use>
<use transform="translate(36.240532 36.220165), rotate(0)" xlink:href="#item_7">
<title>item, id: 7, transf: [r: 0.000°, t: (36.241, 36.220)]</title>
</use>
<use transform="translate(19.053066 24.985847), rotate(-180)" xlink:href="#item_7">
<title>item, id: 7, transf: [r: -180.000°, t: (19.053, 24.986)]</title>
</use>
<use transform="translate(19.387486 18.985172), rotate(-180)" xlink:href="#item_7">
<title>item, id: 7, transf: [r: -180.000°, t: (19.387, 18.985)]</title>
</use>
<use transform="translate(14.057667 10.0619335), rotate(0)" xlink:href="#item_8">
<title>item, id: 8, transf: [r: 0.000°, t: (14.058, 10.062)]</title>
</use>
<use transform="translate(40.77447 44.97724), rotate(-180)" xlink:href="#item_8">
<title>item, id: 8, transf: [r: -180.000°, t: (40.774, 44.977)]</title>
</use>
<use transform="translate(57.006092 6.865937), rotate(-180)" xlink:href="#item_8">
<title>item, id: 8, transf: [r: -180.000°, t: (57.006, 6.866)]</title>
</use>
</g>
<g id="quality_zones"/>
<g id="optionals">
<g id="overlap_lines" transform="translate(0 0), rotate(0)"/>
</g>
<text font-family="monospace" font-size="1.4251565" font-weight="500" x="0" y="-0.71257824">
height: 60.000 | width: 57.006 | usage: 88.718% | final_bench_34
</text>
</svg>