<svg viewBox="-2.847018 -3.0000007 62.634384 66" xmlns="http://www.w3.org/2000/svg" xmlns:xlink="http://www.w3.org/1999/xlink">
<g id="bin_0">
<path d="M0,0 L56.940346,0 L56.940346,60 L0,60 z" fill="#D3D3D3" stroke="black" stroke-width="0.31317192"/>
<title>bin, id: 0, bbox: [x_min: 0.000, y_min: 0.000, x_max: 56.940, y_max: 60.000]</title>
</g>
<g id="items">
<defs>
<g id="item_0">
<path d="M0,8 L1,7 L7,5 L12,0 L15,3 L10,8 L11,9 L1,9 z" fill="#7A7A7A" fill-opacity="0.5" fill-rule="nonzero" stroke="black" stroke-width="0.15658596"/>
</g>
<g id="item_1">
<path d="M2,12 L0,0 L4,0 L4,1 L5,1 L5,0 L9,0 L9,2 L5,12 z" fill="#7A7A7A" fill-opacity="0.5" fill-rule="nonzero" stroke="black" stroke-width="0.15658596"/>
</g>
<g id="item_2">
<path d="M2,24 L0,18 L0,6 L2,0 L9,0 L11,6 L11,18 L9,24 z" fill="#7A7A7A" fill-opacity="0.5" fill-rule="nonzero" stroke="black" stroke-width="0.15658596"/>
</g>
<g id="item_3">
<path d="M0,15 L0,0 L14,0 L14,15 z" fill="#7A7A7A" fill-opacity="0.5" fill-rule="nonzero" stroke="black" stroke-width="0.15658596"/>
</g>
<g id="item_4">
<path d="M0,0 L9,0 L7,5 L2,5 z" fill="#7A7A7A" fill-opacity="0.5" fill-rule="nonzero" stroke="black" stroke-width="0.15658596"/>
</g>
<g id="item_5">
<path d="M0,32 L1,3 L3,0 L6,1 L11,11 L5,31 L2,33 z" fill="#7A7A7A" fill-opacity="0.5" fill-rule="nonzero" stroke="black" stroke-width="0.15658596"/>
</g>
<g id="item_6">
<path d="M0,3 L5,0 L23,0 L13,5 L1,5 z" fill="#7A7A7A" fill-opacity="0.5" fill-rule="nonzero" stroke="black" stroke-width="0.15658596"/>
</g>
<g id="item_7">
<path d="M1,0 L4,0 L5,6 L4,6 L4,5 L3,4 L2,4 L1,5 L1,6 L0,6 z" fill="#7A7A7A" fill-opacity="0.5" fill-rule="nonzero" stroke="black" stroke-width="0.15658596"/>
</g>
<g id="item_8">
<path d="M0,2 L1,0 L8,0 L6,3 z" fill="#7A7A7A" fill-opacity="0.5" fill-rule="nonzero" stroke="black" stroke-width="0.15658596"/>
</g>
<g id="item_9">
<path d="M0,0 L14,0 L5,6 z" fill="#7A7A7A" fill-opacity="0.5" fill-rule="nonzero" stroke="black" stroke-width="0.15658596"/>
</g>
</defs>
<use transform="translate(56.9402 34.797607), rotate(-180)" xlink:href="#item_5">
<title>item, id: 5, transf: [r: -180.000°, t: (56.940, 34.798)]</title>
</use>
<use transform="translate(39.515686 35.6186), rotate(-180)" xlink:href="#item_5">
<title>item, id: 5, transf: [r: -180.000°, t: (39.516, 35.619)]</title>
</use>
<use transform="translate(38.50625 0.90355873), rotate(0)" xlink:href="#item_5">
<title>item, id: 5, transf: [r: 0.000°, t: (38.506, 0.904)]</title>
</use>
<use transform="translate(0.000060081482 35.963314), rotate(0)" xlink:href="#item_2">
<title>item, id: 2, transf: [r: 0.000°, t: (0.000, 35.963)]</title>
</use>
<use transform="translate(25.000702 29.001225), rotate(-180)" xlink:href="#item_2">
<title>item, id: 2, transf: [r: -180.000°, t: (25.001, 29.001)]</title>
</use>
<use transform="translate(56.940155 59.997314), rotate(-180)" xlink:href="#item_2">
<title>item, id: 2, transf: [r: -180.000°, t: (56.940, 59.997)]</title>
</use>
<use transform="translate(31.93526 44.999817), rotate(0)" xlink:href="#item_3">
<title>item, id: 3, transf: [r: 0.000°, t: (31.935, 45.000)]</title>
</use>
<use transform="translate(14.00052 35.00481), rotate(-180)" xlink:href="#item_3">
<title>item, id: 3, transf: [r: -180.000°, t: (14.001, 35.005)]</title>
</use>
<use transform="translate(14.000362 20.003006), rotate(-180)" xlink:href="#item_3">
<title>item, id: 3, transf: [r: -180.000°, t: (14.000, 20.003)]</title>
</use>
<use transform="translate(31.93471 59.99953), rotate(-180)" xlink:href="#item_6">
<title>item, id: 6, transf: [r: -180.000°, t: (31.935, 60.000)]</title>
</use>
<use transform="translate(18.003153 0.00000166893), rotate(0)" xlink:href="#item_6">
<title>item, id: 6, transf: [r: 0.000°, t: (18.003, 0.000)]</title>
</use>
<use transform="translate(0.00067424774 0.0013365746), rotate(0)" xlink:href="#item_6">
<title>item, id: 6, transf: [r: 0.000°, t: (0.001, 0.001)]</title>
</use>
<use transform="translate(43.31496 44.623253), rotate(-180)" xlink:href="#item_0">
<title>item, id: 0, transf: [r: -180.000°, t: (43.315, 44.623)]</title>
</use>
<use transform="translate(18.213829 33.724186), rotate(0)" xlink:href="#item_0">
<title>item, id: 0, transf: [r: 0.000°, t: (18.214, 33.724)]</title>
</use>
<use transform="translate(31.938923 35.999603), rotate(0)" xlink:href="#item_0">
<title>item, id: 0, transf: [r: 0.000°, t: (31.939, 36.000)]</title>
</use>
<use transform="translate(24.57605 5.000498), rotate(0)" xlink:href="#item_1">
<title>item, id: 1, transf: [r: 0.000°, t: (24.576, 5.000)]</title>
</use>
<use transform="translate(16.97717 42.725147), rotate(0)" xlink:href="#item_1">
<title>item, id: 1, transf: [r: 0.000°, t: (16.977, 42.725)]</title>
</use>
<use transform="translate(31.66899 54.99671), rotate(-180)" xlink:href="#item_1">
<title>item, id: 1, transf: [r: -180.000°, t: (31.669, 54.997)]</title>
</use>
<use transform="translate(42.940193 0.0024826527), rotate(0)" xlink:href="#item_9">
<title>item, id: 9, transf: [r: 0.000°, t: (42.940, 0.002)]</title>
</use>
<use transform="translate(52.1622 35.62305), rotate(-180)" xlink:href="#item_9">
<title>item, id: 9, transf: [r: -180.000°, t: (52.162, 35.623)]</title>
</use>
<use transform="translate(15.934214 34.001522), rotate(0)" xlink:href="#item_9">
<title>item, id: 9, transf: [r: 0.000°, t: (15.934, 34.002)]</title>
</use>
<use transform="translate(14.000561 29.0014), rotate(0)" xlink:href="#item_4">
<title>item, id: 4, transf: [r: 0.000°, t: (14.001, 29.001)]</title>
</use>
<use transform="translate(31.203695 30.994612), rotate(-180)" xlink:href="#item_4">
<title>item, id: 4, transf: [r: -180.000°, t: (31.204, 30.995)]</title>
</use>
<use transform="translate(9.801163 38.164066), rotate(0)" xlink:href="#item_4">
<title>item, id: 4, transf: [r: 0.000°, t: (9.801, 38.164)]</title>
</use>
<use transform="translate(13.00574 43.165062), rotate(0)" xlink:href="#item_7">
<title>item, id: 7, transf: [r: 0.000°, t: (13.006, 43.165)]</title>
</use>
<use transform="translate(30.000908 23.000605), rotate(-180)" xlink:href="#item_7">
<title>item, id: 7, transf: [r: -180.000°, t: (30.001, 23.001)]</title>
</use>
<use transform="translate(16.004793 53.16604), rotate(-180)" xlink:href="#item_7">
<title>item, id: 7, transf: [r: -180.000°, t: (16.005, 53.166)]</title>
</use>
<use transform="translate(10.599847 53.166904), rotate(0)" xlink:href="#item_8">
<title>item, id: 8, transf: [r: 0.000°, t: (10.600, 53.167)]</title>
</use>
<use transform="translate(17.734182 38.162476), rotate(-180)" xlink:href="#item_8">
<title>item, id: 8, transf: [r: -180.000°, t: (17.734, 38.162)]</title>
</use>
<use transform="translate(22.246319 30.994732), rotate(0)" xlink:href="#item_8">
<title>item, id: 8, transf: [r: 0.000°, t: (22.246, 30.995)]</title>
</use>
</g>
<g id="quality_zones"/>
<g id="optionals">
<g id="overlap_lines" transform="translate(0 0), rotate(0)"/>
</g>
<text font-family="monospace" font-size="1.4235086" font-weight="500" x="0" y="-0.7117543">
height: 60.000 | width: 56.940 | usage: 88.821% | final_bench_94
</text>
</svg>