<svg viewBox="-2.8547025 -3.0000007 62.80344 66" xmlns="http://www.w3.org/2000/svg" xmlns:xlink="http://www.w3.org/1999/xlink">
<g id="bin_0">
<path d="M0,0 L57.094036,0 L57.094036,60 L0,60 z" fill="#D3D3D3" stroke="black" stroke-width="0.3140172"/>
<title>bin, id: 0, bbox: [x_min: 0.000, y_min: 0.000, x_max: 57.094, y_max: 60.000]</title>
</g>
<g id="items">
<defs>
<g id="item_0">
<path d="M0,8 L1,7 L7,5 L12,0 L15,3 L10,8 L11,9 L1,9 z" fill="#7A7A7A" fill-opacity="0.5" fill-rule="nonzero" stroke="black" stroke-width="0.1570086"/>
</g>
<g id="item_1">
<path d="M2,12 L0,0 L4,0 L4,1 L5,1 L5,0 L9,0 L9,2 L5,12 z" fill="#7A7A7A" fill-opacity="0.5" fill-rule="nonzero" stroke="black" stroke-width="0.1570086"/>
</g>
<g id="item_2">
<path d="M2,24 L0,18 L0,6 L2,0 L9,0 L11,6 L11,18 L9,24 z" fill="#7A7A7A" fill-opacity="0.5" fill-rule="nonzero" stroke="black" stroke-width="0.1570086"/>
</g>
<g id="item_3">
<path d="M0,15 L0,0 L14,0 L14,15 z" fill="#7A7A7A" fill-opacity="0.5" fill-rule="nonzero" stroke="black" stroke-width="0.1570086"/>
</g>
<g id="item_4">
<path d="M0,0 L9,0 L7,5 L2,5 z" fill="#7A7A7A" fill-opacity="0.5" fill-rule="nonzero" stroke="black" stroke-width="0.1570086"/>
</g>
<g id="item_5">
<path d="M0,32 L1,3 L3,0 L6,1 L11,11 L5,31 L2,33 z" fill="#7A7A7A" fill-opacity="0.5" fill-rule="nonzero" stroke="black" stroke-width="0.1570086"/>
</g>
<g id="item_6">
<path d="M0,3 L5,0 L23,0 L13,5 L1,5 z" fill="#7A7A7A" fill-opacity="0.5" fill-rule="nonzero" stroke="black" stroke-width="0.1570086"/>
</g>
<g id="item_7">
<path d="M1,0 L4,0 L5,6 L4,6 L4,5 L3,4 L2,4 L1,5 L1,6 L0,6 z" fill="#7A7A7A" fill-opacity="0.5" fill-rule="nonzero" stroke="black" stroke-width="0.1570086"/>
</g>
<g id="item_8">
<path d="M0,2 L1,0 L8,0 L6,3 z" fill="#7A7A7A" fill-opacity="0.5" fill-rule="nonzero" stroke="black" stroke-width="0.1570086"/>
</g>
<g id="item_9">
<path d="M0,0 L14,0 L5,6 z" fill="#7A7A7A" fill-opacity="0.5" fill-rule="nonzero" stroke="black" stroke-width="0.1570086"/>
</g>
</defs>
<use transform="translate(0.0034794807 24.020744), rotate(0)" xlink:href="#item_5">
<title>item, id: 5, transf: [r: 0.000°, t: (0.003, 24.021)]</title>
</use>
<use transform="translate(17.904896 59.769577), rotate(-180)" xlink:href="#item_5">
<title>item, id: 5, transf: [r: -180.000°, t: (17.905, 59.770)]</title>
</use>
<use transform="translate(16.859798 26.275593), rotate(0)" xlink:href="#item_5">
<title>item, id: 5, transf: [r: 0.000°, t: (16.860, 26.276)]</title>
</use>
<use transform="translate(0.00033712387 0.020144463), rotate(0)" xlink:href="#item_2">
<title>item, id: 2, transf: [r: 0.000°, t: (0.000, 0.020)]</title>
</use>
<use transform="translate(57.094032 59.69716), rotate(-180)" xlink:href="#item_2">
<title>item, id: 2, transf: [r: -180.000°, t: (57.094, 59.697)]</title>
</use>
<use transform="translate(46.093636 11.695896), rotate(0)" xlink:href="#item_2">
<title>item, id: 2, transf: [r: 0.000°, t: (46.094, 11.696)]</title>
</use>
<use transform="translate(32.085804 24.99913), rotate(0)" xlink:href="#item_3">
<title>item, id: 3, transf: [r: 0.000°, t: (32.086, 24.999)]</title>
</use>
<use transform="translate(11.000568 5.006173), rotate(0)" xlink:href="#item_3">
<title>item, id: 3, transf: [r: 0.000°, t: (11.001, 5.006)]</title>
</use>
<use transform="translate(32.083473 39.99918), rotate(0)" xlink:href="#item_3">
<title>item, id: 3, transf: [r: 0.000°, t: (32.083, 39.999)]</title>
</use>
<use transform="translate(40.41178 59.999836), rotate(-180)" xlink:href="#item_6">
<title>item, id: 6, transf: [r: -180.000°, t: (40.412, 60.000)]</title>
</use>
<use transform="translate(45.999786 5.00073), rotate(-180)" xlink:href="#item_6">
<title>item, id: 6, transf: [r: -180.000°, t: (46.000, 5.001)]</title>
</use>
<use transform="translate(9.996714 0.00014901161), rotate(0)" xlink:href="#item_6">
<title>item, id: 6, transf: [r: 0.000°, t: (9.997, 0.000)]</title>
</use>
<use transform="translate(22.011978 29.008762), rotate(-180)" xlink:href="#item_0">
<title>item, id: 0, transf: [r: -180.000°, t: (22.012, 29.009)]</title>
</use>
<use transform="translate(57.001057 9.000177), rotate(-180)" xlink:href="#item_0">
<title>item, id: 0, transf: [r: -180.000°, t: (57.001, 9.000)]</title>
</use>
<use transform="translate(42.093933 2.6358953), rotate(0)" xlink:href="#item_0">
<title>item, id: 0, transf: [r: 0.000°, t: (42.094, 2.636)]</title>
</use>
<use transform="translate(38.061382 12.791591), rotate(0)" xlink:href="#item_1">
<title>item, id: 1, transf: [r: 0.000°, t: (38.061, 12.792)]</title>
</use>
<use transform="translate(40.094803 24.99768), rotate(-180)" xlink:href="#item_1">
<title>item, id: 1, transf: [r: -180.000°, t: (40.095, 24.998)]</title>
</use>
<use transform="translate(25.377714 12.790248), rotate(0)" xlink:href="#item_1">
<title>item, id: 1, transf: [r: 0.000°, t: (25.378, 12.790)]</title>
</use>
<use transform="translate(43.889183 12.790203), rotate(-180)" xlink:href="#item_9">
<title>item, id: 9, transf: [r: -180.000°, t: (43.889, 12.790)]</title>
</use>
<use transform="translate(28.615318 26.275513), rotate(-180)" xlink:href="#item_9">
<title>item, id: 9, transf: [r: -180.000°, t: (28.615, 26.276)]</title>
</use>
<use transform="translate(27.571669 5.0010223), rotate(0)" xlink:href="#item_9">
<title>item, id: 9, transf: [r: 0.000°, t: (27.572, 5.001)]</title>
</use>
<use transform="translate(23.074106 26.610405), rotate(0)" xlink:href="#item_4">
<title>item, id: 4, transf: [r: 0.000°, t: (23.074, 26.610)]</title>
</use>
<use transform="translate(12.013119 59.99766), rotate(-180)" xlink:href="#item_4">
<title>item, id: 4, transf: [r: -180.000°, t: (12.013, 59.998)]</title>
</use>
<use transform="translate(48.2128 59.99984), rotate(-180)" xlink:href="#item_4">
<title>item, id: 4, transf: [r: -180.000°, t: (48.213, 60.000)]</title>
</use>
<use transform="translate(32.079 47.209347), rotate(-180)" xlink:href="#item_7">
<title>item, id: 7, transf: [r: -180.000°, t: (32.079, 47.209)]</title>
</use>
<use transform="translate(25.000605 6.7158165), rotate(0)" xlink:href="#item_7">
<title>item, id: 7, transf: [r: 0.000°, t: (25.001, 6.716)]</title>
</use>
<use transform="translate(32.053566 37.782738), rotate(-180)" xlink:href="#item_7">
<title>item, id: 7, transf: [r: -180.000°, t: (32.054, 37.783)]</title>
</use>
<use transform="translate(32.083458 49.884937), rotate(-180)" xlink:href="#item_8">
<title>item, id: 8, transf: [r: -180.000°, t: (32.083, 49.885)]</title>
</use>
<use transform="translate(24.0545 49.88543), rotate(0)" xlink:href="#item_8">
<title>item, id: 8, transf: [r: 0.000°, t: (24.055, 49.885)]</title>
</use>
<use transform="translate(30.6838 54.999786), rotate(-180)" xlink:href="#item_8">
<title>item, id: 8, transf: [r: -180.000°, t: (30.684, 55.000)]</title>
</use>
</g>
<g id="quality_zones"/>
<g id="optionals">
<g id="overlap_lines" transform="translate(0 0), rotate(0)"/>
</g>
<text font-family="monospace" font-size="1.4273509" font-weight="500" x="0" y="-0.71367544">
height: 60.000 | width: 57.094 | usage: 88.582% | final_bench_53
</text>
</svg>