<svg viewBox="-3.8000367 -5.2000012 83.600784 114.40001" xmlns="http://www.w3.org/2000/svg" xmlns:xlink="http://www.w3.org/1999/xlink">
<g id="bin_0">
<path d="M0,0 L76.00072,0 L76.00072,104 L0,104 z" fill="#D3D3D3" stroke="black" stroke-width="0.41800395"/>
<title>bin, id: 0, bbox: [x_min: 0.000, y_min: 0.000, x_max: 76.001, y_max: 104.000]</title>
</g>
<g id="items">
<defs>
<g id="item_0">
<path d="M0,0 L21,0 L21,22 L14,28 L7,28 L0,22 z" fill="#7A7A7A" fill-opacity="0.5" fill-rule="nonzero" stroke="black" stroke-width="0.20900197"/>
</g>
<g id="item_1">
<path d="M0,5 L2,0 L11,2 L19,0 L21,5 L17,4 L11,6 L4,4 z" fill="#7A7A7A" fill-opacity="0.5" fill-rule="nonzero" stroke="black" stroke-width="0.20900197"/>
</g>
<g id="item_2">
<path d="M0,0 L33,0 L33,14 L30,14 L26,17 L13,15 L0,17 z" fill="#7A7A7A" fill-opacity="0.5" fill-rule="nonzero" stroke="black" stroke-width="0.20900197"/>
</g>
<g id="item_3">
<path d="M0,0 L4,0 L4,39 L0,39 z" fill="#7A7A7A" fill-opacity="0.5" fill-rule="nonzero" stroke="black" stroke-width="0.20900197"/>
</g>
<g id="item_4">
<path d="M0,0 L10,0 L10,11 L0,11 z" fill="#7A7A7A" fill-opacity="0.5" fill-rule="nonzero" stroke="black" stroke-width="0.20900197"/>
</g>
<g id="item_5">
<path d="M2,20 L0,18 L2,10 L0,2 L2,0 L4,10 z" fill="#7A7A7A" fill-opacity="0.5" fill-rule="nonzero" stroke="black" stroke-width="0.20900197"/>
</g>
<g id="item_6">
<path d="M0,0 L29,0 L27,12 L29,22 L25,26 L25,33 L18,37 L16,35 L14,35 L12,37 L4,34 L4,26 L0,22 L2,12 z" fill="#7A7A7A" fill-opacity="0.5" fill-rule="nonzero" stroke="black" stroke-width="0.20900197"/>
</g>
<g id="item_7">
<path d="M0,0 L33,0 L37,6 L35,13 L28,13 L25,15 L14,13 L0,15 z" fill="#7A7A7A" fill-opacity="0.5" fill-rule="nonzero" stroke="black" stroke-width="0.20900197"/>
</g>
</defs>
<use transform="translate(19.013092 69.751144), rotate(-90)" xlink:href="#item_6">
<title>item, id: 6, transf: [r: -90.000°, t: (19.013, 69.751)]</title>
</use>
<use transform="translate(76.000046 17.673399), rotate(90)" xlink:href="#item_6">
<title>item, id: 6, transf: [r: 90.000°, t: (76.000, 17.673)]</title>
</use>
<use transform="translate(38.996666 38.719994), rotate(-180)" xlink:href="#item_2">
<title>item, id: 2, transf: [r: -180.000°, t: (38.997, 38.720)]</title>
</use>
<use transform="translate(43.000633 0.0036592484), rotate(0)" xlink:href="#item_2">
<title>item, id: 2, transf: [r: 0.000°, t: (43.001, 0.004)]</title>
</use>
<use transform="translate(54.979237 82.969154), rotate(-180)" xlink:href="#item_7">
<title>item, id: 7, transf: [r: -180.000°, t: (54.979, 82.969)]</title>
</use>
<use transform="translate(19.006472 38.73952), rotate(90)" xlink:href="#item_7">
<title>item, id: 7, transf: [r: 90.000°, t: (19.006, 38.740)]</title>
</use>
<use transform="translate(21.011066 103.999504), rotate(-180)" xlink:href="#item_0">
<title>item, id: 0, transf: [r: -180.000°, t: (21.011, 104.000)]</title>
</use>
<use transform="translate(32.000313 0.0022678375), rotate(90)" xlink:href="#item_0">
<title>item, id: 0, transf: [r: 90.000°, t: (32.000, 0.002)]</title>
</use>
<use transform="translate(54.993767 82.97012), rotate(90)" xlink:href="#item_0">
<title>item, id: 0, transf: [r: 90.000°, t: (54.994, 82.970)]</title>
</use>
<use transform="translate(76.000435 103.99974), rotate(-180)" xlink:href="#item_0">
<title>item, id: 0, transf: [r: -180.000°, t: (76.000, 104.000)]</title>
</use>
<use transform="translate(4.000064 39.561142), rotate(-180)" xlink:href="#item_3">
<title>item, id: 3, transf: [r: -180.000°, t: (4.000, 39.561)]</title>
</use>
<use transform="translate(0.000029087067 39.569424), rotate(0)" xlink:href="#item_3">
<title>item, id: 3, transf: [r: 0.000°, t: (0.000, 39.569)]</title>
</use>
<use transform="translate(28.098091 82.97145), rotate(90)" xlink:href="#item_1">
<title>item, id: 1, transf: [r: 90.000°, t: (28.098, 82.971)]</title>
</use>
<use transform="translate(75.99902 74.81014), rotate(-180)" xlink:href="#item_1">
<title>item, id: 1, transf: [r: -180.000°, t: (75.999, 74.810)]</title>
</use>
<use transform="translate(75.96961 53.298676), rotate(-180)" xlink:href="#item_1">
<title>item, id: 1, transf: [r: -180.000°, t: (75.970, 53.299)]</title>
</use>
<use transform="translate(75.99966 57.806522), rotate(-180)" xlink:href="#item_1">
<title>item, id: 1, transf: [r: -180.000°, t: (76.000, 57.807)]</title>
</use>
<use transform="translate(65.99385 68.807755), rotate(-180)" xlink:href="#item_4">
<title>item, id: 4, transf: [r: -180.000°, t: (65.994, 68.808)]</title>
</use>
<use transform="translate(32.999023 0.0012555122), rotate(0)" xlink:href="#item_4">
<title>item, id: 4, transf: [r: 0.000°, t: (32.999, 0.001)]</title>
</use>
<use transform="translate(66.0004 58.086384), rotate(0)" xlink:href="#item_4">
<title>item, id: 4, transf: [r: 0.000°, t: (66.000, 58.086)]</title>
</use>
<use transform="translate(43.000404 11.008692), rotate(90)" xlink:href="#item_4">
<title>item, id: 4, transf: [r: 90.000°, t: (43.000, 11.009)]</title>
</use>
<use transform="translate(45.77477 19.222404), rotate(-90)" xlink:href="#item_5">
<title>item, id: 5, transf: [r: -90.000°, t: (45.775, 19.222)]</title>
</use>
<use transform="translate(55.517815 77.11936), rotate(-90)" xlink:href="#item_5">
<title>item, id: 5, transf: [r: -90.000°, t: (55.518, 77.119)]</title>
</use>
<use transform="translate(40.844963 38.72301), rotate(90)" xlink:href="#item_5">
<title>item, id: 5, transf: [r: 90.000°, t: (40.845, 38.723)]</title>
</use>
<use transform="translate(55.439606 48.91388), rotate(-90)" xlink:href="#item_5">
<title>item, id: 5, transf: [r: -90.000°, t: (55.440, 48.914)]</title>
</use>
</g>
<g id="quality_zones"/>
<g id="optionals">
<g id="overlap_lines" transform="translate(0 0), rotate(0)"/>
</g>
<text font-family="monospace" font-size="1.900018" font-weight="500" x="0" y="-0.950009">
height: 104.000 | width: 76.001 | usage: 91.016% | final_bench_4
</text>
</svg>