<svg viewBox="-3.822233 -5.2000012 84.08911 114.40001" xmlns="http://www.w3.org/2000/svg" xmlns:xlink="http://www.w3.org/1999/xlink">
<g id="bin_0">
<path d="M0,0 L76.44464,0 L76.44464,104 L0,104 z" fill="#D3D3D3" stroke="black" stroke-width="0.42044556"/>
<title>bin, id: 0, bbox: [x_min: 0.000, y_min: 0.000, x_max: 76.445, y_max: 104.000]</title>
</g>
<g id="items">
<defs>
<g id="item_0">
<path d="M0,0 L21,0 L21,22 L14,28 L7,28 L0,22 z" fill="#7A7A7A" fill-opacity="0.5" fill-rule="nonzero" stroke="black" stroke-width="0.21022278"/>
</g>
<g id="item_1">
<path d="M0,5 L2,0 L11,2 L19,0 L21,5 L17,4 L11,6 L4,4 z" fill="#7A7A7A" fill-opacity="0.5" fill-rule="nonzero" stroke="black" stroke-width="0.21022278"/>
</g>
<g id="item_2">
<path d="M0,0 L33,0 L33,14 L30,14 L26,17 L13,15 L0,17 z" fill="#7A7A7A" fill-opacity="0.5" fill-rule="nonzero" stroke="black" stroke-width="0.21022278"/>
</g>
<g id="item_3">
<path d="M0,0 L4,0 L4,39 L0,39 z" fill="#7A7A7A" fill-opacity="0.5" fill-rule="nonzero" stroke="black" stroke-width="0.21022278"/>
</g>
<g id="item_4">
<path d="M0,0 L10,0 L10,11 L0,11 z" fill="#7A7A7A" fill-opacity="0.5" fill-rule="nonzero" stroke="black" stroke-width="0.21022278"/>
</g>
<g id="item_5">
<path d="M2,20 L0,18 L2,10 L0,2 L2,0 L4,10 z" fill="#7A7A7A" fill-opacity="0.5" fill-rule="nonzero" stroke="black" stroke-width="0.21022278"/>
</g>
<g id="item_6">
<path d="M0,0 L29,0 L27,12 L29,22 L25,26 L25,33 L18,37 L16,35 L14,35 L12,37 L4,34 L4,26 L0,22 L2,12 z" fill="#7A7A7A" fill-opacity="0.5" fill-rule="nonzero" stroke="black" stroke-width="0.21022278"/>
</g>
<g id="item_7">
<path d="M0,0 L33,0 L37,6 L35,13 L28,13 L25,15 L14,13 L0,15 z" fill="#7A7A7A" fill-opacity="0.5" fill-rule="nonzero" stroke="black" stroke-width="0.21022278"/>
</g>
</defs>
<use transform="translate(63.261322 37.439774), rotate(-180)" xlink:href="#item_6">
<title>item, id: 6, transf: [r: -180.000°, t: (63.261, 37.440)]</title>
</use>
<use transform="translate(21.000454 70.44094), rotate(-90)" xlink:href="#item_6">
<title>item, id: 6, transf: [r: -90.000°, t: (21.000, 70.441)]</title>
</use>
<use transform="translate(0.0033550262 4.000797), rotate(0)" xlink:href="#item_2">
<title>item, id: 2, transf: [r: 0.000°, t: (0.003, 4.001)]</title>
</use>
<use transform="translate(76.444275 48.747925), rotate(90)" xlink:href="#item_2">
<title>item, id: 2, transf: [r: 90.000°, t: (76.444, 48.748)]</title>
</use>
<use transform="translate(76.44453 0.43597984), rotate(90)" xlink:href="#item_7">
<title>item, id: 7, transf: [r: 90.000°, t: (76.445, 0.436)]</title>
</use>
<use transform="translate(42.16649 103.99783), rotate(-90)" xlink:href="#item_7">
<title>item, id: 7, transf: [r: -90.000°, t: (42.166, 103.998)]</title>
</use>
<use transform="translate(0.014144897 75.99945), rotate(0)" xlink:href="#item_0">
<title>item, id: 0, transf: [r: 0.000°, t: (0.014, 75.999)]</title>
</use>
<use transform="translate(21.000023 47.933765), rotate(-180)" xlink:href="#item_0">
<title>item, id: 0, transf: [r: -180.000°, t: (21.000, 47.934)]</title>
</use>
<use transform="translate(42.02693 103.9999), rotate(-180)" xlink:href="#item_0">
<title>item, id: 0, transf: [r: -180.000°, t: (42.027, 104.000)]</title>
</use>
<use transform="translate(0.00024604797 47.933937), rotate(0)" xlink:href="#item_0">
<title>item, id: 0, transf: [r: 0.000°, t: (0.000, 47.934)]</title>
</use>
<use transform="translate(0.022239685 4.000742), rotate(-90)" xlink:href="#item_3">
<title>item, id: 3, transf: [r: -90.000°, t: (0.022, 4.001)]</title>
</use>
<use transform="translate(71.28044 37.44043), rotate(90)" xlink:href="#item_3">
<title>item, id: 3, transf: [r: 90.000°, t: (71.280, 37.440)]</title>
</use>
<use transform="translate(61.93584 81.34831), rotate(90)" xlink:href="#item_1">
<title>item, id: 1, transf: [r: 90.000°, t: (61.936, 81.348)]</title>
</use>
<use transform="translate(66.44415 81.365776), rotate(90)" xlink:href="#item_1">
<title>item, id: 1, transf: [r: 90.000°, t: (66.444, 81.366)]</title>
</use>
<use transform="translate(42.150295 77.112404), rotate(-180)" xlink:href="#item_1">
<title>item, id: 1, transf: [r: -180.000°, t: (42.150, 77.112)]</title>
</use>
<use transform="translate(76.44254 48.56566), rotate(-180)" xlink:href="#item_1">
<title>item, id: 1, transf: [r: -180.000°, t: (76.443, 48.566)]</title>
</use>
<use transform="translate(21.493616 31.000982), rotate(-90)" xlink:href="#item_4">
<title>item, id: 4, transf: [r: -90.000°, t: (21.494, 31.001)]</title>
</use>
<use transform="translate(66.44463 92.99574), rotate(0)" xlink:href="#item_4">
<title>item, id: 4, transf: [r: 0.000°, t: (66.445, 92.996)]</title>
</use>
<use transform="translate(32.00009 31.440125), rotate(90)" xlink:href="#item_4">
<title>item, id: 4, transf: [r: 90.000°, t: (32.000, 31.440)]</title>
</use>
<use transform="translate(76.444565 92.840614), rotate(-180)" xlink:href="#item_4">
<title>item, id: 4, transf: [r: -180.000°, t: (76.445, 92.841)]</title>
</use>
<use transform="translate(32.000313 17.004845), rotate(0)" xlink:href="#item_5">
<title>item, id: 5, transf: [r: 0.000°, t: (32.000, 17.005)]</title>
</use>
<use transform="translate(57.393665 52.056297), rotate(0)" xlink:href="#item_5">
<title>item, id: 5, transf: [r: 0.000°, t: (57.394, 52.056)]</title>
</use>
<use transform="translate(59.3861 80.08045), rotate(-180)" xlink:href="#item_5">
<title>item, id: 5, transf: [r: -180.000°, t: (59.386, 80.080)]</title>
</use>
<use transform="translate(22.296272 72.56153), rotate(-90)" xlink:href="#item_5">
<title>item, id: 5, transf: [r: -90.000°, t: (22.296, 72.562)]</title>
</use>
</g>
<g id="quality_zones"/>
<g id="optionals">
<g id="overlap_lines" transform="translate(0 0), rotate(0)"/>
</g>
<text font-family="monospace" font-size="1.911116" font-weight="500" x="0" y="-0.955558">
height: 104.000 | width: 76.445 | usage: 90.488% | final_bench_86
</text>
</svg>