<svg viewBox="-3.8000493 -5.2000012 83.60107 114.40001" xmlns="http://www.w3.org/2000/svg" xmlns:xlink="http://www.w3.org/1999/xlink">
<g id="bin_0">
<path d="M0,0 L76.00097,0 L76.00097,104 L0,104 z" fill="#D3D3D3" stroke="black" stroke-width="0.41800535"/>
<title>bin, id: 0, bbox: [x_min: 0.000, y_min: 0.000, x_max: 76.001, y_max: 104.000]</title>
</g>
<g id="items">
<defs>
<g id="item_0">
<path d="M0,0 L21,0 L21,22 L14,28 L7,28 L0,22 z" fill="#7A7A7A" fill-opacity="0.5" fill-rule="nonzero" stroke="black" stroke-width="0.20900267"/>
</g>
<g id="item_1">
<path d="M0,5 L2,0 L11,2 L19,0 L21,5 L17,4 L11,6 L4,4 z" fill="#7A7A7A" fill-opacity="0.5" fill-rule="nonzero" stroke="black" stroke-width="0.20900267"/>
</g>
<g id="item_2">
<path d="M0,0 L33,0 L33,14 L30,14 L26,17 L13,15 L0,17 z" fill="#7A7A7A" fill-opacity="0.5" fill-rule="nonzero" stroke="black" stroke-width="0.20900267"/>
</g>
<g id="item_3">
<path d="M0,0 L4,0 L4,39 L0,39 z" fill="#7A7A7A" fill-opacity="0.5" fill-rule="nonzero" stroke="black" stroke-width="0.20900267"/>
</g>
<g id="item_4">
<path d="M0,0 L10,0 L10,11 L0,11 z" fill="#7A7A7A" fill-opacity="0.5" fill-rule="nonzero" stroke="black" stroke-width="0.20900267"/>
</g>
<g id="item_5">
<path d="M2,20 L0,18 L2,10 L0,2 L2,0 L4,10 z" fill="#7A7A7A" fill-opacity="0.5" fill-rule="nonzero" stroke="black" stroke-width="0.20900267"/>
</g>
<g id="item_6">
<path d="M0,0 L29,0 L27,12 L29,22 L25,26 L25,33 L18,37 L16,35 L14,35 L12,37 L4,34 L4,26 L0,22 L2,12 z" fill="#7A7A7A" fill-opacity="0.5" fill-rule="nonzero" stroke="black" stroke-width="0.20900267"/>
</g>
<g id="item_7">
<path d="M0,0 L33,0 L37,6 L35,13 L28,13 L25,15 L14,13 L0,15 z" fill="#7A7A7A" fill-opacity="0.5" fill-rule="nonzero" stroke="black" stroke-width="0.20900267"/>
</g>
</defs>
<use transform="translate(50.833878 74.99823), rotate(90)" xlink:href="#item_6">
<title>item, id: 6, transf: [r: 90.000°, t: (50.834, 74.998)]</title>
</use>
<use transform="translate(0.30463982 0.0072345734), rotate(0)" xlink:href="#item_6">
<title>item, id: 6, transf: [r: 0.000°, t: (0.305, 0.007)]</title>
</use>
<use transform="translate(76 43.966896), rotate(-180)" xlink:href="#item_2">
<title>item, id: 2, transf: [r: -180.000°, t: (76.000, 43.967)]</title>
</use>
<use transform="translate(48.00049 61.835762), rotate(-180)" xlink:href="#item_2">
<title>item, id: 2, transf: [r: -180.000°, t: (48.000, 61.836)]</title>
</use>
<use transform="translate(0.00006532669 103.99942), rotate(-90)" xlink:href="#item_7">
<title>item, id: 7, transf: [r: -90.000°, t: (0.000, 103.999)]</title>
</use>
<use transform="translate(14.725559 61.835785), rotate(0)" xlink:href="#item_7">
<title>item, id: 7, transf: [r: 0.000°, t: (14.726, 61.836)]</title>
</use>
<use transform="translate(54.999535 0.0006046295), rotate(0)" xlink:href="#item_0">
<title>item, id: 0, transf: [r: 0.000°, t: (55.000, 0.001)]</title>
</use>
<use transform="translate(33.997017 0.0009059906), rotate(0)" xlink:href="#item_0">
<title>item, id: 0, transf: [r: 0.000°, t: (33.997, 0.001)]</title>
</use>
<use transform="translate(76.00089 43.96977), rotate(90)" xlink:href="#item_0">
<title>item, id: 0, transf: [r: 90.000°, t: (76.001, 43.970)]</title>
</use>
<use transform="translate(50.836617 75.994156), rotate(0)" xlink:href="#item_0">
<title>item, id: 0, transf: [r: 0.000°, t: (50.837, 75.994)]</title>
</use>
<use transform="translate(4.000094 68.22041), rotate(-180)" xlink:href="#item_3">
<title>item, id: 3, transf: [r: -180.000°, t: (4.000, 68.220)]</title>
</use>
<use transform="translate(75.83676 103.99976), rotate(-180)" xlink:href="#item_3">
<title>item, id: 3, transf: [r: -180.000°, t: (75.837, 104.000)]</title>
</use>
<use transform="translate(5.871581 40.531208), rotate(0)" xlink:href="#item_1">
<title>item, id: 1, transf: [r: 0.000°, t: (5.872, 40.531)]</title>
</use>
<use transform="translate(33.881573 24.886372), rotate(90)" xlink:href="#item_1">
<title>item, id: 1, transf: [r: 90.000°, t: (33.882, 24.886)]</title>
</use>
<use transform="translate(5.5506487 35.95089), rotate(0)" xlink:href="#item_1">
<title>item, id: 1, transf: [r: 0.000°, t: (5.551, 35.951)]</title>
</use>
<use transform="translate(38.512917 25.376923), rotate(90)" xlink:href="#item_1">
<title>item, id: 1, transf: [r: 90.000°, t: (38.513, 25.377)]</title>
</use>
<use transform="translate(71.829414 75.97264), rotate(-180)" xlink:href="#item_4">
<title>item, id: 4, transf: [r: -180.000°, t: (71.829, 75.973)]</title>
</use>
<use transform="translate(4.484765 55.999363), rotate(0)" xlink:href="#item_4">
<title>item, id: 4, transf: [r: 0.000°, t: (4.485, 55.999)]</title>
</use>
<use transform="translate(4.000414 55.999237), rotate(-90)" xlink:href="#item_4">
<title>item, id: 4, transf: [r: -90.000°, t: (4.000, 55.999)]</title>
</use>
<use transform="translate(51.825188 64.969826), rotate(0)" xlink:href="#item_4">
<title>item, id: 4, transf: [r: 0.000°, t: (51.825, 64.970)]</title>
</use>
<use transform="translate(33.99676 20.58733), rotate(-180)" xlink:href="#item_5">
<title>item, id: 5, transf: [r: -180.000°, t: (33.997, 20.587)]</title>
</use>
<use transform="translate(31.563452 20.6306), rotate(-180)" xlink:href="#item_5">
<title>item, id: 5, transf: [r: -180.000°, t: (31.563, 20.631)]</title>
</use>
<use transform="translate(40.906147 46.22912), rotate(-180)" xlink:href="#item_5">
<title>item, id: 5, transf: [r: -180.000°, t: (40.906, 46.229)]</title>
</use>
<use transform="translate(29.482458 45.479614), rotate(-180)" xlink:href="#item_5">
<title>item, id: 5, transf: [r: -180.000°, t: (29.482, 45.480)]</title>
</use>
</g>
<g id="quality_zones"/>
<g id="optionals">
<g id="overlap_lines" transform="translate(0 0), rotate(0)"/>
</g>
<text font-family="monospace" font-size="1.9000243" font-weight="500" x="0" y="-0.95001215">
height: 104.000 | width: 76.001 | usage: 91.016% | final_bench_85
</text>
</svg>