<svg viewBox="-3.8090048 -5.2000012 83.79809 114.40001" xmlns="http://www.w3.org/2000/svg" xmlns:xlink="http://www.w3.org/1999/xlink">
<g id="bin_0">
<path d="M0,0 L76.18008,0 L76.18008,104 L0,104 z" fill="#D3D3D3" stroke="black" stroke-width="0.4189905"/>
<title>bin, id: 0, bbox: [x_min: 0.000, y_min: 0.000, x_max: 76.180, y_max: 104.000]</title>
</g>
<g id="items">
<defs>
<g id="item_0">
<path d="M0,0 L21,0 L21,22 L14,28 L7,28 L0,22 z" fill="#7A7A7A" fill-opacity="0.5" fill-rule="nonzero" stroke="black" stroke-width="0.20949525"/>
</g>
<g id="item_1">
<path d="M0,5 L2,0 L11,2 L19,0 L21,5 L17,4 L11,6 L4,4 z" fill="#7A7A7A" fill-opacity="0.5" fill-rule="nonzero" stroke="black" stroke-width="0.20949525"/>
</g>
<g id="item_2">
<path d="M0,0 L33,0 L33,14 L30,14 L26,17 L13,15 L0,17 z" fill="#7A7A7A" fill-opacity="0.5" fill-rule="nonzero" stroke="black" stroke-width="0.20949525"/>
</g>
<g id="item_3">
<path d="M0,0 L4,0 L4,39 L0,39 z" fill="#7A7A7A" fill-opacity="0.5" fill-rule="nonzero" stroke="black" stroke-width="0.20949525"/>
</g>
<g id="item_4">
<path d="M0,0 L10,0 L10,11 L0,11 z" fill="#7A7A7A" fill-opacity="0.5" fill-rule="nonzero" stroke="black" stroke-width="0.20949525"/>
</g>
<g id="item_5">
<path d="M2,20 L0,18 L2,10 L0,2 L2,0 L4,10 z" fill="#7A7A7A" fill-opacity="0.5" fill-rule="nonzero" stroke="black" stroke-width="0.20949525"/>
</g>
<g id="item_6">
<path d="M0,0 L29,0 L27,12 L29,22 L25,26 L25,33 L18,37 L16,35 L14,35 L12,37 L4,34 L4,26 L0,22 L2,12 z" fill="#7A7A7A" fill-opacity="0.5" fill-rule="nonzero" stroke="black" stroke-width="0.20949525"/>
</g>
<g id="item_7">
<path d="M0,0 L33,0 L37,6 L35,13 L28,13 L25,15 L14,13 L0,15 z" fill="#7A7A7A" fill-opacity="0.5" fill-rule="nonzero" stroke="black" stroke-width="0.20949525"/>
</g>
</defs>
<use transform="translate(72.18001 53.81302), rotate(90)" xlink:href="#item_6">
<title>item, id: 6, transf: [r: 90.000°, t: (72.180, 53.813)]</title>
</use>
<use transform="translate(0.00034332275 86.99964), rotate(-90)" xlink:href="#item_6">
<title>item, id: 6, transf: [r: -90.000°, t: (0.000, 87.000)]</title>
</use>
<use transform="translate(39.17917 0.007151127), rotate(0)" xlink:href="#item_2">
<title>item, id: 2, transf: [r: 0.000°, t: (39.179, 0.007)]</title>
</use>
<use transform="translate(38.999023 38.00963), rotate(0)" xlink:href="#item_2">
<title>item, id: 2, transf: [r: 0.000°, t: (38.999, 38.010)]</title>
</use>
<use transform="translate(28.29136 21.011784), rotate(90)" xlink:href="#item_7">
<title>item, id: 7, transf: [r: 90.000°, t: (28.291, 21.012)]</title>
</use>
<use transform="translate(0.0011878014 57.98883), rotate(-90)" xlink:href="#item_7">
<title>item, id: 7, transf: [r: -90.000°, t: (0.001, 57.989)]</title>
</use>
<use transform="translate(48.178238 103.88674), rotate(-90)" xlink:href="#item_0">
<title>item, id: 0, transf: [r: -90.000°, t: (48.178, 103.887)]</title>
</use>
<use transform="translate(39.276825 38.007046), rotate(-90)" xlink:href="#item_0">
<title>item, id: 0, transf: [r: -90.000°, t: (39.277, 38.007)]</title>
</use>
<use transform="translate(48.177994 82.99979), rotate(90)" xlink:href="#item_0">
<title>item, id: 0, transf: [r: 90.000°, t: (48.178, 83.000)]</title>
</use>
<use transform="translate(28.049425 0.0009317398), rotate(90)" xlink:href="#item_0">
<title>item, id: 0, transf: [r: 90.000°, t: (28.049, 0.001)]</title>
</use>
<use transform="translate(76.17955 39.003777), rotate(-180)" xlink:href="#item_3">
<title>item, id: 3, transf: [r: -180.000°, t: (76.180, 39.004)]</title>
</use>
<use transform="translate(72.180046 40.58123), rotate(0)" xlink:href="#item_3">
<title>item, id: 3, transf: [r: 0.000°, t: (72.180, 40.581)]</title>
</use>
<use transform="translate(33.24215 41.48545), rotate(-90)" xlink:href="#item_1">
<title>item, id: 1, transf: [r: -90.000°, t: (33.242, 41.485)]</title>
</use>
<use transform="translate(66.17601 37.981094), rotate(-90)" xlink:href="#item_1">
<title>item, id: 1, transf: [r: -90.000°, t: (66.176, 37.981)]</title>
</use>
<use transform="translate(28.524998 41.33667), rotate(-90)" xlink:href="#item_1">
<title>item, id: 1, transf: [r: -90.000°, t: (28.525, 41.337)]</title>
</use>
<use transform="translate(30.607277 61.51688), rotate(-90)" xlink:href="#item_1">
<title>item, id: 1, transf: [r: -90.000°, t: (30.607, 61.517)]</title>
</use>
<use transform="translate(39.118572 10.261221), rotate(90)" xlink:href="#item_4">
<title>item, id: 4, transf: [r: 90.000°, t: (39.119, 10.261)]</title>
</use>
<use transform="translate(28.069283 10.002013), rotate(-90)" xlink:href="#item_4">
<title>item, id: 4, transf: [r: -90.000°, t: (28.069, 10.002)]</title>
</use>
<use transform="translate(10.171135 92.99801), rotate(0)" xlink:href="#item_4">
<title>item, id: 4, transf: [r: 0.000°, t: (10.171, 92.998)]</title>
</use>
<use transform="translate(0.0075645447 92.99914), rotate(0)" xlink:href="#item_4">
<title>item, id: 4, transf: [r: 0.000°, t: (0.008, 92.999)]</title>
</use>
<use transform="translate(28.305794 41.016808), rotate(0)" xlink:href="#item_5">
<title>item, id: 5, transf: [r: 0.000°, t: (28.306, 41.017)]</title>
</use>
<use transform="translate(34.99028 40.985497), rotate(0)" xlink:href="#item_5">
<title>item, id: 5, transf: [r: 0.000°, t: (34.990, 40.985)]</title>
</use>
<use transform="translate(0.10197258 92.99244), rotate(-90)" xlink:href="#item_5">
<title>item, id: 5, transf: [r: -90.000°, t: (0.102, 92.992)]</title>
</use>
<use transform="translate(0.89794445 90.42972), rotate(-90)" xlink:href="#item_5">
<title>item, id: 5, transf: [r: -90.000°, t: (0.898, 90.430)]</title>
</use>
</g>
<g id="quality_zones"/>
<g id="optionals">
<g id="overlap_lines" transform="translate(0 0), rotate(0)"/>
</g>
<text font-family="monospace" font-size="1.9045019" font-weight="500" x="0" y="-0.95225096">
height: 104.000 | width: 76.180 | usage: 90.802% | final_bench_61
</text>
</svg>