<svg viewBox="-3.8205397 -5.2000012 84.05186 114.40001" xmlns="http://www.w3.org/2000/svg" xmlns:xlink="http://www.w3.org/1999/xlink">
<g id="bin_0">
<path d="M0,0 L76.410774,0 L76.410774,104 L0,104 z" fill="#D3D3D3" stroke="black" stroke-width="0.4202593"/>
<title>bin, id: 0, bbox: [x_min: 0.000, y_min: 0.000, x_max: 76.411, y_max: 104.000]</title>
</g>
<g id="items">
<defs>
<g id="item_0">
<path d="M0,0 L21,0 L21,22 L14,28 L7,28 L0,22 z" fill="#7A7A7A" fill-opacity="0.5" fill-rule="nonzero" stroke="black" stroke-width="0.21012965"/>
</g>
<g id="item_1">
<path d="M0,5 L2,0 L11,2 L19,0 L21,5 L17,4 L11,6 L4,4 z" fill="#7A7A7A" fill-opacity="0.5" fill-rule="nonzero" stroke="black" stroke-width="0.21012965"/>
</g>
<g id="item_2">
<path d="M0,0 L33,0 L33,14 L30,14 L26,17 L13,15 L0,17 z" fill="#7A7A7A" fill-opacity="0.5" fill-rule="nonzero" stroke="black" stroke-width="0.21012965"/>
</g>
<g id="item_3">
<path d="M0,0 L4,0 L4,39 L0,39 z" fill="#7A7A7A" fill-opacity="0.5" fill-rule="nonzero" stroke="black" stroke-width="0.21012965"/>
</g>
<g id="item_4">
<path d="M0,0 L10,0 L10,11 L0,11 z" fill="#7A7A7A" fill-opacity="0.5" fill-rule="nonzero" stroke="black" stroke-width="0.21012965"/>
</g>
<g id="item_5">
<path d="M2,20 L0,18 L2,10 L0,2 L2,0 L4,10 z" fill="#7A7A7A" fill-opacity="0.5" fill-rule="nonzero" stroke="black" stroke-width="0.21012965"/>
</g>
<g id="item_6">
<path d="M0,0 L29,0 L27,12 L29,22 L25,26 L25,33 L18,37 L16,35 L14,35 L12,37 L4,34 L4,26 L0,22 L2,12 z" fill="#7A7A7A" fill-opacity="0.5" fill-rule="nonzero" stroke="black" stroke-width="0.21012965"/>
</g>
<g id="item_7">
<path d="M0,0 L33,0 L37,6 L35,13 L28,13 L25,15 L14,13 L0,15 z" fill="#7A7A7A" fill-opacity="0.5" fill-rule="nonzero" stroke="black" stroke-width="0.21012965"/>
</g>
</defs>
<use transform="translate(0.038402557 90.820724), rotate(-90)" xlink:href="#item_6">
<title>item, id: 6, transf: [r: -90.000°, t: (0.038, 90.821)]</title>
</use>
<use transform="translate(38.14684 6.650364), rotate(90)" xlink:href="#item_6">
<title>item, id: 6, transf: [r: 90.000°, t: (38.147, 6.650)]</title>
</use>
<use transform="translate(42.0002 82.989), rotate(-90)" xlink:href="#item_2">
<title>item, id: 2, transf: [r: -90.000°, t: (42.000, 82.989)]</title>
</use>
<use transform="translate(38.146885 37.001907), rotate(-90)" xlink:href="#item_2">
<title>item, id: 2, transf: [r: -90.000°, t: (38.147, 37.002)]</title>
</use>
<use transform="translate(72.41061 45.858047), rotate(90)" xlink:href="#item_7">
<title>item, id: 7, transf: [r: 90.000°, t: (72.411, 45.858)]</title>
</use>
<use transform="translate(37.002052 103.9988), rotate(-180)" xlink:href="#item_7">
<title>item, id: 7, transf: [r: -180.000°, t: (37.002, 103.999)]</title>
</use>
<use transform="translate(21.00017 37.746304), rotate(0)" xlink:href="#item_0">
<title>item, id: 0, transf: [r: 0.000°, t: (21.000, 37.746)]</title>
</use>
<use transform="translate(21.000097 61.81332), rotate(-180)" xlink:href="#item_0">
<title>item, id: 0, transf: [r: -180.000°, t: (21.000, 61.813)]</title>
</use>
<use transform="translate(65.290634 82.99987), rotate(90)" xlink:href="#item_0">
<title>item, id: 0, transf: [r: 90.000°, t: (65.291, 83.000)]</title>
</use>
<use transform="translate(55.395485 4.0000343), rotate(0)" xlink:href="#item_0">
<title>item, id: 0, transf: [r: 0.000°, t: (55.395, 4.000)]</title>
</use>
<use transform="translate(76.41067 83.859505), rotate(-180)" xlink:href="#item_3">
<title>item, id: 3, transf: [r: -180.000°, t: (76.411, 83.860)]</title>
</use>
<use transform="translate(74.635056 0.000023245811), rotate(90)" xlink:href="#item_3">
<title>item, id: 3, transf: [r: 90.000°, t: (74.635, 0.000)]</title>
</use>
<use transform="translate(55.38543 39.857346), rotate(0)" xlink:href="#item_1">
<title>item, id: 1, transf: [r: 0.000°, t: (55.385, 39.857)]</title>
</use>
<use transform="translate(55.3882 33.177414), rotate(0)" xlink:href="#item_1">
<title>item, id: 1, transf: [r: 0.000°, t: (55.388, 33.177)]</title>
</use>
<use transform="translate(14.884435 0.064237356), rotate(0)" xlink:href="#item_1">
<title>item, id: 1, transf: [r: 0.000°, t: (14.884, 0.064)]</title>
</use>
<use transform="translate(35.974792 85.64624), rotate(-90)" xlink:href="#item_1">
<title>item, id: 1, transf: [r: -90.000°, t: (35.975, 85.646)]</title>
</use>
<use transform="translate(65.29236 93.98959), rotate(-90)" xlink:href="#item_4">
<title>item, id: 4, transf: [r: -90.000°, t: (65.292, 93.990)]</title>
</use>
<use transform="translate(65.40856 103.99944), rotate(-90)" xlink:href="#item_4">
<title>item, id: 4, transf: [r: -90.000°, t: (65.409, 103.999)]</title>
</use>
<use transform="translate(42.013504 38.980057), rotate(0)" xlink:href="#item_4">
<title>item, id: 4, transf: [r: 0.000°, t: (42.014, 38.980)]</title>
</use>
<use transform="translate(11.005365 0.00029277802), rotate(90)" xlink:href="#item_4">
<title>item, id: 4, transf: [r: 90.000°, t: (11.005, 0.000)]</title>
</use>
<use transform="translate(75.88766 30.877197), rotate(90)" xlink:href="#item_5">
<title>item, id: 5, transf: [r: 90.000°, t: (75.888, 30.877)]</title>
</use>
<use transform="translate(36.138016 4.6485357), rotate(90)" xlink:href="#item_5">
<title>item, id: 5, transf: [r: 90.000°, t: (36.138, 4.649)]</title>
</use>
<use transform="translate(16.69631 37.743114), rotate(-90)" xlink:href="#item_5">
<title>item, id: 5, transf: [r: -90.000°, t: (16.696, 37.743)]</title>
</use>
<use transform="translate(75.89253 37.553635), rotate(90)" xlink:href="#item_5">
<title>item, id: 5, transf: [r: 90.000°, t: (75.893, 37.554)]</title>
</use>
</g>
<g id="quality_zones"/>
<g id="optionals">
<g id="overlap_lines" transform="translate(0 0), rotate(0)"/>
</g>
<text font-family="monospace" font-size="1.9102694" font-weight="500" x="0" y="-0.9551347">
height: 104.000 | width: 76.411 | usage: 90.528% | final_bench_69
</text>
</svg>