<svg viewBox="-3.8001077 -5.2000012 83.602356 114.40001" xmlns="http://www.w3.org/2000/svg" xmlns:xlink="http://www.w3.org/1999/xlink">
<g id="bin_0">
<path d="M0,0 L76.00214,0 L76.00214,104 L0,104 z" fill="#D3D3D3" stroke="black" stroke-width="0.4180118"/>
<title>bin, id: 0, bbox: [x_min: 0.000, y_min: 0.000, x_max: 76.002, y_max: 104.000]</title>
</g>
<g id="items">
<defs>
<g id="item_0">
<path d="M0,0 L21,0 L21,22 L14,28 L7,28 L0,22 z" fill="#7A7A7A" fill-opacity="0.5" fill-rule="nonzero" stroke="black" stroke-width="0.2090059"/>
</g>
<g id="item_1">
<path d="M0,5 L2,0 L11,2 L19,0 L21,5 L17,4 L11,6 L4,4 z" fill="#7A7A7A" fill-opacity="0.5" fill-rule="nonzero" stroke="black" stroke-width="0.2090059"/>
</g>
<g id="item_2">
<path d="M0,0 L33,0 L33,14 L30,14 L26,17 L13,15 L0,17 z" fill="#7A7A7A" fill-opacity="0.5" fill-rule="nonzero" stroke="black" stroke-width="0.2090059"/>
</g>
<g id="item_3">
<path d="M0,0 L4,0 L4,39 L0,39 z" fill="#7A7A7A" fill-opacity="0.5" fill-rule="nonzero" stroke="black" stroke-width="0.2090059"/>
</g>
<g id="item_4">
<path d="M0,0 L10,0 L10,11 L0,11 z" fill="#7A7A7A" fill-opacity="0.5" fill-rule="nonzero" stroke="black" stroke-width="0.2090059"/>
</g>
<g id="item_5">
<path d="M2,20 L0,18 L2,10 L0,2 L2,0 L4,10 z" fill="#7A7A7A" fill-opacity="0.5" fill-rule="nonzero" stroke="black" stroke-width="0.2090059"/>
</g>
<g id="item_6">
<path d="M0,0 L29,0 L27,12 L29,22 L25,26 L25,33 L18,37 L16,35 L14,35 L12,37 L4,34 L4,26 L0,22 L2,12 z" fill="#7A7A7A" fill-opacity="0.5" fill-rule="nonzero" stroke="black" stroke-width="0.2090059"/>
</g>
<g id="item_7">
<path d="M0,0 L33,0 L37,6 L35,13 L28,13 L25,15 L14,13 L0,15 z" fill="#7A7A7A" fill-opacity="0.5" fill-rule="nonzero" stroke="black" stroke-width="0.2090059"/>
</g>
</defs>
<use transform="translate(0.0000076293945 61.782513), rotate(-90)" xlink:href="#item_6">
<title>item, id: 6, transf: [r: -90.000°, t: (0.000, 61.783)]</title>
</use>
<use transform="translate(76.002075 38.57035), rotate(90)" xlink:href="#item_6">
<title>item, id: 6, transf: [r: 90.000°, t: (76.002, 38.570)]</title>
</use>
<use transform="translate(0.000051498413 0.0033192635), rotate(0)" xlink:href="#item_2">
<title>item, id: 2, transf: [r: 0.000°, t: (0.000, 0.003)]</title>
</use>
<use transform="translate(33.950115 32.780327), rotate(-180)" xlink:href="#item_2">
<title>item, id: 2, transf: [r: -180.000°, t: (33.950, 32.780)]</title>
</use>
<use transform="translate(37.120483 74.98874), rotate(-180)" xlink:href="#item_7">
<title>item, id: 7, transf: [r: -180.000°, t: (37.120, 74.989)]</title>
</use>
<use transform="translate(61.00173 103.99951), rotate(-90)" xlink:href="#item_7">
<title>item, id: 7, transf: [r: -90.000°, t: (61.002, 104.000)]</title>
</use>
<use transform="translate(60.806374 103.99989), rotate(-180)" xlink:href="#item_0">
<title>item, id: 0, transf: [r: -180.000°, t: (60.806, 104.000)]</title>
</use>
<use transform="translate(33.950256 14.569567), rotate(0)" xlink:href="#item_0">
<title>item, id: 0, transf: [r: 0.000°, t: (33.950, 14.570)]</title>
</use>
<use transform="translate(55.00058 0.0016546249), rotate(0)" xlink:href="#item_0">
<title>item, id: 0, transf: [r: 0.000°, t: (55.001, 0.002)]</title>
</use>
<use transform="translate(11.000732 95.997826), rotate(-90)" xlink:href="#item_0">
<title>item, id: 0, transf: [r: -90.000°, t: (11.001, 95.998)]</title>
</use>
<use transform="translate(0.0017681122 99.99787), rotate(-90)" xlink:href="#item_3">
<title>item, id: 3, transf: [r: -90.000°, t: (0.002, 99.998)]</title>
</use>
<use transform="translate(39.193813 99.998535), rotate(90)" xlink:href="#item_3">
<title>item, id: 3, transf: [r: 90.000°, t: (39.194, 99.999)]</title>
</use>
<use transform="translate(61.419357 72.54706), rotate(-180)" xlink:href="#item_1">
<title>item, id: 1, transf: [r: -180.000°, t: (61.419, 72.547)]</title>
</use>
<use transform="translate(54.839012 31.85825), rotate(0)" xlink:href="#item_1">
<title>item, id: 1, transf: [r: 0.000°, t: (54.839, 31.858)]</title>
</use>
<use transform="translate(54.95781 26.882751), rotate(0)" xlink:href="#item_1">
<title>item, id: 1, transf: [r: 0.000°, t: (54.958, 26.883)]</title>
</use>
<use transform="translate(60.998436 77.15296), rotate(-180)" xlink:href="#item_1">
<title>item, id: 1, transf: [r: -180.000°, t: (60.998, 77.153)]</title>
</use>
<use transform="translate(44.000515 10.002817), rotate(-90)" xlink:href="#item_4">
<title>item, id: 4, transf: [r: -90.000°, t: (44.001, 10.003)]</title>
</use>
<use transform="translate(0.98324156 74.99216), rotate(0)" xlink:href="#item_4">
<title>item, id: 4, transf: [r: 0.000°, t: (0.983, 74.992)]</title>
</use>
<use transform="translate(11.000525 85.996414), rotate(90)" xlink:href="#item_4">
<title>item, id: 4, transf: [r: 90.000°, t: (11.001, 85.996)]</title>
</use>
<use transform="translate(33.000446 10.430958), rotate(-90)" xlink:href="#item_4">
<title>item, id: 4, transf: [r: -90.000°, t: (33.000, 10.431)]</title>
</use>
<use transform="translate(41.13807 82.66287), rotate(-180)" xlink:href="#item_5">
<title>item, id: 5, transf: [r: -180.000°, t: (41.138, 82.663)]</title>
</use>
<use transform="translate(74.00022 36.569336), rotate(90)" xlink:href="#item_5">
<title>item, id: 5, transf: [r: 90.000°, t: (74.000, 36.569)]</title>
</use>
<use transform="translate(40.24591 63.553055), rotate(-180)" xlink:href="#item_5">
<title>item, id: 5, transf: [r: -180.000°, t: (40.246, 63.553)]</title>
</use>
<use transform="translate(33.01249 14.432273), rotate(-90)" xlink:href="#item_5">
<title>item, id: 5, transf: [r: -90.000°, t: (33.012, 14.432)]</title>
</use>
</g>
<g id="quality_zones"/>
<g id="optionals">
<g id="overlap_lines" transform="translate(0 0), rotate(0)"/>
</g>
<text font-family="monospace" font-size="1.9000534" font-weight="500" x="0" y="-0.9500267">
height: 104.000 | width: 76.002 | usage: 91.015% | final_bench_47
</text>
</svg>