<svg viewBox="-3.8246195 -5.2000012 84.14162 114.40001" xmlns="http://www.w3.org/2000/svg" xmlns:xlink="http://www.w3.org/1999/xlink">
<g id="bin_0">
<path d="M0,0 L76.49237,0 L76.49237,104 L0,104 z" fill="#D3D3D3" stroke="black" stroke-width="0.4207081"/>
<title>bin, id: 0, bbox: [x_min: 0.000, y_min: 0.000, x_max: 76.492, y_max: 104.000]</title>
</g>
<g id="items">
<defs>
<g id="item_0">
<path d="M0,0 L21,0 L21,22 L14,28 L7,28 L0,22 z" fill="#7A7A7A" fill-opacity="0.5" fill-rule="nonzero" stroke="black" stroke-width="0.21035405"/>
</g>
<g id="item_1">
<path d="M0,5 L2,0 L11,2 L19,0 L21,5 L17,4 L11,6 L4,4 z" fill="#7A7A7A" fill-opacity="0.5" fill-rule="nonzero" stroke="black" stroke-width="0.21035405"/>
</g>
<g id="item_2">
<path d="M0,0 L33,0 L33,14 L30,14 L26,17 L13,15 L0,17 z" fill="#7A7A7A" fill-opacity="0.5" fill-rule="nonzero" stroke="black" stroke-width="0.21035405"/>
</g>
<g id="item_3">
<path d="M0,0 L4,0 L4,39 L0,39 z" fill="#7A7A7A" fill-opacity="0.5" fill-rule="nonzero" stroke="black" stroke-width="0.21035405"/>
</g>
<g id="item_4">
<path d="M0,0 L10,0 L10,11 L0,11 z" fill="#7A7A7A" fill-opacity="0.5" fill-rule="nonzero" stroke="black" stroke-width="0.21035405"/>
</g>
<g id="item_5">
<path d="M2,20 L0,18 L2,10 L0,2 L2,0 L4,10 z" fill="#7A7A7A" fill-opacity="0.5" fill-rule="nonzero" stroke="black" stroke-width="0.21035405"/>
</g>
<g id="item_6">
<path d="M0,0 L29,0 L27,12 L29,22 L25,26 L25,33 L18,37 L16,35 L14,35 L12,37 L4,34 L4,26 L0,22 L2,12 z" fill="#7A7A7A" fill-opacity="0.5" fill-rule="nonzero" stroke="black" stroke-width="0.21035405"/>
</g>
<g id="item_7">
<path d="M0,0 L33,0 L37,6 L35,13 L28,13 L25,15 L14,13 L0,15 z" fill="#7A7A7A" fill-opacity="0.5" fill-rule="nonzero" stroke="black" stroke-width="0.21035405"/>
</g>
</defs>
<use transform="translate(25.000427 86.901794), rotate(-90)" xlink:href="#item_6">
<title>item, id: 6, transf: [r: -90.000°, t: (25.000, 86.902)]</title>
</use>
<use transform="translate(0.00022125244 60.540356), rotate(-90)" xlink:href="#item_6">
<title>item, id: 6, transf: [r: -90.000°, t: (0.000, 60.540)]</title>
</use>
<use transform="translate(38.01468 53.09874), rotate(-90)" xlink:href="#item_2">
<title>item, id: 2, transf: [r: -90.000°, t: (38.015, 53.099)]</title>
</use>
<use transform="translate(38.008686 0.13422012), rotate(90)" xlink:href="#item_2">
<title>item, id: 2, transf: [r: 90.000°, t: (38.009, 0.134)]</title>
</use>
<use transform="translate(61.44568 99.99575), rotate(-180)" xlink:href="#item_7">
<title>item, id: 7, transf: [r: -180.000°, t: (61.446, 99.996)]</title>
</use>
<use transform="translate(76.49213 65.336754), rotate(90)" xlink:href="#item_7">
<title>item, id: 7, transf: [r: 90.000°, t: (76.492, 65.337)]</title>
</use>
<use transform="translate(0.00061798096 0.000058174133), rotate(0)" xlink:href="#item_0">
<title>item, id: 0, transf: [r: 0.000°, t: (0.001, 0.000)]</title>
</use>
<use transform="translate(4.0003643 64.96095), rotate(0)" xlink:href="#item_0">
<title>item, id: 0, transf: [r: 0.000°, t: (4.000, 64.961)]</title>
</use>
<use transform="translate(55.483124 37.33502), rotate(0)" xlink:href="#item_0">
<title>item, id: 0, transf: [r: 0.000°, t: (55.483, 37.335)]</title>
</use>
<use transform="translate(55.484962 0.00021076202), rotate(0)" xlink:href="#item_0">
<title>item, id: 0, transf: [r: 0.000°, t: (55.485, 0.000)]</title>
</use>
<use transform="translate(0.0003581047 62.921104), rotate(0)" xlink:href="#item_3">
<title>item, id: 3, transf: [r: 0.000°, t: (0.000, 62.921)]</title>
</use>
<use transform="translate(63.390427 99.999535), rotate(90)" xlink:href="#item_3">
<title>item, id: 3, transf: [r: 90.000°, t: (63.390, 100.000)]</title>
</use>
<use transform="translate(55.178345 31.330162), rotate(0)" xlink:href="#item_1">
<title>item, id: 1, transf: [r: 0.000°, t: (55.178, 31.330)]</title>
</use>
<use transform="translate(49.448612 21.056877), rotate(-90)" xlink:href="#item_1">
<title>item, id: 1, transf: [r: -90.000°, t: (49.449, 21.057)]</title>
</use>
<use transform="translate(55.177917 26.828867), rotate(0)" xlink:href="#item_1">
<title>item, id: 1, transf: [r: 0.000°, t: (55.178, 26.829)]</title>
</use>
<use transform="translate(24.528454 64.9597), rotate(-180)" xlink:href="#item_1">
<title>item, id: 1, transf: [r: -180.000°, t: (24.528, 64.960)]</title>
</use>
<use transform="translate(49.024178 10.098122), rotate(90)" xlink:href="#item_4">
<title>item, id: 4, transf: [r: 90.000°, t: (49.024, 10.098)]</title>
</use>
<use transform="translate(14.174465 92.98238), rotate(0)" xlink:href="#item_4">
<title>item, id: 4, transf: [r: 0.000°, t: (14.174, 92.982)]</title>
</use>
<use transform="translate(49.4486 0.041677), rotate(90)" xlink:href="#item_4">
<title>item, id: 4, transf: [r: 90.000°, t: (49.449, 0.042)]</title>
</use>
<use transform="translate(4.002654 92.99519), rotate(0)" xlink:href="#item_4">
<title>item, id: 4, transf: [r: 0.000°, t: (4.003, 92.995)]</title>
</use>
<use transform="translate(20.501156 26.87549), rotate(90)" xlink:href="#item_5">
<title>item, id: 5, transf: [r: 90.000°, t: (20.501, 26.875)]</title>
</use>
<use transform="translate(20.56501 29.298254), rotate(90)" xlink:href="#item_5">
<title>item, id: 5, transf: [r: 90.000°, t: (20.565, 29.298)]</title>
</use>
<use transform="translate(35.479393 57.102005), rotate(-90)" xlink:href="#item_5">
<title>item, id: 5, transf: [r: -90.000°, t: (35.479, 57.102)]</title>
</use>
<use transform="translate(35.469532 59.510666), rotate(-90)" xlink:href="#item_5">
<title>item, id: 5, transf: [r: -90.000°, t: (35.470, 59.511)]</title>
</use>
</g>
<g id="quality_zones"/>
<g id="optionals">
<g id="overlap_lines" transform="translate(0 0), rotate(0)"/>
</g>
<text font-family="monospace" font-size="1.9123093" font-weight="500" x="0" y="-0.95615464">
height: 104.000 | width: 76.492 | usage: 90.431% | final_bench_66
</text>
</svg>