<svg viewBox="-3.80024 -5.2000012 83.60526 114.40001" xmlns="http://www.w3.org/2000/svg" xmlns:xlink="http://www.w3.org/1999/xlink">
<g id="bin_0">
<path d="M0,0 L76.00478,0 L76.00478,104 L0,104 z" fill="#D3D3D3" stroke="black" stroke-width="0.41802633"/>
<title>bin, id: 0, bbox: [x_min: 0.000, y_min: 0.000, x_max: 76.005, y_max: 104.000]</title>
</g>
<g id="items">
<defs>
<g id="item_0">
<path d="M0,0 L21,0 L21,22 L14,28 L7,28 L0,22 z" fill="#7A7A7A" fill-opacity="0.5" fill-rule="nonzero" stroke="black" stroke-width="0.20901316"/>
</g>
<g id="item_1">
<path d="M0,5 L2,0 L11,2 L19,0 L21,5 L17,4 L11,6 L4,4 z" fill="#7A7A7A" fill-opacity="0.5" fill-rule="nonzero" stroke="black" stroke-width="0.20901316"/>
</g>
<g id="item_2">
<path d="M0,0 L33,0 L33,14 L30,14 L26,17 L13,15 L0,17 z" fill="#7A7A7A" fill-opacity="0.5" fill-rule="nonzero" stroke="black" stroke-width="0.20901316"/>
</g>
<g id="item_3">
<path d="M0,0 L4,0 L4,39 L0,39 z" fill="#7A7A7A" fill-opacity="0.5" fill-rule="nonzero" stroke="black" stroke-width="0.20901316"/>
</g>
<g id="item_4">
<path d="M0,0 L10,0 L10,11 L0,11 z" fill="#7A7A7A" fill-opacity="0.5" fill-rule="nonzero" stroke="black" stroke-width="0.20901316"/>
</g>
<g id="item_5">
<path d="M2,20 L0,18 L2,10 L0,2 L2,0 L4,10 z" fill="#7A7A7A" fill-opacity="0.5" fill-rule="nonzero" stroke="black" stroke-width="0.20901316"/>
</g>
<g id="item_6">
<path d="M0,0 L29,0 L27,12 L29,22 L25,26 L25,33 L18,37 L16,35 L14,35 L12,37 L4,34 L4,26 L0,22 L2,12 z" fill="#7A7A7A" fill-opacity="0.5" fill-rule="nonzero" stroke="black" stroke-width="0.20901316"/>
</g>
<g id="item_7">
<path d="M0,0 L33,0 L37,6 L35,13 L28,13 L25,15 L14,13 L0,15 z" fill="#7A7A7A" fill-opacity="0.5" fill-rule="nonzero" stroke="black" stroke-width="0.20901316"/>
</g>
</defs>
<use transform="translate(74.00356 73.01919), rotate(-180)" xlink:href="#item_6">
<title>item, id: 6, transf: [r: -180.000°, t: (74.004, 73.019)]</title>
</use>
<use transform="translate(17.504078 42.014164), rotate(0)" xlink:href="#item_6">
<title>item, id: 6, transf: [r: 0.000°, t: (17.504, 42.014)]</title>
</use>
<use transform="translate(65.16531 0.21676254), rotate(90)" xlink:href="#item_2">
<title>item, id: 2, transf: [r: 90.000°, t: (65.165, 0.217)]</title>
</use>
<use transform="translate(42.578743 73.02055), rotate(0)" xlink:href="#item_2">
<title>item, id: 2, transf: [r: 0.000°, t: (42.579, 73.021)]</title>
</use>
<use transform="translate(76.00457 103.97524), rotate(-180)" xlink:href="#item_7">
<title>item, id: 7, transf: [r: -180.000°, t: (76.005, 103.975)]</title>
</use>
<use transform="translate(4.00113 75.99748), rotate(-90)" xlink:href="#item_7">
<title>item, id: 7, transf: [r: -90.000°, t: (4.001, 75.997)]</title>
</use>
<use transform="translate(21.192738 21.003223), rotate(-90)" xlink:href="#item_0">
<title>item, id: 0, transf: [r: -90.000°, t: (21.193, 21.003)]</title>
</use>
<use transform="translate(0.0006198883 0.000032424927), rotate(0)" xlink:href="#item_0">
<title>item, id: 0, transf: [r: 0.000°, t: (0.001, 0.000)]</title>
</use>
<use transform="translate(43.856087 21.012371), rotate(90)" xlink:href="#item_0">
<title>item, id: 0, transf: [r: 90.000°, t: (43.856, 21.012)]</title>
</use>
<use transform="translate(25.000435 103.9989), rotate(-180)" xlink:href="#item_0">
<title>item, id: 0, transf: [r: -180.000°, t: (25.000, 103.999)]</title>
</use>
<use transform="translate(0.0007095337 25.996456), rotate(0)" xlink:href="#item_3">
<title>item, id: 3, transf: [r: 0.000°, t: (0.001, 25.996)]</title>
</use>
<use transform="translate(0.000057935715 64.99915), rotate(0)" xlink:href="#item_3">
<title>item, id: 3, transf: [r: 0.000°, t: (0.000, 64.999)]</title>
</use>
<use transform="translate(75.99995 11.013938), rotate(90)" xlink:href="#item_1">
<title>item, id: 1, transf: [r: 90.000°, t: (76.000, 11.014)]</title>
</use>
<use transform="translate(43.863712 42.63153), rotate(-90)" xlink:href="#item_1">
<title>item, id: 1, transf: [r: -90.000°, t: (43.864, 42.632)]</title>
</use>
<use transform="translate(35.003826 101.977325), rotate(-90)" xlink:href="#item_1">
<title>item, id: 1, transf: [r: -90.000°, t: (35.004, 101.977)]</title>
</use>
<use transform="translate(71.42199 11.188827), rotate(90)" xlink:href="#item_1">
<title>item, id: 1, transf: [r: 90.000°, t: (71.422, 11.189)]</title>
</use>
<use transform="translate(25.001434 92.98564), rotate(0)" xlink:href="#item_4">
<title>item, id: 4, transf: [r: 0.000°, t: (25.001, 92.986)]</title>
</use>
<use transform="translate(75.842125 11.011618), rotate(-180)" xlink:href="#item_4">
<title>item, id: 4, transf: [r: -180.000°, t: (75.842, 11.012)]</title>
</use>
<use transform="translate(15.854177 28.005234), rotate(90)" xlink:href="#item_4">
<title>item, id: 4, transf: [r: 90.000°, t: (15.854, 28.005)]</title>
</use>
<use transform="translate(25.002317 81.88027), rotate(0)" xlink:href="#item_4">
<title>item, id: 4, transf: [r: 0.000°, t: (25.002, 81.880)]</title>
</use>
<use transform="translate(48.84789 37.2295), rotate(-90)" xlink:href="#item_5">
<title>item, id: 5, transf: [r: -90.000°, t: (48.848, 37.229)]</title>
</use>
<use transform="translate(76.00475 71.022934), rotate(-180)" xlink:href="#item_5">
<title>item, id: 5, transf: [r: -180.000°, t: (76.005, 71.023)]</title>
</use>
<use transform="translate(75.99968 51.002197), rotate(-180)" xlink:href="#item_5">
<title>item, id: 5, transf: [r: -180.000°, t: (76.000, 51.002)]</title>
</use>
<use transform="translate(42.574955 77.859924), rotate(90)" xlink:href="#item_5">
<title>item, id: 5, transf: [r: 90.000°, t: (42.575, 77.860)]</title>
</use>
</g>
<g id="quality_zones"/>
<g id="optionals">
<g id="overlap_lines" transform="translate(0 0), rotate(0)"/>
</g>
<text font-family="monospace" font-size="1.9001197" font-weight="500" x="0" y="-0.95005983">
height: 104.000 | width: 76.005 | usage: 91.011% | final_bench_17
</text>
</svg>