<svg viewBox="-3.800071 -5.2000012 83.60155 114.40001" xmlns="http://www.w3.org/2000/svg" xmlns:xlink="http://www.w3.org/1999/xlink">
<g id="bin_0">
<path d="M0,0 L76.0014,0 L76.0014,104 L0,104 z" fill="#D3D3D3" stroke="black" stroke-width="0.41800773"/>
<title>bin, id: 0, bbox: [x_min: 0.000, y_min: 0.000, x_max: 76.001, y_max: 104.000]</title>
</g>
<g id="items">
<defs>
<g id="item_0">
<path d="M0,0 L21,0 L21,22 L14,28 L7,28 L0,22 z" fill="#7A7A7A" fill-opacity="0.5" fill-rule="nonzero" stroke="black" stroke-width="0.20900387"/>
</g>
<g id="item_1">
<path d="M0,5 L2,0 L11,2 L19,0 L21,5 L17,4 L11,6 L4,4 z" fill="#7A7A7A" fill-opacity="0.5" fill-rule="nonzero" stroke="black" stroke-width="0.20900387"/>
</g>
<g id="item_2">
<path d="M0,0 L33,0 L33,14 L30,14 L26,17 L13,15 L0,17 z" fill="#7A7A7A" fill-opacity="0.5" fill-rule="nonzero" stroke="black" stroke-width="0.20900387"/>
</g>
<g id="item_3">
<path d="M0,0 L4,0 L4,39 L0,39 z" fill="#7A7A7A" fill-opacity="0.5" fill-rule="nonzero" stroke="black" stroke-width="0.20900387"/>
</g>
<g id="item_4">
<path d="M0,0 L10,0 L10,11 L0,11 z" fill="#7A7A7A" fill-opacity="0.5" fill-rule="nonzero" stroke="black" stroke-width="0.20900387"/>
</g>
<g id="item_5">
<path d="M2,20 L0,18 L2,10 L0,2 L2,0 L4,10 z" fill="#7A7A7A" fill-opacity="0.5" fill-rule="nonzero" stroke="black" stroke-width="0.20900387"/>
</g>
<g id="item_6">
<path d="M0,0 L29,0 L27,12 L29,22 L25,26 L25,33 L18,37 L16,35 L14,35 L12,37 L4,34 L4,26 L0,22 L2,12 z" fill="#7A7A7A" fill-opacity="0.5" fill-rule="nonzero" stroke="black" stroke-width="0.20900387"/>
</g>
<g id="item_7">
<path d="M0,0 L33,0 L37,6 L35,13 L28,13 L25,15 L14,13 L0,15 z" fill="#7A7A7A" fill-opacity="0.5" fill-rule="nonzero" stroke="black" stroke-width="0.20900387"/>
</g>
</defs>
<use transform="translate(29.017624 84.925995), rotate(-180)" xlink:href="#item_6">
<title>item, id: 6, transf: [r: -180.000°, t: (29.018, 84.926)]</title>
</use>
<use transform="translate(75.96934 13.219713), rotate(90)" xlink:href="#item_6">
<title>item, id: 6, transf: [r: 90.000°, t: (75.969, 13.220)]</title>
</use>
<use transform="translate(75.992386 42.231834), rotate(90)" xlink:href="#item_2">
<title>item, id: 2, transf: [r: 90.000°, t: (75.992, 42.232)]</title>
</use>
<use transform="translate(0.00056266785 84.94479), rotate(0)" xlink:href="#item_2">
<title>item, id: 2, transf: [r: 0.000°, t: (0.001, 84.945)]</title>
</use>
<use transform="translate(0.23143196 0.0058341026), rotate(0)" xlink:href="#item_7">
<title>item, id: 7, transf: [r: 0.000°, t: (0.231, 0.006)]</title>
</use>
<use transform="translate(38.83363 0.0022087097), rotate(0)" xlink:href="#item_7">
<title>item, id: 7, transf: [r: 0.000°, t: (38.834, 0.002)]</title>
</use>
<use transform="translate(25.01535 47.579918), rotate(-180)" xlink:href="#item_0">
<title>item, id: 0, transf: [r: -180.000°, t: (25.015, 47.580)]</title>
</use>
<use transform="translate(29.373833 62.784748), rotate(-90)" xlink:href="#item_0">
<title>item, id: 0, transf: [r: -90.000°, t: (29.374, 62.785)]</title>
</use>
<use transform="translate(76.00137 103.615), rotate(-180)" xlink:href="#item_0">
<title>item, id: 0, transf: [r: -180.000°, t: (76.001, 103.615)]</title>
</use>
<use transform="translate(31.02164 83.78551), rotate(-90)" xlink:href="#item_0">
<title>item, id: 0, transf: [r: -90.000°, t: (31.022, 83.786)]</title>
</use>
<use transform="translate(0.000041246414 19.94326), rotate(0)" xlink:href="#item_3">
<title>item, id: 3, transf: [r: 0.000°, t: (0.000, 19.943)]</title>
</use>
<use transform="translate(25.01918 19.92751), rotate(0)" xlink:href="#item_3">
<title>item, id: 3, transf: [r: 0.000°, t: (25.019, 19.928)]</title>
</use>
<use transform="translate(22.017033 19.939495), rotate(-180)" xlink:href="#item_1">
<title>item, id: 1, transf: [r: -180.000°, t: (22.017, 19.939)]</title>
</use>
<use transform="translate(43.08176 19.433434), rotate(-180)" xlink:href="#item_1">
<title>item, id: 1, transf: [r: -180.000°, t: (43.082, 19.433)]</title>
</use>
<use transform="translate(35.040306 18.259628), rotate(90)" xlink:href="#item_1">
<title>item, id: 1, transf: [r: 90.000°, t: (35.040, 18.260)]</title>
</use>
<use transform="translate(39.6052 18.004337), rotate(90)" xlink:href="#item_1">
<title>item, id: 1, transf: [r: 90.000°, t: (39.605, 18.004)]</title>
</use>
<use transform="translate(44.00136 93.78637), rotate(-90)" xlink:href="#item_4">
<title>item, id: 4, transf: [r: -90.000°, t: (44.001, 93.786)]</title>
</use>
<use transform="translate(33.000687 93.98078), rotate(-90)" xlink:href="#item_4">
<title>item, id: 4, transf: [r: -90.000°, t: (33.001, 93.981)]</title>
</use>
<use transform="translate(44.001312 103.789055), rotate(-90)" xlink:href="#item_4">
<title>item, id: 4, transf: [r: -90.000°, t: (44.001, 103.789)]</title>
</use>
<use transform="translate(33.00126 103.98794), rotate(-90)" xlink:href="#item_4">
<title>item, id: 4, transf: [r: -90.000°, t: (33.001, 103.988)]</title>
</use>
<use transform="translate(2.651968 103.999306), rotate(-90)" xlink:href="#item_5">
<title>item, id: 5, transf: [r: -90.000°, t: (2.652, 103.999)]</title>
</use>
<use transform="translate(56.900753 44.85011), rotate(0)" xlink:href="#item_5">
<title>item, id: 5, transf: [r: 0.000°, t: (56.901, 44.850)]</title>
</use>
<use transform="translate(31.020485 82.91241), rotate(-180)" xlink:href="#item_5">
<title>item, id: 5, transf: [r: -180.000°, t: (31.020, 82.912)]</title>
</use>
<use transform="translate(30.724945 41.782944), rotate(-90)" xlink:href="#item_5">
<title>item, id: 5, transf: [r: -90.000°, t: (30.725, 41.783)]</title>
</use>
</g>
<g id="quality_zones"/>
<g id="optionals">
<g id="overlap_lines" transform="translate(0 0), rotate(0)"/>
</g>
<text font-family="monospace" font-size="1.9000351" font-weight="500" x="0" y="-0.9500176">
height: 104.000 | width: 76.001 | usage: 91.016% | final_bench_26
</text>
</svg>