<svg viewBox="-3.8140707 -5.2000012 83.90954 114.40001" xmlns="http://www.w3.org/2000/svg" xmlns:xlink="http://www.w3.org/1999/xlink">
<g id="bin_0">
<path d="M0,0 L76.281395,0 L76.281395,104 L0,104 z" fill="#D3D3D3" stroke="black" stroke-width="0.4195477"/>
<title>bin, id: 0, bbox: [x_min: 0.000, y_min: 0.000, x_max: 76.281, y_max: 104.000]</title>
</g>
<g id="items">
<defs>
<g id="item_0">
<path d="M0,0 L21,0 L21,22 L14,28 L7,28 L0,22 z" fill="#7A7A7A" fill-opacity="0.5" fill-rule="nonzero" stroke="black" stroke-width="0.20977385"/>
</g>
<g id="item_1">
<path d="M0,5 L2,0 L11,2 L19,0 L21,5 L17,4 L11,6 L4,4 z" fill="#7A7A7A" fill-opacity="0.5" fill-rule="nonzero" stroke="black" stroke-width="0.20977385"/>
</g>
<g id="item_2">
<path d="M0,0 L33,0 L33,14 L30,14 L26,17 L13,15 L0,17 z" fill="#7A7A7A" fill-opacity="0.5" fill-rule="nonzero" stroke="black" stroke-width="0.20977385"/>
</g>
<g id="item_3">
<path d="M0,0 L4,0 L4,39 L0,39 z" fill="#7A7A7A" fill-opacity="0.5" fill-rule="nonzero" stroke="black" stroke-width="0.20977385"/>
</g>
<g id="item_4">
<path d="M0,0 L10,0 L10,11 L0,11 z" fill="#7A7A7A" fill-opacity="0.5" fill-rule="nonzero" stroke="black" stroke-width="0.20977385"/>
</g>
<g id="item_5">
<path d="M2,20 L0,18 L2,10 L0,2 L2,0 L4,10 z" fill="#7A7A7A" fill-opacity="0.5" fill-rule="nonzero" stroke="black" stroke-width="0.20977385"/>
</g>
<g id="item_6">
<path d="M0,0 L29,0 L27,12 L29,22 L25,26 L25,33 L18,37 L16,35 L14,35 L12,37 L4,34 L4,26 L0,22 L2,12 z" fill="#7A7A7A" fill-opacity="0.5" fill-rule="nonzero" stroke="black" stroke-width="0.20977385"/>
</g>
<g id="item_7">
<path d="M0,0 L33,0 L37,6 L35,13 L28,13 L25,15 L14,13 L0,15 z" fill="#7A7A7A" fill-opacity="0.5" fill-rule="nonzero" stroke="black" stroke-width="0.20977385"/>
</g>
</defs>
<use transform="translate(59.072956 4.0005016), rotate(90)" xlink:href="#item_6">
<title>item, id: 6, transf: [r: 90.000°, t: (59.073, 4.001)]</title>
</use>
<use transform="translate(0.003911972 55.188427), rotate(-90)" xlink:href="#item_6">
<title>item, id: 6, transf: [r: -90.000°, t: (0.004, 55.188)]</title>
</use>
<use transform="translate(76.28119 0.010271072), rotate(90)" xlink:href="#item_2">
<title>item, id: 2, transf: [r: 90.000°, t: (76.281, 0.010)]</title>
</use>
<use transform="translate(74.719894 103.99938), rotate(-180)" xlink:href="#item_2">
<title>item, id: 2, transf: [r: -180.000°, t: (74.720, 103.999)]</title>
</use>
<use transform="translate(41.440155 103.999664), rotate(-180)" xlink:href="#item_7">
<title>item, id: 7, transf: [r: -180.000°, t: (41.440, 104.000)]</title>
</use>
<use transform="translate(55.224518 32.370308), rotate(90)" xlink:href="#item_7">
<title>item, id: 7, transf: [r: 90.000°, t: (55.225, 32.370)]</title>
</use>
<use transform="translate(55.262863 33.010548), rotate(0)" xlink:href="#item_0">
<title>item, id: 0, transf: [r: 0.000°, t: (55.263, 33.011)]</title>
</use>
<use transform="translate(42.00084 82.03512), rotate(-180)" xlink:href="#item_0">
<title>item, id: 0, transf: [r: -180.000°, t: (42.001, 82.035)]</title>
</use>
<use transform="translate(76.280975 65.999374), rotate(90)" xlink:href="#item_0">
<title>item, id: 0, transf: [r: 90.000°, t: (76.281, 65.999)]</title>
</use>
<use transform="translate(21.00017 82.02548), rotate(-180)" xlink:href="#item_0">
<title>item, id: 0, transf: [r: -180.000°, t: (21.000, 82.025)]</title>
</use>
<use transform="translate(20.007523 4.000059), rotate(-90)" xlink:href="#item_3">
<title>item, id: 3, transf: [r: -90.000°, t: (20.008, 4.000)]</title>
</use>
<use transform="translate(44.02677 82.03522), rotate(90)" xlink:href="#item_3">
<title>item, id: 3, transf: [r: 90.000°, t: (44.027, 82.035)]</title>
</use>
<use transform="translate(0.00020647049 103.5389), rotate(-90)" xlink:href="#item_1">
<title>item, id: 1, transf: [r: -90.000°, t: (0.000, 103.539)]</title>
</use>
<use transform="translate(48.975258 67.87057), rotate(90)" xlink:href="#item_1">
<title>item, id: 1, transf: [r: 90.000°, t: (48.975, 67.871)]</title>
</use>
<use transform="translate(2.729663 21.149324), rotate(0)" xlink:href="#item_1">
<title>item, id: 1, transf: [r: 0.000°, t: (2.730, 21.149)]</title>
</use>
<use transform="translate(55.225044 59.894947), rotate(0)" xlink:href="#item_1">
<title>item, id: 1, transf: [r: 0.000°, t: (55.225, 59.895)]</title>
</use>
<use transform="translate(11.000077 11.138037), rotate(90)" xlink:href="#item_4">
<title>item, id: 4, transf: [r: 90.000°, t: (11.000, 11.138)]</title>
</use>
<use transform="translate(11.000391 21.00176), rotate(-90)" xlink:href="#item_4">
<title>item, id: 4, transf: [r: -90.000°, t: (11.000, 21.002)]</title>
</use>
<use transform="translate(10.007254 0.0011825562), rotate(0)" xlink:href="#item_4">
<title>item, id: 4, transf: [r: 0.000°, t: (10.007, 0.001)]</title>
</use>
<use transform="translate(0.0066580772 0.13622093), rotate(0)" xlink:href="#item_4">
<title>item, id: 4, transf: [r: 0.000°, t: (0.007, 0.136)]</title>
</use>
<use transform="translate(4.523981 90.10503), rotate(-90)" xlink:href="#item_5">
<title>item, id: 5, transf: [r: -90.000°, t: (4.524, 90.105)]</title>
</use>
<use transform="translate(35.80546 36.392036), rotate(0)" xlink:href="#item_5">
<title>item, id: 5, transf: [r: 0.000°, t: (35.805, 36.392)]</title>
</use>
<use transform="translate(44.1814 86.03622), rotate(90)" xlink:href="#item_5">
<title>item, id: 5, transf: [r: 90.000°, t: (44.181, 86.036)]</title>
</use>
<use transform="translate(38.216297 36.40374), rotate(0)" xlink:href="#item_5">
<title>item, id: 5, transf: [r: 0.000°, t: (38.216, 36.404)]</title>
</use>
</g>
<g id="quality_zones"/>
<g id="optionals">
<g id="overlap_lines" transform="translate(0 0), rotate(0)"/>
</g>
<text font-family="monospace" font-size="1.9070349" font-weight="500" x="0" y="-0.95351744">
height: 104.000 | width: 76.281 | usage: 90.681% | final_bench_52
</text>
</svg>