<svg viewBox="-3.8000531 -5.2000012 83.60116 114.40001" xmlns="http://www.w3.org/2000/svg" xmlns:xlink="http://www.w3.org/1999/xlink">
<g id="bin_0">
<path d="M0,0 L76.001045,0 L76.001045,104 L0,104 z" fill="#D3D3D3" stroke="black" stroke-width="0.41800582"/>
<title>bin, id: 0, bbox: [x_min: 0.000, y_min: 0.000, x_max: 76.001, y_max: 104.000]</title>
</g>
<g id="items">
<defs>
<g id="item_0">
<path d="M0,0 L21,0 L21,22 L14,28 L7,28 L0,22 z" fill="#7A7A7A" fill-opacity="0.5" fill-rule="nonzero" stroke="black" stroke-width="0.20900291"/>
</g>
<g id="item_1">
<path d="M0,5 L2,0 L11,2 L19,0 L21,5 L17,4 L11,6 L4,4 z" fill="#7A7A7A" fill-opacity="0.5" fill-rule="nonzero" stroke="black" stroke-width="0.20900291"/>
</g>
<g id="item_2">
<path d="M0,0 L33,0 L33,14 L30,14 L26,17 L13,15 L0,17 z" fill="#7A7A7A" fill-opacity="0.5" fill-rule="nonzero" stroke="black" stroke-width="0.20900291"/>
</g>
<g id="item_3">
<path d="M0,0 L4,0 L4,39 L0,39 z" fill="#7A7A7A" fill-opacity="0.5" fill-rule="nonzero" stroke="black" stroke-width="0.20900291"/>
</g>
<g id="item_4">
<path d="M0,0 L10,0 L10,11 L0,11 z" fill="#7A7A7A" fill-opacity="0.5" fill-rule="nonzero" stroke="black" stroke-width="0.20900291"/>
</g>
<g id="item_5">
<path d="M2,20 L0,18 L2,10 L0,2 L2,0 L4,10 z" fill="#7A7A7A" fill-opacity="0.5" fill-rule="nonzero" stroke="black" stroke-width="0.20900291"/>
</g>
<g id="item_6">
<path d="M0,0 L29,0 L27,12 L29,22 L25,26 L25,33 L18,37 L16,35 L14,35 L12,37 L4,34 L4,26 L0,22 L2,12 z" fill="#7A7A7A" fill-opacity="0.5" fill-rule="nonzero" stroke="black" stroke-width="0.20900291"/>
</g>
<g id="item_7">
<path d="M0,0 L33,0 L37,6 L35,13 L28,13 L25,15 L14,13 L0,15 z" fill="#7A7A7A" fill-opacity="0.5" fill-rule="nonzero" stroke="black" stroke-width="0.20900291"/>
</g>
</defs>
<use transform="translate(0.034921646 83.88962), rotate(-90)" xlink:href="#item_6">
<title>item, id: 6, transf: [r: -90.000°, t: (0.035, 83.890)]</title>
</use>
<use transform="translate(62.801514 103.99998), rotate(-180)" xlink:href="#item_6">
<title>item, id: 6, transf: [r: -180.000°, t: (62.802, 104.000)]</title>
</use>
<use transform="translate(33.79406 103.99987), rotate(-180)" xlink:href="#item_2">
<title>item, id: 2, transf: [r: -180.000°, t: (33.794, 104.000)]</title>
</use>
<use transform="translate(42.00358 0.00014686584), rotate(0)" xlink:href="#item_2">
<title>item, id: 2, transf: [r: 0.000°, t: (42.004, 0.000)]</title>
</use>
<use transform="translate(75.99864 66.99916), rotate(90)" xlink:href="#item_7">
<title>item, id: 7, transf: [r: 90.000°, t: (75.999, 66.999)]</title>
</use>
<use transform="translate(72.00076 17.00613), rotate(90)" xlink:href="#item_7">
<title>item, id: 7, transf: [r: 90.000°, t: (72.001, 17.006)]</title>
</use>
<use transform="translate(21.00003 28.008572), rotate(-180)" xlink:href="#item_0">
<title>item, id: 0, transf: [r: -180.000°, t: (21.000, 28.009)]</title>
</use>
<use transform="translate(0.0000333786 28.036732), rotate(0)" xlink:href="#item_0">
<title>item, id: 0, transf: [r: 0.000°, t: (0.000, 28.037)]</title>
</use>
<use transform="translate(21.000307 0.0000667572), rotate(0)" xlink:href="#item_0">
<title>item, id: 0, transf: [r: 0.000°, t: (21.000, 0.000)]</title>
</use>
<use transform="translate(21.000439 30.88873), rotate(0)" xlink:href="#item_0">
<title>item, id: 0, transf: [r: 0.000°, t: (21.000, 30.889)]</title>
</use>
<use transform="translate(76.00078 53.025436), rotate(-180)" xlink:href="#item_3">
<title>item, id: 3, transf: [r: -180.000°, t: (76.001, 53.025)]</title>
</use>
<use transform="translate(42.000683 17.066998), rotate(0)" xlink:href="#item_3">
<title>item, id: 3, transf: [r: 0.000°, t: (42.001, 17.067)]</title>
</use>
<use transform="translate(56.644608 63.344017), rotate(-180)" xlink:href="#item_1">
<title>item, id: 1, transf: [r: -180.000°, t: (56.645, 63.344)]</title>
</use>
<use transform="translate(11.484332 82.200066), rotate(0)" xlink:href="#item_1">
<title>item, id: 1, transf: [r: 0.000°, t: (11.484, 82.200)]</title>
</use>
<use transform="translate(56.837692 67.894485), rotate(-180)" xlink:href="#item_1">
<title>item, id: 1, transf: [r: -180.000°, t: (56.838, 67.894)]</title>
</use>
<use transform="translate(54.905922 58.330425), rotate(0)" xlink:href="#item_1">
<title>item, id: 1, transf: [r: 0.000°, t: (54.906, 58.330)]</title>
</use>
<use transform="translate(46.000713 46.4382), rotate(-90)" xlink:href="#item_4">
<title>item, id: 4, transf: [r: -90.000°, t: (46.001, 46.438)]</title>
</use>
<use transform="translate(47.020145 36.394753), rotate(-90)" xlink:href="#item_4">
<title>item, id: 4, transf: [r: -90.000°, t: (47.020, 36.395)]</title>
</use>
<use transform="translate(46.00086 46.44205), rotate(0)" xlink:href="#item_4">
<title>item, id: 4, transf: [r: 0.000°, t: (46.001, 46.442)]</title>
</use>
<use transform="translate(57.000755 16.393671), rotate(90)" xlink:href="#item_4">
<title>item, id: 4, transf: [r: 90.000°, t: (57.001, 16.394)]</title>
</use>
<use transform="translate(76.00101 53.51115), rotate(90)" xlink:href="#item_5">
<title>item, id: 5, transf: [r: 90.000°, t: (76.001, 53.511)]</title>
</use>
<use transform="translate(76.0009 55.911396), rotate(90)" xlink:href="#item_5">
<title>item, id: 5, transf: [r: 90.000°, t: (76.001, 55.911)]</title>
</use>
<use transform="translate(76.001 62.99781), rotate(90)" xlink:href="#item_5">
<title>item, id: 5, transf: [r: 90.000°, t: (76.001, 62.998)]</title>
</use>
<use transform="translate(41.528343 26.882261), rotate(90)" xlink:href="#item_5">
<title>item, id: 5, transf: [r: 90.000°, t: (41.528, 26.882)]</title>
</use>
</g>
<g id="quality_zones"/>
<g id="optionals">
<g id="overlap_lines" transform="translate(0 0), rotate(0)"/>
</g>
<text font-family="monospace" font-size="1.9000262" font-weight="500" x="0" y="-0.9500131">
height: 104.000 | width: 76.001 | usage: 91.016% | final_bench_98
</text>
</svg>