<svg viewBox="-3.792718 -5.2000012 83.43977 114.40001" xmlns="http://www.w3.org/2000/svg" xmlns:xlink="http://www.w3.org/1999/xlink">
<g id="bin_0">
<path d="M0,0 L75.85434,0 L75.85434,104 L0,104 z" fill="#D3D3D3" stroke="black" stroke-width="0.41719887"/>
<title>bin, id: 0, bbox: [x_min: 0.000, y_min: 0.000, x_max: 75.854, y_max: 104.000]</title>
</g>
<g id="items">
<defs>
<g id="item_0">
<path d="M0,0 L21,0 L21,22 L14,28 L7,28 L0,22 z" fill="#7A7A7A" fill-opacity="0.5" fill-rule="nonzero" stroke="black" stroke-width="0.20859943"/>
</g>
<g id="item_1">
<path d="M0,5 L2,0 L11,2 L19,0 L21,5 L17,4 L11,6 L4,4 z" fill="#7A7A7A" fill-opacity="0.5" fill-rule="nonzero" stroke="black" stroke-width="0.20859943"/>
</g>
<g id="item_2">
<path d="M0,0 L33,0 L33,14 L30,14 L26,17 L13,15 L0,17 z" fill="#7A7A7A" fill-opacity="0.5" fill-rule="nonzero" stroke="black" stroke-width="0.20859943"/>
</g>
<g id="item_3">
<path d="M0,0 L4,0 L4,39 L0,39 z" fill="#7A7A7A" fill-opacity="0.5" fill-rule="nonzero" stroke="black" stroke-width="0.20859943"/>
</g>
<g id="item_4">
<path d="M0,0 L10,0 L10,11 L0,11 z" fill="#7A7A7A" fill-opacity="0.5" fill-rule="nonzero" stroke="black" stroke-width="0.20859943"/>
</g>
<g id="item_5">
<path d="M2,20 L0,18 L2,10 L0,2 L2,0 L4,10 z" fill="#7A7A7A" fill-opacity="0.5" fill-rule="nonzero" stroke="black" stroke-width="0.20859943"/>
</g>
<g id="item_6">
<path d="M0,0 L29,0 L27,12 L29,22 L25,26 L25,33 L18,37 L16,35 L14,35 L12,37 L4,34 L4,26 L0,22 L2,12 z" fill="#7A7A7A" fill-opacity="0.5" fill-rule="nonzero" stroke="black" stroke-width="0.20859943"/>
</g>
<g id="item_7">
<path d="M0,0 L33,0 L37,6 L35,13 L28,13 L25,15 L14,13 L0,15 z" fill="#7A7A7A" fill-opacity="0.5" fill-rule="nonzero" stroke="black" stroke-width="0.20859943"/>
</g>
</defs>
<use transform="translate(0.00066947937 103.98591), rotate(-90)" xlink:href="#item_6">
<title>item, id: 6, transf: [r: -90.000°, t: (0.001, 103.986)]</title>
</use>
<use transform="translate(62.364376 78.9961), rotate(-180)" xlink:href="#item_6">
<title>item, id: 6, transf: [r: -180.000°, t: (62.364, 78.996)]</title>
</use>
<use transform="translate(33.55462 74.98139), rotate(-180)" xlink:href="#item_2">
<title>item, id: 2, transf: [r: -180.000°, t: (33.555, 74.981)]</title>
</use>
<use transform="translate(53.853676 4.0001945), rotate(90)" xlink:href="#item_2">
<title>item, id: 2, transf: [r: 90.000°, t: (53.854, 4.000)]</title>
</use>
<use transform="translate(75.85219 44.906067), rotate(90)" xlink:href="#item_7">
<title>item, id: 7, transf: [r: 90.000°, t: (75.852, 44.906)]</title>
</use>
<use transform="translate(0.0016326904 42.144745), rotate(0)" xlink:href="#item_7">
<title>item, id: 7, transf: [r: 0.000°, t: (0.002, 42.145)]</title>
</use>
<use transform="translate(0.00019073486 21.000744), rotate(-90)" xlink:href="#item_0">
<title>item, id: 0, transf: [r: -90.000°, t: (0.000, 21.001)]</title>
</use>
<use transform="translate(0.00007343292 42.00277), rotate(-90)" xlink:href="#item_0">
<title>item, id: 0, transf: [r: -90.000°, t: (0.000, 42.003)]</title>
</use>
<use transform="translate(54.8526 14.018778), rotate(0)" xlink:href="#item_0">
<title>item, id: 0, transf: [r: 0.000°, t: (54.853, 14.019)]</title>
</use>
<use transform="translate(37.590897 99.99624), rotate(-90)" xlink:href="#item_0">
<title>item, id: 0, transf: [r: -90.000°, t: (37.591, 99.996)]</title>
</use>
<use transform="translate(26.241238 103.99867), rotate(-90)" xlink:href="#item_3">
<title>item, id: 3, transf: [r: -90.000°, t: (26.241, 103.999)]</title>
</use>
<use transform="translate(75.53842 0.000067830086), rotate(90)" xlink:href="#item_3">
<title>item, id: 3, transf: [r: 90.000°, t: (75.538, 0.000)]</title>
</use>
<use transform="translate(26.887411 21.111809), rotate(-90)" xlink:href="#item_1">
<title>item, id: 1, transf: [r: -90.000°, t: (26.887, 21.112)]</title>
</use>
<use transform="translate(31.729736 43.630928), rotate(-90)" xlink:href="#item_1">
<title>item, id: 1, transf: [r: -90.000°, t: (31.730, 43.631)]</title>
</use>
<use transform="translate(26.857868 42.144264), rotate(-90)" xlink:href="#item_1">
<title>item, id: 1, transf: [r: -90.000°, t: (26.858, 42.144)]</title>
</use>
<use transform="translate(57.20121 43.068924), rotate(-180)" xlink:href="#item_1">
<title>item, id: 1, transf: [r: -180.000°, t: (57.201, 43.069)]</title>
</use>
<use transform="translate(64.85424 14.017504), rotate(-90)" xlink:href="#item_4">
<title>item, id: 4, transf: [r: -90.000°, t: (64.854, 14.018)]</title>
</use>
<use transform="translate(65.84205 81.99729), rotate(0)" xlink:href="#item_4">
<title>item, id: 4, transf: [r: 0.000°, t: (65.842, 81.997)]</title>
</use>
<use transform="translate(65.84518 92.9996), rotate(0)" xlink:href="#item_4">
<title>item, id: 4, transf: [r: 0.000°, t: (65.845, 93.000)]</title>
</use>
<use transform="translate(64.85419 4.0092874), rotate(90)" xlink:href="#item_4">
<title>item, id: 4, transf: [r: 90.000°, t: (64.854, 4.009)]</title>
</use>
<use transform="translate(33.434517 55.537605), rotate(90)" xlink:href="#item_5">
<title>item, id: 5, transf: [r: 90.000°, t: (33.435, 55.538)]</title>
</use>
<use transform="translate(34.13864 2.680338), rotate(0)" xlink:href="#item_5">
<title>item, id: 5, transf: [r: 0.000°, t: (34.139, 2.680)]</title>
</use>
<use transform="translate(31.363186 0.9324379), rotate(0)" xlink:href="#item_5">
<title>item, id: 5, transf: [r: 0.000°, t: (31.363, 0.932)]</title>
</use>
<use transform="translate(75.346664 40.903984), rotate(90)" xlink:href="#item_5">
<title>item, id: 5, transf: [r: 90.000°, t: (75.347, 40.904)]</title>
</use>
</g>
<g id="quality_zones"/>
<g id="optionals">
<g id="overlap_lines" transform="translate(0 0), rotate(0)"/>
</g>
<text font-family="monospace" font-size="1.8963585" font-weight="500" x="0" y="-0.94817924">
height: 104.000 | width: 75.854 | usage: 91.192% | final_bench_21
</text>
</svg>