<svg viewBox="-3.7859242 -5.2000012 83.29032 114.40001" xmlns="http://www.w3.org/2000/svg" xmlns:xlink="http://www.w3.org/1999/xlink">
<g id="bin_0">
<path d="M0,0 L75.71847,0 L75.71847,104 L0,104 z" fill="#D3D3D3" stroke="black" stroke-width="0.41645163"/>
<title>bin, id: 0, bbox: [x_min: 0.000, y_min: 0.000, x_max: 75.718, y_max: 104.000]</title>
</g>
<g id="items">
<defs>
<g id="item_0">
<path d="M0,0 L21,0 L21,22 L14,28 L7,28 L0,22 z" fill="#7A7A7A" fill-opacity="0.5" fill-rule="nonzero" stroke="black" stroke-width="0.20822582"/>
</g>
<g id="item_1">
<path d="M0,5 L2,0 L11,2 L19,0 L21,5 L17,4 L11,6 L4,4 z" fill="#7A7A7A" fill-opacity="0.5" fill-rule="nonzero" stroke="black" stroke-width="0.20822582"/>
</g>
<g id="item_2">
<path d="M0,0 L33,0 L33,14 L30,14 L26,17 L13,15 L0,17 z" fill="#7A7A7A" fill-opacity="0.5" fill-rule="nonzero" stroke="black" stroke-width="0.20822582"/>
</g>
<g id="item_3">
<path d="M0,0 L4,0 L4,39 L0,39 z" fill="#7A7A7A" fill-opacity="0.5" fill-rule="nonzero" stroke="black" stroke-width="0.20822582"/>
</g>
<g id="item_4">
<path d="M0,0 L10,0 L10,11 L0,11 z" fill="#7A7A7A" fill-opacity="0.5" fill-rule="nonzero" stroke="black" stroke-width="0.20822582"/>
</g>
<g id="item_5">
<path d="M2,20 L0,18 L2,10 L0,2 L2,0 L4,10 z" fill="#7A7A7A" fill-opacity="0.5" fill-rule="nonzero" stroke="black" stroke-width="0.20822582"/>
</g>
<g id="item_6">
<path d="M0,0 L29,0 L27,12 L29,22 L25,26 L25,33 L18,37 L16,35 L14,35 L12,37 L4,34 L4,26 L0,22 L2,12 z" fill="#7A7A7A" fill-opacity="0.5" fill-rule="nonzero" stroke="black" stroke-width="0.20822582"/>
</g>
<g id="item_7">
<path d="M0,0 L33,0 L37,6 L35,13 L28,13 L25,15 L14,13 L0,15 z" fill="#7A7A7A" fill-opacity="0.5" fill-rule="nonzero" stroke="black" stroke-width="0.20822582"/>
</g>
</defs>
<use transform="translate(56.71769 34.4224), rotate(90)" xlink:href="#item_6">
<title>item, id: 6, transf: [r: 90.000°, t: (56.718, 34.422)]</title>
</use>
<use transform="translate(0.00017547607 86.707016), rotate(-90)" xlink:href="#item_6">
<title>item, id: 6, transf: [r: -90.000°, t: (0.000, 86.707)]</title>
</use>
<use transform="translate(75.717896 66.998886), rotate(90)" xlink:href="#item_2">
<title>item, id: 2, transf: [r: 90.000°, t: (75.718, 66.999)]</title>
</use>
<use transform="translate(33.67021 103.998375), rotate(-180)" xlink:href="#item_2">
<title>item, id: 2, transf: [r: -180.000°, t: (33.670, 103.998)]</title>
</use>
<use transform="translate(56.717926 65.10953), rotate(-90)" xlink:href="#item_7">
<title>item, id: 7, transf: [r: -90.000°, t: (56.718, 65.110)]</title>
</use>
<use transform="translate(21.00195 21.09644), rotate(0)" xlink:href="#item_7">
<title>item, id: 7, transf: [r: 0.000°, t: (21.002, 21.096)]</title>
</use>
<use transform="translate(0.00045204163 21.001595), rotate(0)" xlink:href="#item_0">
<title>item, id: 0, transf: [r: 0.000°, t: (0.000, 21.002)]</title>
</use>
<use transform="translate(21.803986 21.020061), rotate(-90)" xlink:href="#item_0">
<title>item, id: 0, transf: [r: -90.000°, t: (21.804, 21.020)]</title>
</use>
<use transform="translate(54.681366 0.006360054), rotate(0)" xlink:href="#item_0">
<title>item, id: 0, transf: [r: 0.000°, t: (54.681, 0.006)]</title>
</use>
<use transform="translate(58.686295 99.99832), rotate(-180)" xlink:href="#item_0">
<title>item, id: 0, transf: [r: -180.000°, t: (58.686, 99.998)]</title>
</use>
<use transform="translate(75.71825 64.40334), rotate(-180)" xlink:href="#item_3">
<title>item, id: 3, transf: [r: -180.000°, t: (75.718, 64.403)]</title>
</use>
<use transform="translate(35.434216 103.99941), rotate(-90)" xlink:href="#item_3">
<title>item, id: 3, transf: [r: -90.000°, t: (35.434, 103.999)]</title>
</use>
<use transform="translate(58.887573 73.154106), rotate(-180)" xlink:href="#item_1">
<title>item, id: 1, transf: [r: -180.000°, t: (58.888, 73.154)]</title>
</use>
<use transform="translate(0.058177948 50.98034), rotate(0)" xlink:href="#item_1">
<title>item, id: 1, transf: [r: 0.000°, t: (0.058, 50.980)]</title>
</use>
<use transform="translate(48.681053 21.075085), rotate(-90)" xlink:href="#item_1">
<title>item, id: 1, transf: [r: -90.000°, t: (48.681, 21.075)]</title>
</use>
<use transform="translate(56.12664 68.34373), rotate(-180)" xlink:href="#item_1">
<title>item, id: 1, transf: [r: -180.000°, t: (56.127, 68.344)]</title>
</use>
<use transform="translate(10.008539 21.000273), rotate(-180)" xlink:href="#item_4">
<title>item, id: 4, transf: [r: -180.000°, t: (10.009, 21.000)]</title>
</use>
<use transform="translate(11.000338 0.000039100647), rotate(90)" xlink:href="#item_4">
<title>item, id: 4, transf: [r: 90.000°, t: (11.000, 0.000)]</title>
</use>
<use transform="translate(21.319134 11.000177), rotate(-180)" xlink:href="#item_4">
<title>item, id: 4, transf: [r: -180.000°, t: (21.319, 11.000)]</title>
</use>
<use transform="translate(10.790415 21.000307), rotate(-90)" xlink:href="#item_4">
<title>item, id: 4, transf: [r: -90.000°, t: (10.790, 21.000)]</title>
</use>
<use transform="translate(20.55697 47.910915), rotate(90)" xlink:href="#item_5">
<title>item, id: 5, transf: [r: 90.000°, t: (20.557, 47.911)]</title>
</use>
<use transform="translate(37.679222 99.96528), rotate(-180)" xlink:href="#item_5">
<title>item, id: 5, transf: [r: -180.000°, t: (37.679, 99.965)]</title>
</use>
<use transform="translate(31.10795 84.9302), rotate(90)" xlink:href="#item_5">
<title>item, id: 5, transf: [r: 90.000°, t: (31.108, 84.930)]</title>
</use>
<use transform="translate(21.722132 55.65958), rotate(90)" xlink:href="#item_5">
<title>item, id: 5, transf: [r: 90.000°, t: (21.722, 55.660)]</title>
</use>
</g>
<g id="quality_zones"/>
<g id="optionals">
<g id="overlap_lines" transform="translate(0 0), rotate(0)"/>
</g>
<text font-family="monospace" font-size="1.8929617" font-weight="500" x="0" y="-0.9464809">
height: 104.000 | width: 75.718 | usage: 91.356% | final_bench_70
</text>
</svg>