<svg viewBox="-3.8000536 -5.2000012 83.601166 114.40001" xmlns="http://www.w3.org/2000/svg" xmlns:xlink="http://www.w3.org/1999/xlink">
<g id="bin_0">
<path d="M0,0 L76.00105,0 L76.00105,104 L0,104 z" fill="#D3D3D3" stroke="black" stroke-width="0.41800585"/>
<title>bin, id: 0, bbox: [x_min: 0.000, y_min: 0.000, x_max: 76.001, y_max: 104.000]</title>
</g>
<g id="items">
<defs>
<g id="item_0">
<path d="M0,0 L21,0 L21,22 L14,28 L7,28 L0,22 z" fill="#7A7A7A" fill-opacity="0.5" fill-rule="nonzero" stroke="black" stroke-width="0.20900293"/>
</g>
<g id="item_1">
<path d="M0,5 L2,0 L11,2 L19,0 L21,5 L17,4 L11,6 L4,4 z" fill="#7A7A7A" fill-opacity="0.5" fill-rule="nonzero" stroke="black" stroke-width="0.20900293"/>
</g>
<g id="item_2">
<path d="M0,0 L33,0 L33,14 L30,14 L26,17 L13,15 L0,17 z" fill="#7A7A7A" fill-opacity="0.5" fill-rule="nonzero" stroke="black" stroke-width="0.20900293"/>
</g>
<g id="item_3">
<path d="M0,0 L4,0 L4,39 L0,39 z" fill="#7A7A7A" fill-opacity="0.5" fill-rule="nonzero" stroke="black" stroke-width="0.20900293"/>
</g>
<g id="item_4">
<path d="M0,0 L10,0 L10,11 L0,11 z" fill="#7A7A7A" fill-opacity="0.5" fill-rule="nonzero" stroke="black" stroke-width="0.20900293"/>
</g>
<g id="item_5">
<path d="M2,20 L0,18 L2,10 L0,2 L2,0 L4,10 z" fill="#7A7A7A" fill-opacity="0.5" fill-rule="nonzero" stroke="black" stroke-width="0.20900293"/>
</g>
<g id="item_6">
<path d="M0,0 L29,0 L27,12 L29,22 L25,26 L25,33 L18,37 L16,35 L14,35 L12,37 L4,34 L4,26 L0,22 L2,12 z" fill="#7A7A7A" fill-opacity="0.5" fill-rule="nonzero" stroke="black" stroke-width="0.20900293"/>
</g>
<g id="item_7">
<path d="M0,0 L33,0 L37,6 L35,13 L28,13 L25,15 L14,13 L0,15 z" fill="#7A7A7A" fill-opacity="0.5" fill-rule="nonzero" stroke="black" stroke-width="0.20900293"/>
</g>
</defs>
<use transform="translate(4.000183 67.05097), rotate(-90)" xlink:href="#item_6">
<title>item, id: 6, transf: [r: -90.000°, t: (4.000, 67.051)]</title>
</use>
<use transform="translate(0.0022974014 0.001750946), rotate(0)" xlink:href="#item_6">
<title>item, id: 6, transf: [r: 0.000°, t: (0.002, 0.002)]</title>
</use>
<use transform="translate(30.452461 67.06297), rotate(90)" xlink:href="#item_2">
<title>item, id: 2, transf: [r: 90.000°, t: (30.452, 67.063)]</title>
</use>
<use transform="translate(30.453367 97.8741), rotate(-90)" xlink:href="#item_2">
<title>item, id: 2, transf: [r: -90.000°, t: (30.453, 97.874)]</title>
</use>
<use transform="translate(0.000042438507 103.999695), rotate(-90)" xlink:href="#item_7">
<title>item, id: 7, transf: [r: -90.000°, t: (0.000, 104.000)]</title>
</use>
<use transform="translate(76.000404 0.005844116), rotate(90)" xlink:href="#item_7">
<title>item, id: 7, transf: [r: 90.000°, t: (76.000, 0.006)]</title>
</use>
<use transform="translate(72.00069 70.96417), rotate(-180)" xlink:href="#item_0">
<title>item, id: 0, transf: [r: -180.000°, t: (72.001, 70.964)]</title>
</use>
<use transform="translate(53.013718 21.006332), rotate(90)" xlink:href="#item_0">
<title>item, id: 0, transf: [r: 90.000°, t: (53.014, 21.006)]</title>
</use>
<use transform="translate(75.99657 82.886734), rotate(90)" xlink:href="#item_0">
<title>item, id: 0, transf: [r: 90.000°, t: (75.997, 82.887)]</title>
</use>
<use transform="translate(31.311531 21.000746), rotate(-90)" xlink:href="#item_0">
<title>item, id: 0, transf: [r: -90.000°, t: (31.312, 21.001)]</title>
</use>
<use transform="translate(72.00097 43.88664), rotate(0)" xlink:href="#item_3">
<title>item, id: 3, transf: [r: 0.000°, t: (72.001, 43.887)]</title>
</use>
<use transform="translate(4.000001 65.185165), rotate(-180)" xlink:href="#item_3">
<title>item, id: 3, transf: [r: -180.000°, t: (4.000, 65.185)]</title>
</use>
<use transform="translate(29.79221 97.876015), rotate(0)" xlink:href="#item_1">
<title>item, id: 1, transf: [r: 0.000°, t: (29.792, 97.876)]</title>
</use>
<use transform="translate(45.998177 85.04361), rotate(-90)" xlink:href="#item_1">
<title>item, id: 1, transf: [r: -90.000°, t: (45.998, 85.044)]</title>
</use>
<use transform="translate(61.80751 18.555134), rotate(90)" xlink:href="#item_1">
<title>item, id: 1, transf: [r: 90.000°, t: (61.808, 18.555)]</title>
</use>
<use transform="translate(74.03208 43.70569), rotate(-180)" xlink:href="#item_1">
<title>item, id: 1, transf: [r: -180.000°, t: (74.032, 43.706)]</title>
</use>
<use transform="translate(71.99866 82.325134), rotate(-180)" xlink:href="#item_4">
<title>item, id: 4, transf: [r: -180.000°, t: (71.999, 82.325)]</title>
</use>
<use transform="translate(51.998413 71.85633), rotate(0)" xlink:href="#item_4">
<title>item, id: 4, transf: [r: 0.000°, t: (51.998, 71.856)]</title>
</use>
<use transform="translate(41.00028 53.024155), rotate(0)" xlink:href="#item_4">
<title>item, id: 4, transf: [r: 0.000°, t: (41.000, 53.024)]</title>
</use>
<use transform="translate(41.000263 42.013535), rotate(0)" xlink:href="#item_4">
<title>item, id: 4, transf: [r: 0.000°, t: (41.000, 42.014)]</title>
</use>
<use transform="translate(25.0111 35.754387), rotate(90)" xlink:href="#item_5">
<title>item, id: 5, transf: [r: 90.000°, t: (25.011, 35.754)]</title>
</use>
<use transform="translate(58.427536 0.0016946793), rotate(0)" xlink:href="#item_5">
<title>item, id: 5, transf: [r: 0.000°, t: (58.428, 0.002)]</title>
</use>
<use transform="translate(31.178787 20.958424), rotate(-180)" xlink:href="#item_5">
<title>item, id: 5, transf: [r: -180.000°, t: (31.179, 20.958)]</title>
</use>
<use transform="translate(57.357197 39.26979), rotate(-180)" xlink:href="#item_5">
<title>item, id: 5, transf: [r: -180.000°, t: (57.357, 39.270)]</title>
</use>
</g>
<g id="quality_zones"/>
<g id="optionals">
<g id="overlap_lines" transform="translate(0 0), rotate(0)"/>
</g>
<text font-family="monospace" font-size="1.9000263" font-weight="500" x="0" y="-0.95001316">
height: 104.000 | width: 76.001 | usage: 91.016% | final_bench_10
</text>
</svg>