<svg viewBox="-3.80314 -5.2000012 83.66906 114.40001" xmlns="http://www.w3.org/2000/svg" xmlns:xlink="http://www.w3.org/1999/xlink">
<g id="bin_0">
<path d="M0,0 L76.06278,0 L76.06278,104 L0,104 z" fill="#D3D3D3" stroke="black" stroke-width="0.41834533"/>
<title>bin, id: 0, bbox: [x_min: 0.000, y_min: 0.000, x_max: 76.063, y_max: 104.000]</title>
</g>
<g id="items">
<defs>
<g id="item_0">
<path d="M0,0 L21,0 L21,22 L14,28 L7,28 L0,22 z" fill="#7A7A7A" fill-opacity="0.5" fill-rule="nonzero" stroke="black" stroke-width="0.20917267"/>
</g>
<g id="item_1">
<path d="M0,5 L2,0 L11,2 L19,0 L21,5 L17,4 L11,6 L4,4 z" fill="#7A7A7A" fill-opacity="0.5" fill-rule="nonzero" stroke="black" stroke-width="0.20917267"/>
</g>
<g id="item_2">
<path d="M0,0 L33,0 L33,14 L30,14 L26,17 L13,15 L0,17 z" fill="#7A7A7A" fill-opacity="0.5" fill-rule="nonzero" stroke="black" stroke-width="0.20917267"/>
</g>
<g id="item_3">
<path d="M0,0 L4,0 L4,39 L0,39 z" fill="#7A7A7A" fill-opacity="0.5" fill-rule="nonzero" stroke="black" stroke-width="0.20917267"/>
</g>
<g id="item_4">
<path d="M0,0 L10,0 L10,11 L0,11 z" fill="#7A7A7A" fill-opacity="0.5" fill-rule="nonzero" stroke="black" stroke-width="0.20917267"/>
</g>
<g id="item_5">
<path d="M2,20 L0,18 L2,10 L0,2 L2,0 L4,10 z" fill="#7A7A7A" fill-opacity="0.5" fill-rule="nonzero" stroke="black" stroke-width="0.20917267"/>
</g>
<g id="item_6">
<path d="M0,0 L29,0 L27,12 L29,22 L25,26 L25,33 L18,37 L16,35 L14,35 L12,37 L4,34 L4,26 L0,22 L2,12 z" fill="#7A7A7A" fill-opacity="0.5" fill-rule="nonzero" stroke="black" stroke-width="0.20917267"/>
</g>
<g id="item_7">
<path d="M0,0 L33,0 L37,6 L35,13 L28,13 L25,15 L14,13 L0,15 z" fill="#7A7A7A" fill-opacity="0.5" fill-rule="nonzero" stroke="black" stroke-width="0.20917267"/>
</g>
</defs>
<use transform="translate(76.06259 53.999565), rotate(90)" xlink:href="#item_6">
<title>item, id: 6, transf: [r: 90.000°, t: (76.063, 54.000)]</title>
</use>
<use transform="translate(21.000141 46.99933), rotate(-90)" xlink:href="#item_6">
<title>item, id: 6, transf: [r: -90.000°, t: (21.000, 46.999)]</title>
</use>
<use transform="translate(76.058815 21.000189), rotate(90)" xlink:href="#item_2">
<title>item, id: 2, transf: [r: 90.000°, t: (76.059, 21.000)]</title>
</use>
<use transform="translate(21.000832 80.65436), rotate(-90)" xlink:href="#item_2">
<title>item, id: 2, transf: [r: -90.000°, t: (21.001, 80.654)]</title>
</use>
<use transform="translate(46.350807 99.99945), rotate(-180)" xlink:href="#item_7">
<title>item, id: 7, transf: [r: -180.000°, t: (46.351, 99.999)]</title>
</use>
<use transform="translate(11.0254345 4.177598), rotate(0)" xlink:href="#item_7">
<title>item, id: 7, transf: [r: 0.000°, t: (11.025, 4.178)]</title>
</use>
<use transform="translate(0.0001373291 20.103912), rotate(0)" xlink:href="#item_0">
<title>item, id: 0, transf: [r: 0.000°, t: (0.000, 20.104)]</title>
</use>
<use transform="translate(0.00039672852 53.145382), rotate(0)" xlink:href="#item_0">
<title>item, id: 0, transf: [r: 0.000°, t: (0.000, 53.145)]</title>
</use>
<use transform="translate(76.04297 0.00000667572), rotate(90)" xlink:href="#item_0">
<title>item, id: 0, transf: [r: 90.000°, t: (76.043, 0.000)]</title>
</use>
<use transform="translate(76.053085 82.999825), rotate(90)" xlink:href="#item_0">
<title>item, id: 0, transf: [r: 90.000°, t: (76.053, 83.000)]</title>
</use>
<use transform="translate(11.429642 103.99967), rotate(-90)" xlink:href="#item_3">
<title>item, id: 3, transf: [r: -90.000°, t: (11.430, 104.000)]</title>
</use>
<use transform="translate(11.587517 4.0037193), rotate(-90)" xlink:href="#item_3">
<title>item, id: 3, transf: [r: -90.000°, t: (11.588, 4.004)]</title>
</use>
<use transform="translate(11.047763 82.97906), rotate(90)" xlink:href="#item_1">
<title>item, id: 1, transf: [r: 90.000°, t: (11.048, 82.979)]</title>
</use>
<use transform="translate(51.822067 85.76441), rotate(-180)" xlink:href="#item_1">
<title>item, id: 1, transf: [r: -180.000°, t: (51.822, 85.764)]</title>
</use>
<use transform="translate(0.0001745224 47.00356), rotate(0)" xlink:href="#item_1">
<title>item, id: 1, transf: [r: 0.000°, t: (0.000, 47.004)]</title>
</use>
<use transform="translate(30.83496 86.32406), rotate(-180)" xlink:href="#item_1">
<title>item, id: 1, transf: [r: -180.000°, t: (30.835, 86.324)]</title>
</use>
<use transform="translate(59.051075 43.49512), rotate(90)" xlink:href="#item_4">
<title>item, id: 4, transf: [r: 90.000°, t: (59.051, 43.495)]</title>
</use>
<use transform="translate(38.05029 46.99939), rotate(0)" xlink:href="#item_4">
<title>item, id: 4, transf: [r: 0.000°, t: (38.050, 46.999)]</title>
</use>
<use transform="translate(11.000126 0.010034561), rotate(90)" xlink:href="#item_4">
<title>item, id: 4, transf: [r: 90.000°, t: (11.000, 0.010)]</title>
</use>
<use transform="translate(11.02187 10.0982895), rotate(90)" xlink:href="#item_4">
<title>item, id: 4, transf: [r: 90.000°, t: (11.022, 10.098)]</title>
</use>
<use transform="translate(40.14342 78.4875), rotate(-180)" xlink:href="#item_5">
<title>item, id: 5, transf: [r: -180.000°, t: (40.143, 78.488)]</title>
</use>
<use transform="translate(6.6710377 103.48528), rotate(-180)" xlink:href="#item_5">
<title>item, id: 5, transf: [r: -180.000°, t: (6.671, 103.485)]</title>
</use>
<use transform="translate(56.751232 22.003319), rotate(0)" xlink:href="#item_5">
<title>item, id: 5, transf: [r: 0.000°, t: (56.751, 22.003)]</title>
</use>
<use transform="translate(4.003183 102.4746), rotate(-180)" xlink:href="#item_5">
<title>item, id: 5, transf: [r: -180.000°, t: (4.003, 102.475)]</title>
</use>
</g>
<g id="quality_zones"/>
<g id="optionals">
<g id="overlap_lines" transform="translate(0 0), rotate(0)"/>
</g>
<text font-family="monospace" font-size="1.9015696" font-weight="500" x="0" y="-0.9507848">
height: 104.000 | width: 76.063 | usage: 90.942% | final_bench_74
</text>
</svg>