<svg viewBox="-3.8144572 -5.2000012 83.918045 114.40001" xmlns="http://www.w3.org/2000/svg" xmlns:xlink="http://www.w3.org/1999/xlink">
<g id="bin_0">
<path d="M0,0 L76.28912,0 L76.28912,104 L0,104 z" fill="#D3D3D3" stroke="black" stroke-width="0.41959023"/>
<title>bin, id: 0, bbox: [x_min: 0.000, y_min: 0.000, x_max: 76.289, y_max: 104.000]</title>
</g>
<g id="items">
<defs>
<g id="item_0">
<path d="M0,0 L21,0 L21,22 L14,28 L7,28 L0,22 z" fill="#7A7A7A" fill-opacity="0.5" fill-rule="nonzero" stroke="black" stroke-width="0.20979512"/>
</g>
<g id="item_1">
<path d="M0,5 L2,0 L11,2 L19,0 L21,5 L17,4 L11,6 L4,4 z" fill="#7A7A7A" fill-opacity="0.5" fill-rule="nonzero" stroke="black" stroke-width="0.20979512"/>
</g>
<g id="item_2">
<path d="M0,0 L33,0 L33,14 L30,14 L26,17 L13,15 L0,17 z" fill="#7A7A7A" fill-opacity="0.5" fill-rule="nonzero" stroke="black" stroke-width="0.20979512"/>
</g>
<g id="item_3">
<path d="M0,0 L4,0 L4,39 L0,39 z" fill="#7A7A7A" fill-opacity="0.5" fill-rule="nonzero" stroke="black" stroke-width="0.20979512"/>
</g>
<g id="item_4">
<path d="M0,0 L10,0 L10,11 L0,11 z" fill="#7A7A7A" fill-opacity="0.5" fill-rule="nonzero" stroke="black" stroke-width="0.20979512"/>
</g>
<g id="item_5">
<path d="M2,20 L0,18 L2,10 L0,2 L2,0 L4,10 z" fill="#7A7A7A" fill-opacity="0.5" fill-rule="nonzero" stroke="black" stroke-width="0.20979512"/>
</g>
<g id="item_6">
<path d="M0,0 L29,0 L27,12 L29,22 L25,26 L25,33 L18,37 L16,35 L14,35 L12,37 L4,34 L4,26 L0,22 L2,12 z" fill="#7A7A7A" fill-opacity="0.5" fill-rule="nonzero" stroke="black" stroke-width="0.20979512"/>
</g>
<g id="item_7">
<path d="M0,0 L33,0 L37,6 L35,13 L28,13 L25,15 L14,13 L0,15 z" fill="#7A7A7A" fill-opacity="0.5" fill-rule="nonzero" stroke="black" stroke-width="0.20979512"/>
</g>
</defs>
<use transform="translate(0.010256767 33.05158), rotate(0)" xlink:href="#item_6">
<title>item, id: 6, transf: [r: 0.000°, t: (0.010, 33.052)]</title>
</use>
<use transform="translate(54.24786 82.97735), rotate(-180)" xlink:href="#item_6">
<title>item, id: 6, transf: [r: -180.000°, t: (54.248, 82.977)]</title>
</use>
<use transform="translate(4.0007596 103.05557), rotate(-90)" xlink:href="#item_2">
<title>item, id: 2, transf: [r: -90.000°, t: (4.001, 103.056)]</title>
</use>
<use transform="translate(0.00051403046 33.000187), rotate(-90)" xlink:href="#item_2">
<title>item, id: 2, transf: [r: -90.000°, t: (0.001, 33.000)]</title>
</use>
<use transform="translate(75.9389 32.644566), rotate(-180)" xlink:href="#item_7">
<title>item, id: 7, transf: [r: -180.000°, t: (75.939, 32.645)]</title>
</use>
<use transform="translate(39.27763 4.0033855), rotate(0)" xlink:href="#item_7">
<title>item, id: 7, transf: [r: 0.000°, t: (39.278, 4.003)]</title>
</use>
<use transform="translate(76.28826 103.99198), rotate(-180)" xlink:href="#item_0">
<title>item, id: 0, transf: [r: -180.000°, t: (76.288, 103.992)]</title>
</use>
<use transform="translate(76.2598 32.650333), rotate(90)" xlink:href="#item_0">
<title>item, id: 0, transf: [r: 90.000°, t: (76.260, 32.650)]</title>
</use>
<use transform="translate(49.287395 82.99726), rotate(90)" xlink:href="#item_0">
<title>item, id: 0, transf: [r: 90.000°, t: (49.287, 82.997)]</title>
</use>
<use transform="translate(38.00086 33.04968), rotate(-180)" xlink:href="#item_0">
<title>item, id: 0, transf: [r: -180.000°, t: (38.001, 33.050)]</title>
</use>
<use transform="translate(76.28737 0.00047695637), rotate(90)" xlink:href="#item_3">
<title>item, id: 3, transf: [r: 90.000°, t: (76.287, 0.000)]</title>
</use>
<use transform="translate(0.00005054474 59.044273), rotate(0)" xlink:href="#item_3">
<title>item, id: 3, transf: [r: 0.000°, t: (0.000, 59.044)]</title>
</use>
<use transform="translate(27.212341 40.30355), rotate(0)" xlink:href="#item_1">
<title>item, id: 1, transf: [r: 0.000°, t: (27.212, 40.304)]</title>
</use>
<use transform="translate(51.253426 38.34783), rotate(-180)" xlink:href="#item_1">
<title>item, id: 1, transf: [r: -180.000°, t: (51.253, 38.348)]</title>
</use>
<use transform="translate(37.286793 6.0002594), rotate(-180)" xlink:href="#item_1">
<title>item, id: 1, transf: [r: -180.000°, t: (37.287, 6.000)]</title>
</use>
<use transform="translate(49.287773 103.96261), rotate(-90)" xlink:href="#item_1">
<title>item, id: 1, transf: [r: -90.000°, t: (49.288, 103.963)]</title>
</use>
<use transform="translate(66.28889 53.940083), rotate(0)" xlink:href="#item_4">
<title>item, id: 4, transf: [r: 0.000°, t: (66.289, 53.940)]</title>
</use>
<use transform="translate(66.284515 64.6542), rotate(-180)" xlink:href="#item_4">
<title>item, id: 4, transf: [r: -180.000°, t: (66.285, 64.654)]</title>
</use>
<use transform="translate(66.286896 75.98554), rotate(-180)" xlink:href="#item_4">
<title>item, id: 4, transf: [r: -180.000°, t: (66.287, 75.986)]</title>
</use>
<use transform="translate(76.287895 75.95974), rotate(-180)" xlink:href="#item_4">
<title>item, id: 4, transf: [r: -180.000°, t: (76.288, 75.960)]</title>
</use>
<use transform="translate(22.337713 66.438194), rotate(0)" xlink:href="#item_5">
<title>item, id: 5, transf: [r: 0.000°, t: (22.338, 66.438)]</title>
</use>
<use transform="translate(56.282375 81.07376), rotate(-180)" xlink:href="#item_5">
<title>item, id: 5, transf: [r: -180.000°, t: (56.282, 81.074)]</title>
</use>
<use transform="translate(19.626083 67.99137), rotate(0)" xlink:href="#item_5">
<title>item, id: 5, transf: [r: 0.000°, t: (19.626, 67.991)]</title>
</use>
<use transform="translate(47.919476 37.95924), rotate(90)" xlink:href="#item_5">
<title>item, id: 5, transf: [r: 90.000°, t: (47.919, 37.959)]</title>
</use>
</g>
<g id="quality_zones"/>
<g id="optionals">
<g id="overlap_lines" transform="translate(0 0), rotate(0)"/>
</g>
<text font-family="monospace" font-size="1.9072281" font-weight="500" x="0" y="-0.95361406">
height: 104.000 | width: 76.289 | usage: 90.672% | final_bench_46
</text>
</svg>