<svg viewBox="-3.8115816 -5.2000012 83.85478 114.40001" xmlns="http://www.w3.org/2000/svg" xmlns:xlink="http://www.w3.org/1999/xlink">
<g id="bin_0">
<path d="M0,0 L76.23161,0 L76.23161,104 L0,104 z" fill="#D3D3D3" stroke="black" stroke-width="0.41927394"/>
<title>bin, id: 0, bbox: [x_min: 0.000, y_min: 0.000, x_max: 76.232, y_max: 104.000]</title>
</g>
<g id="items">
<defs>
<g id="item_0">
<path d="M0,0 L21,0 L21,22 L14,28 L7,28 L0,22 z" fill="#7A7A7A" fill-opacity="0.5" fill-rule="nonzero" stroke="black" stroke-width="0.20963697"/>
</g>
<g id="item_1">
<path d="M0,5 L2,0 L11,2 L19,0 L21,5 L17,4 L11,6 L4,4 z" fill="#7A7A7A" fill-opacity="0.5" fill-rule="nonzero" stroke="black" stroke-width="0.20963697"/>
</g>
<g id="item_2">
<path d="M0,0 L33,0 L33,14 L30,14 L26,17 L13,15 L0,17 z" fill="#7A7A7A" fill-opacity="0.5" fill-rule="nonzero" stroke="black" stroke-width="0.20963697"/>
</g>
<g id="item_3">
<path d="M0,0 L4,0 L4,39 L0,39 z" fill="#7A7A7A" fill-opacity="0.5" fill-rule="nonzero" stroke="black" stroke-width="0.20963697"/>
</g>
<g id="item_4">
<path d="M0,0 L10,0 L10,11 L0,11 z" fill="#7A7A7A" fill-opacity="0.5" fill-rule="nonzero" stroke="black" stroke-width="0.20963697"/>
</g>
<g id="item_5">
<path d="M2,20 L0,18 L2,10 L0,2 L2,0 L4,10 z" fill="#7A7A7A" fill-opacity="0.5" fill-rule="nonzero" stroke="black" stroke-width="0.20963697"/>
</g>
<g id="item_6">
<path d="M0,0 L29,0 L27,12 L29,22 L25,26 L25,33 L18,37 L16,35 L14,35 L12,37 L4,34 L4,26 L0,22 L2,12 z" fill="#7A7A7A" fill-opacity="0.5" fill-rule="nonzero" stroke="black" stroke-width="0.20963697"/>
</g>
<g id="item_7">
<path d="M0,0 L33,0 L37,6 L35,13 L28,13 L25,15 L14,13 L0,15 z" fill="#7A7A7A" fill-opacity="0.5" fill-rule="nonzero" stroke="black" stroke-width="0.20963697"/>
</g>
</defs>
<use transform="translate(47.16756 37.16073), rotate(0)" xlink:href="#item_6">
<title>item, id: 6, transf: [r: 0.000°, t: (47.168, 37.161)]</title>
</use>
<use transform="translate(72.21036 72.99257), rotate(90)" xlink:href="#item_6">
<title>item, id: 6, transf: [r: 90.000°, t: (72.210, 72.993)]</title>
</use>
<use transform="translate(37.966904 0.0007171631), rotate(90)" xlink:href="#item_2">
<title>item, id: 2, transf: [r: 90.000°, t: (37.967, 0.001)]</title>
</use>
<use transform="translate(4.00001 82.99758), rotate(-90)" xlink:href="#item_2">
<title>item, id: 2, transf: [r: -90.000°, t: (4.000, 82.998)]</title>
</use>
<use transform="translate(76.231094 0.0019512177), rotate(90)" xlink:href="#item_7">
<title>item, id: 7, transf: [r: 90.000°, t: (76.231, 0.002)]</title>
</use>
<use transform="translate(47.96781 37.159492), rotate(-90)" xlink:href="#item_7">
<title>item, id: 7, transf: [r: -90.000°, t: (47.968, 37.159)]</title>
</use>
<use transform="translate(45.11941 34.93786), rotate(90)" xlink:href="#item_0">
<title>item, id: 0, transf: [r: 90.000°, t: (45.119, 34.938)]</title>
</use>
<use transform="translate(0.0016088486 0.22638035), rotate(0)" xlink:href="#item_0">
<title>item, id: 0, transf: [r: 0.000°, t: (0.002, 0.226)]</title>
</use>
<use transform="translate(0.00024414063 103.99803), rotate(-90)" xlink:href="#item_0">
<title>item, id: 0, transf: [r: -90.000°, t: (0.000, 103.998)]</title>
</use>
<use transform="translate(22.23843 76.992035), rotate(-90)" xlink:href="#item_0">
<title>item, id: 0, transf: [r: -90.000°, t: (22.238, 76.992)]</title>
</use>
<use transform="translate(0.00000500679 43.996265), rotate(0)" xlink:href="#item_3">
<title>item, id: 3, transf: [r: 0.000°, t: (0.000, 43.996)]</title>
</use>
<use transform="translate(76.22749 103.982025), rotate(-180)" xlink:href="#item_3">
<title>item, id: 3, transf: [r: -180.000°, t: (76.227, 103.982)]</title>
</use>
<use transform="translate(0.00015735626 31.621265), rotate(0)" xlink:href="#item_1">
<title>item, id: 1, transf: [r: 0.000°, t: (0.000, 31.621)]</title>
</use>
<use transform="translate(36.33063 77.902176), rotate(90)" xlink:href="#item_1">
<title>item, id: 1, transf: [r: 90.000°, t: (36.331, 77.902)]</title>
</use>
<use transform="translate(25.143677 97.99802), rotate(0)" xlink:href="#item_1">
<title>item, id: 1, transf: [r: 0.000°, t: (25.144, 97.998)]</title>
</use>
<use transform="translate(0.0016307831 27.118622), rotate(0)" xlink:href="#item_1">
<title>item, id: 1, transf: [r: 0.000°, t: (0.002, 27.119)]</title>
</use>
<use transform="translate(6.1185656 49.997475), rotate(-90)" xlink:href="#item_4">
<title>item, id: 4, transf: [r: -90.000°, t: (6.119, 49.997)]</title>
</use>
<use transform="translate(37.967182 0.04011154), rotate(0)" xlink:href="#item_4">
<title>item, id: 4, transf: [r: 0.000°, t: (37.967, 0.040)]</title>
</use>
<use transform="translate(47.967327 34.707554), rotate(-180)" xlink:href="#item_4">
<title>item, id: 4, transf: [r: -180.000°, t: (47.967, 34.708)]</title>
</use>
<use transform="translate(37.96735 12.218653), rotate(0)" xlink:href="#item_4">
<title>item, id: 4, transf: [r: 0.000°, t: (37.967, 12.219)]</title>
</use>
<use transform="translate(50.248886 103.999756), rotate(-90)" xlink:href="#item_5">
<title>item, id: 5, transf: [r: -90.000°, t: (50.249, 104.000)]</title>
</use>
<use transform="translate(45.13344 39.025047), rotate(0)" xlink:href="#item_5">
<title>item, id: 5, transf: [r: 0.000°, t: (45.133, 39.025)]</title>
</use>
<use transform="translate(31.41305 97.06055), rotate(-180)" xlink:href="#item_5">
<title>item, id: 5, transf: [r: -180.000°, t: (31.413, 97.061)]</title>
</use>
<use transform="translate(20.49697 35.99725), rotate(90)" xlink:href="#item_5">
<title>item, id: 5, transf: [r: 90.000°, t: (20.497, 35.997)]</title>
</use>
</g>
<g id="quality_zones"/>
<g id="optionals">
<g id="overlap_lines" transform="translate(0 0), rotate(0)"/>
</g>
<text font-family="monospace" font-size="1.9057903" font-weight="500" x="0" y="-0.95289516">
height: 104.000 | width: 76.232 | usage: 90.741% | final_bench_24
</text>
</svg>