<svg viewBox="-3.8089757 -5.2000012 83.79745 114.40001" xmlns="http://www.w3.org/2000/svg" xmlns:xlink="http://www.w3.org/1999/xlink">
<g id="bin_0">
<path d="M0,0 L76.1795,0 L76.1795,104 L0,104 z" fill="#D3D3D3" stroke="black" stroke-width="0.41898727"/>
<title>bin, id: 0, bbox: [x_min: 0.000, y_min: 0.000, x_max: 76.179, y_max: 104.000]</title>
</g>
<g id="items">
<defs>
<g id="item_0">
<path d="M0,0 L21,0 L21,22 L14,28 L7,28 L0,22 z" fill="#7A7A7A" fill-opacity="0.5" fill-rule="nonzero" stroke="black" stroke-width="0.20949364"/>
</g>
<g id="item_1">
<path d="M0,5 L2,0 L11,2 L19,0 L21,5 L17,4 L11,6 L4,4 z" fill="#7A7A7A" fill-opacity="0.5" fill-rule="nonzero" stroke="black" stroke-width="0.20949364"/>
</g>
<g id="item_2">
<path d="M0,0 L33,0 L33,14 L30,14 L26,17 L13,15 L0,17 z" fill="#7A7A7A" fill-opacity="0.5" fill-rule="nonzero" stroke="black" stroke-width="0.20949364"/>
</g>
<g id="item_3">
<path d="M0,0 L4,0 L4,39 L0,39 z" fill="#7A7A7A" fill-opacity="0.5" fill-rule="nonzero" stroke="black" stroke-width="0.20949364"/>
</g>
<g id="item_4">
<path d="M0,0 L10,0 L10,11 L0,11 z" fill="#7A7A7A" fill-opacity="0.5" fill-rule="nonzero" stroke="black" stroke-width="0.20949364"/>
</g>
<g id="item_5">
<path d="M2,20 L0,18 L2,10 L0,2 L2,0 L4,10 z" fill="#7A7A7A" fill-opacity="0.5" fill-rule="nonzero" stroke="black" stroke-width="0.20949364"/>
</g>
<g id="item_6">
<path d="M0,0 L29,0 L27,12 L29,22 L25,26 L25,33 L18,37 L16,35 L14,35 L12,37 L4,34 L4,26 L0,22 L2,12 z" fill="#7A7A7A" fill-opacity="0.5" fill-rule="nonzero" stroke="black" stroke-width="0.20949364"/>
</g>
<g id="item_7">
<path d="M0,0 L33,0 L37,6 L35,13 L28,13 L25,15 L14,13 L0,15 z" fill="#7A7A7A" fill-opacity="0.5" fill-rule="nonzero" stroke="black" stroke-width="0.20949364"/>
</g>
</defs>
<use transform="translate(13.177882 0.027591705), rotate(0)" xlink:href="#item_6">
<title>item, id: 6, transf: [r: 0.000°, t: (13.178, 0.028)]</title>
</use>
<use transform="translate(39.178394 90.8159), rotate(-90)" xlink:href="#item_6">
<title>item, id: 6, transf: [r: -90.000°, t: (39.178, 90.816)]</title>
</use>
<use transform="translate(43.17894 43.018463), rotate(0)" xlink:href="#item_2">
<title>item, id: 2, transf: [r: 0.000°, t: (43.179, 43.018)]</title>
</use>
<use transform="translate(33.09928 74.998505), rotate(-180)" xlink:href="#item_2">
<title>item, id: 2, transf: [r: -180.000°, t: (33.099, 74.999)]</title>
</use>
<use transform="translate(0.0004720688 37.000984), rotate(-90)" xlink:href="#item_7">
<title>item, id: 7, transf: [r: -90.000°, t: (0.000, 37.001)]</title>
</use>
<use transform="translate(76.17917 103.999565), rotate(-180)" xlink:href="#item_7">
<title>item, id: 7, transf: [r: -180.000°, t: (76.179, 104.000)]</title>
</use>
<use transform="translate(76.17941 0.0054540634), rotate(90)" xlink:href="#item_0">
<title>item, id: 0, transf: [r: 90.000°, t: (76.179, 0.005)]</title>
</use>
<use transform="translate(39.17768 78.99975), rotate(90)" xlink:href="#item_0">
<title>item, id: 0, transf: [r: 90.000°, t: (39.178, 79.000)]</title>
</use>
<use transform="translate(66.178535 21.266518), rotate(90)" xlink:href="#item_0">
<title>item, id: 0, transf: [r: 90.000°, t: (66.179, 21.267)]</title>
</use>
<use transform="translate(32.88614 37.027893), rotate(90)" xlink:href="#item_0">
<title>item, id: 0, transf: [r: 90.000°, t: (32.886, 37.028)]</title>
</use>
<use transform="translate(0.012996674 78.998634), rotate(-90)" xlink:href="#item_3">
<title>item, id: 3, transf: [r: -90.000°, t: (0.013, 78.999)]</title>
</use>
<use transform="translate(0.9045944 103.99995), rotate(-90)" xlink:href="#item_3">
<title>item, id: 3, transf: [r: -90.000°, t: (0.905, 104.000)]</title>
</use>
<use transform="translate(6.0000544 37.00522), rotate(90)" xlink:href="#item_1">
<title>item, id: 1, transf: [r: 90.000°, t: (6.000, 37.005)]</title>
</use>
<use transform="translate(43.17679 39.215954), rotate(90)" xlink:href="#item_1">
<title>item, id: 1, transf: [r: 90.000°, t: (43.177, 39.216)]</title>
</use>
<use transform="translate(32.89593 55.16638), rotate(-90)" xlink:href="#item_1">
<title>item, id: 1, transf: [r: -90.000°, t: (32.896, 55.166)]</title>
</use>
<use transform="translate(39.10251 53.997574), rotate(90)" xlink:href="#item_1">
<title>item, id: 1, transf: [r: 90.000°, t: (39.103, 53.998)]</title>
</use>
<use transform="translate(76.17893 43.014656), rotate(-180)" xlink:href="#item_4">
<title>item, id: 4, transf: [r: -180.000°, t: (76.179, 43.015)]</title>
</use>
<use transform="translate(11.013615 89.99962), rotate(90)" xlink:href="#item_4">
<title>item, id: 4, transf: [r: 90.000°, t: (11.014, 90.000)]</title>
</use>
<use transform="translate(76.178955 32.00704), rotate(-180)" xlink:href="#item_4">
<title>item, id: 4, transf: [r: -180.000°, t: (76.179, 32.007)]</title>
</use>
<use transform="translate(11.148317 79.76945), rotate(90)" xlink:href="#item_4">
<title>item, id: 4, transf: [r: 90.000°, t: (11.148, 79.769)]</title>
</use>
<use transform="translate(44.31526 21.217478), rotate(-180)" xlink:href="#item_5">
<title>item, id: 5, transf: [r: -180.000°, t: (44.315, 21.217)]</title>
</use>
<use transform="translate(46.89875 20.5276), rotate(-180)" xlink:href="#item_5">
<title>item, id: 5, transf: [r: -180.000°, t: (46.899, 20.528)]</title>
</use>
<use transform="translate(49.30395 20.504238), rotate(-180)" xlink:href="#item_5">
<title>item, id: 5, transf: [r: -180.000°, t: (49.304, 20.504)]</title>
</use>
<use transform="translate(52.05032 63.240936), rotate(-90)" xlink:href="#item_5">
<title>item, id: 5, transf: [r: -90.000°, t: (52.050, 63.241)]</title>
</use>
</g>
<g id="quality_zones"/>
<g id="optionals">
<g id="overlap_lines" transform="translate(0 0), rotate(0)"/>
</g>
<text font-family="monospace" font-size="1.9044875" font-weight="500" x="0" y="-0.95224375">
height: 104.000 | width: 76.179 | usage: 90.803% | final_bench_94
</text>
</svg>