<svg viewBox="-3.8006215 -5.2000012 83.613655 114.40001" xmlns="http://www.w3.org/2000/svg" xmlns:xlink="http://www.w3.org/1999/xlink">
<g id="bin_0">
<path d="M0,0 L76.01241,0 L76.01241,104 L0,104 z" fill="#D3D3D3" stroke="black" stroke-width="0.4180683"/>
<title>bin, id: 0, bbox: [x_min: 0.000, y_min: 0.000, x_max: 76.012, y_max: 104.000]</title>
</g>
<g id="items">
<defs>
<g id="item_0">
<path d="M0,0 L21,0 L21,22 L14,28 L7,28 L0,22 z" fill="#7A7A7A" fill-opacity="0.5" fill-rule="nonzero" stroke="black" stroke-width="0.20903414"/>
</g>
<g id="item_1">
<path d="M0,5 L2,0 L11,2 L19,0 L21,5 L17,4 L11,6 L4,4 z" fill="#7A7A7A" fill-opacity="0.5" fill-rule="nonzero" stroke="black" stroke-width="0.20903414"/>
</g>
<g id="item_2">
<path d="M0,0 L33,0 L33,14 L30,14 L26,17 L13,15 L0,17 z" fill="#7A7A7A" fill-opacity="0.5" fill-rule="nonzero" stroke="black" stroke-width="0.20903414"/>
</g>
<g id="item_3">
<path d="M0,0 L4,0 L4,39 L0,39 z" fill="#7A7A7A" fill-opacity="0.5" fill-rule="nonzero" stroke="black" stroke-width="0.20903414"/>
</g>
<g id="item_4">
<path d="M0,0 L10,0 L10,11 L0,11 z" fill="#7A7A7A" fill-opacity="0.5" fill-rule="nonzero" stroke="black" stroke-width="0.20903414"/>
</g>
<g id="item_5">
<path d="M2,20 L0,18 L2,10 L0,2 L2,0 L4,10 z" fill="#7A7A7A" fill-opacity="0.5" fill-rule="nonzero" stroke="black" stroke-width="0.20903414"/>
</g>
<g id="item_6">
<path d="M0,0 L29,0 L27,12 L29,22 L25,26 L25,33 L18,37 L16,35 L14,35 L12,37 L4,34 L4,26 L0,22 L2,12 z" fill="#7A7A7A" fill-opacity="0.5" fill-rule="nonzero" stroke="black" stroke-width="0.20903414"/>
</g>
<g id="item_7">
<path d="M0,0 L33,0 L37,6 L35,13 L28,13 L25,15 L14,13 L0,15 z" fill="#7A7A7A" fill-opacity="0.5" fill-rule="nonzero" stroke="black" stroke-width="0.20903414"/>
</g>
</defs>
<use transform="translate(76.011795 33.5912), rotate(90)" xlink:href="#item_6">
<title>item, id: 6, transf: [r: 90.000°, t: (76.012, 33.591)]</title>
</use>
<use transform="translate(39.012093 90.791855), rotate(-90)" xlink:href="#item_6">
<title>item, id: 6, transf: [r: -90.000°, t: (39.012, 90.792)]</title>
</use>
<use transform="translate(21.14622 54.97632), rotate(-90)" xlink:href="#item_2">
<title>item, id: 2, transf: [r: -90.000°, t: (21.146, 54.976)]</title>
</use>
<use transform="translate(54.993683 0.013219833), rotate(90)" xlink:href="#item_2">
<title>item, id: 2, transf: [r: 90.000°, t: (54.994, 0.013)]</title>
</use>
<use transform="translate(76.00967 103.99639), rotate(-180)" xlink:href="#item_7">
<title>item, id: 7, transf: [r: -180.000°, t: (76.010, 103.996)]</title>
</use>
<use transform="translate(39.011925 74.99272), rotate(-180)" xlink:href="#item_7">
<title>item, id: 7, transf: [r: -180.000°, t: (39.012, 74.993)]</title>
</use>
<use transform="translate(55.01201 0.0015172958), rotate(0)" xlink:href="#item_0">
<title>item, id: 0, transf: [r: 0.000°, t: (55.012, 0.002)]</title>
</use>
<use transform="translate(0.14526463 21.003746), rotate(0)" xlink:href="#item_0">
<title>item, id: 0, transf: [r: 0.000°, t: (0.145, 21.004)]</title>
</use>
<use transform="translate(11.064627 21.002022), rotate(-90)" xlink:href="#item_0">
<title>item, id: 0, transf: [r: -90.000°, t: (11.065, 21.002)]</title>
</use>
<use transform="translate(28.000988 74.99283), rotate(90)" xlink:href="#item_0">
<title>item, id: 0, transf: [r: 90.000°, t: (28.001, 74.993)]</title>
</use>
<use transform="translate(0.008172989 99.99888), rotate(-90)" xlink:href="#item_3">
<title>item, id: 3, transf: [r: -90.000°, t: (0.008, 99.999)]</title>
</use>
<use transform="translate(0.65112686 103.99957), rotate(-90)" xlink:href="#item_3">
<title>item, id: 3, transf: [r: -90.000°, t: (0.651, 104.000)]</title>
</use>
<use transform="translate(0.0010843277 47.86212), rotate(0)" xlink:href="#item_1">
<title>item, id: 1, transf: [r: 0.000°, t: (0.001, 47.862)]</title>
</use>
<use transform="translate(20.847305 55.00547), rotate(0)" xlink:href="#item_1">
<title>item, id: 1, transf: [r: 0.000°, t: (20.847, 55.005)]</title>
</use>
<use transform="translate(0.003047943 54.537827), rotate(0)" xlink:href="#item_1">
<title>item, id: 1, transf: [r: 0.000°, t: (0.003, 54.538)]</title>
</use>
<use transform="translate(54.995033 26.89104), rotate(0)" xlink:href="#item_1">
<title>item, id: 1, transf: [r: 0.000°, t: (54.995, 26.891)]</title>
</use>
<use transform="translate(11.000359 0.018268108), rotate(90)" xlink:href="#item_4">
<title>item, id: 4, transf: [r: 90.000°, t: (11.000, 0.018)]</title>
</use>
<use transform="translate(39.00405 85.99598), rotate(90)" xlink:href="#item_4">
<title>item, id: 4, transf: [r: 90.000°, t: (39.004, 85.996)]</title>
</use>
<use transform="translate(11.000598 10.9289875), rotate(90)" xlink:href="#item_4">
<title>item, id: 4, transf: [r: 90.000°, t: (11.001, 10.929)]</title>
</use>
<use transform="translate(28.06879 74.99385), rotate(0)" xlink:href="#item_4">
<title>item, id: 4, transf: [r: 0.000°, t: (28.069, 74.994)]</title>
</use>
<use transform="translate(40.207912 52.37646), rotate(-180)" xlink:href="#item_5">
<title>item, id: 5, transf: [r: -180.000°, t: (40.208, 52.376)]</title>
</use>
<use transform="translate(4.000112 79.03859), rotate(-180)" xlink:href="#item_5">
<title>item, id: 5, transf: [r: -180.000°, t: (4.000, 79.039)]</title>
</use>
<use transform="translate(75.593544 31.326317), rotate(90)" xlink:href="#item_5">
<title>item, id: 5, transf: [r: 90.000°, t: (75.594, 31.326)]</title>
</use>
<use transform="translate(20.503063 52.23774), rotate(90)" xlink:href="#item_5">
<title>item, id: 5, transf: [r: 90.000°, t: (20.503, 52.238)]</title>
</use>
</g>
<g id="quality_zones"/>
<g id="optionals">
<g id="overlap_lines" transform="translate(0 0), rotate(0)"/>
</g>
<text font-family="monospace" font-size="1.9003104" font-weight="500" x="0" y="-0.9501552">
height: 104.000 | width: 76.012 | usage: 91.002% | final_bench_33
</text>
</svg>