<svg viewBox="-3.80982 -5.2000012 83.816025 114.40001" xmlns="http://www.w3.org/2000/svg" xmlns:xlink="http://www.w3.org/1999/xlink">
<g id="bin_0">
<path d="M0,0 L76.19638,0 L76.19638,104 L0,104 z" fill="#D3D3D3" stroke="black" stroke-width="0.41908014"/>
<title>bin, id: 0, bbox: [x_min: 0.000, y_min: 0.000, x_max: 76.196, y_max: 104.000]</title>
</g>
<g id="items">
<defs>
<g id="item_0">
<path d="M0,0 L21,0 L21,22 L14,28 L7,28 L0,22 z" fill="#7A7A7A" fill-opacity="0.5" fill-rule="nonzero" stroke="black" stroke-width="0.20954007"/>
</g>
<g id="item_1">
<path d="M0,5 L2,0 L11,2 L19,0 L21,5 L17,4 L11,6 L4,4 z" fill="#7A7A7A" fill-opacity="0.5" fill-rule="nonzero" stroke="black" stroke-width="0.20954007"/>
</g>
<g id="item_2">
<path d="M0,0 L33,0 L33,14 L30,14 L26,17 L13,15 L0,17 z" fill="#7A7A7A" fill-opacity="0.5" fill-rule="nonzero" stroke="black" stroke-width="0.20954007"/>
</g>
<g id="item_3">
<path d="M0,0 L4,0 L4,39 L0,39 z" fill="#7A7A7A" fill-opacity="0.5" fill-rule="nonzero" stroke="black" stroke-width="0.20954007"/>
</g>
<g id="item_4">
<path d="M0,0 L10,0 L10,11 L0,11 z" fill="#7A7A7A" fill-opacity="0.5" fill-rule="nonzero" stroke="black" stroke-width="0.20954007"/>
</g>
<g id="item_5">
<path d="M2,20 L0,18 L2,10 L0,2 L2,0 L4,10 z" fill="#7A7A7A" fill-opacity="0.5" fill-rule="nonzero" stroke="black" stroke-width="0.20954007"/>
</g>
<g id="item_6">
<path d="M0,0 L29,0 L27,12 L29,22 L25,26 L25,33 L18,37 L16,35 L14,35 L12,37 L4,34 L4,26 L0,22 L2,12 z" fill="#7A7A7A" fill-opacity="0.5" fill-rule="nonzero" stroke="black" stroke-width="0.20954007"/>
</g>
<g id="item_7">
<path d="M0,0 L33,0 L37,6 L35,13 L28,13 L25,15 L14,13 L0,15 z" fill="#7A7A7A" fill-opacity="0.5" fill-rule="nonzero" stroke="black" stroke-width="0.20954007"/>
</g>
</defs>
<use transform="translate(47.194565 0.00013160706), rotate(0)" xlink:href="#item_6">
<title>item, id: 6, transf: [r: 0.000°, t: (47.195, 0.000)]</title>
</use>
<use transform="translate(56.673088 82.97618), rotate(-180)" xlink:href="#item_6">
<title>item, id: 6, transf: [r: -180.000°, t: (56.673, 82.976)]</title>
</use>
<use transform="translate(28.192072 33.001396), rotate(-90)" xlink:href="#item_2">
<title>item, id: 2, transf: [r: -90.000°, t: (28.192, 33.001)]</title>
</use>
<use transform="translate(72.1947 48.016945), rotate(90)" xlink:href="#item_2">
<title>item, id: 2, transf: [r: 90.000°, t: (72.195, 48.017)]</title>
</use>
<use transform="translate(0.00019359589 37.663788), rotate(-90)" xlink:href="#item_7">
<title>item, id: 7, transf: [r: -90.000°, t: (0.000, 37.664)]</title>
</use>
<use transform="translate(28.191893 0.00015640259), rotate(90)" xlink:href="#item_7">
<title>item, id: 7, transf: [r: 90.000°, t: (28.192, 0.000)]</title>
</use>
<use transform="translate(0.00042152405 61.99284), rotate(-90)" xlink:href="#item_0">
<title>item, id: 0, transf: [r: -90.000°, t: (0.000, 61.993)]</title>
</use>
<use transform="translate(0.07224083 82.993675), rotate(-90)" xlink:href="#item_0">
<title>item, id: 0, transf: [r: -90.000°, t: (0.072, 82.994)]</title>
</use>
<use transform="translate(72.19449 82.99591), rotate(90)" xlink:href="#item_0">
<title>item, id: 0, transf: [r: 90.000°, t: (72.194, 82.996)]</title>
</use>
<use transform="translate(28.04026 82.998276), rotate(90)" xlink:href="#item_0">
<title>item, id: 0, transf: [r: 90.000°, t: (28.040, 82.998)]</title>
</use>
<use transform="translate(76.19486 103.998886), rotate(-180)" xlink:href="#item_3">
<title>item, id: 3, transf: [r: -180.000°, t: (76.195, 103.999)]</title>
</use>
<use transform="translate(72.19633 25.998589), rotate(0)" xlink:href="#item_3">
<title>item, id: 3, transf: [r: 0.000°, t: (72.196, 25.999)]</title>
</use>
<use transform="translate(45.305073 82.987785), rotate(90)" xlink:href="#item_1">
<title>item, id: 1, transf: [r: 90.000°, t: (45.305, 82.988)]</title>
</use>
<use transform="translate(46.184643 48.013348), rotate(-90)" xlink:href="#item_1">
<title>item, id: 1, transf: [r: -90.000°, t: (46.185, 48.013)]</title>
</use>
<use transform="translate(47.466125 39.15408), rotate(-180)" xlink:href="#item_1">
<title>item, id: 1, transf: [r: -180.000°, t: (47.466, 39.154)]</title>
</use>
<use transform="translate(45.920155 46.72895), rotate(-180)" xlink:href="#item_1">
<title>item, id: 1, transf: [r: -180.000°, t: (45.920, 46.729)]</title>
</use>
<use transform="translate(28.284847 103.950325), rotate(-90)" xlink:href="#item_4">
<title>item, id: 4, transf: [r: -90.000°, t: (28.285, 103.950)]</title>
</use>
<use transform="translate(72.190735 48.00055), rotate(-180)" xlink:href="#item_4">
<title>item, id: 4, transf: [r: -180.000°, t: (72.191, 48.001)]</title>
</use>
<use transform="translate(39.28402 82.97821), rotate(90)" xlink:href="#item_4">
<title>item, id: 4, transf: [r: 90.000°, t: (39.284, 82.978)]</title>
</use>
<use transform="translate(62.184772 48.01215), rotate(-180)" xlink:href="#item_4">
<title>item, id: 4, transf: [r: -180.000°, t: (62.185, 48.012)]</title>
</use>
<use transform="translate(45.19335 2.0011063), rotate(0)" xlink:href="#item_5">
<title>item, id: 5, transf: [r: 0.000°, t: (45.193, 2.001)]</title>
</use>
<use transform="translate(27.557842 41.8101), rotate(-90)" xlink:href="#item_5">
<title>item, id: 5, transf: [r: -90.000°, t: (27.558, 41.810)]</title>
</use>
<use transform="translate(8.375641 40.991653), rotate(-90)" xlink:href="#item_5">
<title>item, id: 5, transf: [r: -90.000°, t: (8.376, 40.992)]</title>
</use>
<use transform="translate(47.192993 30.00144), rotate(-180)" xlink:href="#item_5">
<title>item, id: 5, transf: [r: -180.000°, t: (47.193, 30.001)]</title>
</use>
</g>
<g id="quality_zones"/>
<g id="optionals">
<g id="overlap_lines" transform="translate(0 0), rotate(0)"/>
</g>
<text font-family="monospace" font-size="1.9049095" font-weight="500" x="0" y="-0.95245475">
height: 104.000 | width: 76.196 | usage: 90.783% | final_bench_45
</text>
</svg>