<svg viewBox="-3.812201 -5.2000012 83.86841 114.40001" xmlns="http://www.w3.org/2000/svg" xmlns:xlink="http://www.w3.org/1999/xlink">
<g id="bin_0">
<path d="M0,0 L76.244,0 L76.244,104 L0,104 z" fill="#D3D3D3" stroke="black" stroke-width="0.41934207"/>
<title>bin, id: 0, bbox: [x_min: 0.000, y_min: 0.000, x_max: 76.244, y_max: 104.000]</title>
</g>
<g id="items">
<defs>
<g id="item_0">
<path d="M0,0 L21,0 L21,22 L14,28 L7,28 L0,22 z" fill="#7A7A7A" fill-opacity="0.5" fill-rule="nonzero" stroke="black" stroke-width="0.20967104"/>
</g>
<g id="item_1">
<path d="M0,5 L2,0 L11,2 L19,0 L21,5 L17,4 L11,6 L4,4 z" fill="#7A7A7A" fill-opacity="0.5" fill-rule="nonzero" stroke="black" stroke-width="0.20967104"/>
</g>
<g id="item_2">
<path d="M0,0 L33,0 L33,14 L30,14 L26,17 L13,15 L0,17 z" fill="#7A7A7A" fill-opacity="0.5" fill-rule="nonzero" stroke="black" stroke-width="0.20967104"/>
</g>
<g id="item_3">
<path d="M0,0 L4,0 L4,39 L0,39 z" fill="#7A7A7A" fill-opacity="0.5" fill-rule="nonzero" stroke="black" stroke-width="0.20967104"/>
</g>
<g id="item_4">
<path d="M0,0 L10,0 L10,11 L0,11 z" fill="#7A7A7A" fill-opacity="0.5" fill-rule="nonzero" stroke="black" stroke-width="0.20967104"/>
</g>
<g id="item_5">
<path d="M2,20 L0,18 L2,10 L0,2 L2,0 L4,10 z" fill="#7A7A7A" fill-opacity="0.5" fill-rule="nonzero" stroke="black" stroke-width="0.20967104"/>
</g>
<g id="item_6">
<path d="M0,0 L29,0 L27,12 L29,22 L25,26 L25,33 L18,37 L16,35 L14,35 L12,37 L4,34 L4,26 L0,22 L2,12 z" fill="#7A7A7A" fill-opacity="0.5" fill-rule="nonzero" stroke="black" stroke-width="0.20967104"/>
</g>
<g id="item_7">
<path d="M0,0 L33,0 L37,6 L35,13 L28,13 L25,15 L14,13 L0,15 z" fill="#7A7A7A" fill-opacity="0.5" fill-rule="nonzero" stroke="black" stroke-width="0.20967104"/>
</g>
</defs>
<use transform="translate(0.00004005432 45.912247), rotate(-90)" xlink:href="#item_6">
<title>item, id: 6, transf: [r: -90.000°, t: (0.000, 45.912)]</title>
</use>
<use transform="translate(0.011728287 103.99808), rotate(-90)" xlink:href="#item_6">
<title>item, id: 6, transf: [r: -90.000°, t: (0.012, 103.998)]</title>
</use>
<use transform="translate(42.009285 78.99816), rotate(-90)" xlink:href="#item_2">
<title>item, id: 2, transf: [r: -90.000°, t: (42.009, 78.998)]</title>
</use>
<use transform="translate(0.5338669 0.0005812645), rotate(0)" xlink:href="#item_2">
<title>item, id: 2, transf: [r: 0.000°, t: (0.534, 0.001)]</title>
</use>
<use transform="translate(76.2438 46.991432), rotate(90)" xlink:href="#item_7">
<title>item, id: 7, transf: [r: 90.000°, t: (76.244, 46.991)]</title>
</use>
<use transform="translate(76.20926 0.0026931763), rotate(90)" xlink:href="#item_7">
<title>item, id: 7, transf: [r: 90.000°, t: (76.209, 0.003)]</title>
</use>
<use transform="translate(21.005278 50.99789), rotate(0)" xlink:href="#item_0">
<title>item, id: 0, transf: [r: 0.000°, t: (21.005, 50.998)]</title>
</use>
<use transform="translate(21.00006 72.85963), rotate(-180)" xlink:href="#item_0">
<title>item, id: 0, transf: [r: -180.000°, t: (21.000, 72.860)]</title>
</use>
<use transform="translate(33.535908 21.000183), rotate(-90)" xlink:href="#item_0">
<title>item, id: 0, transf: [r: -90.000°, t: (33.536, 21.000)]</title>
</use>
<use transform="translate(37.02763 99.998215), rotate(-90)" xlink:href="#item_0">
<title>item, id: 0, transf: [r: -90.000°, t: (37.028, 99.998)]</title>
</use>
<use transform="translate(65.11346 99.999016), rotate(90)" xlink:href="#item_3">
<title>item, id: 3, transf: [r: 90.000°, t: (65.113, 99.999)]</title>
</use>
<use transform="translate(37.241318 45.996677), rotate(-90)" xlink:href="#item_3">
<title>item, id: 3, transf: [r: -90.000°, t: (37.241, 45.997)]</title>
</use>
<use transform="translate(55.2437 35.99613), rotate(0)" xlink:href="#item_1">
<title>item, id: 1, transf: [r: 0.000°, t: (55.244, 35.996)]</title>
</use>
<use transform="translate(40.080833 50.997395), rotate(-180)" xlink:href="#item_1">
<title>item, id: 1, transf: [r: -180.000°, t: (40.081, 50.997)]</title>
</use>
<use transform="translate(56.843826 41.995506), rotate(-180)" xlink:href="#item_1">
<title>item, id: 1, transf: [r: -180.000°, t: (56.844, 41.996)]</title>
</use>
<use transform="translate(57.38515 37.358974), rotate(-180)" xlink:href="#item_1">
<title>item, id: 1, transf: [r: -180.000°, t: (57.385, 37.359)]</title>
</use>
<use transform="translate(65.13076 103.999916), rotate(-90)" xlink:href="#item_4">
<title>item, id: 4, transf: [r: -90.000°, t: (65.131, 104.000)]</title>
</use>
<use transform="translate(65.23618 93.9994), rotate(-90)" xlink:href="#item_4">
<title>item, id: 4, transf: [r: -90.000°, t: (65.236, 93.999)]</title>
</use>
<use transform="translate(58.645016 32.002), rotate(-180)" xlink:href="#item_4">
<title>item, id: 4, transf: [r: -180.000°, t: (58.645, 32.002)]</title>
</use>
<use transform="translate(48.004997 21.00403), rotate(90)" xlink:href="#item_4">
<title>item, id: 4, transf: [r: 90.000°, t: (48.005, 21.004)]</title>
</use>
<use transform="translate(62.885403 80.562325), rotate(-180)" xlink:href="#item_5">
<title>item, id: 5, transf: [r: -180.000°, t: (62.885, 80.562)]</title>
</use>
<use transform="translate(22.696087 72.8612), rotate(90)" xlink:href="#item_5">
<title>item, id: 5, transf: [r: 90.000°, t: (22.696, 72.861)]</title>
</use>
<use transform="translate(57.76024 45.99676), rotate(0)" xlink:href="#item_5">
<title>item, id: 5, transf: [r: 0.000°, t: (57.760, 45.997)]</title>
</use>
<use transform="translate(62.6568 35.030243), rotate(-180)" xlink:href="#item_5">
<title>item, id: 5, transf: [r: -180.000°, t: (62.657, 35.030)]</title>
</use>
</g>
<g id="quality_zones"/>
<g id="optionals">
<g id="overlap_lines" transform="translate(0 0), rotate(0)"/>
</g>
<text font-family="monospace" font-size="1.9061002" font-weight="500" x="0" y="-0.9530501">
height: 104.000 | width: 76.244 | usage: 90.726% | final_bench_38
</text>
</svg>