<svg viewBox="-3.817082 -5.2000012 83.97579 114.40001" xmlns="http://www.w3.org/2000/svg" xmlns:xlink="http://www.w3.org/1999/xlink">
<g id="bin_0">
<path d="M0,0 L76.34162,0 L76.34162,104 L0,104 z" fill="#D3D3D3" stroke="black" stroke-width="0.419879"/>
<title>bin, id: 0, bbox: [x_min: 0.000, y_min: 0.000, x_max: 76.342, y_max: 104.000]</title>
</g>
<g id="items">
<defs>
<g id="item_0">
<path d="M0,0 L21,0 L21,22 L14,28 L7,28 L0,22 z" fill="#7A7A7A" fill-opacity="0.5" fill-rule="nonzero" stroke="black" stroke-width="0.2099395"/>
</g>
<g id="item_1">
<path d="M0,5 L2,0 L11,2 L19,0 L21,5 L17,4 L11,6 L4,4 z" fill="#7A7A7A" fill-opacity="0.5" fill-rule="nonzero" stroke="black" stroke-width="0.2099395"/>
</g>
<g id="item_2">
<path d="M0,0 L33,0 L33,14 L30,14 L26,17 L13,15 L0,17 z" fill="#7A7A7A" fill-opacity="0.5" fill-rule="nonzero" stroke="black" stroke-width="0.2099395"/>
</g>
<g id="item_3">
<path d="M0,0 L4,0 L4,39 L0,39 z" fill="#7A7A7A" fill-opacity="0.5" fill-rule="nonzero" stroke="black" stroke-width="0.2099395"/>
</g>
<g id="item_4">
<path d="M0,0 L10,0 L10,11 L0,11 z" fill="#7A7A7A" fill-opacity="0.5" fill-rule="nonzero" stroke="black" stroke-width="0.2099395"/>
</g>
<g id="item_5">
<path d="M2,20 L0,18 L2,10 L0,2 L2,0 L4,10 z" fill="#7A7A7A" fill-opacity="0.5" fill-rule="nonzero" stroke="black" stroke-width="0.2099395"/>
</g>
<g id="item_6">
<path d="M0,0 L29,0 L27,12 L29,22 L25,26 L25,33 L18,37 L16,35 L14,35 L12,37 L4,34 L4,26 L0,22 L2,12 z" fill="#7A7A7A" fill-opacity="0.5" fill-rule="nonzero" stroke="black" stroke-width="0.2099395"/>
</g>
<g id="item_7">
<path d="M0,0 L33,0 L37,6 L35,13 L28,13 L25,15 L14,13 L0,15 z" fill="#7A7A7A" fill-opacity="0.5" fill-rule="nonzero" stroke="black" stroke-width="0.2099395"/>
</g>
</defs>
<use transform="translate(76.33171 39.991104), rotate(90)" xlink:href="#item_6">
<title>item, id: 6, transf: [r: 90.000°, t: (76.332, 39.991)]</title>
</use>
<use transform="translate(13.161586 21.002552), rotate(0)" xlink:href="#item_6">
<title>item, id: 6, transf: [r: 0.000°, t: (13.162, 21.003)]</title>
</use>
<use transform="translate(72.338936 0.0008277893), rotate(90)" xlink:href="#item_2">
<title>item, id: 2, transf: [r: 90.000°, t: (72.339, 0.001)]</title>
</use>
<use transform="translate(76.34079 70.99994), rotate(90)" xlink:href="#item_2">
<title>item, id: 2, transf: [r: 90.000°, t: (76.341, 71.000)]</title>
</use>
<use transform="translate(0.038021088 62.00756), rotate(0)" xlink:href="#item_7">
<title>item, id: 7, transf: [r: 0.000°, t: (0.038, 62.008)]</title>
</use>
<use transform="translate(0.0012412071 57.88389), rotate(-90)" xlink:href="#item_7">
<title>item, id: 7, transf: [r: -90.000°, t: (0.001, 57.884)]</title>
</use>
<use transform="translate(21.101719 103.99958), rotate(-180)" xlink:href="#item_0">
<title>item, id: 0, transf: [r: -180.000°, t: (21.102, 104.000)]</title>
</use>
<use transform="translate(28.412777 21.00009), rotate(-90)" xlink:href="#item_0">
<title>item, id: 0, transf: [r: -90.000°, t: (28.413, 21.000)]</title>
</use>
<use transform="translate(28.411827 0.00029563904), rotate(90)" xlink:href="#item_0">
<title>item, id: 0, transf: [r: 90.000°, t: (28.412, 0.000)]</title>
</use>
<use transform="translate(42.10234 103.97647), rotate(-180)" xlink:href="#item_0">
<title>item, id: 0, transf: [r: -180.000°, t: (42.102, 103.976)]</title>
</use>
<use transform="translate(0.20228004 62.002644), rotate(-90)" xlink:href="#item_3">
<title>item, id: 3, transf: [r: -90.000°, t: (0.202, 62.003)]</title>
</use>
<use transform="translate(72.34145 0.00019645691), rotate(0)" xlink:href="#item_3">
<title>item, id: 3, transf: [r: 0.000°, t: (72.341, 0.000)]</title>
</use>
<use transform="translate(57.19716 69.33118), rotate(90)" xlink:href="#item_1">
<title>item, id: 1, transf: [r: 90.000°, t: (57.197, 69.331)]</title>
</use>
<use transform="translate(51.962257 35.552406), rotate(0)" xlink:href="#item_1">
<title>item, id: 1, transf: [r: 0.000°, t: (51.962, 35.552)]</title>
</use>
<use transform="translate(42.104763 97.89945), rotate(-90)" xlink:href="#item_1">
<title>item, id: 1, transf: [r: -90.000°, t: (42.105, 97.899)]</title>
</use>
<use transform="translate(52.643288 69.54341), rotate(90)" xlink:href="#item_1">
<title>item, id: 1, transf: [r: 90.000°, t: (52.643, 69.543)]</title>
</use>
<use transform="translate(51.96178 42.003326), rotate(-180)" xlink:href="#item_4">
<title>item, id: 4, transf: [r: -180.000°, t: (51.962, 42.003)]</title>
</use>
<use transform="translate(37.581608 65.895775), rotate(0)" xlink:href="#item_4">
<title>item, id: 4, transf: [r: 0.000°, t: (37.582, 65.896)]</title>
</use>
<use transform="translate(44.336395 31.00197), rotate(-90)" xlink:href="#item_4">
<title>item, id: 4, transf: [r: -90.000°, t: (44.336, 31.002)]</title>
</use>
<use transform="translate(58.10976 90.553505), rotate(90)" xlink:href="#item_4">
<title>item, id: 4, transf: [r: 90.000°, t: (58.110, 90.554)]</title>
</use>
<use transform="translate(72.34123 33.002087), rotate(90)" xlink:href="#item_5">
<title>item, id: 5, transf: [r: 90.000°, t: (72.341, 33.002)]</title>
</use>
<use transform="translate(54.36522 70.99834), rotate(-90)" xlink:href="#item_5">
<title>item, id: 5, transf: [r: -90.000°, t: (54.365, 70.998)]</title>
</use>
<use transform="translate(62.329754 99.99973), rotate(90)" xlink:href="#item_5">
<title>item, id: 5, transf: [r: 90.000°, t: (62.330, 100.000)]</title>
</use>
<use transform="translate(56.937008 71.37749), rotate(0)" xlink:href="#item_5">
<title>item, id: 5, transf: [r: 0.000°, t: (56.937, 71.377)]</title>
</use>
</g>
<g id="quality_zones"/>
<g id="optionals">
<g id="overlap_lines" transform="translate(0 0), rotate(0)"/>
</g>
<text font-family="monospace" font-size="1.9085406" font-weight="500" x="0" y="-0.9542703">
height: 104.000 | width: 76.342 | usage: 90.610% | final_bench_81
</text>
</svg>