<svg viewBox="-3.800048 -5.2000012 83.60104 114.40001" xmlns="http://www.w3.org/2000/svg" xmlns:xlink="http://www.w3.org/1999/xlink">
<g id="bin_0">
<path d="M0,0 L76.000946,0 L76.000946,104 L0,104 z" fill="#D3D3D3" stroke="black" stroke-width="0.41800526"/>
<title>bin, id: 0, bbox: [x_min: 0.000, y_min: 0.000, x_max: 76.001, y_max: 104.000]</title>
</g>
<g id="items">
<defs>
<g id="item_0">
<path d="M0,0 L21,0 L21,22 L14,28 L7,28 L0,22 z" fill="#7A7A7A" fill-opacity="0.5" fill-rule="nonzero" stroke="black" stroke-width="0.20900263"/>
</g>
<g id="item_1">
<path d="M0,5 L2,0 L11,2 L19,0 L21,5 L17,4 L11,6 L4,4 z" fill="#7A7A7A" fill-opacity="0.5" fill-rule="nonzero" stroke="black" stroke-width="0.20900263"/>
</g>
<g id="item_2">
<path d="M0,0 L33,0 L33,14 L30,14 L26,17 L13,15 L0,17 z" fill="#7A7A7A" fill-opacity="0.5" fill-rule="nonzero" stroke="black" stroke-width="0.20900263"/>
</g>
<g id="item_3">
<path d="M0,0 L4,0 L4,39 L0,39 z" fill="#7A7A7A" fill-opacity="0.5" fill-rule="nonzero" stroke="black" stroke-width="0.20900263"/>
</g>
<g id="item_4">
<path d="M0,0 L10,0 L10,11 L0,11 z" fill="#7A7A7A" fill-opacity="0.5" fill-rule="nonzero" stroke="black" stroke-width="0.20900263"/>
</g>
<g id="item_5">
<path d="M2,20 L0,18 L2,10 L0,2 L2,0 L4,10 z" fill="#7A7A7A" fill-opacity="0.5" fill-rule="nonzero" stroke="black" stroke-width="0.20900263"/>
</g>
<g id="item_6">
<path d="M0,0 L29,0 L27,12 L29,22 L25,26 L25,33 L18,37 L16,35 L14,35 L12,37 L4,34 L4,26 L0,22 L2,12 z" fill="#7A7A7A" fill-opacity="0.5" fill-rule="nonzero" stroke="black" stroke-width="0.20900263"/>
</g>
<g id="item_7">
<path d="M0,0 L33,0 L37,6 L35,13 L28,13 L25,15 L14,13 L0,15 z" fill="#7A7A7A" fill-opacity="0.5" fill-rule="nonzero" stroke="black" stroke-width="0.20900263"/>
</g>
</defs>
<use transform="translate(75.92163 13.284145), rotate(90)" xlink:href="#item_6">
<title>item, id: 6, transf: [r: 90.000°, t: (75.922, 13.284)]</title>
</use>
<use transform="translate(19.038162 65.69231), rotate(-90)" xlink:href="#item_6">
<title>item, id: 6, transf: [r: -90.000°, t: (19.038, 65.692)]</title>
</use>
<use transform="translate(22.00067 86.950035), rotate(0)" xlink:href="#item_2">
<title>item, id: 2, transf: [r: 0.000°, t: (22.001, 86.950)]</title>
</use>
<use transform="translate(76.00068 42.321968), rotate(90)" xlink:href="#item_2">
<title>item, id: 2, transf: [r: 90.000°, t: (76.001, 42.322)]</title>
</use>
<use transform="translate(4.004038 65.931366), rotate(-90)" xlink:href="#item_7">
<title>item, id: 7, transf: [r: -90.000°, t: (4.004, 65.931)]</title>
</use>
<use transform="translate(39.00068 0.002699852), rotate(0)" xlink:href="#item_7">
<title>item, id: 7, transf: [r: 0.000°, t: (39.001, 0.003)]</title>
</use>
<use transform="translate(21.61445 93.976135), rotate(-180)" xlink:href="#item_0">
<title>item, id: 0, transf: [r: -180.000°, t: (21.614, 93.976)]</title>
</use>
<use transform="translate(21.6152 86.69724), rotate(-90)" xlink:href="#item_0">
<title>item, id: 0, transf: [r: -90.000°, t: (21.615, 86.697)]</title>
</use>
<use transform="translate(39.000656 4.0638666), rotate(90)" xlink:href="#item_0">
<title>item, id: 0, transf: [r: 90.000°, t: (39.001, 4.064)]</title>
</use>
<use transform="translate(76.00091 103.99839), rotate(-180)" xlink:href="#item_0">
<title>item, id: 0, transf: [r: -180.000°, t: (76.001, 103.998)]</title>
</use>
<use transform="translate(4.0000315 69.07382), rotate(-180)" xlink:href="#item_3">
<title>item, id: 3, transf: [r: -180.000°, t: (4.000, 69.074)]</title>
</use>
<use transform="translate(0.0005168915 4.0000653), rotate(-90)" xlink:href="#item_3">
<title>item, id: 3, transf: [r: -90.000°, t: (0.001, 4.000)]</title>
</use>
<use transform="translate(19.440285 30.088303), rotate(0)" xlink:href="#item_1">
<title>item, id: 1, transf: [r: 0.000°, t: (19.440, 30.088)]</title>
</use>
<use transform="translate(21.493933 30.07338), rotate(-180)" xlink:href="#item_1">
<title>item, id: 1, transf: [r: -180.000°, t: (21.494, 30.073)]</title>
</use>
<use transform="translate(58.86735 59.68422), rotate(90)" xlink:href="#item_1">
<title>item, id: 1, transf: [r: 90.000°, t: (58.867, 59.684)]</title>
</use>
<use transform="translate(48.49519 86.73891), rotate(-90)" xlink:href="#item_1">
<title>item, id: 1, transf: [r: -90.000°, t: (48.495, 86.739)]</title>
</use>
<use transform="translate(0.00007390976 14.05118), rotate(-90)" xlink:href="#item_4">
<title>item, id: 4, transf: [r: -90.000°, t: (0.000, 14.051)]</title>
</use>
<use transform="translate(22.000559 93.990944), rotate(90)" xlink:href="#item_4">
<title>item, id: 4, transf: [r: 90.000°, t: (22.001, 93.991)]</title>
</use>
<use transform="translate(0.0001783371 24.072397), rotate(-90)" xlink:href="#item_4">
<title>item, id: 4, transf: [r: -90.000°, t: (0.000, 24.072)]</title>
</use>
<use transform="translate(11.00039 93.999695), rotate(90)" xlink:href="#item_4">
<title>item, id: 4, transf: [r: 90.000°, t: (11.000, 94.000)]</title>
</use>
<use transform="translate(40.711548 27.492819), rotate(90)" xlink:href="#item_5">
<title>item, id: 5, transf: [r: 90.000°, t: (40.712, 27.493)]</title>
</use>
<use transform="translate(40.42903 34.586746), rotate(90)" xlink:href="#item_5">
<title>item, id: 5, transf: [r: 90.000°, t: (40.429, 34.587)]</title>
</use>
<use transform="translate(56.40634 41.4884), rotate(0)" xlink:href="#item_5">
<title>item, id: 5, transf: [r: 0.000°, t: (56.406, 41.488)]</title>
</use>
<use transform="translate(40.698334 25.065746), rotate(90)" xlink:href="#item_5">
<title>item, id: 5, transf: [r: 90.000°, t: (40.698, 25.066)]</title>
</use>
</g>
<g id="quality_zones"/>
<g id="optionals">
<g id="overlap_lines" transform="translate(0 0), rotate(0)"/>
</g>
<text font-family="monospace" font-size="1.9000237" font-weight="500" x="0" y="-0.95001185">
height: 104.000 | width: 76.001 | usage: 91.016% | final_bench_84
</text>
</svg>