<svg viewBox="-3.8166242 -5.2000012 83.96572 114.40001" xmlns="http://www.w3.org/2000/svg" xmlns:xlink="http://www.w3.org/1999/xlink">
<g id="bin_0">
<path d="M0,0 L76.332466,0 L76.332466,104 L0,104 z" fill="#D3D3D3" stroke="black" stroke-width="0.41982862"/>
<title>bin, id: 0, bbox: [x_min: 0.000, y_min: 0.000, x_max: 76.332, y_max: 104.000]</title>
</g>
<g id="items">
<defs>
<g id="item_0">
<path d="M0,0 L21,0 L21,22 L14,28 L7,28 L0,22 z" fill="#7A7A7A" fill-opacity="0.5" fill-rule="nonzero" stroke="black" stroke-width="0.20991431"/>
</g>
<g id="item_1">
<path d="M0,5 L2,0 L11,2 L19,0 L21,5 L17,4 L11,6 L4,4 z" fill="#7A7A7A" fill-opacity="0.5" fill-rule="nonzero" stroke="black" stroke-width="0.20991431"/>
</g>
<g id="item_2">
<path d="M0,0 L33,0 L33,14 L30,14 L26,17 L13,15 L0,17 z" fill="#7A7A7A" fill-opacity="0.5" fill-rule="nonzero" stroke="black" stroke-width="0.20991431"/>
</g>
<g id="item_3">
<path d="M0,0 L4,0 L4,39 L0,39 z" fill="#7A7A7A" fill-opacity="0.5" fill-rule="nonzero" stroke="black" stroke-width="0.20991431"/>
</g>
<g id="item_4">
<path d="M0,0 L10,0 L10,11 L0,11 z" fill="#7A7A7A" fill-opacity="0.5" fill-rule="nonzero" stroke="black" stroke-width="0.20991431"/>
</g>
<g id="item_5">
<path d="M2,20 L0,18 L2,10 L0,2 L2,0 L4,10 z" fill="#7A7A7A" fill-opacity="0.5" fill-rule="nonzero" stroke="black" stroke-width="0.20991431"/>
</g>
<g id="item_6">
<path d="M0,0 L29,0 L27,12 L29,22 L25,26 L25,33 L18,37 L16,35 L14,35 L12,37 L4,34 L4,26 L0,22 L2,12 z" fill="#7A7A7A" fill-opacity="0.5" fill-rule="nonzero" stroke="black" stroke-width="0.20991431"/>
</g>
<g id="item_7">
<path d="M0,0 L33,0 L37,6 L35,13 L28,13 L25,15 L14,13 L0,15 z" fill="#7A7A7A" fill-opacity="0.5" fill-rule="nonzero" stroke="black" stroke-width="0.20991431"/>
</g>
</defs>
<use transform="translate(0.00016975403 66.37778), rotate(-90)" xlink:href="#item_6">
<title>item, id: 6, transf: [r: -90.000°, t: (0.000, 66.378)]</title>
</use>
<use transform="translate(72.3315 53.958023), rotate(90)" xlink:href="#item_6">
<title>item, id: 6, transf: [r: 90.000°, t: (72.331, 53.958)]</title>
</use>
<use transform="translate(55.28552 32.884975), rotate(-180)" xlink:href="#item_2">
<title>item, id: 2, transf: [r: -180.000°, t: (55.286, 32.885)]</title>
</use>
<use transform="translate(22.007128 0.0025753975), rotate(0)" xlink:href="#item_2">
<title>item, id: 2, transf: [r: 0.000°, t: (22.007, 0.003)]</title>
</use>
<use transform="translate(21.094204 99.99942), rotate(-90)" xlink:href="#item_7">
<title>item, id: 7, transf: [r: -90.000°, t: (21.094, 99.999)]</title>
</use>
<use transform="translate(76.33029 103.99948), rotate(-180)" xlink:href="#item_7">
<title>item, id: 7, transf: [r: -180.000°, t: (76.330, 103.999)]</title>
</use>
<use transform="translate(0.97197056 10.700914), rotate(0)" xlink:href="#item_0">
<title>item, id: 0, transf: [r: 0.000°, t: (0.972, 10.701)]</title>
</use>
<use transform="translate(55.330627 0.0018749237), rotate(0)" xlink:href="#item_0">
<title>item, id: 0, transf: [r: 0.000°, t: (55.331, 0.002)]</title>
</use>
<use transform="translate(21.00024 99.99905), rotate(-180)" xlink:href="#item_0">
<title>item, id: 0, transf: [r: -180.000°, t: (21.000, 99.999)]</title>
</use>
<use transform="translate(47.0004 53.885437), rotate(-90)" xlink:href="#item_0">
<title>item, id: 0, transf: [r: -90.000°, t: (47.000, 53.885)]</title>
</use>
<use transform="translate(76.33219 88.99898), rotate(-180)" xlink:href="#item_3">
<title>item, id: 3, transf: [r: -180.000°, t: (76.332, 88.999)]</title>
</use>
<use transform="translate(0.037675858 103.99984), rotate(-90)" xlink:href="#item_3">
<title>item, id: 3, transf: [r: -90.000°, t: (0.038, 104.000)]</title>
</use>
<use transform="translate(69.63576 87.6458), rotate(-180)" xlink:href="#item_1">
<title>item, id: 1, transf: [r: -180.000°, t: (69.636, 87.646)]</title>
</use>
<use transform="translate(55.291916 26.882889), rotate(0)" xlink:href="#item_1">
<title>item, id: 1, transf: [r: 0.000°, t: (55.292, 26.883)]</title>
</use>
<use transform="translate(21.091412 73.12827), rotate(-180)" xlink:href="#item_1">
<title>item, id: 1, transf: [r: -180.000°, t: (21.091, 73.128)]</title>
</use>
<use transform="translate(25.664516 35.92473), rotate(0)" xlink:href="#item_1">
<title>item, id: 1, transf: [r: 0.000°, t: (25.665, 35.925)]</title>
</use>
<use transform="translate(48.348385 80.98316), rotate(90)" xlink:href="#item_4">
<title>item, id: 4, transf: [r: 90.000°, t: (48.348, 80.983)]</title>
</use>
<use transform="translate(11.005706 0.698843), rotate(90)" xlink:href="#item_4">
<title>item, id: 4, transf: [r: 90.000°, t: (11.006, 0.699)]</title>
</use>
<use transform="translate(37.000206 46.287895), rotate(0)" xlink:href="#item_4">
<title>item, id: 4, transf: [r: 0.000°, t: (37.000, 46.288)]</title>
</use>
<use transform="translate(11.006842 10.294603), rotate(-90)" xlink:href="#item_4">
<title>item, id: 4, transf: [r: -90.000°, t: (11.007, 10.295)]</title>
</use>
<use transform="translate(38.097366 95.98258), rotate(-180)" xlink:href="#item_5">
<title>item, id: 5, transf: [r: -180.000°, t: (38.097, 95.983)]</title>
</use>
<use transform="translate(19.51273 36.99939), rotate(-90)" xlink:href="#item_5">
<title>item, id: 5, transf: [r: -90.000°, t: (19.513, 36.999)]</title>
</use>
<use transform="translate(72.32779 86.98821), rotate(90)" xlink:href="#item_5">
<title>item, id: 5, transf: [r: 90.000°, t: (72.328, 86.988)]</title>
</use>
<use transform="translate(0.6011076 68.73941), rotate(-90)" xlink:href="#item_5">
<title>item, id: 5, transf: [r: -90.000°, t: (0.601, 68.739)]</title>
</use>
</g>
<g id="quality_zones"/>
<g id="optionals">
<g id="overlap_lines" transform="translate(0 0), rotate(0)"/>
</g>
<text font-family="monospace" font-size="1.9083117" font-weight="500" x="0" y="-0.95415586">
height: 104.000 | width: 76.332 | usage: 90.621% | final_bench_0
</text>
</svg>