<svg viewBox="-3.817518 -5.2000012 83.98538 114.40001" xmlns="http://www.w3.org/2000/svg" xmlns:xlink="http://www.w3.org/1999/xlink">
<g id="bin_0">
<path d="M0,0 L76.35034,0 L76.35034,104 L0,104 z" fill="#D3D3D3" stroke="black" stroke-width="0.41992694"/>
<title>bin, id: 0, bbox: [x_min: 0.000, y_min: 0.000, x_max: 76.350, y_max: 104.000]</title>
</g>
<g id="items">
<defs>
<g id="item_0">
<path d="M0,0 L21,0 L21,22 L14,28 L7,28 L0,22 z" fill="#7A7A7A" fill-opacity="0.5" fill-rule="nonzero" stroke="black" stroke-width="0.20996347"/>
</g>
<g id="item_1">
<path d="M0,5 L2,0 L11,2 L19,0 L21,5 L17,4 L11,6 L4,4 z" fill="#7A7A7A" fill-opacity="0.5" fill-rule="nonzero" stroke="black" stroke-width="0.20996347"/>
</g>
<g id="item_2">
<path d="M0,0 L33,0 L33,14 L30,14 L26,17 L13,15 L0,17 z" fill="#7A7A7A" fill-opacity="0.5" fill-rule="nonzero" stroke="black" stroke-width="0.20996347"/>
</g>
<g id="item_3">
<path d="M0,0 L4,0 L4,39 L0,39 z" fill="#7A7A7A" fill-opacity="0.5" fill-rule="nonzero" stroke="black" stroke-width="0.20996347"/>
</g>
<g id="item_4">
<path d="M0,0 L10,0 L10,11 L0,11 z" fill="#7A7A7A" fill-opacity="0.5" fill-rule="nonzero" stroke="black" stroke-width="0.20996347"/>
</g>
<g id="item_5">
<path d="M2,20 L0,18 L2,10 L0,2 L2,0 L4,10 z" fill="#7A7A7A" fill-opacity="0.5" fill-rule="nonzero" stroke="black" stroke-width="0.20996347"/>
</g>
<g id="item_6">
<path d="M0,0 L29,0 L27,12 L29,22 L25,26 L25,33 L18,37 L16,35 L14,35 L12,37 L4,34 L4,26 L0,22 L2,12 z" fill="#7A7A7A" fill-opacity="0.5" fill-rule="nonzero" stroke="black" stroke-width="0.20996347"/>
</g>
<g id="item_7">
<path d="M0,0 L33,0 L37,6 L35,13 L28,13 L25,15 L14,13 L0,15 z" fill="#7A7A7A" fill-opacity="0.5" fill-rule="nonzero" stroke="black" stroke-width="0.20996347"/>
</g>
</defs>
<use transform="translate(76.34966 63.072144), rotate(-180)" xlink:href="#item_6">
<title>item, id: 6, transf: [r: -180.000°, t: (76.350, 63.072)]</title>
</use>
<use transform="translate(13.088025 49.253845), rotate(0)" xlink:href="#item_6">
<title>item, id: 6, transf: [r: 0.000°, t: (13.088, 49.254)]</title>
</use>
<use transform="translate(76.34734 95.99882), rotate(-180)" xlink:href="#item_2">
<title>item, id: 2, transf: [r: -180.000°, t: (76.347, 95.999)]</title>
</use>
<use transform="translate(43.346764 63.073463), rotate(0)" xlink:href="#item_2">
<title>item, id: 2, transf: [r: 0.000°, t: (43.347, 63.073)]</title>
</use>
<use transform="translate(0.000019073486 85.7346), rotate(-90)" xlink:href="#item_7">
<title>item, id: 7, transf: [r: -90.000°, t: (0.000, 85.735)]</title>
</use>
<use transform="translate(37.277412 103.99798), rotate(-180)" xlink:href="#item_7">
<title>item, id: 7, transf: [r: -180.000°, t: (37.277, 103.998)]</title>
</use>
<use transform="translate(0.005097389 21.01065), rotate(0)" xlink:href="#item_0">
<title>item, id: 0, transf: [r: 0.000°, t: (0.005, 21.011)]</title>
</use>
<use transform="translate(21.006039 43.003876), rotate(-90)" xlink:href="#item_0">
<title>item, id: 0, transf: [r: -90.000°, t: (21.006, 43.004)]</title>
</use>
<use transform="translate(28.155207 0.007884979), rotate(90)" xlink:href="#item_0">
<title>item, id: 0, transf: [r: 90.000°, t: (28.155, 0.008)]</title>
</use>
<use transform="translate(48.350147 21.00074), rotate(-90)" xlink:href="#item_0">
<title>item, id: 0, transf: [r: -90.000°, t: (48.350, 21.001)]</title>
</use>
<use transform="translate(76.29046 99.99998), rotate(90)" xlink:href="#item_3">
<title>item, id: 3, transf: [r: 90.000°, t: (76.290, 100.000)]</title>
</use>
<use transform="translate(76.34863 95.99892), rotate(90)" xlink:href="#item_3">
<title>item, id: 3, transf: [r: 90.000°, t: (76.349, 95.999)]</title>
</use>
<use transform="translate(40.55703 49.253254), rotate(-180)" xlink:href="#item_1">
<title>item, id: 1, transf: [r: -180.000°, t: (40.557, 49.253)]</title>
</use>
<use transform="translate(43.34525 74.99841), rotate(90)" xlink:href="#item_1">
<title>item, id: 1, transf: [r: 90.000°, t: (43.345, 74.998)]</title>
</use>
<use transform="translate(73.33799 27.035404), rotate(-180)" xlink:href="#item_1">
<title>item, id: 1, transf: [r: -180.000°, t: (73.338, 27.035)]</title>
</use>
<use transform="translate(40.75143 62.906147), rotate(-90)" xlink:href="#item_1">
<title>item, id: 1, transf: [r: -90.000°, t: (40.751, 62.906)]</title>
</use>
<use transform="translate(28.342548 0.0022830963), rotate(0)" xlink:href="#item_4">
<title>item, id: 4, transf: [r: 0.000°, t: (28.343, 0.002)]</title>
</use>
<use transform="translate(38.34968 11.001745), rotate(0)" xlink:href="#item_4">
<title>item, id: 4, transf: [r: 0.000°, t: (38.350, 11.002)]</title>
</use>
<use transform="translate(48.34691 11.000168), rotate(-180)" xlink:href="#item_4">
<title>item, id: 4, transf: [r: -180.000°, t: (48.347, 11.000)]</title>
</use>
<use transform="translate(38.158012 22.002834), rotate(-180)" xlink:href="#item_4">
<title>item, id: 4, transf: [r: -180.000°, t: (38.158, 22.003)]</title>
</use>
<use transform="translate(45.12786 42.40087), rotate(0)" xlink:href="#item_5">
<title>item, id: 5, transf: [r: 0.000°, t: (45.128, 42.401)]</title>
</use>
<use transform="translate(0.5200939 90.10167), rotate(-90)" xlink:href="#item_5">
<title>item, id: 5, transf: [r: -90.000°, t: (0.520, 90.102)]</title>
</use>
<use transform="translate(76.32597 37.226192), rotate(-180)" xlink:href="#item_5">
<title>item, id: 5, transf: [r: -180.000°, t: (76.326, 37.226)]</title>
</use>
<use transform="translate(37.71239 85.09985), rotate(90)" xlink:href="#item_5">
<title>item, id: 5, transf: [r: 90.000°, t: (37.712, 85.100)]</title>
</use>
</g>
<g id="quality_zones"/>
<g id="optionals">
<g id="overlap_lines" transform="translate(0 0), rotate(0)"/>
</g>
<text font-family="monospace" font-size="1.9087585" font-weight="500" x="0" y="-0.95437926">
height: 104.000 | width: 76.350 | usage: 90.600% | final_bench_102
</text>
</svg>