<svg viewBox="-3.8251538 -5.2000012 84.15337 114.40001" xmlns="http://www.w3.org/2000/svg" xmlns:xlink="http://www.w3.org/1999/xlink">
<g id="bin_0">
<path d="M0,0 L76.50306,0 L76.50306,104 L0,104 z" fill="#D3D3D3" stroke="black" stroke-width="0.4207669"/>
<title>bin, id: 0, bbox: [x_min: 0.000, y_min: 0.000, x_max: 76.503, y_max: 104.000]</title>
</g>
<g id="items">
<defs>
<g id="item_0">
<path d="M0,0 L21,0 L21,22 L14,28 L7,28 L0,22 z" fill="#7A7A7A" fill-opacity="0.5" fill-rule="nonzero" stroke="black" stroke-width="0.21038345"/>
</g>
<g id="item_1">
<path d="M0,5 L2,0 L11,2 L19,0 L21,5 L17,4 L11,6 L4,4 z" fill="#7A7A7A" fill-opacity="0.5" fill-rule="nonzero" stroke="black" stroke-width="0.21038345"/>
</g>
<g id="item_2">
<path d="M0,0 L33,0 L33,14 L30,14 L26,17 L13,15 L0,17 z" fill="#7A7A7A" fill-opacity="0.5" fill-rule="nonzero" stroke="black" stroke-width="0.21038345"/>
</g>
<g id="item_3">
<path d="M0,0 L4,0 L4,39 L0,39 z" fill="#7A7A7A" fill-opacity="0.5" fill-rule="nonzero" stroke="black" stroke-width="0.21038345"/>
</g>
<g id="item_4">
<path d="M0,0 L10,0 L10,11 L0,11 z" fill="#7A7A7A" fill-opacity="0.5" fill-rule="nonzero" stroke="black" stroke-width="0.21038345"/>
</g>
<g id="item_5">
<path d="M2,20 L0,18 L2,10 L0,2 L2,0 L4,10 z" fill="#7A7A7A" fill-opacity="0.5" fill-rule="nonzero" stroke="black" stroke-width="0.21038345"/>
</g>
<g id="item_6">
<path d="M0,0 L29,0 L27,12 L29,22 L25,26 L25,33 L18,37 L16,35 L14,35 L12,37 L4,34 L4,26 L0,22 L2,12 z" fill="#7A7A7A" fill-opacity="0.5" fill-rule="nonzero" stroke="black" stroke-width="0.21038345"/>
</g>
<g id="item_7">
<path d="M0,0 L33,0 L37,6 L35,13 L28,13 L25,15 L14,13 L0,15 z" fill="#7A7A7A" fill-opacity="0.5" fill-rule="nonzero" stroke="black" stroke-width="0.21038345"/>
</g>
</defs>
<use transform="translate(59.24099 78.995605), rotate(-180)" xlink:href="#item_6">
<title>item, id: 6, transf: [r: -180.000°, t: (59.241, 78.996)]</title>
</use>
<use transform="translate(76.46791 13.185968), rotate(90)" xlink:href="#item_6">
<title>item, id: 6, transf: [r: 90.000°, t: (76.468, 13.186)]</title>
</use>
<use transform="translate(33.008682 54.214584), rotate(-180)" xlink:href="#item_2">
<title>item, id: 2, transf: [r: -180.000°, t: (33.009, 54.215)]</title>
</use>
<use transform="translate(0.000034332275 21.282864), rotate(0)" xlink:href="#item_2">
<title>item, id: 2, transf: [r: 0.000°, t: (0.000, 21.283)]</title>
</use>
<use transform="translate(72.50276 41.590538), rotate(90)" xlink:href="#item_7">
<title>item, id: 7, transf: [r: 90.000°, t: (72.503, 41.591)]</title>
</use>
<use transform="translate(39.50296 0.0048627853), rotate(0)" xlink:href="#item_7">
<title>item, id: 7, transf: [r: 0.000°, t: (39.503, 0.005)]</title>
</use>
<use transform="translate(0.000005722046 21.000935), rotate(-90)" xlink:href="#item_0">
<title>item, id: 0, transf: [r: -90.000°, t: (0.000, 21.001)]</title>
</use>
<use transform="translate(0.0015363693 64.64978), rotate(0)" xlink:href="#item_0">
<title>item, id: 0, transf: [r: 0.000°, t: (0.002, 64.650)]</title>
</use>
<use transform="translate(48.463604 82.999985), rotate(90)" xlink:href="#item_0">
<title>item, id: 0, transf: [r: 90.000°, t: (48.464, 83.000)]</title>
</use>
<use transform="translate(48.46396 103.997665), rotate(-90)" xlink:href="#item_0">
<title>item, id: 0, transf: [r: -90.000°, t: (48.464, 103.998)]</title>
</use>
<use transform="translate(72.50278 42.18733), rotate(0)" xlink:href="#item_3">
<title>item, id: 3, transf: [r: 0.000°, t: (72.503, 42.187)]</title>
</use>
<use transform="translate(72.45874 78.99657), rotate(90)" xlink:href="#item_3">
<title>item, id: 3, transf: [r: 90.000°, t: (72.459, 78.997)]</title>
</use>
<use transform="translate(39.001854 19.508553), rotate(90)" xlink:href="#item_1">
<title>item, id: 1, transf: [r: 90.000°, t: (39.002, 19.509)]</title>
</use>
<use transform="translate(33.502945 21.286415), rotate(-90)" xlink:href="#item_1">
<title>item, id: 1, transf: [r: -90.000°, t: (33.503, 21.286)]</title>
</use>
<use transform="translate(23.694862 78.48252), rotate(-90)" xlink:href="#item_1">
<title>item, id: 1, transf: [r: -90.000°, t: (23.695, 78.483)]</title>
</use>
<use transform="translate(26.826685 21.281036), rotate(-90)" xlink:href="#item_1">
<title>item, id: 1, transf: [r: -90.000°, t: (26.827, 21.281)]</title>
</use>
<use transform="translate(11.003208 64.21716), rotate(-90)" xlink:href="#item_4">
<title>item, id: 4, transf: [r: -90.000°, t: (11.003, 64.217)]</title>
</use>
<use transform="translate(20.446758 103.99193), rotate(-180)" xlink:href="#item_4">
<title>item, id: 4, transf: [r: -180.000°, t: (20.447, 103.992)]</title>
</use>
<use transform="translate(0.005212784 92.9996), rotate(0)" xlink:href="#item_4">
<title>item, id: 4, transf: [r: 0.000°, t: (0.005, 93.000)]</title>
</use>
<use transform="translate(11.000003 54.64823), rotate(90)" xlink:href="#item_4">
<title>item, id: 4, transf: [r: 90.000°, t: (11.000, 54.648)]</title>
</use>
<use transform="translate(33.072933 42.86304), rotate(-90)" xlink:href="#item_5">
<title>item, id: 5, transf: [r: -90.000°, t: (33.073, 42.863)]</title>
</use>
<use transform="translate(31.201782 0.7809162), rotate(0)" xlink:href="#item_5">
<title>item, id: 5, transf: [r: 0.000°, t: (31.202, 0.781)]</title>
</use>
<use transform="translate(25.001575 83.78218), rotate(-180)" xlink:href="#item_5">
<title>item, id: 5, transf: [r: -180.000°, t: (25.002, 83.782)]</title>
</use>
<use transform="translate(28.077583 57.953056), rotate(0)" xlink:href="#item_5">
<title>item, id: 5, transf: [r: 0.000°, t: (28.078, 57.953)]</title>
</use>
</g>
<g id="quality_zones"/>
<g id="optionals">
<g id="overlap_lines" transform="translate(0 0), rotate(0)"/>
</g>
<text font-family="monospace" font-size="1.9125766" font-weight="500" x="0" y="-0.9562883">
height: 104.000 | width: 76.503 | usage: 90.419% | final_bench_37
</text>
</svg>