<svg viewBox="-3.8000283 -5.2000012 83.6006 114.40001" xmlns="http://www.w3.org/2000/svg" xmlns:xlink="http://www.w3.org/1999/xlink">
<g id="bin_0">
<path d="M0,0 L76.00055,0 L76.00055,104 L0,104 z" fill="#D3D3D3" stroke="black" stroke-width="0.41800302"/>
<title>bin, id: 0, bbox: [x_min: 0.000, y_min: 0.000, x_max: 76.001, y_max: 104.000]</title>
</g>
<g id="items">
<defs>
<g id="item_0">
<path d="M0,0 L21,0 L21,22 L14,28 L7,28 L0,22 z" fill="#7A7A7A" fill-opacity="0.5" fill-rule="nonzero" stroke="black" stroke-width="0.20900151"/>
</g>
<g id="item_1">
<path d="M0,5 L2,0 L11,2 L19,0 L21,5 L17,4 L11,6 L4,4 z" fill="#7A7A7A" fill-opacity="0.5" fill-rule="nonzero" stroke="black" stroke-width="0.20900151"/>
</g>
<g id="item_2">
<path d="M0,0 L33,0 L33,14 L30,14 L26,17 L13,15 L0,17 z" fill="#7A7A7A" fill-opacity="0.5" fill-rule="nonzero" stroke="black" stroke-width="0.20900151"/>
</g>
<g id="item_3">
<path d="M0,0 L4,0 L4,39 L0,39 z" fill="#7A7A7A" fill-opacity="0.5" fill-rule="nonzero" stroke="black" stroke-width="0.20900151"/>
</g>
<g id="item_4">
<path d="M0,0 L10,0 L10,11 L0,11 z" fill="#7A7A7A" fill-opacity="0.5" fill-rule="nonzero" stroke="black" stroke-width="0.20900151"/>
</g>
<g id="item_5">
<path d="M2,20 L0,18 L2,10 L0,2 L2,0 L4,10 z" fill="#7A7A7A" fill-opacity="0.5" fill-rule="nonzero" stroke="black" stroke-width="0.20900151"/>
</g>
<g id="item_6">
<path d="M0,0 L29,0 L27,12 L29,22 L25,26 L25,33 L18,37 L16,35 L14,35 L12,37 L4,34 L4,26 L0,22 L2,12 z" fill="#7A7A7A" fill-opacity="0.5" fill-rule="nonzero" stroke="black" stroke-width="0.20900151"/>
</g>
<g id="item_7">
<path d="M0,0 L33,0 L37,6 L35,13 L28,13 L25,15 L14,13 L0,15 z" fill="#7A7A7A" fill-opacity="0.5" fill-rule="nonzero" stroke="black" stroke-width="0.20900151"/>
</g>
</defs>
<use transform="translate(19.046143 52.12061), rotate(-90)" xlink:href="#item_6">
<title>item, id: 6, transf: [r: -90.000°, t: (19.046, 52.121)]</title>
</use>
<use transform="translate(76.00047 0.07449722), rotate(90)" xlink:href="#item_6">
<title>item, id: 6, transf: [r: 90.000°, t: (76.000, 0.074)]</title>
</use>
<use transform="translate(4.000807 0.00002002716), rotate(0)" xlink:href="#item_2">
<title>item, id: 2, transf: [r: 0.000°, t: (4.001, 0.000)]</title>
</use>
<use transform="translate(54.98938 103.999214), rotate(-180)" xlink:href="#item_2">
<title>item, id: 2, transf: [r: -180.000°, t: (54.989, 103.999)]</title>
</use>
<use transform="translate(55.000492 65.301895), rotate(-180)" xlink:href="#item_7">
<title>item, id: 7, transf: [r: -180.000°, t: (55.000, 65.302)]</title>
</use>
<use transform="translate(4.041954 53.087803), rotate(-90)" xlink:href="#item_7">
<title>item, id: 7, transf: [r: -90.000°, t: (4.042, 53.088)]</title>
</use>
<use transform="translate(21.000011 103.99999), rotate(-180)" xlink:href="#item_0">
<title>item, id: 0, transf: [r: -180.000°, t: (21.000, 104.000)]</title>
</use>
<use transform="translate(54.973743 65.59909), rotate(90)" xlink:href="#item_0">
<title>item, id: 0, transf: [r: 90.000°, t: (54.974, 65.599)]</title>
</use>
<use transform="translate(75.9912 103.99999), rotate(-180)" xlink:href="#item_0">
<title>item, id: 0, transf: [r: -180.000°, t: (75.991, 104.000)]</title>
</use>
<use transform="translate(76.00054 64.98197), rotate(-180)" xlink:href="#item_0">
<title>item, id: 0, transf: [r: -180.000°, t: (76.001, 64.982)]</title>
</use>
<use transform="translate(4.0000954 78.07098), rotate(-180)" xlink:href="#item_3">
<title>item, id: 3, transf: [r: -180.000°, t: (4.000, 78.071)]</title>
</use>
<use transform="translate(0.0007390976 0.008441925), rotate(0)" xlink:href="#item_3">
<title>item, id: 3, transf: [r: 0.000°, t: (0.001, 0.008)]</title>
</use>
<use transform="translate(75.81381 35.751274), rotate(-180)" xlink:href="#item_1">
<title>item, id: 1, transf: [r: -180.000°, t: (75.814, 35.751)]</title>
</use>
<use transform="translate(28.144976 65.32767), rotate(90)" xlink:href="#item_1">
<title>item, id: 1, transf: [r: 90.000°, t: (28.145, 65.328)]</title>
</use>
<use transform="translate(14.000319 76.30242), rotate(-90)" xlink:href="#item_1">
<title>item, id: 1, transf: [r: -90.000°, t: (14.000, 76.302)]</title>
</use>
<use transform="translate(17.942139 15.984043), rotate(0)" xlink:href="#item_1">
<title>item, id: 1, transf: [r: 0.000°, t: (17.942, 15.984)]</title>
</use>
<use transform="translate(65.17094 75.988045), rotate(-180)" xlink:href="#item_4">
<title>item, id: 4, transf: [r: -180.000°, t: (65.171, 75.988)]</title>
</use>
<use transform="translate(14.000114 64.11909), rotate(-180)" xlink:href="#item_4">
<title>item, id: 4, transf: [r: -180.000°, t: (14.000, 64.119)]</title>
</use>
<use transform="translate(14.000111 75.98313), rotate(-180)" xlink:href="#item_4">
<title>item, id: 4, transf: [r: -180.000°, t: (14.000, 75.983)]</title>
</use>
<use transform="translate(65.99967 64.9999), rotate(0)" xlink:href="#item_4">
<title>item, id: 4, transf: [r: 0.000°, t: (66.000, 65.000)]</title>
</use>
<use transform="translate(55.385864 38.075657), rotate(-90)" xlink:href="#item_5">
<title>item, id: 5, transf: [r: -90.000°, t: (55.386, 38.076)]</title>
</use>
<use transform="translate(38.959705 20.511332), rotate(90)" xlink:href="#item_5">
<title>item, id: 5, transf: [r: 90.000°, t: (38.960, 20.511)]</title>
</use>
<use transform="translate(23.768658 85.83139), rotate(-180)" xlink:href="#item_5">
<title>item, id: 5, transf: [r: -180.000°, t: (23.769, 85.831)]</title>
</use>
<use transform="translate(54.367455 31.135761), rotate(-90)" xlink:href="#item_5">
<title>item, id: 5, transf: [r: -90.000°, t: (54.367, 31.136)]</title>
</use>
</g>
<g id="quality_zones"/>
<g id="optionals">
<g id="overlap_lines" transform="translate(0 0), rotate(0)"/>
</g>
<text font-family="monospace" font-size="1.9000138" font-weight="500" x="0" y="-0.9500069">
height: 104.000 | width: 76.001 | usage: 91.017% | final_bench_49
</text>
</svg>