<svg viewBox="-3.8100626 -5.2000012 83.821365 114.40001" xmlns="http://www.w3.org/2000/svg" xmlns:xlink="http://www.w3.org/1999/xlink">
<g id="bin_0">
<path d="M0,0 L76.20123,0 L76.20123,104 L0,104 z" fill="#D3D3D3" stroke="black" stroke-width="0.41910684"/>
<title>bin, id: 0, bbox: [x_min: 0.000, y_min: 0.000, x_max: 76.201, y_max: 104.000]</title>
</g>
<g id="items">
<defs>
<g id="item_0">
<path d="M0,0 L21,0 L21,22 L14,28 L7,28 L0,22 z" fill="#7A7A7A" fill-opacity="0.5" fill-rule="nonzero" stroke="black" stroke-width="0.20955342"/>
</g>
<g id="item_1">
<path d="M0,5 L2,0 L11,2 L19,0 L21,5 L17,4 L11,6 L4,4 z" fill="#7A7A7A" fill-opacity="0.5" fill-rule="nonzero" stroke="black" stroke-width="0.20955342"/>
</g>
<g id="item_2">
<path d="M0,0 L33,0 L33,14 L30,14 L26,17 L13,15 L0,17 z" fill="#7A7A7A" fill-opacity="0.5" fill-rule="nonzero" stroke="black" stroke-width="0.20955342"/>
</g>
<g id="item_3">
<path d="M0,0 L4,0 L4,39 L0,39 z" fill="#7A7A7A" fill-opacity="0.5" fill-rule="nonzero" stroke="black" stroke-width="0.20955342"/>
</g>
<g id="item_4">
<path d="M0,0 L10,0 L10,11 L0,11 z" fill="#7A7A7A" fill-opacity="0.5" fill-rule="nonzero" stroke="black" stroke-width="0.20955342"/>
</g>
<g id="item_5">
<path d="M2,20 L0,18 L2,10 L0,2 L2,0 L4,10 z" fill="#7A7A7A" fill-opacity="0.5" fill-rule="nonzero" stroke="black" stroke-width="0.20955342"/>
</g>
<g id="item_6">
<path d="M0,0 L29,0 L27,12 L29,22 L25,26 L25,33 L18,37 L16,35 L14,35 L12,37 L4,34 L4,26 L0,22 L2,12 z" fill="#7A7A7A" fill-opacity="0.5" fill-rule="nonzero" stroke="black" stroke-width="0.20955342"/>
</g>
<g id="item_7">
<path d="M0,0 L33,0 L37,6 L35,13 L28,13 L25,15 L14,13 L0,15 z" fill="#7A7A7A" fill-opacity="0.5" fill-rule="nonzero" stroke="black" stroke-width="0.20955342"/>
</g>
</defs>
<use transform="translate(55.200512 21.23281), rotate(90)" xlink:href="#item_6">
<title>item, id: 6, transf: [r: 90.000°, t: (55.201, 21.233)]</title>
</use>
<use transform="translate(26.19733 50.25473), rotate(0)" xlink:href="#item_6">
<title>item, id: 6, transf: [r: 0.000°, t: (26.197, 50.255)]</title>
</use>
<use transform="translate(0.00085020065 33.02468), rotate(-90)" xlink:href="#item_2">
<title>item, id: 2, transf: [r: -90.000°, t: (0.001, 33.025)]</title>
</use>
<use transform="translate(48.068863 103.99999), rotate(-180)" xlink:href="#item_2">
<title>item, id: 2, transf: [r: -180.000°, t: (48.069, 104.000)]</title>
</use>
<use transform="translate(0.000048160553 103.99987), rotate(-90)" xlink:href="#item_7">
<title>item, id: 7, transf: [r: -90.000°, t: (0.000, 104.000)]</title>
</use>
<use transform="translate(19.043434 8.007379), rotate(0)" xlink:href="#item_7">
<title>item, id: 7, transf: [r: 0.000°, t: (19.043, 8.007)]</title>
</use>
<use transform="translate(21.000095 66.50203), rotate(-180)" xlink:href="#item_0">
<title>item, id: 0, transf: [r: -180.000°, t: (21.000, 66.502)]</title>
</use>
<use transform="translate(76.19396 82.99998), rotate(90)" xlink:href="#item_0">
<title>item, id: 0, transf: [r: 90.000°, t: (76.194, 83.000)]</title>
</use>
<use transform="translate(76.201004 39.001278), rotate(-180)" xlink:href="#item_0">
<title>item, id: 0, transf: [r: -180.000°, t: (76.201, 39.001)]</title>
</use>
<use transform="translate(55.201073 39.008774), rotate(0)" xlink:href="#item_0">
<title>item, id: 0, transf: [r: 0.000°, t: (55.201, 39.009)]</title>
</use>
<use transform="translate(16.850258 4.0000353), rotate(-90)" xlink:href="#item_3">
<title>item, id: 3, transf: [r: -90.000°, t: (16.850, 4.000)]</title>
</use>
<use transform="translate(17.001637 8.003834), rotate(-90)" xlink:href="#item_3">
<title>item, id: 3, transf: [r: -90.000°, t: (17.002, 8.004)]</title>
</use>
<use transform="translate(21.017078 67.23504), rotate(-90)" xlink:href="#item_1">
<title>item, id: 1, transf: [r: -90.000°, t: (21.017, 67.235)]</title>
</use>
<use transform="translate(55.1287 65.98691), rotate(0)" xlink:href="#item_1">
<title>item, id: 1, transf: [r: 0.000°, t: (55.129, 65.987)]</title>
</use>
<use transform="translate(18.44749 87.21072), rotate(-90)" xlink:href="#item_1">
<title>item, id: 1, transf: [r: -90.000°, t: (18.447, 87.211)]</title>
</use>
<use transform="translate(13.422071 89.734375), rotate(-90)" xlink:href="#item_1">
<title>item, id: 1, transf: [r: -90.000°, t: (13.422, 89.734)]</title>
</use>
<use transform="translate(65.278076 82.99529), rotate(-180)" xlink:href="#item_4">
<title>item, id: 4, transf: [r: -180.000°, t: (65.278, 82.995)]</title>
</use>
<use transform="translate(76.0081 11.000093), rotate(-180)" xlink:href="#item_4">
<title>item, id: 4, transf: [r: -180.000°, t: (76.008, 11.000)]</title>
</use>
<use transform="translate(66.20032 71.99678), rotate(0)" xlink:href="#item_4">
<title>item, id: 4, transf: [r: 0.000°, t: (66.200, 71.997)]</title>
</use>
<use transform="translate(66.00418 11.000218), rotate(-180)" xlink:href="#item_4">
<title>item, id: 4, transf: [r: -180.000°, t: (66.004, 11.000)]</title>
</use>
<use transform="translate(23.060165 67.22482), rotate(0)" xlink:href="#item_5">
<title>item, id: 5, transf: [r: 0.000°, t: (23.060, 67.225)]</title>
</use>
<use transform="translate(19.010878 30.084978), rotate(-180)" xlink:href="#item_5">
<title>item, id: 5, transf: [r: -180.000°, t: (19.011, 30.085)]</title>
</use>
<use transform="translate(0.00021839142 37.032673), rotate(-90)" xlink:href="#item_5">
<title>item, id: 5, transf: [r: -90.000°, t: (0.000, 37.033)]</title>
</use>
<use transform="translate(0.00003528595 39.433144), rotate(-90)" xlink:href="#item_5">
<title>item, id: 5, transf: [r: -90.000°, t: (0.000, 39.433)]</title>
</use>
</g>
<g id="quality_zones"/>
<g id="optionals">
<g id="overlap_lines" transform="translate(0 0), rotate(0)"/>
</g>
<text font-family="monospace" font-size="1.9050308" font-weight="500" x="0" y="-0.9525154">
height: 104.000 | width: 76.201 | usage: 90.777% | final_bench_22
</text>
</svg>