<svg viewBox="-3.8045328 -5.2000012 83.69971 114.40001" xmlns="http://www.w3.org/2000/svg" xmlns:xlink="http://www.w3.org/1999/xlink">
<g id="bin_0">
<path d="M0,0 L76.09064,0 L76.09064,104 L0,104 z" fill="#D3D3D3" stroke="black" stroke-width="0.41849855"/>
<title>bin, id: 0, bbox: [x_min: 0.000, y_min: 0.000, x_max: 76.091, y_max: 104.000]</title>
</g>
<g id="items">
<defs>
<g id="item_0">
<path d="M0,0 L21,0 L21,22 L14,28 L7,28 L0,22 z" fill="#7A7A7A" fill-opacity="0.5" fill-rule="nonzero" stroke="black" stroke-width="0.20924927"/>
</g>
<g id="item_1">
<path d="M0,5 L2,0 L11,2 L19,0 L21,5 L17,4 L11,6 L4,4 z" fill="#7A7A7A" fill-opacity="0.5" fill-rule="nonzero" stroke="black" stroke-width="0.20924927"/>
</g>
<g id="item_2">
<path d="M0,0 L33,0 L33,14 L30,14 L26,17 L13,15 L0,17 z" fill="#7A7A7A" fill-opacity="0.5" fill-rule="nonzero" stroke="black" stroke-width="0.20924927"/>
</g>
<g id="item_3">
<path d="M0,0 L4,0 L4,39 L0,39 z" fill="#7A7A7A" fill-opacity="0.5" fill-rule="nonzero" stroke="black" stroke-width="0.20924927"/>
</g>
<g id="item_4">
<path d="M0,0 L10,0 L10,11 L0,11 z" fill="#7A7A7A" fill-opacity="0.5" fill-rule="nonzero" stroke="black" stroke-width="0.20924927"/>
</g>
<g id="item_5">
<path d="M2,20 L0,18 L2,10 L0,2 L2,0 L4,10 z" fill="#7A7A7A" fill-opacity="0.5" fill-rule="nonzero" stroke="black" stroke-width="0.20924927"/>
</g>
<g id="item_6">
<path d="M0,0 L29,0 L27,12 L29,22 L25,26 L25,33 L18,37 L16,35 L14,35 L12,37 L4,34 L4,26 L0,22 L2,12 z" fill="#7A7A7A" fill-opacity="0.5" fill-rule="nonzero" stroke="black" stroke-width="0.20924927"/>
</g>
<g id="item_7">
<path d="M0,0 L33,0 L37,6 L35,13 L28,13 L25,15 L14,13 L0,15 z" fill="#7A7A7A" fill-opacity="0.5" fill-rule="nonzero" stroke="black" stroke-width="0.20924927"/>
</g>
</defs>
<use transform="translate(13.08929 0.5135155), rotate(0)" xlink:href="#item_6">
<title>item, id: 6, transf: [r: 0.000°, t: (13.089, 0.514)]</title>
</use>
<use transform="translate(29.002197 103.99954), rotate(-180)" xlink:href="#item_6">
<title>item, id: 6, transf: [r: -180.000°, t: (29.002, 104.000)]</title>
</use>
<use transform="translate(4.0039864 37.513866), rotate(0)" xlink:href="#item_2">
<title>item, id: 2, transf: [r: 0.000°, t: (4.004, 37.514)]</title>
</use>
<use transform="translate(76.09055 28.276022), rotate(90)" xlink:href="#item_2">
<title>item, id: 2, transf: [r: 90.000°, t: (76.091, 28.276)]</title>
</use>
<use transform="translate(34.36621 86.27557), rotate(-90)" xlink:href="#item_7">
<title>item, id: 7, transf: [r: -90.000°, t: (34.366, 86.276)]</title>
</use>
<use transform="translate(0.00025129318 37.001465), rotate(-90)" xlink:href="#item_7">
<title>item, id: 7, transf: [r: -90.000°, t: (0.000, 37.001)]</title>
</use>
<use transform="translate(76.087265 82.3095), rotate(90)" xlink:href="#item_0">
<title>item, id: 0, transf: [r: 90.000°, t: (76.087, 82.310)]</title>
</use>
<use transform="translate(76.09028 61.30915), rotate(90)" xlink:href="#item_0">
<title>item, id: 0, transf: [r: 90.000°, t: (76.090, 61.309)]</title>
</use>
<use transform="translate(59.089897 49.183273), rotate(-180)" xlink:href="#item_0">
<title>item, id: 0, transf: [r: -180.000°, t: (59.090, 49.183)]</title>
</use>
<use transform="translate(55.090195 0.27550888), rotate(0)" xlink:href="#item_0">
<title>item, id: 0, transf: [r: 0.000°, t: (55.090, 0.276)]</title>
</use>
<use transform="translate(4.0000935 76.00209), rotate(-180)" xlink:href="#item_3">
<title>item, id: 3, transf: [r: -180.000°, t: (4.000, 76.002)]</title>
</use>
<use transform="translate(30.006989 56.115707), rotate(0)" xlink:href="#item_3">
<title>item, id: 3, transf: [r: 0.000°, t: (30.007, 56.116)]</title>
</use>
<use transform="translate(25.102407 63.68599), rotate(-180)" xlink:href="#item_1">
<title>item, id: 1, transf: [r: -180.000°, t: (25.102, 63.686)]</title>
</use>
<use transform="translate(25.071087 68.2007), rotate(-180)" xlink:href="#item_1">
<title>item, id: 1, transf: [r: -180.000°, t: (25.071, 68.201)]</title>
</use>
<use transform="translate(30.006817 56.00273), rotate(90)" xlink:href="#item_1">
<title>item, id: 1, transf: [r: 90.000°, t: (30.007, 56.003)]</title>
</use>
<use transform="translate(28.779636 95.5837), rotate(0)" xlink:href="#item_1">
<title>item, id: 1, transf: [r: 0.000°, t: (28.780, 95.584)]</title>
</use>
<use transform="translate(55.09015 0.0031805038), rotate(90)" xlink:href="#item_4">
<title>item, id: 4, transf: [r: 90.000°, t: (55.090, 0.003)]</title>
</use>
<use transform="translate(59.087894 49.187386), rotate(90)" xlink:href="#item_4">
<title>item, id: 4, transf: [r: 90.000°, t: (59.088, 49.187)]</title>
</use>
<use transform="translate(45.011066 86.275795), rotate(90)" xlink:href="#item_4">
<title>item, id: 4, transf: [r: 90.000°, t: (45.011, 86.276)]</title>
</use>
<use transform="translate(45.088875 10.182358), rotate(0)" xlink:href="#item_4">
<title>item, id: 4, transf: [r: 0.000°, t: (45.089, 10.182)]</title>
</use>
<use transform="translate(49.293415 99.99735), rotate(90)" xlink:href="#item_5">
<title>item, id: 5, transf: [r: 90.000°, t: (49.293, 99.997)]</title>
</use>
<use transform="translate(4.6213226 56.9042), rotate(-90)" xlink:href="#item_5">
<title>item, id: 5, transf: [r: -90.000°, t: (4.621, 56.904)]</title>
</use>
<use transform="translate(44.09011 22.51062), rotate(-180)" xlink:href="#item_5">
<title>item, id: 5, transf: [r: -180.000°, t: (44.090, 22.511)]</title>
</use>
<use transform="translate(4.603039 59.310505), rotate(-90)" xlink:href="#item_5">
<title>item, id: 5, transf: [r: -90.000°, t: (4.603, 59.311)]</title>
</use>
</g>
<g id="quality_zones"/>
<g id="optionals">
<g id="overlap_lines" transform="translate(0 0), rotate(0)"/>
</g>
<text font-family="monospace" font-size="1.9022659" font-weight="500" x="0" y="-0.95113295">
height: 104.000 | width: 76.091 | usage: 90.909% | final_bench_19
</text>
</svg>