<svg viewBox="-3.789213 -5.2000012 83.36267 114.40001" xmlns="http://www.w3.org/2000/svg" xmlns:xlink="http://www.w3.org/1999/xlink">
<g id="bin_0">
<path d="M0,0 L75.78424,0 L75.78424,104 L0,104 z" fill="#D3D3D3" stroke="black" stroke-width="0.41681337"/>
<title>bin, id: 0, bbox: [x_min: 0.000, y_min: 0.000, x_max: 75.784, y_max: 104.000]</title>
</g>
<g id="items">
<defs>
<g id="item_0">
<path d="M0,0 L21,0 L21,22 L14,28 L7,28 L0,22 z" fill="#7A7A7A" fill-opacity="0.5" fill-rule="nonzero" stroke="black" stroke-width="0.20840669"/>
</g>
<g id="item_1">
<path d="M0,5 L2,0 L11,2 L19,0 L21,5 L17,4 L11,6 L4,4 z" fill="#7A7A7A" fill-opacity="0.5" fill-rule="nonzero" stroke="black" stroke-width="0.20840669"/>
</g>
<g id="item_2">
<path d="M0,0 L33,0 L33,14 L30,14 L26,17 L13,15 L0,17 z" fill="#7A7A7A" fill-opacity="0.5" fill-rule="nonzero" stroke="black" stroke-width="0.20840669"/>
</g>
<g id="item_3">
<path d="M0,0 L4,0 L4,39 L0,39 z" fill="#7A7A7A" fill-opacity="0.5" fill-rule="nonzero" stroke="black" stroke-width="0.20840669"/>
</g>
<g id="item_4">
<path d="M0,0 L10,0 L10,11 L0,11 z" fill="#7A7A7A" fill-opacity="0.5" fill-rule="nonzero" stroke="black" stroke-width="0.20840669"/>
</g>
<g id="item_5">
<path d="M2,20 L0,18 L2,10 L0,2 L2,0 L4,10 z" fill="#7A7A7A" fill-opacity="0.5" fill-rule="nonzero" stroke="black" stroke-width="0.20840669"/>
</g>
<g id="item_6">
<path d="M0,0 L29,0 L27,12 L29,22 L25,26 L25,33 L18,37 L16,35 L14,35 L12,37 L4,34 L4,26 L0,22 L2,12 z" fill="#7A7A7A" fill-opacity="0.5" fill-rule="nonzero" stroke="black" stroke-width="0.20840669"/>
</g>
<g id="item_7">
<path d="M0,0 L33,0 L37,6 L35,13 L28,13 L25,15 L14,13 L0,15 z" fill="#7A7A7A" fill-opacity="0.5" fill-rule="nonzero" stroke="black" stroke-width="0.20840669"/>
</g>
</defs>
<use transform="translate(75.78418 74.70082), rotate(90)" xlink:href="#item_6">
<title>item, id: 6, transf: [r: 90.000°, t: (75.784, 74.701)]</title>
</use>
<use transform="translate(40.000328 99.99904), rotate(-180)" xlink:href="#item_6">
<title>item, id: 6, transf: [r: -180.000°, t: (40.000, 99.999)]</title>
</use>
<use transform="translate(21.689924 4.003979), rotate(0)" xlink:href="#item_2">
<title>item, id: 2, transf: [r: 0.000°, t: (21.690, 4.004)]</title>
</use>
<use transform="translate(0.00935936 33.933487), rotate(-90)" xlink:href="#item_2">
<title>item, id: 2, transf: [r: -90.000°, t: (0.009, 33.933)]</title>
</use>
<use transform="translate(0.00028324127 73.97075), rotate(-90)" xlink:href="#item_7">
<title>item, id: 7, transf: [r: -90.000°, t: (0.000, 73.971)]</title>
</use>
<use transform="translate(75.784096 28.000374), rotate(90)" xlink:href="#item_7">
<title>item, id: 7, transf: [r: 90.000°, t: (75.784, 28.000)]</title>
</use>
<use transform="translate(36.00367 49.787975), rotate(0)" xlink:href="#item_0">
<title>item, id: 0, transf: [r: 0.000°, t: (36.004, 49.788)]</title>
</use>
<use transform="translate(60.778664 49.16465), rotate(-180)" xlink:href="#item_0">
<title>item, id: 0, transf: [r: -180.000°, t: (60.779, 49.165)]</title>
</use>
<use transform="translate(36.003376 62.99363), rotate(-180)" xlink:href="#item_0">
<title>item, id: 0, transf: [r: -180.000°, t: (36.003, 62.994)]</title>
</use>
<use transform="translate(54.77014 0.00008201599), rotate(0)" xlink:href="#item_0">
<title>item, id: 0, transf: [r: 0.000°, t: (54.770, 0.000)]</title>
</use>
<use transform="translate(11.05509 103.99977), rotate(-90)" xlink:href="#item_3">
<title>item, id: 3, transf: [r: -90.000°, t: (11.055, 104.000)]</title>
</use>
<use transform="translate(14.748558 4.0039415), rotate(-90)" xlink:href="#item_3">
<title>item, id: 3, transf: [r: -90.000°, t: (14.749, 4.004)]</title>
</use>
<use transform="translate(38.456684 33.04325), rotate(-180)" xlink:href="#item_1">
<title>item, id: 1, transf: [r: -180.000°, t: (38.457, 33.043)]</title>
</use>
<use transform="translate(21.669918 6.465167), rotate(90)" xlink:href="#item_1">
<title>item, id: 1, transf: [r: 90.000°, t: (21.670, 6.465)]</title>
</use>
<use transform="translate(57.00441 75.84104), rotate(-90)" xlink:href="#item_1">
<title>item, id: 1, transf: [r: -90.000°, t: (57.004, 75.841)]</title>
</use>
<use transform="translate(41.57279 25.733913), rotate(-180)" xlink:href="#item_1">
<title>item, id: 1, transf: [r: -180.000°, t: (41.573, 25.734)]</title>
</use>
<use transform="translate(11.9981985 83.996376), rotate(90)" xlink:href="#item_4">
<title>item, id: 4, transf: [r: 90.000°, t: (11.998, 83.996)]</title>
</use>
<use transform="translate(73.97494 65.00205), rotate(90)" xlink:href="#item_4">
<title>item, id: 4, transf: [r: 90.000°, t: (73.975, 65.002)]</title>
</use>
<use transform="translate(11.0000305 73.978325), rotate(90)" xlink:href="#item_4">
<title>item, id: 4, transf: [r: 90.000°, t: (11.000, 73.978)]</title>
</use>
<use transform="translate(11.000198 93.99996), rotate(90)" xlink:href="#item_4">
<title>item, id: 4, transf: [r: 90.000°, t: (11.000, 94.000)]</title>
</use>
<use transform="translate(17.022333 35.532482), rotate(-90)" xlink:href="#item_5">
<title>item, id: 5, transf: [r: -90.000°, t: (17.022, 35.532)]</title>
</use>
<use transform="translate(39.7725 49.787914), rotate(-180)" xlink:href="#item_5">
<title>item, id: 5, transf: [r: -180.000°, t: (39.772, 49.788)]</title>
</use>
<use transform="translate(20.857594 28.078247), rotate(-90)" xlink:href="#item_5">
<title>item, id: 5, transf: [r: -90.000°, t: (20.858, 28.078)]</title>
</use>
<use transform="translate(0.021393776 37.962494), rotate(-90)" xlink:href="#item_5">
<title>item, id: 5, transf: [r: -90.000°, t: (0.021, 37.962)]</title>
</use>
</g>
<g id="quality_zones"/>
<g id="optionals">
<g id="overlap_lines" transform="translate(0 0), rotate(0)"/>
</g>
<text font-family="monospace" font-size="1.894606" font-weight="500" x="0" y="-0.947303">
height: 104.000 | width: 75.784 | usage: 91.276% | final_bench_93
</text>
</svg>