<svg viewBox="-3.8000906 -5.2000012 83.60197 114.40001" xmlns="http://www.w3.org/2000/svg" xmlns:xlink="http://www.w3.org/1999/xlink">
<g id="bin_0">
<path d="M0,0 L76.00179,0 L76.00179,104 L0,104 z" fill="#D3D3D3" stroke="black" stroke-width="0.41800988"/>
<title>bin, id: 0, bbox: [x_min: 0.000, y_min: 0.000, x_max: 76.002, y_max: 104.000]</title>
</g>
<g id="items">
<defs>
<g id="item_0">
<path d="M0,0 L21,0 L21,22 L14,28 L7,28 L0,22 z" fill="#7A7A7A" fill-opacity="0.5" fill-rule="nonzero" stroke="black" stroke-width="0.20900494"/>
</g>
<g id="item_1">
<path d="M0,5 L2,0 L11,2 L19,0 L21,5 L17,4 L11,6 L4,4 z" fill="#7A7A7A" fill-opacity="0.5" fill-rule="nonzero" stroke="black" stroke-width="0.20900494"/>
</g>
<g id="item_2">
<path d="M0,0 L33,0 L33,14 L30,14 L26,17 L13,15 L0,17 z" fill="#7A7A7A" fill-opacity="0.5" fill-rule="nonzero" stroke="black" stroke-width="0.20900494"/>
</g>
<g id="item_3">
<path d="M0,0 L4,0 L4,39 L0,39 z" fill="#7A7A7A" fill-opacity="0.5" fill-rule="nonzero" stroke="black" stroke-width="0.20900494"/>
</g>
<g id="item_4">
<path d="M0,0 L10,0 L10,11 L0,11 z" fill="#7A7A7A" fill-opacity="0.5" fill-rule="nonzero" stroke="black" stroke-width="0.20900494"/>
</g>
<g id="item_5">
<path d="M2,20 L0,18 L2,10 L0,2 L2,0 L4,10 z" fill="#7A7A7A" fill-opacity="0.5" fill-rule="nonzero" stroke="black" stroke-width="0.20900494"/>
</g>
<g id="item_6">
<path d="M0,0 L29,0 L27,12 L29,22 L25,26 L25,33 L18,37 L16,35 L14,35 L12,37 L4,34 L4,26 L0,22 L2,12 z" fill="#7A7A7A" fill-opacity="0.5" fill-rule="nonzero" stroke="black" stroke-width="0.20900494"/>
</g>
<g id="item_7">
<path d="M0,0 L33,0 L37,6 L35,13 L28,13 L25,15 L14,13 L0,15 z" fill="#7A7A7A" fill-opacity="0.5" fill-rule="nonzero" stroke="black" stroke-width="0.20900494"/>
</g>
</defs>
<use transform="translate(21.001217 43.395226), rotate(-90)" xlink:href="#item_6">
<title>item, id: 6, transf: [r: -90.000°, t: (21.001, 43.395)]</title>
</use>
<use transform="translate(0.00054359436 103.91427), rotate(-90)" xlink:href="#item_6">
<title>item, id: 6, transf: [r: -90.000°, t: (0.001, 103.914)]</title>
</use>
<use transform="translate(75.99687 13.915449), rotate(90)" xlink:href="#item_2">
<title>item, id: 2, transf: [r: 90.000°, t: (75.997, 13.915)]</title>
</use>
<use transform="translate(40.00101 45.846764), rotate(90)" xlink:href="#item_2">
<title>item, id: 2, transf: [r: 90.000°, t: (40.001, 45.847)]</title>
</use>
<use transform="translate(76.00127 46.9159), rotate(90)" xlink:href="#item_7">
<title>item, id: 7, transf: [r: 90.000°, t: (76.001, 46.916)]</title>
</use>
<use transform="translate(0.010471344 0.0000834465), rotate(0)" xlink:href="#item_7">
<title>item, id: 7, transf: [r: 0.000°, t: (0.010, 0.000)]</title>
</use>
<use transform="translate(21.000687 42.00668), rotate(-180)" xlink:href="#item_0">
<title>item, id: 0, transf: [r: -180.000°, t: (21.001, 42.007)]</title>
</use>
<use transform="translate(37.000698 99.99972), rotate(-90)" xlink:href="#item_0">
<title>item, id: 0, transf: [r: -90.000°, t: (37.001, 100.000)]</title>
</use>
<use transform="translate(0.000069618225 42.00907), rotate(0)" xlink:href="#item_0">
<title>item, id: 0, transf: [r: 0.000°, t: (0.000, 42.009)]</title>
</use>
<use transform="translate(61.001106 67.9755), rotate(-180)" xlink:href="#item_0">
<title>item, id: 0, transf: [r: -180.000°, t: (61.001, 67.976)]</title>
</use>
<use transform="translate(25.916248 103.99984), rotate(-90)" xlink:href="#item_3">
<title>item, id: 3, transf: [r: -90.000°, t: (25.916, 104.000)]</title>
</use>
<use transform="translate(75.296364 0.000025391579), rotate(90)" xlink:href="#item_3">
<title>item, id: 3, transf: [r: 90.000°, t: (75.296, 0.000)]</title>
</use>
<use transform="translate(36.002884 8.920236), rotate(0)" xlink:href="#item_1">
<title>item, id: 1, transf: [r: 0.000°, t: (36.003, 8.920)]</title>
</use>
<use transform="translate(36.037235 4.4107466), rotate(0)" xlink:href="#item_1">
<title>item, id: 1, transf: [r: 0.000°, t: (36.037, 4.411)]</title>
</use>
<use transform="translate(76.00001 13.902345), rotate(-180)" xlink:href="#item_1">
<title>item, id: 1, transf: [r: -180.000°, t: (76.000, 13.902)]</title>
</use>
<use transform="translate(0.4901495 69.00691), rotate(0)" xlink:href="#item_1">
<title>item, id: 1, transf: [r: 0.000°, t: (0.490, 69.007)]</title>
</use>
<use transform="translate(64.9893 103.99706), rotate(-90)" xlink:href="#item_4">
<title>item, id: 4, transf: [r: -90.000°, t: (64.989, 103.997)]</title>
</use>
<use transform="translate(60.97996 78.99357), rotate(-180)" xlink:href="#item_4">
<title>item, id: 4, transf: [r: -180.000°, t: (60.980, 78.994)]</title>
</use>
<use transform="translate(65.0017 93.94112), rotate(-90)" xlink:href="#item_4">
<title>item, id: 4, transf: [r: -90.000°, t: (65.002, 93.941)]</title>
</use>
<use transform="translate(40.005226 67.987206), rotate(0)" xlink:href="#item_4">
<title>item, id: 4, transf: [r: 0.000°, t: (40.005, 67.987)]</title>
</use>
<use transform="translate(21.00032 48.844193), rotate(0)" xlink:href="#item_5">
<title>item, id: 5, transf: [r: 0.000°, t: (21.000, 48.844)]</title>
</use>
<use transform="translate(22.376648 45.62007), rotate(-90)" xlink:href="#item_5">
<title>item, id: 5, transf: [r: -90.000°, t: (22.377, 45.620)]</title>
</use>
<use transform="translate(55.79354 8.070195), rotate(-90)" xlink:href="#item_5">
<title>item, id: 5, transf: [r: -90.000°, t: (55.794, 8.070)]</title>
</use>
<use transform="translate(56.7696 18.379564), rotate(0)" xlink:href="#item_5">
<title>item, id: 5, transf: [r: 0.000°, t: (56.770, 18.380)]</title>
</use>
</g>
<g id="quality_zones"/>
<g id="optionals">
<g id="overlap_lines" transform="translate(0 0), rotate(0)"/>
</g>
<text font-family="monospace" font-size="1.9000448" font-weight="500" x="0" y="-0.9500224">
height: 104.000 | width: 76.002 | usage: 91.015% | final_bench_51
</text>
</svg>