<svg viewBox="-3.7911577 -5.2000012 83.40546 114.40001" xmlns="http://www.w3.org/2000/svg" xmlns:xlink="http://www.w3.org/1999/xlink">
<g id="bin_0">
<path d="M0,0 L75.823135,0 L75.823135,104 L0,104 z" fill="#D3D3D3" stroke="black" stroke-width="0.4170273"/>
<title>bin, id: 0, bbox: [x_min: 0.000, y_min: 0.000, x_max: 75.823, y_max: 104.000]</title>
</g>
<g id="items">
<defs>
<g id="item_0">
<path d="M0,0 L21,0 L21,22 L14,28 L7,28 L0,22 z" fill="#7A7A7A" fill-opacity="0.5" fill-rule="nonzero" stroke="black" stroke-width="0.20851365"/>
</g>
<g id="item_1">
<path d="M0,5 L2,0 L11,2 L19,0 L21,5 L17,4 L11,6 L4,4 z" fill="#7A7A7A" fill-opacity="0.5" fill-rule="nonzero" stroke="black" stroke-width="0.20851365"/>
</g>
<g id="item_2">
<path d="M0,0 L33,0 L33,14 L30,14 L26,17 L13,15 L0,17 z" fill="#7A7A7A" fill-opacity="0.5" fill-rule="nonzero" stroke="black" stroke-width="0.20851365"/>
</g>
<g id="item_3">
<path d="M0,0 L4,0 L4,39 L0,39 z" fill="#7A7A7A" fill-opacity="0.5" fill-rule="nonzero" stroke="black" stroke-width="0.20851365"/>
</g>
<g id="item_4">
<path d="M0,0 L10,0 L10,11 L0,11 z" fill="#7A7A7A" fill-opacity="0.5" fill-rule="nonzero" stroke="black" stroke-width="0.20851365"/>
</g>
<g id="item_5">
<path d="M2,20 L0,18 L2,10 L0,2 L2,0 L4,10 z" fill="#7A7A7A" fill-opacity="0.5" fill-rule="nonzero" stroke="black" stroke-width="0.20851365"/>
</g>
<g id="item_6">
<path d="M0,0 L29,0 L27,12 L29,22 L25,26 L25,33 L18,37 L16,35 L14,35 L12,37 L4,34 L4,26 L0,22 L2,12 z" fill="#7A7A7A" fill-opacity="0.5" fill-rule="nonzero" stroke="black" stroke-width="0.20851365"/>
</g>
<g id="item_7">
<path d="M0,0 L33,0 L37,6 L35,13 L28,13 L25,15 L14,13 L0,15 z" fill="#7A7A7A" fill-opacity="0.5" fill-rule="nonzero" stroke="black" stroke-width="0.20851365"/>
</g>
</defs>
<use transform="translate(74.77428 15.875204), rotate(90)" xlink:href="#item_6">
<title>item, id: 6, transf: [r: 90.000°, t: (74.774, 15.875)]</title>
</use>
<use transform="translate(19.000675 69.44833), rotate(-90)" xlink:href="#item_6">
<title>item, id: 6, transf: [r: -90.000°, t: (19.001, 69.448)]</title>
</use>
<use transform="translate(4.1785717 22.2923), rotate(0)" xlink:href="#item_2">
<title>item, id: 2, transf: [r: 0.000°, t: (4.179, 22.292)]</title>
</use>
<use transform="translate(42.008713 0.0025482178), rotate(0)" xlink:href="#item_2">
<title>item, id: 2, transf: [r: 0.000°, t: (42.009, 0.003)]</title>
</use>
<use transform="translate(4.00049 75.97702), rotate(-90)" xlink:href="#item_7">
<title>item, id: 7, transf: [r: -90.000°, t: (4.000, 75.977)]</title>
</use>
<use transform="translate(75.82171 82.99852), rotate(-180)" xlink:href="#item_7">
<title>item, id: 7, transf: [r: -180.000°, t: (75.822, 82.999)]</title>
</use>
<use transform="translate(14.008554 22.290527), rotate(-90)" xlink:href="#item_0">
<title>item, id: 0, transf: [r: -90.000°, t: (14.009, 22.291)]</title>
</use>
<use transform="translate(42.002396 103.98881), rotate(-180)" xlink:href="#item_0">
<title>item, id: 0, transf: [r: -180.000°, t: (42.002, 103.989)]</title>
</use>
<use transform="translate(21.000732 103.977905), rotate(-180)" xlink:href="#item_0">
<title>item, id: 0, transf: [r: -180.000°, t: (21.001, 103.978)]</title>
</use>
<use transform="translate(75.82263 82.999435), rotate(90)" xlink:href="#item_0">
<title>item, id: 0, transf: [r: 90.000°, t: (75.823, 82.999)]</title>
</use>
<use transform="translate(0.000010967255 0.33478928), rotate(0)" xlink:href="#item_3">
<title>item, id: 3, transf: [r: 0.000°, t: (0.000, 0.335)]</title>
</use>
<use transform="translate(0.00045895576 39.41751), rotate(0)" xlink:href="#item_3">
<title>item, id: 3, transf: [r: 0.000°, t: (0.000, 39.418)]</title>
</use>
<use transform="translate(48.022648 82.9987), rotate(90)" xlink:href="#item_1">
<title>item, id: 1, transf: [r: 90.000°, t: (48.023, 82.999)]</title>
</use>
<use transform="translate(55.025356 66.54523), rotate(-90)" xlink:href="#item_1">
<title>item, id: 1, transf: [r: -90.000°, t: (55.025, 66.545)]</title>
</use>
<use transform="translate(40.314697 76.702126), rotate(-180)" xlink:href="#item_1">
<title>item, id: 1, transf: [r: -180.000°, t: (40.315, 76.702)]</title>
</use>
<use transform="translate(59.541153 66.483025), rotate(-90)" xlink:href="#item_1">
<title>item, id: 1, transf: [r: -90.000°, t: (59.541, 66.483)]</title>
</use>
<use transform="translate(64.82264 67.99786), rotate(-90)" xlink:href="#item_4">
<title>item, id: 4, transf: [r: -90.000°, t: (64.823, 67.998)]</title>
</use>
<use transform="translate(4.0071754 11.00589), rotate(0)" xlink:href="#item_4">
<title>item, id: 4, transf: [r: 0.000°, t: (4.007, 11.006)]</title>
</use>
<use transform="translate(14.007583 11.005107), rotate(-180)" xlink:href="#item_4">
<title>item, id: 4, transf: [r: -180.000°, t: (14.008, 11.005)]</title>
</use>
<use transform="translate(75.80935 57.995785), rotate(-180)" xlink:href="#item_4">
<title>item, id: 4, transf: [r: -180.000°, t: (75.809, 57.996)]</title>
</use>
<use transform="translate(38.21072 37.784462), rotate(90)" xlink:href="#item_5">
<title>item, id: 5, transf: [r: 90.000°, t: (38.211, 37.784)]</title>
</use>
<use transform="translate(43.079067 69.43281), rotate(-90)" xlink:href="#item_5">
<title>item, id: 5, transf: [r: -90.000°, t: (43.079, 69.433)]</title>
</use>
<use transform="translate(20.799072 72.0736), rotate(-90)" xlink:href="#item_5">
<title>item, id: 5, transf: [r: -90.000°, t: (20.799, 72.074)]</title>
</use>
<use transform="translate(52.41148 46.947956), rotate(-90)" xlink:href="#item_5">
<title>item, id: 5, transf: [r: -90.000°, t: (52.411, 46.948)]</title>
</use>
</g>
<g id="quality_zones"/>
<g id="optionals">
<g id="overlap_lines" transform="translate(0 0), rotate(0)"/>
</g>
<text font-family="monospace" font-size="1.8955784" font-weight="500" x="0" y="-0.9477892">
height: 104.000 | width: 75.823 | usage: 91.230% | final_bench_18
</text>
</svg>