<svg viewBox="-3.8000424 -5.2000012 83.600914 114.40001" xmlns="http://www.w3.org/2000/svg" xmlns:xlink="http://www.w3.org/1999/xlink">
<g id="bin_0">
<path d="M0,0 L76.00083,0 L76.00083,104 L0,104 z" fill="#D3D3D3" stroke="black" stroke-width="0.41800457"/>
<title>bin, id: 0, bbox: [x_min: 0.000, y_min: 0.000, x_max: 76.001, y_max: 104.000]</title>
</g>
<g id="items">
<defs>
<g id="item_0">
<path d="M0,0 L21,0 L21,22 L14,28 L7,28 L0,22 z" fill="#7A7A7A" fill-opacity="0.5" fill-rule="nonzero" stroke="black" stroke-width="0.20900229"/>
</g>
<g id="item_1">
<path d="M0,5 L2,0 L11,2 L19,0 L21,5 L17,4 L11,6 L4,4 z" fill="#7A7A7A" fill-opacity="0.5" fill-rule="nonzero" stroke="black" stroke-width="0.20900229"/>
</g>
<g id="item_2">
<path d="M0,0 L33,0 L33,14 L30,14 L26,17 L13,15 L0,17 z" fill="#7A7A7A" fill-opacity="0.5" fill-rule="nonzero" stroke="black" stroke-width="0.20900229"/>
</g>
<g id="item_3">
<path d="M0,0 L4,0 L4,39 L0,39 z" fill="#7A7A7A" fill-opacity="0.5" fill-rule="nonzero" stroke="black" stroke-width="0.20900229"/>
</g>
<g id="item_4">
<path d="M0,0 L10,0 L10,11 L0,11 z" fill="#7A7A7A" fill-opacity="0.5" fill-rule="nonzero" stroke="black" stroke-width="0.20900229"/>
</g>
<g id="item_5">
<path d="M2,20 L0,18 L2,10 L0,2 L2,0 L4,10 z" fill="#7A7A7A" fill-opacity="0.5" fill-rule="nonzero" stroke="black" stroke-width="0.20900229"/>
</g>
<g id="item_6">
<path d="M0,0 L29,0 L27,12 L29,22 L25,26 L25,33 L18,37 L16,35 L14,35 L12,37 L4,34 L4,26 L0,22 L2,12 z" fill="#7A7A7A" fill-opacity="0.5" fill-rule="nonzero" stroke="black" stroke-width="0.20900229"/>
</g>
<g id="item_7">
<path d="M0,0 L33,0 L37,6 L35,13 L28,13 L25,15 L14,13 L0,15 z" fill="#7A7A7A" fill-opacity="0.5" fill-rule="nonzero" stroke="black" stroke-width="0.20900229"/>
</g>
</defs>
<use transform="translate(75.99291 41.215073), rotate(90)" xlink:href="#item_6">
<title>item, id: 6, transf: [r: 90.000°, t: (75.993, 41.215)]</title>
</use>
<use transform="translate(15.044573 91.472015), rotate(-90)" xlink:href="#item_6">
<title>item, id: 6, transf: [r: -90.000°, t: (15.045, 91.472)]</title>
</use>
<use transform="translate(76.00072 70.425964), rotate(90)" xlink:href="#item_2">
<title>item, id: 2, transf: [r: 90.000°, t: (76.001, 70.426)]</title>
</use>
<use transform="translate(0.01222229 42.264233), rotate(0)" xlink:href="#item_2">
<title>item, id: 2, transf: [r: 0.000°, t: (0.012, 42.264)]</title>
</use>
<use transform="translate(0.00017261505 95.99479), rotate(-90)" xlink:href="#item_7">
<title>item, id: 7, transf: [r: -90.000°, t: (0.000, 95.995)]</title>
</use>
<use transform="translate(39.00034 28.032406), rotate(0)" xlink:href="#item_7">
<title>item, id: 7, transf: [r: 0.000°, t: (39.000, 28.032)]</title>
</use>
<use transform="translate(33.883125 0.0021734238), rotate(0)" xlink:href="#item_0">
<title>item, id: 0, transf: [r: 0.000°, t: (33.883, 0.002)]</title>
</use>
<use transform="translate(11.000229 42.142143), rotate(-90)" xlink:href="#item_0">
<title>item, id: 0, transf: [r: -90.000°, t: (11.000, 42.142)]</title>
</use>
<use transform="translate(0.000082969666 21.140163), rotate(-90)" xlink:href="#item_0">
<title>item, id: 0, transf: [r: -90.000°, t: (0.000, 21.140)]</title>
</use>
<use transform="translate(75.925964 28.007355), rotate(-180)" xlink:href="#item_0">
<title>item, id: 0, transf: [r: -180.000°, t: (75.926, 28.007)]</title>
</use>
<use transform="translate(0.00042533875 103.99969), rotate(-90)" xlink:href="#item_3">
<title>item, id: 3, transf: [r: -90.000°, t: (0.000, 104.000)]</title>
</use>
<use transform="translate(39.000156 95.99926), rotate(90)" xlink:href="#item_3">
<title>item, id: 3, transf: [r: 90.000°, t: (39.000, 95.999)]</title>
</use>
<use transform="translate(54.15025 90.82776), rotate(-90)" xlink:href="#item_1">
<title>item, id: 1, transf: [r: -90.000°, t: (54.150, 90.828)]</title>
</use>
<use transform="translate(14.006984 57.726395), rotate(0)" xlink:href="#item_1">
<title>item, id: 1, transf: [r: 0.000°, t: (14.007, 57.726)]</title>
</use>
<use transform="translate(33.80629 60.89121), rotate(-90)" xlink:href="#item_1">
<title>item, id: 1, transf: [r: -90.000°, t: (33.806, 60.891)]</title>
</use>
<use transform="translate(38.945053 95.99913), rotate(-180)" xlink:href="#item_1">
<title>item, id: 1, transf: [r: -180.000°, t: (38.945, 95.999)]</title>
</use>
<use transform="translate(11.000133 32.250435), rotate(90)" xlink:href="#item_4">
<title>item, id: 4, transf: [r: 90.000°, t: (11.000, 32.250)]</title>
</use>
<use transform="translate(49.00045 103.99492), rotate(-180)" xlink:href="#item_4">
<title>item, id: 4, transf: [r: -180.000°, t: (49.000, 103.995)]</title>
</use>
<use transform="translate(10.001329 32.23328), rotate(-180)" xlink:href="#item_4">
<title>item, id: 4, transf: [r: -180.000°, t: (10.001, 32.233)]</title>
</use>
<use transform="translate(59.000698 103.99984), rotate(-180)" xlink:href="#item_4">
<title>item, id: 4, transf: [r: -180.000°, t: (59.001, 104.000)]</title>
</use>
<use transform="translate(26.933498 0.873682), rotate(0)" xlink:href="#item_5">
<title>item, id: 5, transf: [r: 0.000°, t: (26.933, 0.874)]</title>
</use>
<use transform="translate(51.665436 69.88779), rotate(0)" xlink:href="#item_5">
<title>item, id: 5, transf: [r: 0.000°, t: (51.665, 69.888)]</title>
</use>
<use transform="translate(38.87924 92.93159), rotate(-90)" xlink:href="#item_5">
<title>item, id: 5, transf: [r: -90.000°, t: (38.879, 92.932)]</title>
</use>
<use transform="translate(29.748304 1.044219), rotate(0)" xlink:href="#item_5">
<title>item, id: 5, transf: [r: 0.000°, t: (29.748, 1.044)]</title>
</use>
</g>
<g id="quality_zones"/>
<g id="optionals">
<g id="overlap_lines" transform="translate(0 0), rotate(0)"/>
</g>
<text font-family="monospace" font-size="1.9000208" font-weight="500" x="0" y="-0.9500104">
height: 104.000 | width: 76.001 | usage: 91.016% | final_bench_40
</text>
</svg>