<svg viewBox="-3.8164716 -5.2000012 83.962364 114.40001" xmlns="http://www.w3.org/2000/svg" xmlns:xlink="http://www.w3.org/1999/xlink">
<g id="bin_0">
<path d="M0,0 L76.329414,0 L76.329414,104 L0,104 z" fill="#D3D3D3" stroke="black" stroke-width="0.41981184"/>
<title>bin, id: 0, bbox: [x_min: 0.000, y_min: 0.000, x_max: 76.329, y_max: 104.000]</title>
</g>
<g id="items">
<defs>
<g id="item_0">
<path d="M0,0 L21,0 L21,22 L14,28 L7,28 L0,22 z" fill="#7A7A7A" fill-opacity="0.5" fill-rule="nonzero" stroke="black" stroke-width="0.20990592"/>
</g>
<g id="item_1">
<path d="M0,5 L2,0 L11,2 L19,0 L21,5 L17,4 L11,6 L4,4 z" fill="#7A7A7A" fill-opacity="0.5" fill-rule="nonzero" stroke="black" stroke-width="0.20990592"/>
</g>
<g id="item_2">
<path d="M0,0 L33,0 L33,14 L30,14 L26,17 L13,15 L0,17 z" fill="#7A7A7A" fill-opacity="0.5" fill-rule="nonzero" stroke="black" stroke-width="0.20990592"/>
</g>
<g id="item_3">
<path d="M0,0 L4,0 L4,39 L0,39 z" fill="#7A7A7A" fill-opacity="0.5" fill-rule="nonzero" stroke="black" stroke-width="0.20990592"/>
</g>
<g id="item_4">
<path d="M0,0 L10,0 L10,11 L0,11 z" fill="#7A7A7A" fill-opacity="0.5" fill-rule="nonzero" stroke="black" stroke-width="0.20990592"/>
</g>
<g id="item_5">
<path d="M2,20 L0,18 L2,10 L0,2 L2,0 L4,10 z" fill="#7A7A7A" fill-opacity="0.5" fill-rule="nonzero" stroke="black" stroke-width="0.20990592"/>
</g>
<g id="item_6">
<path d="M0,0 L29,0 L27,12 L29,22 L25,26 L25,33 L18,37 L16,35 L14,35 L12,37 L4,34 L4,26 L0,22 L2,12 z" fill="#7A7A7A" fill-opacity="0.5" fill-rule="nonzero" stroke="black" stroke-width="0.20990592"/>
</g>
<g id="item_7">
<path d="M0,0 L33,0 L37,6 L35,13 L28,13 L25,15 L14,13 L0,15 z" fill="#7A7A7A" fill-opacity="0.5" fill-rule="nonzero" stroke="black" stroke-width="0.20990592"/>
</g>
</defs>
<use transform="translate(76.32143 33.207108), rotate(90)" xlink:href="#item_6">
<title>item, id: 6, transf: [r: 90.000°, t: (76.321, 33.207)]</title>
</use>
<use transform="translate(21.000221 86.886795), rotate(-90)" xlink:href="#item_6">
<title>item, id: 6, transf: [r: -90.000°, t: (21.000, 86.887)]</title>
</use>
<use transform="translate(32.856174 0.00056266785), rotate(90)" xlink:href="#item_2">
<title>item, id: 2, transf: [r: 90.000°, t: (32.856, 0.001)]</title>
</use>
<use transform="translate(0.0009922981 33.469185), rotate(-90)" xlink:href="#item_2">
<title>item, id: 2, transf: [r: -90.000°, t: (0.001, 33.469)]</title>
</use>
<use transform="translate(57.327293 99.998955), rotate(-180)" xlink:href="#item_7">
<title>item, id: 7, transf: [r: -180.000°, t: (57.327, 99.999)]</title>
</use>
<use transform="translate(72.3282 64.17948), rotate(90)" xlink:href="#item_7">
<title>item, id: 7, transf: [r: 90.000°, t: (72.328, 64.179)]</title>
</use>
<use transform="translate(0.0001449585 64.99278), rotate(0)" xlink:href="#item_0">
<title>item, id: 0, transf: [r: 0.000°, t: (0.000, 64.993)]</title>
</use>
<use transform="translate(54.12607 0.0011920929), rotate(0)" xlink:href="#item_0">
<title>item, id: 0, transf: [r: 0.000°, t: (54.126, 0.001)]</title>
</use>
<use transform="translate(32.856228 0.0004043579), rotate(0)" xlink:href="#item_0">
<title>item, id: 0, transf: [r: 0.000°, t: (32.856, 0.000)]</title>
</use>
<use transform="translate(28.112892 33.469307), rotate(90)" xlink:href="#item_0">
<title>item, id: 0, transf: [r: 90.000°, t: (28.113, 33.469)]</title>
</use>
<use transform="translate(20.865604 103.99998), rotate(-90)" xlink:href="#item_3">
<title>item, id: 3, transf: [r: -90.000°, t: (20.866, 104.000)]</title>
</use>
<use transform="translate(76.3291 103.99442), rotate(-180)" xlink:href="#item_3">
<title>item, id: 3, transf: [r: -180.000°, t: (76.329, 103.994)]</title>
</use>
<use transform="translate(21.047365 60.470047), rotate(-180)" xlink:href="#item_1">
<title>item, id: 1, transf: [r: -180.000°, t: (21.047, 60.470)]</title>
</use>
<use transform="translate(32.856174 26.897161), rotate(0)" xlink:href="#item_1">
<title>item, id: 1, transf: [r: 0.000°, t: (32.856, 26.897)]</title>
</use>
<use transform="translate(53.835625 26.82869), rotate(0)" xlink:href="#item_1">
<title>item, id: 1, transf: [r: 0.000°, t: (53.836, 26.829)]</title>
</use>
<use transform="translate(21.000204 64.98421), rotate(-180)" xlink:href="#item_1">
<title>item, id: 1, transf: [r: -180.000°, t: (21.000, 64.984)]</title>
</use>
<use transform="translate(28.13652 56.350826), rotate(-90)" xlink:href="#item_4">
<title>item, id: 4, transf: [r: -90.000°, t: (28.137, 56.351)]</title>
</use>
<use transform="translate(0.00808239 92.99769), rotate(0)" xlink:href="#item_4">
<title>item, id: 4, transf: [r: 0.000°, t: (0.008, 92.998)]</title>
</use>
<use transform="translate(28.113499 46.35051), rotate(-90)" xlink:href="#item_4">
<title>item, id: 4, transf: [r: -90.000°, t: (28.113, 46.351)]</title>
</use>
<use transform="translate(10.309004 92.9948), rotate(0)" xlink:href="#item_4">
<title>item, id: 4, transf: [r: 0.000°, t: (10.309, 92.995)]</title>
</use>
<use transform="translate(43.00777 55.884716), rotate(90)" xlink:href="#item_5">
<title>item, id: 5, transf: [r: 90.000°, t: (43.008, 55.885)]</title>
</use>
<use transform="translate(53.75746 31.372639), rotate(90)" xlink:href="#item_5">
<title>item, id: 5, transf: [r: 90.000°, t: (53.757, 31.373)]</title>
</use>
<use transform="translate(54.696373 64.269745), rotate(-90)" xlink:href="#item_5">
<title>item, id: 5, transf: [r: -90.000°, t: (54.696, 64.270)]</title>
</use>
<use transform="translate(74.33348 31.204578), rotate(90)" xlink:href="#item_5">
<title>item, id: 5, transf: [r: 90.000°, t: (74.333, 31.205)]</title>
</use>
</g>
<g id="quality_zones"/>
<g id="optionals">
<g id="overlap_lines" transform="translate(0 0), rotate(0)"/>
</g>
<text font-family="monospace" font-size="1.9082354" font-weight="500" x="0" y="-0.9541177">
height: 104.000 | width: 76.329 | usage: 90.624% | final_bench_39
</text>
</svg>