<svg viewBox="-3.8132746 -5.2000012 83.89203 114.40001" xmlns="http://www.w3.org/2000/svg" xmlns:xlink="http://www.w3.org/1999/xlink">
<g id="bin_0">
<path d="M0,0 L76.26547,0 L76.26547,104 L0,104 z" fill="#D3D3D3" stroke="black" stroke-width="0.41946018"/>
<title>bin, id: 0, bbox: [x_min: 0.000, y_min: 0.000, x_max: 76.265, y_max: 104.000]</title>
</g>
<g id="items">
<defs>
<g id="item_0">
<path d="M0,0 L21,0 L21,22 L14,28 L7,28 L0,22 z" fill="#7A7A7A" fill-opacity="0.5" fill-rule="nonzero" stroke="black" stroke-width="0.20973009"/>
</g>
<g id="item_1">
<path d="M0,5 L2,0 L11,2 L19,0 L21,5 L17,4 L11,6 L4,4 z" fill="#7A7A7A" fill-opacity="0.5" fill-rule="nonzero" stroke="black" stroke-width="0.20973009"/>
</g>
<g id="item_2">
<path d="M0,0 L33,0 L33,14 L30,14 L26,17 L13,15 L0,17 z" fill="#7A7A7A" fill-opacity="0.5" fill-rule="nonzero" stroke="black" stroke-width="0.20973009"/>
</g>
<g id="item_3">
<path d="M0,0 L4,0 L4,39 L0,39 z" fill="#7A7A7A" fill-opacity="0.5" fill-rule="nonzero" stroke="black" stroke-width="0.20973009"/>
</g>
<g id="item_4">
<path d="M0,0 L10,0 L10,11 L0,11 z" fill="#7A7A7A" fill-opacity="0.5" fill-rule="nonzero" stroke="black" stroke-width="0.20973009"/>
</g>
<g id="item_5">
<path d="M2,20 L0,18 L2,10 L0,2 L2,0 L4,10 z" fill="#7A7A7A" fill-opacity="0.5" fill-rule="nonzero" stroke="black" stroke-width="0.20973009"/>
</g>
<g id="item_6">
<path d="M0,0 L29,0 L27,12 L29,22 L25,26 L25,33 L18,37 L16,35 L14,35 L12,37 L4,34 L4,26 L0,22 L2,12 z" fill="#7A7A7A" fill-opacity="0.5" fill-rule="nonzero" stroke="black" stroke-width="0.20973009"/>
</g>
<g id="item_7">
<path d="M0,0 L33,0 L37,6 L35,13 L28,13 L25,15 L14,13 L0,15 z" fill="#7A7A7A" fill-opacity="0.5" fill-rule="nonzero" stroke="black" stroke-width="0.20973009"/>
</g>
</defs>
<use transform="translate(20.080307 65.63699), rotate(-90)" xlink:href="#item_6">
<title>item, id: 6, transf: [r: -90.000°, t: (20.080, 65.637)]</title>
</use>
<use transform="translate(21.401443 0.031267166), rotate(0)" xlink:href="#item_6">
<title>item, id: 6, transf: [r: 0.000°, t: (21.401, 0.031)]</title>
</use>
<use transform="translate(20.079254 33.312233), rotate(90)" xlink:href="#item_2">
<title>item, id: 2, transf: [r: 90.000°, t: (20.079, 33.312)]</title>
</use>
<use transform="translate(76.26511 42.023605), rotate(90)" xlink:href="#item_2">
<title>item, id: 2, transf: [r: 90.000°, t: (76.265, 42.024)]</title>
</use>
<use transform="translate(55.191658 78.9549), rotate(-180)" xlink:href="#item_7">
<title>item, id: 7, transf: [r: -180.000°, t: (55.192, 78.955)]</title>
</use>
<use transform="translate(4.000367 103.31481), rotate(-90)" xlink:href="#item_7">
<title>item, id: 7, transf: [r: -90.000°, t: (4.000, 103.315)]</title>
</use>
<use transform="translate(55.26484 78.99936), rotate(90)" xlink:href="#item_0">
<title>item, id: 0, transf: [r: 90.000°, t: (55.265, 78.999)]</title>
</use>
<use transform="translate(76.263794 21.011173), rotate(90)" xlink:href="#item_0">
<title>item, id: 0, transf: [r: 90.000°, t: (76.264, 21.011)]</title>
</use>
<use transform="translate(55.265152 75.02475), rotate(0)" xlink:href="#item_0">
<title>item, id: 0, transf: [r: 0.000°, t: (55.265, 75.025)]</title>
</use>
<use transform="translate(0.39976025 0.0000667572), rotate(0)" xlink:href="#item_0">
<title>item, id: 0, transf: [r: 0.000°, t: (0.400, 0.000)]</title>
</use>
<use transform="translate(19.005035 103.99961), rotate(-90)" xlink:href="#item_3">
<title>item, id: 3, transf: [r: -90.000°, t: (19.005, 104.000)]</title>
</use>
<use transform="translate(0.0003221035 63.342484), rotate(0)" xlink:href="#item_3">
<title>item, id: 3, transf: [r: 0.000°, t: (0.000, 63.342)]</title>
</use>
<use transform="translate(55.26078 1.594821), rotate(90)" xlink:href="#item_1">
<title>item, id: 1, transf: [r: 90.000°, t: (55.261, 1.595)]</title>
</use>
<use transform="translate(23.884783 78.95517), rotate(90)" xlink:href="#item_1">
<title>item, id: 1, transf: [r: 90.000°, t: (23.885, 78.955)]</title>
</use>
<use transform="translate(2.3024416 27.31191), rotate(0)" xlink:href="#item_1">
<title>item, id: 1, transf: [r: 0.000°, t: (2.302, 27.312)]</title>
</use>
<use transform="translate(28.384884 78.954926), rotate(90)" xlink:href="#item_1">
<title>item, id: 1, transf: [r: 90.000°, t: (28.385, 78.955)]</title>
</use>
<use transform="translate(65.26083 11.000204), rotate(-180)" xlink:href="#item_4">
<title>item, id: 4, transf: [r: -180.000°, t: (65.261, 11.000)]</title>
</use>
<use transform="translate(76.26318 0.0035395622), rotate(90)" xlink:href="#item_4">
<title>item, id: 4, transf: [r: 90.000°, t: (76.263, 0.004)]</title>
</use>
<use transform="translate(66.26111 11.00597), rotate(90)" xlink:href="#item_4">
<title>item, id: 4, transf: [r: 90.000°, t: (66.261, 11.006)]</title>
</use>
<use transform="translate(76.26534 21.004898), rotate(-180)" xlink:href="#item_4">
<title>item, id: 4, transf: [r: -180.000°, t: (76.265, 21.005)]</title>
</use>
<use transform="translate(57.15007 45.63085), rotate(0)" xlink:href="#item_5">
<title>item, id: 5, transf: [r: 0.000°, t: (57.150, 45.631)]</title>
</use>
<use transform="translate(0.0019578934 43.306614), rotate(0)" xlink:href="#item_5">
<title>item, id: 5, transf: [r: 0.000°, t: (0.002, 43.307)]</title>
</use>
<use transform="translate(4.0277057 43.4072), rotate(-180)" xlink:href="#item_5">
<title>item, id: 5, transf: [r: -180.000°, t: (4.028, 43.407)]</title>
</use>
<use transform="translate(59.112526 73.538), rotate(-180)" xlink:href="#item_5">
<title>item, id: 5, transf: [r: -180.000°, t: (59.113, 73.538)]</title>
</use>
</g>
<g id="quality_zones"/>
<g id="optionals">
<g id="overlap_lines" transform="translate(0 0), rotate(0)"/>
</g>
<text font-family="monospace" font-size="1.9066368" font-weight="500" x="0" y="-0.9533184">
height: 104.000 | width: 76.265 | usage: 90.700% | final_bench_63
</text>
</svg>