<svg viewBox="-3.8066976 -5.2000012 83.74732 114.40001" xmlns="http://www.w3.org/2000/svg" xmlns:xlink="http://www.w3.org/1999/xlink">
<g id="bin_0">
<path d="M0,0 L76.133934,0 L76.133934,104 L0,104 z" fill="#D3D3D3" stroke="black" stroke-width="0.41873664"/>
<title>bin, id: 0, bbox: [x_min: 0.000, y_min: 0.000, x_max: 76.134, y_max: 104.000]</title>
</g>
<g id="items">
<defs>
<g id="item_0">
<path d="M0,0 L21,0 L21,22 L14,28 L7,28 L0,22 z" fill="#7A7A7A" fill-opacity="0.5" fill-rule="nonzero" stroke="black" stroke-width="0.20936832"/>
</g>
<g id="item_1">
<path d="M0,5 L2,0 L11,2 L19,0 L21,5 L17,4 L11,6 L4,4 z" fill="#7A7A7A" fill-opacity="0.5" fill-rule="nonzero" stroke="black" stroke-width="0.20936832"/>
</g>
<g id="item_2">
<path d="M0,0 L33,0 L33,14 L30,14 L26,17 L13,15 L0,17 z" fill="#7A7A7A" fill-opacity="0.5" fill-rule="nonzero" stroke="black" stroke-width="0.20936832"/>
</g>
<g id="item_3">
<path d="M0,0 L4,0 L4,39 L0,39 z" fill="#7A7A7A" fill-opacity="0.5" fill-rule="nonzero" stroke="black" stroke-width="0.20936832"/>
</g>
<g id="item_4">
<path d="M0,0 L10,0 L10,11 L0,11 z" fill="#7A7A7A" fill-opacity="0.5" fill-rule="nonzero" stroke="black" stroke-width="0.20936832"/>
</g>
<g id="item_5">
<path d="M2,20 L0,18 L2,10 L0,2 L2,0 L4,10 z" fill="#7A7A7A" fill-opacity="0.5" fill-rule="nonzero" stroke="black" stroke-width="0.20936832"/>
</g>
<g id="item_6">
<path d="M0,0 L29,0 L27,12 L29,22 L25,26 L25,33 L18,37 L16,35 L14,35 L12,37 L4,34 L4,26 L0,22 L2,12 z" fill="#7A7A7A" fill-opacity="0.5" fill-rule="nonzero" stroke="black" stroke-width="0.20936832"/>
</g>
<g id="item_7">
<path d="M0,0 L33,0 L37,6 L35,13 L28,13 L25,15 L14,13 L0,15 z" fill="#7A7A7A" fill-opacity="0.5" fill-rule="nonzero" stroke="black" stroke-width="0.20936832"/>
</g>
</defs>
<use transform="translate(71.57269 13.115791), rotate(90)" xlink:href="#item_6">
<title>item, id: 6, transf: [r: 90.000°, t: (71.573, 13.116)]</title>
</use>
<use transform="translate(27.431946 52.613327), rotate(0)" xlink:href="#item_6">
<title>item, id: 6, transf: [r: 0.000°, t: (27.432, 52.613)]</title>
</use>
<use transform="translate(0.0010581017 103.99849), rotate(-90)" xlink:href="#item_2">
<title>item, id: 2, transf: [r: -90.000°, t: (0.001, 103.998)]</title>
</use>
<use transform="translate(72.13373 42.116547), rotate(90)" xlink:href="#item_2">
<title>item, id: 2, transf: [r: 90.000°, t: (72.134, 42.117)]</title>
</use>
<use transform="translate(55.130394 103.99904), rotate(-180)" xlink:href="#item_7">
<title>item, id: 7, transf: [r: -180.000°, t: (55.130, 103.999)]</title>
</use>
<use transform="translate(35.133495 0.0016222), rotate(0)" xlink:href="#item_7">
<title>item, id: 7, transf: [r: 0.000°, t: (35.133, 0.002)]</title>
</use>
<use transform="translate(21.000488 49.889565), rotate(-180)" xlink:href="#item_0">
<title>item, id: 0, transf: [r: -180.000°, t: (21.000, 49.890)]</title>
</use>
<use transform="translate(14.133343 0.0032949448), rotate(0)" xlink:href="#item_0">
<title>item, id: 0, transf: [r: 0.000°, t: (14.133, 0.003)]</title>
</use>
<use transform="translate(76.13066 103.99987), rotate(-180)" xlink:href="#item_0">
<title>item, id: 0, transf: [r: -180.000°, t: (76.131, 104.000)]</title>
</use>
<use transform="translate(0.0041046143 70.89044), rotate(-90)" xlink:href="#item_0">
<title>item, id: 0, transf: [r: -90.000°, t: (0.004, 70.890)]</title>
</use>
<use transform="translate(76.13381 78.56302), rotate(-180)" xlink:href="#item_3">
<title>item, id: 3, transf: [r: -180.000°, t: (76.134, 78.563)]</title>
</use>
<use transform="translate(72.13357 0.5579624), rotate(0)" xlink:href="#item_3">
<title>item, id: 3, transf: [r: 0.000°, t: (72.134, 0.558)]</title>
</use>
<use transform="translate(23.0239 90.40138), rotate(-90)" xlink:href="#item_1">
<title>item, id: 1, transf: [r: -90.000°, t: (23.024, 90.401)]</title>
</use>
<use transform="translate(43.338146 52.611153), rotate(-180)" xlink:href="#item_1">
<title>item, id: 1, transf: [r: -180.000°, t: (43.338, 52.611)]</title>
</use>
<use transform="translate(42.544224 47.90799), rotate(-180)" xlink:href="#item_1">
<title>item, id: 1, transf: [r: -180.000°, t: (42.544, 47.908)]</title>
</use>
<use transform="translate(45.59618 43.14128), rotate(-180)" xlink:href="#item_1">
<title>item, id: 1, transf: [r: -180.000°, t: (45.596, 43.141)]</title>
</use>
<use transform="translate(55.14517 42.607616), rotate(90)" xlink:href="#item_4">
<title>item, id: 4, transf: [r: 90.000°, t: (55.145, 42.608)]</title>
</use>
<use transform="translate(32.002964 28.005394), rotate(90)" xlink:href="#item_4">
<title>item, id: 4, transf: [r: 90.000°, t: (32.003, 28.005)]</title>
</use>
<use transform="translate(14.109059 21.844982), rotate(-180)" xlink:href="#item_4">
<title>item, id: 4, transf: [r: -180.000°, t: (14.109, 21.845)]</title>
</use>
<use transform="translate(14.116742 0.8438363), rotate(90)" xlink:href="#item_4">
<title>item, id: 4, transf: [r: 90.000°, t: (14.117, 0.844)]</title>
</use>
<use transform="translate(20.529274 70.87393), rotate(0)" xlink:href="#item_5">
<title>item, id: 5, transf: [r: 0.000°, t: (20.529, 70.874)]</title>
</use>
<use transform="translate(18.125433 70.89051), rotate(0)" xlink:href="#item_5">
<title>item, id: 5, transf: [r: 0.000°, t: (18.125, 70.891)]</title>
</use>
<use transform="translate(0.050149202 5.7198), rotate(0)" xlink:href="#item_5">
<title>item, id: 5, transf: [r: 0.000°, t: (0.050, 5.720)]</title>
</use>
<use transform="translate(15.724993 70.8922), rotate(0)" xlink:href="#item_5">
<title>item, id: 5, transf: [r: 0.000°, t: (15.725, 70.892)]</title>
</use>
</g>
<g id="quality_zones"/>
<g id="optionals">
<g id="overlap_lines" transform="translate(0 0), rotate(0)"/>
</g>
<text font-family="monospace" font-size="1.9033483" font-weight="500" x="0" y="-0.95167416">
height: 104.000 | width: 76.134 | usage: 90.857% | final_bench_8
</text>
</svg>