<svg viewBox="-3.7861216 -5.2000012 83.29466 114.40001" xmlns="http://www.w3.org/2000/svg" xmlns:xlink="http://www.w3.org/1999/xlink">
<g id="bin_0">
<path d="M0,0 L75.72241,0 L75.72241,104 L0,104 z" fill="#D3D3D3" stroke="black" stroke-width="0.41647333"/>
<title>bin, id: 0, bbox: [x_min: 0.000, y_min: 0.000, x_max: 75.722, y_max: 104.000]</title>
</g>
<g id="items">
<defs>
<g id="item_0">
<path d="M0,0 L21,0 L21,22 L14,28 L7,28 L0,22 z" fill="#7A7A7A" fill-opacity="0.5" fill-rule="nonzero" stroke="black" stroke-width="0.20823666"/>
</g>
<g id="item_1">
<path d="M0,5 L2,0 L11,2 L19,0 L21,5 L17,4 L11,6 L4,4 z" fill="#7A7A7A" fill-opacity="0.5" fill-rule="nonzero" stroke="black" stroke-width="0.20823666"/>
</g>
<g id="item_2">
<path d="M0,0 L33,0 L33,14 L30,14 L26,17 L13,15 L0,17 z" fill="#7A7A7A" fill-opacity="0.5" fill-rule="nonzero" stroke="black" stroke-width="0.20823666"/>
</g>
<g id="item_3">
<path d="M0,0 L4,0 L4,39 L0,39 z" fill="#7A7A7A" fill-opacity="0.5" fill-rule="nonzero" stroke="black" stroke-width="0.20823666"/>
</g>
<g id="item_4">
<path d="M0,0 L10,0 L10,11 L0,11 z" fill="#7A7A7A" fill-opacity="0.5" fill-rule="nonzero" stroke="black" stroke-width="0.20823666"/>
</g>
<g id="item_5">
<path d="M2,20 L0,18 L2,10 L0,2 L2,0 L4,10 z" fill="#7A7A7A" fill-opacity="0.5" fill-rule="nonzero" stroke="black" stroke-width="0.20823666"/>
</g>
<g id="item_6">
<path d="M0,0 L29,0 L27,12 L29,22 L25,26 L25,33 L18,37 L16,35 L14,35 L12,37 L4,34 L4,26 L0,22 L2,12 z" fill="#7A7A7A" fill-opacity="0.5" fill-rule="nonzero" stroke="black" stroke-width="0.20823666"/>
</g>
<g id="item_7">
<path d="M0,0 L33,0 L37,6 L35,13 L28,13 L25,15 L14,13 L0,15 z" fill="#7A7A7A" fill-opacity="0.5" fill-rule="nonzero" stroke="black" stroke-width="0.20823666"/>
</g>
</defs>
<use transform="translate(0.3856907 82.857895), rotate(-90)" xlink:href="#item_6">
<title>item, id: 6, transf: [r: -90.000°, t: (0.386, 82.858)]</title>
</use>
<use transform="translate(58.717762 31.618639), rotate(90)" xlink:href="#item_6">
<title>item, id: 6, transf: [r: 90.000°, t: (58.718, 31.619)]</title>
</use>
<use transform="translate(58.717796 66.19772), rotate(-90)" xlink:href="#item_2">
<title>item, id: 2, transf: [r: -90.000°, t: (58.718, 66.198)]</title>
</use>
<use transform="translate(0.00038909912 0.000029087067), rotate(0)" xlink:href="#item_2">
<title>item, id: 2, transf: [r: 0.000°, t: (0.000, 0.000)]</title>
</use>
<use transform="translate(75.68475 66.20445), rotate(90)" xlink:href="#item_7">
<title>item, id: 7, transf: [r: 90.000°, t: (75.685, 66.204)]</title>
</use>
<use transform="translate(37.00316 95.99881), rotate(-180)" xlink:href="#item_7">
<title>item, id: 7, transf: [r: -180.000°, t: (37.003, 95.999)]</title>
</use>
<use transform="translate(33.72171 0.0034208298), rotate(0)" xlink:href="#item_0">
<title>item, id: 0, transf: [r: 0.000°, t: (33.722, 0.003)]</title>
</use>
<use transform="translate(54.722206 0.010064125), rotate(0)" xlink:href="#item_0">
<title>item, id: 0, transf: [r: 0.000°, t: (54.722, 0.010)]</title>
</use>
<use transform="translate(58.00409 93.99963), rotate(-180)" xlink:href="#item_0">
<title>item, id: 0, transf: [r: -180.000°, t: (58.004, 94.000)]</title>
</use>
<use transform="translate(0.7177105 27.079319), rotate(0)" xlink:href="#item_0">
<title>item, id: 0, transf: [r: 0.000°, t: (0.718, 27.079)]</title>
</use>
<use transform="translate(0.63472176 103.999855), rotate(-90)" xlink:href="#item_3">
<title>item, id: 3, transf: [r: -90.000°, t: (0.635, 104.000)]</title>
</use>
<use transform="translate(39.25613 95.998825), rotate(90)" xlink:href="#item_3">
<title>item, id: 3, transf: [r: 90.000°, t: (39.256, 95.999)]</title>
</use>
<use transform="translate(58.299225 67.175255), rotate(-180)" xlink:href="#item_1">
<title>item, id: 1, transf: [r: -180.000°, t: (58.299, 67.175)]</title>
</use>
<use transform="translate(28.374308 34.961674), rotate(-90)" xlink:href="#item_1">
<title>item, id: 1, transf: [r: -90.000°, t: (28.374, 34.962)]</title>
</use>
<use transform="translate(32.696285 27.01108), rotate(0)" xlink:href="#item_1">
<title>item, id: 1, transf: [r: 0.000°, t: (32.696, 27.011)]</title>
</use>
<use transform="translate(54.40287 27.139196), rotate(0)" xlink:href="#item_1">
<title>item, id: 1, transf: [r: 0.000°, t: (54.403, 27.139)]</title>
</use>
<use transform="translate(51.3763 103.99997), rotate(-90)" xlink:href="#item_4">
<title>item, id: 4, transf: [r: -90.000°, t: (51.376, 104.000)]</title>
</use>
<use transform="translate(11.029413 27.070839), rotate(-90)" xlink:href="#item_4">
<title>item, id: 4, transf: [r: -90.000°, t: (11.029, 27.071)]</title>
</use>
<use transform="translate(11.010403 17.07241), rotate(90)" xlink:href="#item_4">
<title>item, id: 4, transf: [r: 90.000°, t: (11.010, 17.072)]</title>
</use>
<use transform="translate(51.37629 93.99992), rotate(90)" xlink:href="#item_4">
<title>item, id: 4, transf: [r: 90.000°, t: (51.376, 94.000)]</title>
</use>
<use transform="translate(37.793686 62.798008), rotate(-90)" xlink:href="#item_5">
<title>item, id: 5, transf: [r: -90.000°, t: (37.794, 62.798)]</title>
</use>
<use transform="translate(25.84264 15.618462), rotate(0)" xlink:href="#item_5">
<title>item, id: 5, transf: [r: 0.000°, t: (25.843, 15.618)]</title>
</use>
<use transform="translate(58.004436 73.943146), rotate(0)" xlink:href="#item_5">
<title>item, id: 5, transf: [r: 0.000°, t: (58.004, 73.943)]</title>
</use>
<use transform="translate(22.079329 17.292204), rotate(0)" xlink:href="#item_5">
<title>item, id: 5, transf: [r: 0.000°, t: (22.079, 17.292)]</title>
</use>
</g>
<g id="quality_zones"/>
<g id="optionals">
<g id="overlap_lines" transform="translate(0 0), rotate(0)"/>
</g>
<text font-family="monospace" font-size="1.8930603" font-weight="500" x="0" y="-0.94653016">
height: 104.000 | width: 75.722 | usage: 91.351% | final_bench_9
</text>
</svg>