<svg viewBox="-3.8002 -5.2000012 83.604385 114.40001" xmlns="http://www.w3.org/2000/svg" xmlns:xlink="http://www.w3.org/1999/xlink">
<g id="bin_0">
<path d="M0,0 L76.00398,0 L76.00398,104 L0,104 z" fill="#D3D3D3" stroke="black" stroke-width="0.41802195"/>
<title>bin, id: 0, bbox: [x_min: 0.000, y_min: 0.000, x_max: 76.004, y_max: 104.000]</title>
</g>
<g id="items">
<defs>
<g id="item_0">
<path d="M0,0 L21,0 L21,22 L14,28 L7,28 L0,22 z" fill="#7A7A7A" fill-opacity="0.5" fill-rule="nonzero" stroke="black" stroke-width="0.20901097"/>
</g>
<g id="item_1">
<path d="M0,5 L2,0 L11,2 L19,0 L21,5 L17,4 L11,6 L4,4 z" fill="#7A7A7A" fill-opacity="0.5" fill-rule="nonzero" stroke="black" stroke-width="0.20901097"/>
</g>
<g id="item_2">
<path d="M0,0 L33,0 L33,14 L30,14 L26,17 L13,15 L0,17 z" fill="#7A7A7A" fill-opacity="0.5" fill-rule="nonzero" stroke="black" stroke-width="0.20901097"/>
</g>
<g id="item_3">
<path d="M0,0 L4,0 L4,39 L0,39 z" fill="#7A7A7A" fill-opacity="0.5" fill-rule="nonzero" stroke="black" stroke-width="0.20901097"/>
</g>
<g id="item_4">
<path d="M0,0 L10,0 L10,11 L0,11 z" fill="#7A7A7A" fill-opacity="0.5" fill-rule="nonzero" stroke="black" stroke-width="0.20901097"/>
</g>
<g id="item_5">
<path d="M2,20 L0,18 L2,10 L0,2 L2,0 L4,10 z" fill="#7A7A7A" fill-opacity="0.5" fill-rule="nonzero" stroke="black" stroke-width="0.20901097"/>
</g>
<g id="item_6">
<path d="M0,0 L29,0 L27,12 L29,22 L25,26 L25,33 L18,37 L16,35 L14,35 L12,37 L4,34 L4,26 L0,22 L2,12 z" fill="#7A7A7A" fill-opacity="0.5" fill-rule="nonzero" stroke="black" stroke-width="0.20901097"/>
</g>
<g id="item_7">
<path d="M0,0 L33,0 L37,6 L35,13 L28,13 L25,15 L14,13 L0,15 z" fill="#7A7A7A" fill-opacity="0.5" fill-rule="nonzero" stroke="black" stroke-width="0.20901097"/>
</g>
</defs>
<use transform="translate(29.00333 103.999214), rotate(-180)" xlink:href="#item_6">
<title>item, id: 6, transf: [r: -180.000°, t: (29.003, 103.999)]</title>
</use>
<use transform="translate(76.00336 74.998474), rotate(90)" xlink:href="#item_6">
<title>item, id: 6, transf: [r: 90.000°, t: (76.003, 74.998)]</title>
</use>
<use transform="translate(76.00397 0.000019073486), rotate(90)" xlink:href="#item_2">
<title>item, id: 2, transf: [r: 90.000°, t: (76.004, 0.000)]</title>
</use>
<use transform="translate(59.00293 30.54699), rotate(-180)" xlink:href="#item_2">
<title>item, id: 2, transf: [r: -180.000°, t: (59.003, 30.547)]</title>
</use>
<use transform="translate(22.430035 0.036342144), rotate(0)" xlink:href="#item_7">
<title>item, id: 7, transf: [r: 0.000°, t: (22.430, 0.036)]</title>
</use>
<use transform="translate(75.99639 33.00064), rotate(90)" xlink:href="#item_7">
<title>item, id: 7, transf: [r: 90.000°, t: (75.996, 33.001)]</title>
</use>
<use transform="translate(0.001367569 0.00048732758), rotate(0)" xlink:href="#item_0">
<title>item, id: 0, transf: [r: 0.000°, t: (0.001, 0.000)]</title>
</use>
<use transform="translate(56.992558 30.547115), rotate(90)" xlink:href="#item_0">
<title>item, id: 0, transf: [r: 90.000°, t: (56.993, 30.547)]</title>
</use>
<use transform="translate(25.000944 66.99067), rotate(-180)" xlink:href="#item_0">
<title>item, id: 0, transf: [r: -180.000°, t: (25.001, 66.991)]</title>
</use>
<use transform="translate(25.003471 51.563343), rotate(0)" xlink:href="#item_0">
<title>item, id: 0, transf: [r: 0.000°, t: (25.003, 51.563)]</title>
</use>
<use transform="translate(4.000066 78.00224), rotate(-180)" xlink:href="#item_3">
<title>item, id: 3, transf: [r: -180.000°, t: (4.000, 78.002)]</title>
</use>
<use transform="translate(60.992687 69.566284), rotate(-180)" xlink:href="#item_3">
<title>item, id: 3, transf: [r: -180.000°, t: (60.993, 69.566)]</title>
</use>
<use transform="translate(40.210033 79.563866), rotate(90)" xlink:href="#item_1">
<title>item, id: 1, transf: [r: 90.000°, t: (40.210, 79.564)]</title>
</use>
<use transform="translate(33.400528 79.163025), rotate(90)" xlink:href="#item_1">
<title>item, id: 1, transf: [r: 90.000°, t: (33.401, 79.163)]</title>
</use>
<use transform="translate(30.167206 30.2496), rotate(90)" xlink:href="#item_1">
<title>item, id: 1, transf: [r: 90.000°, t: (30.167, 30.250)]</title>
</use>
<use transform="translate(26.00158 14.89079), rotate(90)" xlink:href="#item_1">
<title>item, id: 1, transf: [r: 90.000°, t: (26.002, 14.891)]</title>
</use>
<use transform="translate(10.000187 38.98215), rotate(-90)" xlink:href="#item_4">
<title>item, id: 4, transf: [r: -90.000°, t: (10.000, 38.982)]</title>
</use>
<use transform="translate(56.986614 62.56451), rotate(-180)" xlink:href="#item_4">
<title>item, id: 4, transf: [r: -180.000°, t: (56.987, 62.565)]</title>
</use>
<use transform="translate(56.003628 73.674805), rotate(-180)" xlink:href="#item_4">
<title>item, id: 4, transf: [r: -180.000°, t: (56.004, 73.675)]</title>
</use>
<use transform="translate(0.000051498413 28.002224), rotate(0)" xlink:href="#item_4">
<title>item, id: 4, transf: [r: 0.000°, t: (0.000, 28.002)]</title>
</use>
<use transform="translate(31.773952 103.95573), rotate(-90)" xlink:href="#item_5">
<title>item, id: 5, transf: [r: -90.000°, t: (31.774, 103.956)]</title>
</use>
<use transform="translate(76.00396 69.57278), rotate(90)" xlink:href="#item_5">
<title>item, id: 5, transf: [r: 90.000°, t: (76.004, 69.573)]</title>
</use>
<use transform="translate(35.719093 99.60483), rotate(-180)" xlink:href="#item_5">
<title>item, id: 5, transf: [r: -180.000°, t: (35.719, 99.605)]</title>
</use>
<use transform="translate(75.1557 72.805504), rotate(90)" xlink:href="#item_5">
<title>item, id: 5, transf: [r: 90.000°, t: (75.156, 72.806)]</title>
</use>
</g>
<g id="quality_zones"/>
<g id="optionals">
<g id="overlap_lines" transform="translate(0 0), rotate(0)"/>
</g>
<text font-family="monospace" font-size="1.9000996" font-weight="500" x="0" y="-0.9500498">
height: 104.000 | width: 76.004 | usage: 91.012% | final_bench_100
</text>
</svg>