<svg viewBox="-3.8000607 -5.2000012 83.601326 114.40001" xmlns="http://www.w3.org/2000/svg" xmlns:xlink="http://www.w3.org/1999/xlink">
<g id="bin_0">
<path d="M0,0 L76.0012,0 L76.0012,104 L0,104 z" fill="#D3D3D3" stroke="black" stroke-width="0.41800666"/>
<title>bin, id: 0, bbox: [x_min: 0.000, y_min: 0.000, x_max: 76.001, y_max: 104.000]</title>
</g>
<g id="items">
<defs>
<g id="item_0">
<path d="M0,0 L21,0 L21,22 L14,28 L7,28 L0,22 z" fill="#7A7A7A" fill-opacity="0.5" fill-rule="nonzero" stroke="black" stroke-width="0.20900333"/>
</g>
<g id="item_1">
<path d="M0,5 L2,0 L11,2 L19,0 L21,5 L17,4 L11,6 L4,4 z" fill="#7A7A7A" fill-opacity="0.5" fill-rule="nonzero" stroke="black" stroke-width="0.20900333"/>
</g>
<g id="item_2">
<path d="M0,0 L33,0 L33,14 L30,14 L26,17 L13,15 L0,17 z" fill="#7A7A7A" fill-opacity="0.5" fill-rule="nonzero" stroke="black" stroke-width="0.20900333"/>
</g>
<g id="item_3">
<path d="M0,0 L4,0 L4,39 L0,39 z" fill="#7A7A7A" fill-opacity="0.5" fill-rule="nonzero" stroke="black" stroke-width="0.20900333"/>
</g>
<g id="item_4">
<path d="M0,0 L10,0 L10,11 L0,11 z" fill="#7A7A7A" fill-opacity="0.5" fill-rule="nonzero" stroke="black" stroke-width="0.20900333"/>
</g>
<g id="item_5">
<path d="M2,20 L0,18 L2,10 L0,2 L2,0 L4,10 z" fill="#7A7A7A" fill-opacity="0.5" fill-rule="nonzero" stroke="black" stroke-width="0.20900333"/>
</g>
<g id="item_6">
<path d="M0,0 L29,0 L27,12 L29,22 L25,26 L25,33 L18,37 L16,35 L14,35 L12,37 L4,34 L4,26 L0,22 L2,12 z" fill="#7A7A7A" fill-opacity="0.5" fill-rule="nonzero" stroke="black" stroke-width="0.20900333"/>
</g>
<g id="item_7">
<path d="M0,0 L33,0 L37,6 L35,13 L28,13 L25,15 L14,13 L0,15 z" fill="#7A7A7A" fill-opacity="0.5" fill-rule="nonzero" stroke="black" stroke-width="0.20900333"/>
</g>
</defs>
<use transform="translate(76.000984 15.734865), rotate(90)" xlink:href="#item_6">
<title>item, id: 6, transf: [r: 90.000°, t: (76.001, 15.735)]</title>
</use>
<use transform="translate(75.99893 57.951965), rotate(90)" xlink:href="#item_6">
<title>item, id: 6, transf: [r: 90.000°, t: (75.999, 57.952)]</title>
</use>
<use transform="translate(42.28311 0.0019564629), rotate(0)" xlink:href="#item_2">
<title>item, id: 2, transf: [r: 0.000°, t: (42.283, 0.002)]</title>
</use>
<use transform="translate(76.00104 103.9999), rotate(-180)" xlink:href="#item_2">
<title>item, id: 2, transf: [r: -180.000°, t: (76.001, 104.000)]</title>
</use>
<use transform="translate(37.03289 28.28151), rotate(-180)" xlink:href="#item_7">
<title>item, id: 7, transf: [r: -180.000°, t: (37.033, 28.282)]</title>
</use>
<use transform="translate(0.0007686615 0.00022315979), rotate(0)" xlink:href="#item_7">
<title>item, id: 7, transf: [r: 0.000°, t: (0.001, 0.000)]</title>
</use>
<use transform="translate(28.000969 40.994514), rotate(90)" xlink:href="#item_0">
<title>item, id: 0, transf: [r: 90.000°, t: (28.001, 40.995)]</title>
</use>
<use transform="translate(4.1444798 82.996254), rotate(-90)" xlink:href="#item_0">
<title>item, id: 0, transf: [r: -90.000°, t: (4.144, 82.996)]</title>
</use>
<use transform="translate(43.000862 82.99936), rotate(90)" xlink:href="#item_0">
<title>item, id: 0, transf: [r: 90.000°, t: (43.001, 82.999)]</title>
</use>
<use transform="translate(28.00108 61.932133), rotate(-90)" xlink:href="#item_0">
<title>item, id: 0, transf: [r: -90.000°, t: (28.001, 61.932)]</title>
</use>
<use transform="translate(4.0000525 98.66331), rotate(-180)" xlink:href="#item_3">
<title>item, id: 3, transf: [r: -180.000°, t: (4.000, 98.663)]</title>
</use>
<use transform="translate(39.002502 28.281559), rotate(90)" xlink:href="#item_3">
<title>item, id: 3, transf: [r: 90.000°, t: (39.003, 28.282)]</title>
</use>
<use transform="translate(42.282566 0.030449867), rotate(90)" xlink:href="#item_1">
<title>item, id: 1, transf: [r: 90.000°, t: (42.283, 0.030)]</title>
</use>
<use transform="translate(19.474209 34.926064), rotate(0)" xlink:href="#item_1">
<title>item, id: 1, transf: [r: 0.000°, t: (19.474, 34.926)]</title>
</use>
<use transform="translate(31.034946 82.99913), rotate(-90)" xlink:href="#item_1">
<title>item, id: 1, transf: [r: -90.000°, t: (31.035, 82.999)]</title>
</use>
<use transform="translate(21.001133 40.99074), rotate(-180)" xlink:href="#item_1">
<title>item, id: 1, transf: [r: -180.000°, t: (21.001, 40.991)]</title>
</use>
<use transform="translate(76.00116 55.927063), rotate(-180)" xlink:href="#item_4">
<title>item, id: 4, transf: [r: -180.000°, t: (76.001, 55.927)]</title>
</use>
<use transform="translate(4.000125 92.99758), rotate(-90)" xlink:href="#item_4">
<title>item, id: 4, transf: [r: -90.000°, t: (4.000, 92.998)]</title>
</use>
<use transform="translate(56.001102 44.80294), rotate(0)" xlink:href="#item_4">
<title>item, id: 4, transf: [r: 0.000°, t: (56.001, 44.803)]</title>
</use>
<use transform="translate(15.0001135 93.98738), rotate(90)" xlink:href="#item_4">
<title>item, id: 4, transf: [r: 90.000°, t: (15.000, 93.987)]</title>
</use>
<use transform="translate(39.309208 32.281685), rotate(90)" xlink:href="#item_5">
<title>item, id: 5, transf: [r: 90.000°, t: (39.309, 32.282)]</title>
</use>
<use transform="translate(35.46029 62.32448), rotate(0)" xlink:href="#item_5">
<title>item, id: 5, transf: [r: 0.000°, t: (35.460, 62.324)]</title>
</use>
<use transform="translate(73.8985 55.931366), rotate(90)" xlink:href="#item_5">
<title>item, id: 5, transf: [r: 90.000°, t: (73.898, 55.931)]</title>
</use>
<use transform="translate(0.35154438 36.574215), rotate(-90)" xlink:href="#item_5">
<title>item, id: 5, transf: [r: -90.000°, t: (0.352, 36.574)]</title>
</use>
</g>
<g id="quality_zones"/>
<g id="optionals">
<g id="overlap_lines" transform="translate(0 0), rotate(0)"/>
</g>
<text font-family="monospace" font-size="1.90003" font-weight="500" x="0" y="-0.950015">
height: 104.000 | width: 76.001 | usage: 91.016% | final_bench_31
</text>
</svg>