<svg viewBox="-3.8027813 -5.2000012 83.66117 114.40001" xmlns="http://www.w3.org/2000/svg" xmlns:xlink="http://www.w3.org/1999/xlink">
<g id="bin_0">
<path d="M0,0 L76.05561,0 L76.05561,104 L0,104 z" fill="#D3D3D3" stroke="black" stroke-width="0.41830587"/>
<title>bin, id: 0, bbox: [x_min: 0.000, y_min: 0.000, x_max: 76.056, y_max: 104.000]</title>
</g>
<g id="items">
<defs>
<g id="item_0">
<path d="M0,0 L21,0 L21,22 L14,28 L7,28 L0,22 z" fill="#7A7A7A" fill-opacity="0.5" fill-rule="nonzero" stroke="black" stroke-width="0.20915294"/>
</g>
<g id="item_1">
<path d="M0,5 L2,0 L11,2 L19,0 L21,5 L17,4 L11,6 L4,4 z" fill="#7A7A7A" fill-opacity="0.5" fill-rule="nonzero" stroke="black" stroke-width="0.20915294"/>
</g>
<g id="item_2">
<path d="M0,0 L33,0 L33,14 L30,14 L26,17 L13,15 L0,17 z" fill="#7A7A7A" fill-opacity="0.5" fill-rule="nonzero" stroke="black" stroke-width="0.20915294"/>
</g>
<g id="item_3">
<path d="M0,0 L4,0 L4,39 L0,39 z" fill="#7A7A7A" fill-opacity="0.5" fill-rule="nonzero" stroke="black" stroke-width="0.20915294"/>
</g>
<g id="item_4">
<path d="M0,0 L10,0 L10,11 L0,11 z" fill="#7A7A7A" fill-opacity="0.5" fill-rule="nonzero" stroke="black" stroke-width="0.20915294"/>
</g>
<g id="item_5">
<path d="M2,20 L0,18 L2,10 L0,2 L2,0 L4,10 z" fill="#7A7A7A" fill-opacity="0.5" fill-rule="nonzero" stroke="black" stroke-width="0.20915294"/>
</g>
<g id="item_6">
<path d="M0,0 L29,0 L27,12 L29,22 L25,26 L25,33 L18,37 L16,35 L14,35 L12,37 L4,34 L4,26 L0,22 L2,12 z" fill="#7A7A7A" fill-opacity="0.5" fill-rule="nonzero" stroke="black" stroke-width="0.20915294"/>
</g>
<g id="item_7">
<path d="M0,0 L33,0 L37,6 L35,13 L28,13 L25,15 L14,13 L0,15 z" fill="#7A7A7A" fill-opacity="0.5" fill-rule="nonzero" stroke="black" stroke-width="0.20915294"/>
</g>
</defs>
<use transform="translate(41.003677 50.377937), rotate(90)" xlink:href="#item_6">
<title>item, id: 6, transf: [r: 90.000°, t: (41.004, 50.378)]</title>
</use>
<use transform="translate(17.182644 0.0007266998), rotate(0)" xlink:href="#item_6">
<title>item, id: 6, transf: [r: 0.000°, t: (17.183, 0.001)]</title>
</use>
<use transform="translate(76.03499 103.999886), rotate(-180)" xlink:href="#item_2">
<title>item, id: 2, transf: [r: -180.000°, t: (76.035, 104.000)]</title>
</use>
<use transform="translate(76.05489 39.128716), rotate(-180)" xlink:href="#item_2">
<title>item, id: 2, transf: [r: -180.000°, t: (76.055, 39.129)]</title>
</use>
<use transform="translate(5.147354 37.03355), rotate(0)" xlink:href="#item_7">
<title>item, id: 7, transf: [r: 0.000°, t: (5.147, 37.034)]</title>
</use>
<use transform="translate(4.0008373 37.000244), rotate(-90)" xlink:href="#item_7">
<title>item, id: 7, transf: [r: -90.000°, t: (4.001, 37.000)]</title>
</use>
<use transform="translate(76.05282 39.12875), rotate(90)" xlink:href="#item_0">
<title>item, id: 0, transf: [r: 90.000°, t: (76.053, 39.129)]</title>
</use>
<use transform="translate(21.00008 103.99991), rotate(-180)" xlink:href="#item_0">
<title>item, id: 0, transf: [r: -180.000°, t: (21.000, 104.000)]</title>
</use>
<use transform="translate(76.050835 0.20556355), rotate(90)" xlink:href="#item_0">
<title>item, id: 0, transf: [r: 90.000°, t: (76.051, 0.206)]</title>
</use>
<use transform="translate(54.690384 60.1291), rotate(0)" xlink:href="#item_0">
<title>item, id: 0, transf: [r: 0.000°, t: (54.690, 60.129)]</title>
</use>
<use transform="translate(0.00004839897 0.0019493103), rotate(0)" xlink:href="#item_3">
<title>item, id: 3, transf: [r: 0.000°, t: (0.000, 0.002)]</title>
</use>
<use transform="translate(4.002156 78.00369), rotate(-180)" xlink:href="#item_3">
<title>item, id: 3, transf: [r: -180.000°, t: (4.002, 78.004)]</title>
</use>
<use transform="translate(42.577347 83.99618), rotate(-180)" xlink:href="#item_1">
<title>item, id: 1, transf: [r: -180.000°, t: (42.577, 83.996)]</title>
</use>
<use transform="translate(46.747543 38.609455), rotate(90)" xlink:href="#item_1">
<title>item, id: 1, transf: [r: 90.000°, t: (46.748, 38.609)]</title>
</use>
<use transform="translate(48.683903 86.55661), rotate(-90)" xlink:href="#item_1">
<title>item, id: 1, transf: [r: -90.000°, t: (48.684, 86.557)]</title>
</use>
<use transform="translate(47.003693 60.321564), rotate(90)" xlink:href="#item_1">
<title>item, id: 1, transf: [r: 90.000°, t: (47.004, 60.322)]</title>
</use>
<use transform="translate(32.03241 93.99623), rotate(-90)" xlink:href="#item_4">
<title>item, id: 4, transf: [r: -90.000°, t: (32.032, 93.996)]</title>
</use>
<use transform="translate(32.009094 83.9977), rotate(90)" xlink:href="#item_4">
<title>item, id: 4, transf: [r: 90.000°, t: (32.009, 83.998)]</title>
</use>
<use transform="translate(21.00801 103.9996), rotate(-90)" xlink:href="#item_4">
<title>item, id: 4, transf: [r: -90.000°, t: (21.008, 104.000)]</title>
</use>
<use transform="translate(32.024593 103.99777), rotate(-90)" xlink:href="#item_4">
<title>item, id: 4, transf: [r: -90.000°, t: (32.025, 103.998)]</title>
</use>
<use transform="translate(45.021492 69.25939), rotate(0)" xlink:href="#item_5">
<title>item, id: 5, transf: [r: 0.000°, t: (45.021, 69.259)]</title>
</use>
<use transform="translate(50.681362 77.55352), rotate(-180)" xlink:href="#item_5">
<title>item, id: 5, transf: [r: -180.000°, t: (50.681, 77.554)]</title>
</use>
<use transform="translate(48.97583 21.431046), rotate(-180)" xlink:href="#item_5">
<title>item, id: 5, transf: [r: -180.000°, t: (48.976, 21.431)]</title>
</use>
<use transform="translate(49.052372 59.128933), rotate(-180)" xlink:href="#item_5">
<title>item, id: 5, transf: [r: -180.000°, t: (49.052, 59.129)]</title>
</use>
</g>
<g id="quality_zones"/>
<g id="optionals">
<g id="overlap_lines" transform="translate(0 0), rotate(0)"/>
</g>
<text font-family="monospace" font-size="1.9013903" font-weight="500" x="0" y="-0.95069516">
height: 104.000 | width: 76.056 | usage: 90.951% | final_bench_75
</text>
</svg>