<svg viewBox="-3.825604 -5.2000012 84.16328 114.40001" xmlns="http://www.w3.org/2000/svg" xmlns:xlink="http://www.w3.org/1999/xlink">
<g id="bin_0">
<path d="M0,0 L76.51206,0 L76.51206,104 L0,104 z" fill="#D3D3D3" stroke="black" stroke-width="0.4208164"/>
<title>bin, id: 0, bbox: [x_min: 0.000, y_min: 0.000, x_max: 76.512, y_max: 104.000]</title>
</g>
<g id="items">
<defs>
<g id="item_0">
<path d="M0,0 L21,0 L21,22 L14,28 L7,28 L0,22 z" fill="#7A7A7A" fill-opacity="0.5" fill-rule="nonzero" stroke="black" stroke-width="0.2104082"/>
</g>
<g id="item_1">
<path d="M0,5 L2,0 L11,2 L19,0 L21,5 L17,4 L11,6 L4,4 z" fill="#7A7A7A" fill-opacity="0.5" fill-rule="nonzero" stroke="black" stroke-width="0.2104082"/>
</g>
<g id="item_2">
<path d="M0,0 L33,0 L33,14 L30,14 L26,17 L13,15 L0,17 z" fill="#7A7A7A" fill-opacity="0.5" fill-rule="nonzero" stroke="black" stroke-width="0.2104082"/>
</g>
<g id="item_3">
<path d="M0,0 L4,0 L4,39 L0,39 z" fill="#7A7A7A" fill-opacity="0.5" fill-rule="nonzero" stroke="black" stroke-width="0.2104082"/>
</g>
<g id="item_4">
<path d="M0,0 L10,0 L10,11 L0,11 z" fill="#7A7A7A" fill-opacity="0.5" fill-rule="nonzero" stroke="black" stroke-width="0.2104082"/>
</g>
<g id="item_5">
<path d="M2,20 L0,18 L2,10 L0,2 L2,0 L4,10 z" fill="#7A7A7A" fill-opacity="0.5" fill-rule="nonzero" stroke="black" stroke-width="0.2104082"/>
</g>
<g id="item_6">
<path d="M0,0 L29,0 L27,12 L29,22 L25,26 L25,33 L18,37 L16,35 L14,35 L12,37 L4,34 L4,26 L0,22 L2,12 z" fill="#7A7A7A" fill-opacity="0.5" fill-rule="nonzero" stroke="black" stroke-width="0.2104082"/>
</g>
<g id="item_7">
<path d="M0,0 L33,0 L37,6 L35,13 L28,13 L25,15 L14,13 L0,15 z" fill="#7A7A7A" fill-opacity="0.5" fill-rule="nonzero" stroke="black" stroke-width="0.2104082"/>
</g>
</defs>
<use transform="translate(32.76111 90.815475), rotate(-90)" xlink:href="#item_6">
<title>item, id: 6, transf: [r: -90.000°, t: (32.761, 90.815)]</title>
</use>
<use transform="translate(47.497723 0.003921509), rotate(0)" xlink:href="#item_6">
<title>item, id: 6, transf: [r: 0.000°, t: (47.498, 0.004)]</title>
</use>
<use transform="translate(32.761017 69.93952), rotate(90)" xlink:href="#item_2">
<title>item, id: 2, transf: [r: 90.000°, t: (32.761, 69.940)]</title>
</use>
<use transform="translate(0.00014400482 103.99974), rotate(-90)" xlink:href="#item_2">
<title>item, id: 2, transf: [r: -90.000°, t: (0.000, 104.000)]</title>
</use>
<use transform="translate(0.006624222 28.002567), rotate(0)" xlink:href="#item_7">
<title>item, id: 7, transf: [r: 0.000°, t: (0.007, 28.003)]</title>
</use>
<use transform="translate(69.763855 103.999344), rotate(-180)" xlink:href="#item_7">
<title>item, id: 7, transf: [r: -180.000°, t: (69.764, 103.999)]</title>
</use>
<use transform="translate(0.00008678436 0.0013246536), rotate(0)" xlink:href="#item_0">
<title>item, id: 0, transf: [r: 0.000°, t: (0.000, 0.001)]</title>
</use>
<use transform="translate(21.456253 69.93868), rotate(-180)" xlink:href="#item_0">
<title>item, id: 0, transf: [r: -180.000°, t: (21.456, 69.939)]</title>
</use>
<use transform="translate(51.506542 37.004345), rotate(0)" xlink:href="#item_0">
<title>item, id: 0, transf: [r: 0.000°, t: (51.507, 37.004)]</title>
</use>
<use transform="translate(21.001438 0.00022506714), rotate(0)" xlink:href="#item_0">
<title>item, id: 0, transf: [r: 0.000°, t: (21.001, 0.000)]</title>
</use>
<use transform="translate(72.51186 64.99419), rotate(0)" xlink:href="#item_3">
<title>item, id: 3, transf: [r: 0.000°, t: (72.512, 64.994)]</title>
</use>
<use transform="translate(76.511444 64.993256), rotate(-180)" xlink:href="#item_3">
<title>item, id: 3, transf: [r: -180.000°, t: (76.511, 64.993)]</title>
</use>
<use transform="translate(41.381588 46.637325), rotate(-90)" xlink:href="#item_1">
<title>item, id: 1, transf: [r: -90.000°, t: (41.382, 46.637)]</title>
</use>
<use transform="translate(36.620747 45.615925), rotate(-90)" xlink:href="#item_1">
<title>item, id: 1, transf: [r: -90.000°, t: (36.621, 45.616)]</title>
</use>
<use transform="translate(45.92844 46.45827), rotate(-90)" xlink:href="#item_1">
<title>item, id: 1, transf: [r: -90.000°, t: (45.928, 46.458)]</title>
</use>
<use transform="translate(48.188717 5.9132414), rotate(90)" xlink:href="#item_1">
<title>item, id: 1, transf: [r: 90.000°, t: (48.189, 5.913)]</title>
</use>
<use transform="translate(32.48577 59.934555), rotate(90)" xlink:href="#item_4">
<title>item, id: 4, transf: [r: 90.000°, t: (32.486, 59.935)]</title>
</use>
<use transform="translate(51.50587 59.57693), rotate(-180)" xlink:href="#item_4">
<title>item, id: 4, transf: [r: -180.000°, t: (51.506, 59.577)]</title>
</use>
<use transform="translate(31.470848 48.74305), rotate(0)" xlink:href="#item_4">
<title>item, id: 4, transf: [r: 0.000°, t: (31.471, 48.743)]</title>
</use>
<use transform="translate(21.460297 48.875416), rotate(0)" xlink:href="#item_4">
<title>item, id: 4, transf: [r: 0.000°, t: (21.460, 48.875)]</title>
</use>
<use transform="translate(68.5118 65.814644), rotate(0)" xlink:href="#item_5">
<title>item, id: 5, transf: [r: 0.000°, t: (68.512, 65.815)]</title>
</use>
<use transform="translate(54.33901 59.74494), rotate(90)" xlink:href="#item_5">
<title>item, id: 5, transf: [r: 90.000°, t: (54.339, 59.745)]</title>
</use>
<use transform="translate(36.95809 41.997448), rotate(90)" xlink:href="#item_5">
<title>item, id: 5, transf: [r: 90.000°, t: (36.958, 41.997)]</title>
</use>
<use transform="translate(25.772884 48.57669), rotate(-90)" xlink:href="#item_5">
<title>item, id: 5, transf: [r: -90.000°, t: (25.773, 48.577)]</title>
</use>
</g>
<g id="quality_zones"/>
<g id="optionals">
<g id="overlap_lines" transform="translate(0 0), rotate(0)"/>
</g>
<text font-family="monospace" font-size="1.9128016" font-weight="500" x="0" y="-0.9564008">
height: 104.000 | width: 76.512 | usage: 90.408% | final_bench_53
</text>
</svg>