<svg viewBox="-3.8138049 -5.2000012 83.90369 114.40001" xmlns="http://www.w3.org/2000/svg" xmlns:xlink="http://www.w3.org/1999/xlink">
<g id="bin_0">
<path d="M0,0 L76.27608,0 L76.27608,104 L0,104 z" fill="#D3D3D3" stroke="black" stroke-width="0.41951847"/>
<title>bin, id: 0, bbox: [x_min: 0.000, y_min: 0.000, x_max: 76.276, y_max: 104.000]</title>
</g>
<g id="items">
<defs>
<g id="item_0">
<path d="M0,0 L21,0 L21,22 L14,28 L7,28 L0,22 z" fill="#7A7A7A" fill-opacity="0.5" fill-rule="nonzero" stroke="black" stroke-width="0.20975924"/>
</g>
<g id="item_1">
<path d="M0,5 L2,0 L11,2 L19,0 L21,5 L17,4 L11,6 L4,4 z" fill="#7A7A7A" fill-opacity="0.5" fill-rule="nonzero" stroke="black" stroke-width="0.20975924"/>
</g>
<g id="item_2">
<path d="M0,0 L33,0 L33,14 L30,14 L26,17 L13,15 L0,17 z" fill="#7A7A7A" fill-opacity="0.5" fill-rule="nonzero" stroke="black" stroke-width="0.20975924"/>
</g>
<g id="item_3">
<path d="M0,0 L4,0 L4,39 L0,39 z" fill="#7A7A7A" fill-opacity="0.5" fill-rule="nonzero" stroke="black" stroke-width="0.20975924"/>
</g>
<g id="item_4">
<path d="M0,0 L10,0 L10,11 L0,11 z" fill="#7A7A7A" fill-opacity="0.5" fill-rule="nonzero" stroke="black" stroke-width="0.20975924"/>
</g>
<g id="item_5">
<path d="M2,20 L0,18 L2,10 L0,2 L2,0 L4,10 z" fill="#7A7A7A" fill-opacity="0.5" fill-rule="nonzero" stroke="black" stroke-width="0.20975924"/>
</g>
<g id="item_6">
<path d="M0,0 L29,0 L27,12 L29,22 L25,26 L25,33 L18,37 L16,35 L14,35 L12,37 L4,34 L4,26 L0,22 L2,12 z" fill="#7A7A7A" fill-opacity="0.5" fill-rule="nonzero" stroke="black" stroke-width="0.20975924"/>
</g>
<g id="item_7">
<path d="M0,0 L33,0 L37,6 L35,13 L28,13 L25,15 L14,13 L0,15 z" fill="#7A7A7A" fill-opacity="0.5" fill-rule="nonzero" stroke="black" stroke-width="0.20975924"/>
</g>
</defs>
<use transform="translate(29.000557 82.99522), rotate(-180)" xlink:href="#item_6">
<title>item, id: 6, transf: [r: -180.000°, t: (29.001, 82.995)]</title>
</use>
<use transform="translate(0.01086235 46.628143), rotate(-90)" xlink:href="#item_6">
<title>item, id: 6, transf: [r: -90.000°, t: (0.011, 46.628)]</title>
</use>
<use transform="translate(51.27493 51.692413), rotate(90)" xlink:href="#item_2">
<title>item, id: 2, transf: [r: 90.000°, t: (51.275, 51.692)]</title>
</use>
<use transform="translate(72.19147 51.69234), rotate(-180)" xlink:href="#item_2">
<title>item, id: 2, transf: [r: -180.000°, t: (72.191, 51.692)]</title>
</use>
<use transform="translate(37.015343 21.00291), rotate(0)" xlink:href="#item_7">
<title>item, id: 7, transf: [r: 0.000°, t: (37.015, 21.003)]</title>
</use>
<use transform="translate(76.00767 99.999466), rotate(-180)" xlink:href="#item_7">
<title>item, id: 7, transf: [r: -180.000°, t: (76.008, 99.999)]</title>
</use>
<use transform="translate(11.006571 103.99966), rotate(-90)" xlink:href="#item_0">
<title>item, id: 0, transf: [r: -90.000°, t: (11.007, 104.000)]</title>
</use>
<use transform="translate(48.272373 21.001709), rotate(-90)" xlink:href="#item_0">
<title>item, id: 0, transf: [r: -90.000°, t: (48.272, 21.002)]</title>
</use>
<use transform="translate(48.2715 0.00026988983), rotate(90)" xlink:href="#item_0">
<title>item, id: 0, transf: [r: 90.000°, t: (48.271, 0.000)]</title>
</use>
<use transform="translate(51.275932 51.692493), rotate(0)" xlink:href="#item_0">
<title>item, id: 0, transf: [r: 0.000°, t: (51.276, 51.692)]</title>
</use>
<use transform="translate(72.27596 45.990715), rotate(0)" xlink:href="#item_3">
<title>item, id: 3, transf: [r: 0.000°, t: (72.276, 45.991)]</title>
</use>
<use transform="translate(75.48357 99.99961), rotate(90)" xlink:href="#item_3">
<title>item, id: 3, transf: [r: 90.000°, t: (75.484, 100.000)]</title>
</use>
<use transform="translate(28.987944 83.37121), rotate(-90)" xlink:href="#item_1">
<title>item, id: 1, transf: [r: -90.000°, t: (28.988, 83.371)]</title>
</use>
<use transform="translate(35.804237 42.633587), rotate(90)" xlink:href="#item_1">
<title>item, id: 1, transf: [r: 90.000°, t: (35.804, 42.634)]</title>
</use>
<use transform="translate(51.27559 78.58201), rotate(0)" xlink:href="#item_1">
<title>item, id: 1, transf: [r: 0.000°, t: (51.276, 78.582)]</title>
</use>
<use transform="translate(0.072668076 11.007959), rotate(0)" xlink:href="#item_1">
<title>item, id: 1, transf: [r: 0.000°, t: (0.073, 11.008)]</title>
</use>
<use transform="translate(11.001899 93.999954), rotate(90)" xlink:href="#item_4">
<title>item, id: 4, transf: [r: 90.000°, t: (11.002, 94.000)]</title>
</use>
<use transform="translate(10.269611 0.0036649704), rotate(0)" xlink:href="#item_4">
<title>item, id: 4, transf: [r: 0.000°, t: (10.270, 0.004)]</title>
</use>
<use transform="translate(10.001444 93.99719), rotate(-180)" xlink:href="#item_4">
<title>item, id: 4, transf: [r: -180.000°, t: (10.001, 93.997)]</title>
</use>
<use transform="translate(0.049554348 0.0023880005), rotate(0)" xlink:href="#item_4">
<title>item, id: 4, transf: [r: 0.000°, t: (0.050, 0.002)]</title>
</use>
<use transform="translate(20.621958 15.395451), rotate(90)" xlink:href="#item_5">
<title>item, id: 5, transf: [r: 90.000°, t: (20.622, 15.395)]</title>
</use>
<use transform="translate(31.428514 63.13284), rotate(-180)" xlink:href="#item_5">
<title>item, id: 5, transf: [r: -180.000°, t: (31.429, 63.133)]</title>
</use>
<use transform="translate(71.77688 82.95746), rotate(90)" xlink:href="#item_5">
<title>item, id: 5, transf: [r: 90.000°, t: (71.777, 82.957)]</title>
</use>
<use transform="translate(76.24958 45.98224), rotate(-180)" xlink:href="#item_5">
<title>item, id: 5, transf: [r: -180.000°, t: (76.250, 45.982)]</title>
</use>
</g>
<g id="quality_zones"/>
<g id="optionals">
<g id="overlap_lines" transform="translate(0 0), rotate(0)"/>
</g>
<text font-family="monospace" font-size="1.906902" font-weight="500" x="0" y="-0.953451">
height: 104.000 | width: 76.276 | usage: 90.688% | final_bench_1
</text>
</svg>