<svg viewBox="-3.8015256 -5.2000012 83.63355 114.40001" xmlns="http://www.w3.org/2000/svg" xmlns:xlink="http://www.w3.org/1999/xlink">
<g id="bin_0">
<path d="M0,0 L76.030495,0 L76.030495,104 L0,104 z" fill="#D3D3D3" stroke="black" stroke-width="0.41816777"/>
<title>bin, id: 0, bbox: [x_min: 0.000, y_min: 0.000, x_max: 76.030, y_max: 104.000]</title>
</g>
<g id="items">
<defs>
<g id="item_0">
<path d="M0,0 L21,0 L21,22 L14,28 L7,28 L0,22 z" fill="#7A7A7A" fill-opacity="0.5" fill-rule="nonzero" stroke="black" stroke-width="0.20908388"/>
</g>
<g id="item_1">
<path d="M0,5 L2,0 L11,2 L19,0 L21,5 L17,4 L11,6 L4,4 z" fill="#7A7A7A" fill-opacity="0.5" fill-rule="nonzero" stroke="black" stroke-width="0.20908388"/>
</g>
<g id="item_2">
<path d="M0,0 L33,0 L33,14 L30,14 L26,17 L13,15 L0,17 z" fill="#7A7A7A" fill-opacity="0.5" fill-rule="nonzero" stroke="black" stroke-width="0.20908388"/>
</g>
<g id="item_3">
<path d="M0,0 L4,0 L4,39 L0,39 z" fill="#7A7A7A" fill-opacity="0.5" fill-rule="nonzero" stroke="black" stroke-width="0.20908388"/>
</g>
<g id="item_4">
<path d="M0,0 L10,0 L10,11 L0,11 z" fill="#7A7A7A" fill-opacity="0.5" fill-rule="nonzero" stroke="black" stroke-width="0.20908388"/>
</g>
<g id="item_5">
<path d="M2,20 L0,18 L2,10 L0,2 L2,0 L4,10 z" fill="#7A7A7A" fill-opacity="0.5" fill-rule="nonzero" stroke="black" stroke-width="0.20908388"/>
</g>
<g id="item_6">
<path d="M0,0 L29,0 L27,12 L29,22 L25,26 L25,33 L18,37 L16,35 L14,35 L12,37 L4,34 L4,26 L0,22 L2,12 z" fill="#7A7A7A" fill-opacity="0.5" fill-rule="nonzero" stroke="black" stroke-width="0.20908388"/>
</g>
<g id="item_7">
<path d="M0,0 L33,0 L37,6 L35,13 L28,13 L25,15 L14,13 L0,15 z" fill="#7A7A7A" fill-opacity="0.5" fill-rule="nonzero" stroke="black" stroke-width="0.20908388"/>
</g>
</defs>
<use transform="translate(55.740303 103.99533), rotate(-180)" xlink:href="#item_6">
<title>item, id: 6, transf: [r: -180.000°, t: (55.740, 103.995)]</title>
</use>
<use transform="translate(60.55246 66.83088), rotate(-180)" xlink:href="#item_6">
<title>item, id: 6, transf: [r: -180.000°, t: (60.552, 66.831)]</title>
</use>
<use transform="translate(37.025303 30.427755), rotate(-180)" xlink:href="#item_2">
<title>item, id: 2, transf: [r: -180.000°, t: (37.025, 30.428)]</title>
</use>
<use transform="translate(76.01259 29.01188), rotate(90)" xlink:href="#item_2">
<title>item, id: 2, transf: [r: 90.000°, t: (76.013, 29.012)]</title>
</use>
<use transform="translate(76.03048 62.01528), rotate(90)" xlink:href="#item_7">
<title>item, id: 7, transf: [r: 90.000°, t: (76.030, 62.015)]</title>
</use>
<use transform="translate(0.01747322 0.000029563904), rotate(0)" xlink:href="#item_7">
<title>item, id: 7, transf: [r: 0.000°, t: (0.017, 0.000)]</title>
</use>
<use transform="translate(0.000029563904 103.43523), rotate(-90)" xlink:href="#item_0">
<title>item, id: 0, transf: [r: -90.000°, t: (0.000, 103.435)]</title>
</use>
<use transform="translate(76.005684 0.0023708344), rotate(90)" xlink:href="#item_0">
<title>item, id: 0, transf: [r: 90.000°, t: (76.006, 0.002)]</title>
</use>
<use transform="translate(0.04037094 61.431), rotate(-90)" xlink:href="#item_0">
<title>item, id: 0, transf: [r: -90.000°, t: (0.040, 61.431)]</title>
</use>
<use transform="translate(0.473114 82.43362), rotate(-90)" xlink:href="#item_0">
<title>item, id: 0, transf: [r: -90.000°, t: (0.473, 82.434)]</title>
</use>
<use transform="translate(76.02919 21.007364), rotate(90)" xlink:href="#item_3">
<title>item, id: 3, transf: [r: 90.000°, t: (76.029, 21.007)]</title>
</use>
<use transform="translate(76.03012 25.008654), rotate(90)" xlink:href="#item_3">
<title>item, id: 3, transf: [r: 90.000°, t: (76.030, 25.009)]</title>
</use>
<use transform="translate(48.97439 0.005604744), rotate(90)" xlink:href="#item_1">
<title>item, id: 1, transf: [r: 90.000°, t: (48.974, 0.006)]</title>
</use>
<use transform="translate(60.894855 78.13624), rotate(90)" xlink:href="#item_1">
<title>item, id: 1, transf: [r: 90.000°, t: (60.895, 78.136)]</title>
</use>
<use transform="translate(42.269535 0.00010967255), rotate(90)" xlink:href="#item_1">
<title>item, id: 1, transf: [r: 90.000°, t: (42.270, 0.000)]</title>
</use>
<use transform="translate(76.029236 103.999016), rotate(-180)" xlink:href="#item_1">
<title>item, id: 1, transf: [r: -180.000°, t: (76.029, 103.999)]</title>
</use>
<use transform="translate(24.857899 30.42921), rotate(90)" xlink:href="#item_4">
<title>item, id: 4, transf: [r: 90.000°, t: (24.858, 30.429)]</title>
</use>
<use transform="translate(61.740646 77.99009), rotate(-180)" xlink:href="#item_4">
<title>item, id: 4, transf: [r: -180.000°, t: (61.741, 77.990)]</title>
</use>
<use transform="translate(24.864843 30.486904), rotate(0)" xlink:href="#item_4">
<title>item, id: 4, transf: [r: 0.000°, t: (24.865, 30.487)]</title>
</use>
<use transform="translate(2.857751 40.42963), rotate(-90)" xlink:href="#item_4">
<title>item, id: 4, transf: [r: -90.000°, t: (2.858, 40.430)]</title>
</use>
<use transform="translate(0.000026226044 14.7171135), rotate(0)" xlink:href="#item_5">
<title>item, id: 5, transf: [r: 0.000°, t: (0.000, 14.717)]</title>
</use>
<use transform="translate(29.382404 44.74094), rotate(0)" xlink:href="#item_5">
<title>item, id: 5, transf: [r: 0.000°, t: (29.382, 44.741)]</title>
</use>
<use transform="translate(44.588833 20.541533), rotate(-180)" xlink:href="#item_5">
<title>item, id: 5, transf: [r: -180.000°, t: (44.589, 20.542)]</title>
</use>
<use transform="translate(31.245722 72.26726), rotate(-180)" xlink:href="#item_5">
<title>item, id: 5, transf: [r: -180.000°, t: (31.246, 72.267)]</title>
</use>
</g>
<g id="quality_zones"/>
<g id="optionals">
<g id="overlap_lines" transform="translate(0 0), rotate(0)"/>
</g>
<text font-family="monospace" font-size="1.9007624" font-weight="500" x="0" y="-0.9503812">
height: 104.000 | width: 76.030 | usage: 90.981% | final_bench_95
</text>
</svg>