<svg viewBox="-3.8000474 -5.2000012 83.60103 114.40001" xmlns="http://www.w3.org/2000/svg" xmlns:xlink="http://www.w3.org/1999/xlink">
<g id="bin_0">
<path d="M0,0 L76.00093,0 L76.00093,104 L0,104 z" fill="#D3D3D3" stroke="black" stroke-width="0.41800517"/>
<title>bin, id: 0, bbox: [x_min: 0.000, y_min: 0.000, x_max: 76.001, y_max: 104.000]</title>
</g>
<g id="items">
<defs>
<g id="item_0">
<path d="M0,0 L21,0 L21,22 L14,28 L7,28 L0,22 z" fill="#7A7A7A" fill-opacity="0.5" fill-rule="nonzero" stroke="black" stroke-width="0.20900258"/>
</g>
<g id="item_1">
<path d="M0,5 L2,0 L11,2 L19,0 L21,5 L17,4 L11,6 L4,4 z" fill="#7A7A7A" fill-opacity="0.5" fill-rule="nonzero" stroke="black" stroke-width="0.20900258"/>
</g>
<g id="item_2">
<path d="M0,0 L33,0 L33,14 L30,14 L26,17 L13,15 L0,17 z" fill="#7A7A7A" fill-opacity="0.5" fill-rule="nonzero" stroke="black" stroke-width="0.20900258"/>
</g>
<g id="item_3">
<path d="M0,0 L4,0 L4,39 L0,39 z" fill="#7A7A7A" fill-opacity="0.5" fill-rule="nonzero" stroke="black" stroke-width="0.20900258"/>
</g>
<g id="item_4">
<path d="M0,0 L10,0 L10,11 L0,11 z" fill="#7A7A7A" fill-opacity="0.5" fill-rule="nonzero" stroke="black" stroke-width="0.20900258"/>
</g>
<g id="item_5">
<path d="M2,20 L0,18 L2,10 L0,2 L2,0 L4,10 z" fill="#7A7A7A" fill-opacity="0.5" fill-rule="nonzero" stroke="black" stroke-width="0.20900258"/>
</g>
<g id="item_6">
<path d="M0,0 L29,0 L27,12 L29,22 L25,26 L25,33 L18,37 L16,35 L14,35 L12,37 L4,34 L4,26 L0,22 L2,12 z" fill="#7A7A7A" fill-opacity="0.5" fill-rule="nonzero" stroke="black" stroke-width="0.20900258"/>
</g>
<g id="item_7">
<path d="M0,0 L33,0 L37,6 L35,13 L28,13 L25,15 L14,13 L0,15 z" fill="#7A7A7A" fill-opacity="0.5" fill-rule="nonzero" stroke="black" stroke-width="0.20900258"/>
</g>
</defs>
<use transform="translate(0.0002746582 65.74374), rotate(-90)" xlink:href="#item_6">
<title>item, id: 6, transf: [r: -90.000°, t: (0.000, 65.744)]</title>
</use>
<use transform="translate(75.80359 13.156223), rotate(90)" xlink:href="#item_6">
<title>item, id: 6, transf: [r: 90.000°, t: (75.804, 13.156)]</title>
</use>
<use transform="translate(55.000175 70.99294), rotate(90)" xlink:href="#item_2">
<title>item, id: 2, transf: [r: 90.000°, t: (55.000, 70.993)]</title>
</use>
<use transform="translate(17.49839 4.1265907), rotate(90)" xlink:href="#item_2">
<title>item, id: 2, transf: [r: 90.000°, t: (17.498, 4.127)]</title>
</use>
<use transform="translate(39.000732 0.00041913986), rotate(0)" xlink:href="#item_7">
<title>item, id: 7, transf: [r: 0.000°, t: (39.001, 0.000)]</title>
</use>
<use transform="translate(37.010838 78.939026), rotate(-180)" xlink:href="#item_7">
<title>item, id: 7, transf: [r: -180.000°, t: (37.011, 78.939)]</title>
</use>
<use transform="translate(17.766266 4.2924843), rotate(0)" xlink:href="#item_0">
<title>item, id: 0, transf: [r: 0.000°, t: (17.766, 4.292)]</title>
</use>
<use transform="translate(0.00016117096 99.940285), rotate(-90)" xlink:href="#item_0">
<title>item, id: 0, transf: [r: -90.000°, t: (0.000, 99.940)]</title>
</use>
<use transform="translate(76.00044 103.99945), rotate(-180)" xlink:href="#item_0">
<title>item, id: 0, transf: [r: -180.000°, t: (76.000, 103.999)]</title>
</use>
<use transform="translate(76.000565 75.96275), rotate(-180)" xlink:href="#item_0">
<title>item, id: 0, transf: [r: -180.000°, t: (76.001, 75.963)]</title>
</use>
<use transform="translate(0.22033119 103.9996), rotate(-90)" xlink:href="#item_3">
<title>item, id: 3, transf: [r: -90.000°, t: (0.220, 104.000)]</title>
</use>
<use transform="translate(0.00029182434 4.0683107), rotate(-90)" xlink:href="#item_3">
<title>item, id: 3, transf: [r: -90.000°, t: (0.000, 4.068)]</title>
</use>
<use transform="translate(75.99343 48.83569), rotate(-180)" xlink:href="#item_1">
<title>item, id: 1, transf: [r: -180.000°, t: (75.993, 48.836)]</title>
</use>
<use transform="translate(36.298428 44.59851), rotate(0)" xlink:href="#item_1">
<title>item, id: 1, transf: [r: 0.000°, t: (36.298, 44.599)]</title>
</use>
<use transform="translate(17.505535 31.188232), rotate(0)" xlink:href="#item_1">
<title>item, id: 1, transf: [r: 0.000°, t: (17.506, 31.188)]</title>
</use>
<use transform="translate(54.812267 49.97503), rotate(90)" xlink:href="#item_1">
<title>item, id: 1, transf: [r: 90.000°, t: (54.812, 49.975)]</title>
</use>
<use transform="translate(38.000168 99.996414), rotate(-180)" xlink:href="#item_4">
<title>item, id: 4, transf: [r: -180.000°, t: (38.000, 99.996)]</title>
</use>
<use transform="translate(37.577698 60.848183), rotate(-90)" xlink:href="#item_4">
<title>item, id: 4, transf: [r: -90.000°, t: (37.578, 60.848)]</title>
</use>
<use transform="translate(39.104816 78.98384), rotate(90)" xlink:href="#item_4">
<title>item, id: 4, transf: [r: 90.000°, t: (39.105, 78.984)]</title>
</use>
<use transform="translate(37.71867 70.99292), rotate(-90)" xlink:href="#item_4">
<title>item, id: 4, transf: [r: -90.000°, t: (37.719, 70.993)]</title>
</use>
<use transform="translate(23.693562 40.33455), rotate(-90)" xlink:href="#item_5">
<title>item, id: 5, transf: [r: -90.000°, t: (23.694, 40.335)]</title>
</use>
<use transform="translate(54.943153 41.925316), rotate(90)" xlink:href="#item_5">
<title>item, id: 5, transf: [r: 90.000°, t: (54.943, 41.925)]</title>
</use>
<use transform="translate(55.26731 44.400517), rotate(-90)" xlink:href="#item_5">
<title>item, id: 5, transf: [r: -90.000°, t: (55.267, 44.401)]</title>
</use>
<use transform="translate(51.708664 38.341915), rotate(90)" xlink:href="#item_5">
<title>item, id: 5, transf: [r: 90.000°, t: (51.709, 38.342)]</title>
</use>
</g>
<g id="quality_zones"/>
<g id="optionals">
<g id="overlap_lines" transform="translate(0 0), rotate(0)"/>
</g>
<text font-family="monospace" font-size="1.9000233" font-weight="500" x="0" y="-0.9500117">
height: 104.000 | width: 76.001 | usage: 91.016% | final_bench_99
</text>
</svg>