<svg viewBox="-3.8082001 -5.2000012 83.78038 114.40001" xmlns="http://www.w3.org/2000/svg" xmlns:xlink="http://www.w3.org/1999/xlink">
<g id="bin_0">
<path d="M0,0 L76.16399,0 L76.16399,104 L0,104 z" fill="#D3D3D3" stroke="black" stroke-width="0.41890192"/>
<title>bin, id: 0, bbox: [x_min: 0.000, y_min: 0.000, x_max: 76.164, y_max: 104.000]</title>
</g>
<g id="items">
<defs>
<g id="item_0">
<path d="M0,0 L21,0 L21,22 L14,28 L7,28 L0,22 z" fill="#7A7A7A" fill-opacity="0.5" fill-rule="nonzero" stroke="black" stroke-width="0.20945096"/>
</g>
<g id="item_1">
<path d="M0,5 L2,0 L11,2 L19,0 L21,5 L17,4 L11,6 L4,4 z" fill="#7A7A7A" fill-opacity="0.5" fill-rule="nonzero" stroke="black" stroke-width="0.20945096"/>
</g>
<g id="item_2">
<path d="M0,0 L33,0 L33,14 L30,14 L26,17 L13,15 L0,17 z" fill="#7A7A7A" fill-opacity="0.5" fill-rule="nonzero" stroke="black" stroke-width="0.20945096"/>
</g>
<g id="item_3">
<path d="M0,0 L4,0 L4,39 L0,39 z" fill="#7A7A7A" fill-opacity="0.5" fill-rule="nonzero" stroke="black" stroke-width="0.20945096"/>
</g>
<g id="item_4">
<path d="M0,0 L10,0 L10,11 L0,11 z" fill="#7A7A7A" fill-opacity="0.5" fill-rule="nonzero" stroke="black" stroke-width="0.20945096"/>
</g>
<g id="item_5">
<path d="M2,20 L0,18 L2,10 L0,2 L2,0 L4,10 z" fill="#7A7A7A" fill-opacity="0.5" fill-rule="nonzero" stroke="black" stroke-width="0.20945096"/>
</g>
<g id="item_6">
<path d="M0,0 L29,0 L27,12 L29,22 L25,26 L25,33 L18,37 L16,35 L14,35 L12,37 L4,34 L4,26 L0,22 L2,12 z" fill="#7A7A7A" fill-opacity="0.5" fill-rule="nonzero" stroke="black" stroke-width="0.20945096"/>
</g>
<g id="item_7">
<path d="M0,0 L33,0 L37,6 L35,13 L28,13 L25,15 L14,13 L0,15 z" fill="#7A7A7A" fill-opacity="0.5" fill-rule="nonzero" stroke="black" stroke-width="0.20945096"/>
</g>
</defs>
<use transform="translate(55.163506 47.104332), rotate(90)" xlink:href="#item_6">
<title>item, id: 6, transf: [r: 90.000°, t: (55.164, 47.104)]</title>
</use>
<use transform="translate(76.16333 13.202372), rotate(90)" xlink:href="#item_6">
<title>item, id: 6, transf: [r: 90.000°, t: (76.163, 13.202)]</title>
</use>
<use transform="translate(33.858658 38.883938), rotate(-180)" xlink:href="#item_2">
<title>item, id: 2, transf: [r: -180.000°, t: (33.859, 38.884)]</title>
</use>
<use transform="translate(0.00020122528 82.89435), rotate(-90)" xlink:href="#item_2">
<title>item, id: 2, transf: [r: -90.000°, t: (0.000, 82.894)]</title>
</use>
<use transform="translate(0.0018901825 8.000712), rotate(0)" xlink:href="#item_7">
<title>item, id: 7, transf: [r: 0.000°, t: (0.002, 8.001)]</title>
</use>
<use transform="translate(39.140656 0.0122618675), rotate(0)" xlink:href="#item_7">
<title>item, id: 7, transf: [r: 0.000°, t: (39.141, 0.012)]</title>
</use>
<use transform="translate(55.154594 103.99849), rotate(-180)" xlink:href="#item_0">
<title>item, id: 0, transf: [r: -180.000°, t: (55.155, 103.998)]</title>
</use>
<use transform="translate(76.16382 75.90227), rotate(-180)" xlink:href="#item_0">
<title>item, id: 0, transf: [r: -180.000°, t: (76.164, 75.902)]</title>
</use>
<use transform="translate(0.012644768 103.9996), rotate(-90)" xlink:href="#item_0">
<title>item, id: 0, transf: [r: -90.000°, t: (0.013, 104.000)]</title>
</use>
<use transform="translate(76.157234 103.97205), rotate(-180)" xlink:href="#item_0">
<title>item, id: 0, transf: [r: -180.000°, t: (76.157, 103.972)]</title>
</use>
<use transform="translate(0.065805435 4.0005436), rotate(-90)" xlink:href="#item_3">
<title>item, id: 3, transf: [r: -90.000°, t: (0.066, 4.001)]</title>
</use>
<use transform="translate(0.10824013 8.0006275), rotate(-90)" xlink:href="#item_3">
<title>item, id: 3, transf: [r: -90.000°, t: (0.108, 8.001)]</title>
</use>
<use transform="translate(50.856167 43.895416), rotate(-180)" xlink:href="#item_1">
<title>item, id: 1, transf: [r: -180.000°, t: (50.856, 43.895)]</title>
</use>
<use transform="translate(27.830906 103.7503), rotate(-90)" xlink:href="#item_1">
<title>item, id: 1, transf: [r: -90.000°, t: (27.831, 103.750)]</title>
</use>
<use transform="translate(76.1634 48.858276), rotate(-180)" xlink:href="#item_1">
<title>item, id: 1, transf: [r: -180.000°, t: (76.163, 48.858)]</title>
</use>
<use transform="translate(35.604595 42.461533), rotate(0)" xlink:href="#item_1">
<title>item, id: 1, transf: [r: 0.000°, t: (35.605, 42.462)]</title>
</use>
<use transform="translate(20.000366 49.893913), rotate(-180)" xlink:href="#item_4">
<title>item, id: 4, transf: [r: -180.000°, t: (20.000, 49.894)]</title>
</use>
<use transform="translate(19.055233 82.99687), rotate(-90)" xlink:href="#item_4">
<title>item, id: 4, transf: [r: -90.000°, t: (19.055, 82.997)]</title>
</use>
<use transform="translate(0.00009441376 38.893578), rotate(0)" xlink:href="#item_4">
<title>item, id: 4, transf: [r: 0.000°, t: (0.000, 38.894)]</title>
</use>
<use transform="translate(20.001947 39.263504), rotate(0)" xlink:href="#item_4">
<title>item, id: 4, transf: [r: 0.000°, t: (20.002, 39.264)]</title>
</use>
<use transform="translate(40.37887 38.27042), rotate(-180)" xlink:href="#item_5">
<title>item, id: 5, transf: [r: -180.000°, t: (40.379, 38.270)]</title>
</use>
<use transform="translate(37.913548 38.443657), rotate(-180)" xlink:href="#item_5">
<title>item, id: 5, transf: [r: -180.000°, t: (37.914, 38.444)]</title>
</use>
<use transform="translate(55.339485 44.401127), rotate(-90)" xlink:href="#item_5">
<title>item, id: 5, transf: [r: -90.000°, t: (55.339, 44.401)]</title>
</use>
<use transform="translate(19.055172 79.53717), rotate(-180)" xlink:href="#item_5">
<title>item, id: 5, transf: [r: -180.000°, t: (19.055, 79.537)]</title>
</use>
</g>
<g id="quality_zones"/>
<g id="optionals">
<g id="overlap_lines" transform="translate(0 0), rotate(0)"/>
</g>
<text font-family="monospace" font-size="1.9040997" font-weight="500" x="0" y="-0.95204985">
height: 104.000 | width: 76.164 | usage: 90.821% | final_bench_20
</text>
</svg>