<svg viewBox="-3.81067 -5.2000012 83.83472 114.40001" xmlns="http://www.w3.org/2000/svg" xmlns:xlink="http://www.w3.org/1999/xlink">
<g id="bin_0">
<path d="M0,0 L76.21338,0 L76.21338,104 L0,104 z" fill="#D3D3D3" stroke="black" stroke-width="0.4191736"/>
<title>bin, id: 0, bbox: [x_min: 0.000, y_min: 0.000, x_max: 76.213, y_max: 104.000]</title>
</g>
<g id="items">
<defs>
<g id="item_0">
<path d="M0,0 L21,0 L21,22 L14,28 L7,28 L0,22 z" fill="#7A7A7A" fill-opacity="0.5" fill-rule="nonzero" stroke="black" stroke-width="0.2095868"/>
</g>
<g id="item_1">
<path d="M0,5 L2,0 L11,2 L19,0 L21,5 L17,4 L11,6 L4,4 z" fill="#7A7A7A" fill-opacity="0.5" fill-rule="nonzero" stroke="black" stroke-width="0.2095868"/>
</g>
<g id="item_2">
<path d="M0,0 L33,0 L33,14 L30,14 L26,17 L13,15 L0,17 z" fill="#7A7A7A" fill-opacity="0.5" fill-rule="nonzero" stroke="black" stroke-width="0.2095868"/>
</g>
<g id="item_3">
<path d="M0,0 L4,0 L4,39 L0,39 z" fill="#7A7A7A" fill-opacity="0.5" fill-rule="nonzero" stroke="black" stroke-width="0.2095868"/>
</g>
<g id="item_4">
<path d="M0,0 L10,0 L10,11 L0,11 z" fill="#7A7A7A" fill-opacity="0.5" fill-rule="nonzero" stroke="black" stroke-width="0.2095868"/>
</g>
<g id="item_5">
<path d="M2,20 L0,18 L2,10 L0,2 L2,0 L4,10 z" fill="#7A7A7A" fill-opacity="0.5" fill-rule="nonzero" stroke="black" stroke-width="0.2095868"/>
</g>
<g id="item_6">
<path d="M0,0 L29,0 L27,12 L29,22 L25,26 L25,33 L18,37 L16,35 L14,35 L12,37 L4,34 L4,26 L0,22 L2,12 z" fill="#7A7A7A" fill-opacity="0.5" fill-rule="nonzero" stroke="black" stroke-width="0.2095868"/>
</g>
<g id="item_7">
<path d="M0,0 L33,0 L37,6 L35,13 L28,13 L25,15 L14,13 L0,15 z" fill="#7A7A7A" fill-opacity="0.5" fill-rule="nonzero" stroke="black" stroke-width="0.2095868"/>
</g>
</defs>
<use transform="translate(0.00020217896 4.2619095), rotate(0)" xlink:href="#item_6">
<title>item, id: 6, transf: [r: 0.000°, t: (0.000, 4.262)]</title>
</use>
<use transform="translate(56.681812 88.99368), rotate(-180)" xlink:href="#item_6">
<title>item, id: 6, transf: [r: -180.000°, t: (56.682, 88.994)]</title>
</use>
<use transform="translate(59.209236 103.99651), rotate(-90)" xlink:href="#item_2">
<title>item, id: 2, transf: [r: -90.000°, t: (59.209, 103.997)]</title>
</use>
<use transform="translate(76.21086 0.025533676), rotate(90)" xlink:href="#item_2">
<title>item, id: 2, transf: [r: 90.000°, t: (76.211, 0.026)]</title>
</use>
<use transform="translate(59.209152 103.997215), rotate(-180)" xlink:href="#item_7">
<title>item, id: 7, transf: [r: -180.000°, t: (59.209, 103.997)]</title>
</use>
<use transform="translate(76.21337 33.99345), rotate(90)" xlink:href="#item_7">
<title>item, id: 7, transf: [r: 90.000°, t: (76.213, 33.993)]</title>
</use>
<use transform="translate(53.000336 25.287521), rotate(90)" xlink:href="#item_0">
<title>item, id: 0, transf: [r: 90.000°, t: (53.000, 25.288)]</title>
</use>
<use transform="translate(4.008148 62.26247), rotate(-90)" xlink:href="#item_0">
<title>item, id: 0, transf: [r: -90.000°, t: (4.008, 62.262)]</title>
</use>
<use transform="translate(0.016073227 93.54505), rotate(-90)" xlink:href="#item_0">
<title>item, id: 0, transf: [r: -90.000°, t: (0.016, 93.545)]</title>
</use>
<use transform="translate(29.01643 25.254658), rotate(-90)" xlink:href="#item_0">
<title>item, id: 0, transf: [r: -90.000°, t: (29.016, 25.255)]</title>
</use>
<use transform="translate(0.0001399517 33.477737), rotate(0)" xlink:href="#item_3">
<title>item, id: 3, transf: [r: 0.000°, t: (0.000, 33.478)]</title>
</use>
<use transform="translate(0.09070587 4.2520914), rotate(-90)" xlink:href="#item_3">
<title>item, id: 3, transf: [r: -90.000°, t: (0.091, 4.252)]</title>
</use>
<use transform="translate(53.531506 52.947464), rotate(-180)" xlink:href="#item_1">
<title>item, id: 1, transf: [r: -180.000°, t: (53.532, 52.947)]</title>
</use>
<use transform="translate(53.001205 62.158684), rotate(-90)" xlink:href="#item_1">
<title>item, id: 1, transf: [r: -90.000°, t: (53.001, 62.159)]</title>
</use>
<use transform="translate(63.001625 47.157703), rotate(90)" xlink:href="#item_1">
<title>item, id: 1, transf: [r: 90.000°, t: (63.002, 47.158)]</title>
</use>
<use transform="translate(59.043407 21.73907), rotate(90)" xlink:href="#item_1">
<title>item, id: 1, transf: [r: 90.000°, t: (59.043, 21.739)]</title>
</use>
<use transform="translate(0.046010494 103.84564), rotate(-90)" xlink:href="#item_4">
<title>item, id: 4, transf: [r: -90.000°, t: (0.046, 103.846)]</title>
</use>
<use transform="translate(22.055048 93.99777), rotate(90)" xlink:href="#item_4">
<title>item, id: 4, transf: [r: 90.000°, t: (22.055, 93.998)]</title>
</use>
<use transform="translate(15.005231 62.446213), rotate(90)" xlink:href="#item_4">
<title>item, id: 4, transf: [r: 90.000°, t: (15.005, 62.446)]</title>
</use>
<use transform="translate(27.179438 62.45478), rotate(90)" xlink:href="#item_4">
<title>item, id: 4, transf: [r: 90.000°, t: (27.179, 62.455)]</title>
</use>
<use transform="translate(56.552635 2.9662895), rotate(0)" xlink:href="#item_5">
<title>item, id: 5, transf: [r: 0.000°, t: (56.553, 2.966)]</title>
</use>
<use transform="translate(58.737186 87.009415), rotate(-180)" xlink:href="#item_5">
<title>item, id: 5, transf: [r: -180.000°, t: (58.737, 87.009)]</title>
</use>
<use transform="translate(57.76416 27.861115), rotate(0)" xlink:href="#item_5">
<title>item, id: 5, transf: [r: 0.000°, t: (57.764, 27.861)]</title>
</use>
<use transform="translate(39.095684 4.167633), rotate(-90)" xlink:href="#item_5">
<title>item, id: 5, transf: [r: -90.000°, t: (39.096, 4.168)]</title>
</use>
</g>
<g id="quality_zones"/>
<g id="optionals">
<g id="overlap_lines" transform="translate(0 0), rotate(0)"/>
</g>
<text font-family="monospace" font-size="1.9053345" font-weight="500" x="0" y="-0.95266724">
height: 104.000 | width: 76.213 | usage: 90.762% | final_bench_89
</text>
</svg>