<svg viewBox="-3.7912104 -5.2000012 83.40662 114.40001" xmlns="http://www.w3.org/2000/svg" xmlns:xlink="http://www.w3.org/1999/xlink">
<g id="bin_0">
<path d="M0,0 L75.82419,0 L75.82419,104 L0,104 z" fill="#D3D3D3" stroke="black" stroke-width="0.4170331"/>
<title>bin, id: 0, bbox: [x_min: 0.000, y_min: 0.000, x_max: 75.824, y_max: 104.000]</title>
</g>
<g id="items">
<defs>
<g id="item_0">
<path d="M0,0 L21,0 L21,22 L14,28 L7,28 L0,22 z" fill="#7A7A7A" fill-opacity="0.5" fill-rule="nonzero" stroke="black" stroke-width="0.20851655"/>
</g>
<g id="item_1">
<path d="M0,5 L2,0 L11,2 L19,0 L21,5 L17,4 L11,6 L4,4 z" fill="#7A7A7A" fill-opacity="0.5" fill-rule="nonzero" stroke="black" stroke-width="0.20851655"/>
</g>
<g id="item_2">
<path d="M0,0 L33,0 L33,14 L30,14 L26,17 L13,15 L0,17 z" fill="#7A7A7A" fill-opacity="0.5" fill-rule="nonzero" stroke="black" stroke-width="0.20851655"/>
</g>
<g id="item_3">
<path d="M0,0 L4,0 L4,39 L0,39 z" fill="#7A7A7A" fill-opacity="0.5" fill-rule="nonzero" stroke="black" stroke-width="0.20851655"/>
</g>
<g id="item_4">
<path d="M0,0 L10,0 L10,11 L0,11 z" fill="#7A7A7A" fill-opacity="0.5" fill-rule="nonzero" stroke="black" stroke-width="0.20851655"/>
</g>
<g id="item_5">
<path d="M2,20 L0,18 L2,10 L0,2 L2,0 L4,10 z" fill="#7A7A7A" fill-opacity="0.5" fill-rule="nonzero" stroke="black" stroke-width="0.20851655"/>
</g>
<g id="item_6">
<path d="M0,0 L29,0 L27,12 L29,22 L25,26 L25,33 L18,37 L16,35 L14,35 L12,37 L4,34 L4,26 L0,22 L2,12 z" fill="#7A7A7A" fill-opacity="0.5" fill-rule="nonzero" stroke="black" stroke-width="0.20851655"/>
</g>
<g id="item_7">
<path d="M0,0 L33,0 L37,6 L35,13 L28,13 L25,15 L14,13 L0,15 z" fill="#7A7A7A" fill-opacity="0.5" fill-rule="nonzero" stroke="black" stroke-width="0.20851655"/>
</g>
</defs>
<use transform="translate(59.94922 61.974052), rotate(-180)" xlink:href="#item_6">
<title>item, id: 6, transf: [r: -180.000°, t: (59.949, 61.974)]</title>
</use>
<use transform="translate(29.012373 103.99727), rotate(-180)" xlink:href="#item_6">
<title>item, id: 6, transf: [r: -180.000°, t: (29.012, 103.997)]</title>
</use>
<use transform="translate(4.000483 34.244183), rotate(-90)" xlink:href="#item_2">
<title>item, id: 2, transf: [r: -90.000°, t: (4.000, 34.244)]</title>
</use>
<use transform="translate(75.82357 28.977716), rotate(90)" xlink:href="#item_2">
<title>item, id: 2, transf: [r: 90.000°, t: (75.824, 28.978)]</title>
</use>
<use transform="translate(34.822884 0.0000667572), rotate(90)" xlink:href="#item_7">
<title>item, id: 7, transf: [r: 90.000°, t: (34.823, 0.000)]</title>
</use>
<use transform="translate(47.80912 62.707504), rotate(90)" xlink:href="#item_7">
<title>item, id: 7, transf: [r: 90.000°, t: (47.809, 62.708)]</title>
</use>
<use transform="translate(25.553684 62.24741), rotate(-180)" xlink:href="#item_0">
<title>item, id: 0, transf: [r: -180.000°, t: (25.554, 62.247)]</title>
</use>
<use transform="translate(75.80915 61.97895), rotate(90)" xlink:href="#item_0">
<title>item, id: 0, transf: [r: 90.000°, t: (75.809, 61.979)]</title>
</use>
<use transform="translate(75.82291 82.984886), rotate(90)" xlink:href="#item_0">
<title>item, id: 0, transf: [r: 90.000°, t: (75.823, 82.985)]</title>
</use>
<use transform="translate(54.823837 0.8385391), rotate(0)" xlink:href="#item_0">
<title>item, id: 0, transf: [r: 0.000°, t: (54.824, 0.839)]</title>
</use>
<use transform="translate(4.0000014 39.00819), rotate(-180)" xlink:href="#item_3">
<title>item, id: 3, transf: [r: -180.000°, t: (4.000, 39.008)]</title>
</use>
<use transform="translate(4.0002656 78.00853), rotate(-180)" xlink:href="#item_3">
<title>item, id: 3, transf: [r: -180.000°, t: (4.000, 78.009)]</title>
</use>
<use transform="translate(25.003447 68.2485), rotate(-180)" xlink:href="#item_1">
<title>item, id: 1, transf: [r: -180.000°, t: (25.003, 68.248)]</title>
</use>
<use transform="translate(30.55765 56.58185), rotate(90)" xlink:href="#item_1">
<title>item, id: 1, transf: [r: 90.000°, t: (30.558, 56.582)]</title>
</use>
<use transform="translate(25.567589 57.841545), rotate(-90)" xlink:href="#item_1">
<title>item, id: 1, transf: [r: -90.000°, t: (25.568, 57.842)]</title>
</use>
<use transform="translate(29.652302 97.99913), rotate(0)" xlink:href="#item_1">
<title>item, id: 1, transf: [r: 0.000°, t: (29.652, 97.999)]</title>
</use>
<use transform="translate(54.823425 22.070316), rotate(-180)" xlink:href="#item_4">
<title>item, id: 4, transf: [r: -180.000°, t: (54.823, 22.070)]</title>
</use>
<use transform="translate(44.823105 22.182089), rotate(-180)" xlink:href="#item_4">
<title>item, id: 4, transf: [r: -180.000°, t: (44.823, 22.182)]</title>
</use>
<use transform="translate(44.823647 0.06490755), rotate(0)" xlink:href="#item_4">
<title>item, id: 4, transf: [r: 0.000°, t: (44.824, 0.065)]</title>
</use>
<use transform="translate(34.823383 0.05351591), rotate(0)" xlink:href="#item_4">
<title>item, id: 4, transf: [r: 0.000°, t: (34.823, 0.054)]</title>
</use>
<use transform="translate(35.51631 26.078844), rotate(-90)" xlink:href="#item_5">
<title>item, id: 5, transf: [r: -90.000°, t: (35.516, 26.079)]</title>
</use>
<use transform="translate(31.197145 101.074), rotate(-180)" xlink:href="#item_5">
<title>item, id: 5, transf: [r: -180.000°, t: (31.197, 101.074)]</title>
</use>
<use transform="translate(34.19335 98.09307), rotate(-180)" xlink:href="#item_5">
<title>item, id: 5, transf: [r: -180.000°, t: (34.193, 98.093)]</title>
</use>
<use transform="translate(29.23661 62.875145), rotate(0)" xlink:href="#item_5">
<title>item, id: 5, transf: [r: 0.000°, t: (29.237, 62.875)]</title>
</use>
</g>
<g id="quality_zones"/>
<g id="optionals">
<g id="overlap_lines" transform="translate(0 0), rotate(0)"/>
</g>
<text font-family="monospace" font-size="1.8956047" font-weight="500" x="0" y="-0.94780236">
height: 104.000 | width: 75.824 | usage: 91.228% | final_bench_3
</text>
</svg>