<svg viewBox="-3.8338678 -5.2000012 84.34508 114.40001" xmlns="http://www.w3.org/2000/svg" xmlns:xlink="http://www.w3.org/1999/xlink">
<g id="bin_0">
<path d="M0,0 L76.67734,0 L76.67734,104 L0,104 z" fill="#D3D3D3" stroke="black" stroke-width="0.4217254"/>
<title>bin, id: 0, bbox: [x_min: 0.000, y_min: 0.000, x_max: 76.677, y_max: 104.000]</title>
</g>
<g id="items">
<defs>
<g id="item_0">
<path d="M0,0 L21,0 L21,22 L14,28 L7,28 L0,22 z" fill="#7A7A7A" fill-opacity="0.5" fill-rule="nonzero" stroke="black" stroke-width="0.2108627"/>
</g>
<g id="item_1">
<path d="M0,5 L2,0 L11,2 L19,0 L21,5 L17,4 L11,6 L4,4 z" fill="#7A7A7A" fill-opacity="0.5" fill-rule="nonzero" stroke="black" stroke-width="0.2108627"/>
</g>
<g id="item_2">
<path d="M0,0 L33,0 L33,14 L30,14 L26,17 L13,15 L0,17 z" fill="#7A7A7A" fill-opacity="0.5" fill-rule="nonzero" stroke="black" stroke-width="0.2108627"/>
</g>
<g id="item_3">
<path d="M0,0 L4,0 L4,39 L0,39 z" fill="#7A7A7A" fill-opacity="0.5" fill-rule="nonzero" stroke="black" stroke-width="0.2108627"/>
</g>
<g id="item_4">
<path d="M0,0 L10,0 L10,11 L0,11 z" fill="#7A7A7A" fill-opacity="0.5" fill-rule="nonzero" stroke="black" stroke-width="0.2108627"/>
</g>
<g id="item_5">
<path d="M2,20 L0,18 L2,10 L0,2 L2,0 L4,10 z" fill="#7A7A7A" fill-opacity="0.5" fill-rule="nonzero" stroke="black" stroke-width="0.2108627"/>
</g>
<g id="item_6">
<path d="M0,0 L29,0 L27,12 L29,22 L25,26 L25,33 L18,37 L16,35 L14,35 L12,37 L4,34 L4,26 L0,22 L2,12 z" fill="#7A7A7A" fill-opacity="0.5" fill-rule="nonzero" stroke="black" stroke-width="0.2108627"/>
</g>
<g id="item_7">
<path d="M0,0 L33,0 L37,6 L35,13 L28,13 L25,15 L14,13 L0,15 z" fill="#7A7A7A" fill-opacity="0.5" fill-rule="nonzero" stroke="black" stroke-width="0.2108627"/>
</g>
</defs>
<use transform="translate(76.67731 103.999985), rotate(-180)" xlink:href="#item_6">
<title>item, id: 6, transf: [r: -180.000°, t: (76.677, 104.000)]</title>
</use>
<use transform="translate(14.211574 17.000072), rotate(0)" xlink:href="#item_6">
<title>item, id: 6, transf: [r: 0.000°, t: (14.212, 17.000)]</title>
</use>
<use transform="translate(15.016243 0.00001335144), rotate(0)" xlink:href="#item_2">
<title>item, id: 2, transf: [r: 0.000°, t: (15.016, 0.000)]</title>
</use>
<use transform="translate(0.00053453445 75.99763), rotate(-90)" xlink:href="#item_2">
<title>item, id: 2, transf: [r: -90.000°, t: (0.001, 75.998)]</title>
</use>
<use transform="translate(75.70768 21.014175), rotate(90)" xlink:href="#item_7">
<title>item, id: 7, transf: [r: 90.000°, t: (75.708, 21.014)]</title>
</use>
<use transform="translate(47.366432 57.626568), rotate(-90)" xlink:href="#item_7">
<title>item, id: 7, transf: [r: -90.000°, t: (47.366, 57.627)]</title>
</use>
<use transform="translate(21.000076 103.998665), rotate(-180)" xlink:href="#item_0">
<title>item, id: 0, transf: [r: -180.000°, t: (21.000, 103.999)]</title>
</use>
<use transform="translate(21.0004 103.06142), rotate(-90)" xlink:href="#item_0">
<title>item, id: 0, transf: [r: -90.000°, t: (21.000, 103.061)]</title>
</use>
<use transform="translate(23.675034 82.06061), rotate(-90)" xlink:href="#item_0">
<title>item, id: 0, transf: [r: -90.000°, t: (23.675, 82.061)]</title>
</use>
<use transform="translate(76.67642 0.00084495544), rotate(90)" xlink:href="#item_0">
<title>item, id: 0, transf: [r: 90.000°, t: (76.676, 0.001)]</title>
</use>
<use transform="translate(47.365734 57.963142), rotate(-180)" xlink:href="#item_3">
<title>item, id: 3, transf: [r: -180.000°, t: (47.366, 57.963)]</title>
</use>
<use transform="translate(0.0011868477 0.0007381439), rotate(0)" xlink:href="#item_3">
<title>item, id: 3, transf: [r: 0.000°, t: (0.001, 0.001)]</title>
</use>
<use transform="translate(18.731262 55.058605), rotate(0)" xlink:href="#item_1">
<title>item, id: 1, transf: [r: 0.000°, t: (18.731, 55.059)]</title>
</use>
<use transform="translate(74.33374 63.332664), rotate(-180)" xlink:href="#item_1">
<title>item, id: 1, transf: [r: -180.000°, t: (74.334, 63.333)]</title>
</use>
<use transform="translate(73.69277 67.994774), rotate(-180)" xlink:href="#item_1">
<title>item, id: 1, transf: [r: -180.000°, t: (73.693, 67.995)]</title>
</use>
<use transform="translate(17.67467 80.12503), rotate(-90)" xlink:href="#item_1">
<title>item, id: 1, transf: [r: -90.000°, t: (17.675, 80.125)]</title>
</use>
<use transform="translate(4.0097885 31.984188), rotate(-90)" xlink:href="#item_4">
<title>item, id: 4, transf: [r: -90.000°, t: (4.010, 31.984)]</title>
</use>
<use transform="translate(4.033886 31.99516), rotate(0)" xlink:href="#item_4">
<title>item, id: 4, transf: [r: 0.000°, t: (4.034, 31.995)]</title>
</use>
<use transform="translate(4.01571 10.010694), rotate(-90)" xlink:href="#item_4">
<title>item, id: 4, transf: [r: -90.000°, t: (4.016, 10.011)]</title>
</use>
<use transform="translate(14.211496 21.97362), rotate(-180)" xlink:href="#item_4">
<title>item, id: 4, transf: [r: -180.000°, t: (14.211, 21.974)]</title>
</use>
<use transform="translate(39.23342 52.755863), rotate(90)" xlink:href="#item_5">
<title>item, id: 5, transf: [r: 90.000°, t: (39.233, 52.756)]</title>
</use>
<use transform="translate(43.358147 60.858643), rotate(-180)" xlink:href="#item_5">
<title>item, id: 5, transf: [r: -180.000°, t: (43.358, 60.859)]</title>
</use>
<use transform="translate(76.676704 79.99647), rotate(-180)" xlink:href="#item_5">
<title>item, id: 5, transf: [r: -180.000°, t: (76.677, 79.996)]</title>
</use>
<use transform="translate(19.001947 73.00625), rotate(-180)" xlink:href="#item_5">
<title>item, id: 5, transf: [r: -180.000°, t: (19.002, 73.006)]</title>
</use>
</g>
<g id="quality_zones"/>
<g id="optionals">
<g id="overlap_lines" transform="translate(0 0), rotate(0)"/>
</g>
<text font-family="monospace" font-size="1.9169334" font-weight="500" x="0" y="-0.9584667">
height: 104.000 | width: 76.677 | usage: 90.213% | final_bench_30
</text>
</svg>