<svg viewBox="-3.8312483 -5.2000012 84.28744 114.40001" xmlns="http://www.w3.org/2000/svg" xmlns:xlink="http://www.w3.org/1999/xlink">
<g id="bin_0">
<path d="M0,0 L76.62495,0 L76.62495,104 L0,104 z" fill="#D3D3D3" stroke="black" stroke-width="0.4214372"/>
<title>bin, id: 0, bbox: [x_min: 0.000, y_min: 0.000, x_max: 76.625, y_max: 104.000]</title>
</g>
<g id="items">
<defs>
<g id="item_0">
<path d="M0,0 L21,0 L21,22 L14,28 L7,28 L0,22 z" fill="#7A7A7A" fill-opacity="0.5" fill-rule="nonzero" stroke="black" stroke-width="0.2107186"/>
</g>
<g id="item_1">
<path d="M0,5 L2,0 L11,2 L19,0 L21,5 L17,4 L11,6 L4,4 z" fill="#7A7A7A" fill-opacity="0.5" fill-rule="nonzero" stroke="black" stroke-width="0.2107186"/>
</g>
<g id="item_2">
<path d="M0,0 L33,0 L33,14 L30,14 L26,17 L13,15 L0,17 z" fill="#7A7A7A" fill-opacity="0.5" fill-rule="nonzero" stroke="black" stroke-width="0.2107186"/>
</g>
<g id="item_3">
<path d="M0,0 L4,0 L4,39 L0,39 z" fill="#7A7A7A" fill-opacity="0.5" fill-rule="nonzero" stroke="black" stroke-width="0.2107186"/>
</g>
<g id="item_4">
<path d="M0,0 L10,0 L10,11 L0,11 z" fill="#7A7A7A" fill-opacity="0.5" fill-rule="nonzero" stroke="black" stroke-width="0.2107186"/>
</g>
<g id="item_5">
<path d="M2,20 L0,18 L2,10 L0,2 L2,0 L4,10 z" fill="#7A7A7A" fill-opacity="0.5" fill-rule="nonzero" stroke="black" stroke-width="0.2107186"/>
</g>
<g id="item_6">
<path d="M0,0 L29,0 L27,12 L29,22 L25,26 L25,33 L18,37 L16,35 L14,35 L12,37 L4,34 L4,26 L0,22 L2,12 z" fill="#7A7A7A" fill-opacity="0.5" fill-rule="nonzero" stroke="black" stroke-width="0.2107186"/>
</g>
<g id="item_7">
<path d="M0,0 L33,0 L37,6 L35,13 L28,13 L25,15 L14,13 L0,15 z" fill="#7A7A7A" fill-opacity="0.5" fill-rule="nonzero" stroke="black" stroke-width="0.2107186"/>
</g>
</defs>
<use transform="translate(37.004295 13.143658), rotate(90)" xlink:href="#item_6">
<title>item, id: 6, transf: [r: 90.000°, t: (37.004, 13.144)]</title>
</use>
<use transform="translate(0.000062942505 69.759895), rotate(-90)" xlink:href="#item_6">
<title>item, id: 6, transf: [r: -90.000°, t: (0.000, 69.760)]</title>
</use>
<use transform="translate(76.62475 49.99572), rotate(90)" xlink:href="#item_2">
<title>item, id: 2, transf: [r: 90.000°, t: (76.625, 49.996)]</title>
</use>
<use transform="translate(0.0001616478 103.999985), rotate(-90)" xlink:href="#item_2">
<title>item, id: 2, transf: [r: -90.000°, t: (0.000, 104.000)]</title>
</use>
<use transform="translate(0.3007164 0.014381409), rotate(0)" xlink:href="#item_7">
<title>item, id: 7, transf: [r: 0.000°, t: (0.301, 0.014)]</title>
</use>
<use transform="translate(53.190926 82.76567), rotate(-180)" xlink:href="#item_7">
<title>item, id: 7, transf: [r: -180.000°, t: (53.191, 82.766)]</title>
</use>
<use transform="translate(76.62485 82.999725), rotate(90)" xlink:href="#item_0">
<title>item, id: 0, transf: [r: 90.000°, t: (76.625, 83.000)]</title>
</use>
<use transform="translate(48.62483 82.76793), rotate(90)" xlink:href="#item_0">
<title>item, id: 0, transf: [r: 90.000°, t: (48.625, 82.768)]</title>
</use>
<use transform="translate(58.16278 28.891533), rotate(-180)" xlink:href="#item_0">
<title>item, id: 0, transf: [r: -180.000°, t: (58.163, 28.892)]</title>
</use>
<use transform="translate(37.01726 28.898262), rotate(0)" xlink:href="#item_0">
<title>item, id: 0, transf: [r: 0.000°, t: (37.017, 28.898)]</title>
</use>
<use transform="translate(68.6237 10.988836), rotate(0)" xlink:href="#item_3">
<title>item, id: 3, transf: [r: 0.000°, t: (68.624, 10.989)]</title>
</use>
<use transform="translate(76.62376 45.00257), rotate(-180)" xlink:href="#item_3">
<title>item, id: 3, transf: [r: -180.000°, t: (76.624, 45.003)]</title>
</use>
<use transform="translate(36.672863 55.734936), rotate(0)" xlink:href="#item_1">
<title>item, id: 1, transf: [r: 0.000°, t: (36.673, 55.735)]</title>
</use>
<use transform="translate(34.060963 60.60215), rotate(0)" xlink:href="#item_1">
<title>item, id: 1, transf: [r: 0.000°, t: (34.061, 60.602)]</title>
</use>
<use transform="translate(76.27787 6.000798), rotate(-180)" xlink:href="#item_1">
<title>item, id: 1, transf: [r: -180.000°, t: (76.278, 6.001)]</title>
</use>
<use transform="translate(59.217 62.137085), rotate(90)" xlink:href="#item_1">
<title>item, id: 1, transf: [r: 90.000°, t: (59.217, 62.137)]</title>
</use>
<use transform="translate(58.602528 5.9893208), rotate(0)" xlink:href="#item_4">
<title>item, id: 4, transf: [r: 0.000°, t: (58.603, 5.989)]</title>
</use>
<use transform="translate(58.557617 38.995182), rotate(0)" xlink:href="#item_4">
<title>item, id: 4, transf: [r: 0.000°, t: (58.558, 38.995)]</title>
</use>
<use transform="translate(68.453674 27.990479), rotate(-180)" xlink:href="#item_4">
<title>item, id: 4, transf: [r: -180.000°, t: (68.454, 27.990)]</title>
</use>
<use transform="translate(68.56538 38.99428), rotate(-180)" xlink:href="#item_4">
<title>item, id: 4, transf: [r: -180.000°, t: (68.565, 38.994)]</title>
</use>
<use transform="translate(19.349384 103.26742), rotate(-180)" xlink:href="#item_5">
<title>item, id: 5, transf: [r: -180.000°, t: (19.349, 103.267)]</title>
</use>
<use transform="translate(57.46484 54.032166), rotate(0)" xlink:href="#item_5">
<title>item, id: 5, transf: [r: 0.000°, t: (57.465, 54.032)]</title>
</use>
<use transform="translate(21.749624 103.267204), rotate(-180)" xlink:href="#item_5">
<title>item, id: 5, transf: [r: -180.000°, t: (21.750, 103.267)]</title>
</use>
<use transform="translate(54.591564 64.99159), rotate(90)" xlink:href="#item_5">
<title>item, id: 5, transf: [r: 90.000°, t: (54.592, 64.992)]</title>
</use>
</g>
<g id="quality_zones"/>
<g id="optionals">
<g id="overlap_lines" transform="translate(0 0), rotate(0)"/>
</g>
<text font-family="monospace" font-size="1.9156237" font-weight="500" x="0" y="-0.95781183">
height: 104.000 | width: 76.625 | usage: 90.275% | final_bench_83
</text>
</svg>