<svg viewBox="-3.8053994 -5.2000012 83.718765 114.40001" xmlns="http://www.w3.org/2000/svg" xmlns:xlink="http://www.w3.org/1999/xlink">
<g id="bin_0">
<path d="M0,0 L76.10797,0 L76.10797,104 L0,104 z" fill="#D3D3D3" stroke="black" stroke-width="0.41859385"/>
<title>bin, id: 0, bbox: [x_min: 0.000, y_min: 0.000, x_max: 76.108, y_max: 104.000]</title>
</g>
<g id="items">
<defs>
<g id="item_0">
<path d="M0,0 L21,0 L21,22 L14,28 L7,28 L0,22 z" fill="#7A7A7A" fill-opacity="0.5" fill-rule="nonzero" stroke="black" stroke-width="0.20929693"/>
</g>
<g id="item_1">
<path d="M0,5 L2,0 L11,2 L19,0 L21,5 L17,4 L11,6 L4,4 z" fill="#7A7A7A" fill-opacity="0.5" fill-rule="nonzero" stroke="black" stroke-width="0.20929693"/>
</g>
<g id="item_2">
<path d="M0,0 L33,0 L33,14 L30,14 L26,17 L13,15 L0,17 z" fill="#7A7A7A" fill-opacity="0.5" fill-rule="nonzero" stroke="black" stroke-width="0.20929693"/>
</g>
<g id="item_3">
<path d="M0,0 L4,0 L4,39 L0,39 z" fill="#7A7A7A" fill-opacity="0.5" fill-rule="nonzero" stroke="black" stroke-width="0.20929693"/>
</g>
<g id="item_4">
<path d="M0,0 L10,0 L10,11 L0,11 z" fill="#7A7A7A" fill-opacity="0.5" fill-rule="nonzero" stroke="black" stroke-width="0.20929693"/>
</g>
<g id="item_5">
<path d="M2,20 L0,18 L2,10 L0,2 L2,0 L4,10 z" fill="#7A7A7A" fill-opacity="0.5" fill-rule="nonzero" stroke="black" stroke-width="0.20929693"/>
</g>
<g id="item_6">
<path d="M0,0 L29,0 L27,12 L29,22 L25,26 L25,33 L18,37 L16,35 L14,35 L12,37 L4,34 L4,26 L0,22 L2,12 z" fill="#7A7A7A" fill-opacity="0.5" fill-rule="nonzero" stroke="black" stroke-width="0.20929693"/>
</g>
<g id="item_7">
<path d="M0,0 L33,0 L37,6 L35,13 L28,13 L25,15 L14,13 L0,15 z" fill="#7A7A7A" fill-opacity="0.5" fill-rule="nonzero" stroke="black" stroke-width="0.20929693"/>
</g>
</defs>
<use transform="translate(76.09866 15.680658), rotate(90)" xlink:href="#item_6">
<title>item, id: 6, transf: [r: 90.000°, t: (76.099, 15.681)]</title>
</use>
<use transform="translate(29.00005 103.9944), rotate(-180)" xlink:href="#item_6">
<title>item, id: 6, transf: [r: -180.000°, t: (29.000, 103.994)]</title>
</use>
<use transform="translate(25.057482 65.474976), rotate(-90)" xlink:href="#item_2">
<title>item, id: 2, transf: [r: -90.000°, t: (25.057, 65.475)]</title>
</use>
<use transform="translate(42.181175 0.00017642975), rotate(0)" xlink:href="#item_2">
<title>item, id: 2, transf: [r: 0.000°, t: (42.181, 0.000)]</title>
</use>
<use transform="translate(0.014844894 0.00006866455), rotate(0)" xlink:href="#item_7">
<title>item, id: 7, transf: [r: 0.000°, t: (0.015, 0.000)]</title>
</use>
<use transform="translate(37.000614 28.463259), rotate(-180)" xlink:href="#item_7">
<title>item, id: 7, transf: [r: -180.000°, t: (37.001, 28.463)]</title>
</use>
<use transform="translate(54.364418 103.99975), rotate(-180)" xlink:href="#item_0">
<title>item, id: 0, transf: [r: -180.000°, t: (54.364, 104.000)]</title>
</use>
<use transform="translate(44.107826 51.20837), rotate(0)" xlink:href="#item_0">
<title>item, id: 0, transf: [r: 0.000°, t: (44.108, 51.208)]</title>
</use>
<use transform="translate(75.90889 103.99512), rotate(-180)" xlink:href="#item_0">
<title>item, id: 0, transf: [r: -180.000°, t: (75.909, 103.995)]</title>
</use>
<use transform="translate(4.0458136 32.465435), rotate(0)" xlink:href="#item_0">
<title>item, id: 0, transf: [r: 0.000°, t: (4.046, 32.465)]</title>
</use>
<use transform="translate(0.08718681 32.464096), rotate(-90)" xlink:href="#item_3">
<title>item, id: 3, transf: [r: -90.000°, t: (0.087, 32.464)]</title>
</use>
<use transform="translate(4.0000124 71.69996), rotate(-180)" xlink:href="#item_3">
<title>item, id: 3, transf: [r: -180.000°, t: (4.000, 71.700)]</title>
</use>
<use transform="translate(44.476765 45.208084), rotate(0)" xlink:href="#item_1">
<title>item, id: 1, transf: [r: 0.000°, t: (44.477, 45.208)]</title>
</use>
<use transform="translate(42.180733 0.0014591217), rotate(90)" xlink:href="#item_1">
<title>item, id: 1, transf: [r: 90.000°, t: (42.181, 0.001)]</title>
</use>
<use transform="translate(4.0019636 61.657616), rotate(0)" xlink:href="#item_1">
<title>item, id: 1, transf: [r: 0.000°, t: (4.002, 61.658)]</title>
</use>
<use transform="translate(33.364017 79.17637), rotate(90)" xlink:href="#item_1">
<title>item, id: 1, transf: [r: 90.000°, t: (33.364, 79.176)]</title>
</use>
<use transform="translate(36.963608 68.91374), rotate(90)" xlink:href="#item_4">
<title>item, id: 4, transf: [r: 90.000°, t: (36.964, 68.914)]</title>
</use>
<use transform="translate(75.48564 55.58031), rotate(-180)" xlink:href="#item_4">
<title>item, id: 4, transf: [r: -180.000°, t: (75.486, 55.580)]</title>
</use>
<use transform="translate(65.10791 75.99127), rotate(-90)" xlink:href="#item_4">
<title>item, id: 4, transf: [r: -90.000°, t: (65.108, 75.991)]</title>
</use>
<use transform="translate(65.10784 65.60719), rotate(-90)" xlink:href="#item_4">
<title>item, id: 4, transf: [r: -90.000°, t: (65.108, 65.607)]</title>
</use>
<use transform="translate(44.096542 62.644257), rotate(-180)" xlink:href="#item_5">
<title>item, id: 5, transf: [r: -180.000°, t: (44.097, 62.644)]</title>
</use>
<use transform="translate(64.98688 42.905888), rotate(90)" xlink:href="#item_5">
<title>item, id: 5, transf: [r: 90.000°, t: (64.987, 42.906)]</title>
</use>
<use transform="translate(24.541172 59.348663), rotate(90)" xlink:href="#item_5">
<title>item, id: 5, transf: [r: 90.000°, t: (24.541, 59.349)]</title>
</use>
<use transform="translate(21.655104 69.489716), rotate(-90)" xlink:href="#item_5">
<title>item, id: 5, transf: [r: -90.000°, t: (21.655, 69.490)]</title>
</use>
</g>
<g id="quality_zones"/>
<g id="optionals">
<g id="overlap_lines" transform="translate(0 0), rotate(0)"/>
</g>
<text font-family="monospace" font-size="1.9026994" font-weight="500" x="0" y="-0.9513497">
height: 104.000 | width: 76.108 | usage: 90.888% | final_bench_80
</text>
</svg>