<svg viewBox="-3.8350415 -5.2000012 84.3709 114.40001" xmlns="http://www.w3.org/2000/svg" xmlns:xlink="http://www.w3.org/1999/xlink">
<g id="bin_0">
<path d="M0,0 L76.70081,0 L76.70081,104 L0,104 z" fill="#D3D3D3" stroke="black" stroke-width="0.42185453"/>
<title>bin, id: 0, bbox: [x_min: 0.000, y_min: 0.000, x_max: 76.701, y_max: 104.000]</title>
</g>
<g id="items">
<defs>
<g id="item_0">
<path d="M0,0 L21,0 L21,22 L14,28 L7,28 L0,22 z" fill="#7A7A7A" fill-opacity="0.5" fill-rule="nonzero" stroke="black" stroke-width="0.21092726"/>
</g>
<g id="item_1">
<path d="M0,5 L2,0 L11,2 L19,0 L21,5 L17,4 L11,6 L4,4 z" fill="#7A7A7A" fill-opacity="0.5" fill-rule="nonzero" stroke="black" stroke-width="0.21092726"/>
</g>
<g id="item_2">
<path d="M0,0 L33,0 L33,14 L30,14 L26,17 L13,15 L0,17 z" fill="#7A7A7A" fill-opacity="0.5" fill-rule="nonzero" stroke="black" stroke-width="0.21092726"/>
</g>
<g id="item_3">
<path d="M0,0 L4,0 L4,39 L0,39 z" fill="#7A7A7A" fill-opacity="0.5" fill-rule="nonzero" stroke="black" stroke-width="0.21092726"/>
</g>
<g id="item_4">
<path d="M0,0 L10,0 L10,11 L0,11 z" fill="#7A7A7A" fill-opacity="0.5" fill-rule="nonzero" stroke="black" stroke-width="0.21092726"/>
</g>
<g id="item_5">
<path d="M2,20 L0,18 L2,10 L0,2 L2,0 L4,10 z" fill="#7A7A7A" fill-opacity="0.5" fill-rule="nonzero" stroke="black" stroke-width="0.21092726"/>
</g>
<g id="item_6">
<path d="M0,0 L29,0 L27,12 L29,22 L25,26 L25,33 L18,37 L16,35 L14,35 L12,37 L4,34 L4,26 L0,22 L2,12 z" fill="#7A7A7A" fill-opacity="0.5" fill-rule="nonzero" stroke="black" stroke-width="0.21092726"/>
</g>
<g id="item_7">
<path d="M0,0 L33,0 L37,6 L35,13 L28,13 L25,15 L14,13 L0,15 z" fill="#7A7A7A" fill-opacity="0.5" fill-rule="nonzero" stroke="black" stroke-width="0.21092726"/>
</g>
</defs>
<use transform="translate(21.008003 62.32354), rotate(-90)" xlink:href="#item_6">
<title>item, id: 6, transf: [r: -90.000°, t: (21.008, 62.324)]</title>
</use>
<use transform="translate(19.00063 90.9909), rotate(-90)" xlink:href="#item_6">
<title>item, id: 6, transf: [r: -90.000°, t: (19.001, 90.991)]</title>
</use>
<use transform="translate(76.700516 103.99844), rotate(-180)" xlink:href="#item_2">
<title>item, id: 2, transf: [r: -180.000°, t: (76.701, 103.998)]</title>
</use>
<use transform="translate(43.10926 0.00019693375), rotate(0)" xlink:href="#item_2">
<title>item, id: 2, transf: [r: 0.000°, t: (43.109, 0.000)]</title>
</use>
<use transform="translate(72.69881 45.006138), rotate(90)" xlink:href="#item_7">
<title>item, id: 7, transf: [r: 90.000°, t: (72.699, 45.006)]</title>
</use>
<use transform="translate(19.000374 56.012672), rotate(90)" xlink:href="#item_7">
<title>item, id: 7, transf: [r: 90.000°, t: (19.000, 56.013)]</title>
</use>
<use transform="translate(22.105347 0.0021972656), rotate(0)" xlink:href="#item_0">
<title>item, id: 0, transf: [r: 0.000°, t: (22.105, 0.002)]</title>
</use>
<use transform="translate(0.0022974014 28.011677), rotate(0)" xlink:href="#item_0">
<title>item, id: 0, transf: [r: 0.000°, t: (0.002, 28.012)]</title>
</use>
<use transform="translate(0.00028419495 0.0022697449), rotate(0)" xlink:href="#item_0">
<title>item, id: 0, transf: [r: 0.000°, t: (0.000, 0.002)]</title>
</use>
<use transform="translate(55.181007 17.000233), rotate(0)" xlink:href="#item_0">
<title>item, id: 0, transf: [r: 0.000°, t: (55.181, 17.000)]</title>
</use>
<use transform="translate(0.00024938583 53.452194), rotate(0)" xlink:href="#item_3">
<title>item, id: 3, transf: [r: 0.000°, t: (0.000, 53.452)]</title>
</use>
<use transform="translate(72.700806 41.98602), rotate(0)" xlink:href="#item_3">
<title>item, id: 3, transf: [r: 0.000°, t: (72.701, 41.986)]</title>
</use>
<use transform="translate(44.676846 36.990227), rotate(-90)" xlink:href="#item_1">
<title>item, id: 1, transf: [r: -90.000°, t: (44.677, 36.990)]</title>
</use>
<use transform="translate(49.180454 36.97903), rotate(-90)" xlink:href="#item_1">
<title>item, id: 1, transf: [r: -90.000°, t: (49.180, 36.979)]</title>
</use>
<use transform="translate(21.825554 26.828962), rotate(0)" xlink:href="#item_1">
<title>item, id: 1, transf: [r: 0.000°, t: (21.826, 26.829)]</title>
</use>
<use transform="translate(53.53415 80.57038), rotate(0)" xlink:href="#item_1">
<title>item, id: 1, transf: [r: 0.000°, t: (53.534, 80.570)]</title>
</use>
<use transform="translate(21.998775 93.991066), rotate(90)" xlink:href="#item_4">
<title>item, id: 4, transf: [r: 90.000°, t: (21.999, 93.991)]</title>
</use>
<use transform="translate(22.692066 103.99522), rotate(-90)" xlink:href="#item_4">
<title>item, id: 4, transf: [r: -90.000°, t: (22.692, 103.995)]</title>
</use>
<use transform="translate(0.9897418 92.88583), rotate(0)" xlink:href="#item_4">
<title>item, id: 4, transf: [r: 0.000°, t: (0.990, 92.886)]</title>
</use>
<use transform="translate(33.69919 92.998665), rotate(0)" xlink:href="#item_4">
<title>item, id: 4, transf: [r: 0.000°, t: (33.699, 92.999)]</title>
</use>
<use transform="translate(58.7196 76.12989), rotate(-180)" xlink:href="#item_5">
<title>item, id: 5, transf: [r: -180.000°, t: (58.720, 76.130)]</title>
</use>
<use transform="translate(74.021484 84.94858), rotate(90)" xlink:href="#item_5">
<title>item, id: 5, transf: [r: 90.000°, t: (74.021, 84.949)]</title>
</use>
<use transform="translate(42.333305 31.207977), rotate(90)" xlink:href="#item_5">
<title>item, id: 5, transf: [r: 90.000°, t: (42.333, 31.208)]</title>
</use>
<use transform="translate(21.001041 92.99749), rotate(-90)" xlink:href="#item_5">
<title>item, id: 5, transf: [r: -90.000°, t: (21.001, 92.997)]</title>
</use>
</g>
<g id="quality_zones"/>
<g id="optionals">
<g id="overlap_lines" transform="translate(0 0), rotate(0)"/>
</g>
<text font-family="monospace" font-size="1.9175204" font-weight="500" x="0" y="-0.9587602">
height: 104.000 | width: 76.701 | usage: 90.186% | final_bench_15
</text>
</svg>