<svg viewBox="-3.7823477 -5.2000012 83.21163 114.40001" xmlns="http://www.w3.org/2000/svg" xmlns:xlink="http://www.w3.org/1999/xlink">
<g id="bin_0">
<path d="M0,0 L75.646935,0 L75.646935,104 L0,104 z" fill="#D3D3D3" stroke="black" stroke-width="0.41605818"/>
<title>bin, id: 0, bbox: [x_min: 0.000, y_min: 0.000, x_max: 75.647, y_max: 104.000]</title>
</g>
<g id="items">
<defs>
<g id="item_0">
<path d="M0,0 L21,0 L21,22 L14,28 L7,28 L0,22 z" fill="#7A7A7A" fill-opacity="0.5" fill-rule="nonzero" stroke="black" stroke-width="0.20802909"/>
</g>
<g id="item_1">
<path d="M0,5 L2,0 L11,2 L19,0 L21,5 L17,4 L11,6 L4,4 z" fill="#7A7A7A" fill-opacity="0.5" fill-rule="nonzero" stroke="black" stroke-width="0.20802909"/>
</g>
<g id="item_2">
<path d="M0,0 L33,0 L33,14 L30,14 L26,17 L13,15 L0,17 z" fill="#7A7A7A" fill-opacity="0.5" fill-rule="nonzero" stroke="black" stroke-width="0.20802909"/>
</g>
<g id="item_3">
<path d="M0,0 L4,0 L4,39 L0,39 z" fill="#7A7A7A" fill-opacity="0.5" fill-rule="nonzero" stroke="black" stroke-width="0.20802909"/>
</g>
<g id="item_4">
<path d="M0,0 L10,0 L10,11 L0,11 z" fill="#7A7A7A" fill-opacity="0.5" fill-rule="nonzero" stroke="black" stroke-width="0.20802909"/>
</g>
<g id="item_5">
<path d="M2,20 L0,18 L2,10 L0,2 L2,0 L4,10 z" fill="#7A7A7A" fill-opacity="0.5" fill-rule="nonzero" stroke="black" stroke-width="0.20802909"/>
</g>
<g id="item_6">
<path d="M0,0 L29,0 L27,12 L29,22 L25,26 L25,33 L18,37 L16,35 L14,35 L12,37 L4,34 L4,26 L0,22 L2,12 z" fill="#7A7A7A" fill-opacity="0.5" fill-rule="nonzero" stroke="black" stroke-width="0.20802909"/>
</g>
<g id="item_7">
<path d="M0,0 L33,0 L37,6 L35,13 L28,13 L25,15 L14,13 L0,15 z" fill="#7A7A7A" fill-opacity="0.5" fill-rule="nonzero" stroke="black" stroke-width="0.20802909"/>
</g>
</defs>
<use transform="translate(59.816544 82.05757), rotate(-180)" xlink:href="#item_6">
<title>item, id: 6, transf: [r: -180.000°, t: (59.817, 82.058)]</title>
</use>
<use transform="translate(29.000462 103.999985), rotate(-180)" xlink:href="#item_6">
<title>item, id: 6, transf: [r: -180.000°, t: (29.000, 104.000)]</title>
</use>
<use transform="translate(75.64514 49.01455), rotate(90)" xlink:href="#item_2">
<title>item, id: 2, transf: [r: 90.000°, t: (75.645, 49.015)]</title>
</use>
<use transform="translate(14.609112 0.023513317), rotate(0)" xlink:href="#item_2">
<title>item, id: 2, transf: [r: 0.000°, t: (14.609, 0.024)]</title>
</use>
<use transform="translate(4.0020304 59.828926), rotate(-90)" xlink:href="#item_7">
<title>item, id: 7, transf: [r: -90.000°, t: (4.002, 59.829)]</title>
</use>
<use transform="translate(32.4333 23.821709), rotate(90)" xlink:href="#item_7">
<title>item, id: 7, transf: [r: 90.000°, t: (32.433, 23.822)]</title>
</use>
<use transform="translate(54.644783 45.05728), rotate(-180)" xlink:href="#item_0">
<title>item, id: 0, transf: [r: -180.000°, t: (54.645, 45.057)]</title>
</use>
<use transform="translate(75.64682 0.0004453659), rotate(90)" xlink:href="#item_0">
<title>item, id: 0, transf: [r: 90.000°, t: (75.647, 0.000)]</title>
</use>
<use transform="translate(54.646507 21.012157), rotate(0)" xlink:href="#item_0">
<title>item, id: 0, transf: [r: 0.000°, t: (54.647, 21.012)]</title>
</use>
<use transform="translate(64.64637 82.05828), rotate(90)" xlink:href="#item_0">
<title>item, id: 0, transf: [r: 90.000°, t: (64.646, 82.058)]</title>
</use>
<use transform="translate(4.000003 77.999985), rotate(-180)" xlink:href="#item_3">
<title>item, id: 3, transf: [r: -180.000°, t: (4.000, 78.000)]</title>
</use>
<use transform="translate(4.0000067 39.004414), rotate(-180)" xlink:href="#item_3">
<title>item, id: 3, transf: [r: -180.000°, t: (4.000, 39.004)]</title>
</use>
<use transform="translate(25.035984 65.83749), rotate(-180)" xlink:href="#item_1">
<title>item, id: 1, transf: [r: -180.000°, t: (25.036, 65.837)]</title>
</use>
<use transform="translate(25.310904 80.308914), rotate(-90)" xlink:href="#item_1">
<title>item, id: 1, transf: [r: -90.000°, t: (25.311, 80.309)]</title>
</use>
<use transform="translate(35.25759 23.995838), rotate(-180)" xlink:href="#item_1">
<title>item, id: 1, transf: [r: -180.000°, t: (35.258, 23.996)]</title>
</use>
<use transform="translate(35.46469 82.03185), rotate(90)" xlink:href="#item_1">
<title>item, id: 1, transf: [r: 90.000°, t: (35.465, 82.032)]</title>
</use>
<use transform="translate(64.64652 103.99098), rotate(-90)" xlink:href="#item_4">
<title>item, id: 4, transf: [r: -90.000°, t: (64.647, 103.991)]</title>
</use>
<use transform="translate(64.646736 92.017105), rotate(-90)" xlink:href="#item_4">
<title>item, id: 4, transf: [r: -90.000°, t: (64.647, 92.017)]</title>
</use>
<use transform="translate(14.545544 11.001898), rotate(-180)" xlink:href="#item_4">
<title>item, id: 4, transf: [r: -180.000°, t: (14.546, 11.002)]</title>
</use>
<use transform="translate(14.013191 22.005222), rotate(-180)" xlink:href="#item_4">
<title>item, id: 4, transf: [r: -180.000°, t: (14.013, 22.005)]</title>
</use>
<use transform="translate(4.106225 68.22344), rotate(-90)" xlink:href="#item_5">
<title>item, id: 5, transf: [r: -90.000°, t: (4.106, 68.223)]</title>
</use>
<use transform="translate(31.08937 102.53189), rotate(-180)" xlink:href="#item_5">
<title>item, id: 5, transf: [r: -180.000°, t: (31.089, 102.532)]</title>
</use>
<use transform="translate(15.936728 19.316519), rotate(-90)" xlink:href="#item_5">
<title>item, id: 5, transf: [r: -90.000°, t: (15.937, 19.317)]</title>
</use>
<use transform="translate(37.77018 102.55678), rotate(-180)" xlink:href="#item_5">
<title>item, id: 5, transf: [r: -180.000°, t: (37.770, 102.557)]</title>
</use>
</g>
<g id="quality_zones"/>
<g id="optionals">
<g id="overlap_lines" transform="translate(0 0), rotate(0)"/>
</g>
<text font-family="monospace" font-size="1.8911734" font-weight="500" x="0" y="-0.9455867">
height: 104.000 | width: 75.647 | usage: 91.442% | final_bench_56
</text>
</svg>