<svg viewBox="-3.7901537 -5.2000012 83.38336 114.40001" xmlns="http://www.w3.org/2000/svg" xmlns:xlink="http://www.w3.org/1999/xlink">
<g id="bin_0">
<path d="M0,0 L75.803055,0 L75.803055,104 L0,104 z" fill="#D3D3D3" stroke="black" stroke-width="0.41691685"/>
<title>bin, id: 0, bbox: [x_min: 0.000, y_min: 0.000, x_max: 75.803, y_max: 104.000]</title>
</g>
<g id="items">
<defs>
<g id="item_0">
<path d="M0,0 L21,0 L21,22 L14,28 L7,28 L0,22 z" fill="#7A7A7A" fill-opacity="0.5" fill-rule="nonzero" stroke="black" stroke-width="0.20845842"/>
</g>
<g id="item_1">
<path d="M0,5 L2,0 L11,2 L19,0 L21,5 L17,4 L11,6 L4,4 z" fill="#7A7A7A" fill-opacity="0.5" fill-rule="nonzero" stroke="black" stroke-width="0.20845842"/>
</g>
<g id="item_2">
<path d="M0,0 L33,0 L33,14 L30,14 L26,17 L13,15 L0,17 z" fill="#7A7A7A" fill-opacity="0.5" fill-rule="nonzero" stroke="black" stroke-width="0.20845842"/>
</g>
<g id="item_3">
<path d="M0,0 L4,0 L4,39 L0,39 z" fill="#7A7A7A" fill-opacity="0.5" fill-rule="nonzero" stroke="black" stroke-width="0.20845842"/>
</g>
<g id="item_4">
<path d="M0,0 L10,0 L10,11 L0,11 z" fill="#7A7A7A" fill-opacity="0.5" fill-rule="nonzero" stroke="black" stroke-width="0.20845842"/>
</g>
<g id="item_5">
<path d="M2,20 L0,18 L2,10 L0,2 L2,0 L4,10 z" fill="#7A7A7A" fill-opacity="0.5" fill-rule="nonzero" stroke="black" stroke-width="0.20845842"/>
</g>
<g id="item_6">
<path d="M0,0 L29,0 L27,12 L29,22 L25,26 L25,33 L18,37 L16,35 L14,35 L12,37 L4,34 L4,26 L0,22 L2,12 z" fill="#7A7A7A" fill-opacity="0.5" fill-rule="nonzero" stroke="black" stroke-width="0.20845842"/>
</g>
<g id="item_7">
<path d="M0,0 L33,0 L37,6 L35,13 L28,13 L25,15 L14,13 L0,15 z" fill="#7A7A7A" fill-opacity="0.5" fill-rule="nonzero" stroke="black" stroke-width="0.20845842"/>
</g>
</defs>
<use transform="translate(19.01273 88.62425), rotate(-90)" xlink:href="#item_6">
<title>item, id: 6, transf: [r: -90.000°, t: (19.013, 88.624)]</title>
</use>
<use transform="translate(75.80288 36.41188), rotate(90)" xlink:href="#item_6">
<title>item, id: 6, transf: [r: 90.000°, t: (75.803, 36.412)]</title>
</use>
<use transform="translate(21.001114 58.21067), rotate(-90)" xlink:href="#item_2">
<title>item, id: 2, transf: [r: -90.000°, t: (21.001, 58.211)]</title>
</use>
<use transform="translate(54.76986 103.99977), rotate(-180)" xlink:href="#item_2">
<title>item, id: 2, transf: [r: -180.000°, t: (54.770, 104.000)]</title>
</use>
<use transform="translate(75.802925 0.001613617), rotate(90)" xlink:href="#item_7">
<title>item, id: 7, transf: [r: 90.000°, t: (75.803, 0.002)]</title>
</use>
<use transform="translate(19.006624 56.690712), rotate(90)" xlink:href="#item_7">
<title>item, id: 7, transf: [r: 90.000°, t: (19.007, 56.691)]</title>
</use>
<use transform="translate(21.000668 28.528656), rotate(-180)" xlink:href="#item_0">
<title>item, id: 0, transf: [r: -180.000°, t: (21.001, 28.529)]</title>
</use>
<use transform="translate(75.788574 103.99686), rotate(-180)" xlink:href="#item_0">
<title>item, id: 0, transf: [r: -180.000°, t: (75.789, 103.997)]</title>
</use>
<use transform="translate(27.00465 25.005463), rotate(-90)" xlink:href="#item_0">
<title>item, id: 0, transf: [r: -90.000°, t: (27.005, 25.005)]</title>
</use>
<use transform="translate(0.0010328293 28.529175), rotate(0)" xlink:href="#item_0">
<title>item, id: 0, transf: [r: 0.000°, t: (0.001, 28.529)]</title>
</use>
<use transform="translate(57.058456 0.000010609627), rotate(90)" xlink:href="#item_3">
<title>item, id: 3, transf: [r: 90.000°, t: (57.058, 0.000)]</title>
</use>
<use transform="translate(0.005554676 53.963997), rotate(0)" xlink:href="#item_3">
<title>item, id: 3, transf: [r: 0.000°, t: (0.006, 53.964)]</title>
</use>
<use transform="translate(54.163437 24.159142), rotate(-90)" xlink:href="#item_1">
<title>item, id: 1, transf: [r: -90.000°, t: (54.163, 24.159)]</title>
</use>
<use transform="translate(75.78444 72.3794), rotate(-180)" xlink:href="#item_1">
<title>item, id: 1, transf: [r: -180.000°, t: (75.784, 72.379)]</title>
</use>
<use transform="translate(27.002985 4.1736298), rotate(90)" xlink:href="#item_1">
<title>item, id: 1, transf: [r: 90.000°, t: (27.003, 4.174)]</title>
</use>
<use transform="translate(75.79373 77.108116), rotate(-180)" xlink:href="#item_1">
<title>item, id: 1, transf: [r: -180.000°, t: (75.794, 77.108)]</title>
</use>
<use transform="translate(60.80107 24.163538), rotate(90)" xlink:href="#item_4">
<title>item, id: 4, transf: [r: 90.000°, t: (60.801, 24.164)]</title>
</use>
<use transform="translate(38.540565 35.187763), rotate(-90)" xlink:href="#item_4">
<title>item, id: 4, transf: [r: -90.000°, t: (38.541, 35.188)]</title>
</use>
<use transform="translate(10.548639 103.99995), rotate(-90)" xlink:href="#item_4">
<title>item, id: 4, transf: [r: -90.000°, t: (10.549, 104.000)]</title>
</use>
<use transform="translate(10.462161 103.998695), rotate(-180)" xlink:href="#item_4">
<title>item, id: 4, transf: [r: -180.000°, t: (10.462, 103.999)]</title>
</use>
<use transform="translate(55.01259 67.6199), rotate(-90)" xlink:href="#item_5">
<title>item, id: 5, transf: [r: -90.000°, t: (55.013, 67.620)]</title>
</use>
<use transform="translate(58.69228 3.406618), rotate(0)" xlink:href="#item_5">
<title>item, id: 5, transf: [r: 0.000°, t: (58.692, 3.407)]</title>
</use>
<use transform="translate(44.744694 38.174164), rotate(-90)" xlink:href="#item_5">
<title>item, id: 5, transf: [r: -90.000°, t: (44.745, 38.174)]</title>
</use>
<use transform="translate(40.00149 55.208916), rotate(-180)" xlink:href="#item_5">
<title>item, id: 5, transf: [r: -180.000°, t: (40.001, 55.209)]</title>
</use>
</g>
<g id="quality_zones"/>
<g id="optionals">
<g id="overlap_lines" transform="translate(0 0), rotate(0)"/>
</g>
<text font-family="monospace" font-size="1.8950764" font-weight="500" x="0" y="-0.9475382">
height: 104.000 | width: 75.803 | usage: 91.254% | final_bench_59
</text>
</svg>