<svg viewBox="-3.8003752 -5.2000012 83.60824 114.40001" xmlns="http://www.w3.org/2000/svg" xmlns:xlink="http://www.w3.org/1999/xlink">
<g id="bin_0">
<path d="M0,0 L76.007484,0 L76.007484,104 L0,104 z" fill="#D3D3D3" stroke="black" stroke-width="0.4180412"/>
<title>bin, id: 0, bbox: [x_min: 0.000, y_min: 0.000, x_max: 76.007, y_max: 104.000]</title>
</g>
<g id="items">
<defs>
<g id="item_0">
<path d="M0,0 L21,0 L21,22 L14,28 L7,28 L0,22 z" fill="#7A7A7A" fill-opacity="0.5" fill-rule="nonzero" stroke="black" stroke-width="0.2090206"/>
</g>
<g id="item_1">
<path d="M0,5 L2,0 L11,2 L19,0 L21,5 L17,4 L11,6 L4,4 z" fill="#7A7A7A" fill-opacity="0.5" fill-rule="nonzero" stroke="black" stroke-width="0.2090206"/>
</g>
<g id="item_2">
<path d="M0,0 L33,0 L33,14 L30,14 L26,17 L13,15 L0,17 z" fill="#7A7A7A" fill-opacity="0.5" fill-rule="nonzero" stroke="black" stroke-width="0.2090206"/>
</g>
<g id="item_3">
<path d="M0,0 L4,0 L4,39 L0,39 z" fill="#7A7A7A" fill-opacity="0.5" fill-rule="nonzero" stroke="black" stroke-width="0.2090206"/>
</g>
<g id="item_4">
<path d="M0,0 L10,0 L10,11 L0,11 z" fill="#7A7A7A" fill-opacity="0.5" fill-rule="nonzero" stroke="black" stroke-width="0.2090206"/>
</g>
<g id="item_5">
<path d="M2,20 L0,18 L2,10 L0,2 L2,0 L4,10 z" fill="#7A7A7A" fill-opacity="0.5" fill-rule="nonzero" stroke="black" stroke-width="0.2090206"/>
</g>
<g id="item_6">
<path d="M0,0 L29,0 L27,12 L29,22 L25,26 L25,33 L18,37 L16,35 L14,35 L12,37 L4,34 L4,26 L0,22 L2,12 z" fill="#7A7A7A" fill-opacity="0.5" fill-rule="nonzero" stroke="black" stroke-width="0.2090206"/>
</g>
<g id="item_7">
<path d="M0,0 L33,0 L37,6 L35,13 L28,13 L25,15 L14,13 L0,15 z" fill="#7A7A7A" fill-opacity="0.5" fill-rule="nonzero" stroke="black" stroke-width="0.2090206"/>
</g>
</defs>
<use transform="translate(19.004757 0.004930496), rotate(0)" xlink:href="#item_6">
<title>item, id: 6, transf: [r: 0.000°, t: (19.005, 0.005)]</title>
</use>
<use transform="translate(0.03053093 62.03743), rotate(-90)" xlink:href="#item_6">
<title>item, id: 6, transf: [r: -90.000°, t: (0.031, 62.037)]</title>
</use>
<use transform="translate(43.000427 73.00089), rotate(0)" xlink:href="#item_2">
<title>item, id: 2, transf: [r: 0.000°, t: (43.000, 73.001)]</title>
</use>
<use transform="translate(0.00014734268 33.006226), rotate(-90)" xlink:href="#item_2">
<title>item, id: 2, transf: [r: -90.000°, t: (0.000, 33.006)]</title>
</use>
<use transform="translate(76.00743 103.99995), rotate(-180)" xlink:href="#item_7">
<title>item, id: 7, transf: [r: -180.000°, t: (76.007, 104.000)]</title>
</use>
<use transform="translate(0.00012683868 103.992035), rotate(-90)" xlink:href="#item_7">
<title>item, id: 7, transf: [r: -90.000°, t: (0.000, 103.992)]</title>
</use>
<use transform="translate(71.995316 42.00057), rotate(90)" xlink:href="#item_0">
<title>item, id: 0, transf: [r: 90.000°, t: (71.995, 42.001)]</title>
</use>
<use transform="translate(72.00621 21.000126), rotate(90)" xlink:href="#item_0">
<title>item, id: 0, transf: [r: 90.000°, t: (72.006, 21.000)]</title>
</use>
<use transform="translate(76.00575 0.00008010864), rotate(90)" xlink:href="#item_0">
<title>item, id: 0, transf: [r: 90.000°, t: (76.006, 0.000)]</title>
</use>
<use transform="translate(15.000202 93.87935), rotate(-90)" xlink:href="#item_0">
<title>item, id: 0, transf: [r: -90.000°, t: (15.000, 93.879)]</title>
</use>
<use transform="translate(53.33053 68.879295), rotate(90)" xlink:href="#item_3">
<title>item, id: 3, transf: [r: 90.000°, t: (53.331, 68.879)]</title>
</use>
<use transform="translate(76.00739 62.98792), rotate(-180)" xlink:href="#item_3">
<title>item, id: 3, transf: [r: -180.000°, t: (76.007, 62.988)]</title>
</use>
<use transform="translate(11.662559 62.878952), rotate(0)" xlink:href="#item_1">
<title>item, id: 1, transf: [r: 0.000°, t: (11.663, 62.879)]</title>
</use>
<use transform="translate(35.738598 57.864365), rotate(-90)" xlink:href="#item_1">
<title>item, id: 1, transf: [r: -90.000°, t: (35.739, 57.864)]</title>
</use>
<use transform="translate(53.970448 68.055374), rotate(-180)" xlink:href="#item_1">
<title>item, id: 1, transf: [r: -180.000°, t: (53.970, 68.055)]</title>
</use>
<use transform="translate(25.907993 58.03764), rotate(0)" xlink:href="#item_1">
<title>item, id: 1, transf: [r: 0.000°, t: (25.908, 58.038)]</title>
</use>
<use transform="translate(75.995865 63.00068), rotate(90)" xlink:href="#item_4">
<title>item, id: 4, transf: [r: 90.000°, t: (75.996, 63.001)]</title>
</use>
<use transform="translate(16.408772 103.98317), rotate(-90)" xlink:href="#item_4">
<title>item, id: 4, transf: [r: -90.000°, t: (16.409, 103.983)]</title>
</use>
<use transform="translate(64.986694 63.000656), rotate(90)" xlink:href="#item_4">
<title>item, id: 4, transf: [r: 90.000°, t: (64.987, 63.001)]</title>
</use>
<use transform="translate(27.970406 103.911606), rotate(-90)" xlink:href="#item_4">
<title>item, id: 4, transf: [r: -90.000°, t: (27.970, 103.912)]</title>
</use>
<use transform="translate(17.004395 2.0038881), rotate(0)" xlink:href="#item_5">
<title>item, id: 5, transf: [r: 0.000°, t: (17.004, 2.004)]</title>
</use>
<use transform="translate(2.730609 64.449486), rotate(-90)" xlink:href="#item_5">
<title>item, id: 5, transf: [r: -90.000°, t: (2.731, 64.449)]</title>
</use>
<use transform="translate(19.000761 30.004744), rotate(-180)" xlink:href="#item_5">
<title>item, id: 5, transf: [r: -180.000°, t: (19.001, 30.005)]</title>
</use>
<use transform="translate(41.08737 33.53655), rotate(0)" xlink:href="#item_5">
<title>item, id: 5, transf: [r: 0.000°, t: (41.087, 33.537)]</title>
</use>
</g>
<g id="quality_zones"/>
<g id="optionals">
<g id="overlap_lines" transform="translate(0 0), rotate(0)"/>
</g>
<text font-family="monospace" font-size="1.9001871" font-weight="500" x="0" y="-0.95009357">
height: 104.000 | width: 76.007 | usage: 91.008% | final_bench_5
</text>
</svg>