<svg viewBox="-3.8005183 -5.2000012 83.61139 114.40001" xmlns="http://www.w3.org/2000/svg" xmlns:xlink="http://www.w3.org/1999/xlink">
<g id="bin_0">
<path d="M0,0 L76.010345,0 L76.010345,104 L0,104 z" fill="#D3D3D3" stroke="black" stroke-width="0.41805696"/>
<title>bin, id: 0, bbox: [x_min: 0.000, y_min: 0.000, x_max: 76.010, y_max: 104.000]</title>
</g>
<g id="items">
<defs>
<g id="item_0">
<path d="M0,0 L21,0 L21,22 L14,28 L7,28 L0,22 z" fill="#7A7A7A" fill-opacity="0.5" fill-rule="nonzero" stroke="black" stroke-width="0.20902848"/>
</g>
<g id="item_1">
<path d="M0,5 L2,0 L11,2 L19,0 L21,5 L17,4 L11,6 L4,4 z" fill="#7A7A7A" fill-opacity="0.5" fill-rule="nonzero" stroke="black" stroke-width="0.20902848"/>
</g>
<g id="item_2">
<path d="M0,0 L33,0 L33,14 L30,14 L26,17 L13,15 L0,17 z" fill="#7A7A7A" fill-opacity="0.5" fill-rule="nonzero" stroke="black" stroke-width="0.20902848"/>
</g>
<g id="item_3">
<path d="M0,0 L4,0 L4,39 L0,39 z" fill="#7A7A7A" fill-opacity="0.5" fill-rule="nonzero" stroke="black" stroke-width="0.20902848"/>
</g>
<g id="item_4">
<path d="M0,0 L10,0 L10,11 L0,11 z" fill="#7A7A7A" fill-opacity="0.5" fill-rule="nonzero" stroke="black" stroke-width="0.20902848"/>
</g>
<g id="item_5">
<path d="M2,20 L0,18 L2,10 L0,2 L2,0 L4,10 z" fill="#7A7A7A" fill-opacity="0.5" fill-rule="nonzero" stroke="black" stroke-width="0.20902848"/>
</g>
<g id="item_6">
<path d="M0,0 L29,0 L27,12 L29,22 L25,26 L25,33 L18,37 L16,35 L14,35 L12,37 L4,34 L4,26 L0,22 L2,12 z" fill="#7A7A7A" fill-opacity="0.5" fill-rule="nonzero" stroke="black" stroke-width="0.20902848"/>
</g>
<g id="item_7">
<path d="M0,0 L33,0 L37,6 L35,13 L28,13 L25,15 L14,13 L0,15 z" fill="#7A7A7A" fill-opacity="0.5" fill-rule="nonzero" stroke="black" stroke-width="0.20902848"/>
</g>
</defs>
<use transform="translate(0.000031471252 0.01402092), rotate(0)" xlink:href="#item_6">
<title>item, id: 6, transf: [r: 0.000°, t: (0.000, 0.014)]</title>
</use>
<use transform="translate(4.010586 67.30203), rotate(-90)" xlink:href="#item_6">
<title>item, id: 6, transf: [r: -90.000°, t: (4.011, 67.302)]</title>
</use>
<use transform="translate(72.01028 16.322344), rotate(90)" xlink:href="#item_2">
<title>item, id: 2, transf: [r: 90.000°, t: (72.010, 16.322)]</title>
</use>
<use transform="translate(76.00965 103.99988), rotate(-180)" xlink:href="#item_2">
<title>item, id: 2, transf: [r: -180.000°, t: (76.010, 104.000)]</title>
</use>
<use transform="translate(0.00025844574 103.99986), rotate(-90)" xlink:href="#item_7">
<title>item, id: 7, transf: [r: -90.000°, t: (0.000, 104.000)]</title>
</use>
<use transform="translate(54.967594 42.00095), rotate(90)" xlink:href="#item_7">
<title>item, id: 7, transf: [r: 90.000°, t: (54.968, 42.001)]</title>
</use>
<use transform="translate(15.008804 103.99569), rotate(-90)" xlink:href="#item_0">
<title>item, id: 0, transf: [r: -90.000°, t: (15.009, 103.996)]</title>
</use>
<use transform="translate(54.998825 49.32351), rotate(0)" xlink:href="#item_0">
<title>item, id: 0, transf: [r: 0.000°, t: (54.999, 49.324)]</title>
</use>
<use transform="translate(53.002663 21.00026), rotate(90)" xlink:href="#item_0">
<title>item, id: 0, transf: [r: 90.000°, t: (53.003, 21.000)]</title>
</use>
<use transform="translate(29.000473 21.000036), rotate(-90)" xlink:href="#item_0">
<title>item, id: 0, transf: [r: -90.000°, t: (29.000, 21.000)]</title>
</use>
<use transform="translate(4.0000014 65.29562), rotate(-180)" xlink:href="#item_3">
<title>item, id: 3, transf: [r: -180.000°, t: (4.000, 65.296)]</title>
</use>
<use transform="translate(72.01034 6.0282307), rotate(0)" xlink:href="#item_3">
<title>item, id: 3, transf: [r: 0.000°, t: (72.010, 6.028)]</title>
</use>
<use transform="translate(75.968636 6.0224776), rotate(-180)" xlink:href="#item_1">
<title>item, id: 1, transf: [r: -180.000°, t: (75.969, 6.022)]</title>
</use>
<use transform="translate(62.899612 84.02457), rotate(-180)" xlink:href="#item_1">
<title>item, id: 1, transf: [r: -180.000°, t: (62.900, 84.025)]</title>
</use>
<use transform="translate(35.041656 84.0669), rotate(-90)" xlink:href="#item_1">
<title>item, id: 1, transf: [r: -90.000°, t: (35.042, 84.067)]</title>
</use>
<use transform="translate(62.55571 88.61166), rotate(-180)" xlink:href="#item_1">
<title>item, id: 1, transf: [r: -180.000°, t: (62.556, 88.612)]</title>
</use>
<use transform="translate(15.017891 71.95028), rotate(0)" xlink:href="#item_4">
<title>item, id: 4, transf: [r: 0.000°, t: (15.018, 71.950)]</title>
</use>
<use transform="translate(35.034256 82.9547), rotate(-180)" xlink:href="#item_4">
<title>item, id: 4, transf: [r: -180.000°, t: (35.034, 82.955)]</title>
</use>
<use transform="translate(62.903114 87.32392), rotate(-90)" xlink:href="#item_4">
<title>item, id: 4, transf: [r: -90.000°, t: (62.903, 87.324)]</title>
</use>
<use transform="translate(70.248215 5.9871116), rotate(90)" xlink:href="#item_4">
<title>item, id: 4, transf: [r: 90.000°, t: (70.248, 5.987)]</title>
</use>
<use transform="translate(53.0048 19.295498), rotate(0)" xlink:href="#item_5">
<title>item, id: 5, transf: [r: 0.000°, t: (53.005, 19.295)]</title>
</use>
<use transform="translate(25.916546 35.994995), rotate(90)" xlink:href="#item_5">
<title>item, id: 5, transf: [r: 90.000°, t: (25.917, 35.995)]</title>
</use>
<use transform="translate(35.250328 67.95428), rotate(90)" xlink:href="#item_5">
<title>item, id: 5, transf: [r: 90.000°, t: (35.250, 67.954)]</title>
</use>
<use transform="translate(35.186516 65.53778), rotate(90)" xlink:href="#item_5">
<title>item, id: 5, transf: [r: 90.000°, t: (35.187, 65.538)]</title>
</use>
</g>
<g id="quality_zones"/>
<g id="optionals">
<g id="overlap_lines" transform="translate(0 0), rotate(0)"/>
</g>
<text font-family="monospace" font-size="1.9002587" font-weight="500" x="0" y="-0.95012933">
height: 104.000 | width: 76.010 | usage: 91.005% | final_bench_34
</text>
</svg>