<svg viewBox="-3.815608 -5.2000012 83.94335 114.40001" xmlns="http://www.w3.org/2000/svg" xmlns:xlink="http://www.w3.org/1999/xlink">
<g id="bin_0">
<path d="M0,0 L76.31214,0 L76.31214,104 L0,104 z" fill="#D3D3D3" stroke="black" stroke-width="0.41971678"/>
<title>bin, id: 0, bbox: [x_min: 0.000, y_min: 0.000, x_max: 76.312, y_max: 104.000]</title>
</g>
<g id="items">
<defs>
<g id="item_0">
<path d="M0,0 L21,0 L21,22 L14,28 L7,28 L0,22 z" fill="#7A7A7A" fill-opacity="0.5" fill-rule="nonzero" stroke="black" stroke-width="0.20985839"/>
</g>
<g id="item_1">
<path d="M0,5 L2,0 L11,2 L19,0 L21,5 L17,4 L11,6 L4,4 z" fill="#7A7A7A" fill-opacity="0.5" fill-rule="nonzero" stroke="black" stroke-width="0.20985839"/>
</g>
<g id="item_2">
<path d="M0,0 L33,0 L33,14 L30,14 L26,17 L13,15 L0,17 z" fill="#7A7A7A" fill-opacity="0.5" fill-rule="nonzero" stroke="black" stroke-width="0.20985839"/>
</g>
<g id="item_3">
<path d="M0,0 L4,0 L4,39 L0,39 z" fill="#7A7A7A" fill-opacity="0.5" fill-rule="nonzero" stroke="black" stroke-width="0.20985839"/>
</g>
<g id="item_4">
<path d="M0,0 L10,0 L10,11 L0,11 z" fill="#7A7A7A" fill-opacity="0.5" fill-rule="nonzero" stroke="black" stroke-width="0.20985839"/>
</g>
<g id="item_5">
<path d="M2,20 L0,18 L2,10 L0,2 L2,0 L4,10 z" fill="#7A7A7A" fill-opacity="0.5" fill-rule="nonzero" stroke="black" stroke-width="0.20985839"/>
</g>
<g id="item_6">
<path d="M0,0 L29,0 L27,12 L29,22 L25,26 L25,33 L18,37 L16,35 L14,35 L12,37 L4,34 L4,26 L0,22 L2,12 z" fill="#7A7A7A" fill-opacity="0.5" fill-rule="nonzero" stroke="black" stroke-width="0.20985839"/>
</g>
<g id="item_7">
<path d="M0,0 L33,0 L37,6 L35,13 L28,13 L25,15 L14,13 L0,15 z" fill="#7A7A7A" fill-opacity="0.5" fill-rule="nonzero" stroke="black" stroke-width="0.20985839"/>
</g>
</defs>
<use transform="translate(76.31087 50.903267), rotate(90)" xlink:href="#item_6">
<title>item, id: 6, transf: [r: 90.000°, t: (76.311, 50.903)]</title>
</use>
<use transform="translate(76.312 17.48032), rotate(90)" xlink:href="#item_6">
<title>item, id: 6, transf: [r: 90.000°, t: (76.312, 17.480)]</title>
</use>
<use transform="translate(21.039005 82.26492), rotate(-90)" xlink:href="#item_2">
<title>item, id: 2, transf: [r: -90.000°, t: (21.039, 82.265)]</title>
</use>
<use transform="translate(42.11489 0.00038433075), rotate(0)" xlink:href="#item_2">
<title>item, id: 2, transf: [r: 0.000°, t: (42.115, 0.000)]</title>
</use>
<use transform="translate(76.02063 99.99264), rotate(-180)" xlink:href="#item_7">
<title>item, id: 7, transf: [r: -180.000°, t: (76.021, 99.993)]</title>
</use>
<use transform="translate(0.00008773804 34.238155), rotate(0)" xlink:href="#item_7">
<title>item, id: 7, transf: [r: 0.000°, t: (0.000, 34.238)]</title>
</use>
<use transform="translate(11.019234 103.99998), rotate(-90)" xlink:href="#item_0">
<title>item, id: 0, transf: [r: -90.000°, t: (11.019, 104.000)]</title>
</use>
<use transform="translate(21.002161 82.99633), rotate(-180)" xlink:href="#item_0">
<title>item, id: 0, transf: [r: -180.000°, t: (21.002, 82.996)]</title>
</use>
<use transform="translate(21.009705 28.000008), rotate(-180)" xlink:href="#item_0">
<title>item, id: 0, transf: [r: -180.000°, t: (21.010, 28.000)]</title>
</use>
<use transform="translate(21.10443 0.0036993027), rotate(0)" xlink:href="#item_0">
<title>item, id: 0, transf: [r: 0.000°, t: (21.104, 0.004)]</title>
</use>
<use transform="translate(75.453865 99.998344), rotate(90)" xlink:href="#item_3">
<title>item, id: 3, transf: [r: 90.000°, t: (75.454, 99.998)]</title>
</use>
<use transform="translate(0.000078201294 32.003883), rotate(-90)" xlink:href="#item_3">
<title>item, id: 3, transf: [r: -90.000°, t: (0.000, 32.004)]</title>
</use>
<use transform="translate(48.199654 80.47955), rotate(0)" xlink:href="#item_1">
<title>item, id: 1, transf: [r: 0.000°, t: (48.200, 80.480)]</title>
</use>
<use transform="translate(21.03621 56.114918), rotate(-180)" xlink:href="#item_1">
<title>item, id: 1, transf: [r: -180.000°, t: (21.036, 56.115)]</title>
</use>
<use transform="translate(35.311626 52.479305), rotate(-90)" xlink:href="#item_1">
<title>item, id: 1, transf: [r: -90.000°, t: (35.312, 52.479)]</title>
</use>
<use transform="translate(51.411423 46.52096), rotate(0)" xlink:href="#item_1">
<title>item, id: 1, transf: [r: 0.000°, t: (51.411, 46.521)]</title>
</use>
<use transform="translate(50.92423 54.269035), rotate(-180)" xlink:href="#item_4">
<title>item, id: 4, transf: [r: -180.000°, t: (50.924, 54.269)]</title>
</use>
<use transform="translate(11.014383 93.92614), rotate(90)" xlink:href="#item_4">
<title>item, id: 4, transf: [r: 90.000°, t: (11.014, 93.926)]</title>
</use>
<use transform="translate(11.007151 83.093254), rotate(90)" xlink:href="#item_4">
<title>item, id: 4, transf: [r: 90.000°, t: (11.007, 83.093)]</title>
</use>
<use transform="translate(38.050457 75.919014), rotate(0)" xlink:href="#item_4">
<title>item, id: 4, transf: [r: 0.000°, t: (38.050, 75.919)]</title>
</use>
<use transform="translate(45.20296 19.24784), rotate(-90)" xlink:href="#item_5">
<title>item, id: 5, transf: [r: -90.000°, t: (45.203, 19.248)]</title>
</use>
<use transform="translate(0.5859451 51.72675), rotate(-90)" xlink:href="#item_5">
<title>item, id: 5, transf: [r: -90.000°, t: (0.586, 51.727)]</title>
</use>
<use transform="translate(56.290222 82.25071), rotate(-90)" xlink:href="#item_5">
<title>item, id: 5, transf: [r: -90.000°, t: (56.290, 82.251)]</title>
</use>
<use transform="translate(40.558807 75.91128), rotate(-180)" xlink:href="#item_5">
<title>item, id: 5, transf: [r: -180.000°, t: (40.559, 75.911)]</title>
</use>
</g>
<g id="quality_zones"/>
<g id="optionals">
<g id="overlap_lines" transform="translate(0 0), rotate(0)"/>
</g>
<text font-family="monospace" font-size="1.9078035" font-weight="500" x="0" y="-0.95390177">
height: 104.000 | width: 76.312 | usage: 90.645% | final_bench_42
</text>
</svg>