<svg viewBox="-3.8194268 -5.2000012 84.027374 114.40001" xmlns="http://www.w3.org/2000/svg" xmlns:xlink="http://www.w3.org/1999/xlink">
<g id="bin_0">
<path d="M0,0 L76.38852,0 L76.38852,104 L0,104 z" fill="#D3D3D3" stroke="black" stroke-width="0.4201369"/>
<title>bin, id: 0, bbox: [x_min: 0.000, y_min: 0.000, x_max: 76.389, y_max: 104.000]</title>
</g>
<g id="items">
<defs>
<g id="item_0">
<path d="M0,0 L21,0 L21,22 L14,28 L7,28 L0,22 z" fill="#7A7A7A" fill-opacity="0.5" fill-rule="nonzero" stroke="black" stroke-width="0.21006845"/>
</g>
<g id="item_1">
<path d="M0,5 L2,0 L11,2 L19,0 L21,5 L17,4 L11,6 L4,4 z" fill="#7A7A7A" fill-opacity="0.5" fill-rule="nonzero" stroke="black" stroke-width="0.21006845"/>
</g>
<g id="item_2">
<path d="M0,0 L33,0 L33,14 L30,14 L26,17 L13,15 L0,17 z" fill="#7A7A7A" fill-opacity="0.5" fill-rule="nonzero" stroke="black" stroke-width="0.21006845"/>
</g>
<g id="item_3">
<path d="M0,0 L4,0 L4,39 L0,39 z" fill="#7A7A7A" fill-opacity="0.5" fill-rule="nonzero" stroke="black" stroke-width="0.21006845"/>
</g>
<g id="item_4">
<path d="M0,0 L10,0 L10,11 L0,11 z" fill="#7A7A7A" fill-opacity="0.5" fill-rule="nonzero" stroke="black" stroke-width="0.21006845"/>
</g>
<g id="item_5">
<path d="M2,20 L0,18 L2,10 L0,2 L2,0 L4,10 z" fill="#7A7A7A" fill-opacity="0.5" fill-rule="nonzero" stroke="black" stroke-width="0.21006845"/>
</g>
<g id="item_6">
<path d="M0,0 L29,0 L27,12 L29,22 L25,26 L25,33 L18,37 L16,35 L14,35 L12,37 L4,34 L4,26 L0,22 L2,12 z" fill="#7A7A7A" fill-opacity="0.5" fill-rule="nonzero" stroke="black" stroke-width="0.21006845"/>
</g>
<g id="item_7">
<path d="M0,0 L33,0 L37,6 L35,13 L28,13 L25,15 L14,13 L0,15 z" fill="#7A7A7A" fill-opacity="0.5" fill-rule="nonzero" stroke="black" stroke-width="0.21006845"/>
</g>
</defs>
<use transform="translate(76.388504 72.59202), rotate(90)" xlink:href="#item_6">
<title>item, id: 6, transf: [r: 90.000°, t: (76.389, 72.592)]</title>
</use>
<use transform="translate(56.361626 17.454082), rotate(90)" xlink:href="#item_6">
<title>item, id: 6, transf: [r: 90.000°, t: (56.362, 17.454)]</title>
</use>
<use transform="translate(0.0012969971 33.775703), rotate(-90)" xlink:href="#item_2">
<title>item, id: 2, transf: [r: -90.000°, t: (0.001, 33.776)]</title>
</use>
<use transform="translate(76.38847 0.23078728), rotate(90)" xlink:href="#item_2">
<title>item, id: 2, transf: [r: 90.000°, t: (76.388, 0.231)]</title>
</use>
<use transform="translate(22.040138 4.00671), rotate(0)" xlink:href="#item_7">
<title>item, id: 7, transf: [r: 0.000°, t: (22.040, 4.007)]</title>
</use>
<use transform="translate(21.000626 99.99817), rotate(-90)" xlink:href="#item_7">
<title>item, id: 7, transf: [r: -90.000°, t: (21.001, 99.998)]</title>
</use>
<use transform="translate(34.382465 48.57778), rotate(0)" xlink:href="#item_0">
<title>item, id: 0, transf: [r: 0.000°, t: (34.382, 48.578)]</title>
</use>
<use transform="translate(76.38823 72.587036), rotate(-180)" xlink:href="#item_0">
<title>item, id: 0, transf: [r: -180.000°, t: (76.388, 72.587)]</title>
</use>
<use transform="translate(0.0005245209 61.841496), rotate(0)" xlink:href="#item_0">
<title>item, id: 0, transf: [r: 0.000°, t: (0.001, 61.841)]</title>
</use>
<use transform="translate(21.000938 61.786057), rotate(-180)" xlink:href="#item_0">
<title>item, id: 0, transf: [r: -180.000°, t: (21.001, 61.786)]</title>
</use>
<use transform="translate(59.38753 0.0017107725), rotate(90)" xlink:href="#item_3">
<title>item, id: 3, transf: [r: 90.000°, t: (59.388, 0.002)]</title>
</use>
<use transform="translate(13.589027 103.99999), rotate(-90)" xlink:href="#item_3">
<title>item, id: 3, transf: [r: -90.000°, t: (13.589, 104.000)]</title>
</use>
<use transform="translate(21.09969 63.541515), rotate(-90)" xlink:href="#item_1">
<title>item, id: 1, transf: [r: -90.000°, t: (21.100, 63.542)]</title>
</use>
<use transform="translate(22.02733 3.2350187), rotate(90)" xlink:href="#item_1">
<title>item, id: 1, transf: [r: 90.000°, t: (22.027, 3.235)]</title>
</use>
<use transform="translate(25.708887 63.925335), rotate(-90)" xlink:href="#item_1">
<title>item, id: 1, transf: [r: -90.000°, t: (25.709, 63.925)]</title>
</use>
<use transform="translate(40.68243 76.76782), rotate(90)" xlink:href="#item_1">
<title>item, id: 1, transf: [r: 90.000°, t: (40.682, 76.768)]</title>
</use>
<use transform="translate(56.373997 33.58567), rotate(0)" xlink:href="#item_4">
<title>item, id: 4, transf: [r: 0.000°, t: (56.374, 33.586)]</title>
</use>
<use transform="translate(10.000178 99.84151), rotate(-90)" xlink:href="#item_4">
<title>item, id: 4, transf: [r: -90.000°, t: (10.000, 99.842)]</title>
</use>
<use transform="translate(10.000058 103.98035), rotate(-180)" xlink:href="#item_4">
<title>item, id: 4, transf: [r: -180.000°, t: (10.000, 103.980)]</title>
</use>
<use transform="translate(76.383026 44.260506), rotate(-180)" xlink:href="#item_4">
<title>item, id: 4, transf: [r: -180.000°, t: (76.383, 44.261)]</title>
</use>
<use transform="translate(60.48874 33.582283), rotate(-180)" xlink:href="#item_5">
<title>item, id: 5, transf: [r: -180.000°, t: (60.489, 33.582)]</title>
</use>
<use transform="translate(30.381737 44.486404), rotate(0)" xlink:href="#item_5">
<title>item, id: 5, transf: [r: 0.000°, t: (30.382, 44.486)]</title>
</use>
<use transform="translate(34.96971 48.575672), rotate(-90)" xlink:href="#item_5">
<title>item, id: 5, transf: [r: -90.000°, t: (34.970, 48.576)]</title>
</use>
<use transform="translate(55.474922 103.99984), rotate(-90)" xlink:href="#item_5">
<title>item, id: 5, transf: [r: -90.000°, t: (55.475, 104.000)]</title>
</use>
</g>
<g id="quality_zones"/>
<g id="optionals">
<g id="overlap_lines" transform="translate(0 0), rotate(0)"/>
</g>
<text font-family="monospace" font-size="1.909713" font-weight="500" x="0" y="-0.9548565">
height: 104.000 | width: 76.389 | usage: 90.554% | final_bench_41
</text>
</svg>