<svg viewBox="-3.80614 -5.2000012 83.735054 114.40001" xmlns="http://www.w3.org/2000/svg" xmlns:xlink="http://www.w3.org/1999/xlink">
<g id="bin_0">
<path d="M0,0 L76.12278,0 L76.12278,104 L0,104 z" fill="#D3D3D3" stroke="black" stroke-width="0.41867527"/>
<title>bin, id: 0, bbox: [x_min: 0.000, y_min: 0.000, x_max: 76.123, y_max: 104.000]</title>
</g>
<g id="items">
<defs>
<g id="item_0">
<path d="M0,0 L21,0 L21,22 L14,28 L7,28 L0,22 z" fill="#7A7A7A" fill-opacity="0.5" fill-rule="nonzero" stroke="black" stroke-width="0.20933764"/>
</g>
<g id="item_1">
<path d="M0,5 L2,0 L11,2 L19,0 L21,5 L17,4 L11,6 L4,4 z" fill="#7A7A7A" fill-opacity="0.5" fill-rule="nonzero" stroke="black" stroke-width="0.20933764"/>
</g>
<g id="item_2">
<path d="M0,0 L33,0 L33,14 L30,14 L26,17 L13,15 L0,17 z" fill="#7A7A7A" fill-opacity="0.5" fill-rule="nonzero" stroke="black" stroke-width="0.20933764"/>
</g>
<g id="item_3">
<path d="M0,0 L4,0 L4,39 L0,39 z" fill="#7A7A7A" fill-opacity="0.5" fill-rule="nonzero" stroke="black" stroke-width="0.20933764"/>
</g>
<g id="item_4">
<path d="M0,0 L10,0 L10,11 L0,11 z" fill="#7A7A7A" fill-opacity="0.5" fill-rule="nonzero" stroke="black" stroke-width="0.20933764"/>
</g>
<g id="item_5">
<path d="M2,20 L0,18 L2,10 L0,2 L2,0 L4,10 z" fill="#7A7A7A" fill-opacity="0.5" fill-rule="nonzero" stroke="black" stroke-width="0.20933764"/>
</g>
<g id="item_6">
<path d="M0,0 L29,0 L27,12 L29,22 L25,26 L25,33 L18,37 L16,35 L14,35 L12,37 L4,34 L4,26 L0,22 L2,12 z" fill="#7A7A7A" fill-opacity="0.5" fill-rule="nonzero" stroke="black" stroke-width="0.20933764"/>
</g>
<g id="item_7">
<path d="M0,0 L33,0 L37,6 L35,13 L28,13 L25,15 L14,13 L0,15 z" fill="#7A7A7A" fill-opacity="0.5" fill-rule="nonzero" stroke="black" stroke-width="0.20933764"/>
</g>
</defs>
<use transform="translate(0.00045776367 67.00126), rotate(-90)" xlink:href="#item_6">
<title>item, id: 6, transf: [r: -90.000°, t: (0.000, 67.001)]</title>
</use>
<use transform="translate(62.942654 103.98907), rotate(-180)" xlink:href="#item_6">
<title>item, id: 6, transf: [r: -180.000°, t: (62.943, 103.989)]</title>
</use>
<use transform="translate(33.00009 82.91026), rotate(-180)" xlink:href="#item_2">
<title>item, id: 2, transf: [r: -180.000°, t: (33.000, 82.910)]</title>
</use>
<use transform="translate(33.002235 38.00015), rotate(-180)" xlink:href="#item_2">
<title>item, id: 2, transf: [r: -180.000°, t: (33.002, 38.000)]</title>
</use>
<use transform="translate(33.126278 25.001526), rotate(0)" xlink:href="#item_7">
<title>item, id: 7, transf: [r: 0.000°, t: (33.126, 25.002)]</title>
</use>
<use transform="translate(76.12273 66.9999), rotate(90)" xlink:href="#item_7">
<title>item, id: 7, transf: [r: 90.000°, t: (76.123, 67.000)]</title>
</use>
<use transform="translate(0.0007638931 21.000072), rotate(-90)" xlink:href="#item_0">
<title>item, id: 0, transf: [r: -90.000°, t: (0.001, 21.000)]</title>
</use>
<use transform="translate(33.029377 21.00016), rotate(-90)" xlink:href="#item_0">
<title>item, id: 0, transf: [r: -90.000°, t: (33.029, 21.000)]</title>
</use>
<use transform="translate(0.00001335144 103.99544), rotate(-90)" xlink:href="#item_0">
<title>item, id: 0, transf: [r: -90.000°, t: (0.000, 103.995)]</title>
</use>
<use transform="translate(76.12263 66.00299), rotate(-180)" xlink:href="#item_0">
<title>item, id: 0, transf: [r: -180.000°, t: (76.123, 66.003)]</title>
</use>
<use transform="translate(72.111145 21.000757), rotate(90)" xlink:href="#item_3">
<title>item, id: 3, transf: [r: 90.000°, t: (72.111, 21.001)]</title>
</use>
<use transform="translate(76.122665 39.00042), rotate(-180)" xlink:href="#item_3">
<title>item, id: 3, transf: [r: -180.000°, t: (76.123, 39.000)]</title>
</use>
<use transform="translate(54.99017 46.941433), rotate(-180)" xlink:href="#item_1">
<title>item, id: 1, transf: [r: -180.000°, t: (54.990, 46.941)]</title>
</use>
<use transform="translate(41.801796 48.197113), rotate(90)" xlink:href="#item_1">
<title>item, id: 1, transf: [r: 90.000°, t: (41.802, 48.197)]</title>
</use>
<use transform="translate(26.964 103.995575), rotate(-90)" xlink:href="#item_1">
<title>item, id: 1, transf: [r: -90.000°, t: (26.964, 103.996)]</title>
</use>
<use transform="translate(26.854742 21.15929), rotate(-90)" xlink:href="#item_1">
<title>item, id: 1, transf: [r: -90.000°, t: (26.855, 21.159)]</title>
</use>
<use transform="translate(72.1168 0.015305042), rotate(90)" xlink:href="#item_4">
<title>item, id: 4, transf: [r: 90.000°, t: (72.117, 0.015)]</title>
</use>
<use transform="translate(55.121994 56.977573), rotate(90)" xlink:href="#item_4">
<title>item, id: 4, transf: [r: 90.000°, t: (55.122, 56.978)]</title>
</use>
<use transform="translate(61.05945 20.122725), rotate(-90)" xlink:href="#item_4">
<title>item, id: 4, transf: [r: -90.000°, t: (61.059, 20.123)]</title>
</use>
<use transform="translate(55.12169 46.948673), rotate(90)" xlink:href="#item_4">
<title>item, id: 4, transf: [r: 90.000°, t: (55.122, 46.949)]</title>
</use>
<use transform="translate(31.817783 82.73592), rotate(0)" xlink:href="#item_5">
<title>item, id: 5, transf: [r: 0.000°, t: (31.818, 82.736)]</title>
</use>
<use transform="translate(37.00084 80.93085), rotate(-180)" xlink:href="#item_5">
<title>item, id: 5, transf: [r: -180.000°, t: (37.001, 80.931)]</title>
</use>
<use transform="translate(36.21941 42.133293), rotate(-90)" xlink:href="#item_5">
<title>item, id: 5, transf: [r: -90.000°, t: (36.219, 42.133)]</title>
</use>
<use transform="translate(44.121193 68.60075), rotate(-180)" xlink:href="#item_5">
<title>item, id: 5, transf: [r: -180.000°, t: (44.121, 68.601)]</title>
</use>
</g>
<g id="quality_zones"/>
<g id="optionals">
<g id="overlap_lines" transform="translate(0 0), rotate(0)"/>
</g>
<text font-family="monospace" font-size="1.9030695" font-weight="500" x="0" y="-0.95153475">
height: 104.000 | width: 76.123 | usage: 90.870% | final_bench_12
</text>
</svg>