<svg viewBox="-11.900113 -3.950001 261.80243 86.90001" xmlns="http://www.w3.org/2000/svg" xmlns:xlink="http://www.w3.org/1999/xlink">
<g id="bin_0">
<path d="M0,0 L238.00221,0 L238.00221,79 L0,79 z" fill="#D3D3D3" stroke="black" stroke-width="0.43450004"/>
<title>bin, id: 0, bbox: [x_min: 0.000, y_min: 0.000, x_max: 238.002, y_max: 79.000]</title>
</g>
<g id="items">
<defs>
<g id="item_0">
<path d="M0,0 L12,-1 L14,-3.0000005 L24,0 L33,1 L59,2 L59,13 L4,13 L4,8 L2,5 L0,5 z" fill="#7A7A7A" fill-opacity="0.5" fill-rule="nonzero" stroke="black" stroke-width="0.21725002"/>
</g>
<g id="item_1">
<path d="M0,0 L0,-14 L27,-17 L37,-20 L41,-22 L47,-19 L56,-16 L56,0 z" fill="#7A7A7A" fill-opacity="0.5" fill-rule="nonzero" stroke="black" stroke-width="0.21725002"/>
</g>
<g id="item_2">
<path d="M0,0 L57,0 L57,5 L0,5 z" fill="#7A7A7A" fill-opacity="0.5" fill-rule="nonzero" stroke="black" stroke-width="0.21725002"/>
</g>
<g id="item_3">
<path d="M0,0 L52,0 L52,5 L0,5 z" fill="#7A7A7A" fill-opacity="0.5" fill-rule="nonzero" stroke="black" stroke-width="0.21725002"/>
</g>
<g id="item_4">
<path d="M0,0 L44,0 L44,5 L0,5 z" fill="#7A7A7A" fill-opacity="0.5" fill-rule="nonzero" stroke="black" stroke-width="0.21725002"/>
</g>
<g id="item_5">
<path d="M0,0 L42,0 L42,5 L0,5 z" fill="#7A7A7A" fill-opacity="0.5" fill-rule="nonzero" stroke="black" stroke-width="0.21725002"/>
</g>
<g id="item_6">
<path d="M0,0 L21,0 L21,2 L0,2 z" fill="#7A7A7A" fill-opacity="0.5" fill-rule="nonzero" stroke="black" stroke-width="0.21725002"/>
</g>
<g id="item_7">
<path d="M0,0 L15,4 L13,7 L0,6 z" fill="#7A7A7A" fill-opacity="0.5" fill-rule="nonzero" stroke="black" stroke-width="0.21725002"/>
</g>
<g id="item_8">
<path d="M0,0 L15,1 L15,4 L0,4 z" fill="#7A7A7A" fill-opacity="0.5" fill-rule="nonzero" stroke="black" stroke-width="0.21725002"/>
</g>
<g id="item_9">
<path d="M0,0 L14,0 L14,5 L0,5 z" fill="#7A7A7A" fill-opacity="0.5" fill-rule="nonzero" stroke="black" stroke-width="0.21725002"/>
</g>
<g id="item_10">
<path d="M0,0 L14,1 L14,4 L0,4 z" fill="#7A7A7A" fill-opacity="0.5" fill-rule="nonzero" stroke="black" stroke-width="0.21725002"/>
</g>
<g id="item_11">
<path d="M0,0 L13,0 L13,5 L0,5 z" fill="#7A7A7A" fill-opacity="0.5" fill-rule="nonzero" stroke="black" stroke-width="0.21725002"/>
</g>
<g id="item_12">
<path d="M0,0 L13,1 L13,4 L0,4 z" fill="#7A7A7A" fill-opacity="0.5" fill-rule="nonzero" stroke="black" stroke-width="0.21725002"/>
</g>
<g id="item_13">
<path d="M0,0 L12,0 L12,5 L0,5 z" fill="#7A7A7A" fill-opacity="0.5" fill-rule="nonzero" stroke="black" stroke-width="0.21725002"/>
</g>
<g id="item_14">
<path d="M0,0 L4,2 L6,10 L4,11 L-4,11 L-6,10 L-4,2 z" fill="#7A7A7A" fill-opacity="0.5" fill-rule="nonzero" stroke="black" stroke-width="0.21725002"/>
</g>
<g id="item_15">
<path d="M0,0 L3,-2 L8,0 L8,8 L2,8 z" fill="#7A7A7A" fill-opacity="0.5" fill-rule="nonzero" stroke="black" stroke-width="0.21725002"/>
</g>
<g id="item_16">
<path d="M0,0 L2,1 L3,6 L2,7 L-2,7 L-3,6 L-2,1 z" fill="#7A7A7A" fill-opacity="0.5" fill-rule="nonzero" stroke="black" stroke-width="0.21725002"/>
</g>
</defs>
<use transform="translate(116.25276 5.0067453), rotate(-180)" xlink:href="#item_1">
<title>item, id: 1, transf: [r: -180.000°, t: (116.253, 5.007)]</title>
</use>
<use transform="translate(0.0039463043 37.881104), rotate(0)" xlink:href="#item_1">
<title>item, id: 1, transf: [r: 0.000°, t: (0.004, 37.881)]</title>
</use>
<use transform="translate(237.92747 5.0022297), rotate(-180)" xlink:href="#item_1">
<title>item, id: 1, transf: [r: -180.000°, t: (237.927, 5.002)]</title>
</use>
<use transform="translate(56.01018 43.42615), rotate(0)" xlink:href="#item_1">
<title>item, id: 1, transf: [r: 0.000°, t: (56.010, 43.426)]</title>
</use>
<use transform="translate(56.000023 0.002161026), rotate(-180)" xlink:href="#item_1">
<title>item, id: 1, transf: [r: -180.000°, t: (56.000, 0.002)]</title>
</use>
<use transform="translate(238.00203 49.576035), rotate(-180)" xlink:href="#item_1">
<title>item, id: 1, transf: [r: -180.000°, t: (238.002, 49.576)]</title>
</use>
<use transform="translate(115.000854 43.42707), rotate(-180)" xlink:href="#item_1">
<title>item, id: 1, transf: [r: -180.000°, t: (115.001, 43.427)]</title>
</use>
<use transform="translate(172.26013 0.00022506714), rotate(-180)" xlink:href="#item_1">
<title>item, id: 1, transf: [r: -180.000°, t: (172.260, 0.000)]</title>
</use>
<use transform="translate(182.00116 64.30478), rotate(-180)" xlink:href="#item_0">
<title>item, id: 0, transf: [r: -180.000°, t: (182.001, 64.305)]</title>
</use>
<use transform="translate(59.000656 55.901024), rotate(-180)" xlink:href="#item_0">
<title>item, id: 0, transf: [r: -180.000°, t: (59.001, 55.901)]</title>
</use>
<use transform="translate(177.25558 36.56943), rotate(0)" xlink:href="#item_0">
<title>item, id: 0, transf: [r: 0.000°, t: (177.256, 36.569)]</title>
</use>
<use transform="translate(67.23863 65.99978), rotate(0)" xlink:href="#item_0">
<title>item, id: 0, transf: [r: 0.000°, t: (67.239, 66.000)]</title>
</use>
<use transform="translate(126.33149 65.99984), rotate(0)" xlink:href="#item_0">
<title>item, id: 0, transf: [r: 0.000°, t: (126.331, 66.000)]</title>
</use>
<use transform="translate(8.111273 60.99973), rotate(0)" xlink:href="#item_0">
<title>item, id: 0, transf: [r: 0.000°, t: (8.111, 61.000)]</title>
</use>
<use transform="translate(113.10995 38.30237), rotate(0)" xlink:href="#item_0">
<title>item, id: 0, transf: [r: 0.000°, t: (113.110, 38.302)]</title>
</use>
<use transform="translate(125.454994 22.969028), rotate(0)" xlink:href="#item_0">
<title>item, id: 0, transf: [r: 0.000°, t: (125.455, 22.969)]</title>
</use>
<use transform="translate(180.18617 0.000009059906), rotate(0)" xlink:href="#item_2">
<title>item, id: 2, transf: [r: 0.000°, t: (180.186, 0.000)]</title>
</use>
<use transform="translate(13.170994 73.99991), rotate(0)" xlink:href="#item_3">
<title>item, id: 3, transf: [r: 0.000°, t: (13.171, 74.000)]</title>
</use>
<use transform="translate(44.000183 42.88198), rotate(-180)" xlink:href="#item_4">
<title>item, id: 4, transf: [r: -180.000°, t: (44.000, 42.882)]</title>
</use>
<use transform="translate(73.93235 0.0019564629), rotate(0)" xlink:href="#item_5">
<title>item, id: 5, transf: [r: 0.000°, t: (73.932, 0.002)]</title>
</use>
<use transform="translate(225.792 65.99451), rotate(0)" xlink:href="#item_14">
<title>item, id: 14, transf: [r: 0.000°, t: (225.792, 65.995)]</title>
</use>
<use transform="translate(222.4033 20.759903), rotate(0)" xlink:href="#item_14">
<title>item, id: 14, transf: [r: 0.000°, t: (222.403, 20.760)]</title>
</use>
<use transform="translate(231.99593 31.130224), rotate(-180)" xlink:href="#item_14">
<title>item, id: 14, transf: [r: -180.000°, t: (231.996, 31.130)]</title>
</use>
<use transform="translate(202.57877 24.51179), rotate(0)" xlink:href="#item_14">
<title>item, id: 14, transf: [r: 0.000°, t: (202.579, 24.512)]</title>
</use>
<use transform="translate(215.91238 77.49874), rotate(-180)" xlink:href="#item_14">
<title>item, id: 14, transf: [r: -180.000°, t: (215.912, 77.499)]</title>
</use>
<use transform="translate(212.07693 33.97075), rotate(-180)" xlink:href="#item_14">
<title>item, id: 14, transf: [r: -180.000°, t: (212.077, 33.971)]</title>
</use>
<use transform="translate(206.53719 67.99998), rotate(0)" xlink:href="#item_14">
<title>item, id: 14, transf: [r: 0.000°, t: (206.537, 68.000)]</title>
</use>
<use transform="translate(7.1102495 67.99887), rotate(0)" xlink:href="#item_14">
<title>item, id: 14, transf: [r: 0.000°, t: (7.110, 67.999)]</title>
</use>
<use transform="translate(70.0559 5.0065174), rotate(-180)" xlink:href="#item_9">
<title>item, id: 9, transf: [r: -180.000°, t: (70.056, 5.007)]</title>
</use>
<use transform="translate(104.184296 67.147095), rotate(-180)" xlink:href="#item_7">
<title>item, id: 7, transf: [r: -180.000°, t: (104.184, 67.147)]</title>
</use>
<use transform="translate(116.40964 27.462433), rotate(-180)" xlink:href="#item_7">
<title>item, id: 7, transf: [r: -180.000°, t: (116.410, 27.462)]</title>
</use>
<use transform="translate(56.00593 20.911098), rotate(0)" xlink:href="#item_7">
<title>item, id: 7, transf: [r: 0.000°, t: (56.006, 20.911)]</title>
</use>
<use transform="translate(159.80006 23.975863), rotate(-180)" xlink:href="#item_7">
<title>item, id: 7, transf: [r: -180.000°, t: (159.800, 23.976)]</title>
</use>
<use transform="translate(186.74236 68.93254), rotate(0)" xlink:href="#item_7">
<title>item, id: 7, transf: [r: 0.000°, t: (186.742, 68.933)]</title>
</use>
<use transform="translate(112.083336 30.29459), rotate(0)" xlink:href="#item_7">
<title>item, id: 7, transf: [r: 0.000°, t: (112.083, 30.295)]</title>
</use>
<use transform="translate(127.06943 34.288654), rotate(-180)" xlink:href="#item_7">
<title>item, id: 7, transf: [r: -180.000°, t: (127.069, 34.289)]</title>
</use>
<use transform="translate(60.234604 21.995047), rotate(-180)" xlink:href="#item_7">
<title>item, id: 7, transf: [r: -180.000°, t: (60.235, 21.995)]</title>
</use>
<use transform="translate(161.75082 15.168194), rotate(0)" xlink:href="#item_11">
<title>item, id: 11, transf: [r: 0.000°, t: (161.751, 15.168)]</title>
</use>
<use transform="translate(157.54182 38.115864), rotate(-180)" xlink:href="#item_6">
<title>item, id: 6, transf: [r: -180.000°, t: (157.542, 38.116)]</title>
</use>
<use transform="translate(116.36414 63.077423), rotate(0)" xlink:href="#item_6">
<title>item, id: 6, transf: [r: 0.000°, t: (116.364, 63.077)]</title>
</use>
<use transform="translate(35.298676 57.995354), rotate(-180)" xlink:href="#item_6">
<title>item, id: 6, transf: [r: -180.000°, t: (35.299, 57.995)]</title>
</use>
<use transform="translate(163.89685 22.168968), rotate(0)" xlink:href="#item_6">
<title>item, id: 6, transf: [r: 0.000°, t: (163.897, 22.169)]</title>
</use>
<use transform="translate(181.92715 22.168901), rotate(-180)" xlink:href="#item_6">
<title>item, id: 6, transf: [r: -180.000°, t: (181.927, 22.169)]</title>
</use>
<use transform="translate(217.00214 76.99976), rotate(0)" xlink:href="#item_6">
<title>item, id: 6, transf: [r: 0.000°, t: (217.002, 77.000)]</title>
</use>
<use transform="translate(232.35551 37.611732), rotate(-180)" xlink:href="#item_6">
<title>item, id: 6, transf: [r: -180.000°, t: (232.356, 37.612)]</title>
</use>
<use transform="translate(105.331406 65.19557), rotate(0)" xlink:href="#item_6">
<title>item, id: 6, transf: [r: 0.000°, t: (105.331, 65.196)]</title>
</use>
<use transform="translate(185.47168 74.988365), rotate(0)" xlink:href="#item_8">
<title>item, id: 8, transf: [r: 0.000°, t: (185.472, 74.988)]</title>
</use>
<use transform="translate(58.93506 62.211235), rotate(-180)" xlink:href="#item_13">
<title>item, id: 13, transf: [r: -180.000°, t: (58.935, 62.211)]</title>
</use>
<use transform="translate(44.00716 37.900772), rotate(0)" xlink:href="#item_13">
<title>item, id: 13, transf: [r: 0.000°, t: (44.007, 37.901)]</title>
</use>
<use transform="translate(180.75266 8.004946), rotate(-180)" xlink:href="#item_15">
<title>item, id: 15, transf: [r: -180.000°, t: (180.753, 8.005)]</title>
</use>
<use transform="translate(172.19254 43.105938), rotate(0)" xlink:href="#item_15">
<title>item, id: 15, transf: [r: 0.000°, t: (172.193, 43.106)]</title>
</use>
<use transform="translate(115.00095 54.19379), rotate(0)" xlink:href="#item_15">
<title>item, id: 15, transf: [r: 0.000°, t: (115.001, 54.194)]</title>
</use>
<use transform="translate(116.37978 19.598719), rotate(0)" xlink:href="#item_15">
<title>item, id: 15, transf: [r: 0.000°, t: (116.380, 19.599)]</title>
</use>
<use transform="translate(192.57713 32.169983), rotate(-180)" xlink:href="#item_15">
<title>item, id: 15, transf: [r: -180.000°, t: (192.577, 32.170)]</title>
</use>
<use transform="translate(173.87433 11.655124), rotate(0)" xlink:href="#item_15">
<title>item, id: 15, transf: [r: 0.000°, t: (173.874, 11.655)]</title>
</use>
<use transform="translate(230.00218 68.79288), rotate(0)" xlink:href="#item_15">
<title>item, id: 15, transf: [r: 0.000°, t: (230.002, 68.793)]</title>
</use>
<use transform="translate(8.004175 65.96476), rotate(-180)" xlink:href="#item_15">
<title>item, id: 15, transf: [r: -180.000°, t: (8.004, 65.965)]</title>
</use>
<use transform="translate(14.2378 58.544544), rotate(-180)" xlink:href="#item_10">
<title>item, id: 10, transf: [r: -180.000°, t: (14.238, 58.545)]</title>
</use>
<use transform="translate(216.1699 31.608212), rotate(0)" xlink:href="#item_12">
<title>item, id: 12, transf: [r: 0.000°, t: (216.170, 31.608)]</title>
</use>
<use transform="translate(171.06279 40.140366), rotate(-180)" xlink:href="#item_12">
<title>item, id: 12, transf: [r: -180.000°, t: (171.063, 40.140)]</title>
</use>
<use transform="translate(108.239624 58.178406), rotate(0)" xlink:href="#item_16">
<title>item, id: 16, transf: [r: 0.000°, t: (108.240, 58.178)]</title>
</use>
<use transform="translate(194.73508 33.950157), rotate(-180)" xlink:href="#item_16">
<title>item, id: 16, transf: [r: -180.000°, t: (194.735, 33.950)]</title>
</use>
<use transform="translate(113.2411 65.18487), rotate(-180)" xlink:href="#item_16">
<title>item, id: 16, transf: [r: -180.000°, t: (113.241, 65.185)]</title>
</use>
<use transform="translate(234.70752 37.98008), rotate(-180)" xlink:href="#item_16">
<title>item, id: 16, transf: [r: -180.000°, t: (234.708, 37.980)]</title>
</use>
</g>
<g id="quality_zones"/>
<g id="optionals">
<g id="overlap_lines" transform="translate(0 0), rotate(0)"/>
</g>
<text font-family="monospace" font-size="1.975" font-weight="500" x="0" y="-0.9875">
height: 79.000 | width: 238.002 | usage: 91.513% | final_bench_19
</text>
</svg>