<svg viewBox="-11.86075 -3.950001 260.93646 86.90001" xmlns="http://www.w3.org/2000/svg" xmlns:xlink="http://www.w3.org/1999/xlink">
<g id="bin_0">
<path d="M0,0 L237.21495,0 L237.21495,79 L0,79 z" fill="#D3D3D3" stroke="black" stroke-width="0.43450004"/>
<title>bin, id: 0, bbox: [x_min: 0.000, y_min: 0.000, x_max: 237.215, y_max: 79.000]</title>
</g>
<g id="items">
<defs>
<g id="item_0">
<path d="M0,0 L12,-1 L14,-3.0000005 L24,0 L33,1 L59,2 L59,13 L4,13 L4,8 L2,5 L0,5 z" fill="#7A7A7A" fill-opacity="0.5" fill-rule="nonzero" stroke="black" stroke-width="0.21725002"/>
</g>
<g id="item_1">
<path d="M0,0 L0,-14 L27,-17 L37,-20 L41,-22 L47,-19 L56,-16 L56,0 z" fill="#7A7A7A" fill-opacity="0.5" fill-rule="nonzero" stroke="black" stroke-width="0.21725002"/>
</g>
<g id="item_2">
<path d="M0,0 L57,0 L57,5 L0,5 z" fill="#7A7A7A" fill-opacity="0.5" fill-rule="nonzero" stroke="black" stroke-width="0.21725002"/>
</g>
<g id="item_3">
<path d="M0,0 L52,0 L52,5 L0,5 z" fill="#7A7A7A" fill-opacity="0.5" fill-rule="nonzero" stroke="black" stroke-width="0.21725002"/>
</g>
<g id="item_4">
<path d="M0,0 L44,0 L44,5 L0,5 z" fill="#7A7A7A" fill-opacity="0.5" fill-rule="nonzero" stroke="black" stroke-width="0.21725002"/>
</g>
<g id="item_5">
<path d="M0,0 L42,0 L42,5 L0,5 z" fill="#7A7A7A" fill-opacity="0.5" fill-rule="nonzero" stroke="black" stroke-width="0.21725002"/>
</g>
<g id="item_6">
<path d="M0,0 L21,0 L21,2 L0,2 z" fill="#7A7A7A" fill-opacity="0.5" fill-rule="nonzero" stroke="black" stroke-width="0.21725002"/>
</g>
<g id="item_7">
<path d="M0,0 L15,4 L13,7 L0,6 z" fill="#7A7A7A" fill-opacity="0.5" fill-rule="nonzero" stroke="black" stroke-width="0.21725002"/>
</g>
<g id="item_8">
<path d="M0,0 L15,1 L15,4 L0,4 z" fill="#7A7A7A" fill-opacity="0.5" fill-rule="nonzero" stroke="black" stroke-width="0.21725002"/>
</g>
<g id="item_9">
<path d="M0,0 L14,0 L14,5 L0,5 z" fill="#7A7A7A" fill-opacity="0.5" fill-rule="nonzero" stroke="black" stroke-width="0.21725002"/>
</g>
<g id="item_10">
<path d="M0,0 L14,1 L14,4 L0,4 z" fill="#7A7A7A" fill-opacity="0.5" fill-rule="nonzero" stroke="black" stroke-width="0.21725002"/>
</g>
<g id="item_11">
<path d="M0,0 L13,0 L13,5 L0,5 z" fill="#7A7A7A" fill-opacity="0.5" fill-rule="nonzero" stroke="black" stroke-width="0.21725002"/>
</g>
<g id="item_12">
<path d="M0,0 L13,1 L13,4 L0,4 z" fill="#7A7A7A" fill-opacity="0.5" fill-rule="nonzero" stroke="black" stroke-width="0.21725002"/>
</g>
<g id="item_13">
<path d="M0,0 L12,0 L12,5 L0,5 z" fill="#7A7A7A" fill-opacity="0.5" fill-rule="nonzero" stroke="black" stroke-width="0.21725002"/>
</g>
<g id="item_14">
<path d="M0,0 L4,2 L6,10 L4,11 L-4,11 L-6,10 L-4,2 z" fill="#7A7A7A" fill-opacity="0.5" fill-rule="nonzero" stroke="black" stroke-width="0.21725002"/>
</g>
<g id="item_15">
<path d="M0,0 L3,-2 L8,0 L8,8 L2,8 z" fill="#7A7A7A" fill-opacity="0.5" fill-rule="nonzero" stroke="black" stroke-width="0.21725002"/>
</g>
<g id="item_16">
<path d="M0,0 L2,1 L3,6 L2,7 L-2,7 L-3,6 L-2,1 z" fill="#7A7A7A" fill-opacity="0.5" fill-rule="nonzero" stroke="black" stroke-width="0.21725002"/>
</g>
</defs>
<use transform="translate(56.002632 37.32879), rotate(-180)" xlink:href="#item_1">
<title>item, id: 1, transf: [r: -180.000°, t: (56.003, 37.329)]</title>
</use>
<use transform="translate(67.44145 78.99867), rotate(0)" xlink:href="#item_1">
<title>item, id: 1, transf: [r: 0.000°, t: (67.441, 78.999)]</title>
</use>
<use transform="translate(168.0495 42.795296), rotate(-180)" xlink:href="#item_1">
<title>item, id: 1, transf: [r: -180.000°, t: (168.049, 42.795)]</title>
</use>
<use transform="translate(125.21086 78.99974), rotate(0)" xlink:href="#item_1">
<title>item, id: 1, transf: [r: 0.000°, t: (125.211, 79.000)]</title>
</use>
<use transform="translate(181.2148 78.999985), rotate(0)" xlink:href="#item_1">
<title>item, id: 1, transf: [r: 0.000°, t: (181.215, 79.000)]</title>
</use>
<use transform="translate(112.02402 38.853065), rotate(-180)" xlink:href="#item_1">
<title>item, id: 1, transf: [r: -180.000°, t: (112.024, 38.853)]</title>
</use>
<use transform="translate(9.305058 73.99553), rotate(0)" xlink:href="#item_1">
<title>item, id: 1, transf: [r: 0.000°, t: (9.305, 73.996)]</title>
</use>
<use transform="translate(237.2137 5.0243826), rotate(-180)" xlink:href="#item_1">
<title>item, id: 1, transf: [r: -180.000°, t: (237.214, 5.024)]</title>
</use>
<use transform="translate(125.62627 18.122463), rotate(-180)" xlink:href="#item_0">
<title>item, id: 0, transf: [r: -180.000°, t: (125.626, 18.122)]</title>
</use>
<use transform="translate(181.21344 13.001064), rotate(-180)" xlink:href="#item_0">
<title>item, id: 0, transf: [r: -180.000°, t: (181.213, 13.001)]</title>
</use>
<use transform="translate(175.06128 39.727783), rotate(-180)" xlink:href="#item_0">
<title>item, id: 0, transf: [r: -180.000°, t: (175.061, 39.728)]</title>
</use>
<use transform="translate(237.20297 53.623405), rotate(-180)" xlink:href="#item_0">
<title>item, id: 0, transf: [r: -180.000°, t: (237.203, 53.623)]</title>
</use>
<use transform="translate(59.00006 13.498603), rotate(-180)" xlink:href="#item_0">
<title>item, id: 0, transf: [r: -180.000°, t: (59.000, 13.499)]</title>
</use>
<use transform="translate(56.68721 20.825642), rotate(0)" xlink:href="#item_0">
<title>item, id: 0, transf: [r: 0.000°, t: (56.687, 20.826)]</title>
</use>
<use transform="translate(0.0022029877 24.30456), rotate(0)" xlink:href="#item_0">
<title>item, id: 0, transf: [r: 0.000°, t: (0.002, 24.305)]</title>
</use>
<use transform="translate(171.79367 27.623373), rotate(0)" xlink:href="#item_0">
<title>item, id: 0, transf: [r: 0.000°, t: (171.794, 27.623)]</title>
</use>
<use transform="translate(116.03189 38.82749), rotate(-180)" xlink:href="#item_2">
<title>item, id: 2, transf: [r: -180.000°, t: (116.032, 38.827)]</title>
</use>
<use transform="translate(70.149765 0.061169863), rotate(0)" xlink:href="#item_3">
<title>item, id: 3, transf: [r: 0.000°, t: (70.150, 0.061)]</title>
</use>
<use transform="translate(193.21426 0.000103235245), rotate(0)" xlink:href="#item_4">
<title>item, id: 4, transf: [r: 0.000°, t: (193.214, 0.000)]</title>
</use>
<use transform="translate(67.28451 78.99745), rotate(-180)" xlink:href="#item_5">
<title>item, id: 5, transf: [r: -180.000°, t: (67.285, 78.997)]</title>
</use>
<use transform="translate(181.5276 62.914413), rotate(-180)" xlink:href="#item_14">
<title>item, id: 14, transf: [r: -180.000°, t: (181.528, 62.914)]</title>
</use>
<use transform="translate(49.647396 14.783918), rotate(0)" xlink:href="#item_14">
<title>item, id: 14, transf: [r: 0.000°, t: (49.647, 14.784)]</title>
</use>
<use transform="translate(169.7748 15.726446), rotate(0)" xlink:href="#item_14">
<title>item, id: 14, transf: [r: 0.000°, t: (169.775, 15.726)]</title>
</use>
<use transform="translate(160.09106 26.327923), rotate(-180)" xlink:href="#item_14">
<title>item, id: 14, transf: [r: -180.000°, t: (160.091, 26.328)]</title>
</use>
<use transform="translate(191.15504 52.442448), rotate(0)" xlink:href="#item_14">
<title>item, id: 14, transf: [r: 0.000°, t: (191.155, 52.442)]</title>
</use>
<use transform="translate(132.35037 22.560015), rotate(-180)" xlink:href="#item_14">
<title>item, id: 14, transf: [r: -180.000°, t: (132.350, 22.560)]</title>
</use>
<use transform="translate(6.0012693 12.470903), rotate(0)" xlink:href="#item_14">
<title>item, id: 14, transf: [r: 0.000°, t: (6.001, 12.471)]</title>
</use>
<use transform="translate(24.386631 23.76415), rotate(-180)" xlink:href="#item_14">
<title>item, id: 14, transf: [r: -180.000°, t: (24.387, 23.764)]</title>
</use>
<use transform="translate(193.18558 5.018922), rotate(-180)" xlink:href="#item_9">
<title>item, id: 9, transf: [r: -180.000°, t: (193.186, 5.019)]</title>
</use>
<use transform="translate(29.177984 18.645538), rotate(0)" xlink:href="#item_7">
<title>item, id: 7, transf: [r: 0.000°, t: (29.178, 18.646)]</title>
</use>
<use transform="translate(30.55966 13.005947), rotate(0)" xlink:href="#item_7">
<title>item, id: 7, transf: [r: 0.000°, t: (30.560, 13.006)]</title>
</use>
<use transform="translate(121.3691 19.701633), rotate(0)" xlink:href="#item_7">
<title>item, id: 7, transf: [r: 0.000°, t: (121.369, 19.702)]</title>
</use>
<use transform="translate(153.71869 18.716839), rotate(-180)" xlink:href="#item_7">
<title>item, id: 7, transf: [r: -180.000°, t: (153.719, 18.717)]</title>
</use>
<use transform="translate(137.88669 14.495729), rotate(0)" xlink:href="#item_7">
<title>item, id: 7, transf: [r: 0.000°, t: (137.887, 14.496)]</title>
</use>
<use transform="translate(217.95938 22.634037), rotate(0)" xlink:href="#item_7">
<title>item, id: 7, transf: [r: 0.000°, t: (217.959, 22.634)]</title>
</use>
<use transform="translate(203.19267 52.599003), rotate(0)" xlink:href="#item_7">
<title>item, id: 7, transf: [r: 0.000°, t: (203.193, 52.599)]</title>
</use>
<use transform="translate(236.67503 27.617046), rotate(-180)" xlink:href="#item_7">
<title>item, id: 7, transf: [r: -180.000°, t: (236.675, 27.617)]</title>
</use>
<use transform="translate(217.87599 28.626034), rotate(-180)" xlink:href="#item_11">
<title>item, id: 11, transf: [r: -180.000°, t: (217.876, 28.626)]</title>
</use>
<use transform="translate(4.1181297 74.99772), rotate(0)" xlink:href="#item_6">
<title>item, id: 6, transf: [r: 0.000°, t: (4.118, 74.998)]</title>
</use>
<use transform="translate(137.16057 40.74777), rotate(-180)" xlink:href="#item_6">
<title>item, id: 6, transf: [r: -180.000°, t: (137.161, 40.748)]</title>
</use>
<use transform="translate(84.37578 56.298817), rotate(0)" xlink:href="#item_6">
<title>item, id: 6, transf: [r: 0.000°, t: (84.376, 56.299)]</title>
</use>
<use transform="translate(97.48882 60.68757), rotate(-180)" xlink:href="#item_6">
<title>item, id: 6, transf: [r: -180.000°, t: (97.489, 60.688)]</title>
</use>
<use transform="translate(65.525024 60.860195), rotate(0)" xlink:href="#item_6">
<title>item, id: 6, transf: [r: 0.000°, t: (65.525, 60.860)]</title>
</use>
<use transform="translate(156.82721 26.727377), rotate(-180)" xlink:href="#item_6">
<title>item, id: 6, transf: [r: -180.000°, t: (156.827, 26.727)]</title>
</use>
<use transform="translate(114.72787 40.79469), rotate(0)" xlink:href="#item_6">
<title>item, id: 6, transf: [r: 0.000°, t: (114.728, 40.795)]</title>
</use>
<use transform="translate(25.282833 78.99914), rotate(-180)" xlink:href="#item_6">
<title>item, id: 6, transf: [r: -180.000°, t: (25.283, 78.999)]</title>
</use>
<use transform="translate(137.0846 20.727085), rotate(0)" xlink:href="#item_8">
<title>item, id: 8, transf: [r: 0.000°, t: (137.085, 20.727)]</title>
</use>
<use transform="translate(54.46289 15.007608), rotate(0)" xlink:href="#item_13">
<title>item, id: 13, transf: [r: 0.000°, t: (54.463, 15.008)]</title>
</use>
<use transform="translate(55.001762 0.00023651123), rotate(0)" xlink:href="#item_13">
<title>item, id: 13, transf: [r: 0.000°, t: (55.002, 0.000)]</title>
</use>
<use transform="translate(176.36732 58.063316), rotate(-180)" xlink:href="#item_15">
<title>item, id: 15, transf: [r: -180.000°, t: (176.367, 58.063)]</title>
</use>
<use transform="translate(169.95808 41.90425), rotate(0)" xlink:href="#item_15">
<title>item, id: 15, transf: [r: 0.000°, t: (169.958, 41.904)]</title>
</use>
<use transform="translate(19.99606 20.202261), rotate(-180)" xlink:href="#item_15">
<title>item, id: 15, transf: [r: -180.000°, t: (19.996, 20.202)]</title>
</use>
<use transform="translate(173.2099 15.424923), rotate(0)" xlink:href="#item_15">
<title>item, id: 15, transf: [r: 0.000°, t: (173.210, 15.425)]</title>
</use>
<use transform="translate(8.001743 63.40426), rotate(-180)" xlink:href="#item_15">
<title>item, id: 15, transf: [r: -180.000°, t: (8.002, 63.404)]</title>
</use>
<use transform="translate(0.65054274 66.864365), rotate(0)" xlink:href="#item_15">
<title>item, id: 15, transf: [r: 0.000°, t: (0.651, 66.864)]</title>
</use>
<use transform="translate(195.18701 54.548046), rotate(0)" xlink:href="#item_15">
<title>item, id: 15, transf: [r: 0.000°, t: (195.187, 54.548)]</title>
</use>
<use transform="translate(58.62591 7.0017595), rotate(0)" xlink:href="#item_15">
<title>item, id: 15, transf: [r: 0.000°, t: (58.626, 7.002)]</title>
</use>
<use transform="translate(137.18953 38.7952), rotate(0)" xlink:href="#item_10">
<title>item, id: 10, transf: [r: 0.000°, t: (137.190, 38.795)]</title>
</use>
<use transform="translate(91.15604 21.066128), rotate(-180)" xlink:href="#item_12">
<title>item, id: 12, transf: [r: -180.000°, t: (91.156, 21.066)]</title>
</use>
<use transform="translate(91.15759 17.881897), rotate(0)" xlink:href="#item_12">
<title>item, id: 12, transf: [r: 0.000°, t: (91.158, 17.882)]</title>
</use>
<use transform="translate(234.1856 41.077282), rotate(-180)" xlink:href="#item_16">
<title>item, id: 16, transf: [r: -180.000°, t: (234.186, 41.077)]</title>
</use>
<use transform="translate(234.18826 26.955223), rotate(0)" xlink:href="#item_16">
<title>item, id: 16, transf: [r: 0.000°, t: (234.188, 26.955)]</title>
</use>
<use transform="translate(233.35837 61.591656), rotate(-180)" xlink:href="#item_16">
<title>item, id: 16, transf: [r: -180.000°, t: (233.358, 61.592)]</title>
</use>
<use transform="translate(118.34075 26.604515), rotate(-180)" xlink:href="#item_16">
<title>item, id: 16, transf: [r: -180.000°, t: (118.341, 26.605)]</title>
</use>
</g>
<g id="quality_zones"/>
<g id="optionals">
<g id="overlap_lines" transform="translate(0 0), rotate(0)"/>
</g>
<text font-family="monospace" font-size="1.975" font-weight="500" x="0" y="-0.9875">
height: 79.000 | width: 237.215 | usage: 91.817% | final_bench_15
</text>
</svg>