<svg viewBox="-11.900205 -3.950001 261.80444 86.90001" xmlns="http://www.w3.org/2000/svg" xmlns:xlink="http://www.w3.org/1999/xlink">
<g id="bin_0">
<path d="M0,0 L238.00403,0 L238.00403,79 L0,79 z" fill="#D3D3D3" stroke="black" stroke-width="0.43450004"/>
<title>bin, id: 0, bbox: [x_min: 0.000, y_min: 0.000, x_max: 238.004, y_max: 79.000]</title>
</g>
<g id="items">
<defs>
<g id="item_0">
<path d="M0,0 L12,-1 L14,-3.0000005 L24,0 L33,1 L59,2 L59,13 L4,13 L4,8 L2,5 L0,5 z" fill="#7A7A7A" fill-opacity="0.5" fill-rule="nonzero" stroke="black" stroke-width="0.21725002"/>
</g>
<g id="item_1">
<path d="M0,0 L0,-14 L27,-17 L37,-20 L41,-22 L47,-19 L56,-16 L56,0 z" fill="#7A7A7A" fill-opacity="0.5" fill-rule="nonzero" stroke="black" stroke-width="0.21725002"/>
</g>
<g id="item_2">
<path d="M0,0 L57,0 L57,5 L0,5 z" fill="#7A7A7A" fill-opacity="0.5" fill-rule="nonzero" stroke="black" stroke-width="0.21725002"/>
</g>
<g id="item_3">
<path d="M0,0 L52,0 L52,5 L0,5 z" fill="#7A7A7A" fill-opacity="0.5" fill-rule="nonzero" stroke="black" stroke-width="0.21725002"/>
</g>
<g id="item_4">
<path d="M0,0 L44,0 L44,5 L0,5 z" fill="#7A7A7A" fill-opacity="0.5" fill-rule="nonzero" stroke="black" stroke-width="0.21725002"/>
</g>
<g id="item_5">
<path d="M0,0 L42,0 L42,5 L0,5 z" fill="#7A7A7A" fill-opacity="0.5" fill-rule="nonzero" stroke="black" stroke-width="0.21725002"/>
</g>
<g id="item_6">
<path d="M0,0 L21,0 L21,2 L0,2 z" fill="#7A7A7A" fill-opacity="0.5" fill-rule="nonzero" stroke="black" stroke-width="0.21725002"/>
</g>
<g id="item_7">
<path d="M0,0 L15,4 L13,7 L0,6 z" fill="#7A7A7A" fill-opacity="0.5" fill-rule="nonzero" stroke="black" stroke-width="0.21725002"/>
</g>
<g id="item_8">
<path d="M0,0 L15,1 L15,4 L0,4 z" fill="#7A7A7A" fill-opacity="0.5" fill-rule="nonzero" stroke="black" stroke-width="0.21725002"/>
</g>
<g id="item_9">
<path d="M0,0 L14,0 L14,5 L0,5 z" fill="#7A7A7A" fill-opacity="0.5" fill-rule="nonzero" stroke="black" stroke-width="0.21725002"/>
</g>
<g id="item_10">
<path d="M0,0 L14,1 L14,4 L0,4 z" fill="#7A7A7A" fill-opacity="0.5" fill-rule="nonzero" stroke="black" stroke-width="0.21725002"/>
</g>
<g id="item_11">
<path d="M0,0 L13,0 L13,5 L0,5 z" fill="#7A7A7A" fill-opacity="0.5" fill-rule="nonzero" stroke="black" stroke-width="0.21725002"/>
</g>
<g id="item_12">
<path d="M0,0 L13,1 L13,4 L0,4 z" fill="#7A7A7A" fill-opacity="0.5" fill-rule="nonzero" stroke="black" stroke-width="0.21725002"/>
</g>
<g id="item_13">
<path d="M0,0 L12,0 L12,5 L0,5 z" fill="#7A7A7A" fill-opacity="0.5" fill-rule="nonzero" stroke="black" stroke-width="0.21725002"/>
</g>
<g id="item_14">
<path d="M0,0 L4,2 L6,10 L4,11 L-4,11 L-6,10 L-4,2 z" fill="#7A7A7A" fill-opacity="0.5" fill-rule="nonzero" stroke="black" stroke-width="0.21725002"/>
</g>
<g id="item_15">
<path d="M0,0 L3,-2 L8,0 L8,8 L2,8 z" fill="#7A7A7A" fill-opacity="0.5" fill-rule="nonzero" stroke="black" stroke-width="0.21725002"/>
</g>
<g id="item_16">
<path d="M0,0 L2,1 L3,6 L2,7 L-2,7 L-3,6 L-2,1 z" fill="#7A7A7A" fill-opacity="0.5" fill-rule="nonzero" stroke="black" stroke-width="0.21725002"/>
</g>
</defs>
<use transform="translate(115.00278 38.47243), rotate(0)" xlink:href="#item_1">
<title>item, id: 1, transf: [r: 0.000°, t: (115.003, 38.472)]</title>
</use>
<use transform="translate(0.0022602081 42.656593), rotate(0)" xlink:href="#item_1">
<title>item, id: 1, transf: [r: 0.000°, t: (0.002, 42.657)]</title>
</use>
<use transform="translate(56.01117 42.657516), rotate(-180)" xlink:href="#item_1">
<title>item, id: 1, transf: [r: -180.000°, t: (56.011, 42.658)]</title>
</use>
<use transform="translate(13.377964 78.92135), rotate(0)" xlink:href="#item_1">
<title>item, id: 1, transf: [r: 0.000°, t: (13.378, 78.921)]</title>
</use>
<use transform="translate(181.61401 38.69216), rotate(-180)" xlink:href="#item_1">
<title>item, id: 1, transf: [r: -180.000°, t: (181.614, 38.692)]</title>
</use>
<use transform="translate(56.004562 0.0056619644), rotate(-180)" xlink:href="#item_1">
<title>item, id: 1, transf: [r: -180.000°, t: (56.005, 0.006)]</title>
</use>
<use transform="translate(182.00401 64.78667), rotate(0)" xlink:href="#item_1">
<title>item, id: 1, transf: [r: 0.000°, t: (182.004, 64.787)]</title>
</use>
<use transform="translate(112.063545 41.25396), rotate(-180)" xlink:href="#item_1">
<title>item, id: 1, transf: [r: -180.000°, t: (112.064, 41.254)]</title>
</use>
<use transform="translate(230.00375 40.169052), rotate(-180)" xlink:href="#item_0">
<title>item, id: 0, transf: [r: -180.000°, t: (230.004, 40.169)]</title>
</use>
<use transform="translate(75.93997 60.99928), rotate(0)" xlink:href="#item_0">
<title>item, id: 0, transf: [r: 0.000°, t: (75.940, 60.999)]</title>
</use>
<use transform="translate(116.03508 13.000303), rotate(-180)" xlink:href="#item_0">
<title>item, id: 0, transf: [r: -180.000°, t: (116.035, 13.000)]</title>
</use>
<use transform="translate(176.69437 13.200304), rotate(-180)" xlink:href="#item_0">
<title>item, id: 0, transf: [r: -180.000°, t: (176.694, 13.200)]</title>
</use>
<use transform="translate(235.96466 13.001556), rotate(-180)" xlink:href="#item_0">
<title>item, id: 0, transf: [r: -180.000°, t: (235.965, 13.002)]</title>
</use>
<use transform="translate(167.00345 14.166908), rotate(0)" xlink:href="#item_0">
<title>item, id: 0, transf: [r: 0.000°, t: (167.003, 14.167)]</title>
</use>
<use transform="translate(56.002457 23.252453), rotate(0)" xlink:href="#item_0">
<title>item, id: 0, transf: [r: 0.000°, t: (56.002, 23.252)]</title>
</use>
<use transform="translate(134.94638 65.99817), rotate(0)" xlink:href="#item_0">
<title>item, id: 0, transf: [r: 0.000°, t: (134.946, 65.998)]</title>
</use>
<use transform="translate(138.60811 78.99989), rotate(-180)" xlink:href="#item_2">
<title>item, id: 2, transf: [r: -180.000°, t: (138.608, 79.000)]</title>
</use>
<use transform="translate(108.03092 41.25378), rotate(-180)" xlink:href="#item_3">
<title>item, id: 3, transf: [r: -180.000°, t: (108.031, 41.254)]</title>
</use>
<use transform="translate(238.00322 78.995995), rotate(-180)" xlink:href="#item_4">
<title>item, id: 4, transf: [r: -180.000°, t: (238.003, 78.996)]</title>
</use>
<use transform="translate(196.00394 64.78715), rotate(0)" xlink:href="#item_5">
<title>item, id: 5, transf: [r: 0.000°, t: (196.004, 64.787)]</title>
</use>
<use transform="translate(232.004 36.098633), rotate(-180)" xlink:href="#item_14">
<title>item, id: 14, transf: [r: -180.000°, t: (232.004, 36.099)]</title>
</use>
<use transform="translate(176.00375 64.76024), rotate(-180)" xlink:href="#item_14">
<title>item, id: 14, transf: [r: -180.000°, t: (176.004, 64.760)]</title>
</use>
<use transform="translate(119.613525 58.47576), rotate(-180)" xlink:href="#item_14">
<title>item, id: 14, transf: [r: -180.000°, t: (119.614, 58.476)]</title>
</use>
<use transform="translate(125.05444 11.90424), rotate(0)" xlink:href="#item_14">
<title>item, id: 14, transf: [r: 0.000°, t: (125.054, 11.904)]</title>
</use>
<use transform="translate(231.97826 24.670828), rotate(-180)" xlink:href="#item_14">
<title>item, id: 14, transf: [r: -180.000°, t: (231.978, 24.671)]</title>
</use>
<use transform="translate(114.91797 24.428955), rotate(-180)" xlink:href="#item_14">
<title>item, id: 14, transf: [r: -180.000°, t: (114.918, 24.429)]</title>
</use>
<use transform="translate(88.885086 12.786926), rotate(0)" xlink:href="#item_14">
<title>item, id: 14, transf: [r: 0.000°, t: (88.885, 12.787)]</title>
</use>
<use transform="translate(60.124207 11.567282), rotate(0)" xlink:href="#item_14">
<title>item, id: 14, transf: [r: 0.000°, t: (60.124, 11.567)]</title>
</use>
<use transform="translate(64.95251 11.843739), rotate(0)" xlink:href="#item_9">
<title>item, id: 9, transf: [r: 0.000°, t: (64.953, 11.844)]</title>
</use>
<use transform="translate(199.50545 47.150368), rotate(-180)" xlink:href="#item_7">
<title>item, id: 7, transf: [r: -180.000°, t: (199.505, 47.150)]</title>
</use>
<use transform="translate(181.61508 42.385357), rotate(0)" xlink:href="#item_7">
<title>item, id: 7, transf: [r: 0.000°, t: (181.615, 42.385)]</title>
</use>
<use transform="translate(158.89113 65.60565), rotate(-180)" xlink:href="#item_7">
<title>item, id: 7, transf: [r: -180.000°, t: (158.891, 65.606)]</title>
</use>
<use transform="translate(130.54976 13.88007), rotate(0)" xlink:href="#item_7">
<title>item, id: 7, transf: [r: 0.000°, t: (130.550, 13.880)]</title>
</use>
<use transform="translate(170.44403 62.672913), rotate(-180)" xlink:href="#item_7">
<title>item, id: 7, transf: [r: -180.000°, t: (170.444, 62.673)]</title>
</use>
<use transform="translate(159.5768 60.04989), rotate(0)" xlink:href="#item_7">
<title>item, id: 7, transf: [r: 0.000°, t: (159.577, 60.050)]</title>
</use>
<use transform="translate(124.253586 56.018223), rotate(0)" xlink:href="#item_7">
<title>item, id: 7, transf: [r: 0.000°, t: (124.254, 56.018)]</title>
</use>
<use transform="translate(150.0055 19.066519), rotate(-180)" xlink:href="#item_7">
<title>item, id: 7, transf: [r: -180.000°, t: (150.005, 19.067)]</title>
</use>
<use transform="translate(125.60544 47.47456), rotate(-180)" xlink:href="#item_11">
<title>item, id: 11, transf: [r: -180.000°, t: (125.605, 47.475)]</title>
</use>
<use transform="translate(195.48209 71.99244), rotate(0)" xlink:href="#item_6">
<title>item, id: 6, transf: [r: 0.000°, t: (195.482, 71.992)]</title>
</use>
<use transform="translate(215.24483 71.78874), rotate(-180)" xlink:href="#item_6">
<title>item, id: 6, transf: [r: -180.000°, t: (215.245, 71.789)]</title>
</use>
<use transform="translate(237.72221 73.78841), rotate(-180)" xlink:href="#item_6">
<title>item, id: 6, transf: [r: -180.000°, t: (237.722, 73.788)]</title>
</use>
<use transform="translate(217.00238 69.78804), rotate(0)" xlink:href="#item_6">
<title>item, id: 6, transf: [r: 0.000°, t: (217.002, 69.788)]</title>
</use>
<use transform="translate(28.767302 25.107986), rotate(-180)" xlink:href="#item_6">
<title>item, id: 6, transf: [r: -180.000°, t: (28.767, 25.108)]</title>
</use>
<use transform="translate(124.224075 61.332237), rotate(-180)" xlink:href="#item_6">
<title>item, id: 6, transf: [r: -180.000°, t: (124.224, 61.332)]</title>
</use>
<use transform="translate(116.73307 59.320168), rotate(-180)" xlink:href="#item_6">
<title>item, id: 6, transf: [r: -180.000°, t: (116.733, 59.320)]</title>
</use>
<use transform="translate(195.25195 66.78831), rotate(-180)" xlink:href="#item_6">
<title>item, id: 6, transf: [r: -180.000°, t: (195.252, 66.788)]</title>
</use>
<use transform="translate(46.232098 20.804264), rotate(-180)" xlink:href="#item_8">
<title>item, id: 8, transf: [r: -180.000°, t: (46.232, 20.804)]</title>
</use>
<use transform="translate(69.49124 73.999626), rotate(0)" xlink:href="#item_13">
<title>item, id: 13, transf: [r: 0.000°, t: (69.491, 74.000)]</title>
</use>
<use transform="translate(199.50548 42.03214), rotate(0)" xlink:href="#item_13">
<title>item, id: 13, transf: [r: 0.000°, t: (199.505, 42.032)]</title>
</use>
<use transform="translate(8.060189 76.99163), rotate(-180)" xlink:href="#item_15">
<title>item, id: 15, transf: [r: -180.000°, t: (8.060, 76.992)]</title>
</use>
<use transform="translate(8.000143 26.073114), rotate(-180)" xlink:href="#item_15">
<title>item, id: 15, transf: [r: -180.000°, t: (8.000, 26.073)]</title>
</use>
<use transform="translate(238.004 45.721107), rotate(-180)" xlink:href="#item_15">
<title>item, id: 15, transf: [r: -180.000°, t: (238.004, 45.721)]</title>
</use>
<use transform="translate(54.482845 23.117884), rotate(-180)" xlink:href="#item_15">
<title>item, id: 15, transf: [r: -180.000°, t: (54.483, 23.118)]</title>
</use>
<use transform="translate(93.27316 16.318192), rotate(0)" xlink:href="#item_15">
<title>item, id: 15, transf: [r: 0.000°, t: (93.273, 16.318)]</title>
</use>
<use transform="translate(5.352605 63.994614), rotate(0)" xlink:href="#item_15">
<title>item, id: 15, transf: [r: 0.000°, t: (5.353, 63.995)]</title>
</use>
<use transform="translate(77.378784 71.91196), rotate(-180)" xlink:href="#item_15">
<title>item, id: 15, transf: [r: -180.000°, t: (77.379, 71.912)]</title>
</use>
<use transform="translate(111.05533 22.98475), rotate(-180)" xlink:href="#item_15">
<title>item, id: 15, transf: [r: -180.000°, t: (111.055, 22.985)]</title>
</use>
<use transform="translate(79.72845 20.91405), rotate(-180)" xlink:href="#item_10">
<title>item, id: 10, transf: [r: -180.000°, t: (79.728, 20.914)]</title>
</use>
<use transform="translate(125.610634 42.474792), rotate(-180)" xlink:href="#item_12">
<title>item, id: 12, transf: [r: -180.000°, t: (125.611, 42.475)]</title>
</use>
<use transform="translate(22.0752 19.107693), rotate(0)" xlink:href="#item_12">
<title>item, id: 12, transf: [r: 0.000°, t: (22.075, 19.108)]</title>
</use>
<use transform="translate(3.1112173 61.86172), rotate(0)" xlink:href="#item_16">
<title>item, id: 16, transf: [r: 0.000°, t: (3.111, 61.862)]</title>
</use>
<use transform="translate(82.0045 19.214802), rotate(-180)" xlink:href="#item_16">
<title>item, id: 16, transf: [r: -180.000°, t: (82.005, 19.215)]</title>
</use>
<use transform="translate(10.353227 78.995514), rotate(-180)" xlink:href="#item_16">
<title>item, id: 16, transf: [r: -180.000°, t: (10.353, 78.996)]</title>
</use>
<use transform="translate(235.00351 7.0027914), rotate(-180)" xlink:href="#item_16">
<title>item, id: 16, transf: [r: -180.000°, t: (235.004, 7.003)]</title>
</use>
</g>
<g id="quality_zones"/>
<g id="optionals">
<g id="overlap_lines" transform="translate(0 0), rotate(0)"/>
</g>
<text font-family="monospace" font-size="1.975" font-weight="500" x="0" y="-0.9875">
height: 79.000 | width: 238.004 | usage: 91.513% | final_bench_96
</text>
</svg>