<svg viewBox="-11.900352 -3.950001 261.80768 86.90001" xmlns="http://www.w3.org/2000/svg" xmlns:xlink="http://www.w3.org/1999/xlink">
<g id="bin_0">
<path d="M0,0 L238.00697,0 L238.00697,79 L0,79 z" fill="#D3D3D3" stroke="black" stroke-width="0.43450004"/>
<title>bin, id: 0, bbox: [x_min: 0.000, y_min: 0.000, x_max: 238.007, y_max: 79.000]</title>
</g>
<g id="items">
<defs>
<g id="item_0">
<path d="M0,0 L12,-1 L14,-3.0000005 L24,0 L33,1 L59,2 L59,13 L4,13 L4,8 L2,5 L0,5 z" fill="#7A7A7A" fill-opacity="0.5" fill-rule="nonzero" stroke="black" stroke-width="0.21725002"/>
</g>
<g id="item_1">
<path d="M0,0 L0,-14 L27,-17 L37,-20 L41,-22 L47,-19 L56,-16 L56,0 z" fill="#7A7A7A" fill-opacity="0.5" fill-rule="nonzero" stroke="black" stroke-width="0.21725002"/>
</g>
<g id="item_2">
<path d="M0,0 L57,0 L57,5 L0,5 z" fill="#7A7A7A" fill-opacity="0.5" fill-rule="nonzero" stroke="black" stroke-width="0.21725002"/>
</g>
<g id="item_3">
<path d="M0,0 L52,0 L52,5 L0,5 z" fill="#7A7A7A" fill-opacity="0.5" fill-rule="nonzero" stroke="black" stroke-width="0.21725002"/>
</g>
<g id="item_4">
<path d="M0,0 L44,0 L44,5 L0,5 z" fill="#7A7A7A" fill-opacity="0.5" fill-rule="nonzero" stroke="black" stroke-width="0.21725002"/>
</g>
<g id="item_5">
<path d="M0,0 L42,0 L42,5 L0,5 z" fill="#7A7A7A" fill-opacity="0.5" fill-rule="nonzero" stroke="black" stroke-width="0.21725002"/>
</g>
<g id="item_6">
<path d="M0,0 L21,0 L21,2 L0,2 z" fill="#7A7A7A" fill-opacity="0.5" fill-rule="nonzero" stroke="black" stroke-width="0.21725002"/>
</g>
<g id="item_7">
<path d="M0,0 L15,4 L13,7 L0,6 z" fill="#7A7A7A" fill-opacity="0.5" fill-rule="nonzero" stroke="black" stroke-width="0.21725002"/>
</g>
<g id="item_8">
<path d="M0,0 L15,1 L15,4 L0,4 z" fill="#7A7A7A" fill-opacity="0.5" fill-rule="nonzero" stroke="black" stroke-width="0.21725002"/>
</g>
<g id="item_9">
<path d="M0,0 L14,0 L14,5 L0,5 z" fill="#7A7A7A" fill-opacity="0.5" fill-rule="nonzero" stroke="black" stroke-width="0.21725002"/>
</g>
<g id="item_10">
<path d="M0,0 L14,1 L14,4 L0,4 z" fill="#7A7A7A" fill-opacity="0.5" fill-rule="nonzero" stroke="black" stroke-width="0.21725002"/>
</g>
<g id="item_11">
<path d="M0,0 L13,0 L13,5 L0,5 z" fill="#7A7A7A" fill-opacity="0.5" fill-rule="nonzero" stroke="black" stroke-width="0.21725002"/>
</g>
<g id="item_12">
<path d="M0,0 L13,1 L13,4 L0,4 z" fill="#7A7A7A" fill-opacity="0.5" fill-rule="nonzero" stroke="black" stroke-width="0.21725002"/>
</g>
<g id="item_13">
<path d="M0,0 L12,0 L12,5 L0,5 z" fill="#7A7A7A" fill-opacity="0.5" fill-rule="nonzero" stroke="black" stroke-width="0.21725002"/>
</g>
<g id="item_14">
<path d="M0,0 L4,2 L6,10 L4,11 L-4,11 L-6,10 L-4,2 z" fill="#7A7A7A" fill-opacity="0.5" fill-rule="nonzero" stroke="black" stroke-width="0.21725002"/>
</g>
<g id="item_15">
<path d="M0,0 L3,-2 L8,0 L8,8 L2,8 z" fill="#7A7A7A" fill-opacity="0.5" fill-rule="nonzero" stroke="black" stroke-width="0.21725002"/>
</g>
<g id="item_16">
<path d="M0,0 L2,1 L3,6 L2,7 L-2,7 L-3,6 L-2,1 z" fill="#7A7A7A" fill-opacity="0.5" fill-rule="nonzero" stroke="black" stroke-width="0.21725002"/>
</g>
</defs>
<use transform="translate(115.00157 0.013889313), rotate(-180)" xlink:href="#item_1">
<title>item, id: 1, transf: [r: -180.000°, t: (115.002, 0.014)]</title>
</use>
<use transform="translate(66.97447 73.9912), rotate(0)" xlink:href="#item_1">
<title>item, id: 1, transf: [r: 0.000°, t: (66.974, 73.991)]</title>
</use>
<use transform="translate(115.001175 37.20822), rotate(-180)" xlink:href="#item_1">
<title>item, id: 1, transf: [r: -180.000°, t: (115.001, 37.208)]</title>
</use>
<use transform="translate(115.05319 37.873512), rotate(0)" xlink:href="#item_1">
<title>item, id: 1, transf: [r: 0.000°, t: (115.053, 37.874)]</title>
</use>
<use transform="translate(230.00235 40.22042), rotate(-180)" xlink:href="#item_1">
<title>item, id: 1, transf: [r: -180.000°, t: (230.002, 40.220)]</title>
</use>
<use transform="translate(0.0110569 42.084057), rotate(0)" xlink:href="#item_1">
<title>item, id: 1, transf: [r: 0.000°, t: (0.011, 42.084)]</title>
</use>
<use transform="translate(171.00258 0.027365685), rotate(-180)" xlink:href="#item_1">
<title>item, id: 1, transf: [r: -180.000°, t: (171.003, 0.027)]</title>
</use>
<use transform="translate(182.0023 76.99887), rotate(0)" xlink:href="#item_1">
<title>item, id: 1, transf: [r: 0.000°, t: (182.002, 76.999)]</title>
</use>
<use transform="translate(171.00554 6.2166867), rotate(0)" xlink:href="#item_0">
<title>item, id: 0, transf: [r: 0.000°, t: (171.006, 6.217)]</title>
</use>
<use transform="translate(59.000908 55.085552), rotate(-180)" xlink:href="#item_0">
<title>item, id: 0, transf: [r: -180.000°, t: (59.001, 55.086)]</title>
</use>
<use transform="translate(122.97535 60.993565), rotate(0)" xlink:href="#item_0">
<title>item, id: 0, transf: [r: 0.000°, t: (122.975, 60.994)]</title>
</use>
<use transform="translate(59.000893 13.003506), rotate(-180)" xlink:href="#item_0">
<title>item, id: 0, transf: [r: -180.000°, t: (59.001, 13.004)]</title>
</use>
<use transform="translate(174.00165 55.879143), rotate(-180)" xlink:href="#item_0">
<title>item, id: 0, transf: [r: -180.000°, t: (174.002, 55.879)]</title>
</use>
<use transform="translate(230.06105 37.218185), rotate(-180)" xlink:href="#item_0">
<title>item, id: 0, transf: [r: -180.000°, t: (230.061, 37.218)]</title>
</use>
<use transform="translate(5.858721 65.999985), rotate(0)" xlink:href="#item_0">
<title>item, id: 0, transf: [r: 0.000°, t: (5.859, 66.000)]</title>
</use>
<use transform="translate(56.015686 24.20444), rotate(0)" xlink:href="#item_0">
<title>item, id: 0, transf: [r: 0.000°, t: (56.016, 24.204)]</title>
</use>
<use transform="translate(173.87318 78.99998), rotate(-180)" xlink:href="#item_2">
<title>item, id: 2, transf: [r: -180.000°, t: (173.873, 79.000)]</title>
</use>
<use transform="translate(116.866196 78.999756), rotate(-180)" xlink:href="#item_3">
<title>item, id: 3, transf: [r: -180.000°, t: (116.866, 79.000)]</title>
</use>
<use transform="translate(159.00487 42.879017), rotate(-180)" xlink:href="#item_4">
<title>item, id: 4, transf: [r: -180.000°, t: (159.005, 42.879)]</title>
</use>
<use transform="translate(172.00136 19.217508), rotate(0)" xlink:href="#item_5">
<title>item, id: 5, transf: [r: 0.000°, t: (172.001, 19.218)]</title>
</use>
<use transform="translate(6.0000777 54.653706), rotate(0)" xlink:href="#item_14">
<title>item, id: 14, transf: [r: 0.000°, t: (6.000, 54.654)]</title>
</use>
<use transform="translate(35.07105 55.126015), rotate(0)" xlink:href="#item_14">
<title>item, id: 14, transf: [r: 0.000°, t: (35.071, 55.126)]</title>
</use>
<use transform="translate(15.564596 64.902245), rotate(-180)" xlink:href="#item_14">
<title>item, id: 14, transf: [r: -180.000°, t: (15.565, 64.902)]</title>
</use>
<use transform="translate(61.106358 66.54738), rotate(-180)" xlink:href="#item_14">
<title>item, id: 14, transf: [r: -180.000°, t: (61.106, 66.547)]</title>
</use>
<use transform="translate(51.39147 55.731575), rotate(0)" xlink:href="#item_14">
<title>item, id: 14, transf: [r: 0.000°, t: (51.391, 55.732)]</title>
</use>
<use transform="translate(232.0067 30.492352), rotate(-180)" xlink:href="#item_14">
<title>item, id: 14, transf: [r: -180.000°, t: (232.007, 30.492)]</title>
</use>
<use transform="translate(13.810018 22.692335), rotate(-180)" xlink:href="#item_14">
<title>item, id: 14, transf: [r: -180.000°, t: (13.810, 22.692)]</title>
</use>
<use transform="translate(22.96786 14.081987), rotate(0)" xlink:href="#item_14">
<title>item, id: 14, transf: [r: 0.000°, t: (22.968, 14.082)]</title>
</use>
<use transform="translate(81.60001 19.235386), rotate(0)" xlink:href="#item_9">
<title>item, id: 9, transf: [r: 0.000°, t: (81.600, 19.235)]</title>
</use>
<use transform="translate(50.145206 14.082012), rotate(0)" xlink:href="#item_7">
<title>item, id: 7, transf: [r: 0.000°, t: (50.145, 14.082)]</title>
</use>
<use transform="translate(205.20271 0.7429681), rotate(0)" xlink:href="#item_7">
<title>item, id: 7, transf: [r: 0.000°, t: (205.203, 0.743)]</title>
</use>
<use transform="translate(110.60007 22.949026), rotate(-180)" xlink:href="#item_7">
<title>item, id: 7, transf: [r: -180.000°, t: (110.600, 22.949)]</title>
</use>
<use transform="translate(35.1263 13.374287), rotate(0)" xlink:href="#item_7">
<title>item, id: 7, transf: [r: 0.000°, t: (35.126, 13.374)]</title>
</use>
<use transform="translate(228.746 7.0002036), rotate(-180)" xlink:href="#item_7">
<title>item, id: 7, transf: [r: -180.000°, t: (228.746, 7.000)]</title>
</use>
<use transform="translate(110.7231 15.906231), rotate(0)" xlink:href="#item_7">
<title>item, id: 7, transf: [r: 0.000°, t: (110.723, 15.906)]</title>
</use>
<use transform="translate(0.0054106712 19.636192), rotate(0)" xlink:href="#item_7">
<title>item, id: 7, transf: [r: 0.000°, t: (0.005, 19.636)]</title>
</use>
<use transform="translate(95.60769 18.951801), rotate(0)" xlink:href="#item_7">
<title>item, id: 7, transf: [r: 0.000°, t: (95.608, 18.952)]</title>
</use>
<use transform="translate(172.00569 42.879013), rotate(-180)" xlink:href="#item_11">
<title>item, id: 11, transf: [r: -180.000°, t: (172.006, 42.879)]</title>
</use>
<use transform="translate(168.3032 61.023064), rotate(-180)" xlink:href="#item_6">
<title>item, id: 6, transf: [r: -180.000°, t: (168.303, 61.023)]</title>
</use>
<use transform="translate(238.00671 78.99888), rotate(-180)" xlink:href="#item_6">
<title>item, id: 6, transf: [r: -180.000°, t: (238.007, 78.999)]</title>
</use>
<use transform="translate(193.00575 38.06433), rotate(-180)" xlink:href="#item_6">
<title>item, id: 6, transf: [r: -180.000°, t: (193.006, 38.064)]</title>
</use>
<use transform="translate(204.98648 2.070637), rotate(-180)" xlink:href="#item_6">
<title>item, id: 6, transf: [r: -180.000°, t: (204.986, 2.071)]</title>
</use>
<use transform="translate(195.32422 76.99997), rotate(0)" xlink:href="#item_6">
<title>item, id: 6, transf: [r: 0.000°, t: (195.324, 77.000)]</title>
</use>
<use transform="translate(47.049942 21.086426), rotate(0)" xlink:href="#item_6">
<title>item, id: 6, transf: [r: 0.000°, t: (47.050, 21.086)]</title>
</use>
<use transform="translate(193.00575 40.084755), rotate(-180)" xlink:href="#item_6">
<title>item, id: 6, transf: [r: -180.000°, t: (193.006, 40.085)]</title>
</use>
<use transform="translate(194.87962 78.99997), rotate(-180)" xlink:href="#item_6">
<title>item, id: 6, transf: [r: -180.000°, t: (194.880, 79.000)]</title>
</use>
<use transform="translate(168.48648 58.472984), rotate(0)" xlink:href="#item_8">
<title>item, id: 8, transf: [r: 0.000°, t: (168.486, 58.473)]</title>
</use>
<use transform="translate(214.00418 19.21775), rotate(0)" xlink:href="#item_13">
<title>item, id: 13, transf: [r: 0.000°, t: (214.004, 19.218)]</title>
</use>
<use transform="translate(171.04352 0.110298395), rotate(0)" xlink:href="#item_13">
<title>item, id: 13, transf: [r: 0.000°, t: (171.044, 0.110)]</title>
</use>
<use transform="translate(230.00595 11.211719), rotate(0)" xlink:href="#item_15">
<title>item, id: 15, transf: [r: 0.000°, t: (230.006, 11.212)]</title>
</use>
<use transform="translate(230.00694 31.99332), rotate(0)" xlink:href="#item_15">
<title>item, id: 15, transf: [r: 0.000°, t: (230.007, 31.993)]</title>
</use>
<use transform="translate(21.307632 56.021843), rotate(0)" xlink:href="#item_15">
<title>item, id: 15, transf: [r: 0.000°, t: (21.308, 56.022)]</title>
</use>
<use transform="translate(9.473362 19.360886), rotate(-180)" xlink:href="#item_15">
<title>item, id: 15, transf: [r: -180.000°, t: (9.473, 19.361)]</title>
</use>
<use transform="translate(238.00595 57.99973), rotate(-180)" xlink:href="#item_15">
<title>item, id: 15, transf: [r: -180.000°, t: (238.006, 58.000)]</title>
</use>
<use transform="translate(26.756632 14.591082), rotate(0)" xlink:href="#item_15">
<title>item, id: 15, transf: [r: 0.000°, t: (26.757, 14.591)]</title>
</use>
<use transform="translate(237.98888 8.002168), rotate(-180)" xlink:href="#item_15">
<title>item, id: 15, transf: [r: -180.000°, t: (237.989, 8.002)]</title>
</use>
<use transform="translate(230.00626 41.997093), rotate(0)" xlink:href="#item_15">
<title>item, id: 15, transf: [r: 0.000°, t: (230.006, 41.997)]</title>
</use>
<use transform="translate(205.2016 6.0733347), rotate(-180)" xlink:href="#item_10">
<title>item, id: 10, transf: [r: -180.000°, t: (205.202, 6.073)]</title>
</use>
<use transform="translate(122.97539 54.186867), rotate(0)" xlink:href="#item_12">
<title>item, id: 12, transf: [r: 0.000°, t: (122.975, 54.187)]</title>
</use>
<use transform="translate(193.00597 36.218296), rotate(0)" xlink:href="#item_12">
<title>item, id: 12, transf: [r: 0.000°, t: (193.006, 36.218)]</title>
</use>
<use transform="translate(3.0038702 65.84537), rotate(0)" xlink:href="#item_16">
<title>item, id: 16, transf: [r: 0.000°, t: (3.004, 65.845)]</title>
</use>
<use transform="translate(169.69897 21.416845), rotate(-180)" xlink:href="#item_16">
<title>item, id: 16, transf: [r: -180.000°, t: (169.699, 21.417)]</title>
</use>
<use transform="translate(6.7119923 71.99998), rotate(0)" xlink:href="#item_16">
<title>item, id: 16, transf: [r: 0.000°, t: (6.712, 72.000)]</title>
</use>
<use transform="translate(42.935192 65.3024), rotate(-180)" xlink:href="#item_16">
<title>item, id: 16, transf: [r: -180.000°, t: (42.935, 65.302)]</title>
</use>
</g>
<g id="quality_zones"/>
<g id="optionals">
<g id="overlap_lines" transform="translate(0 0), rotate(0)"/>
</g>
<text font-family="monospace" font-size="1.975" font-weight="500" x="0" y="-0.9875">
height: 79.000 | width: 238.007 | usage: 91.512% | final_bench_55
</text>
</svg>