<svg viewBox="-11.916127 -3.950001 262.15472 86.90001" xmlns="http://www.w3.org/2000/svg" xmlns:xlink="http://www.w3.org/1999/xlink">
<g id="bin_0">
<path d="M0,0 L238.32248,0 L238.32248,79 L0,79 z" fill="#D3D3D3" stroke="black" stroke-width="0.43450004"/>
<title>bin, id: 0, bbox: [x_min: 0.000, y_min: 0.000, x_max: 238.322, y_max: 79.000]</title>
</g>
<g id="items">
<defs>
<g id="item_0">
<path d="M0,0 L12,-1 L14,-3.0000005 L24,0 L33,1 L59,2 L59,13 L4,13 L4,8 L2,5 L0,5 z" fill="#7A7A7A" fill-opacity="0.5" fill-rule="nonzero" stroke="black" stroke-width="0.21725002"/>
</g>
<g id="item_1">
<path d="M0,0 L0,-14 L27,-17 L37,-20 L41,-22 L47,-19 L56,-16 L56,0 z" fill="#7A7A7A" fill-opacity="0.5" fill-rule="nonzero" stroke="black" stroke-width="0.21725002"/>
</g>
<g id="item_2">
<path d="M0,0 L57,0 L57,5 L0,5 z" fill="#7A7A7A" fill-opacity="0.5" fill-rule="nonzero" stroke="black" stroke-width="0.21725002"/>
</g>
<g id="item_3">
<path d="M0,0 L52,0 L52,5 L0,5 z" fill="#7A7A7A" fill-opacity="0.5" fill-rule="nonzero" stroke="black" stroke-width="0.21725002"/>
</g>
<g id="item_4">
<path d="M0,0 L44,0 L44,5 L0,5 z" fill="#7A7A7A" fill-opacity="0.5" fill-rule="nonzero" stroke="black" stroke-width="0.21725002"/>
</g>
<g id="item_5">
<path d="M0,0 L42,0 L42,5 L0,5 z" fill="#7A7A7A" fill-opacity="0.5" fill-rule="nonzero" stroke="black" stroke-width="0.21725002"/>
</g>
<g id="item_6">
<path d="M0,0 L21,0 L21,2 L0,2 z" fill="#7A7A7A" fill-opacity="0.5" fill-rule="nonzero" stroke="black" stroke-width="0.21725002"/>
</g>
<g id="item_7">
<path d="M0,0 L15,4 L13,7 L0,6 z" fill="#7A7A7A" fill-opacity="0.5" fill-rule="nonzero" stroke="black" stroke-width="0.21725002"/>
</g>
<g id="item_8">
<path d="M0,0 L15,1 L15,4 L0,4 z" fill="#7A7A7A" fill-opacity="0.5" fill-rule="nonzero" stroke="black" stroke-width="0.21725002"/>
</g>
<g id="item_9">
<path d="M0,0 L14,0 L14,5 L0,5 z" fill="#7A7A7A" fill-opacity="0.5" fill-rule="nonzero" stroke="black" stroke-width="0.21725002"/>
</g>
<g id="item_10">
<path d="M0,0 L14,1 L14,4 L0,4 z" fill="#7A7A7A" fill-opacity="0.5" fill-rule="nonzero" stroke="black" stroke-width="0.21725002"/>
</g>
<g id="item_11">
<path d="M0,0 L13,0 L13,5 L0,5 z" fill="#7A7A7A" fill-opacity="0.5" fill-rule="nonzero" stroke="black" stroke-width="0.21725002"/>
</g>
<g id="item_12">
<path d="M0,0 L13,1 L13,4 L0,4 z" fill="#7A7A7A" fill-opacity="0.5" fill-rule="nonzero" stroke="black" stroke-width="0.21725002"/>
</g>
<g id="item_13">
<path d="M0,0 L12,0 L12,5 L0,5 z" fill="#7A7A7A" fill-opacity="0.5" fill-rule="nonzero" stroke="black" stroke-width="0.21725002"/>
</g>
<g id="item_14">
<path d="M0,0 L4,2 L6,10 L4,11 L-4,11 L-6,10 L-4,2 z" fill="#7A7A7A" fill-opacity="0.5" fill-rule="nonzero" stroke="black" stroke-width="0.21725002"/>
</g>
<g id="item_15">
<path d="M0,0 L3,-2 L8,0 L8,8 L2,8 z" fill="#7A7A7A" fill-opacity="0.5" fill-rule="nonzero" stroke="black" stroke-width="0.21725002"/>
</g>
<g id="item_16">
<path d="M0,0 L2,1 L3,6 L2,7 L-2,7 L-3,6 L-2,1 z" fill="#7A7A7A" fill-opacity="0.5" fill-rule="nonzero" stroke="black" stroke-width="0.21725002"/>
</g>
</defs>
<use transform="translate(56.07871 43.109077), rotate(0)" xlink:href="#item_1">
<title>item, id: 1, transf: [r: 0.000°, t: (56.079, 43.109)]</title>
</use>
<use transform="translate(65.17154 78.999886), rotate(0)" xlink:href="#item_1">
<title>item, id: 1, transf: [r: 0.000°, t: (65.172, 79.000)]</title>
</use>
<use transform="translate(56.00207 42.90968), rotate(-180)" xlink:href="#item_1">
<title>item, id: 1, transf: [r: -180.000°, t: (56.002, 42.910)]</title>
</use>
<use transform="translate(0.07824707 42.90393), rotate(0)" xlink:href="#item_1">
<title>item, id: 1, transf: [r: 0.000°, t: (0.078, 42.904)]</title>
</use>
<use transform="translate(238.3174 42.575264), rotate(-180)" xlink:href="#item_1">
<title>item, id: 1, transf: [r: -180.000°, t: (238.317, 42.575)]</title>
</use>
<use transform="translate(138.16177 78.99846), rotate(0)" xlink:href="#item_1">
<title>item, id: 1, transf: [r: 0.000°, t: (138.162, 78.998)]</title>
</use>
<use transform="translate(171.00397 44.806667), rotate(-180)" xlink:href="#item_1">
<title>item, id: 1, transf: [r: -180.000°, t: (171.004, 44.807)]</title>
</use>
<use transform="translate(115.02543 0.00048351288), rotate(-180)" xlink:href="#item_1">
<title>item, id: 1, transf: [r: -180.000°, t: (115.025, 0.000)]</title>
</use>
<use transform="translate(59.01417 18.006252), rotate(-180)" xlink:href="#item_0">
<title>item, id: 0, transf: [r: -180.000°, t: (59.014, 18.006)]</title>
</use>
<use transform="translate(112.08816 31.791979), rotate(0)" xlink:href="#item_0">
<title>item, id: 0, transf: [r: 0.000°, t: (112.088, 31.792)]</title>
</use>
<use transform="translate(5.32456 65.99951), rotate(0)" xlink:href="#item_0">
<title>item, id: 0, transf: [r: 0.000°, t: (5.325, 66.000)]</title>
</use>
<use transform="translate(238.30582 28.017128), rotate(-180)" xlink:href="#item_0">
<title>item, id: 0, transf: [r: -180.000°, t: (238.306, 28.017)]</title>
</use>
<use transform="translate(115.00322 56.115425), rotate(-180)" xlink:href="#item_0">
<title>item, id: 0, transf: [r: -180.000°, t: (115.003, 56.115)]</title>
</use>
<use transform="translate(179.31947 29.56568), rotate(0)" xlink:href="#item_0">
<title>item, id: 0, transf: [r: 0.000°, t: (179.319, 29.566)]</title>
</use>
<use transform="translate(174.02927 13.000447), rotate(-180)" xlink:href="#item_0">
<title>item, id: 0, transf: [r: -180.000°, t: (174.029, 13.000)]</title>
</use>
<use transform="translate(119.564415 14.713461), rotate(0)" xlink:href="#item_0">
<title>item, id: 0, transf: [r: 0.000°, t: (119.564, 14.713)]</title>
</use>
<use transform="translate(174.05359 10.01426), rotate(0)" xlink:href="#item_2">
<title>item, id: 2, transf: [r: 0.000°, t: (174.054, 10.014)]</title>
</use>
<use transform="translate(238.32214 5.0102386), rotate(-180)" xlink:href="#item_3">
<title>item, id: 3, transf: [r: -180.000°, t: (238.322, 5.010)]</title>
</use>
<use transform="translate(186.24826 5.0142393), rotate(0)" xlink:href="#item_4">
<title>item, id: 4, transf: [r: 0.000°, t: (186.248, 5.014)]</title>
</use>
<use transform="translate(4.2285767 0.0026860237), rotate(0)" xlink:href="#item_5">
<title>item, id: 5, transf: [r: 0.000°, t: (4.229, 0.003)]</title>
</use>
<use transform="translate(232.32072 68.68764), rotate(-180)" xlink:href="#item_14">
<title>item, id: 14, transf: [r: -180.000°, t: (232.321, 68.688)]</title>
</use>
<use transform="translate(62.833908 65.53295), rotate(-180)" xlink:href="#item_14">
<title>item, id: 14, transf: [r: -180.000°, t: (62.834, 65.533)]</title>
</use>
<use transform="translate(205.88954 73.41944), rotate(-180)" xlink:href="#item_14">
<title>item, id: 14, transf: [r: -180.000°, t: (205.890, 73.419)]</title>
</use>
<use transform="translate(226.26964 67.99317), rotate(0)" xlink:href="#item_14">
<title>item, id: 14, transf: [r: 0.000°, t: (226.270, 67.993)]</title>
</use>
<use transform="translate(109.51007 26.124979), rotate(-180)" xlink:href="#item_14">
<title>item, id: 14, transf: [r: -180.000°, t: (109.510, 26.125)]</title>
</use>
<use transform="translate(177.28026 48.714573), rotate(-180)" xlink:href="#item_14">
<title>item, id: 14, transf: [r: -180.000°, t: (177.280, 48.715)]</title>
</use>
<use transform="translate(217.25052 76.034775), rotate(-180)" xlink:href="#item_14">
<title>item, id: 14, transf: [r: -180.000°, t: (217.251, 76.035)]</title>
</use>
<use transform="translate(118.08434 19.852488), rotate(0)" xlink:href="#item_14">
<title>item, id: 14, transf: [r: 0.000°, t: (118.084, 19.852)]</title>
</use>
<use transform="translate(186.31946 5.0126925), rotate(-180)" xlink:href="#item_9">
<title>item, id: 9, transf: [r: -180.000°, t: (186.319, 5.013)]</title>
</use>
<use transform="translate(51.36531 65.872604), rotate(-180)" xlink:href="#item_7">
<title>item, id: 7, transf: [r: -180.000°, t: (51.365, 65.873)]</title>
</use>
<use transform="translate(138.15561 73.45176), rotate(-180)" xlink:href="#item_7">
<title>item, id: 7, transf: [r: -180.000°, t: (138.156, 73.452)]</title>
</use>
<use transform="translate(226.76685 66.494736), rotate(-180)" xlink:href="#item_7">
<title>item, id: 7, transf: [r: -180.000°, t: (226.767, 66.495)]</title>
</use>
<use transform="translate(91.01486 62.119675), rotate(-180)" xlink:href="#item_7">
<title>item, id: 7, transf: [r: -180.000°, t: (91.015, 62.120)]</title>
</use>
<use transform="translate(62.39173 28.007734), rotate(-180)" xlink:href="#item_7">
<title>item, id: 7, transf: [r: -180.000°, t: (62.392, 28.008)]</title>
</use>
<use transform="translate(68.67732 56.163322), rotate(0)" xlink:href="#item_7">
<title>item, id: 7, transf: [r: 0.000°, t: (68.677, 56.163)]</title>
</use>
<use transform="translate(121.18325 68.9287), rotate(0)" xlink:href="#item_7">
<title>item, id: 7, transf: [r: 0.000°, t: (121.183, 68.929)]</title>
</use>
<use transform="translate(29.283636 59.98713), rotate(0)" xlink:href="#item_7">
<title>item, id: 7, transf: [r: 0.000°, t: (29.284, 59.987)]</title>
</use>
<use transform="translate(14.364767 20.79281), rotate(0)" xlink:href="#item_11">
<title>item, id: 11, transf: [r: 0.000°, t: (14.365, 20.793)]</title>
</use>
<use transform="translate(47.03452 19.005135), rotate(0)" xlink:href="#item_6">
<title>item, id: 6, transf: [r: 0.000°, t: (47.035, 19.005)]</title>
</use>
<use transform="translate(215.16208 76.9996), rotate(-180)" xlink:href="#item_6">
<title>item, id: 6, transf: [r: -180.000°, t: (215.162, 77.000)]</title>
</use>
<use transform="translate(215.1618 78.99967), rotate(-180)" xlink:href="#item_6">
<title>item, id: 6, transf: [r: -180.000°, t: (215.162, 79.000)]</title>
</use>
<use transform="translate(150.34743 29.758997), rotate(-180)" xlink:href="#item_6">
<title>item, id: 6, transf: [r: -180.000°, t: (150.347, 29.759)]</title>
</use>
<use transform="translate(62.40013 24.001894), rotate(0)" xlink:href="#item_6">
<title>item, id: 6, transf: [r: 0.000°, t: (62.400, 24.002)]</title>
</use>
<use transform="translate(171.53465 29.758116), rotate(-180)" xlink:href="#item_6">
<title>item, id: 6, transf: [r: -180.000°, t: (171.535, 29.758)]</title>
</use>
<use transform="translate(137.41531 29.759377), rotate(0)" xlink:href="#item_6">
<title>item, id: 6, transf: [r: 0.000°, t: (137.415, 29.759)]</title>
</use>
<use transform="translate(83.45022 24.001722), rotate(-180)" xlink:href="#item_6">
<title>item, id: 6, transf: [r: -180.000°, t: (83.450, 24.002)]</title>
</use>
<use transform="translate(88.94989 16.906315), rotate(0)" xlink:href="#item_8">
<title>item, id: 8, transf: [r: 0.000°, t: (88.950, 16.906)]</title>
</use>
<use transform="translate(58.772266 5.0060205), rotate(-180)" xlink:href="#item_13">
<title>item, id: 13, transf: [r: -180.000°, t: (58.772, 5.006)]</title>
</use>
<use transform="translate(186.24324 10.013811), rotate(-180)" xlink:href="#item_13">
<title>item, id: 13, transf: [r: -180.000°, t: (186.243, 10.014)]</title>
</use>
<use transform="translate(8.000246 26.355587), rotate(-180)" xlink:href="#item_15">
<title>item, id: 15, transf: [r: -180.000°, t: (8.000, 26.356)]</title>
</use>
<use transform="translate(6.0251675 18.355076), rotate(0)" xlink:href="#item_15">
<title>item, id: 15, transf: [r: 0.000°, t: (6.025, 18.355)]</title>
</use>
<use transform="translate(179.53523 35.714554), rotate(-180)" xlink:href="#item_15">
<title>item, id: 15, transf: [r: -180.000°, t: (179.535, 35.715)]</title>
</use>
<use transform="translate(230.32144 70.192406), rotate(0)" xlink:href="#item_15">
<title>item, id: 15, transf: [r: 0.000°, t: (230.321, 70.192)]</title>
</use>
<use transform="translate(179.004 56.57678), rotate(-180)" xlink:href="#item_15">
<title>item, id: 15, transf: [r: -180.000°, t: (179.004, 56.577)]</title>
</use>
<use transform="translate(230.32216 7.0129023), rotate(0)" xlink:href="#item_15">
<title>item, id: 15, transf: [r: 0.000°, t: (230.322, 7.013)]</title>
</use>
<use transform="translate(59.36808 65.68934), rotate(-180)" xlink:href="#item_15">
<title>item, id: 15, transf: [r: -180.000°, t: (59.368, 65.689)]</title>
</use>
<use transform="translate(202.16579 72.582664), rotate(-180)" xlink:href="#item_15">
<title>item, id: 15, transf: [r: -180.000°, t: (202.166, 72.583)]</title>
</use>
<use transform="translate(121.18043 74.99999), rotate(0)" xlink:href="#item_10">
<title>item, id: 10, transf: [r: 0.000°, t: (121.180, 75.000)]</title>
</use>
<use transform="translate(171.51564 33.824608), rotate(-180)" xlink:href="#item_12">
<title>item, id: 12, transf: [r: -180.000°, t: (171.516, 33.825)]</title>
</use>
<use transform="translate(14.460967 16.763874), rotate(0)" xlink:href="#item_12">
<title>item, id: 12, transf: [r: 0.000°, t: (14.461, 16.764)]</title>
</use>
<use transform="translate(30.584425 24.833498), rotate(-180)" xlink:href="#item_16">
<title>item, id: 16, transf: [r: -180.000°, t: (30.584, 24.833)]</title>
</use>
<use transform="translate(4.020386 78.793076), rotate(-180)" xlink:href="#item_16">
<title>item, id: 16, transf: [r: -180.000°, t: (4.020, 78.793)]</title>
</use>
<use transform="translate(3.0510101 67.93618), rotate(-180)" xlink:href="#item_16">
<title>item, id: 16, transf: [r: -180.000°, t: (3.051, 67.936)]</title>
</use>
<use transform="translate(85.89973 25.247942), rotate(-180)" xlink:href="#item_16">
<title>item, id: 16, transf: [r: -180.000°, t: (85.900, 25.248)]</title>
</use>
</g>
<g id="quality_zones"/>
<g id="optionals">
<g id="overlap_lines" transform="translate(0 0), rotate(0)"/>
</g>
<text font-family="monospace" font-size="1.975" font-weight="500" x="0" y="-0.9875">
height: 79.000 | width: 238.322 | usage: 91.390% | final_bench_43
</text>
</svg>