<svg viewBox="-11.893998 -3.950001 261.6679 86.90001" xmlns="http://www.w3.org/2000/svg" xmlns:xlink="http://www.w3.org/1999/xlink">
<g id="bin_0">
<path d="M0,0 L237.87991,0 L237.87991,79 L0,79 z" fill="#D3D3D3" stroke="black" stroke-width="0.43450004"/>
<title>bin, id: 0, bbox: [x_min: 0.000, y_min: 0.000, x_max: 237.880, y_max: 79.000]</title>
</g>
<g id="items">
<defs>
<g id="item_0">
<path d="M0,0 L12,-1 L14,-3.0000005 L24,0 L33,1 L59,2 L59,13 L4,13 L4,8 L2,5 L0,5 z" fill="#7A7A7A" fill-opacity="0.5" fill-rule="nonzero" stroke="black" stroke-width="0.21725002"/>
</g>
<g id="item_1">
<path d="M0,0 L0,-14 L27,-17 L37,-20 L41,-22 L47,-19 L56,-16 L56,0 z" fill="#7A7A7A" fill-opacity="0.5" fill-rule="nonzero" stroke="black" stroke-width="0.21725002"/>
</g>
<g id="item_2">
<path d="M0,0 L57,0 L57,5 L0,5 z" fill="#7A7A7A" fill-opacity="0.5" fill-rule="nonzero" stroke="black" stroke-width="0.21725002"/>
</g>
<g id="item_3">
<path d="M0,0 L52,0 L52,5 L0,5 z" fill="#7A7A7A" fill-opacity="0.5" fill-rule="nonzero" stroke="black" stroke-width="0.21725002"/>
</g>
<g id="item_4">
<path d="M0,0 L44,0 L44,5 L0,5 z" fill="#7A7A7A" fill-opacity="0.5" fill-rule="nonzero" stroke="black" stroke-width="0.21725002"/>
</g>
<g id="item_5">
<path d="M0,0 L42,0 L42,5 L0,5 z" fill="#7A7A7A" fill-opacity="0.5" fill-rule="nonzero" stroke="black" stroke-width="0.21725002"/>
</g>
<g id="item_6">
<path d="M0,0 L21,0 L21,2 L0,2 z" fill="#7A7A7A" fill-opacity="0.5" fill-rule="nonzero" stroke="black" stroke-width="0.21725002"/>
</g>
<g id="item_7">
<path d="M0,0 L15,4 L13,7 L0,6 z" fill="#7A7A7A" fill-opacity="0.5" fill-rule="nonzero" stroke="black" stroke-width="0.21725002"/>
</g>
<g id="item_8">
<path d="M0,0 L15,1 L15,4 L0,4 z" fill="#7A7A7A" fill-opacity="0.5" fill-rule="nonzero" stroke="black" stroke-width="0.21725002"/>
</g>
<g id="item_9">
<path d="M0,0 L14,0 L14,5 L0,5 z" fill="#7A7A7A" fill-opacity="0.5" fill-rule="nonzero" stroke="black" stroke-width="0.21725002"/>
</g>
<g id="item_10">
<path d="M0,0 L14,1 L14,4 L0,4 z" fill="#7A7A7A" fill-opacity="0.5" fill-rule="nonzero" stroke="black" stroke-width="0.21725002"/>
</g>
<g id="item_11">
<path d="M0,0 L13,0 L13,5 L0,5 z" fill="#7A7A7A" fill-opacity="0.5" fill-rule="nonzero" stroke="black" stroke-width="0.21725002"/>
</g>
<g id="item_12">
<path d="M0,0 L13,1 L13,4 L0,4 z" fill="#7A7A7A" fill-opacity="0.5" fill-rule="nonzero" stroke="black" stroke-width="0.21725002"/>
</g>
<g id="item_13">
<path d="M0,0 L12,0 L12,5 L0,5 z" fill="#7A7A7A" fill-opacity="0.5" fill-rule="nonzero" stroke="black" stroke-width="0.21725002"/>
</g>
<g id="item_14">
<path d="M0,0 L4,2 L6,10 L4,11 L-4,11 L-6,10 L-4,2 z" fill="#7A7A7A" fill-opacity="0.5" fill-rule="nonzero" stroke="black" stroke-width="0.21725002"/>
</g>
<g id="item_15">
<path d="M0,0 L3,-2 L8,0 L8,8 L2,8 z" fill="#7A7A7A" fill-opacity="0.5" fill-rule="nonzero" stroke="black" stroke-width="0.21725002"/>
</g>
<g id="item_16">
<path d="M0,0 L2,1 L3,6 L2,7 L-2,7 L-3,6 L-2,1 z" fill="#7A7A7A" fill-opacity="0.5" fill-rule="nonzero" stroke="black" stroke-width="0.21725002"/>
</g>
</defs>
<use transform="translate(0.3424816 41.34772), rotate(0)" xlink:href="#item_1">
<title>item, id: 1, transf: [r: 0.000°, t: (0.342, 41.348)]</title>
</use>
<use transform="translate(115.0014 5.000822), rotate(-180)" xlink:href="#item_1">
<title>item, id: 1, transf: [r: -180.000°, t: (115.001, 5.001)]</title>
</use>
<use transform="translate(56.000015 41.3503), rotate(-180)" xlink:href="#item_1">
<title>item, id: 1, transf: [r: -180.000°, t: (56.000, 41.350)]</title>
</use>
<use transform="translate(112.00406 46.06445), rotate(-180)" xlink:href="#item_1">
<title>item, id: 1, transf: [r: -180.000°, t: (112.004, 46.064)]</title>
</use>
<use transform="translate(171.13611 9.222057), rotate(-180)" xlink:href="#item_1">
<title>item, id: 1, transf: [r: -180.000°, t: (171.136, 9.222)]</title>
</use>
<use transform="translate(122.87985 46.030815), rotate(0)" xlink:href="#item_1">
<title>item, id: 1, transf: [r: 0.000°, t: (122.880, 46.031)]</title>
</use>
<use transform="translate(0.16807938 78.99923), rotate(0)" xlink:href="#item_1">
<title>item, id: 1, transf: [r: 0.000°, t: (0.168, 78.999)]</title>
</use>
<use transform="translate(78.55525 78.99939), rotate(0)" xlink:href="#item_1">
<title>item, id: 1, transf: [r: 0.000°, t: (78.555, 78.999)]</title>
</use>
<use transform="translate(134.55563 60.99325), rotate(0)" xlink:href="#item_0">
<title>item, id: 0, transf: [r: 0.000°, t: (134.556, 60.993)]</title>
</use>
<use transform="translate(231.3596 13.00075), rotate(-180)" xlink:href="#item_0">
<title>item, id: 0, transf: [r: -180.000°, t: (231.360, 13.001)]</title>
</use>
<use transform="translate(237.87988 44.5783), rotate(-180)" xlink:href="#item_0">
<title>item, id: 0, transf: [r: -180.000°, t: (237.880, 44.578)]</title>
</use>
<use transform="translate(178.86533 46.116566), rotate(0)" xlink:href="#item_0">
<title>item, id: 0, transf: [r: 0.000°, t: (178.865, 46.117)]</title>
</use>
<use transform="translate(59.000015 13.000086), rotate(-180)" xlink:href="#item_0">
<title>item, id: 0, transf: [r: -180.000°, t: (59.000, 13.000)]</title>
</use>
<use transform="translate(177.38931 18.576225), rotate(0)" xlink:href="#item_0">
<title>item, id: 0, transf: [r: 0.000°, t: (177.389, 18.576)]</title>
</use>
<use transform="translate(182.73076 59.031204), rotate(-180)" xlink:href="#item_0">
<title>item, id: 0, transf: [r: -180.000°, t: (182.731, 59.031)]</title>
</use>
<use transform="translate(63.878548 28.062307), rotate(0)" xlink:href="#item_0">
<title>item, id: 0, transf: [r: 0.000°, t: (63.879, 28.062)]</title>
</use>
<use transform="translate(172.1783 9.215789), rotate(-180)" xlink:href="#item_2">
<title>item, id: 2, transf: [r: -180.000°, t: (172.178, 9.216)]</title>
</use>
<use transform="translate(121.20845 46.062393), rotate(-180)" xlink:href="#item_3">
<title>item, id: 3, transf: [r: -180.000°, t: (121.208, 46.062)]</title>
</use>
<use transform="translate(179.13779 78.99877), rotate(-180)" xlink:href="#item_4">
<title>item, id: 4, transf: [r: -180.000°, t: (179.138, 78.999)]</title>
</use>
<use transform="translate(67.00714 0.00034475327), rotate(0)" xlink:href="#item_5">
<title>item, id: 5, transf: [r: 0.000°, t: (67.007, 0.000)]</title>
</use>
<use transform="translate(62.18421 64.13798), rotate(0)" xlink:href="#item_14">
<title>item, id: 14, transf: [r: 0.000°, t: (62.184, 64.138)]</title>
</use>
<use transform="translate(217.8213 70.13285), rotate(-180)" xlink:href="#item_14">
<title>item, id: 14, transf: [r: -180.000°, t: (217.821, 70.133)]</title>
</use>
<use transform="translate(62.11802 32.264008), rotate(0)" xlink:href="#item_14">
<title>item, id: 14, transf: [r: 0.000°, t: (62.118, 32.264)]</title>
</use>
<use transform="translate(12.253678 26.004328), rotate(-180)" xlink:href="#item_14">
<title>item, id: 14, transf: [r: -180.000°, t: (12.254, 26.004)]</title>
</use>
<use transform="translate(198.8412 70.120995), rotate(-180)" xlink:href="#item_14">
<title>item, id: 14, transf: [r: -180.000°, t: (198.841, 70.121)]</title>
</use>
<use transform="translate(204.05406 67.99824), rotate(0)" xlink:href="#item_14">
<title>item, id: 14, transf: [r: 0.000°, t: (204.054, 67.998)]</title>
</use>
<use transform="translate(222.123 67.99966), rotate(0)" xlink:href="#item_14">
<title>item, id: 14, transf: [r: 0.000°, t: (222.123, 68.000)]</title>
</use>
<use transform="translate(231.87976 78.99896), rotate(-180)" xlink:href="#item_14">
<title>item, id: 14, transf: [r: -180.000°, t: (231.880, 78.999)]</title>
</use>
<use transform="translate(218.50897 14.863831), rotate(0)" xlink:href="#item_9">
<title>item, id: 9, transf: [r: 0.000°, t: (218.509, 14.864)]</title>
</use>
<use transform="translate(30.173925 12.46419), rotate(0)" xlink:href="#item_7">
<title>item, id: 7, transf: [r: 0.000°, t: (30.174, 12.464)]</title>
</use>
<use transform="translate(96.826225 22.556532), rotate(0)" xlink:href="#item_7">
<title>item, id: 7, transf: [r: 0.000°, t: (96.826, 22.557)]</title>
</use>
<use transform="translate(203.0672 18.686934), rotate(-180)" xlink:href="#item_7">
<title>item, id: 7, transf: [r: -180.000°, t: (203.067, 18.687)]</title>
</use>
<use transform="translate(171.83615 10.902203), rotate(0)" xlink:href="#item_7">
<title>item, id: 7, transf: [r: 0.000°, t: (171.836, 10.902)]</title>
</use>
<use transform="translate(18.637844 16.058899), rotate(0)" xlink:href="#item_7">
<title>item, id: 7, transf: [r: 0.000°, t: (18.638, 16.059)]</title>
</use>
<use transform="translate(30.172329 18.663763), rotate(-180)" xlink:href="#item_7">
<title>item, id: 7, transf: [r: -180.000°, t: (30.172, 18.664)]</title>
</use>
<use transform="translate(115.13495 27.431335), rotate(-180)" xlink:href="#item_7">
<title>item, id: 7, transf: [r: -180.000°, t: (115.135, 27.431)]</title>
</use>
<use transform="translate(203.06737 12.630331), rotate(0)" xlink:href="#item_7">
<title>item, id: 7, transf: [r: 0.000°, t: (203.067, 12.630)]</title>
</use>
<use transform="translate(236.2261 67.99598), rotate(-180)" xlink:href="#item_11">
<title>item, id: 11, transf: [r: -180.000°, t: (236.226, 67.996)]</title>
</use>
<use transform="translate(151.2644 2.1730788), rotate(0)" xlink:href="#item_6">
<title>item, id: 6, transf: [r: 0.000°, t: (151.264, 2.173)]</title>
</use>
<use transform="translate(151.26147 0.001231432), rotate(0)" xlink:href="#item_6">
<title>item, id: 6, transf: [r: 0.000°, t: (151.261, 0.001)]</title>
</use>
<use transform="translate(146.53435 59.987522), rotate(-180)" xlink:href="#item_6">
<title>item, id: 6, transf: [r: -180.000°, t: (146.534, 59.988)]</title>
</use>
<use transform="translate(130.06467 2.03348), rotate(-180)" xlink:href="#item_6">
<title>item, id: 6, transf: [r: -180.000°, t: (130.065, 2.033)]</title>
</use>
<use transform="translate(192.74069 62.072433), rotate(-180)" xlink:href="#item_6">
<title>item, id: 6, transf: [r: -180.000°, t: (192.741, 62.072)]</title>
</use>
<use transform="translate(151.09679 2.1402688), rotate(-180)" xlink:href="#item_6">
<title>item, id: 6, transf: [r: -180.000°, t: (151.097, 2.140)]</title>
</use>
<use transform="translate(130.16782 2.212088), rotate(0)" xlink:href="#item_6">
<title>item, id: 6, transf: [r: 0.000°, t: (130.168, 2.212)]</title>
</use>
<use transform="translate(130.1482 4.151886), rotate(-180)" xlink:href="#item_6">
<title>item, id: 6, transf: [r: -180.000°, t: (130.148, 4.152)]</title>
</use>
<use transform="translate(0.010365009 11.000657), rotate(0)" xlink:href="#item_8">
<title>item, id: 8, transf: [r: 0.000°, t: (0.010, 11.001)]</title>
</use>
<use transform="translate(67.00548 5.000787), rotate(-180)" xlink:href="#item_13">
<title>item, id: 13, transf: [r: -180.000°, t: (67.005, 5.001)]</title>
</use>
<use transform="translate(191.66292 78.9983), rotate(-180)" xlink:href="#item_13">
<title>item, id: 13, transf: [r: -180.000°, t: (191.663, 78.998)]</title>
</use>
<use transform="translate(208.12292 70.273476), rotate(0)" xlink:href="#item_15">
<title>item, id: 15, transf: [r: 0.000°, t: (208.123, 70.273)]</title>
</use>
<use transform="translate(70.55439 70.99876), rotate(0)" xlink:href="#item_15">
<title>item, id: 15, transf: [r: 0.000°, t: (70.554, 70.999)]</title>
</use>
<use transform="translate(229.87978 2.00273), rotate(0)" xlink:href="#item_15">
<title>item, id: 15, transf: [r: 0.000°, t: (229.880, 2.003)]</title>
</use>
<use transform="translate(58.55524 21.704298), rotate(-180)" xlink:href="#item_15">
<title>item, id: 15, transf: [r: -180.000°, t: (58.555, 21.704)]</title>
</use>
<use transform="translate(55.87854 23.489819), rotate(0)" xlink:href="#item_15">
<title>item, id: 15, transf: [r: 0.000°, t: (55.879, 23.490)]</title>
</use>
<use transform="translate(8.001431 23.01003), rotate(-180)" xlink:href="#item_15">
<title>item, id: 15, transf: [r: -180.000°, t: (8.001, 23.010)]</title>
</use>
<use transform="translate(212.8489 67.117386), rotate(-180)" xlink:href="#item_15">
<title>item, id: 15, transf: [r: -180.000°, t: (212.849, 67.117)]</title>
</use>
<use transform="translate(120.010185 56.098568), rotate(-180)" xlink:href="#item_15">
<title>item, id: 15, transf: [r: -180.000°, t: (120.010, 56.099)]</title>
</use>
<use transform="translate(56.171734 74.99986), rotate(0)" xlink:href="#item_10">
<title>item, id: 10, transf: [r: 0.000°, t: (56.172, 75.000)]</title>
</use>
<use transform="translate(237.87984 63.116653), rotate(-180)" xlink:href="#item_12">
<title>item, id: 12, transf: [r: -180.000°, t: (237.880, 63.117)]</title>
</use>
<use transform="translate(96.82595 27.830513), rotate(-180)" xlink:href="#item_12">
<title>item, id: 12, transf: [r: -180.000°, t: (96.826, 27.831)]</title>
</use>
<use transform="translate(173.83029 20.629236), rotate(0)" xlink:href="#item_16">
<title>item, id: 16, transf: [r: 0.000°, t: (173.830, 20.629)]</title>
</use>
<use transform="translate(196.55592 76.98755), rotate(-180)" xlink:href="#item_16">
<title>item, id: 16, transf: [r: -180.000°, t: (196.556, 76.988)]</title>
</use>
<use transform="translate(47.554733 14.451694), rotate(0)" xlink:href="#item_16">
<title>item, id: 16, transf: [r: 0.000°, t: (47.555, 14.452)]</title>
</use>
<use transform="translate(234.81737 17.303974), rotate(-180)" xlink:href="#item_16">
<title>item, id: 16, transf: [r: -180.000°, t: (234.817, 17.304)]</title>
</use>
</g>
<g id="quality_zones"/>
<g id="optionals">
<g id="overlap_lines" transform="translate(0 0), rotate(0)"/>
</g>
<text font-family="monospace" font-size="1.975" font-weight="500" x="0" y="-0.9875">
height: 79.000 | width: 237.880 | usage: 91.560% | final_bench_62
</text>
</svg>