<svg viewBox="-11.918752 -3.950001 262.21246 86.90001" xmlns="http://www.w3.org/2000/svg" xmlns:xlink="http://www.w3.org/1999/xlink">
<g id="bin_0">
<path d="M0,0 L238.37497,0 L238.37497,79 L0,79 z" fill="#D3D3D3" stroke="black" stroke-width="0.43450004"/>
<title>bin, id: 0, bbox: [x_min: 0.000, y_min: 0.000, x_max: 238.375, y_max: 79.000]</title>
</g>
<g id="items">
<defs>
<g id="item_0">
<path d="M0,0 L12,-1 L14,-3.0000005 L24,0 L33,1 L59,2 L59,13 L4,13 L4,8 L2,5 L0,5 z" fill="#7A7A7A" fill-opacity="0.5" fill-rule="nonzero" stroke="black" stroke-width="0.21725002"/>
</g>
<g id="item_1">
<path d="M0,0 L0,-14 L27,-17 L37,-20 L41,-22 L47,-19 L56,-16 L56,0 z" fill="#7A7A7A" fill-opacity="0.5" fill-rule="nonzero" stroke="black" stroke-width="0.21725002"/>
</g>
<g id="item_2">
<path d="M0,0 L57,0 L57,5 L0,5 z" fill="#7A7A7A" fill-opacity="0.5" fill-rule="nonzero" stroke="black" stroke-width="0.21725002"/>
</g>
<g id="item_3">
<path d="M0,0 L52,0 L52,5 L0,5 z" fill="#7A7A7A" fill-opacity="0.5" fill-rule="nonzero" stroke="black" stroke-width="0.21725002"/>
</g>
<g id="item_4">
<path d="M0,0 L44,0 L44,5 L0,5 z" fill="#7A7A7A" fill-opacity="0.5" fill-rule="nonzero" stroke="black" stroke-width="0.21725002"/>
</g>
<g id="item_5">
<path d="M0,0 L42,0 L42,5 L0,5 z" fill="#7A7A7A" fill-opacity="0.5" fill-rule="nonzero" stroke="black" stroke-width="0.21725002"/>
</g>
<g id="item_6">
<path d="M0,0 L21,0 L21,2 L0,2 z" fill="#7A7A7A" fill-opacity="0.5" fill-rule="nonzero" stroke="black" stroke-width="0.21725002"/>
</g>
<g id="item_7">
<path d="M0,0 L15,4 L13,7 L0,6 z" fill="#7A7A7A" fill-opacity="0.5" fill-rule="nonzero" stroke="black" stroke-width="0.21725002"/>
</g>
<g id="item_8">
<path d="M0,0 L15,1 L15,4 L0,4 z" fill="#7A7A7A" fill-opacity="0.5" fill-rule="nonzero" stroke="black" stroke-width="0.21725002"/>
</g>
<g id="item_9">
<path d="M0,0 L14,0 L14,5 L0,5 z" fill="#7A7A7A" fill-opacity="0.5" fill-rule="nonzero" stroke="black" stroke-width="0.21725002"/>
</g>
<g id="item_10">
<path d="M0,0 L14,1 L14,4 L0,4 z" fill="#7A7A7A" fill-opacity="0.5" fill-rule="nonzero" stroke="black" stroke-width="0.21725002"/>
</g>
<g id="item_11">
<path d="M0,0 L13,0 L13,5 L0,5 z" fill="#7A7A7A" fill-opacity="0.5" fill-rule="nonzero" stroke="black" stroke-width="0.21725002"/>
</g>
<g id="item_12">
<path d="M0,0 L13,1 L13,4 L0,4 z" fill="#7A7A7A" fill-opacity="0.5" fill-rule="nonzero" stroke="black" stroke-width="0.21725002"/>
</g>
<g id="item_13">
<path d="M0,0 L12,0 L12,5 L0,5 z" fill="#7A7A7A" fill-opacity="0.5" fill-rule="nonzero" stroke="black" stroke-width="0.21725002"/>
</g>
<g id="item_14">
<path d="M0,0 L4,2 L6,10 L4,11 L-4,11 L-6,10 L-4,2 z" fill="#7A7A7A" fill-opacity="0.5" fill-rule="nonzero" stroke="black" stroke-width="0.21725002"/>
</g>
<g id="item_15">
<path d="M0,0 L3,-2 L8,0 L8,8 L2,8 z" fill="#7A7A7A" fill-opacity="0.5" fill-rule="nonzero" stroke="black" stroke-width="0.21725002"/>
</g>
<g id="item_16">
<path d="M0,0 L2,1 L3,6 L2,7 L-2,7 L-3,6 L-2,1 z" fill="#7A7A7A" fill-opacity="0.5" fill-rule="nonzero" stroke="black" stroke-width="0.21725002"/>
</g>
</defs>
<use transform="translate(168.01703 39.924294), rotate(-180)" xlink:href="#item_1">
<title>item, id: 1, transf: [r: -180.000°, t: (168.017, 39.924)]</title>
</use>
<use transform="translate(179.37193 0.021701813), rotate(-180)" xlink:href="#item_1">
<title>item, id: 1, transf: [r: -180.000°, t: (179.372, 0.022)]</title>
</use>
<use transform="translate(62.234768 73.99703), rotate(0)" xlink:href="#item_1">
<title>item, id: 1, transf: [r: 0.000°, t: (62.235, 73.997)]</title>
</use>
<use transform="translate(118.24541 76.98035), rotate(0)" xlink:href="#item_1">
<title>item, id: 1, transf: [r: 0.000°, t: (118.245, 76.980)]</title>
</use>
<use transform="translate(56.00105 37.028812), rotate(-180)" xlink:href="#item_1">
<title>item, id: 1, transf: [r: -180.000°, t: (56.001, 37.029)]</title>
</use>
<use transform="translate(112.01137 37.01677), rotate(-180)" xlink:href="#item_1">
<title>item, id: 1, transf: [r: -180.000°, t: (112.011, 37.017)]</title>
</use>
<use transform="translate(115.02281 39.911358), rotate(0)" xlink:href="#item_1">
<title>item, id: 1, transf: [r: 0.000°, t: (115.023, 39.911)]</title>
</use>
<use transform="translate(0.009933472 37.01622), rotate(0)" xlink:href="#item_1">
<title>item, id: 1, transf: [r: 0.000°, t: (0.010, 37.016)]</title>
</use>
<use transform="translate(59.0114 13.003695), rotate(-180)" xlink:href="#item_0">
<title>item, id: 0, transf: [r: -180.000°, t: (59.011, 13.004)]</title>
</use>
<use transform="translate(56.0104 24.014683), rotate(0)" xlink:href="#item_0">
<title>item, id: 0, transf: [r: 0.000°, t: (56.010, 24.015)]</title>
</use>
<use transform="translate(118.025955 13.000042), rotate(-180)" xlink:href="#item_0">
<title>item, id: 0, transf: [r: -180.000°, t: (118.026, 13.000)]</title>
</use>
<use transform="translate(3.2330456 60.916492), rotate(0)" xlink:href="#item_0">
<title>item, id: 0, transf: [r: 0.000°, t: (3.233, 60.916)]</title>
</use>
<use transform="translate(171.3649 54.61978), rotate(0)" xlink:href="#item_0">
<title>item, id: 0, transf: [r: 0.000°, t: (171.365, 54.620)]</title>
</use>
<use transform="translate(238.37495 13.0014305), rotate(-180)" xlink:href="#item_0">
<title>item, id: 0, transf: [r: -180.000°, t: (238.375, 13.001)]</title>
</use>
<use transform="translate(227.01779 52.946106), rotate(-180)" xlink:href="#item_0">
<title>item, id: 0, transf: [r: -180.000°, t: (227.018, 52.946)]</title>
</use>
<use transform="translate(167.83034 16.924665), rotate(0)" xlink:href="#item_0">
<title>item, id: 0, transf: [r: 0.000°, t: (167.830, 16.925)]</title>
</use>
<use transform="translate(171.02525 29.93674), rotate(0)" xlink:href="#item_2">
<title>item, id: 2, transf: [r: 0.000°, t: (171.025, 29.937)]</title>
</use>
<use transform="translate(62.688957 73.99988), rotate(0)" xlink:href="#item_3">
<title>item, id: 3, transf: [r: 0.000°, t: (62.689, 74.000)]</title>
</use>
<use transform="translate(215.35367 39.945786), rotate(-180)" xlink:href="#item_4">
<title>item, id: 4, transf: [r: -180.000°, t: (215.354, 39.946)]</title>
</use>
<use transform="translate(20.680485 73.9998), rotate(0)" xlink:href="#item_5">
<title>item, id: 5, transf: [r: 0.000°, t: (20.680, 74.000)]</title>
</use>
<use transform="translate(89.99497 13.676567), rotate(0)" xlink:href="#item_14">
<title>item, id: 14, transf: [r: 0.000°, t: (89.995, 13.677)]</title>
</use>
<use transform="translate(232.37148 24.835794), rotate(-180)" xlink:href="#item_14">
<title>item, id: 14, transf: [r: -180.000°, t: (232.371, 24.836)]</title>
</use>
<use transform="translate(196.20114 67.99906), rotate(0)" xlink:href="#item_14">
<title>item, id: 14, transf: [r: 0.000°, t: (196.201, 67.999)]</title>
</use>
<use transform="translate(186.53868 78.64355), rotate(-180)" xlink:href="#item_14">
<title>item, id: 14, transf: [r: -180.000°, t: (186.539, 78.644)]</title>
</use>
<use transform="translate(107.89757 14.572895), rotate(0)" xlink:href="#item_14">
<title>item, id: 14, transf: [r: 0.000°, t: (107.898, 14.573)]</title>
</use>
<use transform="translate(80.656876 22.996136), rotate(-180)" xlink:href="#item_14">
<title>item, id: 14, transf: [r: -180.000°, t: (80.657, 22.996)]</title>
</use>
<use transform="translate(117.36019 24.389343), rotate(-180)" xlink:href="#item_14">
<title>item, id: 14, transf: [r: -180.000°, t: (117.360, 24.389)]</title>
</use>
<use transform="translate(232.37492 45.52077), rotate(0)" xlink:href="#item_14">
<title>item, id: 14, transf: [r: 0.000°, t: (232.375, 45.521)]</title>
</use>
<use transform="translate(215.75781 34.938644), rotate(0)" xlink:href="#item_9">
<title>item, id: 9, transf: [r: 0.000°, t: (215.758, 34.939)]</title>
</use>
<use transform="translate(50.413494 52.748333), rotate(0)" xlink:href="#item_7">
<title>item, id: 7, transf: [r: 0.000°, t: (50.413, 52.748)]</title>
</use>
<use transform="translate(26.953672 54.776913), rotate(0)" xlink:href="#item_7">
<title>item, id: 7, transf: [r: 0.000°, t: (26.954, 54.777)]</title>
</use>
<use transform="translate(16.776396 11.956295), rotate(0)" xlink:href="#item_7">
<title>item, id: 7, transf: [r: 0.000°, t: (16.776, 11.956)]</title>
</use>
<use transform="translate(16.69957 19.00214), rotate(-180)" xlink:href="#item_7">
<title>item, id: 7, transf: [r: -180.000°, t: (16.700, 19.002)]</title>
</use>
<use transform="translate(0.0072317123 14.560596), rotate(0)" xlink:href="#item_7">
<title>item, id: 7, transf: [r: 0.000°, t: (0.007, 14.561)]</title>
</use>
<use transform="translate(238.37393 47.091442), rotate(-180)" xlink:href="#item_7">
<title>item, id: 7, transf: [r: -180.000°, t: (238.374, 47.091)]</title>
</use>
<use transform="translate(50.359528 60.107697), rotate(-180)" xlink:href="#item_7">
<title>item, id: 7, transf: [r: -180.000°, t: (50.360, 60.108)]</title>
</use>
<use transform="translate(60.31167 20.986088), rotate(-180)" xlink:href="#item_7">
<title>item, id: 7, transf: [r: -180.000°, t: (60.312, 20.986)]</title>
</use>
<use transform="translate(217.87598 69.99569), rotate(0)" xlink:href="#item_11">
<title>item, id: 11, transf: [r: 0.000°, t: (217.876, 69.996)]</title>
</use>
<use transform="translate(156.6898 78.98553), rotate(-180)" xlink:href="#item_6">
<title>item, id: 6, transf: [r: -180.000°, t: (156.690, 78.986)]</title>
</use>
<use transform="translate(223.22122 78.9997), rotate(-180)" xlink:href="#item_6">
<title>item, id: 6, transf: [r: -180.000°, t: (223.221, 79.000)]</title>
</use>
<use transform="translate(205.14609 16.031279), rotate(0)" xlink:href="#item_6">
<title>item, id: 6, transf: [r: 0.000°, t: (205.146, 16.031)]</title>
</use>
<use transform="translate(156.6916 76.999855), rotate(0)" xlink:href="#item_6">
<title>item, id: 6, transf: [r: 0.000°, t: (156.692, 77.000)]</title>
</use>
<use transform="translate(135.68901 78.98386), rotate(-180)" xlink:href="#item_6">
<title>item, id: 6, transf: [r: -180.000°, t: (135.689, 78.984)]</title>
</use>
<use transform="translate(206.25897 67.99102), rotate(0)" xlink:href="#item_6">
<title>item, id: 6, transf: [r: 0.000°, t: (206.259, 67.991)]</title>
</use>
<use transform="translate(62.234135 62.108738), rotate(-180)" xlink:href="#item_6">
<title>item, id: 6, transf: [r: -180.000°, t: (62.234, 62.109)]</title>
</use>
<use transform="translate(202.03891 74.99706), rotate(0)" xlink:href="#item_6">
<title>item, id: 6, transf: [r: 0.000°, t: (202.039, 74.997)]</title>
</use>
<use transform="translate(199.19266 11.9821205), rotate(0)" xlink:href="#item_8">
<title>item, id: 8, transf: [r: 0.000°, t: (199.193, 11.982)]</title>
</use>
<use transform="translate(20.672716 78.999985), rotate(-180)" xlink:href="#item_13">
<title>item, id: 13, transf: [r: -180.000°, t: (20.673, 79.000)]</title>
</use>
<use transform="translate(217.86192 74.9927), rotate(-180)" xlink:href="#item_13">
<title>item, id: 13, transf: [r: -180.000°, t: (217.862, 74.993)]</title>
</use>
<use transform="translate(229.55798 32.54469), rotate(0)" xlink:href="#item_15">
<title>item, id: 15, transf: [r: 0.000°, t: (229.558, 32.545)]</title>
</use>
<use transform="translate(68.35332 21.1877), rotate(-180)" xlink:href="#item_15">
<title>item, id: 15, transf: [r: -180.000°, t: (68.353, 21.188)]</title>
</use>
<use transform="translate(8.0007515 76.996254), rotate(-180)" xlink:href="#item_15">
<title>item, id: 15, transf: [r: -180.000°, t: (8.001, 76.996)]</title>
</use>
<use transform="translate(94.06116 15.911028), rotate(0)" xlink:href="#item_15">
<title>item, id: 15, transf: [r: 0.000°, t: (94.061, 15.911)]</title>
</use>
<use transform="translate(230.30707 67.69651), rotate(0)" xlink:href="#item_15">
<title>item, id: 15, transf: [r: 0.000°, t: (230.307, 67.697)]</title>
</use>
<use transform="translate(182.28435 75.63564), rotate(-180)" xlink:href="#item_15">
<title>item, id: 15, transf: [r: -180.000°, t: (182.284, 75.636)]</title>
</use>
<use transform="translate(76.39701 20.003027), rotate(-180)" xlink:href="#item_15">
<title>item, id: 15, transf: [r: -180.000°, t: (76.397, 20.003)]</title>
</use>
<use transform="translate(238.37195 64.52206), rotate(-180)" xlink:href="#item_15">
<title>item, id: 15, transf: [r: -180.000°, t: (238.372, 64.522)]</title>
</use>
<use transform="translate(199.18433 15.88599), rotate(-180)" xlink:href="#item_10">
<title>item, id: 10, transf: [r: -180.000°, t: (199.184, 15.886)]</title>
</use>
<use transform="translate(122.38904 19.640842), rotate(0)" xlink:href="#item_12">
<title>item, id: 12, transf: [r: 0.000°, t: (122.389, 19.641)]</title>
</use>
<use transform="translate(223.22356 74.99871), rotate(0)" xlink:href="#item_12">
<title>item, id: 12, transf: [r: 0.000°, t: (223.224, 74.999)]</title>
</use>
<use transform="translate(230.18709 31.744024), rotate(-180)" xlink:href="#item_16">
<title>item, id: 16, transf: [r: -180.000°, t: (230.187, 31.744)]</title>
</use>
<use transform="translate(235.37195 23.870224), rotate(0)" xlink:href="#item_16">
<title>item, id: 16, transf: [r: 0.000°, t: (235.372, 23.870)]</title>
</use>
<use transform="translate(120.36817 10.311206), rotate(-180)" xlink:href="#item_16">
<title>item, id: 16, transf: [r: -180.000°, t: (120.368, 10.311)]</title>
</use>
<use transform="translate(203.11371 74.63872), rotate(-180)" xlink:href="#item_16">
<title>item, id: 16, transf: [r: -180.000°, t: (203.114, 74.639)]</title>
</use>
</g>
<g id="quality_zones"/>
<g id="optionals">
<g id="overlap_lines" transform="translate(0 0), rotate(0)"/>
</g>
<text font-family="monospace" font-size="1.975" font-weight="500" x="0" y="-0.9875">
height: 79.000 | width: 238.375 | usage: 91.370% | final_bench_58
</text>
</svg>