<svg viewBox="-11.939811 -3.950001 262.67578 86.90001" xmlns="http://www.w3.org/2000/svg" xmlns:xlink="http://www.w3.org/1999/xlink">
<g id="bin_0">
<path d="M0,0 L238.79616,0 L238.79616,79 L0,79 z" fill="#D3D3D3" stroke="black" stroke-width="0.43450004"/>
<title>bin, id: 0, bbox: [x_min: 0.000, y_min: 0.000, x_max: 238.796, y_max: 79.000]</title>
</g>
<g id="items">
<defs>
<g id="item_0">
<path d="M0,0 L12,-1 L14,-3.0000005 L24,0 L33,1 L59,2 L59,13 L4,13 L4,8 L2,5 L0,5 z" fill="#7A7A7A" fill-opacity="0.5" fill-rule="nonzero" stroke="black" stroke-width="0.21725002"/>
</g>
<g id="item_1">
<path d="M0,0 L0,-14 L27,-17 L37,-20 L41,-22 L47,-19 L56,-16 L56,0 z" fill="#7A7A7A" fill-opacity="0.5" fill-rule="nonzero" stroke="black" stroke-width="0.21725002"/>
</g>
<g id="item_2">
<path d="M0,0 L57,0 L57,5 L0,5 z" fill="#7A7A7A" fill-opacity="0.5" fill-rule="nonzero" stroke="black" stroke-width="0.21725002"/>
</g>
<g id="item_3">
<path d="M0,0 L52,0 L52,5 L0,5 z" fill="#7A7A7A" fill-opacity="0.5" fill-rule="nonzero" stroke="black" stroke-width="0.21725002"/>
</g>
<g id="item_4">
<path d="M0,0 L44,0 L44,5 L0,5 z" fill="#7A7A7A" fill-opacity="0.5" fill-rule="nonzero" stroke="black" stroke-width="0.21725002"/>
</g>
<g id="item_5">
<path d="M0,0 L42,0 L42,5 L0,5 z" fill="#7A7A7A" fill-opacity="0.5" fill-rule="nonzero" stroke="black" stroke-width="0.21725002"/>
</g>
<g id="item_6">
<path d="M0,0 L21,0 L21,2 L0,2 z" fill="#7A7A7A" fill-opacity="0.5" fill-rule="nonzero" stroke="black" stroke-width="0.21725002"/>
</g>
<g id="item_7">
<path d="M0,0 L15,4 L13,7 L0,6 z" fill="#7A7A7A" fill-opacity="0.5" fill-rule="nonzero" stroke="black" stroke-width="0.21725002"/>
</g>
<g id="item_8">
<path d="M0,0 L15,1 L15,4 L0,4 z" fill="#7A7A7A" fill-opacity="0.5" fill-rule="nonzero" stroke="black" stroke-width="0.21725002"/>
</g>
<g id="item_9">
<path d="M0,0 L14,0 L14,5 L0,5 z" fill="#7A7A7A" fill-opacity="0.5" fill-rule="nonzero" stroke="black" stroke-width="0.21725002"/>
</g>
<g id="item_10">
<path d="M0,0 L14,1 L14,4 L0,4 z" fill="#7A7A7A" fill-opacity="0.5" fill-rule="nonzero" stroke="black" stroke-width="0.21725002"/>
</g>
<g id="item_11">
<path d="M0,0 L13,0 L13,5 L0,5 z" fill="#7A7A7A" fill-opacity="0.5" fill-rule="nonzero" stroke="black" stroke-width="0.21725002"/>
</g>
<g id="item_12">
<path d="M0,0 L13,1 L13,4 L0,4 z" fill="#7A7A7A" fill-opacity="0.5" fill-rule="nonzero" stroke="black" stroke-width="0.21725002"/>
</g>
<g id="item_13">
<path d="M0,0 L12,0 L12,5 L0,5 z" fill="#7A7A7A" fill-opacity="0.5" fill-rule="nonzero" stroke="black" stroke-width="0.21725002"/>
</g>
<g id="item_14">
<path d="M0,0 L4,2 L6,10 L4,11 L-4,11 L-6,10 L-4,2 z" fill="#7A7A7A" fill-opacity="0.5" fill-rule="nonzero" stroke="black" stroke-width="0.21725002"/>
</g>
<g id="item_15">
<path d="M0,0 L3,-2 L8,0 L8,8 L2,8 z" fill="#7A7A7A" fill-opacity="0.5" fill-rule="nonzero" stroke="black" stroke-width="0.21725002"/>
</g>
<g id="item_16">
<path d="M0,0 L2,1 L3,6 L2,7 L-2,7 L-3,6 L-2,1 z" fill="#7A7A7A" fill-opacity="0.5" fill-rule="nonzero" stroke="black" stroke-width="0.21725002"/>
</g>
</defs>
<use transform="translate(230.00435 41.435608), rotate(-180)" xlink:href="#item_1">
<title>item, id: 1, transf: [r: -180.000°, t: (230.004, 41.436)]</title>
</use>
<use transform="translate(0.000024795532 42.763115), rotate(0)" xlink:href="#item_1">
<title>item, id: 1, transf: [r: 0.000°, t: (0.000, 42.763)]</title>
</use>
<use transform="translate(182.79614 36.424057), rotate(0)" xlink:href="#item_1">
<title>item, id: 1, transf: [r: 0.000°, t: (182.796, 36.424)]</title>
</use>
<use transform="translate(130.7889 78.99901), rotate(0)" xlink:href="#item_1">
<title>item, id: 1, transf: [r: 0.000°, t: (130.789, 78.999)]</title>
</use>
<use transform="translate(66.09978 78.999855), rotate(0)" xlink:href="#item_1">
<title>item, id: 1, transf: [r: 0.000°, t: (66.100, 79.000)]</title>
</use>
<use transform="translate(115.00125 0.0018615723), rotate(-180)" xlink:href="#item_1">
<title>item, id: 1, transf: [r: -180.000°, t: (115.001, 0.002)]</title>
</use>
<use transform="translate(171.0107 43.38761), rotate(-180)" xlink:href="#item_1">
<title>item, id: 1, transf: [r: -180.000°, t: (171.011, 43.388)]</title>
</use>
<use transform="translate(115.00397 42.103046), rotate(-180)" xlink:href="#item_1">
<title>item, id: 1, transf: [r: -180.000°, t: (115.004, 42.103)]</title>
</use>
<use transform="translate(161.99458 28.380674), rotate(-180)" xlink:href="#item_0">
<title>item, id: 0, transf: [r: -180.000°, t: (161.995, 28.381)]</title>
</use>
<use transform="translate(59.00135 55.763203), rotate(-180)" xlink:href="#item_0">
<title>item, id: 0, transf: [r: -180.000°, t: (59.001, 55.763)]</title>
</use>
<use transform="translate(115.00387 30.387003), rotate(0)" xlink:href="#item_0">
<title>item, id: 0, transf: [r: 0.000°, t: (115.004, 30.387)]</title>
</use>
<use transform="translate(6.718336 65.99971), rotate(0)" xlink:href="#item_0">
<title>item, id: 0, transf: [r: 0.000°, t: (6.718, 66.000)]</title>
</use>
<use transform="translate(56.002342 29.10182), rotate(0)" xlink:href="#item_0">
<title>item, id: 0, transf: [r: 0.000°, t: (56.002, 29.102)]</title>
</use>
<use transform="translate(233.59743 13.000391), rotate(-180)" xlink:href="#item_0">
<title>item, id: 0, transf: [r: -180.000°, t: (233.597, 13.000)]</title>
</use>
<use transform="translate(174.0607 13.000076), rotate(-180)" xlink:href="#item_0">
<title>item, id: 0, transf: [r: -180.000°, t: (174.061, 13.000)]</title>
</use>
<use transform="translate(59.000824 13.002691), rotate(-180)" xlink:href="#item_0">
<title>item, id: 0, transf: [r: -180.000°, t: (59.001, 13.003)]</title>
</use>
<use transform="translate(231.90102 41.43464), rotate(-180)" xlink:href="#item_2">
<title>item, id: 2, transf: [r: -180.000°, t: (231.901, 41.435)]</title>
</use>
<use transform="translate(238.78955 78.99994), rotate(-180)" xlink:href="#item_3">
<title>item, id: 3, transf: [r: -180.000°, t: (238.790, 79.000)]</title>
</use>
<use transform="translate(194.79347 68.999855), rotate(0)" xlink:href="#item_4">
<title>item, id: 4, transf: [r: 0.000°, t: (194.793, 69.000)]</title>
</use>
<use transform="translate(238.78758 68.99895), rotate(-180)" xlink:href="#item_5">
<title>item, id: 5, transf: [r: -180.000°, t: (238.788, 68.999)]</title>
</use>
<use transform="translate(87.665794 29.858383), rotate(-180)" xlink:href="#item_14">
<title>item, id: 14, transf: [r: -180.000°, t: (87.666, 29.858)]</title>
</use>
<use transform="translate(97.51731 18.475445), rotate(0)" xlink:href="#item_14">
<title>item, id: 14, transf: [r: 0.000°, t: (97.517, 18.475)]</title>
</use>
<use transform="translate(168.09087 21.004517), rotate(0)" xlink:href="#item_14">
<title>item, id: 14, transf: [r: 0.000°, t: (168.091, 21.005)]</title>
</use>
<use transform="translate(55.69398 56.448093), rotate(0)" xlink:href="#item_14">
<title>item, id: 14, transf: [r: 0.000°, t: (55.694, 56.448)]</title>
</use>
<use transform="translate(12.32174 22.639458), rotate(-180)" xlink:href="#item_14">
<title>item, id: 14, transf: [r: -180.000°, t: (12.322, 22.639)]</title>
</use>
<use transform="translate(176.61911 27.00119), rotate(-180)" xlink:href="#item_14">
<title>item, id: 14, transf: [r: -180.000°, t: (176.619, 27.001)]</title>
</use>
<use transform="translate(53.00073 24.837313), rotate(-180)" xlink:href="#item_14">
<title>item, id: 14, transf: [r: -180.000°, t: (53.001, 24.837)]</title>
</use>
<use transform="translate(62.007763 17.257845), rotate(0)" xlink:href="#item_14">
<title>item, id: 14, transf: [r: 0.000°, t: (62.008, 17.258)]</title>
</use>
<use transform="translate(212.06879 18.74184), rotate(-180)" xlink:href="#item_9">
<title>item, id: 9, transf: [r: -180.000°, t: (212.069, 18.742)]</title>
</use>
<use transform="translate(35.175617 56.183617), rotate(0)" xlink:href="#item_7">
<title>item, id: 7, transf: [r: 0.000°, t: (35.176, 56.184)]</title>
</use>
<use transform="translate(17.676456 15.263615), rotate(0)" xlink:href="#item_7">
<title>item, id: 7, transf: [r: 0.000°, t: (17.676, 15.264)]</title>
</use>
<use transform="translate(32.728916 13.967426), rotate(0)" xlink:href="#item_7">
<title>item, id: 7, transf: [r: 0.000°, t: (32.729, 13.967)]</title>
</use>
<use transform="translate(82.36414 28.653944), rotate(-180)" xlink:href="#item_7">
<title>item, id: 7, transf: [r: -180.000°, t: (82.364, 28.654)]</title>
</use>
<use transform="translate(0.24615669 20.286045), rotate(0)" xlink:href="#item_7">
<title>item, id: 7, transf: [r: 0.000°, t: (0.246, 20.286)]</title>
</use>
<use transform="translate(32.690834 19.253677), rotate(-180)" xlink:href="#item_7">
<title>item, id: 7, transf: [r: -180.000°, t: (32.691, 19.254)]</title>
</use>
<use transform="translate(34.687775 66.414406), rotate(-180)" xlink:href="#item_7">
<title>item, id: 7, transf: [r: -180.000°, t: (34.688, 66.414)]</title>
</use>
<use transform="translate(183.0674 13.948023), rotate(0)" xlink:href="#item_7">
<title>item, id: 7, transf: [r: 0.000°, t: (183.067, 13.948)]</title>
</use>
<use transform="translate(20.12324 61.631767), rotate(-180)" xlink:href="#item_11">
<title>item, id: 11, transf: [r: -180.000°, t: (20.123, 61.632)]</title>
</use>
<use transform="translate(129.00256 13.109303), rotate(0)" xlink:href="#item_6">
<title>item, id: 6, transf: [r: 0.000°, t: (129.003, 13.109)]</title>
</use>
<use transform="translate(197.79521 59.998543), rotate(0)" xlink:href="#item_6">
<title>item, id: 6, transf: [r: 0.000°, t: (197.795, 59.999)]</title>
</use>
<use transform="translate(213.90219 63.998688), rotate(-180)" xlink:href="#item_6">
<title>item, id: 6, transf: [r: -180.000°, t: (213.902, 63.999)]</title>
</use>
<use transform="translate(183.06642 16.000237), rotate(-180)" xlink:href="#item_6">
<title>item, id: 6, transf: [r: -180.000°, t: (183.066, 16.000)]</title>
</use>
<use transform="translate(21.007582 56.631287), rotate(-180)" xlink:href="#item_6">
<title>item, id: 6, transf: [r: -180.000°, t: (21.008, 56.631)]</title>
</use>
<use transform="translate(104.710236 27.296375), rotate(0)" xlink:href="#item_6">
<title>item, id: 6, transf: [r: 0.000°, t: (104.710, 27.296)]</title>
</use>
<use transform="translate(198.02953 13.944127), rotate(-180)" xlink:href="#item_6">
<title>item, id: 6, transf: [r: -180.000°, t: (198.030, 13.944)]</title>
</use>
<use transform="translate(234.90248 63.998943), rotate(-180)" xlink:href="#item_6">
<title>item, id: 6, transf: [r: -180.000°, t: (234.902, 63.999)]</title>
</use>
<use transform="translate(49.692905 67.377235), rotate(-180)" xlink:href="#item_8">
<title>item, id: 8, transf: [r: -180.000°, t: (49.693, 67.377)]</title>
</use>
<use transform="translate(230.79527 61.97352), rotate(-180)" xlink:href="#item_13">
<title>item, id: 13, transf: [r: -180.000°, t: (230.795, 61.974)]</title>
</use>
<use transform="translate(158.40997 16.003496), rotate(0)" xlink:href="#item_13">
<title>item, id: 13, transf: [r: 0.000°, t: (158.410, 16.003)]</title>
</use>
<use transform="translate(238.79591 60.315834), rotate(-180)" xlink:href="#item_15">
<title>item, id: 15, transf: [r: -180.000°, t: (238.796, 60.316)]</title>
</use>
<use transform="translate(122.76035 65.76268), rotate(0)" xlink:href="#item_15">
<title>item, id: 15, transf: [r: 0.000°, t: (122.760, 65.763)]</title>
</use>
<use transform="translate(186.789 65.04935), rotate(0)" xlink:href="#item_15">
<title>item, id: 15, transf: [r: 0.000°, t: (186.789, 65.049)]</title>
</use>
<use transform="translate(230.00563 44.31199), rotate(0)" xlink:href="#item_15">
<title>item, id: 15, transf: [r: 0.000°, t: (230.006, 44.312)]</title>
</use>
<use transform="translate(174.77666 28.42611), rotate(0)" xlink:href="#item_15">
<title>item, id: 15, transf: [r: 0.000°, t: (174.777, 28.426)]</title>
</use>
<use transform="translate(8.000666 65.14467), rotate(-180)" xlink:href="#item_15">
<title>item, id: 15, transf: [r: -180.000°, t: (8.001, 65.145)]</title>
</use>
<use transform="translate(8.029914 19.47456), rotate(-180)" xlink:href="#item_15">
<title>item, id: 15, transf: [r: -180.000°, t: (8.030, 19.475)]</title>
</use>
<use transform="translate(8.183801 76.96908), rotate(-180)" xlink:href="#item_15">
<title>item, id: 15, transf: [r: -180.000°, t: (8.184, 76.969)]</title>
</use>
<use transform="translate(115.00132 11.047159), rotate(0)" xlink:href="#item_10">
<title>item, id: 10, transf: [r: 0.000°, t: (115.001, 11.047)]</title>
</use>
<use transform="translate(21.018932 54.65903), rotate(0)" xlink:href="#item_12">
<title>item, id: 12, transf: [r: 0.000°, t: (21.019, 54.659)]</title>
</use>
<use transform="translate(15.604371 21.19049), rotate(0)" xlink:href="#item_12">
<title>item, id: 12, transf: [r: 0.000°, t: (15.604, 21.190)]</title>
</use>
<use transform="translate(63.690918 67.39234), rotate(-180)" xlink:href="#item_16">
<title>item, id: 16, transf: [r: -180.000°, t: (63.691, 67.392)]</title>
</use>
<use transform="translate(235.79613 43.42431), rotate(-180)" xlink:href="#item_16">
<title>item, id: 16, transf: [r: -180.000°, t: (235.796, 43.424)]</title>
</use>
<use transform="translate(235.7419 9.397044), rotate(-180)" xlink:href="#item_16">
<title>item, id: 16, transf: [r: -180.000°, t: (235.742, 9.397)]</title>
</use>
<use transform="translate(235.78064 11.474912), rotate(0)" xlink:href="#item_16">
<title>item, id: 16, transf: [r: 0.000°, t: (235.781, 11.475)]</title>
</use>
</g>
<g id="quality_zones"/>
<g id="optionals">
<g id="overlap_lines" transform="translate(0 0), rotate(0)"/>
</g>
<text font-family="monospace" font-size="1.975" font-weight="500" x="0" y="-0.9875">
height: 79.000 | width: 238.796 | usage: 91.209% | final_bench_97
</text>
</svg>