<svg viewBox="-11.900516 -3.950001 261.81128 86.90001" xmlns="http://www.w3.org/2000/svg" xmlns:xlink="http://www.w3.org/1999/xlink">
<g id="bin_0">
<path d="M0,0 L238.01025,0 L238.01025,79 L0,79 z" fill="#D3D3D3" stroke="black" stroke-width="0.43450004"/>
<title>bin, id: 0, bbox: [x_min: 0.000, y_min: 0.000, x_max: 238.010, y_max: 79.000]</title>
</g>
<g id="items">
<defs>
<g id="item_0">
<path d="M0,0 L12,-1 L14,-3.0000005 L24,0 L33,1 L59,2 L59,13 L4,13 L4,8 L2,5 L0,5 z" fill="#7A7A7A" fill-opacity="0.5" fill-rule="nonzero" stroke="black" stroke-width="0.21725002"/>
</g>
<g id="item_1">
<path d="M0,0 L0,-14 L27,-17 L37,-20 L41,-22 L47,-19 L56,-16 L56,0 z" fill="#7A7A7A" fill-opacity="0.5" fill-rule="nonzero" stroke="black" stroke-width="0.21725002"/>
</g>
<g id="item_2">
<path d="M0,0 L57,0 L57,5 L0,5 z" fill="#7A7A7A" fill-opacity="0.5" fill-rule="nonzero" stroke="black" stroke-width="0.21725002"/>
</g>
<g id="item_3">
<path d="M0,0 L52,0 L52,5 L0,5 z" fill="#7A7A7A" fill-opacity="0.5" fill-rule="nonzero" stroke="black" stroke-width="0.21725002"/>
</g>
<g id="item_4">
<path d="M0,0 L44,0 L44,5 L0,5 z" fill="#7A7A7A" fill-opacity="0.5" fill-rule="nonzero" stroke="black" stroke-width="0.21725002"/>
</g>
<g id="item_5">
<path d="M0,0 L42,0 L42,5 L0,5 z" fill="#7A7A7A" fill-opacity="0.5" fill-rule="nonzero" stroke="black" stroke-width="0.21725002"/>
</g>
<g id="item_6">
<path d="M0,0 L21,0 L21,2 L0,2 z" fill="#7A7A7A" fill-opacity="0.5" fill-rule="nonzero" stroke="black" stroke-width="0.21725002"/>
</g>
<g id="item_7">
<path d="M0,0 L15,4 L13,7 L0,6 z" fill="#7A7A7A" fill-opacity="0.5" fill-rule="nonzero" stroke="black" stroke-width="0.21725002"/>
</g>
<g id="item_8">
<path d="M0,0 L15,1 L15,4 L0,4 z" fill="#7A7A7A" fill-opacity="0.5" fill-rule="nonzero" stroke="black" stroke-width="0.21725002"/>
</g>
<g id="item_9">
<path d="M0,0 L14,0 L14,5 L0,5 z" fill="#7A7A7A" fill-opacity="0.5" fill-rule="nonzero" stroke="black" stroke-width="0.21725002"/>
</g>
<g id="item_10">
<path d="M0,0 L14,1 L14,4 L0,4 z" fill="#7A7A7A" fill-opacity="0.5" fill-rule="nonzero" stroke="black" stroke-width="0.21725002"/>
</g>
<g id="item_11">
<path d="M0,0 L13,0 L13,5 L0,5 z" fill="#7A7A7A" fill-opacity="0.5" fill-rule="nonzero" stroke="black" stroke-width="0.21725002"/>
</g>
<g id="item_12">
<path d="M0,0 L13,1 L13,4 L0,4 z" fill="#7A7A7A" fill-opacity="0.5" fill-rule="nonzero" stroke="black" stroke-width="0.21725002"/>
</g>
<g id="item_13">
<path d="M0,0 L12,0 L12,5 L0,5 z" fill="#7A7A7A" fill-opacity="0.5" fill-rule="nonzero" stroke="black" stroke-width="0.21725002"/>
</g>
<g id="item_14">
<path d="M0,0 L4,2 L6,10 L4,11 L-4,11 L-6,10 L-4,2 z" fill="#7A7A7A" fill-opacity="0.5" fill-rule="nonzero" stroke="black" stroke-width="0.21725002"/>
</g>
<g id="item_15">
<path d="M0,0 L3,-2 L8,0 L8,8 L2,8 z" fill="#7A7A7A" fill-opacity="0.5" fill-rule="nonzero" stroke="black" stroke-width="0.21725002"/>
</g>
<g id="item_16">
<path d="M0,0 L2,1 L3,6 L2,7 L-2,7 L-3,6 L-2,1 z" fill="#7A7A7A" fill-opacity="0.5" fill-rule="nonzero" stroke="black" stroke-width="0.21725002"/>
</g>
</defs>
<use transform="translate(182.00955 41.843655), rotate(0)" xlink:href="#item_1">
<title>item, id: 1, transf: [r: 0.000°, t: (182.010, 41.844)]</title>
</use>
<use transform="translate(230.00276 5.019767), rotate(-180)" xlink:href="#item_1">
<title>item, id: 1, transf: [r: -180.000°, t: (230.003, 5.020)]</title>
</use>
<use transform="translate(64.002075 78.99819), rotate(0)" xlink:href="#item_1">
<title>item, id: 1, transf: [r: 0.000°, t: (64.002, 78.998)]</title>
</use>
<use transform="translate(174.0012 5.0221148), rotate(-180)" xlink:href="#item_1">
<title>item, id: 1, transf: [r: -180.000°, t: (174.001, 5.022)]</title>
</use>
<use transform="translate(8.001156 78.992744), rotate(0)" xlink:href="#item_1">
<title>item, id: 1, transf: [r: 0.000°, t: (8.001, 78.993)]</title>
</use>
<use transform="translate(0.002790451 37.195004), rotate(0)" xlink:href="#item_1">
<title>item, id: 1, transf: [r: 0.000°, t: (0.003, 37.195)]</title>
</use>
<use transform="translate(112.0092 42.20713), rotate(-180)" xlink:href="#item_1">
<title>item, id: 1, transf: [r: -180.000°, t: (112.009, 42.207)]</title>
</use>
<use transform="translate(56.00853 42.201225), rotate(-180)" xlink:href="#item_1">
<title>item, id: 1, transf: [r: -180.000°, t: (56.009, 42.201)]</title>
</use>
<use transform="translate(179.0095 65.999306), rotate(0)" xlink:href="#item_0">
<title>item, id: 0, transf: [r: 0.000°, t: (179.010, 65.999)]</title>
</use>
<use transform="translate(120.0021 65.99872), rotate(0)" xlink:href="#item_0">
<title>item, id: 0, transf: [r: 0.000°, t: (120.002, 65.999)]</title>
</use>
<use transform="translate(230.97928 59.93055), rotate(-180)" xlink:href="#item_0">
<title>item, id: 0, transf: [r: -180.000°, t: (230.979, 59.931)]</title>
</use>
<use transform="translate(115.00796 29.924814), rotate(0)" xlink:href="#item_0">
<title>item, id: 0, transf: [r: 0.000°, t: (115.008, 29.925)]</title>
</use>
<use transform="translate(59.000854 13.000136), rotate(-180)" xlink:href="#item_0">
<title>item, id: 0, transf: [r: -180.000°, t: (59.001, 13.000)]</title>
</use>
<use transform="translate(171.96469 55.92649), rotate(-180)" xlink:href="#item_0">
<title>item, id: 0, transf: [r: -180.000°, t: (171.965, 55.926)]</title>
</use>
<use transform="translate(56.00788 29.204554), rotate(0)" xlink:href="#item_0">
<title>item, id: 0, transf: [r: 0.000°, t: (56.008, 29.205)]</title>
</use>
<use transform="translate(118.000885 13.003342), rotate(-180)" xlink:href="#item_0">
<title>item, id: 0, transf: [r: -180.000°, t: (118.001, 13.003)]</title>
</use>
<use transform="translate(223.00989 5.012186), rotate(-180)" xlink:href="#item_2">
<title>item, id: 2, transf: [r: -180.000°, t: (223.010, 5.012)]</title>
</use>
<use transform="translate(166.0086 5.005884), rotate(-180)" xlink:href="#item_3">
<title>item, id: 3, transf: [r: -180.000°, t: (166.009, 5.006)]</title>
</use>
<use transform="translate(238.0084 46.928406), rotate(-180)" xlink:href="#item_4">
<title>item, id: 4, transf: [r: -180.000°, t: (238.008, 46.928)]</title>
</use>
<use transform="translate(54.00312 42.195724), rotate(-180)" xlink:href="#item_5">
<title>item, id: 5, transf: [r: -180.000°, t: (54.003, 42.196)]</title>
</use>
<use transform="translate(6.001564 22.388649), rotate(-180)" xlink:href="#item_14">
<title>item, id: 14, transf: [r: -180.000°, t: (6.002, 22.389)]</title>
</use>
<use transform="translate(72.665016 26.429865), rotate(-180)" xlink:href="#item_14">
<title>item, id: 14, transf: [r: -180.000°, t: (72.665, 26.430)]</title>
</use>
<use transform="translate(93.36234 25.013645), rotate(-180)" xlink:href="#item_14">
<title>item, id: 14, transf: [r: -180.000°, t: (93.362, 25.014)]</title>
</use>
<use transform="translate(62.213238 17.351812), rotate(0)" xlink:href="#item_14">
<title>item, id: 14, transf: [r: 0.000°, t: (62.213, 17.352)]</title>
</use>
<use transform="translate(83.18961 12.362799), rotate(0)" xlink:href="#item_14">
<title>item, id: 14, transf: [r: 0.000°, t: (83.190, 12.363)]</title>
</use>
<use transform="translate(168.61026 56.253643), rotate(0)" xlink:href="#item_14">
<title>item, id: 14, transf: [r: 0.000°, t: (168.610, 56.254)]</title>
</use>
<use transform="translate(111.9993 24.852364), rotate(-180)" xlink:href="#item_14">
<title>item, id: 14, transf: [r: -180.000°, t: (111.999, 24.852)]</title>
</use>
<use transform="translate(169.57626 20.586473), rotate(0)" xlink:href="#item_14">
<title>item, id: 14, transf: [r: 0.000°, t: (169.576, 20.586)]</title>
</use>
<use transform="translate(174.07811 58.55077), rotate(0)" xlink:href="#item_9">
<title>item, id: 9, transf: [r: 0.000°, t: (174.078, 58.551)]</title>
</use>
<use transform="translate(148.4673 24.440775), rotate(0)" xlink:href="#item_7">
<title>item, id: 7, transf: [r: 0.000°, t: (148.467, 24.441)]</title>
</use>
<use transform="translate(203.11624 59.501514), rotate(0)" xlink:href="#item_7">
<title>item, id: 7, transf: [r: 0.000°, t: (203.116, 59.502)]</title>
</use>
<use transform="translate(164.00528 28.583204), rotate(-180)" xlink:href="#item_7">
<title>item, id: 7, transf: [r: -180.000°, t: (164.005, 28.583)]</title>
</use>
<use transform="translate(203.11542 65.690254), rotate(-180)" xlink:href="#item_7">
<title>item, id: 7, transf: [r: -180.000°, t: (203.115, 65.690)]</title>
</use>
<use transform="translate(11.764528 13.4362755), rotate(0)" xlink:href="#item_7">
<title>item, id: 7, transf: [r: 0.000°, t: (11.765, 13.436)]</title>
</use>
<use transform="translate(31.607195 18.721676), rotate(-180)" xlink:href="#item_7">
<title>item, id: 7, transf: [r: -180.000°, t: (31.607, 18.722)]</title>
</use>
<use transform="translate(90.45796 30.248022), rotate(-180)" xlink:href="#item_7">
<title>item, id: 7, transf: [r: -180.000°, t: (90.458, 30.248)]</title>
</use>
<use transform="translate(147.98358 56.267723), rotate(0)" xlink:href="#item_7">
<title>item, id: 7, transf: [r: 0.000°, t: (147.984, 56.268)]</title>
</use>
<use transform="translate(114.67808 30.68843), rotate(-180)" xlink:href="#item_11">
<title>item, id: 11, transf: [r: -180.000°, t: (114.678, 30.688)]</title>
</use>
<use transform="translate(193.62254 44.930386), rotate(-180)" xlink:href="#item_6">
<title>item, id: 6, transf: [r: -180.000°, t: (193.623, 44.930)]</title>
</use>
<use transform="translate(126.87196 60.998165), rotate(0)" xlink:href="#item_6">
<title>item, id: 6, transf: [r: 0.000°, t: (126.872, 60.998)]</title>
</use>
<use transform="translate(147.85979 59.85956), rotate(-180)" xlink:href="#item_6">
<title>item, id: 6, transf: [r: -180.000°, t: (147.860, 59.860)]</title>
</use>
<use transform="translate(126.360794 55.859535), rotate(0)" xlink:href="#item_6">
<title>item, id: 6, transf: [r: 0.000°, t: (126.361, 55.860)]</title>
</use>
<use transform="translate(66.66118 17.342762), rotate(-180)" xlink:href="#item_6">
<title>item, id: 6, transf: [r: -180.000°, t: (66.661, 17.343)]</title>
</use>
<use transform="translate(188.96638 46.93048), rotate(-180)" xlink:href="#item_6">
<title>item, id: 6, transf: [r: -180.000°, t: (188.966, 46.930)]</title>
</use>
<use transform="translate(237.9982 67.17955), rotate(-180)" xlink:href="#item_6">
<title>item, id: 6, transf: [r: -180.000°, t: (237.998, 67.180)]</title>
</use>
<use transform="translate(78.93041 15.342225), rotate(-180)" xlink:href="#item_6">
<title>item, id: 6, transf: [r: -180.000°, t: (78.930, 15.342)]</title>
</use>
<use transform="translate(238.01022 4.0000067), rotate(-180)" xlink:href="#item_8">
<title>item, id: 8, transf: [r: -180.000°, t: (238.010, 4.000)]</title>
</use>
<use transform="translate(114.67812 23.915625), rotate(0)" xlink:href="#item_13">
<title>item, id: 13, transf: [r: 0.000°, t: (114.678, 23.916)]</title>
</use>
<use transform="translate(0.0003452301 37.19912), rotate(0)" xlink:href="#item_13">
<title>item, id: 13, transf: [r: 0.000°, t: (0.000, 37.199)]</title>
</use>
<use transform="translate(98.703575 17.681467), rotate(0)" xlink:href="#item_15">
<title>item, id: 15, transf: [r: 0.000°, t: (98.704, 17.681)]</title>
</use>
<use transform="translate(230.00829 5.668315), rotate(0)" xlink:href="#item_15">
<title>item, id: 15, transf: [r: 0.000°, t: (230.008, 5.668)]</title>
</use>
<use transform="translate(230.0099 15.822956), rotate(0)" xlink:href="#item_15">
<title>item, id: 15, transf: [r: 0.000°, t: (230.010, 15.823)]</title>
</use>
<use transform="translate(173.94533 24.000658), rotate(0)" xlink:href="#item_15">
<title>item, id: 15, transf: [r: 0.000°, t: (173.945, 24.001)]</title>
</use>
<use transform="translate(0.0011029243 70.999886), rotate(0)" xlink:href="#item_15">
<title>item, id: 15, transf: [r: 0.000°, t: (0.001, 71.000)]</title>
</use>
<use transform="translate(229.91298 49.358944), rotate(0)" xlink:href="#item_15">
<title>item, id: 15, transf: [r: 0.000°, t: (229.913, 49.359)]</title>
</use>
<use transform="translate(174.00848 34.007343), rotate(0)" xlink:href="#item_15">
<title>item, id: 15, transf: [r: 0.000°, t: (174.008, 34.007)]</title>
</use>
<use transform="translate(118.35144 56.3955), rotate(0)" xlink:href="#item_15">
<title>item, id: 15, transf: [r: 0.000°, t: (118.351, 56.396)]</title>
</use>
<use transform="translate(162.60112 67.362946), rotate(-180)" xlink:href="#item_10">
<title>item, id: 10, transf: [r: -180.000°, t: (162.601, 67.363)]</title>
</use>
<use transform="translate(148.44507 29.834835), rotate(-180)" xlink:href="#item_12">
<title>item, id: 12, transf: [r: -180.000°, t: (148.445, 29.835)]</title>
</use>
<use transform="translate(231.79803 65.11332), rotate(-180)" xlink:href="#item_12">
<title>item, id: 12, transf: [r: -180.000°, t: (231.798, 65.113)]</title>
</use>
<use transform="translate(98.12654 23.261553), rotate(0)" xlink:href="#item_16">
<title>item, id: 16, transf: [r: 0.000°, t: (98.127, 23.262)]</title>
</use>
<use transform="translate(234.93301 58.17523), rotate(0)" xlink:href="#item_16">
<title>item, id: 16, transf: [r: 0.000°, t: (234.933, 58.175)]</title>
</use>
<use transform="translate(115.01465 61.091125), rotate(-180)" xlink:href="#item_16">
<title>item, id: 16, transf: [r: -180.000°, t: (115.015, 61.091)]</title>
</use>
<use transform="translate(4.4330325 69.53161), rotate(-180)" xlink:href="#item_16">
<title>item, id: 16, transf: [r: -180.000°, t: (4.433, 69.532)]</title>
</use>
</g>
<g id="quality_zones"/>
<g id="optionals">
<g id="overlap_lines" transform="translate(0 0), rotate(0)"/>
</g>
<text font-family="monospace" font-size="1.975" font-weight="500" x="0" y="-0.9875">
height: 79.000 | width: 238.010 | usage: 91.510% | final_bench_53
</text>
</svg>