<svg viewBox="-11.880879 -3.950001 261.3793 86.90001" xmlns="http://www.w3.org/2000/svg" xmlns:xlink="http://www.w3.org/1999/xlink">
<g id="bin_0">
<path d="M0,0 L237.61754,0 L237.61754,79 L0,79 z" fill="#D3D3D3" stroke="black" stroke-width="0.43450004"/>
<title>bin, id: 0, bbox: [x_min: 0.000, y_min: 0.000, x_max: 237.618, y_max: 79.000]</title>
</g>
<g id="items">
<defs>
<g id="item_0">
<path d="M0,0 L12,-1 L14,-3.0000005 L24,0 L33,1 L59,2 L59,13 L4,13 L4,8 L2,5 L0,5 z" fill="#7A7A7A" fill-opacity="0.5" fill-rule="nonzero" stroke="black" stroke-width="0.21725002"/>
</g>
<g id="item_1">
<path d="M0,0 L0,-14 L27,-17 L37,-20 L41,-22 L47,-19 L56,-16 L56,0 z" fill="#7A7A7A" fill-opacity="0.5" fill-rule="nonzero" stroke="black" stroke-width="0.21725002"/>
</g>
<g id="item_2">
<path d="M0,0 L57,0 L57,5 L0,5 z" fill="#7A7A7A" fill-opacity="0.5" fill-rule="nonzero" stroke="black" stroke-width="0.21725002"/>
</g>
<g id="item_3">
<path d="M0,0 L52,0 L52,5 L0,5 z" fill="#7A7A7A" fill-opacity="0.5" fill-rule="nonzero" stroke="black" stroke-width="0.21725002"/>
</g>
<g id="item_4">
<path d="M0,0 L44,0 L44,5 L0,5 z" fill="#7A7A7A" fill-opacity="0.5" fill-rule="nonzero" stroke="black" stroke-width="0.21725002"/>
</g>
<g id="item_5">
<path d="M0,0 L42,0 L42,5 L0,5 z" fill="#7A7A7A" fill-opacity="0.5" fill-rule="nonzero" stroke="black" stroke-width="0.21725002"/>
</g>
<g id="item_6">
<path d="M0,0 L21,0 L21,2 L0,2 z" fill="#7A7A7A" fill-opacity="0.5" fill-rule="nonzero" stroke="black" stroke-width="0.21725002"/>
</g>
<g id="item_7">
<path d="M0,0 L15,4 L13,7 L0,6 z" fill="#7A7A7A" fill-opacity="0.5" fill-rule="nonzero" stroke="black" stroke-width="0.21725002"/>
</g>
<g id="item_8">
<path d="M0,0 L15,1 L15,4 L0,4 z" fill="#7A7A7A" fill-opacity="0.5" fill-rule="nonzero" stroke="black" stroke-width="0.21725002"/>
</g>
<g id="item_9">
<path d="M0,0 L14,0 L14,5 L0,5 z" fill="#7A7A7A" fill-opacity="0.5" fill-rule="nonzero" stroke="black" stroke-width="0.21725002"/>
</g>
<g id="item_10">
<path d="M0,0 L14,1 L14,4 L0,4 z" fill="#7A7A7A" fill-opacity="0.5" fill-rule="nonzero" stroke="black" stroke-width="0.21725002"/>
</g>
<g id="item_11">
<path d="M0,0 L13,0 L13,5 L0,5 z" fill="#7A7A7A" fill-opacity="0.5" fill-rule="nonzero" stroke="black" stroke-width="0.21725002"/>
</g>
<g id="item_12">
<path d="M0,0 L13,1 L13,4 L0,4 z" fill="#7A7A7A" fill-opacity="0.5" fill-rule="nonzero" stroke="black" stroke-width="0.21725002"/>
</g>
<g id="item_13">
<path d="M0,0 L12,0 L12,5 L0,5 z" fill="#7A7A7A" fill-opacity="0.5" fill-rule="nonzero" stroke="black" stroke-width="0.21725002"/>
</g>
<g id="item_14">
<path d="M0,0 L4,2 L6,10 L4,11 L-4,11 L-6,10 L-4,2 z" fill="#7A7A7A" fill-opacity="0.5" fill-rule="nonzero" stroke="black" stroke-width="0.21725002"/>
</g>
<g id="item_15">
<path d="M0,0 L3,-2 L8,0 L8,8 L2,8 z" fill="#7A7A7A" fill-opacity="0.5" fill-rule="nonzero" stroke="black" stroke-width="0.21725002"/>
</g>
<g id="item_16">
<path d="M0,0 L2,1 L3,6 L2,7 L-2,7 L-3,6 L-2,1 z" fill="#7A7A7A" fill-opacity="0.5" fill-rule="nonzero" stroke="black" stroke-width="0.21725002"/>
</g>
</defs>
<use transform="translate(129.02078 78.99698), rotate(0)" xlink:href="#item_1">
<title>item, id: 1, transf: [r: 0.000°, t: (129.021, 78.997)]</title>
</use>
<use transform="translate(56.00123 41.99683), rotate(-180)" xlink:href="#item_1">
<title>item, id: 1, transf: [r: -180.000°, t: (56.001, 41.997)]</title>
</use>
<use transform="translate(56.000977 0.12302303), rotate(-180)" xlink:href="#item_1">
<title>item, id: 1, transf: [r: -180.000°, t: (56.001, 0.123)]</title>
</use>
<use transform="translate(8.133942 78.99954), rotate(0)" xlink:href="#item_1">
<title>item, id: 1, transf: [r: 0.000°, t: (8.134, 79.000)]</title>
</use>
<use transform="translate(0.0001296997 37.791798), rotate(0)" xlink:href="#item_1">
<title>item, id: 1, transf: [r: 0.000°, t: (0.000, 37.792)]</title>
</use>
<use transform="translate(64.61017 78.993065), rotate(0)" xlink:href="#item_1">
<title>item, id: 1, transf: [r: 0.000°, t: (64.610, 78.993)]</title>
</use>
<use transform="translate(168.00285 44.000435), rotate(-180)" xlink:href="#item_1">
<title>item, id: 1, transf: [r: -180.000°, t: (168.003, 44.000)]</title>
</use>
<use transform="translate(112.001724 42.281273), rotate(-180)" xlink:href="#item_1">
<title>item, id: 1, transf: [r: -180.000°, t: (112.002, 42.281)]</title>
</use>
<use transform="translate(170.89204 29.336744), rotate(0)" xlink:href="#item_0">
<title>item, id: 0, transf: [r: 0.000°, t: (170.892, 29.337)]</title>
</use>
<use transform="translate(235.23572 28.002474), rotate(-180)" xlink:href="#item_0">
<title>item, id: 0, transf: [r: -180.000°, t: (235.236, 28.002)]</title>
</use>
<use transform="translate(117.127815 14.840273), rotate(0)" xlink:href="#item_0">
<title>item, id: 0, transf: [r: 0.000°, t: (117.128, 14.840)]</title>
</use>
<use transform="translate(170.60484 13.007984), rotate(-180)" xlink:href="#item_0">
<title>item, id: 0, transf: [r: -180.000°, t: (170.605, 13.008)]</title>
</use>
<use transform="translate(237.61574 55.33751), rotate(-180)" xlink:href="#item_0">
<title>item, id: 0, transf: [r: -180.000°, t: (237.616, 55.338)]</title>
</use>
<use transform="translate(174.00078 41.00032), rotate(-180)" xlink:href="#item_0">
<title>item, id: 0, transf: [r: -180.000°, t: (174.001, 41.000)]</title>
</use>
<use transform="translate(115.00636 18.112509), rotate(-180)" xlink:href="#item_0">
<title>item, id: 0, transf: [r: -180.000°, t: (115.006, 18.113)]</title>
</use>
<use transform="translate(56.00026 29.277842), rotate(0)" xlink:href="#item_0">
<title>item, id: 0, transf: [r: 0.000°, t: (56.000, 29.278)]</title>
</use>
<use transform="translate(171.26535 10.002391), rotate(0)" xlink:href="#item_2">
<title>item, id: 2, transf: [r: 0.000°, t: (171.265, 10.002)]</title>
</use>
<use transform="translate(171.19856 5.0015883), rotate(0)" xlink:href="#item_3">
<title>item, id: 3, transf: [r: 0.000°, t: (171.199, 5.002)]</title>
</use>
<use transform="translate(224.60918 5.0005608), rotate(-180)" xlink:href="#item_4">
<title>item, id: 4, transf: [r: -180.000°, t: (224.609, 5.001)]</title>
</use>
<use transform="translate(56.36741 0.08558178), rotate(0)" xlink:href="#item_5">
<title>item, id: 5, transf: [r: 0.000°, t: (56.367, 0.086)]</title>
</use>
<use transform="translate(83.912 28.792131), rotate(-180)" xlink:href="#item_14">
<title>item, id: 14, transf: [r: -180.000°, t: (83.912, 28.792)]</title>
</use>
<use transform="translate(215.17792 55.806458), rotate(0)" xlink:href="#item_14">
<title>item, id: 14, transf: [r: 0.000°, t: (215.178, 55.806)]</title>
</use>
<use transform="translate(230.61044 11.001638), rotate(-180)" xlink:href="#item_14">
<title>item, id: 14, transf: [r: -180.000°, t: (230.610, 11.002)]</title>
</use>
<use transform="translate(225.46107 65.98945), rotate(0)" xlink:href="#item_14">
<title>item, id: 14, transf: [r: 0.000°, t: (225.461, 65.989)]</title>
</use>
<use transform="translate(215.00008 77.80739), rotate(-180)" xlink:href="#item_14">
<title>item, id: 14, transf: [r: -180.000°, t: (215.000, 77.807)]</title>
</use>
<use transform="translate(205.30005 67.31426), rotate(-180)" xlink:href="#item_14">
<title>item, id: 14, transf: [r: -180.000°, t: (205.300, 67.314)]</title>
</use>
<use transform="translate(205.54654 67.99809), rotate(0)" xlink:href="#item_14">
<title>item, id: 14, transf: [r: 0.000°, t: (205.547, 67.998)]</title>
</use>
<use transform="translate(231.41324 67.195595), rotate(-180)" xlink:href="#item_14">
<title>item, id: 14, transf: [r: -180.000°, t: (231.413, 67.196)]</title>
</use>
<use transform="translate(166.60577 0.0013673306), rotate(0)" xlink:href="#item_9">
<title>item, id: 9, transf: [r: 0.000°, t: (166.606, 0.001)]</title>
</use>
<use transform="translate(185.02141 71.99993), rotate(0)" xlink:href="#item_7">
<title>item, id: 7, transf: [r: 0.000°, t: (185.021, 72.000)]</title>
</use>
<use transform="translate(185.02199 62.84783), rotate(0)" xlink:href="#item_7">
<title>item, id: 7, transf: [r: 0.000°, t: (185.022, 62.848)]</title>
</use>
<use transform="translate(168.00465 50.685127), rotate(0)" xlink:href="#item_7">
<title>item, id: 7, transf: [r: 0.000°, t: (168.005, 50.685)]</title>
</use>
<use transform="translate(200.04033 76.004776), rotate(-180)" xlink:href="#item_7">
<title>item, id: 7, transf: [r: -180.000°, t: (200.040, 76.005)]</title>
</use>
<use transform="translate(89.91204 18.382328), rotate(0)" xlink:href="#item_7">
<title>item, id: 7, transf: [r: 0.000°, t: (89.912, 18.382)]</title>
</use>
<use transform="translate(56.000923 20.263744), rotate(0)" xlink:href="#item_7">
<title>item, id: 7, transf: [r: 0.000°, t: (56.001, 20.264)]</title>
</use>
<use transform="translate(65.84729 22.888796), rotate(-180)" xlink:href="#item_7">
<title>item, id: 7, transf: [r: -180.000°, t: (65.847, 22.889)]</title>
</use>
<use transform="translate(192.99048 64.62366), rotate(-180)" xlink:href="#item_7">
<title>item, id: 7, transf: [r: -180.000°, t: (192.990, 64.624)]</title>
</use>
<use transform="translate(111.42774 5.005929), rotate(-180)" xlink:href="#item_11">
<title>item, id: 11, transf: [r: -180.000°, t: (111.428, 5.006)]</title>
</use>
<use transform="translate(204.00496 56.31422), rotate(-180)" xlink:href="#item_6">
<title>item, id: 6, transf: [r: -180.000°, t: (204.005, 56.314)]</title>
</use>
<use transform="translate(25.213055 39.791935), rotate(-180)" xlink:href="#item_6">
<title>item, id: 6, transf: [r: -180.000°, t: (25.213, 39.792)]</title>
</use>
<use transform="translate(2.9802427 39.99572), rotate(0)" xlink:href="#item_6">
<title>item, id: 6, transf: [r: 0.000°, t: (2.980, 39.996)]</title>
</use>
<use transform="translate(59.805172 39.98006), rotate(-180)" xlink:href="#item_6">
<title>item, id: 6, transf: [r: -180.000°, t: (59.805, 39.980)]</title>
</use>
<use transform="translate(136.01866 43.997704), rotate(-180)" xlink:href="#item_6">
<title>item, id: 6, transf: [r: -180.000°, t: (136.019, 43.998)]</title>
</use>
<use transform="translate(59.805187 41.980072), rotate(-180)" xlink:href="#item_6">
<title>item, id: 6, transf: [r: -180.000°, t: (59.805, 41.980)]</title>
</use>
<use transform="translate(115.22209 39.99464), rotate(0)" xlink:href="#item_6">
<title>item, id: 6, transf: [r: 0.000°, t: (115.222, 39.995)]</title>
</use>
<use transform="translate(216.61745 76.99977), rotate(0)" xlink:href="#item_6">
<title>item, id: 6, transf: [r: 0.000°, t: (216.617, 77.000)]</title>
</use>
<use transform="translate(120.26219 27.990498), rotate(-180)" xlink:href="#item_8">
<title>item, id: 8, transf: [r: -180.000°, t: (120.262, 27.990)]</title>
</use>
<use transform="translate(105.06275 18.989199), rotate(0)" xlink:href="#item_13">
<title>item, id: 13, transf: [r: 0.000°, t: (105.063, 18.989)]</title>
</use>
<use transform="translate(100.3805 30.189293), rotate(-180)" xlink:href="#item_13">
<title>item, id: 13, transf: [r: -180.000°, t: (100.381, 30.189)]</title>
</use>
<use transform="translate(229.61726 68.606224), rotate(0)" xlink:href="#item_15">
<title>item, id: 15, transf: [r: 0.000°, t: (229.617, 68.606)]</title>
</use>
<use transform="translate(79.787025 26.294107), rotate(-180)" xlink:href="#item_15">
<title>item, id: 15, transf: [r: -180.000°, t: (79.787, 26.294)]</title>
</use>
<use transform="translate(0.0063204765 60.998764), rotate(0)" xlink:href="#item_15">
<title>item, id: 15, transf: [r: 0.000°, t: (0.006, 60.999)]</title>
</use>
<use transform="translate(229.617 30.227734), rotate(0)" xlink:href="#item_15">
<title>item, id: 15, transf: [r: 0.000°, t: (229.617, 30.228)]</title>
</use>
<use transform="translate(178.32315 50.446655), rotate(-180)" xlink:href="#item_15">
<title>item, id: 15, transf: [r: -180.000°, t: (178.323, 50.447)]</title>
</use>
<use transform="translate(0.0107393265 70.9997), rotate(0)" xlink:href="#item_15">
<title>item, id: 15, transf: [r: 0.000°, t: (0.011, 71.000)]</title>
</use>
<use transform="translate(201.04782 64.31944), rotate(-180)" xlink:href="#item_15">
<title>item, id: 15, transf: [r: -180.000°, t: (201.048, 64.319)]</title>
</use>
<use transform="translate(128.61075 76.999855), rotate(-180)" xlink:href="#item_15">
<title>item, id: 15, transf: [r: -180.000°, t: (128.611, 77.000)]</title>
</use>
<use transform="translate(100.41832 26.68203), rotate(0)" xlink:href="#item_10">
<title>item, id: 10, transf: [r: 0.000°, t: (100.418, 26.682)]</title>
</use>
<use transform="translate(136.36137 40.000313), rotate(0)" xlink:href="#item_12">
<title>item, id: 12, transf: [r: 0.000°, t: (136.361, 40.000)]</title>
</use>
<use transform="translate(38.785015 41.996628), rotate(-180)" xlink:href="#item_12">
<title>item, id: 12, transf: [r: -180.000°, t: (38.785, 41.997)]</title>
</use>
<use transform="translate(234.61461 9.002022), rotate(0)" xlink:href="#item_16">
<title>item, id: 16, transf: [r: 0.000°, t: (234.615, 9.002)]</title>
</use>
<use transform="translate(68.90136 23.703856), rotate(-180)" xlink:href="#item_16">
<title>item, id: 16, transf: [r: -180.000°, t: (68.901, 23.704)]</title>
</use>
<use transform="translate(234.57039 23.002157), rotate(-180)" xlink:href="#item_16">
<title>item, id: 16, transf: [r: -180.000°, t: (234.570, 23.002)]</title>
</use>
<use transform="translate(223.2088 66.3999), rotate(-180)" xlink:href="#item_16">
<title>item, id: 16, transf: [r: -180.000°, t: (223.209, 66.400)]</title>
</use>
</g>
<g id="quality_zones"/>
<g id="optionals">
<g id="overlap_lines" transform="translate(0 0), rotate(0)"/>
</g>
<text font-family="monospace" font-size="1.975" font-weight="500" x="0" y="-0.9875">
height: 79.000 | width: 237.618 | usage: 91.661% | final_bench_77
</text>
</svg>