<svg viewBox="-11.900237 -3.950001 261.80515 86.90001" xmlns="http://www.w3.org/2000/svg" xmlns:xlink="http://www.w3.org/1999/xlink">
<g id="bin_0">
<path d="M0,0 L238.00468,0 L238.00468,79 L0,79 z" fill="#D3D3D3" stroke="black" stroke-width="0.43450004"/>
<title>bin, id: 0, bbox: [x_min: 0.000, y_min: 0.000, x_max: 238.005, y_max: 79.000]</title>
</g>
<g id="items">
<defs>
<g id="item_0">
<path d="M0,0 L12,-1 L14,-3.0000005 L24,0 L33,1 L59,2 L59,13 L4,13 L4,8 L2,5 L0,5 z" fill="#7A7A7A" fill-opacity="0.5" fill-rule="nonzero" stroke="black" stroke-width="0.21725002"/>
</g>
<g id="item_1">
<path d="M0,0 L0,-14 L27,-17 L37,-20 L41,-22 L47,-19 L56,-16 L56,0 z" fill="#7A7A7A" fill-opacity="0.5" fill-rule="nonzero" stroke="black" stroke-width="0.21725002"/>
</g>
<g id="item_2">
<path d="M0,0 L57,0 L57,5 L0,5 z" fill="#7A7A7A" fill-opacity="0.5" fill-rule="nonzero" stroke="black" stroke-width="0.21725002"/>
</g>
<g id="item_3">
<path d="M0,0 L52,0 L52,5 L0,5 z" fill="#7A7A7A" fill-opacity="0.5" fill-rule="nonzero" stroke="black" stroke-width="0.21725002"/>
</g>
<g id="item_4">
<path d="M0,0 L44,0 L44,5 L0,5 z" fill="#7A7A7A" fill-opacity="0.5" fill-rule="nonzero" stroke="black" stroke-width="0.21725002"/>
</g>
<g id="item_5">
<path d="M0,0 L42,0 L42,5 L0,5 z" fill="#7A7A7A" fill-opacity="0.5" fill-rule="nonzero" stroke="black" stroke-width="0.21725002"/>
</g>
<g id="item_6">
<path d="M0,0 L21,0 L21,2 L0,2 z" fill="#7A7A7A" fill-opacity="0.5" fill-rule="nonzero" stroke="black" stroke-width="0.21725002"/>
</g>
<g id="item_7">
<path d="M0,0 L15,4 L13,7 L0,6 z" fill="#7A7A7A" fill-opacity="0.5" fill-rule="nonzero" stroke="black" stroke-width="0.21725002"/>
</g>
<g id="item_8">
<path d="M0,0 L15,1 L15,4 L0,4 z" fill="#7A7A7A" fill-opacity="0.5" fill-rule="nonzero" stroke="black" stroke-width="0.21725002"/>
</g>
<g id="item_9">
<path d="M0,0 L14,0 L14,5 L0,5 z" fill="#7A7A7A" fill-opacity="0.5" fill-rule="nonzero" stroke="black" stroke-width="0.21725002"/>
</g>
<g id="item_10">
<path d="M0,0 L14,1 L14,4 L0,4 z" fill="#7A7A7A" fill-opacity="0.5" fill-rule="nonzero" stroke="black" stroke-width="0.21725002"/>
</g>
<g id="item_11">
<path d="M0,0 L13,0 L13,5 L0,5 z" fill="#7A7A7A" fill-opacity="0.5" fill-rule="nonzero" stroke="black" stroke-width="0.21725002"/>
</g>
<g id="item_12">
<path d="M0,0 L13,1 L13,4 L0,4 z" fill="#7A7A7A" fill-opacity="0.5" fill-rule="nonzero" stroke="black" stroke-width="0.21725002"/>
</g>
<g id="item_13">
<path d="M0,0 L12,0 L12,5 L0,5 z" fill="#7A7A7A" fill-opacity="0.5" fill-rule="nonzero" stroke="black" stroke-width="0.21725002"/>
</g>
<g id="item_14">
<path d="M0,0 L4,2 L6,10 L4,11 L-4,11 L-6,10 L-4,2 z" fill="#7A7A7A" fill-opacity="0.5" fill-rule="nonzero" stroke="black" stroke-width="0.21725002"/>
</g>
<g id="item_15">
<path d="M0,0 L3,-2 L8,0 L8,8 L2,8 z" fill="#7A7A7A" fill-opacity="0.5" fill-rule="nonzero" stroke="black" stroke-width="0.21725002"/>
</g>
<g id="item_16">
<path d="M0,0 L2,1 L3,6 L2,7 L-2,7 L-3,6 L-2,1 z" fill="#7A7A7A" fill-opacity="0.5" fill-rule="nonzero" stroke="black" stroke-width="0.21725002"/>
</g>
</defs>
<use transform="translate(56.000217 0.000289917), rotate(-180)" xlink:href="#item_1">
<title>item, id: 1, transf: [r: -180.000°, t: (56.000, 0.000)]</title>
</use>
<use transform="translate(226.29141 21.041643), rotate(-180)" xlink:href="#item_1">
<title>item, id: 1, transf: [r: -180.000°, t: (226.291, 21.042)]</title>
</use>
<use transform="translate(125.997696 73.99902), rotate(0)" xlink:href="#item_1">
<title>item, id: 1, transf: [r: 0.000°, t: (125.998, 73.999)]</title>
</use>
<use transform="translate(171.39798 37.50844), rotate(-180)" xlink:href="#item_1">
<title>item, id: 1, transf: [r: -180.000°, t: (171.398, 37.508)]</title>
</use>
<use transform="translate(171.00078 0.0052671432), rotate(-180)" xlink:href="#item_1">
<title>item, id: 1, transf: [r: -180.000°, t: (171.001, 0.005)]</title>
</use>
<use transform="translate(56.000015 38.40966), rotate(-180)" xlink:href="#item_1">
<title>item, id: 1, transf: [r: -180.000°, t: (56.000, 38.410)]</title>
</use>
<use transform="translate(181.99977 71.99301), rotate(0)" xlink:href="#item_1">
<title>item, id: 1, transf: [r: 0.000°, t: (182.000, 71.993)]</title>
</use>
<use transform="translate(0.011608124 38.358795), rotate(0)" xlink:href="#item_1">
<title>item, id: 1, transf: [r: 0.000°, t: (0.012, 38.359)]</title>
</use>
<use transform="translate(171.00374 8.040714), rotate(0)" xlink:href="#item_0">
<title>item, id: 0, transf: [r: 0.000°, t: (171.004, 8.041)]</title>
</use>
<use transform="translate(115.718796 64.06154), rotate(-180)" xlink:href="#item_0">
<title>item, id: 0, transf: [r: -180.000°, t: (115.719, 64.062)]</title>
</use>
<use transform="translate(111.29134 24.50373), rotate(0)" xlink:href="#item_0">
<title>item, id: 0, transf: [r: 0.000°, t: (111.291, 24.504)]</title>
</use>
<use transform="translate(115.00039 13.012171), rotate(-180)" xlink:href="#item_0">
<title>item, id: 0, transf: [r: -180.000°, t: (115.000, 13.012)]</title>
</use>
<use transform="translate(52.280426 14.414759), rotate(0)" xlink:href="#item_0">
<title>item, id: 0, transf: [r: 0.000°, t: (52.280, 14.415)]</title>
</use>
<use transform="translate(66.99127 65.997215), rotate(0)" xlink:href="#item_0">
<title>item, id: 0, transf: [r: 0.000°, t: (66.991, 65.997)]</title>
</use>
<use transform="translate(115.03569 40.415962), rotate(-180)" xlink:href="#item_0">
<title>item, id: 0, transf: [r: -180.000°, t: (115.036, 40.416)]</title>
</use>
<use transform="translate(7.9800816 60.995594), rotate(0)" xlink:href="#item_0">
<title>item, id: 0, transf: [r: 0.000°, t: (7.980, 60.996)]</title>
</use>
<use transform="translate(173.06299 0.03838229), rotate(0)" xlink:href="#item_2">
<title>item, id: 2, transf: [r: 0.000°, t: (173.063, 0.038)]</title>
</use>
<use transform="translate(178.38947 78.9993), rotate(-180)" xlink:href="#item_3">
<title>item, id: 3, transf: [r: -180.000°, t: (178.389, 78.999)]</title>
</use>
<use transform="translate(70.68783 78.9987), rotate(-180)" xlink:href="#item_4">
<title>item, id: 4, transf: [r: -180.000°, t: (70.688, 78.999)]</title>
</use>
<use transform="translate(196.00424 73.99993), rotate(0)" xlink:href="#item_5">
<title>item, id: 5, transf: [r: 0.000°, t: (196.004, 74.000)]</title>
</use>
<use transform="translate(67.82274 50.030716), rotate(-180)" xlink:href="#item_14">
<title>item, id: 14, transf: [r: -180.000°, t: (67.823, 50.031)]</title>
</use>
<use transform="translate(192.38066 45.375847), rotate(0)" xlink:href="#item_14">
<title>item, id: 14, transf: [r: 0.000°, t: (192.381, 45.376)]</title>
</use>
<use transform="translate(182.33492 57.45381), rotate(-180)" xlink:href="#item_14">
<title>item, id: 14, transf: [r: -180.000°, t: (182.335, 57.454)]</title>
</use>
<use transform="translate(215.62811 47.67496), rotate(-180)" xlink:href="#item_14">
<title>item, id: 14, transf: [r: -180.000°, t: (215.628, 47.675)]</title>
</use>
<use transform="translate(163.86531 14.858072), rotate(0)" xlink:href="#item_14">
<title>item, id: 14, transf: [r: 0.000°, t: (163.865, 14.858)]</title>
</use>
<use transform="translate(232.00331 26.212782), rotate(0)" xlink:href="#item_14">
<title>item, id: 14, transf: [r: 0.000°, t: (232.003, 26.213)]</title>
</use>
<use transform="translate(225.5546 35.98913), rotate(0)" xlink:href="#item_14">
<title>item, id: 14, transf: [r: 0.000°, t: (225.555, 35.989)]</title>
</use>
<use transform="translate(6.2227774 67.98207), rotate(0)" xlink:href="#item_14">
<title>item, id: 14, transf: [r: 0.000°, t: (6.223, 67.982)]</title>
</use>
<use transform="translate(42.706596 57.059174), rotate(0)" xlink:href="#item_9">
<title>item, id: 9, transf: [r: 0.000°, t: (42.707, 57.059)]</title>
</use>
<use transform="translate(89.105354 42.04739), rotate(0)" xlink:href="#item_7">
<title>item, id: 7, transf: [r: 0.000°, t: (89.105, 42.047)]</title>
</use>
<use transform="translate(89.103 46.244427), rotate(-180)" xlink:href="#item_7">
<title>item, id: 7, transf: [r: -180.000°, t: (89.103, 46.244)]</title>
</use>
<use transform="translate(238.00461 53.995155), rotate(-180)" xlink:href="#item_7">
<title>item, id: 7, transf: [r: -180.000°, t: (238.005, 53.995)]</title>
</use>
<use transform="translate(171.40823 39.38113), rotate(0)" xlink:href="#item_7">
<title>item, id: 7, transf: [r: 0.000°, t: (171.408, 39.381)]</title>
</use>
<use transform="translate(138.23624 18.769842), rotate(0)" xlink:href="#item_7">
<title>item, id: 7, transf: [r: 0.000°, t: (138.236, 18.770)]</title>
</use>
<use transform="translate(115.39718 49.05519), rotate(-180)" xlink:href="#item_7">
<title>item, id: 7, transf: [r: -180.000°, t: (115.397, 49.055)]</title>
</use>
<use transform="translate(157.88725 23.975224), rotate(-180)" xlink:href="#item_7">
<title>item, id: 7, transf: [r: -180.000°, t: (157.887, 23.975)]</title>
</use>
<use transform="translate(73.32343 42.03737), rotate(0)" xlink:href="#item_7">
<title>item, id: 7, transf: [r: 0.000°, t: (73.323, 42.037)]</title>
</use>
<use transform="translate(26.039034 78.99908), rotate(-180)" xlink:href="#item_11">
<title>item, id: 11, transf: [r: -180.000°, t: (26.039, 78.999)]</title>
</use>
<use transform="translate(208.52826 7.0438833), rotate(0)" xlink:href="#item_6">
<title>item, id: 6, transf: [r: 0.000°, t: (208.528, 7.044)]</title>
</use>
<use transform="translate(125.1969 67.157814), rotate(-180)" xlink:href="#item_6">
<title>item, id: 6, transf: [r: -180.000°, t: (125.197, 67.158)]</title>
</use>
<use transform="translate(210.19128 5.04189), rotate(0)" xlink:href="#item_6">
<title>item, id: 6, transf: [r: 0.000°, t: (210.191, 5.042)]</title>
</use>
<use transform="translate(217.00235 73.99365), rotate(-180)" xlink:href="#item_6">
<title>item, id: 6, transf: [r: -180.000°, t: (217.002, 73.994)]</title>
</use>
<use transform="translate(56.27898 56.71203), rotate(-180)" xlink:href="#item_6">
<title>item, id: 6, transf: [r: -180.000°, t: (56.279, 56.712)]</title>
</use>
<use transform="translate(217.0042 71.99477), rotate(0)" xlink:href="#item_6">
<title>item, id: 6, transf: [r: 0.000°, t: (217.004, 71.995)]</title>
</use>
<use transform="translate(90.901474 51.03843), rotate(-180)" xlink:href="#item_6">
<title>item, id: 6, transf: [r: -180.000°, t: (90.901, 51.038)]</title>
</use>
<use transform="translate(115.35689 51.061443), rotate(-180)" xlink:href="#item_6">
<title>item, id: 6, transf: [r: -180.000°, t: (115.357, 51.061)]</title>
</use>
<use transform="translate(179.33621 74.99128), rotate(0)" xlink:href="#item_8">
<title>item, id: 8, transf: [r: 0.000°, t: (179.336, 74.991)]</title>
</use>
<use transform="translate(204.37677 47.77868), rotate(0)" xlink:href="#item_13">
<title>item, id: 13, transf: [r: 0.000°, t: (204.377, 47.779)]</title>
</use>
<use transform="translate(203.64822 45.337795), rotate(-180)" xlink:href="#item_13">
<title>item, id: 13, transf: [r: -180.000°, t: (203.648, 45.338)]</title>
</use>
<use transform="translate(64.04156 48.9164), rotate(-180)" xlink:href="#item_15">
<title>item, id: 15, transf: [r: -180.000°, t: (64.042, 48.916)]</title>
</use>
<use transform="translate(211.65117 45.775497), rotate(-180)" xlink:href="#item_15">
<title>item, id: 15, transf: [r: -180.000°, t: (211.651, 45.775)]</title>
</use>
<use transform="translate(8.076752 66.547386), rotate(-180)" xlink:href="#item_15">
<title>item, id: 15, transf: [r: -180.000°, t: (8.077, 66.547)]</title>
</use>
<use transform="translate(196.37291 47.33939), rotate(0)" xlink:href="#item_15">
<title>item, id: 15, transf: [r: 0.000°, t: (196.373, 47.339)]</title>
</use>
<use transform="translate(115.98435 57.093365), rotate(0)" xlink:href="#item_15">
<title>item, id: 15, transf: [r: 0.000°, t: (115.984, 57.093)]</title>
</use>
<use transform="translate(229.54637 8.1710415), rotate(0)" xlink:href="#item_15">
<title>item, id: 15, transf: [r: 0.000°, t: (229.546, 8.171)]</title>
</use>
<use transform="translate(230.00279 39.447956), rotate(0)" xlink:href="#item_15">
<title>item, id: 15, transf: [r: 0.000°, t: (230.003, 39.448)]</title>
</use>
<use transform="translate(230.00461 18.17946), rotate(0)" xlink:href="#item_15">
<title>item, id: 15, transf: [r: 0.000°, t: (230.005, 18.179)]</title>
</use>
<use transform="translate(196.00157 75.99899), rotate(-180)" xlink:href="#item_10">
<title>item, id: 10, transf: [r: -180.000°, t: (196.002, 75.999)]</title>
</use>
<use transform="translate(208.5237 9.080903), rotate(-180)" xlink:href="#item_12">
<title>item, id: 12, transf: [r: -180.000°, t: (208.524, 9.081)]</title>
</use>
<use transform="translate(41.344574 60.887596), rotate(-180)" xlink:href="#item_12">
<title>item, id: 12, transf: [r: -180.000°, t: (41.345, 60.888)]</title>
</use>
<use transform="translate(114.72207 16.813509), rotate(0)" xlink:href="#item_16">
<title>item, id: 16, transf: [r: 0.000°, t: (114.722, 16.814)]</title>
</use>
<use transform="translate(234.8785 7.1032534), rotate(-180)" xlink:href="#item_16">
<title>item, id: 16, transf: [r: -180.000°, t: (234.878, 7.103)]</title>
</use>
<use transform="translate(174.47546 47.58336), rotate(0)" xlink:href="#item_16">
<title>item, id: 16, transf: [r: 0.000°, t: (174.475, 47.583)]</title>
</use>
<use transform="translate(171.58133 13.722104), rotate(0)" xlink:href="#item_16">
<title>item, id: 16, transf: [r: 0.000°, t: (171.581, 13.722)]</title>
</use>
</g>
<g id="quality_zones"/>
<g id="optionals">
<g id="overlap_lines" transform="translate(0 0), rotate(0)"/>
</g>
<text font-family="monospace" font-size="1.975" font-weight="500" x="0" y="-0.9875">
height: 79.000 | width: 238.005 | usage: 91.512% | final_bench_73
</text>
</svg>