<svg viewBox="-11.896872 -3.950001 261.7311 86.90001" xmlns="http://www.w3.org/2000/svg" xmlns:xlink="http://www.w3.org/1999/xlink">
<g id="bin_0">
<path d="M0,0 L237.93738,0 L237.93738,79 L0,79 z" fill="#D3D3D3" stroke="black" stroke-width="0.43450004"/>
<title>bin, id: 0, bbox: [x_min: 0.000, y_min: 0.000, x_max: 237.937, y_max: 79.000]</title>
</g>
<g id="items">
<defs>
<g id="item_0">
<path d="M0,0 L12,-1 L14,-3.0000005 L24,0 L33,1 L59,2 L59,13 L4,13 L4,8 L2,5 L0,5 z" fill="#7A7A7A" fill-opacity="0.5" fill-rule="nonzero" stroke="black" stroke-width="0.21725002"/>
</g>
<g id="item_1">
<path d="M0,0 L0,-14 L27,-17 L37,-20 L41,-22 L47,-19 L56,-16 L56,0 z" fill="#7A7A7A" fill-opacity="0.5" fill-rule="nonzero" stroke="black" stroke-width="0.21725002"/>
</g>
<g id="item_2">
<path d="M0,0 L57,0 L57,5 L0,5 z" fill="#7A7A7A" fill-opacity="0.5" fill-rule="nonzero" stroke="black" stroke-width="0.21725002"/>
</g>
<g id="item_3">
<path d="M0,0 L52,0 L52,5 L0,5 z" fill="#7A7A7A" fill-opacity="0.5" fill-rule="nonzero" stroke="black" stroke-width="0.21725002"/>
</g>
<g id="item_4">
<path d="M0,0 L44,0 L44,5 L0,5 z" fill="#7A7A7A" fill-opacity="0.5" fill-rule="nonzero" stroke="black" stroke-width="0.21725002"/>
</g>
<g id="item_5">
<path d="M0,0 L42,0 L42,5 L0,5 z" fill="#7A7A7A" fill-opacity="0.5" fill-rule="nonzero" stroke="black" stroke-width="0.21725002"/>
</g>
<g id="item_6">
<path d="M0,0 L21,0 L21,2 L0,2 z" fill="#7A7A7A" fill-opacity="0.5" fill-rule="nonzero" stroke="black" stroke-width="0.21725002"/>
</g>
<g id="item_7">
<path d="M0,0 L15,4 L13,7 L0,6 z" fill="#7A7A7A" fill-opacity="0.5" fill-rule="nonzero" stroke="black" stroke-width="0.21725002"/>
</g>
<g id="item_8">
<path d="M0,0 L15,1 L15,4 L0,4 z" fill="#7A7A7A" fill-opacity="0.5" fill-rule="nonzero" stroke="black" stroke-width="0.21725002"/>
</g>
<g id="item_9">
<path d="M0,0 L14,0 L14,5 L0,5 z" fill="#7A7A7A" fill-opacity="0.5" fill-rule="nonzero" stroke="black" stroke-width="0.21725002"/>
</g>
<g id="item_10">
<path d="M0,0 L14,1 L14,4 L0,4 z" fill="#7A7A7A" fill-opacity="0.5" fill-rule="nonzero" stroke="black" stroke-width="0.21725002"/>
</g>
<g id="item_11">
<path d="M0,0 L13,0 L13,5 L0,5 z" fill="#7A7A7A" fill-opacity="0.5" fill-rule="nonzero" stroke="black" stroke-width="0.21725002"/>
</g>
<g id="item_12">
<path d="M0,0 L13,1 L13,4 L0,4 z" fill="#7A7A7A" fill-opacity="0.5" fill-rule="nonzero" stroke="black" stroke-width="0.21725002"/>
</g>
<g id="item_13">
<path d="M0,0 L12,0 L12,5 L0,5 z" fill="#7A7A7A" fill-opacity="0.5" fill-rule="nonzero" stroke="black" stroke-width="0.21725002"/>
</g>
<g id="item_14">
<path d="M0,0 L4,2 L6,10 L4,11 L-4,11 L-6,10 L-4,2 z" fill="#7A7A7A" fill-opacity="0.5" fill-rule="nonzero" stroke="black" stroke-width="0.21725002"/>
</g>
<g id="item_15">
<path d="M0,0 L3,-2 L8,0 L8,8 L2,8 z" fill="#7A7A7A" fill-opacity="0.5" fill-rule="nonzero" stroke="black" stroke-width="0.21725002"/>
</g>
<g id="item_16">
<path d="M0,0 L2,1 L3,6 L2,7 L-2,7 L-3,6 L-2,1 z" fill="#7A7A7A" fill-opacity="0.5" fill-rule="nonzero" stroke="black" stroke-width="0.21725002"/>
</g>
</defs>
<use transform="translate(0.018276215 37.82746), rotate(0)" xlink:href="#item_1">
<title>item, id: 1, transf: [r: 0.000°, t: (0.018, 37.827)]</title>
</use>
<use transform="translate(70.58032 73.98932), rotate(0)" xlink:href="#item_1">
<title>item, id: 1, transf: [r: 0.000°, t: (70.580, 73.989)]</title>
</use>
<use transform="translate(237.92668 39.701347), rotate(-180)" xlink:href="#item_1">
<title>item, id: 1, transf: [r: -180.000°, t: (237.927, 39.701)]</title>
</use>
<use transform="translate(168.93732 78.99922), rotate(0)" xlink:href="#item_1">
<title>item, id: 1, transf: [r: 0.000°, t: (168.937, 78.999)]</title>
</use>
<use transform="translate(14.573673 73.99466), rotate(0)" xlink:href="#item_1">
<title>item, id: 1, transf: [r: 0.000°, t: (14.574, 73.995)]</title>
</use>
<use transform="translate(181.93697 39.695667), rotate(0)" xlink:href="#item_1">
<title>item, id: 1, transf: [r: 0.000°, t: (181.937, 39.696)]</title>
</use>
<use transform="translate(56.046513 37.828896), rotate(-180)" xlink:href="#item_1">
<title>item, id: 1, transf: [r: -180.000°, t: (56.047, 37.829)]</title>
</use>
<use transform="translate(56.05409 38.459892), rotate(0)" xlink:href="#item_1">
<title>item, id: 1, transf: [r: 0.000°, t: (56.054, 38.460)]</title>
</use>
<use transform="translate(178.93239 13.0007515), rotate(-180)" xlink:href="#item_0">
<title>item, id: 0, transf: [r: -180.000°, t: (178.932, 13.001)]</title>
</use>
<use transform="translate(122.87051 49.628128), rotate(0)" xlink:href="#item_0">
<title>item, id: 0, transf: [r: 0.000°, t: (122.871, 49.628)]</title>
</use>
<use transform="translate(173.50894 46.90126), rotate(-180)" xlink:href="#item_0">
<title>item, id: 0, transf: [r: -180.000°, t: (173.509, 46.901)]</title>
</use>
<use transform="translate(119.91914 13.000729), rotate(-180)" xlink:href="#item_0">
<title>item, id: 0, transf: [r: -180.000°, t: (119.919, 13.001)]</title>
</use>
<use transform="translate(117.278564 51.460587), rotate(-180)" xlink:href="#item_0">
<title>item, id: 0, transf: [r: -180.000°, t: (117.279, 51.461)]</title>
</use>
<use transform="translate(237.93704 13.000774), rotate(-180)" xlink:href="#item_0">
<title>item, id: 0, transf: [r: -180.000°, t: (237.937, 13.001)]</title>
</use>
<use transform="translate(59.000397 13.000657), rotate(-180)" xlink:href="#item_0">
<title>item, id: 0, transf: [r: -180.000°, t: (59.000, 13.001)]</title>
</use>
<use transform="translate(108.93632 15.778801), rotate(0)" xlink:href="#item_0">
<title>item, id: 0, transf: [r: 0.000°, t: (108.936, 15.779)]</title>
</use>
<use transform="translate(67.679474 78.99747), rotate(-180)" xlink:href="#item_2">
<title>item, id: 2, transf: [r: -180.000°, t: (67.679, 78.997)]</title>
</use>
<use transform="translate(67.700356 73.99568), rotate(0)" xlink:href="#item_3">
<title>item, id: 3, transf: [r: 0.000°, t: (67.700, 73.996)]</title>
</use>
<use transform="translate(156.05629 33.901234), rotate(-180)" xlink:href="#item_4">
<title>item, id: 4, transf: [r: -180.000°, t: (156.056, 33.901)]</title>
</use>
<use transform="translate(119.700455 73.99999), rotate(0)" xlink:href="#item_5">
<title>item, id: 5, transf: [r: 0.000°, t: (119.700, 74.000)]</title>
</use>
<use transform="translate(230.93771 62.994797), rotate(0)" xlink:href="#item_14">
<title>item, id: 14, transf: [r: 0.000°, t: (230.938, 62.995)]</title>
</use>
<use transform="translate(64.924675 23.29984), rotate(-180)" xlink:href="#item_14">
<title>item, id: 14, transf: [r: -180.000°, t: (64.925, 23.300)]</title>
</use>
<use transform="translate(185.68254 22.423208), rotate(-180)" xlink:href="#item_14">
<title>item, id: 14, transf: [r: -180.000°, t: (185.683, 22.423)]</title>
</use>
<use transform="translate(132.5808 62.990257), rotate(0)" xlink:href="#item_14">
<title>item, id: 14, transf: [r: 0.000°, t: (132.581, 62.990)]</title>
</use>
<use transform="translate(142.24835 73.65087), rotate(-180)" xlink:href="#item_14">
<title>item, id: 14, transf: [r: -180.000°, t: (142.248, 73.651)]</title>
</use>
<use transform="translate(195.09793 12.780308), rotate(0)" xlink:href="#item_14">
<title>item, id: 14, transf: [r: 0.000°, t: (195.098, 12.780)]</title>
</use>
<use transform="translate(6.01116 78.604904), rotate(-180)" xlink:href="#item_14">
<title>item, id: 14, transf: [r: -180.000°, t: (6.011, 78.605)]</title>
</use>
<use transform="translate(175.72879 42.956726), rotate(-180)" xlink:href="#item_14">
<title>item, id: 14, transf: [r: -180.000°, t: (175.729, 42.957)]</title>
</use>
<use transform="translate(146.93523 68.98999), rotate(0)" xlink:href="#item_9">
<title>item, id: 9, transf: [r: 0.000°, t: (146.935, 68.990)]</title>
</use>
<use transform="translate(180.31076 20.972214), rotate(-180)" xlink:href="#item_7">
<title>item, id: 7, transf: [r: -180.000°, t: (180.311, 20.972)]</title>
</use>
<use transform="translate(168.54382 17.855087), rotate(0)" xlink:href="#item_7">
<title>item, id: 7, transf: [r: 0.000°, t: (168.544, 17.855)]</title>
</use>
<use transform="translate(33.60829 18.845987), rotate(-180)" xlink:href="#item_7">
<title>item, id: 7, transf: [r: -180.000°, t: (33.608, 18.846)]</title>
</use>
<use transform="translate(14.251694 13.724436), rotate(0)" xlink:href="#item_7">
<title>item, id: 7, transf: [r: 0.000°, t: (14.252, 13.724)]</title>
</use>
<use transform="translate(229.39937 63.230026), rotate(-180)" xlink:href="#item_7">
<title>item, id: 7, transf: [r: -180.000°, t: (229.399, 63.230)]</title>
</use>
<use transform="translate(206.88217 12.217352), rotate(0)" xlink:href="#item_7">
<title>item, id: 7, transf: [r: 0.000°, t: (206.882, 12.217)]</title>
</use>
<use transform="translate(77.350426 59.229393), rotate(-180)" xlink:href="#item_7">
<title>item, id: 7, transf: [r: -180.000°, t: (77.350, 59.229)]</title>
</use>
<use transform="translate(59.45868 21.545176), rotate(-180)" xlink:href="#item_7">
<title>item, id: 7, transf: [r: -180.000°, t: (59.459, 21.545)]</title>
</use>
<use transform="translate(237.93735 78.99924), rotate(-180)" xlink:href="#item_11">
<title>item, id: 11, transf: [r: -180.000°, t: (237.937, 78.999)]</title>
</use>
<use transform="translate(181.73734 50.71113), rotate(-180)" xlink:href="#item_6">
<title>item, id: 6, transf: [r: -180.000°, t: (181.737, 50.711)]</title>
</use>
<use transform="translate(128.30013 12.379481), rotate(0)" xlink:href="#item_6">
<title>item, id: 6, transf: [r: 0.000°, t: (128.300, 12.379)]</title>
</use>
<use transform="translate(77.62596 52.222546), rotate(-180)" xlink:href="#item_6">
<title>item, id: 6, transf: [r: -180.000°, t: (77.626, 52.223)]</title>
</use>
<use transform="translate(168.44003 68.94047), rotate(-180)" xlink:href="#item_6">
<title>item, id: 6, transf: [r: -180.000°, t: (168.440, 68.940)]</title>
</use>
<use transform="translate(149.02846 62.877785), rotate(0)" xlink:href="#item_6">
<title>item, id: 6, transf: [r: 0.000°, t: (149.028, 62.878)]</title>
</use>
<use transform="translate(138.35916 14.37949), rotate(0)" xlink:href="#item_6">
<title>item, id: 6, transf: [r: 0.000°, t: (138.359, 14.379)]</title>
</use>
<use transform="translate(147.93684 64.939156), rotate(0)" xlink:href="#item_6">
<title>item, id: 6, transf: [r: 0.000°, t: (147.937, 64.939)]</title>
</use>
<use transform="translate(98.68723 56.649937), rotate(-180)" xlink:href="#item_6">
<title>item, id: 6, transf: [r: -180.000°, t: (98.687, 56.650)]</title>
</use>
<use transform="translate(77.630165 50.392044), rotate(0)" xlink:href="#item_8">
<title>item, id: 8, transf: [r: 0.000°, t: (77.630, 50.392)]</title>
</use>
<use transform="translate(156.33992 28.895638), rotate(0)" xlink:href="#item_13">
<title>item, id: 13, transf: [r: 0.000°, t: (156.340, 28.896)]</title>
</use>
<use transform="translate(82.317955 12.824671), rotate(0)" xlink:href="#item_13">
<title>item, id: 13, transf: [r: 0.000°, t: (82.318, 12.825)]</title>
</use>
<use transform="translate(8.053976 65.59375), rotate(-180)" xlink:href="#item_15">
<title>item, id: 15, transf: [r: -180.000°, t: (8.054, 65.594)]</title>
</use>
<use transform="translate(8.000177 21.23848), rotate(-180)" xlink:href="#item_15">
<title>item, id: 15, transf: [r: -180.000°, t: (8.000, 21.238)]</title>
</use>
<use transform="translate(6.0290556 13.348963), rotate(0)" xlink:href="#item_15">
<title>item, id: 15, transf: [r: 0.000°, t: (6.029, 13.349)]</title>
</use>
<use transform="translate(237.93578 62.59369), rotate(-180)" xlink:href="#item_15">
<title>item, id: 15, transf: [r: -180.000°, t: (237.936, 62.594)]</title>
</use>
<use transform="translate(6.5708675 59.595108), rotate(0)" xlink:href="#item_15">
<title>item, id: 15, transf: [r: 0.000°, t: (6.571, 59.595)]</title>
</use>
<use transform="translate(82.81516 19.814388), rotate(-180)" xlink:href="#item_15">
<title>item, id: 15, transf: [r: -180.000°, t: (82.815, 19.814)]</title>
</use>
<use transform="translate(198.87955 13.897182), rotate(0)" xlink:href="#item_15">
<title>item, id: 15, transf: [r: 0.000°, t: (198.880, 13.897)]</title>
</use>
<use transform="translate(160.93634 70.941154), rotate(0)" xlink:href="#item_15">
<title>item, id: 15, transf: [r: 0.000°, t: (160.936, 70.941)]</title>
</use>
<use transform="translate(167.93686 24.091831), rotate(0)" xlink:href="#item_10">
<title>item, id: 10, transf: [r: 0.000°, t: (167.937, 24.092)]</title>
</use>
<use transform="translate(181.93124 32.09201), rotate(-180)" xlink:href="#item_12">
<title>item, id: 12, transf: [r: -180.000°, t: (181.931, 32.092)]</title>
</use>
<use transform="translate(117.28957 45.00833), rotate(0)" xlink:href="#item_12">
<title>item, id: 12, transf: [r: 0.000°, t: (117.290, 45.008)]</title>
</use>
<use transform="translate(72.138954 15.447963), rotate(0)" xlink:href="#item_16">
<title>item, id: 16, transf: [r: 0.000°, t: (72.139, 15.448)]</title>
</use>
<use transform="translate(234.93132 13.3901415), rotate(0)" xlink:href="#item_16">
<title>item, id: 16, transf: [r: 0.000°, t: (234.931, 13.390)]</title>
</use>
<use transform="translate(178.75464 41.70578), rotate(0)" xlink:href="#item_16">
<title>item, id: 16, transf: [r: 0.000°, t: (178.755, 41.706)]</title>
</use>
<use transform="translate(229.4943 20.871264), rotate(-180)" xlink:href="#item_16">
<title>item, id: 16, transf: [r: -180.000°, t: (229.494, 20.871)]</title>
</use>
</g>
<g id="quality_zones"/>
<g id="optionals">
<g id="overlap_lines" transform="translate(0 0), rotate(0)"/>
</g>
<text font-family="monospace" font-size="1.975" font-weight="500" x="0" y="-0.9875">
height: 79.000 | width: 237.937 | usage: 91.538% | final_bench_48
</text>
</svg>