<svg viewBox="-11.845713 -3.950001 260.60562 86.90001" xmlns="http://www.w3.org/2000/svg" xmlns:xlink="http://www.w3.org/1999/xlink">
<g id="bin_0">
<path d="M0,0 L236.9142,0 L236.9142,79 L0,79 z" fill="#D3D3D3" stroke="black" stroke-width="0.43450004"/>
<title>bin, id: 0, bbox: [x_min: 0.000, y_min: 0.000, x_max: 236.914, y_max: 79.000]</title>
</g>
<g id="items">
<defs>
<g id="item_0">
<path d="M0,0 L12,-1 L14,-3.0000005 L24,0 L33,1 L59,2 L59,13 L4,13 L4,8 L2,5 L0,5 z" fill="#7A7A7A" fill-opacity="0.5" fill-rule="nonzero" stroke="black" stroke-width="0.21725002"/>
</g>
<g id="item_1">
<path d="M0,0 L0,-14 L27,-17 L37,-20 L41,-22 L47,-19 L56,-16 L56,0 z" fill="#7A7A7A" fill-opacity="0.5" fill-rule="nonzero" stroke="black" stroke-width="0.21725002"/>
</g>
<g id="item_2">
<path d="M0,0 L57,0 L57,5 L0,5 z" fill="#7A7A7A" fill-opacity="0.5" fill-rule="nonzero" stroke="black" stroke-width="0.21725002"/>
</g>
<g id="item_3">
<path d="M0,0 L52,0 L52,5 L0,5 z" fill="#7A7A7A" fill-opacity="0.5" fill-rule="nonzero" stroke="black" stroke-width="0.21725002"/>
</g>
<g id="item_4">
<path d="M0,0 L44,0 L44,5 L0,5 z" fill="#7A7A7A" fill-opacity="0.5" fill-rule="nonzero" stroke="black" stroke-width="0.21725002"/>
</g>
<g id="item_5">
<path d="M0,0 L42,0 L42,5 L0,5 z" fill="#7A7A7A" fill-opacity="0.5" fill-rule="nonzero" stroke="black" stroke-width="0.21725002"/>
</g>
<g id="item_6">
<path d="M0,0 L21,0 L21,2 L0,2 z" fill="#7A7A7A" fill-opacity="0.5" fill-rule="nonzero" stroke="black" stroke-width="0.21725002"/>
</g>
<g id="item_7">
<path d="M0,0 L15,4 L13,7 L0,6 z" fill="#7A7A7A" fill-opacity="0.5" fill-rule="nonzero" stroke="black" stroke-width="0.21725002"/>
</g>
<g id="item_8">
<path d="M0,0 L15,1 L15,4 L0,4 z" fill="#7A7A7A" fill-opacity="0.5" fill-rule="nonzero" stroke="black" stroke-width="0.21725002"/>
</g>
<g id="item_9">
<path d="M0,0 L14,0 L14,5 L0,5 z" fill="#7A7A7A" fill-opacity="0.5" fill-rule="nonzero" stroke="black" stroke-width="0.21725002"/>
</g>
<g id="item_10">
<path d="M0,0 L14,1 L14,4 L0,4 z" fill="#7A7A7A" fill-opacity="0.5" fill-rule="nonzero" stroke="black" stroke-width="0.21725002"/>
</g>
<g id="item_11">
<path d="M0,0 L13,0 L13,5 L0,5 z" fill="#7A7A7A" fill-opacity="0.5" fill-rule="nonzero" stroke="black" stroke-width="0.21725002"/>
</g>
<g id="item_12">
<path d="M0,0 L13,1 L13,4 L0,4 z" fill="#7A7A7A" fill-opacity="0.5" fill-rule="nonzero" stroke="black" stroke-width="0.21725002"/>
</g>
<g id="item_13">
<path d="M0,0 L12,0 L12,5 L0,5 z" fill="#7A7A7A" fill-opacity="0.5" fill-rule="nonzero" stroke="black" stroke-width="0.21725002"/>
</g>
<g id="item_14">
<path d="M0,0 L4,2 L6,10 L4,11 L-4,11 L-6,10 L-4,2 z" fill="#7A7A7A" fill-opacity="0.5" fill-rule="nonzero" stroke="black" stroke-width="0.21725002"/>
</g>
<g id="item_15">
<path d="M0,0 L3,-2 L8,0 L8,8 L2,8 z" fill="#7A7A7A" fill-opacity="0.5" fill-rule="nonzero" stroke="black" stroke-width="0.21725002"/>
</g>
<g id="item_16">
<path d="M0,0 L2,1 L3,6 L2,7 L-2,7 L-3,6 L-2,1 z" fill="#7A7A7A" fill-opacity="0.5" fill-rule="nonzero" stroke="black" stroke-width="0.21725002"/>
</g>
</defs>
<use transform="translate(56.00232 42.67227), rotate(-180)" xlink:href="#item_1">
<title>item, id: 1, transf: [r: -180.000°, t: (56.002, 42.672)]</title>
</use>
<use transform="translate(56.00232 5.004347), rotate(-180)" xlink:href="#item_1">
<title>item, id: 1, transf: [r: -180.000°, t: (56.002, 5.004)]</title>
</use>
<use transform="translate(172.91321 35.405308), rotate(0)" xlink:href="#item_1">
<title>item, id: 1, transf: [r: 0.000°, t: (172.913, 35.405)]</title>
</use>
<use transform="translate(0.026166916 42.671566), rotate(0)" xlink:href="#item_1">
<title>item, id: 1, transf: [r: 0.000°, t: (0.026, 42.672)]</title>
</use>
<use transform="translate(112.00358 0.007680893), rotate(-180)" xlink:href="#item_1">
<title>item, id: 1, transf: [r: -180.000°, t: (112.004, 0.008)]</title>
</use>
<use transform="translate(115.11131 51.220417), rotate(0)" xlink:href="#item_1">
<title>item, id: 1, transf: [r: 0.000°, t: (115.111, 51.220)]</title>
</use>
<use transform="translate(180.91417 71.98666), rotate(0)" xlink:href="#item_1">
<title>item, id: 1, transf: [r: 0.000°, t: (180.914, 71.987)]</title>
</use>
<use transform="translate(227.12804 35.40587), rotate(-180)" xlink:href="#item_1">
<title>item, id: 1, transf: [r: -180.000°, t: (227.128, 35.406)]</title>
</use>
<use transform="translate(150.64937 31.655153), rotate(-180)" xlink:href="#item_0">
<title>item, id: 0, transf: [r: -180.000°, t: (150.649, 31.655)]</title>
</use>
<use transform="translate(56.02646 28.962465), rotate(0)" xlink:href="#item_0">
<title>item, id: 0, transf: [r: 0.000°, t: (56.026, 28.962)]</title>
</use>
<use transform="translate(175.06422 64.22056), rotate(-180)" xlink:href="#item_0">
<title>item, id: 0, transf: [r: -180.000°, t: (175.064, 64.221)]</title>
</use>
<use transform="translate(171.00404 15.112432), rotate(-180)" xlink:href="#item_0">
<title>item, id: 0, transf: [r: -180.000°, t: (171.004, 15.112)]</title>
</use>
<use transform="translate(121.91128 65.9929), rotate(0)" xlink:href="#item_0">
<title>item, id: 0, transf: [r: 0.000°, t: (121.911, 65.993)]</title>
</use>
<use transform="translate(62.90892 60.99834), rotate(0)" xlink:href="#item_0">
<title>item, id: 0, transf: [r: 0.000°, t: (62.909, 60.998)]</title>
</use>
<use transform="translate(6.5067806 65.999756), rotate(0)" xlink:href="#item_0">
<title>item, id: 0, transf: [r: 0.000°, t: (6.507, 66.000)]</title>
</use>
<use transform="translate(115.103195 54.962677), rotate(-180)" xlink:href="#item_0">
<title>item, id: 0, transf: [r: -180.000°, t: (115.103, 54.963)]</title>
</use>
<use transform="translate(167.91206 0.00009036064), rotate(0)" xlink:href="#item_2">
<title>item, id: 2, transf: [r: 0.000°, t: (167.912, 0.000)]</title>
</use>
<use transform="translate(118.591095 78.99928), rotate(-180)" xlink:href="#item_3">
<title>item, id: 3, transf: [r: -180.000°, t: (118.591, 78.999)]</title>
</use>
<use transform="translate(224.91199 76.99022), rotate(-180)" xlink:href="#item_4">
<title>item, id: 4, transf: [r: -180.000°, t: (224.912, 76.990)]</title>
</use>
<use transform="translate(42.00225 5.004339), rotate(-180)" xlink:href="#item_5">
<title>item, id: 5, transf: [r: -180.000°, t: (42.002, 5.004)]</title>
</use>
<use transform="translate(187.0012 8.394484), rotate(0)" xlink:href="#item_14">
<title>item, id: 14, transf: [r: 0.000°, t: (187.001, 8.394)]</title>
</use>
<use transform="translate(85.647865 29.231762), rotate(-180)" xlink:href="#item_14">
<title>item, id: 14, transf: [r: -180.000°, t: (85.648, 29.232)]</title>
</use>
<use transform="translate(230.91418 11.001744), rotate(-180)" xlink:href="#item_14">
<title>item, id: 14, transf: [r: -180.000°, t: (230.914, 11.002)]</title>
</use>
<use transform="translate(207.91803 16.002335), rotate(-180)" xlink:href="#item_14">
<title>item, id: 14, transf: [r: -180.000°, t: (207.918, 16.002)]</title>
</use>
<use transform="translate(219.86592 16.375883), rotate(-180)" xlink:href="#item_14">
<title>item, id: 14, transf: [r: -180.000°, t: (219.866, 16.376)]</title>
</use>
<use transform="translate(196.59427 18.76299), rotate(-180)" xlink:href="#item_14">
<title>item, id: 14, transf: [r: -180.000°, t: (196.594, 18.763)]</title>
</use>
<use transform="translate(161.01753 16.111431), rotate(0)" xlink:href="#item_14">
<title>item, id: 14, transf: [r: 0.000°, t: (161.018, 16.111)]</title>
</use>
<use transform="translate(177.04712 20.11533), rotate(-180)" xlink:href="#item_14">
<title>item, id: 14, transf: [r: -180.000°, t: (177.047, 20.115)]</title>
</use>
<use transform="translate(56.00241 5.0027943), rotate(-180)" xlink:href="#item_9">
<title>item, id: 9, transf: [r: -180.000°, t: (56.002, 5.003)]</title>
</use>
<use transform="translate(172.90378 34.113747), rotate(-180)" xlink:href="#item_7">
<title>item, id: 7, transf: [r: -180.000°, t: (172.904, 34.114)]</title>
</use>
<use transform="translate(80.529205 28.762394), rotate(-180)" xlink:href="#item_7">
<title>item, id: 7, transf: [r: -180.000°, t: (80.529, 28.762)]</title>
</use>
<use transform="translate(55.19564 65.207275), rotate(-180)" xlink:href="#item_7">
<title>item, id: 7, transf: [r: -180.000°, t: (55.196, 65.207)]</title>
</use>
<use transform="translate(60.574486 26.94452), rotate(-180)" xlink:href="#item_7">
<title>item, id: 7, transf: [r: -180.000°, t: (60.574, 26.945)]</title>
</use>
<use transform="translate(88.06384 60.691994), rotate(-180)" xlink:href="#item_7">
<title>item, id: 7, transf: [r: -180.000°, t: (88.064, 60.692)]</title>
</use>
<use transform="translate(73.063194 60.117283), rotate(-180)" xlink:href="#item_7">
<title>item, id: 7, transf: [r: -180.000°, t: (73.063, 60.117)]</title>
</use>
<use transform="translate(88.063866 55.120735), rotate(0)" xlink:href="#item_7">
<title>item, id: 7, transf: [r: 0.000°, t: (88.064, 55.121)]</title>
</use>
<use transform="translate(37.211117 60.41143), rotate(0)" xlink:href="#item_7">
<title>item, id: 7, transf: [r: 0.000°, t: (37.211, 60.411)]</title>
</use>
<use transform="translate(103.06391 56.003696), rotate(0)" xlink:href="#item_11">
<title>item, id: 11, transf: [r: 0.000°, t: (103.064, 56.004)]</title>
</use>
<use transform="translate(202.18411 78.998566), rotate(-180)" xlink:href="#item_6">
<title>item, id: 6, transf: [r: -180.000°, t: (202.184, 78.999)]</title>
</use>
<use transform="translate(90.385025 16.599426), rotate(0)" xlink:href="#item_6">
<title>item, id: 6, transf: [r: 0.000°, t: (90.385, 16.599)]</title>
</use>
<use transform="translate(209.31262 76.99852), rotate(0)" xlink:href="#item_6">
<title>item, id: 6, transf: [r: 0.000°, t: (209.313, 76.999)]</title>
</use>
<use transform="translate(132.38507 18.654203), rotate(-180)" xlink:href="#item_6">
<title>item, id: 6, transf: [r: -180.000°, t: (132.385, 18.654)]</title>
</use>
<use transform="translate(180.74481 5.7347736), rotate(0)" xlink:href="#item_6">
<title>item, id: 6, transf: [r: 0.000°, t: (180.745, 5.735)]</title>
</use>
<use transform="translate(133.12532 2.1121817), rotate(-180)" xlink:href="#item_6">
<title>item, id: 6, transf: [r: -180.000°, t: (133.125, 2.112)]</title>
</use>
<use transform="translate(133.1734 0.07507753), rotate(0)" xlink:href="#item_6">
<title>item, id: 6, transf: [r: 0.000°, t: (133.173, 0.075)]</title>
</use>
<use transform="translate(128.2352 16.592636), rotate(-180)" xlink:href="#item_6">
<title>item, id: 6, transf: [r: -180.000°, t: (128.235, 16.593)]</title>
</use>
<use transform="translate(132.41026 14.2509985), rotate(0)" xlink:href="#item_8">
<title>item, id: 8, transf: [r: 0.000°, t: (132.410, 14.251)]</title>
</use>
<use transform="translate(224.91321 71.99678), rotate(0)" xlink:href="#item_13">
<title>item, id: 13, transf: [r: 0.000°, t: (224.913, 71.997)]</title>
</use>
<use transform="translate(224.91187 11.247815), rotate(0)" xlink:href="#item_13">
<title>item, id: 13, transf: [r: 0.000°, t: (224.912, 11.248)]</title>
</use>
<use transform="translate(236.48268 52.842506), rotate(-180)" xlink:href="#item_15">
<title>item, id: 15, transf: [r: -180.000°, t: (236.483, 52.843)]</title>
</use>
<use transform="translate(54.90796 58.05521), rotate(0)" xlink:href="#item_15">
<title>item, id: 15, transf: [r: 0.000°, t: (54.908, 58.055)]</title>
</use>
<use transform="translate(8.001527 76.98733), rotate(-180)" xlink:href="#item_15">
<title>item, id: 15, transf: [r: -180.000°, t: (8.002, 76.987)]</title>
</use>
<use transform="translate(236.9138 34.354427), rotate(-180)" xlink:href="#item_15">
<title>item, id: 15, transf: [r: -180.000°, t: (236.914, 34.354)]</title>
</use>
<use transform="translate(164.85948 17.375158), rotate(0)" xlink:href="#item_15">
<title>item, id: 15, transf: [r: 0.000°, t: (164.859, 17.375)]</title>
</use>
<use transform="translate(228.74669 18.352352), rotate(0)" xlink:href="#item_15">
<title>item, id: 15, transf: [r: 0.000°, t: (228.747, 18.352)]</title>
</use>
<use transform="translate(146.99916 18.606785), rotate(0)" xlink:href="#item_15">
<title>item, id: 15, transf: [r: 0.000°, t: (146.999, 18.607)]</title>
</use>
<use transform="translate(227.13248 36.84237), rotate(0)" xlink:href="#item_15">
<title>item, id: 15, transf: [r: 0.000°, t: (227.132, 36.842)]</title>
</use>
<use transform="translate(115.07123 31.66663), rotate(0)" xlink:href="#item_10">
<title>item, id: 10, transf: [r: 0.000°, t: (115.071, 31.667)]</title>
</use>
<use transform="translate(180.5963 9.000563), rotate(-180)" xlink:href="#item_12">
<title>item, id: 12, transf: [r: -180.000°, t: (180.596, 9.001)]</title>
</use>
<use transform="translate(37.210304 65.11008), rotate(-180)" xlink:href="#item_12">
<title>item, id: 12, transf: [r: -180.000°, t: (37.210, 65.110)]</title>
</use>
<use transform="translate(3.2166145 60.784306), rotate(0)" xlink:href="#item_16">
<title>item, id: 16, transf: [r: 0.000°, t: (3.217, 60.784)]</title>
</use>
<use transform="translate(177.91188 60.8001), rotate(0)" xlink:href="#item_16">
<title>item, id: 16, transf: [r: 0.000°, t: (177.912, 60.800)]</title>
</use>
<use transform="translate(177.24976 61.126537), rotate(-180)" xlink:href="#item_16">
<title>item, id: 16, transf: [r: -180.000°, t: (177.250, 61.127)]</title>
</use>
<use transform="translate(63.43435 26.22418), rotate(-180)" xlink:href="#item_16">
<title>item, id: 16, transf: [r: -180.000°, t: (63.434, 26.224)]</title>
</use>
</g>
<g id="quality_zones"/>
<g id="optionals">
<g id="overlap_lines" transform="translate(0 0), rotate(0)"/>
</g>
<text font-family="monospace" font-size="1.975" font-weight="500" x="0" y="-0.9875">
height: 79.000 | width: 236.914 | usage: 91.934% | final_bench_23
</text>
</svg>