<svg viewBox="-11.927472 -3.950001 262.40433 86.90001" xmlns="http://www.w3.org/2000/svg" xmlns:xlink="http://www.w3.org/1999/xlink">
<g id="bin_0">
<path d="M0,0 L238.54938,0 L238.54938,79 L0,79 z" fill="#D3D3D3" stroke="black" stroke-width="0.43450004"/>
<title>bin, id: 0, bbox: [x_min: 0.000, y_min: 0.000, x_max: 238.549, y_max: 79.000]</title>
</g>
<g id="items">
<defs>
<g id="item_0">
<path d="M0,0 L12,-1 L14,-3.0000005 L24,0 L33,1 L59,2 L59,13 L4,13 L4,8 L2,5 L0,5 z" fill="#7A7A7A" fill-opacity="0.5" fill-rule="nonzero" stroke="black" stroke-width="0.21725002"/>
</g>
<g id="item_1">
<path d="M0,0 L0,-14 L27,-17 L37,-20 L41,-22 L47,-19 L56,-16 L56,0 z" fill="#7A7A7A" fill-opacity="0.5" fill-rule="nonzero" stroke="black" stroke-width="0.21725002"/>
</g>
<g id="item_2">
<path d="M0,0 L57,0 L57,5 L0,5 z" fill="#7A7A7A" fill-opacity="0.5" fill-rule="nonzero" stroke="black" stroke-width="0.21725002"/>
</g>
<g id="item_3">
<path d="M0,0 L52,0 L52,5 L0,5 z" fill="#7A7A7A" fill-opacity="0.5" fill-rule="nonzero" stroke="black" stroke-width="0.21725002"/>
</g>
<g id="item_4">
<path d="M0,0 L44,0 L44,5 L0,5 z" fill="#7A7A7A" fill-opacity="0.5" fill-rule="nonzero" stroke="black" stroke-width="0.21725002"/>
</g>
<g id="item_5">
<path d="M0,0 L42,0 L42,5 L0,5 z" fill="#7A7A7A" fill-opacity="0.5" fill-rule="nonzero" stroke="black" stroke-width="0.21725002"/>
</g>
<g id="item_6">
<path d="M0,0 L21,0 L21,2 L0,2 z" fill="#7A7A7A" fill-opacity="0.5" fill-rule="nonzero" stroke="black" stroke-width="0.21725002"/>
</g>
<g id="item_7">
<path d="M0,0 L15,4 L13,7 L0,6 z" fill="#7A7A7A" fill-opacity="0.5" fill-rule="nonzero" stroke="black" stroke-width="0.21725002"/>
</g>
<g id="item_8">
<path d="M0,0 L15,1 L15,4 L0,4 z" fill="#7A7A7A" fill-opacity="0.5" fill-rule="nonzero" stroke="black" stroke-width="0.21725002"/>
</g>
<g id="item_9">
<path d="M0,0 L14,0 L14,5 L0,5 z" fill="#7A7A7A" fill-opacity="0.5" fill-rule="nonzero" stroke="black" stroke-width="0.21725002"/>
</g>
<g id="item_10">
<path d="M0,0 L14,1 L14,4 L0,4 z" fill="#7A7A7A" fill-opacity="0.5" fill-rule="nonzero" stroke="black" stroke-width="0.21725002"/>
</g>
<g id="item_11">
<path d="M0,0 L13,0 L13,5 L0,5 z" fill="#7A7A7A" fill-opacity="0.5" fill-rule="nonzero" stroke="black" stroke-width="0.21725002"/>
</g>
<g id="item_12">
<path d="M0,0 L13,1 L13,4 L0,4 z" fill="#7A7A7A" fill-opacity="0.5" fill-rule="nonzero" stroke="black" stroke-width="0.21725002"/>
</g>
<g id="item_13">
<path d="M0,0 L12,0 L12,5 L0,5 z" fill="#7A7A7A" fill-opacity="0.5" fill-rule="nonzero" stroke="black" stroke-width="0.21725002"/>
</g>
<g id="item_14">
<path d="M0,0 L4,2 L6,10 L4,11 L-4,11 L-6,10 L-4,2 z" fill="#7A7A7A" fill-opacity="0.5" fill-rule="nonzero" stroke="black" stroke-width="0.21725002"/>
</g>
<g id="item_15">
<path d="M0,0 L3,-2 L8,0 L8,8 L2,8 z" fill="#7A7A7A" fill-opacity="0.5" fill-rule="nonzero" stroke="black" stroke-width="0.21725002"/>
</g>
<g id="item_16">
<path d="M0,0 L2,1 L3,6 L2,7 L-2,7 L-3,6 L-2,1 z" fill="#7A7A7A" fill-opacity="0.5" fill-rule="nonzero" stroke="black" stroke-width="0.21725002"/>
</g>
</defs>
<use transform="translate(238.49295 50.543144), rotate(-180)" xlink:href="#item_1">
<title>item, id: 1, transf: [r: -180.000°, t: (238.493, 50.543)]</title>
</use>
<use transform="translate(0.06331444 50.862766), rotate(0)" xlink:href="#item_1">
<title>item, id: 1, transf: [r: 0.000°, t: (0.063, 50.863)]</title>
</use>
<use transform="translate(70.448135 78.99878), rotate(0)" xlink:href="#item_1">
<title>item, id: 1, transf: [r: 0.000°, t: (70.448, 78.999)]</title>
</use>
<use transform="translate(170.92056 42.614), rotate(-180)" xlink:href="#item_1">
<title>item, id: 1, transf: [r: -180.000°, t: (170.921, 42.614)]</title>
</use>
<use transform="translate(115.00096 0.002459526), rotate(-180)" xlink:href="#item_1">
<title>item, id: 1, transf: [r: -180.000°, t: (115.001, 0.002)]</title>
</use>
<use transform="translate(126.44972 78.99995), rotate(0)" xlink:href="#item_1">
<title>item, id: 1, transf: [r: 0.000°, t: (126.450, 79.000)]</title>
</use>
<use transform="translate(59.122967 37.67272), rotate(0)" xlink:href="#item_1">
<title>item, id: 1, transf: [r: 0.000°, t: (59.123, 37.673)]</title>
</use>
<use transform="translate(114.34952 42.676376), rotate(-180)" xlink:href="#item_1">
<title>item, id: 1, transf: [r: -180.000°, t: (114.350, 42.676)]</title>
</use>
<use transform="translate(190.89027 29.286951), rotate(-180)" xlink:href="#item_0">
<title>item, id: 0, transf: [r: -180.000°, t: (190.890, 29.287)]</title>
</use>
<use transform="translate(238.54907 18.001377), rotate(-180)" xlink:href="#item_0">
<title>item, id: 0, transf: [r: -180.000°, t: (238.549, 18.001)]</title>
</use>
<use transform="translate(115.13795 29.613783), rotate(0)" xlink:href="#item_0">
<title>item, id: 0, transf: [r: 0.000°, t: (115.138, 29.614)]</title>
</use>
<use transform="translate(120.54766 3.286388), rotate(0)" xlink:href="#item_0">
<title>item, id: 0, transf: [r: 0.000°, t: (120.548, 3.286)]</title>
</use>
<use transform="translate(59.031925 63.984314), rotate(-180)" xlink:href="#item_0">
<title>item, id: 0, transf: [r: -180.000°, t: (59.032, 63.984)]</title>
</use>
<use transform="translate(174.32681 32.54297), rotate(0)" xlink:href="#item_0">
<title>item, id: 0, transf: [r: 0.000°, t: (174.327, 32.543)]</title>
</use>
<use transform="translate(59.00001 18.001186), rotate(-180)" xlink:href="#item_0">
<title>item, id: 0, transf: [r: -180.000°, t: (59.000, 18.001)]</title>
</use>
<use transform="translate(11.445757 65.99947), rotate(0)" xlink:href="#item_0">
<title>item, id: 0, transf: [r: 0.000°, t: (11.446, 65.999)]</title>
</use>
<use transform="translate(181.4125 45.54299), rotate(0)" xlink:href="#item_2">
<title>item, id: 2, transf: [r: 0.000°, t: (181.413, 45.543)]</title>
</use>
<use transform="translate(6.8952446 0.0005970001), rotate(0)" xlink:href="#item_3">
<title>item, id: 3, transf: [r: 0.000°, t: (6.895, 0.001)]</title>
</use>
<use transform="translate(100.89476 42.67454), rotate(-180)" xlink:href="#item_4">
<title>item, id: 4, transf: [r: -180.000°, t: (100.895, 42.675)]</title>
</use>
<use transform="translate(196.54677 0.00034737587), rotate(0)" xlink:href="#item_5">
<title>item, id: 5, transf: [r: 0.000°, t: (196.547, 0.000)]</title>
</use>
<use transform="translate(176.47762 48.505085), rotate(0)" xlink:href="#item_14">
<title>item, id: 14, transf: [r: 0.000°, t: (176.478, 48.505)]</title>
</use>
<use transform="translate(6.062055 73.518684), rotate(-180)" xlink:href="#item_14">
<title>item, id: 14, transf: [r: -180.000°, t: (6.062, 73.519)]</title>
</use>
<use transform="translate(16.142887 23.620794), rotate(0)" xlink:href="#item_14">
<title>item, id: 14, transf: [r: 0.000°, t: (16.143, 23.621)]</title>
</use>
<use transform="translate(232.53014 65.94805), rotate(0)" xlink:href="#item_14">
<title>item, id: 14, transf: [r: 0.000°, t: (232.530, 65.948)]</title>
</use>
<use transform="translate(212.77913 22.59844), rotate(0)" xlink:href="#item_14">
<title>item, id: 14, transf: [r: 0.000°, t: (212.779, 22.598)]</title>
</use>
<use transform="translate(6.001842 36.17949), rotate(-180)" xlink:href="#item_14">
<title>item, id: 14, transf: [r: -180.000°, t: (6.002, 36.179)]</title>
</use>
<use transform="translate(25.926256 33.97354), rotate(-180)" xlink:href="#item_14">
<title>item, id: 14, transf: [r: -180.000°, t: (25.926, 33.974)]</title>
</use>
<use transform="translate(203.20741 32.866344), rotate(-180)" xlink:href="#item_14">
<title>item, id: 14, transf: [r: -180.000°, t: (203.207, 32.866)]</title>
</use>
<use transform="translate(100.895805 37.673233), rotate(0)" xlink:href="#item_9">
<title>item, id: 9, transf: [r: 0.000°, t: (100.896, 37.673)]</title>
</use>
<use transform="translate(31.12219 17.570713), rotate(0)" xlink:href="#item_7">
<title>item, id: 7, transf: [r: 0.000°, t: (31.122, 17.571)]</title>
</use>
<use transform="translate(51.10061 31.192158), rotate(-180)" xlink:href="#item_7">
<title>item, id: 7, transf: [r: -180.000°, t: (51.101, 31.192)]</title>
</use>
<use transform="translate(226.85841 74.31808), rotate(-180)" xlink:href="#item_7">
<title>item, id: 7, transf: [r: -180.000°, t: (226.858, 74.318)]</title>
</use>
<use transform="translate(210.59526 69.98968), rotate(0)" xlink:href="#item_7">
<title>item, id: 7, transf: [r: 0.000°, t: (210.595, 69.990)]</title>
</use>
<use transform="translate(0.0028595924 18.189869), rotate(0)" xlink:href="#item_7">
<title>item, id: 7, transf: [r: 0.000°, t: (0.003, 18.190)]</title>
</use>
<use transform="translate(0.00017929077 71.99943), rotate(0)" xlink:href="#item_7">
<title>item, id: 7, transf: [r: 0.000°, t: (0.000, 71.999)]</title>
</use>
<use transform="translate(182.64977 68.59108), rotate(0)" xlink:href="#item_7">
<title>item, id: 7, transf: [r: 0.000°, t: (182.650, 68.591)]</title>
</use>
<use transform="translate(18.968666 23.247246), rotate(-180)" xlink:href="#item_7">
<title>item, id: 7, transf: [r: -180.000°, t: (18.969, 23.247)]</title>
</use>
<use transform="translate(187.92273 16.82355), rotate(0)" xlink:href="#item_11">
<title>item, id: 11, transf: [r: 0.000°, t: (187.923, 16.824)]</title>
</use>
<use transform="translate(174.60222 0.89397836), rotate(0)" xlink:href="#item_6">
<title>item, id: 6, transf: [r: 0.000°, t: (174.602, 0.894)]</title>
</use>
<use transform="translate(217.20607 78.99962), rotate(-180)" xlink:href="#item_6">
<title>item, id: 6, transf: [r: -180.000°, t: (217.206, 79.000)]</title>
</use>
<use transform="translate(68.0165 21.026098), rotate(-180)" xlink:href="#item_6">
<title>item, id: 6, transf: [r: -180.000°, t: (68.017, 21.026)]</title>
</use>
<use transform="translate(173.92406 4.110162), rotate(-180)" xlink:href="#item_6">
<title>item, id: 6, transf: [r: -180.000°, t: (173.924, 4.110)]</title>
</use>
<use transform="translate(195.58688 4.98048), rotate(-180)" xlink:href="#item_6">
<title>item, id: 6, transf: [r: -180.000°, t: (195.587, 4.980)]</title>
</use>
<use transform="translate(140.61465 0.000091433525), rotate(0)" xlink:href="#item_6">
<title>item, id: 6, transf: [r: 0.000°, t: (140.615, 0.000)]</title>
</use>
<use transform="translate(217.54913 76.99047), rotate(0)" xlink:href="#item_6">
<title>item, id: 6, transf: [r: 0.000°, t: (217.549, 76.990)]</title>
</use>
<use transform="translate(49.44764 65.191246), rotate(0)" xlink:href="#item_6">
<title>item, id: 6, transf: [r: 0.000°, t: (49.448, 65.191)]</title>
</use>
<use transform="translate(215.93723 22.447353), rotate(-180)" xlink:href="#item_8">
<title>item, id: 8, transf: [r: -180.000°, t: (215.937, 22.447)]</title>
</use>
<use transform="translate(19.107637 17.959202), rotate(0)" xlink:href="#item_13">
<title>item, id: 13, transf: [r: 0.000°, t: (19.108, 17.959)]</title>
</use>
<use transform="translate(198.5838 71.99785), rotate(0)" xlink:href="#item_13">
<title>item, id: 13, transf: [r: 0.000°, t: (198.584, 71.998)]</title>
</use>
<use transform="translate(59.12231 32.876217), rotate(-180)" xlink:href="#item_15">
<title>item, id: 15, transf: [r: -180.000°, t: (59.122, 32.876)]</title>
</use>
<use transform="translate(115.85625 10.261173), rotate(0)" xlink:href="#item_15">
<title>item, id: 15, transf: [r: 0.000°, t: (115.856, 10.261)]</title>
</use>
<use transform="translate(215.96364 21.326246), rotate(0)" xlink:href="#item_15">
<title>item, id: 15, transf: [r: 0.000°, t: (215.964, 21.326)]</title>
</use>
<use transform="translate(123.68701 18.599638), rotate(0)" xlink:href="#item_15">
<title>item, id: 15, transf: [r: 0.000°, t: (123.687, 18.600)]</title>
</use>
<use transform="translate(232.65454 28.911186), rotate(-180)" xlink:href="#item_15">
<title>item, id: 15, transf: [r: -180.000°, t: (232.655, 28.911)]</title>
</use>
<use transform="translate(198.94086 29.826996), rotate(-180)" xlink:href="#item_15">
<title>item, id: 15, transf: [r: -180.000°, t: (198.941, 29.827)]</title>
</use>
<use transform="translate(125.45792 26.990824), rotate(-180)" xlink:href="#item_15">
<title>item, id: 15, transf: [r: -180.000°, t: (125.458, 26.991)]</title>
</use>
<use transform="translate(230.54916 20.422152), rotate(0)" xlink:href="#item_15">
<title>item, id: 15, transf: [r: 0.000°, t: (230.549, 20.422)]</title>
</use>
<use transform="translate(238.5369 34.91124), rotate(-180)" xlink:href="#item_10">
<title>item, id: 10, transf: [r: -180.000°, t: (238.537, 34.911)]</title>
</use>
<use transform="translate(182.45374 74.99997), rotate(0)" xlink:href="#item_12">
<title>item, id: 12, transf: [r: 0.000°, t: (182.454, 75.000)]</title>
</use>
<use transform="translate(59.122375 25.030056), rotate(-180)" xlink:href="#item_12">
<title>item, id: 12, transf: [r: -180.000°, t: (59.122, 25.030)]</title>
</use>
<use transform="translate(33.61565 24.251757), rotate(0)" xlink:href="#item_16">
<title>item, id: 16, transf: [r: 0.000°, t: (33.616, 24.252)]</title>
</use>
<use transform="translate(118.00105 7.010566), rotate(-180)" xlink:href="#item_16">
<title>item, id: 16, transf: [r: -180.000°, t: (118.001, 7.011)]</title>
</use>
<use transform="translate(173.95992 49.763638), rotate(-180)" xlink:href="#item_16">
<title>item, id: 16, transf: [r: -180.000°, t: (173.960, 49.764)]</title>
</use>
<use transform="translate(114.10534 21.326517), rotate(-180)" xlink:href="#item_16">
<title>item, id: 16, transf: [r: -180.000°, t: (114.105, 21.327)]</title>
</use>
</g>
<g id="quality_zones"/>
<g id="optionals">
<g id="overlap_lines" transform="translate(0 0), rotate(0)"/>
</g>
<text font-family="monospace" font-size="1.975" font-weight="500" x="0" y="-0.9875">
height: 79.000 | width: 238.549 | usage: 91.303% | final_bench_88
</text>
</svg>