<svg viewBox="-11.900599 -3.950001 261.8131 86.90001" xmlns="http://www.w3.org/2000/svg" xmlns:xlink="http://www.w3.org/1999/xlink">
<g id="bin_0">
<path d="M0,0 L238.01192,0 L238.01192,79 L0,79 z" fill="#D3D3D3" stroke="black" stroke-width="0.43450004"/>
<title>bin, id: 0, bbox: [x_min: 0.000, y_min: 0.000, x_max: 238.012, y_max: 79.000]</title>
</g>
<g id="items">
<defs>
<g id="item_0">
<path d="M0,0 L12,-1 L14,-3.0000005 L24,0 L33,1 L59,2 L59,13 L4,13 L4,8 L2,5 L0,5 z" fill="#7A7A7A" fill-opacity="0.5" fill-rule="nonzero" stroke="black" stroke-width="0.21725002"/>
</g>
<g id="item_1">
<path d="M0,0 L0,-14 L27,-17 L37,-20 L41,-22 L47,-19 L56,-16 L56,0 z" fill="#7A7A7A" fill-opacity="0.5" fill-rule="nonzero" stroke="black" stroke-width="0.21725002"/>
</g>
<g id="item_2">
<path d="M0,0 L57,0 L57,5 L0,5 z" fill="#7A7A7A" fill-opacity="0.5" fill-rule="nonzero" stroke="black" stroke-width="0.21725002"/>
</g>
<g id="item_3">
<path d="M0,0 L52,0 L52,5 L0,5 z" fill="#7A7A7A" fill-opacity="0.5" fill-rule="nonzero" stroke="black" stroke-width="0.21725002"/>
</g>
<g id="item_4">
<path d="M0,0 L44,0 L44,5 L0,5 z" fill="#7A7A7A" fill-opacity="0.5" fill-rule="nonzero" stroke="black" stroke-width="0.21725002"/>
</g>
<g id="item_5">
<path d="M0,0 L42,0 L42,5 L0,5 z" fill="#7A7A7A" fill-opacity="0.5" fill-rule="nonzero" stroke="black" stroke-width="0.21725002"/>
</g>
<g id="item_6">
<path d="M0,0 L21,0 L21,2 L0,2 z" fill="#7A7A7A" fill-opacity="0.5" fill-rule="nonzero" stroke="black" stroke-width="0.21725002"/>
</g>
<g id="item_7">
<path d="M0,0 L15,4 L13,7 L0,6 z" fill="#7A7A7A" fill-opacity="0.5" fill-rule="nonzero" stroke="black" stroke-width="0.21725002"/>
</g>
<g id="item_8">
<path d="M0,0 L15,1 L15,4 L0,4 z" fill="#7A7A7A" fill-opacity="0.5" fill-rule="nonzero" stroke="black" stroke-width="0.21725002"/>
</g>
<g id="item_9">
<path d="M0,0 L14,0 L14,5 L0,5 z" fill="#7A7A7A" fill-opacity="0.5" fill-rule="nonzero" stroke="black" stroke-width="0.21725002"/>
</g>
<g id="item_10">
<path d="M0,0 L14,1 L14,4 L0,4 z" fill="#7A7A7A" fill-opacity="0.5" fill-rule="nonzero" stroke="black" stroke-width="0.21725002"/>
</g>
<g id="item_11">
<path d="M0,0 L13,0 L13,5 L0,5 z" fill="#7A7A7A" fill-opacity="0.5" fill-rule="nonzero" stroke="black" stroke-width="0.21725002"/>
</g>
<g id="item_12">
<path d="M0,0 L13,1 L13,4 L0,4 z" fill="#7A7A7A" fill-opacity="0.5" fill-rule="nonzero" stroke="black" stroke-width="0.21725002"/>
</g>
<g id="item_13">
<path d="M0,0 L12,0 L12,5 L0,5 z" fill="#7A7A7A" fill-opacity="0.5" fill-rule="nonzero" stroke="black" stroke-width="0.21725002"/>
</g>
<g id="item_14">
<path d="M0,0 L4,2 L6,10 L4,11 L-4,11 L-6,10 L-4,2 z" fill="#7A7A7A" fill-opacity="0.5" fill-rule="nonzero" stroke="black" stroke-width="0.21725002"/>
</g>
<g id="item_15">
<path d="M0,0 L3,-2 L8,0 L8,8 L2,8 z" fill="#7A7A7A" fill-opacity="0.5" fill-rule="nonzero" stroke="black" stroke-width="0.21725002"/>
</g>
<g id="item_16">
<path d="M0,0 L2,1 L3,6 L2,7 L-2,7 L-3,6 L-2,1 z" fill="#7A7A7A" fill-opacity="0.5" fill-rule="nonzero" stroke="black" stroke-width="0.21725002"/>
</g>
</defs>
<use transform="translate(56.053173 5.000044), rotate(-180)" xlink:href="#item_1">
<title>item, id: 1, transf: [r: -180.000°, t: (56.053, 5.000)]</title>
</use>
<use transform="translate(56.008686 42.68864), rotate(-180)" xlink:href="#item_1">
<title>item, id: 1, transf: [r: -180.000°, t: (56.009, 42.689)]</title>
</use>
<use transform="translate(123.0011 0.003145218), rotate(-180)" xlink:href="#item_1">
<title>item, id: 1, transf: [r: -180.000°, t: (123.001, 0.003)]</title>
</use>
<use transform="translate(12.210522 78.99959), rotate(0)" xlink:href="#item_1">
<title>item, id: 1, transf: [r: 0.000°, t: (12.211, 79.000)]</title>
</use>
<use transform="translate(238.00574 0.00001335144), rotate(-180)" xlink:href="#item_1">
<title>item, id: 1, transf: [r: -180.000°, t: (238.006, 0.000)]</title>
</use>
<use transform="translate(135.22041 78.9963), rotate(0)" xlink:href="#item_1">
<title>item, id: 1, transf: [r: 0.000°, t: (135.220, 78.996)]</title>
</use>
<use transform="translate(171.01082 45.229595), rotate(-180)" xlink:href="#item_1">
<title>item, id: 1, transf: [r: -180.000°, t: (171.011, 45.230)]</title>
</use>
<use transform="translate(59.010807 45.579067), rotate(0)" xlink:href="#item_1">
<title>item, id: 1, transf: [r: 0.000°, t: (59.011, 45.579)]</title>
</use>
<use transform="translate(182.00557 13.002304), rotate(-180)" xlink:href="#item_0">
<title>item, id: 0, transf: [r: -180.000°, t: (182.006, 13.002)]</title>
</use>
<use transform="translate(238.01118 60.38823), rotate(-180)" xlink:href="#item_0">
<title>item, id: 0, transf: [r: -180.000°, t: (238.011, 60.388)]</title>
</use>
<use transform="translate(178.95279 24.383938), rotate(0)" xlink:href="#item_0">
<title>item, id: 0, transf: [r: 0.000°, t: (178.953, 24.384)]</title>
</use>
<use transform="translate(0.010446548 29.687761), rotate(0)" xlink:href="#item_0">
<title>item, id: 0, transf: [r: 0.000°, t: (0.010, 29.688)]</title>
</use>
<use transform="translate(174.0979 41.94509), rotate(-180)" xlink:href="#item_0">
<title>item, id: 0, transf: [r: -180.000°, t: (174.098, 41.945)]</title>
</use>
<use transform="translate(68.211845 65.98896), rotate(0)" xlink:href="#item_0">
<title>item, id: 0, transf: [r: 0.000°, t: (68.212, 65.989)]</title>
</use>
<use transform="translate(111.188774 15.944103), rotate(0)" xlink:href="#item_0">
<title>item, id: 0, transf: [r: 0.000°, t: (111.189, 15.944)]</title>
</use>
<use transform="translate(115.0096 58.813263), rotate(-180)" xlink:href="#item_0">
<title>item, id: 0, transf: [r: -180.000°, t: (115.010, 58.813)]</title>
</use>
<use transform="translate(57.000374 5.00001), rotate(-180)" xlink:href="#item_2">
<title>item, id: 2, transf: [r: -180.000°, t: (57.000, 5.000)]</title>
</use>
<use transform="translate(186.00537 42.38468), rotate(0)" xlink:href="#item_3">
<title>item, id: 3, transf: [r: 0.000°, t: (186.005, 42.385)]</title>
</use>
<use transform="translate(191.22346 71.997765), rotate(0)" xlink:href="#item_4">
<title>item, id: 4, transf: [r: 0.000°, t: (191.223, 71.998)]</title>
</use>
<use transform="translate(196.01155 37.384144), rotate(0)" xlink:href="#item_5">
<title>item, id: 5, transf: [r: 0.000°, t: (196.012, 37.384)]</title>
</use>
<use transform="translate(232.01021 15.001493), rotate(0)" xlink:href="#item_14">
<title>item, id: 14, transf: [r: 0.000°, t: (232.010, 15.001)]</title>
</use>
<use transform="translate(49.06113 20.147541), rotate(0)" xlink:href="#item_14">
<title>item, id: 14, transf: [r: 0.000°, t: (49.061, 20.148)]</title>
</use>
<use transform="translate(231.04425 60.99286), rotate(0)" xlink:href="#item_14">
<title>item, id: 14, transf: [r: 0.000°, t: (231.044, 60.993)]</title>
</use>
<use transform="translate(58.929485 31.618378), rotate(-180)" xlink:href="#item_14">
<title>item, id: 14, transf: [r: -180.000°, t: (58.929, 31.618)]</title>
</use>
<use transform="translate(197.80724 60.99775), rotate(0)" xlink:href="#item_14">
<title>item, id: 14, transf: [r: 0.000°, t: (197.807, 60.998)]</title>
</use>
<use transform="translate(61.899147 9.616875), rotate(0)" xlink:href="#item_14">
<title>item, id: 14, transf: [r: 0.000°, t: (61.899, 9.617)]</title>
</use>
<use transform="translate(6.000528 67.999916), rotate(0)" xlink:href="#item_14">
<title>item, id: 14, transf: [r: 0.000°, t: (6.001, 68.000)]</title>
</use>
<use transform="translate(69.11189 19.012182), rotate(0)" xlink:href="#item_14">
<title>item, id: 14, transf: [r: 0.000°, t: (69.112, 19.012)]</title>
</use>
<use transform="translate(182.00974 37.3841), rotate(0)" xlink:href="#item_9">
<title>item, id: 9, transf: [r: 0.000°, t: (182.010, 37.384)]</title>
</use>
<use transform="translate(209.68675 59.908802), rotate(0)" xlink:href="#item_7">
<title>item, id: 7, transf: [r: 0.000°, t: (209.687, 59.909)]</title>
</use>
<use transform="translate(89.42566 59.137398), rotate(0)" xlink:href="#item_7">
<title>item, id: 7, transf: [r: 0.000°, t: (89.426, 59.137)]</title>
</use>
<use transform="translate(43.383453 28.852913), rotate(-180)" xlink:href="#item_7">
<title>item, id: 7, transf: [r: -180.000°, t: (43.383, 28.853)]</title>
</use>
<use transform="translate(74.26377 64.01571), rotate(-180)" xlink:href="#item_7">
<title>item, id: 7, transf: [r: -180.000°, t: (74.264, 64.016)]</title>
</use>
<use transform="translate(24.008966 23.687218), rotate(0)" xlink:href="#item_7">
<title>item, id: 7, transf: [r: 0.000°, t: (24.009, 23.687)]</title>
</use>
<use transform="translate(89.42476 64.639465), rotate(-180)" xlink:href="#item_7">
<title>item, id: 7, transf: [r: -180.000°, t: (89.425, 64.639)]</title>
</use>
<use transform="translate(178.2217 16.11486), rotate(0)" xlink:href="#item_7">
<title>item, id: 7, transf: [r: 0.000°, t: (178.222, 16.115)]</title>
</use>
<use transform="translate(110.1893 60.82782), rotate(0)" xlink:href="#item_7">
<title>item, id: 7, transf: [r: 0.000°, t: (110.189, 60.828)]</title>
</use>
<use transform="translate(91.34666 18.39949), rotate(0)" xlink:href="#item_11">
<title>item, id: 11, transf: [r: 0.000°, t: (91.347, 18.399)]</title>
</use>
<use transform="translate(115.015366 41.2191), rotate(0)" xlink:href="#item_6">
<title>item, id: 6, transf: [r: 0.000°, t: (115.015, 41.219)]</title>
</use>
<use transform="translate(137.92717 14.13081), rotate(0)" xlink:href="#item_6">
<title>item, id: 6, transf: [r: 0.000°, t: (137.927, 14.131)]</title>
</use>
<use transform="translate(227.14606 20.458057), rotate(-180)" xlink:href="#item_6">
<title>item, id: 6, transf: [r: -180.000°, t: (227.146, 20.458)]</title>
</use>
<use transform="translate(129.14594 12.129541), rotate(0)" xlink:href="#item_6">
<title>item, id: 6, transf: [r: 0.000°, t: (129.146, 12.130)]</title>
</use>
<use transform="translate(191.22044 76.99963), rotate(0)" xlink:href="#item_6">
<title>item, id: 6, transf: [r: 0.000°, t: (191.220, 77.000)]</title>
</use>
<use transform="translate(136.01086 45.219246), rotate(-180)" xlink:href="#item_6">
<title>item, id: 6, transf: [r: -180.000°, t: (136.011, 45.219)]</title>
</use>
<use transform="translate(212.2213 76.998505), rotate(0)" xlink:href="#item_6">
<title>item, id: 6, transf: [r: 0.000°, t: (212.221, 76.999)]</title>
</use>
<use transform="translate(224.8126 71.99755), rotate(-180)" xlink:href="#item_6">
<title>item, id: 6, transf: [r: -180.000°, t: (224.813, 71.998)]</title>
</use>
<use transform="translate(136.01573 41.220848), rotate(0)" xlink:href="#item_8">
<title>item, id: 8, transf: [r: 0.000°, t: (136.016, 41.221)]</title>
</use>
<use transform="translate(79.26345 22.003267), rotate(0)" xlink:href="#item_13">
<title>item, id: 13, transf: [r: 0.000°, t: (79.263, 22.003)]</title>
</use>
<use transform="translate(213.99123 20.46008), rotate(0)" xlink:href="#item_13">
<title>item, id: 13, transf: [r: 0.000°, t: (213.991, 20.460)]</title>
</use>
<use transform="translate(201.68665 61.996445), rotate(0)" xlink:href="#item_15">
<title>item, id: 15, transf: [r: 0.000°, t: (201.687, 61.996)]</title>
</use>
<use transform="translate(178.1901 31.992767), rotate(-180)" xlink:href="#item_15">
<title>item, id: 15, transf: [r: -180.000°, t: (178.190, 31.993)]</title>
</use>
<use transform="translate(171.01094 48.969822), rotate(0)" xlink:href="#item_15">
<title>item, id: 15, transf: [r: 0.000°, t: (171.011, 48.970)]</title>
</use>
<use transform="translate(112.35677 25.672144), rotate(-180)" xlink:href="#item_15">
<title>item, id: 15, transf: [r: -180.000°, t: (112.357, 25.672)]</title>
</use>
<use transform="translate(178.19409 21.986853), rotate(-180)" xlink:href="#item_15">
<title>item, id: 15, transf: [r: -180.000°, t: (178.194, 21.987)]</title>
</use>
<use transform="translate(135.21367 75.23319), rotate(-180)" xlink:href="#item_15">
<title>item, id: 15, transf: [r: -180.000°, t: (135.214, 75.233)]</title>
</use>
<use transform="translate(174.00969 34.793186), rotate(0)" xlink:href="#item_15">
<title>item, id: 15, transf: [r: 0.000°, t: (174.010, 34.793)]</title>
</use>
<use transform="translate(66.998535 8.015193), rotate(-180)" xlink:href="#item_15">
<title>item, id: 15, transf: [r: -180.000°, t: (66.999, 8.015)]</title>
</use>
<use transform="translate(209.92622 65.997444), rotate(0)" xlink:href="#item_10">
<title>item, id: 10, transf: [r: 0.000°, t: (209.926, 65.997)]</title>
</use>
<use transform="translate(184.58105 47.09947), rotate(-180)" xlink:href="#item_12">
<title>item, id: 12, transf: [r: -180.000°, t: (184.581, 47.099)]</title>
</use>
<use transform="translate(213.21939 24.553413), rotate(-180)" xlink:href="#item_12">
<title>item, id: 12, transf: [r: -180.000°, t: (213.219, 24.553)]</title>
</use>
<use transform="translate(76.41983 27.215199), rotate(-180)" xlink:href="#item_16">
<title>item, id: 16, transf: [r: -180.000°, t: (76.420, 27.215)]</title>
</use>
<use transform="translate(6.7198715 60.997784), rotate(0)" xlink:href="#item_16">
<title>item, id: 16, transf: [r: 0.000°, t: (6.720, 60.998)]</title>
</use>
<use transform="translate(106.8295 60.127544), rotate(0)" xlink:href="#item_16">
<title>item, id: 16, transf: [r: 0.000°, t: (106.829, 60.128)]</title>
</use>
<use transform="translate(3.025722 22.011988), rotate(0)" xlink:href="#item_16">
<title>item, id: 16, transf: [r: 0.000°, t: (3.026, 22.012)]</title>
</use>
</g>
<g id="quality_zones"/>
<g id="optionals">
<g id="overlap_lines" transform="translate(0 0), rotate(0)"/>
</g>
<text font-family="monospace" font-size="1.975" font-weight="500" x="0" y="-0.9875">
height: 79.000 | width: 238.012 | usage: 91.510% | final_bench_13
</text>
</svg>