<svg viewBox="-11.895537 -3.950001 261.70175 86.90001" xmlns="http://www.w3.org/2000/svg" xmlns:xlink="http://www.w3.org/1999/xlink">
<g id="bin_0">
<path d="M0,0 L237.91069,0 L237.91069,79 L0,79 z" fill="#D3D3D3" stroke="black" stroke-width="0.43450004"/>
<title>bin, id: 0, bbox: [x_min: 0.000, y_min: 0.000, x_max: 237.911, y_max: 79.000]</title>
</g>
<g id="items">
<defs>
<g id="item_0">
<path d="M0,0 L12,-1 L14,-3.0000005 L24,0 L33,1 L59,2 L59,13 L4,13 L4,8 L2,5 L0,5 z" fill="#7A7A7A" fill-opacity="0.5" fill-rule="nonzero" stroke="black" stroke-width="0.21725002"/>
</g>
<g id="item_1">
<path d="M0,0 L0,-14 L27,-17 L37,-20 L41,-22 L47,-19 L56,-16 L56,0 z" fill="#7A7A7A" fill-opacity="0.5" fill-rule="nonzero" stroke="black" stroke-width="0.21725002"/>
</g>
<g id="item_2">
<path d="M0,0 L57,0 L57,5 L0,5 z" fill="#7A7A7A" fill-opacity="0.5" fill-rule="nonzero" stroke="black" stroke-width="0.21725002"/>
</g>
<g id="item_3">
<path d="M0,0 L52,0 L52,5 L0,5 z" fill="#7A7A7A" fill-opacity="0.5" fill-rule="nonzero" stroke="black" stroke-width="0.21725002"/>
</g>
<g id="item_4">
<path d="M0,0 L44,0 L44,5 L0,5 z" fill="#7A7A7A" fill-opacity="0.5" fill-rule="nonzero" stroke="black" stroke-width="0.21725002"/>
</g>
<g id="item_5">
<path d="M0,0 L42,0 L42,5 L0,5 z" fill="#7A7A7A" fill-opacity="0.5" fill-rule="nonzero" stroke="black" stroke-width="0.21725002"/>
</g>
<g id="item_6">
<path d="M0,0 L21,0 L21,2 L0,2 z" fill="#7A7A7A" fill-opacity="0.5" fill-rule="nonzero" stroke="black" stroke-width="0.21725002"/>
</g>
<g id="item_7">
<path d="M0,0 L15,4 L13,7 L0,6 z" fill="#7A7A7A" fill-opacity="0.5" fill-rule="nonzero" stroke="black" stroke-width="0.21725002"/>
</g>
<g id="item_8">
<path d="M0,0 L15,1 L15,4 L0,4 z" fill="#7A7A7A" fill-opacity="0.5" fill-rule="nonzero" stroke="black" stroke-width="0.21725002"/>
</g>
<g id="item_9">
<path d="M0,0 L14,0 L14,5 L0,5 z" fill="#7A7A7A" fill-opacity="0.5" fill-rule="nonzero" stroke="black" stroke-width="0.21725002"/>
</g>
<g id="item_10">
<path d="M0,0 L14,1 L14,4 L0,4 z" fill="#7A7A7A" fill-opacity="0.5" fill-rule="nonzero" stroke="black" stroke-width="0.21725002"/>
</g>
<g id="item_11">
<path d="M0,0 L13,0 L13,5 L0,5 z" fill="#7A7A7A" fill-opacity="0.5" fill-rule="nonzero" stroke="black" stroke-width="0.21725002"/>
</g>
<g id="item_12">
<path d="M0,0 L13,1 L13,4 L0,4 z" fill="#7A7A7A" fill-opacity="0.5" fill-rule="nonzero" stroke="black" stroke-width="0.21725002"/>
</g>
<g id="item_13">
<path d="M0,0 L12,0 L12,5 L0,5 z" fill="#7A7A7A" fill-opacity="0.5" fill-rule="nonzero" stroke="black" stroke-width="0.21725002"/>
</g>
<g id="item_14">
<path d="M0,0 L4,2 L6,10 L4,11 L-4,11 L-6,10 L-4,2 z" fill="#7A7A7A" fill-opacity="0.5" fill-rule="nonzero" stroke="black" stroke-width="0.21725002"/>
</g>
<g id="item_15">
<path d="M0,0 L3,-2 L8,0 L8,8 L2,8 z" fill="#7A7A7A" fill-opacity="0.5" fill-rule="nonzero" stroke="black" stroke-width="0.21725002"/>
</g>
<g id="item_16">
<path d="M0,0 L2,1 L3,6 L2,7 L-2,7 L-3,6 L-2,1 z" fill="#7A7A7A" fill-opacity="0.5" fill-rule="nonzero" stroke="black" stroke-width="0.21725002"/>
</g>
</defs>
<use transform="translate(168.03458 40.038425), rotate(0)" xlink:href="#item_1">
<title>item, id: 1, transf: [r: 0.000°, t: (168.035, 40.038)]</title>
</use>
<use transform="translate(116.99654 0.0014925003), rotate(-180)" xlink:href="#item_1">
<title>item, id: 1, transf: [r: -180.000°, t: (116.997, 0.001)]</title>
</use>
<use transform="translate(237.91035 0.00054454803), rotate(-180)" xlink:href="#item_1">
<title>item, id: 1, transf: [r: -180.000°, t: (237.910, 0.001)]</title>
</use>
<use transform="translate(0.008005142 36.32598), rotate(0)" xlink:href="#item_1">
<title>item, id: 1, transf: [r: 0.000°, t: (0.008, 36.326)]</title>
</use>
<use transform="translate(56.001366 36.340954), rotate(-180)" xlink:href="#item_1">
<title>item, id: 1, transf: [r: -180.000°, t: (56.001, 36.341)]</title>
</use>
<use transform="translate(56.017117 44.273327), rotate(0)" xlink:href="#item_1">
<title>item, id: 1, transf: [r: 0.000°, t: (56.017, 44.273)]</title>
</use>
<use transform="translate(112.03201 34.738766), rotate(0)" xlink:href="#item_1">
<title>item, id: 1, transf: [r: 0.000°, t: (112.032, 34.739)]</title>
</use>
<use transform="translate(0.11006546 73.996864), rotate(0)" xlink:href="#item_1">
<title>item, id: 1, transf: [r: 0.000°, t: (0.110, 73.997)]</title>
</use>
<use transform="translate(179.89978 13.000269), rotate(-180)" xlink:href="#item_0">
<title>item, id: 0, transf: [r: -180.000°, t: (179.900, 13.000)]</title>
</use>
<use transform="translate(115.00337 57.339256), rotate(-180)" xlink:href="#item_0">
<title>item, id: 0, transf: [r: -180.000°, t: (115.003, 57.339)]</title>
</use>
<use transform="translate(171.36809 47.739006), rotate(-180)" xlink:href="#item_0">
<title>item, id: 0, transf: [r: -180.000°, t: (171.368, 47.739)]</title>
</use>
<use transform="translate(119.907585 49.590633), rotate(0)" xlink:href="#item_0">
<title>item, id: 0, transf: [r: 0.000°, t: (119.908, 49.591)]</title>
</use>
<use transform="translate(60.612137 13.002074), rotate(-180)" xlink:href="#item_0">
<title>item, id: 0, transf: [r: -180.000°, t: (60.612, 13.002)]</title>
</use>
<use transform="translate(74.12094 60.954815), rotate(0)" xlink:href="#item_0">
<title>item, id: 0, transf: [r: 0.000°, t: (74.121, 60.955)]</title>
</use>
<use transform="translate(230.38127 53.04), rotate(-180)" xlink:href="#item_0">
<title>item, id: 0, transf: [r: -180.000°, t: (230.381, 53.040)]</title>
</use>
<use transform="translate(178.91066 54.876347), rotate(0)" xlink:href="#item_0">
<title>item, id: 0, transf: [r: 0.000°, t: (178.911, 54.876)]</title>
</use>
<use transform="translate(57.00508 78.99855), rotate(-180)" xlink:href="#item_2">
<title>item, id: 2, transf: [r: -180.000°, t: (57.005, 78.999)]</title>
</use>
<use transform="translate(131.98148 78.9868), rotate(-180)" xlink:href="#item_3">
<title>item, id: 3, transf: [r: -180.000°, t: (131.981, 78.987)]</title>
</use>
<use transform="translate(226.79398 78.99943), rotate(-180)" xlink:href="#item_4">
<title>item, id: 4, transf: [r: -180.000°, t: (226.794, 78.999)]</title>
</use>
<use transform="translate(133.12149 62.591385), rotate(0)" xlink:href="#item_5">
<title>item, id: 5, transf: [r: 0.000°, t: (133.121, 62.591)]</title>
</use>
<use transform="translate(138.11147 67.99998), rotate(0)" xlink:href="#item_14">
<title>item, id: 14, transf: [r: 0.000°, t: (138.111, 68.000)]</title>
</use>
<use transform="translate(176.71861 67.99985), rotate(0)" xlink:href="#item_14">
<title>item, id: 14, transf: [r: 0.000°, t: (176.719, 68.000)]</title>
</use>
<use transform="translate(157.42102 67.99928), rotate(0)" xlink:href="#item_14">
<title>item, id: 14, transf: [r: 0.000°, t: (157.421, 67.999)]</title>
</use>
<use transform="translate(173.07472 24.902979), rotate(-180)" xlink:href="#item_14">
<title>item, id: 14, transf: [r: -180.000°, t: (173.075, 24.903)]</title>
</use>
<use transform="translate(68.85695 66.995544), rotate(-180)" xlink:href="#item_14">
<title>item, id: 14, transf: [r: -180.000°, t: (68.857, 66.996)]</title>
</use>
<use transform="translate(167.06993 78.59412), rotate(-180)" xlink:href="#item_14">
<title>item, id: 14, transf: [r: -180.000°, t: (167.070, 78.594)]</title>
</use>
<use transform="translate(231.90976 78.877464), rotate(-180)" xlink:href="#item_14">
<title>item, id: 14, transf: [r: -180.000°, t: (231.910, 78.877)]</title>
</use>
<use transform="translate(147.76688 78.61465), rotate(-180)" xlink:href="#item_14">
<title>item, id: 14, transf: [r: -180.000°, t: (147.767, 78.615)]</title>
</use>
<use transform="translate(78.118065 76.997284), rotate(-180)" xlink:href="#item_9">
<title>item, id: 9, transf: [r: -180.000°, t: (78.118, 76.997)]</title>
</use>
<use transform="translate(229.5983 23.559603), rotate(-180)" xlink:href="#item_7">
<title>item, id: 7, transf: [r: -180.000°, t: (229.598, 23.560)]</title>
</use>
<use transform="translate(15.908056 11.751253), rotate(0)" xlink:href="#item_7">
<title>item, id: 7, transf: [r: 0.000°, t: (15.908, 11.751)]</title>
</use>
<use transform="translate(178.71616 16.40348), rotate(0)" xlink:href="#item_7">
<title>item, id: 7, transf: [r: 0.000°, t: (178.716, 16.403)]</title>
</use>
<use transform="translate(15.908041 18.05322), rotate(-180)" xlink:href="#item_7">
<title>item, id: 7, transf: [r: -180.000°, t: (15.908, 18.053)]</title>
</use>
<use transform="translate(68.32496 20.281832), rotate(0)" xlink:href="#item_7">
<title>item, id: 7, transf: [r: 0.000°, t: (68.325, 20.282)]</title>
</use>
<use transform="translate(103.755554 23.91764), rotate(-180)" xlink:href="#item_7">
<title>item, id: 7, transf: [r: -180.000°, t: (103.756, 23.918)]</title>
</use>
<use transform="translate(0.0038762093 13.812714), rotate(0)" xlink:href="#item_7">
<title>item, id: 7, transf: [r: 0.000°, t: (0.004, 13.813)]</title>
</use>
<use transform="translate(132.72855 17.917387), rotate(-180)" xlink:href="#item_7">
<title>item, id: 7, transf: [r: -180.000°, t: (132.729, 17.917)]</title>
</use>
<use transform="translate(76.712875 71.99648), rotate(-180)" xlink:href="#item_11">
<title>item, id: 11, transf: [r: -180.000°, t: (76.713, 71.996)]</title>
</use>
<use transform="translate(57.006027 76.999886), rotate(0)" xlink:href="#item_6">
<title>item, id: 6, transf: [r: 0.000°, t: (57.006, 77.000)]</title>
</use>
<use transform="translate(226.18648 71.99375), rotate(-180)" xlink:href="#item_6">
<title>item, id: 6, transf: [r: -180.000°, t: (226.186, 71.994)]</title>
</use>
<use transform="translate(132.00351 48.494602), rotate(-180)" xlink:href="#item_6">
<title>item, id: 6, transf: [r: -180.000°, t: (132.004, 48.495)]</title>
</use>
<use transform="translate(202.91441 73.95052), rotate(-180)" xlink:href="#item_6">
<title>item, id: 6, transf: [r: -180.000°, t: (202.914, 73.951)]</title>
</use>
<use transform="translate(202.21445 71.95033), rotate(-180)" xlink:href="#item_6">
<title>item, id: 6, transf: [r: -180.000°, t: (202.214, 71.950)]</title>
</use>
<use transform="translate(204.38815 69.88923), rotate(-180)" xlink:href="#item_6">
<title>item, id: 6, transf: [r: -180.000°, t: (204.388, 69.889)]</title>
</use>
<use transform="translate(225.38928 69.99255), rotate(-180)" xlink:href="#item_6">
<title>item, id: 6, transf: [r: -180.000°, t: (225.389, 69.993)]</title>
</use>
<use transform="translate(224.81071 73.99592), rotate(-180)" xlink:href="#item_6">
<title>item, id: 6, transf: [r: -180.000°, t: (224.811, 73.996)]</title>
</use>
<use transform="translate(110.963524 15.190501), rotate(0)" xlink:href="#item_8">
<title>item, id: 8, transf: [r: 0.000°, t: (110.964, 15.191)]</title>
</use>
<use transform="translate(56.30253 18.661045), rotate(0)" xlink:href="#item_13">
<title>item, id: 13, transf: [r: 0.000°, t: (56.303, 18.661)]</title>
</use>
<use transform="translate(56.15219 23.661108), rotate(0)" xlink:href="#item_13">
<title>item, id: 13, transf: [r: 0.000°, t: (56.152, 23.661)]</title>
</use>
<use transform="translate(64.11705 73.6319), rotate(-180)" xlink:href="#item_15">
<title>item, id: 15, transf: [r: -180.000°, t: (64.117, 73.632)]</title>
</use>
<use transform="translate(229.90468 26.096472), rotate(0)" xlink:href="#item_15">
<title>item, id: 15, transf: [r: 0.000°, t: (229.905, 26.096)]</title>
</use>
<use transform="translate(229.9069 46.11383), rotate(0)" xlink:href="#item_15">
<title>item, id: 15, transf: [r: 0.000°, t: (229.907, 46.114)]</title>
</use>
<use transform="translate(232.04419 34.655354), rotate(-180)" xlink:href="#item_15">
<title>item, id: 15, transf: [r: -180.000°, t: (232.044, 34.655)]</title>
</use>
<use transform="translate(64.11034 63.620144), rotate(-180)" xlink:href="#item_15">
<title>item, id: 15, transf: [r: -180.000°, t: (64.110, 63.620)]</title>
</use>
<use transform="translate(229.90843 36.099747), rotate(0)" xlink:href="#item_15">
<title>item, id: 15, transf: [r: 0.000°, t: (229.908, 36.100)]</title>
</use>
<use transform="translate(112.02547 23.445488), rotate(-180)" xlink:href="#item_15">
<title>item, id: 15, transf: [r: -180.000°, t: (112.025, 23.445)]</title>
</use>
<use transform="translate(237.90872 22.897089), rotate(-180)" xlink:href="#item_15">
<title>item, id: 15, transf: [r: -180.000°, t: (237.909, 22.897)]</title>
</use>
<use transform="translate(117.57498 62.35678), rotate(-180)" xlink:href="#item_10">
<title>item, id: 10, transf: [r: -180.000°, t: (117.575, 62.357)]</title>
</use>
<use transform="translate(60.97856 18.641348), rotate(-180)" xlink:href="#item_12">
<title>item, id: 12, transf: [r: -180.000°, t: (60.979, 18.641)]</title>
</use>
<use transform="translate(133.40286 11.481199), rotate(0)" xlink:href="#item_12">
<title>item, id: 12, transf: [r: 0.000°, t: (133.403, 11.481)]</title>
</use>
<use transform="translate(178.90088 7.2038784), rotate(-180)" xlink:href="#item_16">
<title>item, id: 16, transf: [r: -180.000°, t: (178.901, 7.204)]</title>
</use>
<use transform="translate(179.91064 69.591995), rotate(-180)" xlink:href="#item_16">
<title>item, id: 16, transf: [r: -180.000°, t: (179.911, 69.592)]</title>
</use>
<use transform="translate(85.54126 26.281126), rotate(-180)" xlink:href="#item_16">
<title>item, id: 16, transf: [r: -180.000°, t: (85.541, 26.281)]</title>
</use>
<use transform="translate(120.69282 55.379826), rotate(0)" xlink:href="#item_16">
<title>item, id: 16, transf: [r: 0.000°, t: (120.693, 55.380)]</title>
</use>
</g>
<g id="quality_zones"/>
<g id="optionals">
<g id="overlap_lines" transform="translate(0 0), rotate(0)"/>
</g>
<text font-family="monospace" font-size="1.975" font-weight="500" x="0" y="-0.9875">
height: 79.000 | width: 237.911 | usage: 91.549% | final_bench_86
</text>
</svg>