<svg viewBox="-11.935266 -3.950001 262.5758 86.90001" xmlns="http://www.w3.org/2000/svg" xmlns:xlink="http://www.w3.org/1999/xlink">
<g id="bin_0">
<path d="M0,0 L238.70526,0 L238.70526,79 L0,79 z" fill="#D3D3D3" stroke="black" stroke-width="0.43450004"/>
<title>bin, id: 0, bbox: [x_min: 0.000, y_min: 0.000, x_max: 238.705, y_max: 79.000]</title>
</g>
<g id="items">
<defs>
<g id="item_0">
<path d="M0,0 L12,-1 L14,-3.0000005 L24,0 L33,1 L59,2 L59,13 L4,13 L4,8 L2,5 L0,5 z" fill="#7A7A7A" fill-opacity="0.5" fill-rule="nonzero" stroke="black" stroke-width="0.21725002"/>
</g>
<g id="item_1">
<path d="M0,0 L0,-14 L27,-17 L37,-20 L41,-22 L47,-19 L56,-16 L56,0 z" fill="#7A7A7A" fill-opacity="0.5" fill-rule="nonzero" stroke="black" stroke-width="0.21725002"/>
</g>
<g id="item_2">
<path d="M0,0 L57,0 L57,5 L0,5 z" fill="#7A7A7A" fill-opacity="0.5" fill-rule="nonzero" stroke="black" stroke-width="0.21725002"/>
</g>
<g id="item_3">
<path d="M0,0 L52,0 L52,5 L0,5 z" fill="#7A7A7A" fill-opacity="0.5" fill-rule="nonzero" stroke="black" stroke-width="0.21725002"/>
</g>
<g id="item_4">
<path d="M0,0 L44,0 L44,5 L0,5 z" fill="#7A7A7A" fill-opacity="0.5" fill-rule="nonzero" stroke="black" stroke-width="0.21725002"/>
</g>
<g id="item_5">
<path d="M0,0 L42,0 L42,5 L0,5 z" fill="#7A7A7A" fill-opacity="0.5" fill-rule="nonzero" stroke="black" stroke-width="0.21725002"/>
</g>
<g id="item_6">
<path d="M0,0 L21,0 L21,2 L0,2 z" fill="#7A7A7A" fill-opacity="0.5" fill-rule="nonzero" stroke="black" stroke-width="0.21725002"/>
</g>
<g id="item_7">
<path d="M0,0 L15,4 L13,7 L0,6 z" fill="#7A7A7A" fill-opacity="0.5" fill-rule="nonzero" stroke="black" stroke-width="0.21725002"/>
</g>
<g id="item_8">
<path d="M0,0 L15,1 L15,4 L0,4 z" fill="#7A7A7A" fill-opacity="0.5" fill-rule="nonzero" stroke="black" stroke-width="0.21725002"/>
</g>
<g id="item_9">
<path d="M0,0 L14,0 L14,5 L0,5 z" fill="#7A7A7A" fill-opacity="0.5" fill-rule="nonzero" stroke="black" stroke-width="0.21725002"/>
</g>
<g id="item_10">
<path d="M0,0 L14,1 L14,4 L0,4 z" fill="#7A7A7A" fill-opacity="0.5" fill-rule="nonzero" stroke="black" stroke-width="0.21725002"/>
</g>
<g id="item_11">
<path d="M0,0 L13,0 L13,5 L0,5 z" fill="#7A7A7A" fill-opacity="0.5" fill-rule="nonzero" stroke="black" stroke-width="0.21725002"/>
</g>
<g id="item_12">
<path d="M0,0 L13,1 L13,4 L0,4 z" fill="#7A7A7A" fill-opacity="0.5" fill-rule="nonzero" stroke="black" stroke-width="0.21725002"/>
</g>
<g id="item_13">
<path d="M0,0 L12,0 L12,5 L0,5 z" fill="#7A7A7A" fill-opacity="0.5" fill-rule="nonzero" stroke="black" stroke-width="0.21725002"/>
</g>
<g id="item_14">
<path d="M0,0 L4,2 L6,10 L4,11 L-4,11 L-6,10 L-4,2 z" fill="#7A7A7A" fill-opacity="0.5" fill-rule="nonzero" stroke="black" stroke-width="0.21725002"/>
</g>
<g id="item_15">
<path d="M0,0 L3,-2 L8,0 L8,8 L2,8 z" fill="#7A7A7A" fill-opacity="0.5" fill-rule="nonzero" stroke="black" stroke-width="0.21725002"/>
</g>
<g id="item_16">
<path d="M0,0 L2,1 L3,6 L2,7 L-2,7 L-3,6 L-2,1 z" fill="#7A7A7A" fill-opacity="0.5" fill-rule="nonzero" stroke="black" stroke-width="0.21725002"/>
</g>
</defs>
<use transform="translate(56.00281 0.000009536743), rotate(-180)" xlink:href="#item_1">
<title>item, id: 1, transf: [r: -180.000°, t: (56.003, 0.000)]</title>
</use>
<use transform="translate(0.000076293945 38.581154), rotate(0)" xlink:href="#item_1">
<title>item, id: 1, transf: [r: 0.000°, t: (0.000, 38.581)]</title>
</use>
<use transform="translate(56.99768 43.593887), rotate(-180)" xlink:href="#item_1">
<title>item, id: 1, transf: [r: -180.000°, t: (56.998, 43.594)]</title>
</use>
<use transform="translate(56.148396 37.683113), rotate(0)" xlink:href="#item_1">
<title>item, id: 1, transf: [r: 0.000°, t: (56.148, 37.683)]</title>
</use>
<use transform="translate(112.00345 0.017557144), rotate(-180)" xlink:href="#item_1">
<title>item, id: 1, transf: [r: -180.000°, t: (112.003, 0.018)]</title>
</use>
<use transform="translate(70.40788 78.98432), rotate(0)" xlink:href="#item_1">
<title>item, id: 1, transf: [r: 0.000°, t: (70.408, 78.984)]</title>
</use>
<use transform="translate(223.82838 13.32995), rotate(-180)" xlink:href="#item_1">
<title>item, id: 1, transf: [r: -180.000°, t: (223.828, 13.330)]</title>
</use>
<use transform="translate(113.00159 42.7706), rotate(-180)" xlink:href="#item_1">
<title>item, id: 1, transf: [r: -180.000°, t: (113.002, 42.771)]</title>
</use>
<use transform="translate(108.76125 14.557104), rotate(0)" xlink:href="#item_0">
<title>item, id: 0, transf: [r: 0.000°, t: (108.761, 14.557)]</title>
</use>
<use transform="translate(11.407576 65.99866), rotate(0)" xlink:href="#item_0">
<title>item, id: 0, transf: [r: 0.000°, t: (11.408, 65.999)]</title>
</use>
<use transform="translate(171.00371 13.057204), rotate(-180)" xlink:href="#item_0">
<title>item, id: 0, transf: [r: -180.000°, t: (171.004, 13.057)]</title>
</use>
<use transform="translate(112.16546 32.830223), rotate(0)" xlink:href="#item_0">
<title>item, id: 0, transf: [r: 0.000°, t: (112.165, 32.830)]</title>
</use>
<use transform="translate(126.41352 60.994778), rotate(0)" xlink:href="#item_0">
<title>item, id: 0, transf: [r: 0.000°, t: (126.414, 60.995)]</title>
</use>
<use transform="translate(231.00365 63.813538), rotate(-180)" xlink:href="#item_0">
<title>item, id: 0, transf: [r: -180.000°, t: (231.004, 63.814)]</title>
</use>
<use transform="translate(171.1918 37.749966), rotate(0)" xlink:href="#item_0">
<title>item, id: 0, transf: [r: 0.000°, t: (171.192, 37.750)]</title>
</use>
<use transform="translate(172.00276 58.832542), rotate(-180)" xlink:href="#item_0">
<title>item, id: 0, transf: [r: -180.000°, t: (172.003, 58.833)]</title>
</use>
<use transform="translate(57.000587 43.58975), rotate(-180)" xlink:href="#item_2">
<title>item, id: 2, transf: [r: -180.000°, t: (57.001, 43.590)]</title>
</use>
<use transform="translate(178.91278 78.99635), rotate(-180)" xlink:href="#item_3">
<title>item, id: 3, transf: [r: -180.000°, t: (178.913, 78.996)]</title>
</use>
<use transform="translate(101.00199 42.685158), rotate(-180)" xlink:href="#item_4">
<title>item, id: 4, transf: [r: -180.000°, t: (101.002, 42.685)]</title>
</use>
<use transform="translate(209.00558 5.0005126), rotate(-180)" xlink:href="#item_5">
<title>item, id: 5, transf: [r: -180.000°, t: (209.006, 5.001)]</title>
</use>
<use transform="translate(225.5494 28.102102), rotate(0)" xlink:href="#item_14">
<title>item, id: 14, transf: [r: 0.000°, t: (225.549, 28.102)]</title>
</use>
<use transform="translate(213.1745 2.3253245), rotate(0)" xlink:href="#item_14">
<title>item, id: 14, transf: [r: 0.000°, t: (213.174, 2.325)]</title>
</use>
<use transform="translate(222.85127 13.012028), rotate(-180)" xlink:href="#item_14">
<title>item, id: 14, transf: [r: -180.000°, t: (222.851, 13.012)]</title>
</use>
<use transform="translate(232.70525 1.6040754), rotate(0)" xlink:href="#item_14">
<title>item, id: 14, transf: [r: 0.000°, t: (232.705, 1.604)]</title>
</use>
<use transform="translate(226.33717 64.20473), rotate(0)" xlink:href="#item_14">
<title>item, id: 14, transf: [r: 0.000°, t: (226.337, 64.205)]</title>
</use>
<use transform="translate(207.11697 63.998894), rotate(0)" xlink:href="#item_14">
<title>item, id: 14, transf: [r: 0.000°, t: (207.117, 63.999)]</title>
</use>
<use transform="translate(197.55968 74.2112), rotate(-180)" xlink:href="#item_14">
<title>item, id: 14, transf: [r: -180.000°, t: (197.560, 74.211)]</title>
</use>
<use transform="translate(6.0010777 73.59745), rotate(-180)" xlink:href="#item_14">
<title>item, id: 14, transf: [r: -180.000°, t: (6.001, 73.597)]</title>
</use>
<use transform="translate(223.82999 12.605097), rotate(0)" xlink:href="#item_9">
<title>item, id: 9, transf: [r: 0.000°, t: (223.830, 12.605)]</title>
</use>
<use transform="translate(205.00043 38.77837), rotate(-180)" xlink:href="#item_7">
<title>item, id: 7, transf: [r: -180.000°, t: (205.000, 38.778)]</title>
</use>
<use transform="translate(51.812004 58.176216), rotate(0)" xlink:href="#item_7">
<title>item, id: 7, transf: [r: 0.000°, t: (51.812, 58.176)]</title>
</use>
<use transform="translate(219.8667 36.22191), rotate(-180)" xlink:href="#item_7">
<title>item, id: 7, transf: [r: -180.000°, t: (219.867, 36.222)]</title>
</use>
<use transform="translate(207.12054 12.228809), rotate(-180)" xlink:href="#item_7">
<title>item, id: 7, transf: [r: -180.000°, t: (207.121, 12.229)]</title>
</use>
<use transform="translate(0.000064373016 71.99993), rotate(0)" xlink:href="#item_7">
<title>item, id: 7, transf: [r: 0.000°, t: (0.000, 72.000)]</title>
</use>
<use transform="translate(205.0023 32.273193), rotate(0)" xlink:href="#item_7">
<title>item, id: 7, transf: [r: 0.000°, t: (205.002, 32.273)]</title>
</use>
<use transform="translate(160.55128 27.90577), rotate(0)" xlink:href="#item_7">
<title>item, id: 7, transf: [r: 0.000°, t: (160.551, 27.906)]</title>
</use>
<use transform="translate(48.298927 67.00554), rotate(-180)" xlink:href="#item_7">
<title>item, id: 7, transf: [r: -180.000°, t: (48.299, 67.006)]</title>
</use>
<use transform="translate(147.36658 27.559217), rotate(0)" xlink:href="#item_11">
<title>item, id: 11, transf: [r: 0.000°, t: (147.367, 27.559)]</title>
</use>
<use transform="translate(49.406574 65.18599), rotate(0)" xlink:href="#item_6">
<title>item, id: 6, transf: [r: 0.000°, t: (49.407, 65.186)]</title>
</use>
<use transform="translate(192.37576 74.99905), rotate(0)" xlink:href="#item_6">
<title>item, id: 6, transf: [r: 0.000°, t: (192.376, 74.999)]</title>
</use>
<use transform="translate(198.67116 76.99999), rotate(0)" xlink:href="#item_6">
<title>item, id: 6, transf: [r: 0.000°, t: (198.671, 77.000)]</title>
</use>
<use transform="translate(171.06723 7.2258625), rotate(0)" xlink:href="#item_6">
<title>item, id: 6, transf: [r: 0.000°, t: (171.067, 7.226)]</title>
</use>
<use transform="translate(114.32382 27.828863), rotate(0)" xlink:href="#item_6">
<title>item, id: 6, transf: [r: 0.000°, t: (114.324, 27.829)]</title>
</use>
<use transform="translate(117.167564 57.81494), rotate(0)" xlink:href="#item_6">
<title>item, id: 6, transf: [r: 0.000°, t: (117.168, 57.815)]</title>
</use>
<use transform="translate(209.41946 0.00013291836), rotate(0)" xlink:href="#item_6">
<title>item, id: 6, transf: [r: 0.000°, t: (209.419, 0.000)]</title>
</use>
<use transform="translate(171.54832 5.1051846), rotate(0)" xlink:href="#item_6">
<title>item, id: 6, transf: [r: 0.000°, t: (171.548, 5.105)]</title>
</use>
<use transform="translate(171.33823 9.329623), rotate(0)" xlink:href="#item_8">
<title>item, id: 8, transf: [r: 0.000°, t: (171.338, 9.330)]</title>
</use>
<use transform="translate(190.9159 78.995094), rotate(-180)" xlink:href="#item_13">
<title>item, id: 13, transf: [r: -180.000°, t: (190.916, 78.995)]</title>
</use>
<use transform="translate(135.36612 27.55896), rotate(0)" xlink:href="#item_13">
<title>item, id: 13, transf: [r: 0.000°, t: (135.366, 27.559)]</title>
</use>
<use transform="translate(193.43927 71.98319), rotate(-180)" xlink:href="#item_15">
<title>item, id: 15, transf: [r: -180.000°, t: (193.439, 71.983)]</title>
</use>
<use transform="translate(230.70523 57.619587), rotate(0)" xlink:href="#item_15">
<title>item, id: 15, transf: [r: 0.000°, t: (230.705, 57.620)]</title>
</use>
<use transform="translate(211.66348 68.135506), rotate(0)" xlink:href="#item_15">
<title>item, id: 15, transf: [r: 0.000°, t: (211.663, 68.136)]</title>
</use>
<use transform="translate(232.13594 26.006216), rotate(-180)" xlink:href="#item_15">
<title>item, id: 15, transf: [r: -180.000°, t: (232.136, 26.006)]</title>
</use>
<use transform="translate(229.3999 29.486763), rotate(0)" xlink:href="#item_15">
<title>item, id: 15, transf: [r: 0.000°, t: (229.400, 29.487)]</title>
</use>
<use transform="translate(230.70523 67.664856), rotate(0)" xlink:href="#item_15">
<title>item, id: 15, transf: [r: 0.000°, t: (230.705, 67.665)]</title>
</use>
<use transform="translate(230.45462 39.489002), rotate(0)" xlink:href="#item_15">
<title>item, id: 15, transf: [r: 0.000°, t: (230.455, 39.489)]</title>
</use>
<use transform="translate(230.70442 19.605265), rotate(0)" xlink:href="#item_15">
<title>item, id: 15, transf: [r: 0.000°, t: (230.704, 19.605)]</title>
</use>
<use transform="translate(101.03868 38.764515), rotate(0)" xlink:href="#item_10">
<title>item, id: 10, transf: [r: 0.000°, t: (101.039, 38.765)]</title>
</use>
<use transform="translate(186.45795 9.230122), rotate(0)" xlink:href="#item_12">
<title>item, id: 12, transf: [r: 0.000°, t: (186.458, 9.230)]</title>
</use>
<use transform="translate(219.67143 74.99985), rotate(0)" xlink:href="#item_12">
<title>item, id: 12, transf: [r: 0.000°, t: (219.671, 75.000)]</title>
</use>
<use transform="translate(3.0010545 17.02206), rotate(0)" xlink:href="#item_16">
<title>item, id: 16, transf: [r: 0.000°, t: (3.001, 17.022)]</title>
</use>
<use transform="translate(52.979794 21.572134), rotate(-180)" xlink:href="#item_16">
<title>item, id: 16, transf: [r: -180.000°, t: (52.980, 21.572)]</title>
</use>
<use transform="translate(230.0045 57.75276), rotate(-180)" xlink:href="#item_16">
<title>item, id: 16, transf: [r: -180.000°, t: (230.005, 57.753)]</title>
</use>
<use transform="translate(235.62599 55.086525), rotate(-180)" xlink:href="#item_16">
<title>item, id: 16, transf: [r: -180.000°, t: (235.626, 55.087)]</title>
</use>
</g>
<g id="quality_zones"/>
<g id="optionals">
<g id="overlap_lines" transform="translate(0 0), rotate(0)"/>
</g>
<text font-family="monospace" font-size="1.975" font-weight="500" x="0" y="-0.9875">
height: 79.000 | width: 238.705 | usage: 91.244% | final_bench_71
</text>
</svg>