<svg viewBox="-11.92437 -3.950001 262.3361 86.90001" xmlns="http://www.w3.org/2000/svg" xmlns:xlink="http://www.w3.org/1999/xlink">
<g id="bin_0">
<path d="M0,0 L238.48734,0 L238.48734,79 L0,79 z" fill="#D3D3D3" stroke="black" stroke-width="0.43450004"/>
<title>bin, id: 0, bbox: [x_min: 0.000, y_min: 0.000, x_max: 238.487, y_max: 79.000]</title>
</g>
<g id="items">
<defs>
<g id="item_0">
<path d="M0,0 L12,-1 L14,-3.0000005 L24,0 L33,1 L59,2 L59,13 L4,13 L4,8 L2,5 L0,5 z" fill="#7A7A7A" fill-opacity="0.5" fill-rule="nonzero" stroke="black" stroke-width="0.21725002"/>
</g>
<g id="item_1">
<path d="M0,0 L0,-14 L27,-17 L37,-20 L41,-22 L47,-19 L56,-16 L56,0 z" fill="#7A7A7A" fill-opacity="0.5" fill-rule="nonzero" stroke="black" stroke-width="0.21725002"/>
</g>
<g id="item_2">
<path d="M0,0 L57,0 L57,5 L0,5 z" fill="#7A7A7A" fill-opacity="0.5" fill-rule="nonzero" stroke="black" stroke-width="0.21725002"/>
</g>
<g id="item_3">
<path d="M0,0 L52,0 L52,5 L0,5 z" fill="#7A7A7A" fill-opacity="0.5" fill-rule="nonzero" stroke="black" stroke-width="0.21725002"/>
</g>
<g id="item_4">
<path d="M0,0 L44,0 L44,5 L0,5 z" fill="#7A7A7A" fill-opacity="0.5" fill-rule="nonzero" stroke="black" stroke-width="0.21725002"/>
</g>
<g id="item_5">
<path d="M0,0 L42,0 L42,5 L0,5 z" fill="#7A7A7A" fill-opacity="0.5" fill-rule="nonzero" stroke="black" stroke-width="0.21725002"/>
</g>
<g id="item_6">
<path d="M0,0 L21,0 L21,2 L0,2 z" fill="#7A7A7A" fill-opacity="0.5" fill-rule="nonzero" stroke="black" stroke-width="0.21725002"/>
</g>
<g id="item_7">
<path d="M0,0 L15,4 L13,7 L0,6 z" fill="#7A7A7A" fill-opacity="0.5" fill-rule="nonzero" stroke="black" stroke-width="0.21725002"/>
</g>
<g id="item_8">
<path d="M0,0 L15,1 L15,4 L0,4 z" fill="#7A7A7A" fill-opacity="0.5" fill-rule="nonzero" stroke="black" stroke-width="0.21725002"/>
</g>
<g id="item_9">
<path d="M0,0 L14,0 L14,5 L0,5 z" fill="#7A7A7A" fill-opacity="0.5" fill-rule="nonzero" stroke="black" stroke-width="0.21725002"/>
</g>
<g id="item_10">
<path d="M0,0 L14,1 L14,4 L0,4 z" fill="#7A7A7A" fill-opacity="0.5" fill-rule="nonzero" stroke="black" stroke-width="0.21725002"/>
</g>
<g id="item_11">
<path d="M0,0 L13,0 L13,5 L0,5 z" fill="#7A7A7A" fill-opacity="0.5" fill-rule="nonzero" stroke="black" stroke-width="0.21725002"/>
</g>
<g id="item_12">
<path d="M0,0 L13,1 L13,4 L0,4 z" fill="#7A7A7A" fill-opacity="0.5" fill-rule="nonzero" stroke="black" stroke-width="0.21725002"/>
</g>
<g id="item_13">
<path d="M0,0 L12,0 L12,5 L0,5 z" fill="#7A7A7A" fill-opacity="0.5" fill-rule="nonzero" stroke="black" stroke-width="0.21725002"/>
</g>
<g id="item_14">
<path d="M0,0 L4,2 L6,10 L4,11 L-4,11 L-6,10 L-4,2 z" fill="#7A7A7A" fill-opacity="0.5" fill-rule="nonzero" stroke="black" stroke-width="0.21725002"/>
</g>
<g id="item_15">
<path d="M0,0 L3,-2 L8,0 L8,8 L2,8 z" fill="#7A7A7A" fill-opacity="0.5" fill-rule="nonzero" stroke="black" stroke-width="0.21725002"/>
</g>
<g id="item_16">
<path d="M0,0 L2,1 L3,6 L2,7 L-2,7 L-3,6 L-2,1 z" fill="#7A7A7A" fill-opacity="0.5" fill-rule="nonzero" stroke="black" stroke-width="0.21725002"/>
</g>
</defs>
<use transform="translate(115.09671 48.047195), rotate(0)" xlink:href="#item_1">
<title>item, id: 1, transf: [r: 0.000°, t: (115.097, 48.047)]</title>
</use>
<use transform="translate(174.45967 37.969933), rotate(0)" xlink:href="#item_1">
<title>item, id: 1, transf: [r: 0.000°, t: (174.460, 37.970)]</title>
</use>
<use transform="translate(115.00392 38.02719), rotate(-180)" xlink:href="#item_1">
<title>item, id: 1, transf: [r: -180.000°, t: (115.004, 38.027)]</title>
</use>
<use transform="translate(145.48334 16.02356), rotate(-180)" xlink:href="#item_1">
<title>item, id: 1, transf: [r: -180.000°, t: (145.483, 16.024)]</title>
</use>
<use transform="translate(56.000862 48.65052), rotate(-180)" xlink:href="#item_1">
<title>item, id: 1, transf: [r: -180.000°, t: (56.001, 48.651)]</title>
</use>
<use transform="translate(182.48164 73.999306), rotate(0)" xlink:href="#item_1">
<title>item, id: 1, transf: [r: 0.000°, t: (182.482, 73.999)]</title>
</use>
<use transform="translate(40.456608 78.99929), rotate(0)" xlink:href="#item_1">
<title>item, id: 1, transf: [r: 0.000°, t: (40.457, 78.999)]</title>
</use>
<use transform="translate(233.16895 0.00024223328), rotate(-180)" xlink:href="#item_1">
<title>item, id: 1, transf: [r: -180.000°, t: (233.169, 0.000)]</title>
</use>
<use transform="translate(0.00157547 35.64984), rotate(0)" xlink:href="#item_0">
<title>item, id: 0, transf: [r: 0.000°, t: (0.002, 35.650)]</title>
</use>
<use transform="translate(174.00774 61.047432), rotate(-180)" xlink:href="#item_0">
<title>item, id: 0, transf: [r: -180.000°, t: (174.008, 61.047)]</title>
</use>
<use transform="translate(96.45685 60.924206), rotate(0)" xlink:href="#item_0">
<title>item, id: 0, transf: [r: 0.000°, t: (96.457, 60.924)]</title>
</use>
<use transform="translate(177.00243 13.000798), rotate(-180)" xlink:href="#item_0">
<title>item, id: 0, transf: [r: -180.000°, t: (177.002, 13.001)]</title>
</use>
<use transform="translate(118.00113 13.002445), rotate(-180)" xlink:href="#item_0">
<title>item, id: 0, transf: [r: -180.000°, t: (118.001, 13.002)]</title>
</use>
<use transform="translate(89.4796 35.01628), rotate(-180)" xlink:href="#item_0">
<title>item, id: 0, transf: [r: -180.000°, t: (89.480, 35.016)]</title>
</use>
<use transform="translate(230.1325 50.970497), rotate(-180)" xlink:href="#item_0">
<title>item, id: 0, transf: [r: -180.000°, t: (230.133, 50.970)]</title>
</use>
<use transform="translate(59.00028 13.001062), rotate(-180)" xlink:href="#item_0">
<title>item, id: 0, transf: [r: -180.000°, t: (59.000, 13.001)]</title>
</use>
<use transform="translate(238.48589 78.99953), rotate(-180)" xlink:href="#item_2">
<title>item, id: 2, transf: [r: -180.000°, t: (238.486, 79.000)]</title>
</use>
<use transform="translate(148.4568 78.9315), rotate(-180)" xlink:href="#item_3">
<title>item, id: 3, transf: [r: -180.000°, t: (148.457, 78.932)]</title>
</use>
<use transform="translate(86.02818 22.016218), rotate(-180)" xlink:href="#item_4">
<title>item, id: 4, transf: [r: -180.000°, t: (86.028, 22.016)]</title>
</use>
<use transform="translate(42.017353 21.967276), rotate(-180)" xlink:href="#item_5">
<title>item, id: 5, transf: [r: -180.000°, t: (42.017, 21.967)]</title>
</use>
<use transform="translate(6.00028 23.808395), rotate(0)" xlink:href="#item_14">
<title>item, id: 14, transf: [r: 0.000°, t: (6.000, 23.808)]</title>
</use>
<use transform="translate(156.97621 26.428396), rotate(-180)" xlink:href="#item_14">
<title>item, id: 14, transf: [r: -180.000°, t: (156.976, 26.428)]</title>
</use>
<use transform="translate(24.633467 23.633383), rotate(0)" xlink:href="#item_14">
<title>item, id: 14, transf: [r: 0.000°, t: (24.633, 23.633)]</title>
</use>
<use transform="translate(21.181822 67.99982), rotate(0)" xlink:href="#item_14">
<title>item, id: 14, transf: [r: 0.000°, t: (21.182, 68.000)]</title>
</use>
<use transform="translate(167.1523 13.851181), rotate(0)" xlink:href="#item_14">
<title>item, id: 14, transf: [r: 0.000°, t: (167.152, 13.851)]</title>
</use>
<use transform="translate(167.09007 72.96661), rotate(-180)" xlink:href="#item_14">
<title>item, id: 14, transf: [r: -180.000°, t: (167.090, 72.967)]</title>
</use>
<use transform="translate(15.297781 32.97002), rotate(-180)" xlink:href="#item_14">
<title>item, id: 14, transf: [r: -180.000°, t: (15.298, 32.970)]</title>
</use>
<use transform="translate(176.48146 63.403923), rotate(0)" xlink:href="#item_14">
<title>item, id: 14, transf: [r: 0.000°, t: (176.481, 63.404)]</title>
</use>
<use transform="translate(87.953705 55.04391), rotate(0)" xlink:href="#item_9">
<title>item, id: 9, transf: [r: 0.000°, t: (87.954, 55.044)]</title>
</use>
<use transform="translate(0.68598986 67.117096), rotate(0)" xlink:href="#item_7">
<title>item, id: 7, transf: [r: 0.000°, t: (0.686, 67.117)]</title>
</use>
<use transform="translate(56.002472 54.53332), rotate(0)" xlink:href="#item_7">
<title>item, id: 7, transf: [r: 0.000°, t: (56.002, 54.533)]</title>
</use>
<use transform="translate(186.14328 56.048832), rotate(-180)" xlink:href="#item_7">
<title>item, id: 7, transf: [r: -180.000°, t: (186.143, 56.049)]</title>
</use>
<use transform="translate(174.45761 31.723173), rotate(-180)" xlink:href="#item_7">
<title>item, id: 7, transf: [r: -180.000°, t: (174.458, 31.723)]</title>
</use>
<use transform="translate(238.48708 21.85385), rotate(-180)" xlink:href="#item_7">
<title>item, id: 7, transf: [r: -180.000°, t: (238.487, 21.854)]</title>
</use>
<use transform="translate(172.62201 15.72756), rotate(0)" xlink:href="#item_7">
<title>item, id: 7, transf: [r: 0.000°, t: (172.622, 15.728)]</title>
</use>
<use transform="translate(163.46242 71.999916), rotate(0)" xlink:href="#item_7">
<title>item, id: 7, transf: [r: 0.000°, t: (163.462, 72.000)]</title>
</use>
<use transform="translate(196.62671 49.95186), rotate(0)" xlink:href="#item_7">
<title>item, id: 7, transf: [r: 0.000°, t: (196.627, 49.952)]</title>
</use>
<use transform="translate(13.001938 16.501884), rotate(-180)" xlink:href="#item_11">
<title>item, id: 11, transf: [r: -180.000°, t: (13.002, 16.502)]</title>
</use>
<use transform="translate(147.98752 16.01564), rotate(-180)" xlink:href="#item_6">
<title>item, id: 6, transf: [r: -180.000°, t: (147.988, 16.016)]</title>
</use>
<use transform="translate(94.02011 15.011254), rotate(-180)" xlink:href="#item_6">
<title>item, id: 6, transf: [r: -180.000°, t: (94.020, 15.011)]</title>
</use>
<use transform="translate(122.20065 12.014934), rotate(0)" xlink:href="#item_6">
<title>item, id: 6, transf: [r: 0.000°, t: (122.201, 12.015)]</title>
</use>
<use transform="translate(61.04102 36.799877), rotate(-180)" xlink:href="#item_6">
<title>item, id: 6, transf: [r: -180.000°, t: (61.041, 36.800)]</title>
</use>
<use transform="translate(67.123764 15.016214), rotate(0)" xlink:href="#item_6">
<title>item, id: 6, transf: [r: 0.000°, t: (67.124, 15.016)]</title>
</use>
<use transform="translate(126.986244 16.021717), rotate(-180)" xlink:href="#item_6">
<title>item, id: 6, transf: [r: -180.000°, t: (126.986, 16.022)]</title>
</use>
<use transform="translate(79.257904 36.005394), rotate(0)" xlink:href="#item_6">
<title>item, id: 6, transf: [r: 0.000°, t: (79.258, 36.005)]</title>
</use>
<use transform="translate(67.12239 17.012714), rotate(-180)" xlink:href="#item_6">
<title>item, id: 6, transf: [r: -180.000°, t: (67.122, 17.013)]</title>
</use>
<use transform="translate(163.45699 78.99743), rotate(-180)" xlink:href="#item_8">
<title>item, id: 8, transf: [r: -180.000°, t: (163.457, 78.997)]</title>
</use>
<use transform="translate(25.02149 16.963692), rotate(-180)" xlink:href="#item_13">
<title>item, id: 13, transf: [r: -180.000°, t: (25.021, 16.964)]</title>
</use>
<use transform="translate(0.0015311241 73.996864), rotate(0)" xlink:href="#item_13">
<title>item, id: 13, transf: [r: 0.000°, t: (0.002, 73.997)]</title>
</use>
<use transform="translate(182.03629 62.421486), rotate(-180)" xlink:href="#item_15">
<title>item, id: 15, transf: [r: -180.000°, t: (182.036, 62.421)]</title>
</use>
<use transform="translate(153.48335 26.530851), rotate(-180)" xlink:href="#item_15">
<title>item, id: 15, transf: [r: -180.000°, t: (153.483, 26.531)]</title>
</use>
<use transform="translate(163.4571 72.80328), rotate(-180)" xlink:href="#item_15">
<title>item, id: 15, transf: [r: -180.000°, t: (163.457, 72.803)]</title>
</use>
<use transform="translate(238.48537 38.51606), rotate(-180)" xlink:href="#item_15">
<title>item, id: 15, transf: [r: -180.000°, t: (238.485, 38.516)]</title>
</use>
<use transform="translate(238.48183 54.998676), rotate(-180)" xlink:href="#item_15">
<title>item, id: 15, transf: [r: -180.000°, t: (238.482, 54.999)]</title>
</use>
<use transform="translate(230.46564 22.515059), rotate(0)" xlink:href="#item_15">
<title>item, id: 15, transf: [r: 0.000°, t: (230.466, 22.515)]</title>
</use>
<use transform="translate(32.456425 66.93347), rotate(0)" xlink:href="#item_15">
<title>item, id: 15, transf: [r: 0.000°, t: (32.456, 66.933)]</title>
</use>
<use transform="translate(24.726648 68.03285), rotate(0)" xlink:href="#item_15">
<title>item, id: 15, transf: [r: 0.000°, t: (24.727, 68.033)]</title>
</use>
<use transform="translate(59.002132 11.009104), rotate(0)" xlink:href="#item_10">
<title>item, id: 10, transf: [r: 0.000°, t: (59.002, 11.009)]</title>
</use>
<use transform="translate(114.96487 58.24208), rotate(-180)" xlink:href="#item_12">
<title>item, id: 12, transf: [r: -180.000°, t: (114.965, 58.242)]</title>
</use>
<use transform="translate(25.063255 12.941985), rotate(0)" xlink:href="#item_12">
<title>item, id: 12, transf: [r: 0.000°, t: (25.063, 12.942)]</title>
</use>
<use transform="translate(189.24878 56.888084), rotate(-180)" xlink:href="#item_16">
<title>item, id: 16, transf: [r: -180.000°, t: (189.249, 56.888)]</title>
</use>
<use transform="translate(234.19133 39.998627), rotate(0)" xlink:href="#item_16">
<title>item, id: 16, transf: [r: 0.000°, t: (234.191, 39.999)]</title>
</use>
<use transform="translate(193.93527 51.50269), rotate(0)" xlink:href="#item_16">
<title>item, id: 16, transf: [r: 0.000°, t: (193.935, 51.503)]</title>
</use>
<use transform="translate(229.41275 45.888206), rotate(-180)" xlink:href="#item_16">
<title>item, id: 16, transf: [r: -180.000°, t: (229.413, 45.888)]</title>
</use>
</g>
<g id="quality_zones"/>
<g id="optionals">
<g id="overlap_lines" transform="translate(0 0), rotate(0)"/>
</g>
<text font-family="monospace" font-size="1.975" font-weight="500" x="0" y="-0.9875">
height: 79.000 | width: 238.487 | usage: 91.327% | final_bench_98
</text>
</svg>