<svg viewBox="-11.816804 -3.950001 259.96964 86.90001" xmlns="http://www.w3.org/2000/svg" xmlns:xlink="http://www.w3.org/1999/xlink">
<g id="bin_0">
<path d="M0,0 L236.33601,0 L236.33601,79 L0,79 z" fill="#D3D3D3" stroke="black" stroke-width="0.43450004"/>
<title>bin, id: 0, bbox: [x_min: 0.000, y_min: 0.000, x_max: 236.336, y_max: 79.000]</title>
</g>
<g id="items">
<defs>
<g id="item_0">
<path d="M0,0 L12,-1 L14,-3.0000005 L24,0 L33,1 L59,2 L59,13 L4,13 L4,8 L2,5 L0,5 z" fill="#7A7A7A" fill-opacity="0.5" fill-rule="nonzero" stroke="black" stroke-width="0.21725002"/>
</g>
<g id="item_1">
<path d="M0,0 L0,-14 L27,-17 L37,-20 L41,-22 L47,-19 L56,-16 L56,0 z" fill="#7A7A7A" fill-opacity="0.5" fill-rule="nonzero" stroke="black" stroke-width="0.21725002"/>
</g>
<g id="item_2">
<path d="M0,0 L57,0 L57,5 L0,5 z" fill="#7A7A7A" fill-opacity="0.5" fill-rule="nonzero" stroke="black" stroke-width="0.21725002"/>
</g>
<g id="item_3">
<path d="M0,0 L52,0 L52,5 L0,5 z" fill="#7A7A7A" fill-opacity="0.5" fill-rule="nonzero" stroke="black" stroke-width="0.21725002"/>
</g>
<g id="item_4">
<path d="M0,0 L44,0 L44,5 L0,5 z" fill="#7A7A7A" fill-opacity="0.5" fill-rule="nonzero" stroke="black" stroke-width="0.21725002"/>
</g>
<g id="item_5">
<path d="M0,0 L42,0 L42,5 L0,5 z" fill="#7A7A7A" fill-opacity="0.5" fill-rule="nonzero" stroke="black" stroke-width="0.21725002"/>
</g>
<g id="item_6">
<path d="M0,0 L21,0 L21,2 L0,2 z" fill="#7A7A7A" fill-opacity="0.5" fill-rule="nonzero" stroke="black" stroke-width="0.21725002"/>
</g>
<g id="item_7">
<path d="M0,0 L15,4 L13,7 L0,6 z" fill="#7A7A7A" fill-opacity="0.5" fill-rule="nonzero" stroke="black" stroke-width="0.21725002"/>
</g>
<g id="item_8">
<path d="M0,0 L15,1 L15,4 L0,4 z" fill="#7A7A7A" fill-opacity="0.5" fill-rule="nonzero" stroke="black" stroke-width="0.21725002"/>
</g>
<g id="item_9">
<path d="M0,0 L14,0 L14,5 L0,5 z" fill="#7A7A7A" fill-opacity="0.5" fill-rule="nonzero" stroke="black" stroke-width="0.21725002"/>
</g>
<g id="item_10">
<path d="M0,0 L14,1 L14,4 L0,4 z" fill="#7A7A7A" fill-opacity="0.5" fill-rule="nonzero" stroke="black" stroke-width="0.21725002"/>
</g>
<g id="item_11">
<path d="M0,0 L13,0 L13,5 L0,5 z" fill="#7A7A7A" fill-opacity="0.5" fill-rule="nonzero" stroke="black" stroke-width="0.21725002"/>
</g>
<g id="item_12">
<path d="M0,0 L13,1 L13,4 L0,4 z" fill="#7A7A7A" fill-opacity="0.5" fill-rule="nonzero" stroke="black" stroke-width="0.21725002"/>
</g>
<g id="item_13">
<path d="M0,0 L12,0 L12,5 L0,5 z" fill="#7A7A7A" fill-opacity="0.5" fill-rule="nonzero" stroke="black" stroke-width="0.21725002"/>
</g>
<g id="item_14">
<path d="M0,0 L4,2 L6,10 L4,11 L-4,11 L-6,10 L-4,2 z" fill="#7A7A7A" fill-opacity="0.5" fill-rule="nonzero" stroke="black" stroke-width="0.21725002"/>
</g>
<g id="item_15">
<path d="M0,0 L3,-2 L8,0 L8,8 L2,8 z" fill="#7A7A7A" fill-opacity="0.5" fill-rule="nonzero" stroke="black" stroke-width="0.21725002"/>
</g>
<g id="item_16">
<path d="M0,0 L2,1 L3,6 L2,7 L-2,7 L-3,6 L-2,1 z" fill="#7A7A7A" fill-opacity="0.5" fill-rule="nonzero" stroke="black" stroke-width="0.21725002"/>
</g>
</defs>
<use transform="translate(56.000023 45.929657), rotate(-180)" xlink:href="#item_1">
<title>item, id: 1, transf: [r: -180.000°, t: (56.000, 45.930)]</title>
</use>
<use transform="translate(66.13487 42.089127), rotate(0)" xlink:href="#item_1">
<title>item, id: 1, transf: [r: 0.000°, t: (66.135, 42.089)]</title>
</use>
<use transform="translate(22.134083 78.9988), rotate(0)" xlink:href="#item_1">
<title>item, id: 1, transf: [r: 0.000°, t: (22.134, 78.999)]</title>
</use>
<use transform="translate(56.002655 5.0119724), rotate(-180)" xlink:href="#item_1">
<title>item, id: 1, transf: [r: -180.000°, t: (56.003, 5.012)]</title>
</use>
<use transform="translate(112.002716 5.0024433), rotate(-180)" xlink:href="#item_1">
<title>item, id: 1, transf: [r: -180.000°, t: (112.003, 5.002)]</title>
</use>
<use transform="translate(121.3224 42.08945), rotate(-180)" xlink:href="#item_1">
<title>item, id: 1, transf: [r: -180.000°, t: (121.322, 42.089)]</title>
</use>
<use transform="translate(139.1592 78.99841), rotate(0)" xlink:href="#item_1">
<title>item, id: 1, transf: [r: 0.000°, t: (139.159, 78.998)]</title>
</use>
<use transform="translate(236.33516 41.085175), rotate(-180)" xlink:href="#item_1">
<title>item, id: 1, transf: [r: -180.000°, t: (236.335, 41.085)]</title>
</use>
<use transform="translate(174.59247 13.024807), rotate(-180)" xlink:href="#item_0">
<title>item, id: 0, transf: [r: -180.000°, t: (174.592, 13.025)]</title>
</use>
<use transform="translate(180.32773 56.807457), rotate(-180)" xlink:href="#item_0">
<title>item, id: 0, transf: [r: -180.000°, t: (180.328, 56.807)]</title>
</use>
<use transform="translate(181.1379 40.790382), rotate(-180)" xlink:href="#item_0">
<title>item, id: 0, transf: [r: -180.000°, t: (181.138, 40.790)]</title>
</use>
<use transform="translate(80.14311 65.999504), rotate(0)" xlink:href="#item_0">
<title>item, id: 0, transf: [r: 0.000°, t: (80.143, 66.000)]</title>
</use>
<use transform="translate(7.1331043 27.889193), rotate(0)" xlink:href="#item_0">
<title>item, id: 0, transf: [r: 0.000°, t: (7.133, 27.889)]</title>
</use>
<use transform="translate(119.33666 14.710287), rotate(0)" xlink:href="#item_0">
<title>item, id: 0, transf: [r: 0.000°, t: (119.337, 14.710)]</title>
</use>
<use transform="translate(177.33539 28.084848), rotate(0)" xlink:href="#item_0">
<title>item, id: 0, transf: [r: 0.000°, t: (177.335, 28.085)]</title>
</use>
<use transform="translate(234.32597 18.000385), rotate(-180)" xlink:href="#item_0">
<title>item, id: 0, transf: [r: -180.000°, t: (234.326, 18.000)]</title>
</use>
<use transform="translate(55.438927 0.0011217594), rotate(0)" xlink:href="#item_2">
<title>item, id: 2, transf: [r: 0.000°, t: (55.439, 0.001)]</title>
</use>
<use transform="translate(64.852554 45.92815), rotate(-180)" xlink:href="#item_3">
<title>item, id: 3, transf: [r: -180.000°, t: (64.853, 45.928)]</title>
</use>
<use transform="translate(170.59602 0.00014472008), rotate(0)" xlink:href="#item_4">
<title>item, id: 4, transf: [r: 0.000°, t: (170.596, 0.000)]</title>
</use>
<use transform="translate(0.26118088 0.009750843), rotate(0)" xlink:href="#item_5">
<title>item, id: 5, transf: [r: 0.000°, t: (0.261, 0.010)]</title>
</use>
<use transform="translate(213.58972 69.06394), rotate(-180)" xlink:href="#item_14">
<title>item, id: 14, transf: [r: -180.000°, t: (213.590, 69.064)]</title>
</use>
<use transform="translate(184.33676 27.501312), rotate(-180)" xlink:href="#item_14">
<title>item, id: 14, transf: [r: -180.000°, t: (184.337, 27.501)]</title>
</use>
<use transform="translate(201.25989 78.9998), rotate(-180)" xlink:href="#item_14">
<title>item, id: 14, transf: [r: -180.000°, t: (201.260, 79.000)]</title>
</use>
<use transform="translate(6.1098433 34.884624), rotate(0)" xlink:href="#item_14">
<title>item, id: 14, transf: [r: 0.000°, t: (6.110, 34.885)]</title>
</use>
<use transform="translate(230.3251 67.99635), rotate(0)" xlink:href="#item_14">
<title>item, id: 14, transf: [r: 0.000°, t: (230.325, 67.996)]</title>
</use>
<use transform="translate(220.68097 78.57287), rotate(-180)" xlink:href="#item_14">
<title>item, id: 14, transf: [r: -180.000°, t: (220.681, 78.573)]</title>
</use>
<use transform="translate(223.7223 56.569057), rotate(0)" xlink:href="#item_14">
<title>item, id: 14, transf: [r: 0.000°, t: (223.722, 56.569)]</title>
</use>
<use transform="translate(211.03487 67.99266), rotate(0)" xlink:href="#item_14">
<title>item, id: 14, transf: [r: 0.000°, t: (211.035, 67.993)]</title>
</use>
<use transform="translate(150.16774 61.738968), rotate(-180)" xlink:href="#item_9">
<title>item, id: 9, transf: [r: -180.000°, t: (150.168, 61.739)]</title>
</use>
<use transform="translate(52.78525 21.395187), rotate(0)" xlink:href="#item_7">
<title>item, id: 7, transf: [r: 0.000°, t: (52.785, 21.395)]</title>
</use>
<use transform="translate(107.53989 60.264923), rotate(0)" xlink:href="#item_7">
<title>item, id: 7, transf: [r: 0.000°, t: (107.540, 60.265)]</title>
</use>
<use transform="translate(106.68447 66.28148), rotate(-180)" xlink:href="#item_7">
<title>item, id: 7, transf: [r: -180.000°, t: (106.684, 66.281)]</title>
</use>
<use transform="translate(123.27292 64.459625), rotate(-180)" xlink:href="#item_7">
<title>item, id: 7, transf: [r: -180.000°, t: (123.273, 64.460)]</title>
</use>
<use transform="translate(136.16461 61.88064), rotate(-180)" xlink:href="#item_7">
<title>item, id: 7, transf: [r: -180.000°, t: (136.165, 61.881)]</title>
</use>
<use transform="translate(222.1958 27.268406), rotate(-180)" xlink:href="#item_7">
<title>item, id: 7, transf: [r: -180.000°, t: (222.196, 27.268)]</title>
</use>
<use transform="translate(203.65086 22.32672), rotate(0)" xlink:href="#item_7">
<title>item, id: 7, transf: [r: 0.000°, t: (203.651, 22.327)]</title>
</use>
<use transform="translate(203.64961 28.339275), rotate(-180)" xlink:href="#item_7">
<title>item, id: 7, transf: [r: -180.000°, t: (203.650, 28.339)]</title>
</use>
<use transform="translate(55.43884 5.0040836), rotate(-180)" xlink:href="#item_11">
<title>item, id: 11, transf: [r: -180.000°, t: (55.439, 5.004)]</title>
</use>
<use transform="translate(123.27417 61.8809), rotate(0)" xlink:href="#item_6">
<title>item, id: 6, transf: [r: 0.000°, t: (123.274, 61.881)]</title>
</use>
<use transform="translate(215.33476 0.00023341179), rotate(0)" xlink:href="#item_6">
<title>item, id: 6, transf: [r: 0.000°, t: (215.335, 0.000)]</title>
</use>
<use transform="translate(190.18947 18.267853), rotate(0)" xlink:href="#item_6">
<title>item, id: 6, transf: [r: 0.000°, t: (190.189, 18.268)]</title>
</use>
<use transform="translate(31.267406 21.846123), rotate(0)" xlink:href="#item_6">
<title>item, id: 6, transf: [r: 0.000°, t: (31.267, 21.846)]</title>
</use>
<use transform="translate(143.92221 43.757904), rotate(-180)" xlink:href="#item_6">
<title>item, id: 6, transf: [r: -180.000°, t: (143.922, 43.758)]</title>
</use>
<use transform="translate(214.60161 2.0003617), rotate(0)" xlink:href="#item_6">
<title>item, id: 6, transf: [r: 0.000°, t: (214.602, 2.000)]</title>
</use>
<use transform="translate(122.92723 39.663895), rotate(0)" xlink:href="#item_6">
<title>item, id: 6, transf: [r: 0.000°, t: (122.927, 39.664)]</title>
</use>
<use transform="translate(22.1124 78.99999), rotate(-180)" xlink:href="#item_6">
<title>item, id: 6, transf: [r: -180.000°, t: (22.112, 79.000)]</title>
</use>
<use transform="translate(139.0407 67.98451), rotate(-180)" xlink:href="#item_8">
<title>item, id: 8, transf: [r: -180.000°, t: (139.041, 67.985)]</title>
</use>
<use transform="translate(52.77408 28.862797), rotate(-180)" xlink:href="#item_13">
<title>item, id: 13, transf: [r: -180.000°, t: (52.774, 28.863)]</title>
</use>
<use transform="translate(207.62767 67.97294), rotate(-180)" xlink:href="#item_13">
<title>item, id: 13, transf: [r: -180.000°, t: (207.628, 67.973)]</title>
</use>
<use transform="translate(228.33519 20.273317), rotate(0)" xlink:href="#item_15">
<title>item, id: 15, transf: [r: 0.000°, t: (228.335, 20.273)]</title>
</use>
<use transform="translate(56.92134 48.900574), rotate(0)" xlink:href="#item_15">
<title>item, id: 15, transf: [r: 0.000°, t: (56.921, 48.901)]</title>
</use>
<use transform="translate(227.52063 57.73143), rotate(0)" xlink:href="#item_15">
<title>item, id: 15, transf: [r: 0.000°, t: (227.521, 57.731)]</title>
</use>
<use transform="translate(120.00277 22.377417), rotate(-180)" xlink:href="#item_15">
<title>item, id: 15, transf: [r: -180.000°, t: (120.003, 22.377)]</title>
</use>
<use transform="translate(6.13155 67.500305), rotate(0)" xlink:href="#item_15">
<title>item, id: 15, transf: [r: 0.000°, t: (6.132, 67.500)]</title>
</use>
<use transform="translate(230.19803 27.729467), rotate(-180)" xlink:href="#item_15">
<title>item, id: 15, transf: [r: -180.000°, t: (230.198, 27.729)]</title>
</use>
<use transform="translate(14.132769 68.99602), rotate(0)" xlink:href="#item_15">
<title>item, id: 15, transf: [r: 0.000°, t: (14.133, 68.996)]</title>
</use>
<use transform="translate(8.000015 74.9919), rotate(-180)" xlink:href="#item_15">
<title>item, id: 15, transf: [r: -180.000°, t: (8.000, 74.992)]</title>
</use>
<use transform="translate(150.29135 58.19812), rotate(0)" xlink:href="#item_10">
<title>item, id: 10, transf: [r: 0.000°, t: (150.291, 58.198)]</title>
</use>
<use transform="translate(144.03845 39.79233), rotate(0)" xlink:href="#item_12">
<title>item, id: 12, transf: [r: 0.000°, t: (144.038, 39.792)]</title>
</use>
<use transform="translate(40.753593 27.84729), rotate(-180)" xlink:href="#item_12">
<title>item, id: 12, transf: [r: -180.000°, t: (40.754, 27.847)]</title>
</use>
<use transform="translate(3.0029767 22.022333), rotate(0)" xlink:href="#item_16">
<title>item, id: 16, transf: [r: 0.000°, t: (3.003, 22.022)]</title>
</use>
<use transform="translate(81.13484 71.99805), rotate(0)" xlink:href="#item_16">
<title>item, id: 16, transf: [r: 0.000°, t: (81.135, 71.998)]</title>
</use>
<use transform="translate(3.7467148 36.066128), rotate(-180)" xlink:href="#item_16">
<title>item, id: 16, transf: [r: -180.000°, t: (3.747, 36.066)]</title>
</use>
<use transform="translate(233.33429 11.003083), rotate(-180)" xlink:href="#item_16">
<title>item, id: 16, transf: [r: -180.000°, t: (233.334, 11.003)]</title>
</use>
</g>
<g id="quality_zones"/>
<g id="optionals">
<g id="overlap_lines" transform="translate(0 0), rotate(0)"/>
</g>
<text font-family="monospace" font-size="1.975" font-weight="500" x="0" y="-0.9875">
height: 79.000 | width: 236.336 | usage: 92.159% | final_bench_20
</text>
</svg>