<svg viewBox="-11.920545 -3.950001 262.25192 86.90001" xmlns="http://www.w3.org/2000/svg" xmlns:xlink="http://www.w3.org/1999/xlink">
<g id="bin_0">
<path d="M0,0 L238.41084,0 L238.41084,79 L0,79 z" fill="#D3D3D3" stroke="black" stroke-width="0.43450004"/>
<title>bin, id: 0, bbox: [x_min: 0.000, y_min: 0.000, x_max: 238.411, y_max: 79.000]</title>
</g>
<g id="items">
<defs>
<g id="item_0">
<path d="M0,0 L12,-1 L14,-3.0000005 L24,0 L33,1 L59,2 L59,13 L4,13 L4,8 L2,5 L0,5 z" fill="#7A7A7A" fill-opacity="0.5" fill-rule="nonzero" stroke="black" stroke-width="0.21725002"/>
</g>
<g id="item_1">
<path d="M0,0 L0,-14 L27,-17 L37,-20 L41,-22 L47,-19 L56,-16 L56,0 z" fill="#7A7A7A" fill-opacity="0.5" fill-rule="nonzero" stroke="black" stroke-width="0.21725002"/>
</g>
<g id="item_2">
<path d="M0,0 L57,0 L57,5 L0,5 z" fill="#7A7A7A" fill-opacity="0.5" fill-rule="nonzero" stroke="black" stroke-width="0.21725002"/>
</g>
<g id="item_3">
<path d="M0,0 L52,0 L52,5 L0,5 z" fill="#7A7A7A" fill-opacity="0.5" fill-rule="nonzero" stroke="black" stroke-width="0.21725002"/>
</g>
<g id="item_4">
<path d="M0,0 L44,0 L44,5 L0,5 z" fill="#7A7A7A" fill-opacity="0.5" fill-rule="nonzero" stroke="black" stroke-width="0.21725002"/>
</g>
<g id="item_5">
<path d="M0,0 L42,0 L42,5 L0,5 z" fill="#7A7A7A" fill-opacity="0.5" fill-rule="nonzero" stroke="black" stroke-width="0.21725002"/>
</g>
<g id="item_6">
<path d="M0,0 L21,0 L21,2 L0,2 z" fill="#7A7A7A" fill-opacity="0.5" fill-rule="nonzero" stroke="black" stroke-width="0.21725002"/>
</g>
<g id="item_7">
<path d="M0,0 L15,4 L13,7 L0,6 z" fill="#7A7A7A" fill-opacity="0.5" fill-rule="nonzero" stroke="black" stroke-width="0.21725002"/>
</g>
<g id="item_8">
<path d="M0,0 L15,1 L15,4 L0,4 z" fill="#7A7A7A" fill-opacity="0.5" fill-rule="nonzero" stroke="black" stroke-width="0.21725002"/>
</g>
<g id="item_9">
<path d="M0,0 L14,0 L14,5 L0,5 z" fill="#7A7A7A" fill-opacity="0.5" fill-rule="nonzero" stroke="black" stroke-width="0.21725002"/>
</g>
<g id="item_10">
<path d="M0,0 L14,1 L14,4 L0,4 z" fill="#7A7A7A" fill-opacity="0.5" fill-rule="nonzero" stroke="black" stroke-width="0.21725002"/>
</g>
<g id="item_11">
<path d="M0,0 L13,0 L13,5 L0,5 z" fill="#7A7A7A" fill-opacity="0.5" fill-rule="nonzero" stroke="black" stroke-width="0.21725002"/>
</g>
<g id="item_12">
<path d="M0,0 L13,1 L13,4 L0,4 z" fill="#7A7A7A" fill-opacity="0.5" fill-rule="nonzero" stroke="black" stroke-width="0.21725002"/>
</g>
<g id="item_13">
<path d="M0,0 L12,0 L12,5 L0,5 z" fill="#7A7A7A" fill-opacity="0.5" fill-rule="nonzero" stroke="black" stroke-width="0.21725002"/>
</g>
<g id="item_14">
<path d="M0,0 L4,2 L6,10 L4,11 L-4,11 L-6,10 L-4,2 z" fill="#7A7A7A" fill-opacity="0.5" fill-rule="nonzero" stroke="black" stroke-width="0.21725002"/>
</g>
<g id="item_15">
<path d="M0,0 L3,-2 L8,0 L8,8 L2,8 z" fill="#7A7A7A" fill-opacity="0.5" fill-rule="nonzero" stroke="black" stroke-width="0.21725002"/>
</g>
<g id="item_16">
<path d="M0,0 L2,1 L3,6 L2,7 L-2,7 L-3,6 L-2,1 z" fill="#7A7A7A" fill-opacity="0.5" fill-rule="nonzero" stroke="black" stroke-width="0.21725002"/>
</g>
</defs>
<use transform="translate(171.21631 5.007944), rotate(-180)" xlink:href="#item_1">
<title>item, id: 1, transf: [r: -180.000°, t: (171.216, 5.008)]</title>
</use>
<use transform="translate(56.016594 0.0048913956), rotate(-180)" xlink:href="#item_1">
<title>item, id: 1, transf: [r: -180.000°, t: (56.017, 0.005)]</title>
</use>
<use transform="translate(170.08023 43.202316), rotate(-180)" xlink:href="#item_1">
<title>item, id: 1, transf: [r: -180.000°, t: (170.080, 43.202)]</title>
</use>
<use transform="translate(56.012886 42.73744), rotate(-180)" xlink:href="#item_1">
<title>item, id: 1, transf: [r: -180.000°, t: (56.013, 42.737)]</title>
</use>
<use transform="translate(12.664707 78.999146), rotate(0)" xlink:href="#item_1">
<title>item, id: 1, transf: [r: 0.000°, t: (12.665, 78.999)]</title>
</use>
<use transform="translate(68.67285 78.99942), rotate(0)" xlink:href="#item_1">
<title>item, id: 1, transf: [r: 0.000°, t: (68.673, 78.999)]</title>
</use>
<use transform="translate(113.28479 42.597084), rotate(-180)" xlink:href="#item_1">
<title>item, id: 1, transf: [r: -180.000°, t: (113.285, 42.597)]</title>
</use>
<use transform="translate(59.001842 42.59665), rotate(0)" xlink:href="#item_1">
<title>item, id: 1, transf: [r: 0.000°, t: (59.002, 42.597)]</title>
</use>
<use transform="translate(115.21448 13.0064945), rotate(-180)" xlink:href="#item_0">
<title>item, id: 0, transf: [r: -180.000°, t: (115.214, 13.006)]</title>
</use>
<use transform="translate(230.22308 20.06646), rotate(-180)" xlink:href="#item_0">
<title>item, id: 0, transf: [r: -180.000°, t: (230.223, 20.066)]</title>
</use>
<use transform="translate(115.00204 30.201464), rotate(0)" xlink:href="#item_0">
<title>item, id: 0, transf: [r: 0.000°, t: (115.002, 30.201)]</title>
</use>
<use transform="translate(0.00055122375 24.72258), rotate(0)" xlink:href="#item_0">
<title>item, id: 0, transf: [r: 0.000°, t: (0.001, 24.723)]</title>
</use>
<use transform="translate(238.40782 68.64717), rotate(-180)" xlink:href="#item_0">
<title>item, id: 0, transf: [r: -180.000°, t: (238.408, 68.647)]</title>
</use>
<use transform="translate(238.41061 41.09236), rotate(-180)" xlink:href="#item_0">
<title>item, id: 0, transf: [r: -180.000°, t: (238.411, 41.092)]</title>
</use>
<use transform="translate(179.41083 42.646763), rotate(0)" xlink:href="#item_0">
<title>item, id: 0, transf: [r: 0.000°, t: (179.411, 42.647)]</title>
</use>
<use transform="translate(124.67371 65.99464), rotate(0)" xlink:href="#item_0">
<title>item, id: 0, transf: [r: 0.000°, t: (124.674, 65.995)]</title>
</use>
<use transform="translate(57.12876 42.733227), rotate(-180)" xlink:href="#item_2">
<title>item, id: 2, transf: [r: -180.000°, t: (57.129, 42.733)]</title>
</use>
<use transform="translate(225.57985 7.0602665), rotate(-180)" xlink:href="#item_3">
<title>item, id: 3, transf: [r: -180.000°, t: (225.580, 7.060)]</title>
</use>
<use transform="translate(155.58868 5.000042), rotate(-180)" xlink:href="#item_4">
<title>item, id: 4, transf: [r: -180.000°, t: (155.589, 5.000)]</title>
</use>
<use transform="translate(175.22667 23.091307), rotate(0)" xlink:href="#item_5">
<title>item, id: 5, transf: [r: 0.000°, t: (175.227, 23.091)]</title>
</use>
<use transform="translate(195.54242 78.42291), rotate(-180)" xlink:href="#item_14">
<title>item, id: 14, transf: [r: -180.000°, t: (195.542, 78.423)]</title>
</use>
<use transform="translate(6.658546 62.990974), rotate(0)" xlink:href="#item_14">
<title>item, id: 14, transf: [r: 0.000°, t: (6.659, 62.991)]</title>
</use>
<use transform="translate(205.2855 67.98726), rotate(0)" xlink:href="#item_14">
<title>item, id: 14, transf: [r: 0.000°, t: (205.286, 67.987)]</title>
</use>
<use transform="translate(161.7443 31.509151), rotate(-180)" xlink:href="#item_14">
<title>item, id: 14, transf: [r: -180.000°, t: (161.744, 31.509)]</title>
</use>
<use transform="translate(232.10753 16.004986), rotate(-180)" xlink:href="#item_14">
<title>item, id: 14, transf: [r: -180.000°, t: (232.108, 16.005)]</title>
</use>
<use transform="translate(54.247387 25.672213), rotate(-180)" xlink:href="#item_14">
<title>item, id: 14, transf: [r: -180.000°, t: (54.247, 25.672)]</title>
</use>
<use transform="translate(63.775314 16.097065), rotate(0)" xlink:href="#item_14">
<title>item, id: 14, transf: [r: 0.000°, t: (63.775, 16.097)]</title>
</use>
<use transform="translate(75.51865 15.007711), rotate(0)" xlink:href="#item_14">
<title>item, id: 14, transf: [r: 0.000°, t: (75.519, 15.008)]</title>
</use>
<use transform="translate(157.03716 0.0041298866), rotate(0)" xlink:href="#item_9">
<title>item, id: 9, transf: [r: 0.000°, t: (157.037, 0.004)]</title>
</use>
<use transform="translate(91.19477 19.004782), rotate(-180)" xlink:href="#item_7">
<title>item, id: 7, transf: [r: -180.000°, t: (91.195, 19.005)]</title>
</use>
<use transform="translate(80.83863 16.245007), rotate(0)" xlink:href="#item_7">
<title>item, id: 7, transf: [r: 0.000°, t: (80.839, 16.245)]</title>
</use>
<use transform="translate(149.78137 60.117325), rotate(0)" xlink:href="#item_7">
<title>item, id: 7, transf: [r: 0.000°, t: (149.781, 60.117)]</title>
</use>
<use transform="translate(33.24109 19.18846), rotate(0)" xlink:href="#item_7">
<title>item, id: 7, transf: [r: 0.000°, t: (33.241, 19.188)]</title>
</use>
<use transform="translate(149.72481 31.256378), rotate(-180)" xlink:href="#item_7">
<title>item, id: 7, transf: [r: -180.000°, t: (149.725, 31.256)]</title>
</use>
<use transform="translate(71.24042 18.086994), rotate(-180)" xlink:href="#item_7">
<title>item, id: 7, transf: [r: -180.000°, t: (71.240, 18.087)]</title>
</use>
<use transform="translate(107.90642 22.703869), rotate(-180)" xlink:href="#item_7">
<title>item, id: 7, transf: [r: -180.000°, t: (107.906, 22.704)]</title>
</use>
<use transform="translate(48.643997 23.268724), rotate(-180)" xlink:href="#item_7">
<title>item, id: 7, transf: [r: -180.000°, t: (48.644, 23.269)]</title>
</use>
<use transform="translate(218.29236 21.07928), rotate(0)" xlink:href="#item_11">
<title>item, id: 11, transf: [r: 0.000°, t: (218.292, 21.079)]</title>
</use>
<use transform="translate(205.40797 0.05908072), rotate(0)" xlink:href="#item_6">
<title>item, id: 6, transf: [r: 0.000°, t: (205.408, 0.059)]</title>
</use>
<use transform="translate(238.41058 73.64795), rotate(-180)" xlink:href="#item_6">
<title>item, id: 6, transf: [r: -180.000°, t: (238.411, 73.648)]</title>
</use>
<use transform="translate(217.41023 73.64804), rotate(0)" xlink:href="#item_6">
<title>item, id: 6, transf: [r: 0.000°, t: (217.410, 73.648)]</title>
</use>
<use transform="translate(192.21646 20.87392), rotate(-180)" xlink:href="#item_6">
<title>item, id: 6, transf: [r: -180.000°, t: (192.216, 20.874)]</title>
</use>
<use transform="translate(217.41075 26.092136), rotate(0)" xlink:href="#item_6">
<title>item, id: 6, transf: [r: 0.000°, t: (217.411, 26.092)]</title>
</use>
<use transform="translate(217.41055 75.64829), rotate(0)" xlink:href="#item_6">
<title>item, id: 6, transf: [r: 0.000°, t: (217.411, 75.648)]</title>
</use>
<use transform="translate(193.30128 22.875164), rotate(-180)" xlink:href="#item_6">
<title>item, id: 6, transf: [r: -180.000°, t: (193.301, 22.875)]</title>
</use>
<use transform="translate(184.11389 0.057247043), rotate(0)" xlink:href="#item_6">
<title>item, id: 6, transf: [r: 0.000°, t: (184.114, 0.057)]</title>
</use>
<use transform="translate(171.7598 62.955704), rotate(-180)" xlink:href="#item_8">
<title>item, id: 8, transf: [r: -180.000°, t: (171.760, 62.956)]</title>
</use>
<use transform="translate(12.009399 78.997025), rotate(-180)" xlink:href="#item_13">
<title>item, id: 13, transf: [r: -180.000°, t: (12.009, 78.997)]</title>
</use>
<use transform="translate(226.4084 0.003215313), rotate(0)" xlink:href="#item_13">
<title>item, id: 13, transf: [r: 0.000°, t: (226.408, 0.003)]</title>
</use>
<use transform="translate(230.40471 17.377575), rotate(0)" xlink:href="#item_15">
<title>item, id: 15, transf: [r: 0.000°, t: (230.405, 17.378)]</title>
</use>
<use transform="translate(209.39847 70.4375), rotate(0)" xlink:href="#item_15">
<title>item, id: 15, transf: [r: 0.000°, t: (209.398, 70.438)]</title>
</use>
<use transform="translate(115.90689 23.896353), rotate(-180)" xlink:href="#item_15">
<title>item, id: 15, transf: [r: -180.000°, t: (115.907, 23.896)]</title>
</use>
<use transform="translate(191.67386 76.99726), rotate(-180)" xlink:href="#item_15">
<title>item, id: 15, transf: [r: -180.000°, t: (191.674, 76.997)]</title>
</use>
<use transform="translate(167.14177 24.012407), rotate(0)" xlink:href="#item_15">
<title>item, id: 15, transf: [r: 0.000°, t: (167.142, 24.012)]</title>
</use>
<use transform="translate(178.08136 51.224747), rotate(-180)" xlink:href="#item_15">
<title>item, id: 15, transf: [r: -180.000°, t: (178.081, 51.225)]</title>
</use>
<use transform="translate(171.17035 55.91052), rotate(0)" xlink:href="#item_15">
<title>item, id: 15, transf: [r: 0.000°, t: (171.170, 55.911)]</title>
</use>
<use transform="translate(157.72536 29.43788), rotate(-180)" xlink:href="#item_15">
<title>item, id: 15, transf: [r: -180.000°, t: (157.725, 29.438)]</title>
</use>
<use transform="translate(33.204067 24.180048), rotate(-180)" xlink:href="#item_10">
<title>item, id: 10, transf: [r: -180.000°, t: (33.204, 24.180)]</title>
</use>
<use transform="translate(164.8135 63.267857), rotate(0)" xlink:href="#item_12">
<title>item, id: 12, transf: [r: 0.000°, t: (164.814, 63.268)]</title>
</use>
<use transform="translate(193.30191 19.090115), rotate(0)" xlink:href="#item_12">
<title>item, id: 12, transf: [r: 0.000°, t: (193.302, 19.090)]</title>
</use>
<use transform="translate(180.41002 48.59592), rotate(0)" xlink:href="#item_16">
<title>item, id: 16, transf: [r: 0.000°, t: (180.410, 48.596)]</title>
</use>
<use transform="translate(177.00247 36.053154), rotate(0)" xlink:href="#item_16">
<title>item, id: 16, transf: [r: 0.000°, t: (177.002, 36.053)]</title>
</use>
<use transform="translate(3.0113442 17.038061), rotate(0)" xlink:href="#item_16">
<title>item, id: 16, transf: [r: 0.000°, t: (3.011, 17.038)]</title>
</use>
<use transform="translate(119.160545 22.67283), rotate(0)" xlink:href="#item_16">
<title>item, id: 16, transf: [r: 0.000°, t: (119.161, 22.673)]</title>
</use>
</g>
<g id="quality_zones"/>
<g id="optionals">
<g id="overlap_lines" transform="translate(0 0), rotate(0)"/>
</g>
<text font-family="monospace" font-size="1.975" font-weight="500" x="0" y="-0.9875">
height: 79.000 | width: 238.411 | usage: 91.356% | final_bench_41
</text>
</svg>