<svg viewBox="-11.841203 -3.950001 260.5064 86.90001" xmlns="http://www.w3.org/2000/svg" xmlns:xlink="http://www.w3.org/1999/xlink">
<g id="bin_0">
<path d="M0,0 L236.824,0 L236.824,79 L0,79 z" fill="#D3D3D3" stroke="black" stroke-width="0.43450004"/>
<title>bin, id: 0, bbox: [x_min: 0.000, y_min: 0.000, x_max: 236.824, y_max: 79.000]</title>
</g>
<g id="items">
<defs>
<g id="item_0">
<path d="M0,0 L12,-1 L14,-3.0000005 L24,0 L33,1 L59,2 L59,13 L4,13 L4,8 L2,5 L0,5 z" fill="#7A7A7A" fill-opacity="0.5" fill-rule="nonzero" stroke="black" stroke-width="0.21725002"/>
</g>
<g id="item_1">
<path d="M0,0 L0,-14 L27,-17 L37,-20 L41,-22 L47,-19 L56,-16 L56,0 z" fill="#7A7A7A" fill-opacity="0.5" fill-rule="nonzero" stroke="black" stroke-width="0.21725002"/>
</g>
<g id="item_2">
<path d="M0,0 L57,0 L57,5 L0,5 z" fill="#7A7A7A" fill-opacity="0.5" fill-rule="nonzero" stroke="black" stroke-width="0.21725002"/>
</g>
<g id="item_3">
<path d="M0,0 L52,0 L52,5 L0,5 z" fill="#7A7A7A" fill-opacity="0.5" fill-rule="nonzero" stroke="black" stroke-width="0.21725002"/>
</g>
<g id="item_4">
<path d="M0,0 L44,0 L44,5 L0,5 z" fill="#7A7A7A" fill-opacity="0.5" fill-rule="nonzero" stroke="black" stroke-width="0.21725002"/>
</g>
<g id="item_5">
<path d="M0,0 L42,0 L42,5 L0,5 z" fill="#7A7A7A" fill-opacity="0.5" fill-rule="nonzero" stroke="black" stroke-width="0.21725002"/>
</g>
<g id="item_6">
<path d="M0,0 L21,0 L21,2 L0,2 z" fill="#7A7A7A" fill-opacity="0.5" fill-rule="nonzero" stroke="black" stroke-width="0.21725002"/>
</g>
<g id="item_7">
<path d="M0,0 L15,4 L13,7 L0,6 z" fill="#7A7A7A" fill-opacity="0.5" fill-rule="nonzero" stroke="black" stroke-width="0.21725002"/>
</g>
<g id="item_8">
<path d="M0,0 L15,1 L15,4 L0,4 z" fill="#7A7A7A" fill-opacity="0.5" fill-rule="nonzero" stroke="black" stroke-width="0.21725002"/>
</g>
<g id="item_9">
<path d="M0,0 L14,0 L14,5 L0,5 z" fill="#7A7A7A" fill-opacity="0.5" fill-rule="nonzero" stroke="black" stroke-width="0.21725002"/>
</g>
<g id="item_10">
<path d="M0,0 L14,1 L14,4 L0,4 z" fill="#7A7A7A" fill-opacity="0.5" fill-rule="nonzero" stroke="black" stroke-width="0.21725002"/>
</g>
<g id="item_11">
<path d="M0,0 L13,0 L13,5 L0,5 z" fill="#7A7A7A" fill-opacity="0.5" fill-rule="nonzero" stroke="black" stroke-width="0.21725002"/>
</g>
<g id="item_12">
<path d="M0,0 L13,1 L13,4 L0,4 z" fill="#7A7A7A" fill-opacity="0.5" fill-rule="nonzero" stroke="black" stroke-width="0.21725002"/>
</g>
<g id="item_13">
<path d="M0,0 L12,0 L12,5 L0,5 z" fill="#7A7A7A" fill-opacity="0.5" fill-rule="nonzero" stroke="black" stroke-width="0.21725002"/>
</g>
<g id="item_14">
<path d="M0,0 L4,2 L6,10 L4,11 L-4,11 L-6,10 L-4,2 z" fill="#7A7A7A" fill-opacity="0.5" fill-rule="nonzero" stroke="black" stroke-width="0.21725002"/>
</g>
<g id="item_15">
<path d="M0,0 L3,-2 L8,0 L8,8 L2,8 z" fill="#7A7A7A" fill-opacity="0.5" fill-rule="nonzero" stroke="black" stroke-width="0.21725002"/>
</g>
<g id="item_16">
<path d="M0,0 L2,1 L3,6 L2,7 L-2,7 L-3,6 L-2,1 z" fill="#7A7A7A" fill-opacity="0.5" fill-rule="nonzero" stroke="black" stroke-width="0.21725002"/>
</g>
</defs>
<use transform="translate(171.1375 78.997856), rotate(0)" xlink:href="#item_1">
<title>item, id: 1, transf: [r: 0.000°, t: (171.137, 78.998)]</title>
</use>
<use transform="translate(0.09902382 78.99667), rotate(0)" xlink:href="#item_1">
<title>item, id: 1, transf: [r: 0.000°, t: (0.099, 78.997)]</title>
</use>
<use transform="translate(236.82303 5.0207825), rotate(-180)" xlink:href="#item_1">
<title>item, id: 1, transf: [r: -180.000°, t: (236.823, 5.021)]</title>
</use>
<use transform="translate(56.130196 0.00007247925), rotate(-180)" xlink:href="#item_1">
<title>item, id: 1, transf: [r: -180.000°, t: (56.130, 0.000)]</title>
</use>
<use transform="translate(118.821884 41.200615), rotate(0)" xlink:href="#item_1">
<title>item, id: 1, transf: [r: 0.000°, t: (118.822, 41.201)]</title>
</use>
<use transform="translate(0.00048065186 38.01114), rotate(0)" xlink:href="#item_1">
<title>item, id: 1, transf: [r: 0.000°, t: (0.000, 38.011)]</title>
</use>
<use transform="translate(174.82246 43.499447), rotate(0)" xlink:href="#item_1">
<title>item, id: 1, transf: [r: 0.000°, t: (174.822, 43.499)]</title>
</use>
<use transform="translate(115.13144 78.99921), rotate(0)" xlink:href="#item_1">
<title>item, id: 1, transf: [r: 0.000°, t: (115.131, 78.999)]</title>
</use>
<use transform="translate(62.156246 56.112335), rotate(-180)" xlink:href="#item_0">
<title>item, id: 0, transf: [r: -180.000°, t: (62.156, 56.112)]</title>
</use>
<use transform="translate(58.158394 39.995796), rotate(0)" xlink:href="#item_0">
<title>item, id: 0, transf: [r: 0.000°, t: (58.158, 39.996)]</title>
</use>
<use transform="translate(56.102814 65.99999), rotate(0)" xlink:href="#item_0">
<title>item, id: 0, transf: [r: 0.000°, t: (56.103, 66.000)]</title>
</use>
<use transform="translate(180.82265 13.004375), rotate(-180)" xlink:href="#item_0">
<title>item, id: 0, transf: [r: -180.000°, t: (180.823, 13.004)]</title>
</use>
<use transform="translate(59.821846 23.989643), rotate(0)" xlink:href="#item_0">
<title>item, id: 0, transf: [r: 0.000°, t: (59.822, 23.990)]</title>
</use>
<use transform="translate(235.15868 56.499466), rotate(-180)" xlink:href="#item_0">
<title>item, id: 0, transf: [r: -180.000°, t: (235.159, 56.499)]</title>
</use>
<use transform="translate(176.15842 54.20587), rotate(-180)" xlink:href="#item_0">
<title>item, id: 0, transf: [r: -180.000°, t: (176.158, 54.206)]</title>
</use>
<use transform="translate(115.318695 13.001175), rotate(-180)" xlink:href="#item_0">
<title>item, id: 0, transf: [r: -180.000°, t: (115.319, 13.001)]</title>
</use>
<use transform="translate(57.000217 43.11188), rotate(-180)" xlink:href="#item_2">
<title>item, id: 2, transf: [r: -180.000°, t: (57.000, 43.112)]</title>
</use>
<use transform="translate(117.29293 62.99982), rotate(-180)" xlink:href="#item_3">
<title>item, id: 3, transf: [r: -180.000°, t: (117.293, 63.000)]</title>
</use>
<use transform="translate(106.20756 57.99878), rotate(-180)" xlink:href="#item_4">
<title>item, id: 4, transf: [r: -180.000°, t: (106.208, 57.999)]</title>
</use>
<use transform="translate(233.37708 5.0143337), rotate(-180)" xlink:href="#item_5">
<title>item, id: 5, transf: [r: -180.000°, t: (233.377, 5.014)]</title>
</use>
<use transform="translate(117.02873 25.5452), rotate(-180)" xlink:href="#item_14">
<title>item, id: 14, transf: [r: -180.000°, t: (117.029, 25.545)]</title>
</use>
<use transform="translate(126.70781 14.871819), rotate(0)" xlink:href="#item_14">
<title>item, id: 14, transf: [r: 0.000°, t: (126.708, 14.872)]</title>
</use>
<use transform="translate(70.14948 22.696615), rotate(-180)" xlink:href="#item_14">
<title>item, id: 14, transf: [r: -180.000°, t: (70.149, 22.697)]</title>
</use>
<use transform="translate(81.97379 23.410019), rotate(-180)" xlink:href="#item_14">
<title>item, id: 14, transf: [r: -180.000°, t: (81.974, 23.410)]</title>
</use>
<use transform="translate(135.67795 22.6949), rotate(-180)" xlink:href="#item_14">
<title>item, id: 14, transf: [r: -180.000°, t: (135.678, 22.695)]</title>
</use>
<use transform="translate(147.50677 23.420746), rotate(-180)" xlink:href="#item_14">
<title>item, id: 14, transf: [r: -180.000°, t: (147.507, 23.421)]</title>
</use>
<use transform="translate(123.338715 52.632523), rotate(0)" xlink:href="#item_14">
<title>item, id: 14, transf: [r: 0.000°, t: (123.339, 52.633)]</title>
</use>
<use transform="translate(107.23521 14.389666), rotate(0)" xlink:href="#item_14">
<title>item, id: 14, transf: [r: 0.000°, t: (107.235, 14.390)]</title>
</use>
<use transform="translate(177.02272 0.0005300045), rotate(0)" xlink:href="#item_9">
<title>item, id: 9, transf: [r: 0.000°, t: (177.023, 0.001)]</title>
</use>
<use transform="translate(135.75554 53.008434), rotate(0)" xlink:href="#item_7">
<title>item, id: 7, transf: [r: 0.000°, t: (135.756, 53.008)]</title>
</use>
<use transform="translate(65.28793 64.23693), rotate(-180)" xlink:href="#item_7">
<title>item, id: 7, transf: [r: -180.000°, t: (65.288, 64.237)]</title>
</use>
<use transform="translate(153.50932 12.64374), rotate(0)" xlink:href="#item_7">
<title>item, id: 7, transf: [r: 0.000°, t: (153.509, 12.644)]</title>
</use>
<use transform="translate(86.763435 18.252586), rotate(0)" xlink:href="#item_7">
<title>item, id: 7, transf: [r: 0.000°, t: (86.763, 18.253)]</title>
</use>
<use transform="translate(101.8109 22.086403), rotate(-180)" xlink:href="#item_7">
<title>item, id: 7, transf: [r: -180.000°, t: (101.811, 22.086)]</title>
</use>
<use transform="translate(236.8234 27.473547), rotate(-180)" xlink:href="#item_7">
<title>item, id: 7, transf: [r: -180.000°, t: (236.823, 27.474)]</title>
</use>
<use transform="translate(176.96704 63.911343), rotate(-180)" xlink:href="#item_7">
<title>item, id: 7, transf: [r: -180.000°, t: (176.967, 63.911)]</title>
</use>
<use transform="translate(176.51065 20.866571), rotate(0)" xlink:href="#item_7">
<title>item, id: 7, transf: [r: 0.000°, t: (176.511, 20.867)]</title>
</use>
<use transform="translate(189.0875 55.795116), rotate(0)" xlink:href="#item_11">
<title>item, id: 11, transf: [r: 0.000°, t: (189.087, 55.795)]</title>
</use>
<use transform="translate(115.05978 65.19043), rotate(-180)" xlink:href="#item_6">
<title>item, id: 6, transf: [r: -180.000°, t: (115.060, 65.190)]</title>
</use>
<use transform="translate(7.8359795 55.344627), rotate(0)" xlink:href="#item_6">
<title>item, id: 6, transf: [r: 0.000°, t: (7.836, 55.345)]</title>
</use>
<use transform="translate(188.05003 56.978657), rotate(-180)" xlink:href="#item_6">
<title>item, id: 6, transf: [r: -180.000°, t: (188.050, 56.979)]</title>
</use>
<use transform="translate(97.79385 39.19038), rotate(0)" xlink:href="#item_6">
<title>item, id: 6, transf: [r: 0.000°, t: (97.794, 39.190)]</title>
</use>
<use transform="translate(29.024654 59.49162), rotate(-180)" xlink:href="#item_6">
<title>item, id: 6, transf: [r: -180.000°, t: (29.025, 59.492)]</title>
</use>
<use transform="translate(94.11095 65.192345), rotate(0)" xlink:href="#item_6">
<title>item, id: 6, transf: [r: 0.000°, t: (94.111, 65.192)]</title>
</use>
<use transform="translate(97.78179 37.18688), rotate(0)" xlink:href="#item_6">
<title>item, id: 6, transf: [r: 0.000°, t: (97.782, 37.187)]</title>
</use>
<use transform="translate(7.7653637 59.495327), rotate(0)" xlink:href="#item_6">
<title>item, id: 6, transf: [r: 0.000°, t: (7.765, 59.495)]</title>
</use>
<use transform="translate(97.53252 41.02793), rotate(-180)" xlink:href="#item_8">
<title>item, id: 8, transf: [r: -180.000°, t: (97.533, 41.028)]</title>
</use>
<use transform="translate(177.07257 58.00007), rotate(0)" xlink:href="#item_13">
<title>item, id: 13, transf: [r: 0.000°, t: (177.073, 58.000)]</title>
</use>
<use transform="translate(106.21328 52.997135), rotate(0)" xlink:href="#item_13">
<title>item, id: 13, transf: [r: 0.000°, t: (106.213, 52.997)]</title>
</use>
<use transform="translate(113.819496 2.0000205), rotate(0)" xlink:href="#item_15">
<title>item, id: 15, transf: [r: 0.000°, t: (113.819, 2.000)]</title>
</use>
<use transform="translate(64.00239 37.712563), rotate(-180)" xlink:href="#item_15">
<title>item, id: 15, transf: [r: -180.000°, t: (64.002, 37.713)]</title>
</use>
<use transform="translate(228.35405 58.916504), rotate(0)" xlink:href="#item_15">
<title>item, id: 15, transf: [r: 0.000°, t: (228.354, 58.917)]</title>
</use>
<use transform="translate(66.396965 21.68798), rotate(-180)" xlink:href="#item_15">
<title>item, id: 15, transf: [r: -180.000°, t: (66.397, 21.688)]</title>
</use>
<use transform="translate(228.79398 69.040276), rotate(0)" xlink:href="#item_15">
<title>item, id: 15, transf: [r: 0.000°, t: (228.794, 69.040)]</title>
</use>
<use transform="translate(176.5106 22.344109), rotate(-180)" xlink:href="#item_15">
<title>item, id: 15, transf: [r: -180.000°, t: (176.511, 22.344)]</title>
</use>
<use transform="translate(127.41962 54.738182), rotate(0)" xlink:href="#item_15">
<title>item, id: 15, transf: [r: 0.000°, t: (127.420, 54.738)]</title>
</use>
<use transform="translate(8.000217 62.450024), rotate(-180)" xlink:href="#item_15">
<title>item, id: 15, transf: [r: -180.000°, t: (8.000, 62.450)]</title>
</use>
<use transform="translate(115.32447 10.540249), rotate(0)" xlink:href="#item_10">
<title>item, id: 10, transf: [r: 0.000°, t: (115.324, 10.540)]</title>
</use>
<use transform="translate(58.392475 19.205257), rotate(-180)" xlink:href="#item_12">
<title>item, id: 12, transf: [r: -180.000°, t: (58.392, 19.205)]</title>
</use>
<use transform="translate(93.74537 67.05706), rotate(-180)" xlink:href="#item_12">
<title>item, id: 12, transf: [r: -180.000°, t: (93.745, 67.057)]</title>
</use>
<use transform="translate(233.8236 26.67379), rotate(0)" xlink:href="#item_16">
<title>item, id: 16, transf: [r: 0.000°, t: (233.824, 26.674)]</title>
</use>
<use transform="translate(177.82288 20.423466), rotate(-180)" xlink:href="#item_16">
<title>item, id: 16, transf: [r: -180.000°, t: (177.823, 20.423)]</title>
</use>
<use transform="translate(233.82317 47.810596), rotate(-180)" xlink:href="#item_16">
<title>item, id: 16, transf: [r: -180.000°, t: (233.823, 47.811)]</title>
</use>
<use transform="translate(233.82321 40.677532), rotate(-180)" xlink:href="#item_16">
<title>item, id: 16, transf: [r: -180.000°, t: (233.823, 40.678)]</title>
</use>
</g>
<g id="quality_zones"/>
<g id="optionals">
<g id="overlap_lines" transform="translate(0 0), rotate(0)"/>
</g>
<text font-family="monospace" font-size="1.975" font-weight="500" x="0" y="-0.9875">
height: 79.000 | width: 236.824 | usage: 91.969% | final_bench_61
</text>
</svg>