<svg viewBox="-11.9038925 -3.950001 261.8856 86.90001" xmlns="http://www.w3.org/2000/svg" xmlns:xlink="http://www.w3.org/1999/xlink">
<g id="bin_0">
<path d="M0,0 L238.07779,0 L238.07779,79 L0,79 z" fill="#D3D3D3" stroke="black" stroke-width="0.43450004"/>
<title>bin, id: 0, bbox: [x_min: 0.000, y_min: 0.000, x_max: 238.078, y_max: 79.000]</title>
</g>
<g id="items">
<defs>
<g id="item_0">
<path d="M0,0 L12,-1 L14,-3.0000005 L24,0 L33,1 L59,2 L59,13 L4,13 L4,8 L2,5 L0,5 z" fill="#7A7A7A" fill-opacity="0.5" fill-rule="nonzero" stroke="black" stroke-width="0.21725002"/>
</g>
<g id="item_1">
<path d="M0,0 L0,-14 L27,-17 L37,-20 L41,-22 L47,-19 L56,-16 L56,0 z" fill="#7A7A7A" fill-opacity="0.5" fill-rule="nonzero" stroke="black" stroke-width="0.21725002"/>
</g>
<g id="item_2">
<path d="M0,0 L57,0 L57,5 L0,5 z" fill="#7A7A7A" fill-opacity="0.5" fill-rule="nonzero" stroke="black" stroke-width="0.21725002"/>
</g>
<g id="item_3">
<path d="M0,0 L52,0 L52,5 L0,5 z" fill="#7A7A7A" fill-opacity="0.5" fill-rule="nonzero" stroke="black" stroke-width="0.21725002"/>
</g>
<g id="item_4">
<path d="M0,0 L44,0 L44,5 L0,5 z" fill="#7A7A7A" fill-opacity="0.5" fill-rule="nonzero" stroke="black" stroke-width="0.21725002"/>
</g>
<g id="item_5">
<path d="M0,0 L42,0 L42,5 L0,5 z" fill="#7A7A7A" fill-opacity="0.5" fill-rule="nonzero" stroke="black" stroke-width="0.21725002"/>
</g>
<g id="item_6">
<path d="M0,0 L21,0 L21,2 L0,2 z" fill="#7A7A7A" fill-opacity="0.5" fill-rule="nonzero" stroke="black" stroke-width="0.21725002"/>
</g>
<g id="item_7">
<path d="M0,0 L15,4 L13,7 L0,6 z" fill="#7A7A7A" fill-opacity="0.5" fill-rule="nonzero" stroke="black" stroke-width="0.21725002"/>
</g>
<g id="item_8">
<path d="M0,0 L15,1 L15,4 L0,4 z" fill="#7A7A7A" fill-opacity="0.5" fill-rule="nonzero" stroke="black" stroke-width="0.21725002"/>
</g>
<g id="item_9">
<path d="M0,0 L14,0 L14,5 L0,5 z" fill="#7A7A7A" fill-opacity="0.5" fill-rule="nonzero" stroke="black" stroke-width="0.21725002"/>
</g>
<g id="item_10">
<path d="M0,0 L14,1 L14,4 L0,4 z" fill="#7A7A7A" fill-opacity="0.5" fill-rule="nonzero" stroke="black" stroke-width="0.21725002"/>
</g>
<g id="item_11">
<path d="M0,0 L13,0 L13,5 L0,5 z" fill="#7A7A7A" fill-opacity="0.5" fill-rule="nonzero" stroke="black" stroke-width="0.21725002"/>
</g>
<g id="item_12">
<path d="M0,0 L13,1 L13,4 L0,4 z" fill="#7A7A7A" fill-opacity="0.5" fill-rule="nonzero" stroke="black" stroke-width="0.21725002"/>
</g>
<g id="item_13">
<path d="M0,0 L12,0 L12,5 L0,5 z" fill="#7A7A7A" fill-opacity="0.5" fill-rule="nonzero" stroke="black" stroke-width="0.21725002"/>
</g>
<g id="item_14">
<path d="M0,0 L4,2 L6,10 L4,11 L-4,11 L-6,10 L-4,2 z" fill="#7A7A7A" fill-opacity="0.5" fill-rule="nonzero" stroke="black" stroke-width="0.21725002"/>
</g>
<g id="item_15">
<path d="M0,0 L3,-2 L8,0 L8,8 L2,8 z" fill="#7A7A7A" fill-opacity="0.5" fill-rule="nonzero" stroke="black" stroke-width="0.21725002"/>
</g>
<g id="item_16">
<path d="M0,0 L2,1 L3,6 L2,7 L-2,7 L-3,6 L-2,1 z" fill="#7A7A7A" fill-opacity="0.5" fill-rule="nonzero" stroke="black" stroke-width="0.21725002"/>
</g>
</defs>
<use transform="translate(115.00185 37.612675), rotate(0)" xlink:href="#item_1">
<title>item, id: 1, transf: [r: 0.000°, t: (115.002, 37.613)]</title>
</use>
<use transform="translate(0.007501602 62.998295), rotate(0)" xlink:href="#item_1">
<title>item, id: 1, transf: [r: 0.000°, t: (0.008, 62.998)]</title>
</use>
<use transform="translate(0.0016860962 25.299294), rotate(0)" xlink:href="#item_1">
<title>item, id: 1, transf: [r: 0.000°, t: (0.002, 25.299)]</title>
</use>
<use transform="translate(76.94139 78.997055), rotate(0)" xlink:href="#item_1">
<title>item, id: 1, transf: [r: 0.000°, t: (76.941, 78.997)]</title>
</use>
<use transform="translate(177.26694 42.626915), rotate(-180)" xlink:href="#item_1">
<title>item, id: 1, transf: [r: -180.000°, t: (177.267, 42.627)]</title>
</use>
<use transform="translate(132.94589 78.99789), rotate(0)" xlink:href="#item_1">
<title>item, id: 1, transf: [r: 0.000°, t: (132.946, 78.998)]</title>
</use>
<use transform="translate(56.00078 25.312222), rotate(-180)" xlink:href="#item_1">
<title>item, id: 1, transf: [r: -180.000°, t: (56.001, 25.312)]</title>
</use>
<use transform="translate(169.84631 0.02951622), rotate(-180)" xlink:href="#item_1">
<title>item, id: 1, transf: [r: -180.000°, t: (169.846, 0.030)]</title>
</use>
<use transform="translate(179.01729 29.777075), rotate(0)" xlink:href="#item_0">
<title>item, id: 0, transf: [r: 0.000°, t: (179.017, 29.777)]</title>
</use>
<use transform="translate(115.014145 57.79474), rotate(-180)" xlink:href="#item_0">
<title>item, id: 0, transf: [r: -180.000°, t: (115.014, 57.795)]</title>
</use>
<use transform="translate(54.83162 3.8892293), rotate(0)" xlink:href="#item_0">
<title>item, id: 0, transf: [r: 0.000°, t: (54.832, 3.889)]</title>
</use>
<use transform="translate(229.40616 18.005379), rotate(-180)" xlink:href="#item_0">
<title>item, id: 0, transf: [r: -180.000°, t: (229.406, 18.005)]</title>
</use>
<use transform="translate(17.9387 65.99962), rotate(0)" xlink:href="#item_0">
<title>item, id: 0, transf: [r: 0.000°, t: (17.939, 66.000)]</title>
</use>
<use transform="translate(56.00138 31.503279), rotate(0)" xlink:href="#item_0">
<title>item, id: 0, transf: [r: 0.000°, t: (56.001, 31.503)]</title>
</use>
<use transform="translate(115.00171 29.915482), rotate(-180)" xlink:href="#item_0">
<title>item, id: 0, transf: [r: -180.000°, t: (115.002, 29.915)]</title>
</use>
<use transform="translate(236.83112 60.793663), rotate(-180)" xlink:href="#item_0">
<title>item, id: 0, transf: [r: -180.000°, t: (236.831, 60.794)]</title>
</use>
<use transform="translate(227.26994 5.0043917), rotate(-180)" xlink:href="#item_2">
<title>item, id: 2, transf: [r: -180.000°, t: (227.270, 5.004)]</title>
</use>
<use transform="translate(168.7439 42.625343), rotate(-180)" xlink:href="#item_3">
<title>item, id: 3, transf: [r: -180.000°, t: (168.744, 42.625)]</title>
</use>
<use transform="translate(192.28015 42.778072), rotate(0)" xlink:href="#item_4">
<title>item, id: 4, transf: [r: 0.000°, t: (192.280, 42.778)]</title>
</use>
<use transform="translate(232.03783 78.99992), rotate(-180)" xlink:href="#item_5">
<title>item, id: 5, transf: [r: -180.000°, t: (232.038, 79.000)]</title>
</use>
<use transform="translate(210.8594 60.991936), rotate(0)" xlink:href="#item_14">
<title>item, id: 14, transf: [r: 0.000°, t: (210.859, 60.992)]</title>
</use>
<use transform="translate(204.12085 29.820963), rotate(-180)" xlink:href="#item_14">
<title>item, id: 14, transf: [r: -180.000°, t: (204.121, 29.821)]</title>
</use>
<use transform="translate(200.76474 73.25773), rotate(-180)" xlink:href="#item_14">
<title>item, id: 14, transf: [r: -180.000°, t: (200.765, 73.258)]</title>
</use>
<use transform="translate(72.78836 67.6023), rotate(-180)" xlink:href="#item_14">
<title>item, id: 14, transf: [r: -180.000°, t: (72.788, 67.602)]</title>
</use>
<use transform="translate(222.70007 29.898357), rotate(-180)" xlink:href="#item_14">
<title>item, id: 14, transf: [r: -180.000°, t: (222.700, 29.898)]</title>
</use>
<use transform="translate(232.07741 20.389935), rotate(0)" xlink:href="#item_14">
<title>item, id: 14, transf: [r: 0.000°, t: (232.077, 20.390)]</title>
</use>
<use transform="translate(12.327678 74.0949), rotate(-180)" xlink:href="#item_14">
<title>item, id: 14, transf: [r: -180.000°, t: (12.328, 74.095)]</title>
</use>
<use transform="translate(62.9571 56.304398), rotate(0)" xlink:href="#item_14">
<title>item, id: 14, transf: [r: 0.000°, t: (62.957, 56.304)]</title>
</use>
<use transform="translate(182.74394 42.62685), rotate(-180)" xlink:href="#item_9">
<title>item, id: 9, transf: [r: -180.000°, t: (182.744, 42.627)]</title>
</use>
<use transform="translate(15.592205 7.0006976), rotate(-180)" xlink:href="#item_7">
<title>item, id: 7, transf: [r: -180.000°, t: (15.592, 7.001)]</title>
</use>
<use transform="translate(0.0041947365 71.99368), rotate(0)" xlink:href="#item_7">
<title>item, id: 7, transf: [r: 0.000°, t: (0.004, 71.994)]</title>
</use>
<use transform="translate(191.6269 26.893093), rotate(-180)" xlink:href="#item_7">
<title>item, id: 7, transf: [r: -180.000°, t: (191.627, 26.893)]</title>
</use>
<use transform="translate(238.06662 68.77615), rotate(-180)" xlink:href="#item_7">
<title>item, id: 7, transf: [r: -180.000°, t: (238.067, 68.776)]</title>
</use>
<use transform="translate(216.37386 62.99308), rotate(0)" xlink:href="#item_7">
<title>item, id: 7, transf: [r: 0.000°, t: (216.374, 62.993)]</title>
</use>
<use transform="translate(0.00049209595 2.8437166), rotate(0)" xlink:href="#item_7">
<title>item, id: 7, transf: [r: 0.000°, t: (0.000, 2.844)]</title>
</use>
<use transform="translate(176.7729 22.495403), rotate(-180)" xlink:href="#item_7">
<title>item, id: 7, transf: [r: -180.000°, t: (176.773, 22.495)]</title>
</use>
<use transform="translate(171.00195 21.393385), rotate(0)" xlink:href="#item_7">
<title>item, id: 7, transf: [r: 0.000°, t: (171.002, 21.393)]</title>
</use>
<use transform="translate(91.63257 63.322075), rotate(-180)" xlink:href="#item_11">
<title>item, id: 11, transf: [r: -180.000°, t: (91.633, 63.322)]</title>
</use>
<use transform="translate(101.69857 4.087932), rotate(-180)" xlink:href="#item_6">
<title>item, id: 6, transf: [r: -180.000°, t: (101.699, 4.088)]</title>
</use>
<use transform="translate(15.59226 0.0013897419), rotate(0)" xlink:href="#item_6">
<title>item, id: 6, transf: [r: 0.000°, t: (15.592, 0.001)]</title>
</use>
<use transform="translate(46.718025 0.00023245811), rotate(0)" xlink:href="#item_6">
<title>item, id: 6, transf: [r: 0.000°, t: (46.718, 0.000)]</title>
</use>
<use transform="translate(75.83275 0.08784068), rotate(0)" xlink:href="#item_6">
<title>item, id: 6, transf: [r: 0.000°, t: (75.833, 0.088)]</title>
</use>
<use transform="translate(216.85995 69.99578), rotate(0)" xlink:href="#item_6">
<title>item, id: 6, transf: [r: 0.000°, t: (216.860, 69.996)]</title>
</use>
<use transform="translate(211.873 71.99972), rotate(0)" xlink:href="#item_6">
<title>item, id: 6, transf: [r: 0.000°, t: (211.873, 72.000)]</title>
</use>
<use transform="translate(207.86436 62.24932), rotate(-180)" xlink:href="#item_6">
<title>item, id: 6, transf: [r: -180.000°, t: (207.864, 62.249)]</title>
</use>
<use transform="translate(18.30319 2.0129716), rotate(0)" xlink:href="#item_6">
<title>item, id: 6, transf: [r: 0.000°, t: (18.303, 2.013)]</title>
</use>
<use transform="translate(56.945805 66.99997), rotate(-180)" xlink:href="#item_8">
<title>item, id: 8, transf: [r: -180.000°, t: (56.946, 67.000)]</title>
</use>
<use transform="translate(192.27841 47.793633), rotate(-180)" xlink:href="#item_13">
<title>item, id: 13, transf: [r: -180.000°, t: (192.278, 47.794)]</title>
</use>
<use transform="translate(101.82398 0.3901596), rotate(0)" xlink:href="#item_13">
<title>item, id: 13, transf: [r: 0.000°, t: (101.824, 0.390)]</title>
</use>
<use transform="translate(199.63062 25.86033), rotate(-180)" xlink:href="#item_15">
<title>item, id: 15, transf: [r: -180.000°, t: (199.631, 25.860)]</title>
</use>
<use transform="translate(113.26049 45.70927), rotate(0)" xlink:href="#item_15">
<title>item, id: 15, transf: [r: 0.000°, t: (113.260, 45.709)]</title>
</use>
<use transform="translate(196.94606 71.99171), rotate(-180)" xlink:href="#item_15">
<title>item, id: 15, transf: [r: -180.000°, t: (196.946, 71.992)]</title>
</use>
<use transform="translate(209.40114 22.70693), rotate(0)" xlink:href="#item_15">
<title>item, id: 15, transf: [r: 0.000°, t: (209.401, 22.707)]</title>
</use>
<use transform="translate(238.02876 19.489876), rotate(-180)" xlink:href="#item_15">
<title>item, id: 15, transf: [r: -180.000°, t: (238.029, 19.490)]</title>
</use>
<use transform="translate(171.00859 29.625145), rotate(0)" xlink:href="#item_15">
<title>item, id: 15, transf: [r: 0.000°, t: (171.009, 29.625)]</title>
</use>
<use transform="translate(8.017329 71.32288), rotate(-180)" xlink:href="#item_15">
<title>item, id: 15, transf: [r: -180.000°, t: (8.017, 71.323)]</title>
</use>
<use transform="translate(229.98285 2.3560772), rotate(0)" xlink:href="#item_15">
<title>item, id: 15, transf: [r: 0.000°, t: (229.983, 2.356)]</title>
</use>
<use transform="translate(191.63051 20.821753), rotate(-180)" xlink:href="#item_10">
<title>item, id: 10, transf: [r: -180.000°, t: (191.631, 20.822)]</title>
</use>
<use transform="translate(15.600394 3.8069887), rotate(0)" xlink:href="#item_12">
<title>item, id: 12, transf: [r: 0.000°, t: (15.600, 3.807)]</title>
</use>
<use transform="translate(59.853394 44.545708), rotate(-180)" xlink:href="#item_12">
<title>item, id: 12, transf: [r: -180.000°, t: (59.853, 44.546)]</title>
</use>
<use transform="translate(114.128525 24.002253), rotate(-180)" xlink:href="#item_16">
<title>item, id: 16, transf: [r: -180.000°, t: (114.129, 24.002)]</title>
</use>
<use transform="translate(235.0734 71.99938), rotate(0)" xlink:href="#item_16">
<title>item, id: 16, transf: [r: 0.000°, t: (235.073, 71.999)]</title>
</use>
<use transform="translate(18.796852 71.99704), rotate(0)" xlink:href="#item_16">
<title>item, id: 16, transf: [r: 0.000°, t: (18.797, 71.997)]</title>
</use>
<use transform="translate(228.6536 4.3576393), rotate(0)" xlink:href="#item_16">
<title>item, id: 16, transf: [r: 0.000°, t: (228.654, 4.358)]</title>
</use>
</g>
<g id="quality_zones"/>
<g id="optionals">
<g id="overlap_lines" transform="translate(0 0), rotate(0)"/>
</g>
<text font-family="monospace" font-size="1.975" font-weight="500" x="0" y="-0.9875">
height: 79.000 | width: 238.078 | usage: 91.484% | final_bench_67
</text>
</svg>