<svg viewBox="-11.887311 -3.950001 261.52078 86.90001" xmlns="http://www.w3.org/2000/svg" xmlns:xlink="http://www.w3.org/1999/xlink">
<g id="bin_0">
<path d="M0,0 L237.74615,0 L237.74615,79 L0,79 z" fill="#D3D3D3" stroke="black" stroke-width="0.43450004"/>
<title>bin, id: 0, bbox: [x_min: 0.000, y_min: 0.000, x_max: 237.746, y_max: 79.000]</title>
</g>
<g id="items">
<defs>
<g id="item_0">
<path d="M0,0 L12,-1 L14,-3.0000005 L24,0 L33,1 L59,2 L59,13 L4,13 L4,8 L2,5 L0,5 z" fill="#7A7A7A" fill-opacity="0.5" fill-rule="nonzero" stroke="black" stroke-width="0.21725002"/>
</g>
<g id="item_1">
<path d="M0,0 L0,-14 L27,-17 L37,-20 L41,-22 L47,-19 L56,-16 L56,0 z" fill="#7A7A7A" fill-opacity="0.5" fill-rule="nonzero" stroke="black" stroke-width="0.21725002"/>
</g>
<g id="item_2">
<path d="M0,0 L57,0 L57,5 L0,5 z" fill="#7A7A7A" fill-opacity="0.5" fill-rule="nonzero" stroke="black" stroke-width="0.21725002"/>
</g>
<g id="item_3">
<path d="M0,0 L52,0 L52,5 L0,5 z" fill="#7A7A7A" fill-opacity="0.5" fill-rule="nonzero" stroke="black" stroke-width="0.21725002"/>
</g>
<g id="item_4">
<path d="M0,0 L44,0 L44,5 L0,5 z" fill="#7A7A7A" fill-opacity="0.5" fill-rule="nonzero" stroke="black" stroke-width="0.21725002"/>
</g>
<g id="item_5">
<path d="M0,0 L42,0 L42,5 L0,5 z" fill="#7A7A7A" fill-opacity="0.5" fill-rule="nonzero" stroke="black" stroke-width="0.21725002"/>
</g>
<g id="item_6">
<path d="M0,0 L21,0 L21,2 L0,2 z" fill="#7A7A7A" fill-opacity="0.5" fill-rule="nonzero" stroke="black" stroke-width="0.21725002"/>
</g>
<g id="item_7">
<path d="M0,0 L15,4 L13,7 L0,6 z" fill="#7A7A7A" fill-opacity="0.5" fill-rule="nonzero" stroke="black" stroke-width="0.21725002"/>
</g>
<g id="item_8">
<path d="M0,0 L15,1 L15,4 L0,4 z" fill="#7A7A7A" fill-opacity="0.5" fill-rule="nonzero" stroke="black" stroke-width="0.21725002"/>
</g>
<g id="item_9">
<path d="M0,0 L14,0 L14,5 L0,5 z" fill="#7A7A7A" fill-opacity="0.5" fill-rule="nonzero" stroke="black" stroke-width="0.21725002"/>
</g>
<g id="item_10">
<path d="M0,0 L14,1 L14,4 L0,4 z" fill="#7A7A7A" fill-opacity="0.5" fill-rule="nonzero" stroke="black" stroke-width="0.21725002"/>
</g>
<g id="item_11">
<path d="M0,0 L13,0 L13,5 L0,5 z" fill="#7A7A7A" fill-opacity="0.5" fill-rule="nonzero" stroke="black" stroke-width="0.21725002"/>
</g>
<g id="item_12">
<path d="M0,0 L13,1 L13,4 L0,4 z" fill="#7A7A7A" fill-opacity="0.5" fill-rule="nonzero" stroke="black" stroke-width="0.21725002"/>
</g>
<g id="item_13">
<path d="M0,0 L12,0 L12,5 L0,5 z" fill="#7A7A7A" fill-opacity="0.5" fill-rule="nonzero" stroke="black" stroke-width="0.21725002"/>
</g>
<g id="item_14">
<path d="M0,0 L4,2 L6,10 L4,11 L-4,11 L-6,10 L-4,2 z" fill="#7A7A7A" fill-opacity="0.5" fill-rule="nonzero" stroke="black" stroke-width="0.21725002"/>
</g>
<g id="item_15">
<path d="M0,0 L3,-2 L8,0 L8,8 L2,8 z" fill="#7A7A7A" fill-opacity="0.5" fill-rule="nonzero" stroke="black" stroke-width="0.21725002"/>
</g>
<g id="item_16">
<path d="M0,0 L2,1 L3,6 L2,7 L-2,7 L-3,6 L-2,1 z" fill="#7A7A7A" fill-opacity="0.5" fill-rule="nonzero" stroke="black" stroke-width="0.21725002"/>
</g>
</defs>
<use transform="translate(125.37041 36.59504), rotate(0)" xlink:href="#item_1">
<title>item, id: 1, transf: [r: 0.000°, t: (125.370, 36.595)]</title>
</use>
<use transform="translate(181.37906 36.91266), rotate(0)" xlink:href="#item_1">
<title>item, id: 1, transf: [r: 0.000°, t: (181.379, 36.913)]</title>
</use>
<use transform="translate(119.745094 36.285393), rotate(-180)" xlink:href="#item_1">
<title>item, id: 1, transf: [r: -180.000°, t: (119.745, 36.285)]</title>
</use>
<use transform="translate(63.460606 73.991196), rotate(0)" xlink:href="#item_1">
<title>item, id: 1, transf: [r: 0.000°, t: (63.461, 73.991)]</title>
</use>
<use transform="translate(227.22543 0.013507843), rotate(-180)" xlink:href="#item_1">
<title>item, id: 1, transf: [r: -180.000°, t: (227.225, 0.014)]</title>
</use>
<use transform="translate(171.21922 0.0082883835), rotate(-180)" xlink:href="#item_1">
<title>item, id: 1, transf: [r: -180.000°, t: (171.219, 0.008)]</title>
</use>
<use transform="translate(56.04291 5.006921), rotate(-180)" xlink:href="#item_1">
<title>item, id: 1, transf: [r: -180.000°, t: (56.043, 5.007)]</title>
</use>
<use transform="translate(69.3674 36.284775), rotate(0)" xlink:href="#item_1">
<title>item, id: 1, transf: [r: 0.000°, t: (69.367, 36.285)]</title>
</use>
<use transform="translate(0.00765419 65.99974), rotate(0)" xlink:href="#item_0">
<title>item, id: 0, transf: [r: 0.000°, t: (0.008, 66.000)]</title>
</use>
<use transform="translate(119.46285 56.984573), rotate(0)" xlink:href="#item_0">
<title>item, id: 0, transf: [r: 0.000°, t: (119.463, 56.985)]</title>
</use>
<use transform="translate(115.216156 13.000664), rotate(-180)" xlink:href="#item_0">
<title>item, id: 0, transf: [r: -180.000°, t: (115.216, 13.001)]</title>
</use>
<use transform="translate(178.70518 65.9997), rotate(0)" xlink:href="#item_0">
<title>item, id: 0, transf: [r: 0.000°, t: (178.705, 66.000)]</title>
</use>
<use transform="translate(237.74576 54.913795), rotate(-180)" xlink:href="#item_0">
<title>item, id: 0, transf: [r: -180.000°, t: (237.746, 54.914)]</title>
</use>
<use transform="translate(0.037082672 29.707212), rotate(0)" xlink:href="#item_0">
<title>item, id: 0, transf: [r: 0.000°, t: (0.037, 29.707)]</title>
</use>
<use transform="translate(61.742233 55.70739), rotate(-180)" xlink:href="#item_0">
<title>item, id: 0, transf: [r: -180.000°, t: (61.742, 55.707)]</title>
</use>
<use transform="translate(119.74514 40.51617), rotate(0)" xlink:href="#item_0">
<title>item, id: 0, transf: [r: 0.000°, t: (119.745, 40.516)]</title>
</use>
<use transform="translate(180.74463 36.913548), rotate(0)" xlink:href="#item_2">
<title>item, id: 2, transf: [r: 0.000°, t: (180.745, 36.914)]</title>
</use>
<use transform="translate(0.40301704 0.00065732), rotate(0)" xlink:href="#item_3">
<title>item, id: 3, transf: [r: 0.000°, t: (0.403, 0.001)]</title>
</use>
<use transform="translate(72.55663 73.99183), rotate(0)" xlink:href="#item_4">
<title>item, id: 4, transf: [r: 0.000°, t: (72.557, 73.992)]</title>
</use>
<use transform="translate(182.1652 78.9992), rotate(-180)" xlink:href="#item_5">
<title>item, id: 5, transf: [r: -180.000°, t: (182.165, 78.999)]</title>
</use>
<use transform="translate(231.74469 66.750305), rotate(-180)" xlink:href="#item_14">
<title>item, id: 14, transf: [r: -180.000°, t: (231.745, 66.750)]</title>
</use>
<use transform="translate(63.315895 34.766144), rotate(-180)" xlink:href="#item_14">
<title>item, id: 14, transf: [r: -180.000°, t: (63.316, 34.766)]</title>
</use>
<use transform="translate(61.357334 11.9153), rotate(0)" xlink:href="#item_14">
<title>item, id: 14, transf: [r: 0.000°, t: (61.357, 11.915)]</title>
</use>
<use transform="translate(214.00587 55.808807), rotate(0)" xlink:href="#item_14">
<title>item, id: 14, transf: [r: 0.000°, t: (214.006, 55.809)]</title>
</use>
<use transform="translate(26.356009 65.88853), rotate(-180)" xlink:href="#item_14">
<title>item, id: 14, transf: [r: -180.000°, t: (26.356, 65.889)]</title>
</use>
<use transform="translate(204.62111 65.34781), rotate(-180)" xlink:href="#item_14">
<title>item, id: 14, transf: [r: -180.000°, t: (204.621, 65.348)]</title>
</use>
<use transform="translate(51.9614 20.28094), rotate(0)" xlink:href="#item_14">
<title>item, id: 14, transf: [r: 0.000°, t: (51.961, 20.281)]</title>
</use>
<use transform="translate(35.860577 55.870422), rotate(0)" xlink:href="#item_14">
<title>item, id: 14, transf: [r: 0.000°, t: (35.861, 55.870)]</title>
</use>
<use transform="translate(0.0004248619 58.004177), rotate(0)" xlink:href="#item_9">
<title>item, id: 9, transf: [r: 0.000°, t: (0.000, 58.004)]</title>
</use>
<use transform="translate(83.73326 12.170488), rotate(0)" xlink:href="#item_7">
<title>item, id: 7, transf: [r: 0.000°, t: (83.733, 12.170)]</title>
</use>
<use transform="translate(120.01823 69.180695), rotate(0)" xlink:href="#item_7">
<title>item, id: 7, transf: [r: 0.000°, t: (120.018, 69.181)]</title>
</use>
<use transform="translate(48.265884 61.144867), rotate(0)" xlink:href="#item_7">
<title>item, id: 7, transf: [r: 0.000°, t: (48.266, 61.145)]</title>
</use>
<use transform="translate(29.72333 24.079424), rotate(0)" xlink:href="#item_7">
<title>item, id: 7, transf: [r: 0.000°, t: (29.723, 24.079)]</title>
</use>
<use transform="translate(46.39306 28.523666), rotate(-180)" xlink:href="#item_7">
<title>item, id: 7, transf: [r: -180.000°, t: (46.393, 28.524)]</title>
</use>
<use transform="translate(83.71449 18.56316), rotate(-180)" xlink:href="#item_7">
<title>item, id: 7, transf: [r: -180.000°, t: (83.714, 18.563)]</title>
</use>
<use transform="translate(63.4534 65.18236), rotate(-180)" xlink:href="#item_7">
<title>item, id: 7, transf: [r: -180.000°, t: (63.453, 65.182)]</title>
</use>
<use transform="translate(66.91756 14.085154), rotate(0)" xlink:href="#item_7">
<title>item, id: 7, transf: [r: 0.000°, t: (66.918, 14.085)]</title>
</use>
<use transform="translate(180.74239 41.894596), rotate(-180)" xlink:href="#item_11">
<title>item, id: 11, transf: [r: -180.000°, t: (180.742, 41.895)]</title>
</use>
<use transform="translate(160.28711 73.997246), rotate(-180)" xlink:href="#item_6">
<title>item, id: 6, transf: [r: -180.000°, t: (160.287, 73.997)]</title>
</use>
<use transform="translate(181.3625 73.99659), rotate(-180)" xlink:href="#item_6">
<title>item, id: 6, transf: [r: -180.000°, t: (181.363, 73.997)]</title>
</use>
<use transform="translate(138.95166 53.5168), rotate(0)" xlink:href="#item_6">
<title>item, id: 6, transf: [r: 0.000°, t: (138.952, 53.517)]</title>
</use>
<use transform="translate(154.32994 69.98497), rotate(0)" xlink:href="#item_6">
<title>item, id: 6, transf: [r: 0.000°, t: (154.330, 69.985)]</title>
</use>
<use transform="translate(131.3582 69.990654), rotate(0)" xlink:href="#item_6">
<title>item, id: 6, transf: [r: 0.000°, t: (131.358, 69.991)]</title>
</use>
<use transform="translate(53.559326 56.405937), rotate(0)" xlink:href="#item_6">
<title>item, id: 6, transf: [r: 0.000°, t: (53.559, 56.406)]</title>
</use>
<use transform="translate(175.78294 57.848812), rotate(-180)" xlink:href="#item_6">
<title>item, id: 6, transf: [r: -180.000°, t: (175.783, 57.849)]</title>
</use>
<use transform="translate(160.85078 53.58066), rotate(0)" xlink:href="#item_6">
<title>item, id: 6, transf: [r: 0.000°, t: (160.851, 53.581)]</title>
</use>
<use transform="translate(155.73245 40.607677), rotate(-180)" xlink:href="#item_8">
<title>item, id: 8, transf: [r: -180.000°, t: (155.732, 40.608)]</title>
</use>
<use transform="translate(60.552254 73.99974), rotate(0)" xlink:href="#item_13">
<title>item, id: 13, transf: [r: 0.000°, t: (60.552, 74.000)]</title>
</use>
<use transform="translate(155.7379 36.619144), rotate(0)" xlink:href="#item_13">
<title>item, id: 13, transf: [r: 0.000°, t: (155.738, 36.619)]</title>
</use>
<use transform="translate(186.46371 63.60195), rotate(-180)" xlink:href="#item_15">
<title>item, id: 15, transf: [r: -180.000°, t: (186.464, 63.602)]</title>
</use>
<use transform="translate(40.23172 59.35428), rotate(0)" xlink:href="#item_15">
<title>item, id: 15, transf: [r: 0.000°, t: (40.232, 59.354)]</title>
</use>
<use transform="translate(237.69908 18.019194), rotate(-180)" xlink:href="#item_15">
<title>item, id: 15, transf: [r: -180.000°, t: (237.699, 18.019)]</title>
</use>
<use transform="translate(184.3797 55.246155), rotate(0)" xlink:href="#item_15">
<title>item, id: 15, transf: [r: 0.000°, t: (184.380, 55.246)]</title>
</use>
<use transform="translate(235.22565 8.007903), rotate(-180)" xlink:href="#item_15">
<title>item, id: 15, transf: [r: -180.000°, t: (235.226, 8.008)]</title>
</use>
<use transform="translate(200.3824 62.3996), rotate(-180)" xlink:href="#item_15">
<title>item, id: 15, transf: [r: -180.000°, t: (200.382, 62.400)]</title>
</use>
<use transform="translate(22.002655 62.487797), rotate(-180)" xlink:href="#item_15">
<title>item, id: 15, transf: [r: -180.000°, t: (22.003, 62.488)]</title>
</use>
<use transform="translate(218.38138 59.30656), rotate(0)" xlink:href="#item_15">
<title>item, id: 15, transf: [r: 0.000°, t: (218.381, 59.307)]</title>
</use>
<use transform="translate(116.60381 74.997444), rotate(0)" xlink:href="#item_10">
<title>item, id: 10, transf: [r: 0.000°, t: (116.604, 74.997)]</title>
</use>
<use transform="translate(123.65918 55.859444), rotate(-180)" xlink:href="#item_12">
<title>item, id: 12, transf: [r: -180.000°, t: (123.659, 55.859)]</title>
</use>
<use transform="translate(0.865139 53.622643), rotate(0)" xlink:href="#item_12">
<title>item, id: 12, transf: [r: 0.000°, t: (0.865, 53.623)]</title>
</use>
<use transform="translate(26.715149 22.762365), rotate(0)" xlink:href="#item_16">
<title>item, id: 16, transf: [r: 0.000°, t: (26.715, 22.762)]</title>
</use>
<use transform="translate(60.74329 49.73792), rotate(-180)" xlink:href="#item_16">
<title>item, id: 16, transf: [r: -180.000°, t: (60.743, 49.738)]</title>
</use>
<use transform="translate(3.0637074 22.091), rotate(0)" xlink:href="#item_16">
<title>item, id: 16, transf: [r: 0.000°, t: (3.064, 22.091)]</title>
</use>
<use transform="translate(137.0601 71.99185), rotate(0)" xlink:href="#item_16">
<title>item, id: 16, transf: [r: 0.000°, t: (137.060, 71.992)]</title>
</use>
</g>
<g id="quality_zones"/>
<g id="optionals">
<g id="overlap_lines" transform="translate(0 0), rotate(0)"/>
</g>
<text font-family="monospace" font-size="1.975" font-weight="500" x="0" y="-0.9875">
height: 79.000 | width: 237.746 | usage: 91.612% | final_bench_33
</text>
</svg>