<svg viewBox="-11.900288 -3.950001 261.80627 86.90001" xmlns="http://www.w3.org/2000/svg" xmlns:xlink="http://www.w3.org/1999/xlink">
<g id="bin_0">
<path d="M0,0 L238.00569,0 L238.00569,79 L0,79 z" fill="#D3D3D3" stroke="black" stroke-width="0.43450004"/>
<title>bin, id: 0, bbox: [x_min: 0.000, y_min: 0.000, x_max: 238.006, y_max: 79.000]</title>
</g>
<g id="items">
<defs>
<g id="item_0">
<path d="M0,0 L12,-1 L14,-3.0000005 L24,0 L33,1 L59,2 L59,13 L4,13 L4,8 L2,5 L0,5 z" fill="#7A7A7A" fill-opacity="0.5" fill-rule="nonzero" stroke="black" stroke-width="0.21725002"/>
</g>
<g id="item_1">
<path d="M0,0 L0,-14 L27,-17 L37,-20 L41,-22 L47,-19 L56,-16 L56,0 z" fill="#7A7A7A" fill-opacity="0.5" fill-rule="nonzero" stroke="black" stroke-width="0.21725002"/>
</g>
<g id="item_2">
<path d="M0,0 L57,0 L57,5 L0,5 z" fill="#7A7A7A" fill-opacity="0.5" fill-rule="nonzero" stroke="black" stroke-width="0.21725002"/>
</g>
<g id="item_3">
<path d="M0,0 L52,0 L52,5 L0,5 z" fill="#7A7A7A" fill-opacity="0.5" fill-rule="nonzero" stroke="black" stroke-width="0.21725002"/>
</g>
<g id="item_4">
<path d="M0,0 L44,0 L44,5 L0,5 z" fill="#7A7A7A" fill-opacity="0.5" fill-rule="nonzero" stroke="black" stroke-width="0.21725002"/>
</g>
<g id="item_5">
<path d="M0,0 L42,0 L42,5 L0,5 z" fill="#7A7A7A" fill-opacity="0.5" fill-rule="nonzero" stroke="black" stroke-width="0.21725002"/>
</g>
<g id="item_6">
<path d="M0,0 L21,0 L21,2 L0,2 z" fill="#7A7A7A" fill-opacity="0.5" fill-rule="nonzero" stroke="black" stroke-width="0.21725002"/>
</g>
<g id="item_7">
<path d="M0,0 L15,4 L13,7 L0,6 z" fill="#7A7A7A" fill-opacity="0.5" fill-rule="nonzero" stroke="black" stroke-width="0.21725002"/>
</g>
<g id="item_8">
<path d="M0,0 L15,1 L15,4 L0,4 z" fill="#7A7A7A" fill-opacity="0.5" fill-rule="nonzero" stroke="black" stroke-width="0.21725002"/>
</g>
<g id="item_9">
<path d="M0,0 L14,0 L14,5 L0,5 z" fill="#7A7A7A" fill-opacity="0.5" fill-rule="nonzero" stroke="black" stroke-width="0.21725002"/>
</g>
<g id="item_10">
<path d="M0,0 L14,1 L14,4 L0,4 z" fill="#7A7A7A" fill-opacity="0.5" fill-rule="nonzero" stroke="black" stroke-width="0.21725002"/>
</g>
<g id="item_11">
<path d="M0,0 L13,0 L13,5 L0,5 z" fill="#7A7A7A" fill-opacity="0.5" fill-rule="nonzero" stroke="black" stroke-width="0.21725002"/>
</g>
<g id="item_12">
<path d="M0,0 L13,1 L13,4 L0,4 z" fill="#7A7A7A" fill-opacity="0.5" fill-rule="nonzero" stroke="black" stroke-width="0.21725002"/>
</g>
<g id="item_13">
<path d="M0,0 L12,0 L12,5 L0,5 z" fill="#7A7A7A" fill-opacity="0.5" fill-rule="nonzero" stroke="black" stroke-width="0.21725002"/>
</g>
<g id="item_14">
<path d="M0,0 L4,2 L6,10 L4,11 L-4,11 L-6,10 L-4,2 z" fill="#7A7A7A" fill-opacity="0.5" fill-rule="nonzero" stroke="black" stroke-width="0.21725002"/>
</g>
<g id="item_15">
<path d="M0,0 L3,-2 L8,0 L8,8 L2,8 z" fill="#7A7A7A" fill-opacity="0.5" fill-rule="nonzero" stroke="black" stroke-width="0.21725002"/>
</g>
<g id="item_16">
<path d="M0,0 L2,1 L3,6 L2,7 L-2,7 L-3,6 L-2,1 z" fill="#7A7A7A" fill-opacity="0.5" fill-rule="nonzero" stroke="black" stroke-width="0.21725002"/>
</g>
</defs>
<use transform="translate(179.00145 5.0017605), rotate(-180)" xlink:href="#item_1">
<title>item, id: 1, transf: [r: -180.000°, t: (179.001, 5.002)]</title>
</use>
<use transform="translate(179.0025 54.878094), rotate(-180)" xlink:href="#item_1">
<title>item, id: 1, transf: [r: -180.000°, t: (179.003, 54.878)]</title>
</use>
<use transform="translate(56.006283 42.55182), rotate(-180)" xlink:href="#item_1">
<title>item, id: 1, transf: [r: -180.000°, t: (56.006, 42.552)]</title>
</use>
<use transform="translate(56.631836 5.0209236), rotate(-180)" xlink:href="#item_1">
<title>item, id: 1, transf: [r: -180.000°, t: (56.632, 5.021)]</title>
</use>
<use transform="translate(10.991688 78.998764), rotate(0)" xlink:href="#item_1">
<title>item, id: 1, transf: [r: 0.000°, t: (10.992, 78.999)]</title>
</use>
<use transform="translate(237.51985 38.896996), rotate(-180)" xlink:href="#item_1">
<title>item, id: 1, transf: [r: -180.000°, t: (237.520, 38.897)]</title>
</use>
<use transform="translate(112.00652 42.551712), rotate(-180)" xlink:href="#item_1">
<title>item, id: 1, transf: [r: -180.000°, t: (112.007, 42.552)]</title>
</use>
<use transform="translate(66.99246 78.99854), rotate(0)" xlink:href="#item_1">
<title>item, id: 1, transf: [r: 0.000°, t: (66.992, 78.999)]</title>
</use>
<use transform="translate(122.51963 41.810936), rotate(0)" xlink:href="#item_0">
<title>item, id: 0, transf: [r: 0.000°, t: (122.520, 41.811)]</title>
</use>
<use transform="translate(168.29933 20.893787), rotate(0)" xlink:href="#item_0">
<title>item, id: 0, transf: [r: 0.000°, t: (168.299, 20.894)]</title>
</use>
<use transform="translate(55.91118 24.547457), rotate(0)" xlink:href="#item_0">
<title>item, id: 0, transf: [r: 0.000°, t: (55.911, 24.547)]</title>
</use>
<use transform="translate(175.04056 40.007607), rotate(-180)" xlink:href="#item_0">
<title>item, id: 0, transf: [r: -180.000°, t: (175.041, 40.008)]</title>
</use>
<use transform="translate(179.00552 65.999084), rotate(0)" xlink:href="#item_0">
<title>item, id: 0, transf: [r: 0.000°, t: (179.006, 65.999)]</title>
</use>
<use transform="translate(123.001434 13.005799), rotate(-180)" xlink:href="#item_0">
<title>item, id: 0, transf: [r: -180.000°, t: (123.001, 13.006)]</title>
</use>
<use transform="translate(238.00243 13.00145), rotate(-180)" xlink:href="#item_0">
<title>item, id: 0, transf: [r: -180.000°, t: (238.002, 13.001)]</title>
</use>
<use transform="translate(0.034568787 29.551603), rotate(0)" xlink:href="#item_0">
<title>item, id: 0, transf: [r: 0.000°, t: (0.035, 29.552)]</title>
</use>
<use transform="translate(120.4359 0.00037908554), rotate(0)" xlink:href="#item_2">
<title>item, id: 2, transf: [r: 0.000°, t: (120.436, 0.000)]</title>
</use>
<use transform="translate(111.05294 42.547745), rotate(-180)" xlink:href="#item_3">
<title>item, id: 3, transf: [r: -180.000°, t: (111.053, 42.548)]</title>
</use>
<use transform="translate(12.000622 0.019776106), rotate(0)" xlink:href="#item_4">
<title>item, id: 4, transf: [r: 0.000°, t: (12.001, 0.020)]</title>
</use>
<use transform="translate(217.04721 38.895264), rotate(-180)" xlink:href="#item_5">
<title>item, id: 5, transf: [r: -180.000°, t: (217.047, 38.895)]</title>
</use>
<use transform="translate(118.14905 60.23964), rotate(-180)" xlink:href="#item_14">
<title>item, id: 14, transf: [r: -180.000°, t: (118.149, 60.240)]</title>
</use>
<use transform="translate(105.07946 15.009167), rotate(0)" xlink:href="#item_14">
<title>item, id: 14, transf: [r: 0.000°, t: (105.079, 15.009)]</title>
</use>
<use transform="translate(95.75381 24.236242), rotate(-180)" xlink:href="#item_14">
<title>item, id: 14, transf: [r: -180.000°, t: (95.754, 24.236)]</title>
</use>
<use transform="translate(76.91329 22.6606), rotate(-180)" xlink:href="#item_14">
<title>item, id: 14, transf: [r: -180.000°, t: (76.913, 22.661)]</title>
</use>
<use transform="translate(86.132805 13.790642), rotate(0)" xlink:href="#item_14">
<title>item, id: 14, transf: [r: 0.000°, t: (86.133, 13.791)]</title>
</use>
<use transform="translate(226.74571 56.38099), rotate(0)" xlink:href="#item_14">
<title>item, id: 14, transf: [r: 0.000°, t: (226.746, 56.381)]</title>
</use>
<use transform="translate(117.17028 49.20492), rotate(-180)" xlink:href="#item_14">
<title>item, id: 14, transf: [r: -180.000°, t: (117.170, 49.205)]</title>
</use>
<use transform="translate(217.18886 66.60284), rotate(-180)" xlink:href="#item_14">
<title>item, id: 14, transf: [r: -180.000°, t: (217.189, 66.603)]</title>
</use>
<use transform="translate(154.1939 22.003736), rotate(0)" xlink:href="#item_9">
<title>item, id: 9, transf: [r: 0.000°, t: (154.194, 22.004)]</title>
</use>
<use transform="translate(209.85417 12.545401), rotate(0)" xlink:href="#item_7">
<title>item, id: 7, transf: [r: 0.000°, t: (209.854, 12.545)]</title>
</use>
<use transform="translate(179.90144 56.096413), rotate(0)" xlink:href="#item_7">
<title>item, id: 7, transf: [r: 0.000°, t: (179.901, 56.096)]</title>
</use>
<use transform="translate(212.14561 66.811646), rotate(-180)" xlink:href="#item_7">
<title>item, id: 7, transf: [r: -180.000°, t: (212.146, 66.812)]</title>
</use>
<use transform="translate(37.22875 30.676159), rotate(-180)" xlink:href="#item_7">
<title>item, id: 7, transf: [r: -180.000°, t: (37.229, 30.676)]</title>
</use>
<use transform="translate(37.229862 24.209799), rotate(0)" xlink:href="#item_7">
<title>item, id: 7, transf: [r: 0.000°, t: (37.230, 24.210)]</title>
</use>
<use transform="translate(55.36989 29.045868), rotate(-180)" xlink:href="#item_7">
<title>item, id: 7, transf: [r: -180.000°, t: (55.370, 29.046)]</title>
</use>
<use transform="translate(116.94402 19.990065), rotate(0)" xlink:href="#item_7">
<title>item, id: 7, transf: [r: 0.000°, t: (116.944, 19.990)]</title>
</use>
<use transform="translate(194.00214 20.934174), rotate(-180)" xlink:href="#item_7">
<title>item, id: 7, transf: [r: -180.000°, t: (194.002, 20.934)]</title>
</use>
<use transform="translate(225.00557 14.99839), rotate(0)" xlink:href="#item_11">
<title>item, id: 11, transf: [r: 0.000°, t: (225.006, 14.998)]</title>
</use>
<use transform="translate(157.77003 78.918274), rotate(-180)" xlink:href="#item_6">
<title>item, id: 6, transf: [r: -180.000°, t: (157.770, 78.918)]</title>
</use>
<use transform="translate(182.16829 74.99955), rotate(-180)" xlink:href="#item_6">
<title>item, id: 6, transf: [r: -180.000°, t: (182.168, 75.000)]</title>
</use>
<use transform="translate(161.84221 76.99996), rotate(0)" xlink:href="#item_6">
<title>item, id: 6, transf: [r: 0.000°, t: (161.842, 77.000)]</title>
</use>
<use transform="translate(161.18039 74.99977), rotate(0)" xlink:href="#item_6">
<title>item, id: 6, transf: [r: 0.000°, t: (161.180, 75.000)]</title>
</use>
<use transform="translate(209.0025 19.999731), rotate(0)" xlink:href="#item_6">
<title>item, id: 6, transf: [r: 0.000°, t: (209.003, 20.000)]</title>
</use>
<use transform="translate(66.353806 22.27444), rotate(-180)" xlink:href="#item_6">
<title>item, id: 6, transf: [r: -180.000°, t: (66.354, 22.274)]</title>
</use>
<use transform="translate(183.38327 11.97786), rotate(0)" xlink:href="#item_6">
<title>item, id: 6, transf: [r: 0.000°, t: (183.383, 11.978)]</title>
</use>
<use transform="translate(159.99052 70.99953), rotate(0)" xlink:href="#item_6">
<title>item, id: 6, transf: [r: 0.000°, t: (159.991, 71.000)]</title>
</use>
<use transform="translate(209.00237 22.081182), rotate(-180)" xlink:href="#item_8">
<title>item, id: 8, transf: [r: -180.000°, t: (209.002, 22.081)]</title>
</use>
<use transform="translate(217.05179 33.895813), rotate(0)" xlink:href="#item_13">
<title>item, id: 13, transf: [r: 0.000°, t: (217.052, 33.896)]</title>
</use>
<use transform="translate(12.00046 5.000042), rotate(-180)" xlink:href="#item_13">
<title>item, id: 13, transf: [r: -180.000°, t: (12.000, 5.000)]</title>
</use>
<use transform="translate(72.63484 19.579296), rotate(-180)" xlink:href="#item_15">
<title>item, id: 15, transf: [r: -180.000°, t: (72.635, 19.579)]</title>
</use>
<use transform="translate(238.00285 28.373562), rotate(-180)" xlink:href="#item_15">
<title>item, id: 15, transf: [r: -180.000°, t: (238.003, 28.374)]</title>
</use>
<use transform="translate(228.30154 30.893734), rotate(0)" xlink:href="#item_15">
<title>item, id: 15, transf: [r: 0.000°, t: (228.302, 30.894)]</title>
</use>
<use transform="translate(108.91471 16.291822), rotate(0)" xlink:href="#item_15">
<title>item, id: 15, transf: [r: 0.000°, t: (108.915, 16.292)]</title>
</use>
<use transform="translate(0.00011014938 62.87146), rotate(0)" xlink:href="#item_15">
<title>item, id: 15, transf: [r: 0.000°, t: (0.000, 62.871)]</title>
</use>
<use transform="translate(56.63444 12.270091), rotate(0)" xlink:href="#item_15">
<title>item, id: 15, transf: [r: 0.000°, t: (56.634, 12.270)]</title>
</use>
<use transform="translate(230.00223 55.40456), rotate(0)" xlink:href="#item_15">
<title>item, id: 15, transf: [r: 0.000°, t: (230.002, 55.405)]</title>
</use>
<use transform="translate(56.001053 2.2680545), rotate(0)" xlink:href="#item_15">
<title>item, id: 15, transf: [r: 0.000°, t: (56.001, 2.268)]</title>
</use>
<use transform="translate(195.61026 14.0809965), rotate(0)" xlink:href="#item_10">
<title>item, id: 10, transf: [r: 0.000°, t: (195.610, 14.081)]</title>
</use>
<use transform="translate(161.16788 77.088036), rotate(-180)" xlink:href="#item_12">
<title>item, id: 12, transf: [r: -180.000°, t: (161.168, 77.088)]</title>
</use>
<use transform="translate(123.16872 74.99909), rotate(0)" xlink:href="#item_12">
<title>item, id: 12, transf: [r: 0.000°, t: (123.169, 74.999)]</title>
</use>
<use transform="translate(3.000611 77.874435), rotate(-180)" xlink:href="#item_16">
<title>item, id: 16, transf: [r: -180.000°, t: (3.001, 77.874)]</title>
</use>
<use transform="translate(7.963508 71.48698), rotate(0)" xlink:href="#item_16">
<title>item, id: 16, transf: [r: 0.000°, t: (7.964, 71.487)]</title>
</use>
<use transform="translate(119.98169 20.724129), rotate(-180)" xlink:href="#item_16">
<title>item, id: 16, transf: [r: -180.000°, t: (119.982, 20.724)]</title>
</use>
<use transform="translate(3.116055 22.09136), rotate(0)" xlink:href="#item_16">
<title>item, id: 16, transf: [r: 0.000°, t: (3.116, 22.091)]</title>
</use>
</g>
<g id="quality_zones"/>
<g id="optionals">
<g id="overlap_lines" transform="translate(0 0), rotate(0)"/>
</g>
<text font-family="monospace" font-size="1.975" font-weight="500" x="0" y="-0.9875">
height: 79.000 | width: 238.006 | usage: 91.512% | final_bench_11
</text>
</svg>