<svg viewBox="-11.917041 -3.950001 262.17484 86.90001" xmlns="http://www.w3.org/2000/svg" xmlns:xlink="http://www.w3.org/1999/xlink">
<g id="bin_0">
<path d="M0,0 L238.34076,0 L238.34076,79 L0,79 z" fill="#D3D3D3" stroke="black" stroke-width="0.43450004"/>
<title>bin, id: 0, bbox: [x_min: 0.000, y_min: 0.000, x_max: 238.341, y_max: 79.000]</title>
</g>
<g id="items">
<defs>
<g id="item_0">
<path d="M0,0 L12,-1 L14,-3.0000005 L24,0 L33,1 L59,2 L59,13 L4,13 L4,8 L2,5 L0,5 z" fill="#7A7A7A" fill-opacity="0.5" fill-rule="nonzero" stroke="black" stroke-width="0.21725002"/>
</g>
<g id="item_1">
<path d="M0,0 L0,-14 L27,-17 L37,-20 L41,-22 L47,-19 L56,-16 L56,0 z" fill="#7A7A7A" fill-opacity="0.5" fill-rule="nonzero" stroke="black" stroke-width="0.21725002"/>
</g>
<g id="item_2">
<path d="M0,0 L57,0 L57,5 L0,5 z" fill="#7A7A7A" fill-opacity="0.5" fill-rule="nonzero" stroke="black" stroke-width="0.21725002"/>
</g>
<g id="item_3">
<path d="M0,0 L52,0 L52,5 L0,5 z" fill="#7A7A7A" fill-opacity="0.5" fill-rule="nonzero" stroke="black" stroke-width="0.21725002"/>
</g>
<g id="item_4">
<path d="M0,0 L44,0 L44,5 L0,5 z" fill="#7A7A7A" fill-opacity="0.5" fill-rule="nonzero" stroke="black" stroke-width="0.21725002"/>
</g>
<g id="item_5">
<path d="M0,0 L42,0 L42,5 L0,5 z" fill="#7A7A7A" fill-opacity="0.5" fill-rule="nonzero" stroke="black" stroke-width="0.21725002"/>
</g>
<g id="item_6">
<path d="M0,0 L21,0 L21,2 L0,2 z" fill="#7A7A7A" fill-opacity="0.5" fill-rule="nonzero" stroke="black" stroke-width="0.21725002"/>
</g>
<g id="item_7">
<path d="M0,0 L15,4 L13,7 L0,6 z" fill="#7A7A7A" fill-opacity="0.5" fill-rule="nonzero" stroke="black" stroke-width="0.21725002"/>
</g>
<g id="item_8">
<path d="M0,0 L15,1 L15,4 L0,4 z" fill="#7A7A7A" fill-opacity="0.5" fill-rule="nonzero" stroke="black" stroke-width="0.21725002"/>
</g>
<g id="item_9">
<path d="M0,0 L14,0 L14,5 L0,5 z" fill="#7A7A7A" fill-opacity="0.5" fill-rule="nonzero" stroke="black" stroke-width="0.21725002"/>
</g>
<g id="item_10">
<path d="M0,0 L14,1 L14,4 L0,4 z" fill="#7A7A7A" fill-opacity="0.5" fill-rule="nonzero" stroke="black" stroke-width="0.21725002"/>
</g>
<g id="item_11">
<path d="M0,0 L13,0 L13,5 L0,5 z" fill="#7A7A7A" fill-opacity="0.5" fill-rule="nonzero" stroke="black" stroke-width="0.21725002"/>
</g>
<g id="item_12">
<path d="M0,0 L13,1 L13,4 L0,4 z" fill="#7A7A7A" fill-opacity="0.5" fill-rule="nonzero" stroke="black" stroke-width="0.21725002"/>
</g>
<g id="item_13">
<path d="M0,0 L12,0 L12,5 L0,5 z" fill="#7A7A7A" fill-opacity="0.5" fill-rule="nonzero" stroke="black" stroke-width="0.21725002"/>
</g>
<g id="item_14">
<path d="M0,0 L4,2 L6,10 L4,11 L-4,11 L-6,10 L-4,2 z" fill="#7A7A7A" fill-opacity="0.5" fill-rule="nonzero" stroke="black" stroke-width="0.21725002"/>
</g>
<g id="item_15">
<path d="M0,0 L3,-2 L8,0 L8,8 L2,8 z" fill="#7A7A7A" fill-opacity="0.5" fill-rule="nonzero" stroke="black" stroke-width="0.21725002"/>
</g>
<g id="item_16">
<path d="M0,0 L2,1 L3,6 L2,7 L-2,7 L-3,6 L-2,1 z" fill="#7A7A7A" fill-opacity="0.5" fill-rule="nonzero" stroke="black" stroke-width="0.21725002"/>
</g>
</defs>
<use transform="translate(56.0007 5.103326), rotate(-180)" xlink:href="#item_1">
<title>item, id: 1, transf: [r: -180.000°, t: (56.001, 5.103)]</title>
</use>
<use transform="translate(0.006006241 42.79055), rotate(0)" xlink:href="#item_1">
<title>item, id: 1, transf: [r: 0.000°, t: (0.006, 42.791)]</title>
</use>
<use transform="translate(182.34058 25.498611), rotate(0)" xlink:href="#item_1">
<title>item, id: 1, transf: [r: 0.000°, t: (182.341, 25.499)]</title>
</use>
<use transform="translate(115.01933 49.463085), rotate(0)" xlink:href="#item_1">
<title>item, id: 1, transf: [r: 0.000°, t: (115.019, 49.463)]</title>
</use>
<use transform="translate(112.001724 0.0010509491), rotate(-180)" xlink:href="#item_1">
<title>item, id: 1, transf: [r: -180.000°, t: (112.002, 0.001)]</title>
</use>
<use transform="translate(66.86713 78.99769), rotate(0)" xlink:href="#item_1">
<title>item, id: 1, transf: [r: 0.000°, t: (66.867, 78.998)]</title>
</use>
<use transform="translate(115.01864 42.12613), rotate(-180)" xlink:href="#item_1">
<title>item, id: 1, transf: [r: -180.000°, t: (115.019, 42.126)]</title>
</use>
<use transform="translate(227.20015 30.507483), rotate(-180)" xlink:href="#item_1">
<title>item, id: 1, transf: [r: -180.000°, t: (227.200, 30.507)]</title>
</use>
<use transform="translate(174.27972 62.466835), rotate(-180)" xlink:href="#item_0">
<title>item, id: 0, transf: [r: -180.000°, t: (174.280, 62.467)]</title>
</use>
<use transform="translate(56.017853 29.117346), rotate(0)" xlink:href="#item_0">
<title>item, id: 0, transf: [r: 0.000°, t: (56.018, 29.117)]</title>
</use>
<use transform="translate(7.5848103 65.99661), rotate(0)" xlink:href="#item_0">
<title>item, id: 0, transf: [r: 0.000°, t: (7.585, 65.997)]</title>
</use>
<use transform="translate(130.00934 65.99999), rotate(0)" xlink:href="#item_0">
<title>item, id: 0, transf: [r: 0.000°, t: (130.009, 66.000)]</title>
</use>
<use transform="translate(140.36847 31.20194), rotate(-180)" xlink:href="#item_0">
<title>item, id: 0, transf: [r: -180.000°, t: (140.368, 31.202)]</title>
</use>
<use transform="translate(59.012558 55.794937), rotate(-180)" xlink:href="#item_0">
<title>item, id: 0, transf: [r: -180.000°, t: (59.013, 55.795)]</title>
</use>
<use transform="translate(179.3359 53.08045), rotate(0)" xlink:href="#item_0">
<title>item, id: 0, transf: [r: 0.000°, t: (179.336, 53.080)]</title>
</use>
<use transform="translate(171.00237 18.154282), rotate(-180)" xlink:href="#item_0">
<title>item, id: 0, transf: [r: -180.000°, t: (171.002, 18.154)]</title>
</use>
<use transform="translate(236.16003 30.498627), rotate(-180)" xlink:href="#item_2">
<title>item, id: 2, transf: [r: -180.000°, t: (236.160, 30.499)]</title>
</use>
<use transform="translate(164.19586 5.070197), rotate(-180)" xlink:href="#item_3">
<title>item, id: 3, transf: [r: -180.000°, t: (164.196, 5.070)]</title>
</use>
<use transform="translate(164.25092 0.00002861023), rotate(0)" xlink:href="#item_4">
<title>item, id: 4, transf: [r: 0.000°, t: (164.251, 0.000)]</title>
</use>
<use transform="translate(42.000027 5.001569), rotate(-180)" xlink:href="#item_5">
<title>item, id: 5, transf: [r: -180.000°, t: (42.000, 5.002)]</title>
</use>
<use transform="translate(173.1472 19.496603), rotate(0)" xlink:href="#item_14">
<title>item, id: 14, transf: [r: 0.000°, t: (173.147, 19.497)]</title>
</use>
<use transform="translate(163.29903 30.886826), rotate(-180)" xlink:href="#item_14">
<title>item, id: 14, transf: [r: -180.000°, t: (163.299, 30.887)]</title>
</use>
<use transform="translate(12.382872 65.571396), rotate(-180)" xlink:href="#item_14">
<title>item, id: 14, transf: [r: -180.000°, t: (12.383, 65.571)]</title>
</use>
<use transform="translate(232.12938 40.020256), rotate(0)" xlink:href="#item_14">
<title>item, id: 14, transf: [r: 0.000°, t: (232.129, 40.020)]</title>
</use>
<use transform="translate(232.3406 67.97805), rotate(0)" xlink:href="#item_14">
<title>item, id: 14, transf: [r: 0.000°, t: (232.341, 67.978)]</title>
</use>
<use transform="translate(176.464 21.00073), rotate(-180)" xlink:href="#item_14">
<title>item, id: 14, transf: [r: -180.000°, t: (176.464, 21.001)]</title>
</use>
<use transform="translate(146.82211 18.821264), rotate(0)" xlink:href="#item_14">
<title>item, id: 14, transf: [r: 0.000°, t: (146.822, 18.821)]</title>
</use>
<use transform="translate(223.0646 77.08133), rotate(-180)" xlink:href="#item_14">
<title>item, id: 14, transf: [r: -180.000°, t: (223.065, 77.081)]</title>
</use>
<use transform="translate(56.000355 5.081094), rotate(-180)" xlink:href="#item_9">
<title>item, id: 9, transf: [r: -180.000°, t: (56.000, 5.081)]</title>
</use>
<use transform="translate(31.859926 65.66322), rotate(-180)" xlink:href="#item_7">
<title>item, id: 7, transf: [r: -180.000°, t: (31.860, 65.663)]</title>
</use>
<use transform="translate(197.12138 71.97309), rotate(0)" xlink:href="#item_7">
<title>item, id: 7, transf: [r: 0.000°, t: (197.121, 71.973)]</title>
</use>
<use transform="translate(81.36591 29.133673), rotate(-180)" xlink:href="#item_7">
<title>item, id: 7, transf: [r: -180.000°, t: (81.366, 29.134)]</title>
</use>
<use transform="translate(211.1856 75.13501), rotate(-180)" xlink:href="#item_7">
<title>item, id: 7, transf: [r: -180.000°, t: (211.186, 75.135)]</title>
</use>
<use transform="translate(238.33376 7.0015187), rotate(-180)" xlink:href="#item_7">
<title>item, id: 7, transf: [r: -180.000°, t: (238.334, 7.002)]</title>
</use>
<use transform="translate(33.871944 56.191), rotate(0)" xlink:href="#item_7">
<title>item, id: 7, transf: [r: 0.000°, t: (33.872, 56.191)]</title>
</use>
<use transform="translate(50.9956 56.46471), rotate(0)" xlink:href="#item_7">
<title>item, id: 7, transf: [r: 0.000°, t: (50.996, 56.465)]</title>
</use>
<use transform="translate(61.303078 27.306684), rotate(-180)" xlink:href="#item_7">
<title>item, id: 7, transf: [r: -180.000°, t: (61.303, 27.307)]</title>
</use>
<use transform="translate(167.00407 5.00007), rotate(0)" xlink:href="#item_11">
<title>item, id: 11, transf: [r: 0.000°, t: (167.004, 5.000)]</title>
</use>
<use transform="translate(193.255 5.010187), rotate(0)" xlink:href="#item_6">
<title>item, id: 6, transf: [r: 0.000°, t: (193.255, 5.010)]</title>
</use>
<use transform="translate(66.86696 67.19879), rotate(-180)" xlink:href="#item_6">
<title>item, id: 6, transf: [r: -180.000°, t: (66.867, 67.199)]</title>
</use>
<use transform="translate(196.7016 49.0614), rotate(0)" xlink:href="#item_6">
<title>item, id: 6, transf: [r: 0.000°, t: (196.702, 49.061)]</title>
</use>
<use transform="translate(204.63263 47.015114), rotate(0)" xlink:href="#item_6">
<title>item, id: 6, transf: [r: 0.000°, t: (204.633, 47.015)]</title>
</use>
<use transform="translate(92.21259 16.200918), rotate(0)" xlink:href="#item_6">
<title>item, id: 6, transf: [r: 0.000°, t: (92.213, 16.201)]</title>
</use>
<use transform="translate(210.82892 68.11745), rotate(-180)" xlink:href="#item_6">
<title>item, id: 6, transf: [r: -180.000°, t: (210.829, 68.117)]</title>
</use>
<use transform="translate(38.813988 63.19854), rotate(0)" xlink:href="#item_6">
<title>item, id: 6, transf: [r: 0.000°, t: (38.814, 63.199)]</title>
</use>
<use transform="translate(203.33757 51.07697), rotate(0)" xlink:href="#item_6">
<title>item, id: 6, transf: [r: 0.000°, t: (203.338, 51.077)]</title>
</use>
<use transform="translate(18.546408 54.632385), rotate(0)" xlink:href="#item_8">
<title>item, id: 8, transf: [r: 0.000°, t: (18.546, 54.632)]</title>
</use>
<use transform="translate(220.25835 5.010187), rotate(-180)" xlink:href="#item_13">
<title>item, id: 13, transf: [r: -180.000°, t: (220.258, 5.010)]</title>
</use>
<use transform="translate(193.2415 10.276422), rotate(-180)" xlink:href="#item_13">
<title>item, id: 13, transf: [r: -180.000°, t: (193.242, 10.276)]</title>
</use>
<use transform="translate(197.11536 76.9022), rotate(-180)" xlink:href="#item_15">
<title>item, id: 15, transf: [r: -180.000°, t: (197.115, 76.902)]</title>
</use>
<use transform="translate(219.191 75.596115), rotate(-180)" xlink:href="#item_15">
<title>item, id: 15, transf: [r: -180.000°, t: (219.191, 75.596)]</title>
</use>
<use transform="translate(131.13617 76.99002), rotate(-180)" xlink:href="#item_15">
<title>item, id: 15, transf: [r: -180.000°, t: (131.136, 76.990)]</title>
</use>
<use transform="translate(174.28568 59.505123), rotate(0)" xlink:href="#item_15">
<title>item, id: 15, transf: [r: 0.000°, t: (174.286, 59.505)]</title>
</use>
<use transform="translate(8.173333 62.795643), rotate(-180)" xlink:href="#item_15">
<title>item, id: 15, transf: [r: -180.000°, t: (8.173, 62.796)]</title>
</use>
<use transform="translate(8.000545 72.7957), rotate(-180)" xlink:href="#item_15">
<title>item, id: 15, transf: [r: -180.000°, t: (8.001, 72.796)]</title>
</use>
<use transform="translate(238.34062 38.498688), rotate(-180)" xlink:href="#item_15">
<title>item, id: 15, transf: [r: -180.000°, t: (238.341, 38.499)]</title>
</use>
<use transform="translate(171.02115 49.45489), rotate(0)" xlink:href="#item_15">
<title>item, id: 15, transf: [r: 0.000°, t: (171.021, 49.455)]</title>
</use>
<use transform="translate(238.3376 55.080536), rotate(-180)" xlink:href="#item_10">
<title>item, id: 10, transf: [r: -180.000°, t: (238.338, 55.081)]</title>
</use>
<use transform="translate(128.51553 61.04113), rotate(0)" xlink:href="#item_12">
<title>item, id: 12, transf: [r: 0.000°, t: (128.516, 61.041)]</title>
</use>
<use transform="translate(175.27586 67.47136), rotate(-180)" xlink:href="#item_12">
<title>item, id: 12, transf: [r: -180.000°, t: (175.276, 67.471)]</title>
</use>
<use transform="translate(126.07896 61.988224), rotate(0)" xlink:href="#item_16">
<title>item, id: 16, transf: [r: 0.000°, t: (126.079, 61.988)]</title>
</use>
<use transform="translate(154.43622 28.225103), rotate(-180)" xlink:href="#item_16">
<title>item, id: 16, transf: [r: -180.000°, t: (154.436, 28.225)]</title>
</use>
<use transform="translate(64.22529 26.811937), rotate(-180)" xlink:href="#item_16">
<title>item, id: 16, transf: [r: -180.000°, t: (64.225, 26.812)]</title>
</use>
<use transform="translate(139.74167 26.12479), rotate(-180)" xlink:href="#item_16">
<title>item, id: 16, transf: [r: -180.000°, t: (139.742, 26.125)]</title>
</use>
</g>
<g id="quality_zones"/>
<g id="optionals">
<g id="overlap_lines" transform="translate(0 0), rotate(0)"/>
</g>
<text font-family="monospace" font-size="1.975" font-weight="500" x="0" y="-0.9875">
height: 79.000 | width: 238.341 | usage: 91.383% | final_bench_12
</text>
</svg>