<svg viewBox="-11.929893 -3.950001 262.45758 86.90001" xmlns="http://www.w3.org/2000/svg" xmlns:xlink="http://www.w3.org/1999/xlink">
<g id="bin_0">
<path d="M0,0 L238.5978,0 L238.5978,79 L0,79 z" fill="#D3D3D3" stroke="black" stroke-width="0.43450004"/>
<title>bin, id: 0, bbox: [x_min: 0.000, y_min: 0.000, x_max: 238.598, y_max: 79.000]</title>
</g>
<g id="items">
<defs>
<g id="item_0">
<path d="M0,0 L12,-1 L14,-3.0000005 L24,0 L33,1 L59,2 L59,13 L4,13 L4,8 L2,5 L0,5 z" fill="#7A7A7A" fill-opacity="0.5" fill-rule="nonzero" stroke="black" stroke-width="0.21725002"/>
</g>
<g id="item_1">
<path d="M0,0 L0,-14 L27,-17 L37,-20 L41,-22 L47,-19 L56,-16 L56,0 z" fill="#7A7A7A" fill-opacity="0.5" fill-rule="nonzero" stroke="black" stroke-width="0.21725002"/>
</g>
<g id="item_2">
<path d="M0,0 L57,0 L57,5 L0,5 z" fill="#7A7A7A" fill-opacity="0.5" fill-rule="nonzero" stroke="black" stroke-width="0.21725002"/>
</g>
<g id="item_3">
<path d="M0,0 L52,0 L52,5 L0,5 z" fill="#7A7A7A" fill-opacity="0.5" fill-rule="nonzero" stroke="black" stroke-width="0.21725002"/>
</g>
<g id="item_4">
<path d="M0,0 L44,0 L44,5 L0,5 z" fill="#7A7A7A" fill-opacity="0.5" fill-rule="nonzero" stroke="black" stroke-width="0.21725002"/>
</g>
<g id="item_5">
<path d="M0,0 L42,0 L42,5 L0,5 z" fill="#7A7A7A" fill-opacity="0.5" fill-rule="nonzero" stroke="black" stroke-width="0.21725002"/>
</g>
<g id="item_6">
<path d="M0,0 L21,0 L21,2 L0,2 z" fill="#7A7A7A" fill-opacity="0.5" fill-rule="nonzero" stroke="black" stroke-width="0.21725002"/>
</g>
<g id="item_7">
<path d="M0,0 L15,4 L13,7 L0,6 z" fill="#7A7A7A" fill-opacity="0.5" fill-rule="nonzero" stroke="black" stroke-width="0.21725002"/>
</g>
<g id="item_8">
<path d="M0,0 L15,1 L15,4 L0,4 z" fill="#7A7A7A" fill-opacity="0.5" fill-rule="nonzero" stroke="black" stroke-width="0.21725002"/>
</g>
<g id="item_9">
<path d="M0,0 L14,0 L14,5 L0,5 z" fill="#7A7A7A" fill-opacity="0.5" fill-rule="nonzero" stroke="black" stroke-width="0.21725002"/>
</g>
<g id="item_10">
<path d="M0,0 L14,1 L14,4 L0,4 z" fill="#7A7A7A" fill-opacity="0.5" fill-rule="nonzero" stroke="black" stroke-width="0.21725002"/>
</g>
<g id="item_11">
<path d="M0,0 L13,0 L13,5 L0,5 z" fill="#7A7A7A" fill-opacity="0.5" fill-rule="nonzero" stroke="black" stroke-width="0.21725002"/>
</g>
<g id="item_12">
<path d="M0,0 L13,1 L13,4 L0,4 z" fill="#7A7A7A" fill-opacity="0.5" fill-rule="nonzero" stroke="black" stroke-width="0.21725002"/>
</g>
<g id="item_13">
<path d="M0,0 L12,0 L12,5 L0,5 z" fill="#7A7A7A" fill-opacity="0.5" fill-rule="nonzero" stroke="black" stroke-width="0.21725002"/>
</g>
<g id="item_14">
<path d="M0,0 L4,2 L6,10 L4,11 L-4,11 L-6,10 L-4,2 z" fill="#7A7A7A" fill-opacity="0.5" fill-rule="nonzero" stroke="black" stroke-width="0.21725002"/>
</g>
<g id="item_15">
<path d="M0,0 L3,-2 L8,0 L8,8 L2,8 z" fill="#7A7A7A" fill-opacity="0.5" fill-rule="nonzero" stroke="black" stroke-width="0.21725002"/>
</g>
<g id="item_16">
<path d="M0,0 L2,1 L3,6 L2,7 L-2,7 L-3,6 L-2,1 z" fill="#7A7A7A" fill-opacity="0.5" fill-rule="nonzero" stroke="black" stroke-width="0.21725002"/>
</g>
</defs>
<use transform="translate(174.24557 43.229904), rotate(0)" xlink:href="#item_1">
<title>item, id: 1, transf: [r: 0.000°, t: (174.246, 43.230)]</title>
</use>
<use transform="translate(56.0027 41.3251), rotate(-180)" xlink:href="#item_1">
<title>item, id: 1, transf: [r: -180.000°, t: (56.003, 41.325)]</title>
</use>
<use transform="translate(59.025906 38.921936), rotate(0)" xlink:href="#item_1">
<title>item, id: 1, transf: [r: 0.000°, t: (59.026, 38.922)]</title>
</use>
<use transform="translate(179.59471 43.233826), rotate(-180)" xlink:href="#item_1">
<title>item, id: 1, transf: [r: -180.000°, t: (179.595, 43.234)]</title>
</use>
<use transform="translate(78.12634 78.999985), rotate(0)" xlink:href="#item_1">
<title>item, id: 1, transf: [r: 0.000°, t: (78.126, 79.000)]</title>
</use>
<use transform="translate(140.20027 78.9994), rotate(0)" xlink:href="#item_1">
<title>item, id: 1, transf: [r: 0.000°, t: (140.200, 78.999)]</title>
</use>
<use transform="translate(112.01494 45.927567), rotate(-180)" xlink:href="#item_1">
<title>item, id: 1, transf: [r: -180.000°, t: (112.015, 45.928)]</title>
</use>
<use transform="translate(0.0032444 78.99954), rotate(0)" xlink:href="#item_1">
<title>item, id: 1, transf: [r: 0.000°, t: (0.003, 79.000)]</title>
</use>
<use transform="translate(237.21739 18.045822), rotate(-180)" xlink:href="#item_0">
<title>item, id: 0, transf: [r: -180.000°, t: (237.217, 18.046)]</title>
</use>
<use transform="translate(174.1126 40.232925), rotate(-180)" xlink:href="#item_0">
<title>item, id: 0, transf: [r: -180.000°, t: (174.113, 40.233)]</title>
</use>
<use transform="translate(178.20505 13.001381), rotate(-180)" xlink:href="#item_0">
<title>item, id: 0, transf: [r: -180.000°, t: (178.205, 13.001)]</title>
</use>
<use transform="translate(111.03382 14.226114), rotate(0)" xlink:href="#item_0">
<title>item, id: 0, transf: [r: 0.000°, t: (111.034, 14.226)]</title>
</use>
<use transform="translate(0.017936707 23.289522), rotate(0)" xlink:href="#item_0">
<title>item, id: 0, transf: [r: 0.000°, t: (0.018, 23.290)]</title>
</use>
<use transform="translate(60.002502 13.000119), rotate(-180)" xlink:href="#item_0">
<title>item, id: 0, transf: [r: -180.000°, t: (60.003, 13.000)]</title>
</use>
<use transform="translate(238.59528 56.881447), rotate(-180)" xlink:href="#item_0">
<title>item, id: 0, transf: [r: -180.000°, t: (238.595, 56.881)]</title>
</use>
<use transform="translate(119.00392 13.003884), rotate(-180)" xlink:href="#item_0">
<title>item, id: 0, transf: [r: -180.000°, t: (119.004, 13.004)]</title>
</use>
<use transform="translate(231.89818 5.0458126), rotate(-180)" xlink:href="#item_2">
<title>item, id: 2, transf: [r: -180.000°, t: (231.898, 5.046)]</title>
</use>
<use transform="translate(52.01322 41.290817), rotate(-180)" xlink:href="#item_3">
<title>item, id: 3, transf: [r: -180.000°, t: (52.013, 41.291)]</title>
</use>
<use transform="translate(100.002754 45.926895), rotate(-180)" xlink:href="#item_4">
<title>item, id: 4, transf: [r: -180.000°, t: (100.003, 45.927)]</title>
</use>
<use transform="translate(238.20177 78.99917), rotate(-180)" xlink:href="#item_5">
<title>item, id: 5, transf: [r: -180.000°, t: (238.202, 78.999)]</title>
</use>
<use transform="translate(202.20093 60.407898), rotate(0)" xlink:href="#item_14">
<title>item, id: 14, transf: [r: 0.000°, t: (202.201, 60.408)]</title>
</use>
<use transform="translate(27.355757 23.49556), rotate(-180)" xlink:href="#item_14">
<title>item, id: 14, transf: [r: -180.000°, t: (27.356, 23.496)]</title>
</use>
<use transform="translate(61.72992 24.19469), rotate(-180)" xlink:href="#item_14">
<title>item, id: 14, transf: [r: -180.000°, t: (61.730, 24.195)]</title>
</use>
<use transform="translate(36.91387 13.273872), rotate(0)" xlink:href="#item_14">
<title>item, id: 14, transf: [r: 0.000°, t: (36.914, 13.274)]</title>
</use>
<use transform="translate(52.146038 13.869778), rotate(0)" xlink:href="#item_14">
<title>item, id: 14, transf: [r: 0.000°, t: (52.146, 13.870)]</title>
</use>
<use transform="translate(232.59773 58.98358), rotate(0)" xlink:href="#item_14">
<title>item, id: 14, transf: [r: 0.000°, t: (232.598, 58.984)]</title>
</use>
<use transform="translate(71.76467 12.0609455), rotate(0)" xlink:href="#item_14">
<title>item, id: 14, transf: [r: 0.000°, t: (71.765, 12.061)]</title>
</use>
<use transform="translate(117.58936 54.22258), rotate(-180)" xlink:href="#item_14">
<title>item, id: 14, transf: [r: -180.000°, t: (117.589, 54.223)]</title>
</use>
<use transform="translate(224.59122 19.71623), rotate(0)" xlink:href="#item_9">
<title>item, id: 9, transf: [r: 0.000°, t: (224.591, 19.716)]</title>
</use>
<use transform="translate(213.60532 56.97091), rotate(0)" xlink:href="#item_7">
<title>item, id: 7, transf: [r: 0.000°, t: (213.605, 56.971)]</title>
</use>
<use transform="translate(184.8532 19.60372), rotate(0)" xlink:href="#item_7">
<title>item, id: 7, transf: [r: 0.000°, t: (184.853, 19.604)]</title>
</use>
<use transform="translate(15.000009 18.039482), rotate(-180)" xlink:href="#item_7">
<title>item, id: 7, transf: [r: -180.000°, t: (15.000, 18.039)]</title>
</use>
<use transform="translate(213.60336 62.85814), rotate(-180)" xlink:href="#item_7">
<title>item, id: 7, transf: [r: -180.000°, t: (213.603, 62.858)]</title>
</use>
<use transform="translate(199.55042 23.49542), rotate(-180)" xlink:href="#item_7">
<title>item, id: 7, transf: [r: -180.000°, t: (199.550, 23.495)]</title>
</use>
<use transform="translate(170.39146 14.154005), rotate(0)" xlink:href="#item_7">
<title>item, id: 7, transf: [r: 0.000°, t: (170.391, 14.154)]</title>
</use>
<use transform="translate(0.00013017654 14.306955), rotate(0)" xlink:href="#item_7">
<title>item, id: 7, transf: [r: 0.000°, t: (0.000, 14.307)]</title>
</use>
<use transform="translate(198.60022 62.1977), rotate(-180)" xlink:href="#item_7">
<title>item, id: 7, transf: [r: -180.000°, t: (198.600, 62.198)]</title>
</use>
<use transform="translate(96.705246 18.573786), rotate(-180)" xlink:href="#item_11">
<title>item, id: 11, transf: [r: -180.000°, t: (96.705, 18.574)]</title>
</use>
<use transform="translate(134.2425 43.17607), rotate(-180)" xlink:href="#item_6">
<title>item, id: 6, transf: [r: -180.000°, t: (134.242, 43.176)]</title>
</use>
<use transform="translate(133.57703 41.099964), rotate(-180)" xlink:href="#item_6">
<title>item, id: 6, transf: [r: -180.000°, t: (133.577, 41.100)]</title>
</use>
<use transform="translate(235.56068 71.9939), rotate(-180)" xlink:href="#item_6">
<title>item, id: 6, transf: [r: -180.000°, t: (235.561, 71.994)]</title>
</use>
<use transform="translate(78.99705 38.92582), rotate(0)" xlink:href="#item_6">
<title>item, id: 6, transf: [r: 0.000°, t: (78.997, 38.926)]</title>
</use>
<use transform="translate(73.01529 40.926643), rotate(-180)" xlink:href="#item_6">
<title>item, id: 6, transf: [r: -180.000°, t: (73.015, 40.927)]</title>
</use>
<use transform="translate(78.1204 78.99982), rotate(-180)" xlink:href="#item_6">
<title>item, id: 6, transf: [r: -180.000°, t: (78.120, 79.000)]</title>
</use>
<use transform="translate(217.37346 71.99911), rotate(0)" xlink:href="#item_6">
<title>item, id: 6, transf: [r: 0.000°, t: (217.373, 71.999)]</title>
</use>
<use transform="translate(196.37332 71.99597), rotate(0)" xlink:href="#item_6">
<title>item, id: 6, transf: [r: 0.000°, t: (196.373, 71.996)]</title>
</use>
<use transform="translate(134.97527 39.231503), rotate(0)" xlink:href="#item_8">
<title>item, id: 8, transf: [r: 0.000°, t: (134.975, 39.232)]</title>
</use>
<use transform="translate(100.02069 38.94678), rotate(0)" xlink:href="#item_13">
<title>item, id: 13, transf: [r: 0.000°, t: (100.021, 38.947)]</title>
</use>
<use transform="translate(226.5802 69.24951), rotate(-180)" xlink:href="#item_13">
<title>item, id: 13, transf: [r: -180.000°, t: (226.580, 69.250)]</title>
</use>
<use transform="translate(23.00039 20.082478), rotate(-180)" xlink:href="#item_15">
<title>item, id: 15, transf: [r: -180.000°, t: (23.000, 20.082)]</title>
</use>
<use transform="translate(62.125908 67.484886), rotate(0)" xlink:href="#item_15">
<title>item, id: 15, transf: [r: 0.000°, t: (62.126, 67.485)]</title>
</use>
<use transform="translate(230.32281 35.865192), rotate(0)" xlink:href="#item_15">
<title>item, id: 15, transf: [r: 0.000°, t: (230.323, 35.865)]</title>
</use>
<use transform="translate(206.5592 63.779846), rotate(0)" xlink:href="#item_15">
<title>item, id: 15, transf: [r: 0.000°, t: (206.559, 63.780)]</title>
</use>
<use transform="translate(70.126335 68.87458), rotate(0)" xlink:href="#item_15">
<title>item, id: 15, transf: [r: 0.000°, t: (70.126, 68.875)]</title>
</use>
<use transform="translate(238.5462 32.71804), rotate(-180)" xlink:href="#item_15">
<title>item, id: 15, transf: [r: -180.000°, t: (238.546, 32.718)]</title>
</use>
<use transform="translate(75.70254 13.785187), rotate(0)" xlink:href="#item_15">
<title>item, id: 15, transf: [r: 0.000°, t: (75.703, 13.785)]</title>
</use>
<use transform="translate(64.00368 74.99943), rotate(-180)" xlink:href="#item_15">
<title>item, id: 15, transf: [r: -180.000°, t: (64.004, 74.999)]</title>
</use>
<use transform="translate(170.11313 24.13036), rotate(0)" xlink:href="#item_10">
<title>item, id: 10, transf: [r: 0.000°, t: (170.113, 24.130)]</title>
</use>
<use transform="translate(184.80836 25.17021), rotate(-180)" xlink:href="#item_12">
<title>item, id: 12, transf: [r: -180.000°, t: (184.808, 25.170)]</title>
</use>
<use transform="translate(199.5606 17.012932), rotate(0)" xlink:href="#item_12">
<title>item, id: 12, transf: [r: 0.000°, t: (199.561, 17.013)]</title>
</use>
<use transform="translate(44.612194 23.004177), rotate(-180)" xlink:href="#item_16">
<title>item, id: 16, transf: [r: -180.000°, t: (44.612, 23.004)]</title>
</use>
<use transform="translate(137.19664 64.7696), rotate(0)" xlink:href="#item_16">
<title>item, id: 16, transf: [r: 0.000°, t: (137.197, 64.770)]</title>
</use>
<use transform="translate(137.14949 71.99492), rotate(0)" xlink:href="#item_16">
<title>item, id: 16, transf: [r: 0.000°, t: (137.149, 71.995)]</title>
</use>
<use transform="translate(235.51688 7.3278365), rotate(-180)" xlink:href="#item_16">
<title>item, id: 16, transf: [r: -180.000°, t: (235.517, 7.328)]</title>
</use>
</g>
<g id="quality_zones"/>
<g id="optionals">
<g id="overlap_lines" transform="translate(0 0), rotate(0)"/>
</g>
<text font-family="monospace" font-size="1.975" font-weight="500" x="0" y="-0.9875">
height: 79.000 | width: 238.598 | usage: 91.285% | final_bench_89
</text>
</svg>