<svg viewBox="-11.885652 -3.950001 261.48428 86.90001" xmlns="http://www.w3.org/2000/svg" xmlns:xlink="http://www.w3.org/1999/xlink">
<g id="bin_0">
<path d="M0,0 L237.71297,0 L237.71297,79 L0,79 z" fill="#D3D3D3" stroke="black" stroke-width="0.43450004"/>
<title>bin, id: 0, bbox: [x_min: 0.000, y_min: 0.000, x_max: 237.713, y_max: 79.000]</title>
</g>
<g id="items">
<defs>
<g id="item_0">
<path d="M0,0 L12,-1 L14,-3.0000005 L24,0 L33,1 L59,2 L59,13 L4,13 L4,8 L2,5 L0,5 z" fill="#7A7A7A" fill-opacity="0.5" fill-rule="nonzero" stroke="black" stroke-width="0.21725002"/>
</g>
<g id="item_1">
<path d="M0,0 L0,-14 L27,-17 L37,-20 L41,-22 L47,-19 L56,-16 L56,0 z" fill="#7A7A7A" fill-opacity="0.5" fill-rule="nonzero" stroke="black" stroke-width="0.21725002"/>
</g>
<g id="item_2">
<path d="M0,0 L57,0 L57,5 L0,5 z" fill="#7A7A7A" fill-opacity="0.5" fill-rule="nonzero" stroke="black" stroke-width="0.21725002"/>
</g>
<g id="item_3">
<path d="M0,0 L52,0 L52,5 L0,5 z" fill="#7A7A7A" fill-opacity="0.5" fill-rule="nonzero" stroke="black" stroke-width="0.21725002"/>
</g>
<g id="item_4">
<path d="M0,0 L44,0 L44,5 L0,5 z" fill="#7A7A7A" fill-opacity="0.5" fill-rule="nonzero" stroke="black" stroke-width="0.21725002"/>
</g>
<g id="item_5">
<path d="M0,0 L42,0 L42,5 L0,5 z" fill="#7A7A7A" fill-opacity="0.5" fill-rule="nonzero" stroke="black" stroke-width="0.21725002"/>
</g>
<g id="item_6">
<path d="M0,0 L21,0 L21,2 L0,2 z" fill="#7A7A7A" fill-opacity="0.5" fill-rule="nonzero" stroke="black" stroke-width="0.21725002"/>
</g>
<g id="item_7">
<path d="M0,0 L15,4 L13,7 L0,6 z" fill="#7A7A7A" fill-opacity="0.5" fill-rule="nonzero" stroke="black" stroke-width="0.21725002"/>
</g>
<g id="item_8">
<path d="M0,0 L15,1 L15,4 L0,4 z" fill="#7A7A7A" fill-opacity="0.5" fill-rule="nonzero" stroke="black" stroke-width="0.21725002"/>
</g>
<g id="item_9">
<path d="M0,0 L14,0 L14,5 L0,5 z" fill="#7A7A7A" fill-opacity="0.5" fill-rule="nonzero" stroke="black" stroke-width="0.21725002"/>
</g>
<g id="item_10">
<path d="M0,0 L14,1 L14,4 L0,4 z" fill="#7A7A7A" fill-opacity="0.5" fill-rule="nonzero" stroke="black" stroke-width="0.21725002"/>
</g>
<g id="item_11">
<path d="M0,0 L13,0 L13,5 L0,5 z" fill="#7A7A7A" fill-opacity="0.5" fill-rule="nonzero" stroke="black" stroke-width="0.21725002"/>
</g>
<g id="item_12">
<path d="M0,0 L13,1 L13,4 L0,4 z" fill="#7A7A7A" fill-opacity="0.5" fill-rule="nonzero" stroke="black" stroke-width="0.21725002"/>
</g>
<g id="item_13">
<path d="M0,0 L12,0 L12,5 L0,5 z" fill="#7A7A7A" fill-opacity="0.5" fill-rule="nonzero" stroke="black" stroke-width="0.21725002"/>
</g>
<g id="item_14">
<path d="M0,0 L4,2 L6,10 L4,11 L-4,11 L-6,10 L-4,2 z" fill="#7A7A7A" fill-opacity="0.5" fill-rule="nonzero" stroke="black" stroke-width="0.21725002"/>
</g>
<g id="item_15">
<path d="M0,0 L3,-2 L8,0 L8,8 L2,8 z" fill="#7A7A7A" fill-opacity="0.5" fill-rule="nonzero" stroke="black" stroke-width="0.21725002"/>
</g>
<g id="item_16">
<path d="M0,0 L2,1 L3,6 L2,7 L-2,7 L-3,6 L-2,1 z" fill="#7A7A7A" fill-opacity="0.5" fill-rule="nonzero" stroke="black" stroke-width="0.21725002"/>
</g>
</defs>
<use transform="translate(226.75168 0.0008831024), rotate(-180)" xlink:href="#item_1">
<title>item, id: 1, transf: [r: -180.000°, t: (226.752, 0.001)]</title>
</use>
<use transform="translate(120.990906 73.99844), rotate(0)" xlink:href="#item_1">
<title>item, id: 1, transf: [r: 0.000°, t: (120.991, 73.998)]</title>
</use>
<use transform="translate(125.710754 36.449306), rotate(0)" xlink:href="#item_1">
<title>item, id: 1, transf: [r: 0.000°, t: (125.711, 36.449)]</title>
</use>
<use transform="translate(181.71083 36.749073), rotate(0)" xlink:href="#item_1">
<title>item, id: 1, transf: [r: 0.000°, t: (181.711, 36.749)]</title>
</use>
<use transform="translate(170.75166 0.00019454956), rotate(-180)" xlink:href="#item_1">
<title>item, id: 1, transf: [r: -180.000°, t: (170.752, 0.000)]</title>
</use>
<use transform="translate(56.000153 41.123257), rotate(-180)" xlink:href="#item_1">
<title>item, id: 1, transf: [r: -180.000°, t: (56.000, 41.123)]</title>
</use>
<use transform="translate(237.50656 41.751747), rotate(-180)" xlink:href="#item_1">
<title>item, id: 1, transf: [r: -180.000°, t: (237.507, 41.752)]</title>
</use>
<use transform="translate(175.47046 36.45237), rotate(-180)" xlink:href="#item_1">
<title>item, id: 1, transf: [r: -180.000°, t: (175.470, 36.452)]</title>
</use>
<use transform="translate(178.6708 65.99998), rotate(0)" xlink:href="#item_0">
<title>item, id: 0, transf: [r: 0.000°, t: (178.671, 66.000)]</title>
</use>
<use transform="translate(114.633545 13.000374), rotate(-180)" xlink:href="#item_0">
<title>item, id: 0, transf: [r: -180.000°, t: (114.634, 13.000)]</title>
</use>
<use transform="translate(59.00206 26.285765), rotate(0)" xlink:href="#item_0">
<title>item, id: 0, transf: [r: 0.000°, t: (59.002, 26.286)]</title>
</use>
<use transform="translate(0.0016365051 65.994064), rotate(0)" xlink:href="#item_0">
<title>item, id: 0, transf: [r: 0.000°, t: (0.002, 65.994)]</title>
</use>
<use transform="translate(59.00437 18.057487), rotate(-180)" xlink:href="#item_0">
<title>item, id: 0, transf: [r: -180.000°, t: (59.004, 18.057)]</title>
</use>
<use transform="translate(0.00051498413 23.11006), rotate(0)" xlink:href="#item_0">
<title>item, id: 0, transf: [r: 0.000°, t: (0.001, 23.110)]</title>
</use>
<use transform="translate(59.038765 65.99967), rotate(0)" xlink:href="#item_0">
<title>item, id: 0, transf: [r: 0.000°, t: (59.039, 66.000)]</title>
</use>
<use transform="translate(115.194214 54.304665), rotate(-180)" xlink:href="#item_0">
<title>item, id: 0, transf: [r: -180.000°, t: (115.194, 54.305)]</title>
</use>
<use transform="translate(58.064934 41.1101), rotate(-180)" xlink:href="#item_2">
<title>item, id: 2, transf: [r: -180.000°, t: (58.065, 41.110)]</title>
</use>
<use transform="translate(130.40268 73.99914), rotate(0)" xlink:href="#item_3">
<title>item, id: 3, transf: [r: 0.000°, t: (130.403, 73.999)]</title>
</use>
<use transform="translate(193.71147 36.749084), rotate(0)" xlink:href="#item_4">
<title>item, id: 4, transf: [r: 0.000°, t: (193.711, 36.749)]</title>
</use>
<use transform="translate(13.581154 0.00018024445), rotate(0)" xlink:href="#item_5">
<title>item, id: 5, transf: [r: 0.000°, t: (13.581, 0.000)]</title>
</use>
<use transform="translate(66.39154 24.982977), rotate(-180)" xlink:href="#item_14">
<title>item, id: 14, transf: [r: -180.000°, t: (66.392, 24.983)]</title>
</use>
<use transform="translate(90.278625 55.346344), rotate(0)" xlink:href="#item_14">
<title>item, id: 14, transf: [r: 0.000°, t: (90.279, 55.346)]</title>
</use>
<use transform="translate(108.43243 56.476334), rotate(0)" xlink:href="#item_14">
<title>item, id: 14, transf: [r: 0.000°, t: (108.432, 56.476)]</title>
</use>
<use transform="translate(93.53122 26.945328), rotate(-180)" xlink:href="#item_14">
<title>item, id: 14, transf: [r: -180.000°, t: (93.531, 26.945)]</title>
</use>
<use transform="translate(231.71288 56.61648), rotate(0)" xlink:href="#item_14">
<title>item, id: 14, transf: [r: 0.000°, t: (231.713, 56.616)]</title>
</use>
<use transform="translate(103.70299 14.465923), rotate(0)" xlink:href="#item_14">
<title>item, id: 14, transf: [r: 0.000°, t: (103.703, 14.466)]</title>
</use>
<use transform="translate(80.957054 64.61818), rotate(-180)" xlink:href="#item_14">
<title>item, id: 14, transf: [r: -180.000°, t: (80.957, 64.618)]</title>
</use>
<use transform="translate(55.169197 67.02286), rotate(-180)" xlink:href="#item_14">
<title>item, id: 14, transf: [r: -180.000°, t: (55.169, 67.023)]</title>
</use>
<use transform="translate(179.33772 36.75163), rotate(0)" xlink:href="#item_9">
<title>item, id: 9, transf: [r: 0.000°, t: (179.338, 36.752)]</title>
</use>
<use transform="translate(43.29699 64.98247), rotate(-180)" xlink:href="#item_7">
<title>item, id: 7, transf: [r: -180.000°, t: (43.297, 64.982)]</title>
</use>
<use transform="translate(177.42961 57.713406), rotate(0)" xlink:href="#item_7">
<title>item, id: 7, transf: [r: 0.000°, t: (177.430, 57.713)]</title>
</use>
<use transform="translate(29.59138 17.456081), rotate(0)" xlink:href="#item_7">
<title>item, id: 7, transf: [r: 0.000°, t: (29.591, 17.456)]</title>
</use>
<use transform="translate(85.49775 26.558516), rotate(-180)" xlink:href="#item_7">
<title>item, id: 7, transf: [r: -180.000°, t: (85.498, 26.559)]</title>
</use>
<use transform="translate(24.512512 60.049088), rotate(0)" xlink:href="#item_7">
<title>item, id: 7, transf: [r: 0.000°, t: (24.513, 60.049)]</title>
</use>
<use transform="translate(181.49944 58.25255), rotate(-180)" xlink:href="#item_7">
<title>item, id: 7, transf: [r: -180.000°, t: (181.499, 58.253)]</title>
</use>
<use transform="translate(29.545837 23.712622), rotate(-180)" xlink:href="#item_7">
<title>item, id: 7, transf: [r: -180.000°, t: (29.546, 23.713)]</title>
</use>
<use transform="translate(108.85866 15.053907), rotate(0)" xlink:href="#item_7">
<title>item, id: 7, transf: [r: 0.000°, t: (108.859, 15.054)]</title>
</use>
<use transform="translate(48.38343 19.007813), rotate(0)" xlink:href="#item_11">
<title>item, id: 11, transf: [r: 0.000°, t: (48.383, 19.008)]</title>
</use>
<use transform="translate(204.80649 64.23716), rotate(0)" xlink:href="#item_6">
<title>item, id: 6, transf: [r: 0.000°, t: (204.806, 64.237)]</title>
</use>
<use transform="translate(117.71047 27.466797), rotate(-180)" xlink:href="#item_6">
<title>item, id: 6, transf: [r: -180.000°, t: (117.710, 27.467)]</title>
</use>
<use transform="translate(220.53827 64.23714), rotate(-180)" xlink:href="#item_6">
<title>item, id: 6, transf: [r: -180.000°, t: (220.538, 64.237)]</title>
</use>
<use transform="translate(72.39244 13.940624), rotate(0)" xlink:href="#item_6">
<title>item, id: 6, transf: [r: 0.000°, t: (72.392, 13.941)]</title>
</use>
<use transform="translate(69.46121 39.285847), rotate(0)" xlink:href="#item_6">
<title>item, id: 6, transf: [r: 0.000°, t: (69.461, 39.286)]</title>
</use>
<use transform="translate(59.009766 11.939634), rotate(0)" xlink:href="#item_6">
<title>item, id: 6, transf: [r: 0.000°, t: (59.010, 11.940)]</title>
</use>
<use transform="translate(111.46139 41.304585), rotate(-180)" xlink:href="#item_6">
<title>item, id: 6, transf: [r: -180.000°, t: (111.461, 41.305)]</title>
</use>
<use transform="translate(205.5573 60.237076), rotate(0)" xlink:href="#item_6">
<title>item, id: 6, transf: [r: 0.000°, t: (205.557, 60.237)]</title>
</use>
<use transform="translate(87.15265 19.94174), rotate(-180)" xlink:href="#item_8">
<title>item, id: 8, transf: [r: -180.000°, t: (87.153, 19.942)]</title>
</use>
<use transform="translate(130.17511 78.99876), rotate(-180)" xlink:href="#item_13">
<title>item, id: 13, transf: [r: -180.000°, t: (130.175, 78.999)]</title>
</use>
<use transform="translate(12.161465 21.832905), rotate(-180)" xlink:href="#item_13">
<title>item, id: 13, transf: [r: -180.000°, t: (12.161, 21.833)]</title>
</use>
<use transform="translate(117.710724 27.119589), rotate(0)" xlink:href="#item_15">
<title>item, id: 15, transf: [r: 0.000°, t: (117.711, 27.120)]</title>
</use>
<use transform="translate(51.299633 65.57855), rotate(-180)" xlink:href="#item_15">
<title>item, id: 15, transf: [r: -180.000°, t: (51.300, 65.579)]</title>
</use>
<use transform="translate(60.565094 54.600266), rotate(0)" xlink:href="#item_15">
<title>item, id: 15, transf: [r: 0.000°, t: (60.565, 54.600)]</title>
</use>
<use transform="translate(76.57554 61.093773), rotate(-180)" xlink:href="#item_15">
<title>item, id: 15, transf: [r: -180.000°, t: (76.576, 61.094)]</title>
</use>
<use transform="translate(229.69353 10.731918), rotate(0)" xlink:href="#item_15">
<title>item, id: 15, transf: [r: 0.000°, t: (229.694, 10.732)]</title>
</use>
<use transform="translate(111.46315 41.28858), rotate(0)" xlink:href="#item_15">
<title>item, id: 15, transf: [r: 0.000°, t: (111.463, 41.289)]</title>
</use>
<use transform="translate(112.7819 59.87389), rotate(0)" xlink:href="#item_15">
<title>item, id: 15, transf: [r: 0.000°, t: (112.782, 59.874)]</title>
</use>
<use transform="translate(94.49537 58.21238), rotate(0)" xlink:href="#item_15">
<title>item, id: 15, transf: [r: 0.000°, t: (94.495, 58.212)]</title>
</use>
<use transform="translate(125.87936 58.592766), rotate(-180)" xlink:href="#item_10">
<title>item, id: 10, transf: [r: -180.000°, t: (125.879, 58.593)]</title>
</use>
<use transform="translate(0.004916191 1.0001013), rotate(0)" xlink:href="#item_12">
<title>item, id: 12, transf: [r: 0.000°, t: (0.005, 1.000)]</title>
</use>
<use transform="translate(109.70773 21.119503), rotate(0)" xlink:href="#item_12">
<title>item, id: 12, transf: [r: 0.000°, t: (109.708, 21.120)]</title>
</use>
<use transform="translate(229.83804 1.705426), rotate(0)" xlink:href="#item_16">
<title>item, id: 16, transf: [r: 0.000°, t: (229.838, 1.705)]</title>
</use>
<use transform="translate(3.2014124 58.548233), rotate(0)" xlink:href="#item_16">
<title>item, id: 16, transf: [r: 0.000°, t: (3.201, 58.548)]</title>
</use>
<use transform="translate(234.7119 7.000545), rotate(-180)" xlink:href="#item_16">
<title>item, id: 16, transf: [r: -180.000°, t: (234.712, 7.001)]</title>
</use>
<use transform="translate(178.49411 49.33139), rotate(-180)" xlink:href="#item_16">
<title>item, id: 16, transf: [r: -180.000°, t: (178.494, 49.331)]</title>
</use>
</g>
<g id="quality_zones"/>
<g id="optionals">
<g id="overlap_lines" transform="translate(0 0), rotate(0)"/>
</g>
<text font-family="monospace" font-size="1.975" font-weight="500" x="0" y="-0.9875">
height: 79.000 | width: 237.713 | usage: 91.625% | final_bench_1
</text>
</svg>