<svg viewBox="-11.893554 -3.950001 261.6581 86.90001" xmlns="http://www.w3.org/2000/svg" xmlns:xlink="http://www.w3.org/1999/xlink">
<g id="bin_0">
<path d="M0,0 L237.87102,0 L237.87102,79 L0,79 z" fill="#D3D3D3" stroke="black" stroke-width="0.43450004"/>
<title>bin, id: 0, bbox: [x_min: 0.000, y_min: 0.000, x_max: 237.871, y_max: 79.000]</title>
</g>
<g id="items">
<defs>
<g id="item_0">
<path d="M0,0 L12,-1 L14,-3.0000005 L24,0 L33,1 L59,2 L59,13 L4,13 L4,8 L2,5 L0,5 z" fill="#7A7A7A" fill-opacity="0.5" fill-rule="nonzero" stroke="black" stroke-width="0.21725002"/>
</g>
<g id="item_1">
<path d="M0,0 L0,-14 L27,-17 L37,-20 L41,-22 L47,-19 L56,-16 L56,0 z" fill="#7A7A7A" fill-opacity="0.5" fill-rule="nonzero" stroke="black" stroke-width="0.21725002"/>
</g>
<g id="item_2">
<path d="M0,0 L57,0 L57,5 L0,5 z" fill="#7A7A7A" fill-opacity="0.5" fill-rule="nonzero" stroke="black" stroke-width="0.21725002"/>
</g>
<g id="item_3">
<path d="M0,0 L52,0 L52,5 L0,5 z" fill="#7A7A7A" fill-opacity="0.5" fill-rule="nonzero" stroke="black" stroke-width="0.21725002"/>
</g>
<g id="item_4">
<path d="M0,0 L44,0 L44,5 L0,5 z" fill="#7A7A7A" fill-opacity="0.5" fill-rule="nonzero" stroke="black" stroke-width="0.21725002"/>
</g>
<g id="item_5">
<path d="M0,0 L42,0 L42,5 L0,5 z" fill="#7A7A7A" fill-opacity="0.5" fill-rule="nonzero" stroke="black" stroke-width="0.21725002"/>
</g>
<g id="item_6">
<path d="M0,0 L21,0 L21,2 L0,2 z" fill="#7A7A7A" fill-opacity="0.5" fill-rule="nonzero" stroke="black" stroke-width="0.21725002"/>
</g>
<g id="item_7">
<path d="M0,0 L15,4 L13,7 L0,6 z" fill="#7A7A7A" fill-opacity="0.5" fill-rule="nonzero" stroke="black" stroke-width="0.21725002"/>
</g>
<g id="item_8">
<path d="M0,0 L15,1 L15,4 L0,4 z" fill="#7A7A7A" fill-opacity="0.5" fill-rule="nonzero" stroke="black" stroke-width="0.21725002"/>
</g>
<g id="item_9">
<path d="M0,0 L14,0 L14,5 L0,5 z" fill="#7A7A7A" fill-opacity="0.5" fill-rule="nonzero" stroke="black" stroke-width="0.21725002"/>
</g>
<g id="item_10">
<path d="M0,0 L14,1 L14,4 L0,4 z" fill="#7A7A7A" fill-opacity="0.5" fill-rule="nonzero" stroke="black" stroke-width="0.21725002"/>
</g>
<g id="item_11">
<path d="M0,0 L13,0 L13,5 L0,5 z" fill="#7A7A7A" fill-opacity="0.5" fill-rule="nonzero" stroke="black" stroke-width="0.21725002"/>
</g>
<g id="item_12">
<path d="M0,0 L13,1 L13,4 L0,4 z" fill="#7A7A7A" fill-opacity="0.5" fill-rule="nonzero" stroke="black" stroke-width="0.21725002"/>
</g>
<g id="item_13">
<path d="M0,0 L12,0 L12,5 L0,5 z" fill="#7A7A7A" fill-opacity="0.5" fill-rule="nonzero" stroke="black" stroke-width="0.21725002"/>
</g>
<g id="item_14">
<path d="M0,0 L4,2 L6,10 L4,11 L-4,11 L-6,10 L-4,2 z" fill="#7A7A7A" fill-opacity="0.5" fill-rule="nonzero" stroke="black" stroke-width="0.21725002"/>
</g>
<g id="item_15">
<path d="M0,0 L3,-2 L8,0 L8,8 L2,8 z" fill="#7A7A7A" fill-opacity="0.5" fill-rule="nonzero" stroke="black" stroke-width="0.21725002"/>
</g>
<g id="item_16">
<path d="M0,0 L2,1 L3,6 L2,7 L-2,7 L-3,6 L-2,1 z" fill="#7A7A7A" fill-opacity="0.5" fill-rule="nonzero" stroke="black" stroke-width="0.21725002"/>
</g>
</defs>
<use transform="translate(66.849976 73.981125), rotate(0)" xlink:href="#item_1">
<title>item, id: 1, transf: [r: 0.000°, t: (66.850, 73.981)]</title>
</use>
<use transform="translate(0.00011634827 42.757347), rotate(0)" xlink:href="#item_1">
<title>item, id: 1, transf: [r: 0.000°, t: (0.000, 42.757)]</title>
</use>
<use transform="translate(112.00493 35.182217), rotate(0)" xlink:href="#item_1">
<title>item, id: 1, transf: [r: 0.000°, t: (112.005, 35.182)]</title>
</use>
<use transform="translate(122.851166 71.98679), rotate(0)" xlink:href="#item_1">
<title>item, id: 1, transf: [r: 0.000°, t: (122.851, 71.987)]</title>
</use>
<use transform="translate(56.00865 5.0025063), rotate(-180)" xlink:href="#item_1">
<title>item, id: 1, transf: [r: -180.000°, t: (56.009, 5.003)]</title>
</use>
<use transform="translate(56.003216 38.250156), rotate(0)" xlink:href="#item_1">
<title>item, id: 1, transf: [r: 0.000°, t: (56.003, 38.250)]</title>
</use>
<use transform="translate(237.78583 32.551613), rotate(-180)" xlink:href="#item_1">
<title>item, id: 1, transf: [r: -180.000°, t: (237.786, 32.552)]</title>
</use>
<use transform="translate(171.01755 35.187843), rotate(-180)" xlink:href="#item_1">
<title>item, id: 1, transf: [r: -180.000°, t: (171.018, 35.188)]</title>
</use>
<use transform="translate(176.42044 13.003741), rotate(-180)" xlink:href="#item_0">
<title>item, id: 0, transf: [r: -180.000°, t: (176.420, 13.004)]</title>
</use>
<use transform="translate(178.87013 19.55128), rotate(0)" xlink:href="#item_0">
<title>item, id: 0, transf: [r: 0.000°, t: (178.870, 19.551)]</title>
</use>
<use transform="translate(178.87074 61.981083), rotate(0)" xlink:href="#item_0">
<title>item, id: 0, transf: [r: 0.000°, t: (178.871, 61.981)]</title>
</use>
<use transform="translate(7.8499355 65.99463), rotate(0)" xlink:href="#item_0">
<title>item, id: 0, transf: [r: 0.000°, t: (7.850, 65.995)]</title>
</use>
<use transform="translate(115.00632 51.252632), rotate(-180)" xlink:href="#item_0">
<title>item, id: 0, transf: [r: -180.000°, t: (115.006, 51.253)]</title>
</use>
<use transform="translate(59.00807 55.760376), rotate(-180)" xlink:href="#item_0">
<title>item, id: 0, transf: [r: -180.000°, t: (59.008, 55.760)]</title>
</use>
<use transform="translate(237.87071 18.007854), rotate(-180)" xlink:href="#item_0">
<title>item, id: 0, transf: [r: -180.000°, t: (237.871, 18.008)]</title>
</use>
<use transform="translate(117.37515 13.001188), rotate(-180)" xlink:href="#item_0">
<title>item, id: 0, transf: [r: -180.000°, t: (117.375, 13.001)]</title>
</use>
<use transform="translate(0.8668175 0.0006246567), rotate(0)" xlink:href="#item_2">
<title>item, id: 2, transf: [r: 0.000°, t: (0.867, 0.001)]</title>
</use>
<use transform="translate(128.86821 71.992386), rotate(0)" xlink:href="#item_3">
<title>item, id: 3, transf: [r: 0.000°, t: (128.868, 71.992)]</title>
</use>
<use transform="translate(237.8707 5.0000105), rotate(-180)" xlink:href="#item_4">
<title>item, id: 4, transf: [r: -180.000°, t: (237.871, 5.000)]</title>
</use>
<use transform="translate(86.5649 73.991936), rotate(0)" xlink:href="#item_5">
<title>item, id: 5, transf: [r: 0.000°, t: (86.565, 73.992)]</title>
</use>
<use transform="translate(54.574272 56.368565), rotate(0)" xlink:href="#item_14">
<title>item, id: 14, transf: [r: 0.000°, t: (54.574, 56.369)]</title>
</use>
<use transform="translate(172.8685 24.63398), rotate(-180)" xlink:href="#item_14">
<title>item, id: 14, transf: [r: -180.000°, t: (172.868, 24.634)]</title>
</use>
<use transform="translate(176.06792 41.373135), rotate(-180)" xlink:href="#item_14">
<title>item, id: 14, transf: [r: -180.000°, t: (176.068, 41.373)]</title>
</use>
<use transform="translate(216.53566 60.35754), rotate(-180)" xlink:href="#item_14">
<title>item, id: 14, transf: [r: -180.000°, t: (216.536, 60.358)]</title>
</use>
<use transform="translate(184.87065 50.14341), rotate(0)" xlink:href="#item_14">
<title>item, id: 14, transf: [r: 0.000°, t: (184.871, 50.143)]</title>
</use>
<use transform="translate(225.53862 52.34966), rotate(0)" xlink:href="#item_14">
<title>item, id: 14, transf: [r: 0.000°, t: (225.539, 52.350)]</title>
</use>
<use transform="translate(176.4816 41.33617), rotate(0)" xlink:href="#item_14">
<title>item, id: 14, transf: [r: 0.000°, t: (176.482, 41.336)]</title>
</use>
<use transform="translate(12.290757 65.39032), rotate(-180)" xlink:href="#item_14">
<title>item, id: 14, transf: [r: -180.000°, t: (12.291, 65.390)]</title>
</use>
<use transform="translate(118.59904 19.777725), rotate(-180)" xlink:href="#item_9">
<title>item, id: 9, transf: [r: -180.000°, t: (118.599, 19.778)]</title>
</use>
<use transform="translate(59.0125 51.234467), rotate(0)" xlink:href="#item_7">
<title>item, id: 7, transf: [r: 0.000°, t: (59.013, 51.234)]</title>
</use>
<use transform="translate(237.87082 54.986965), rotate(-180)" xlink:href="#item_7">
<title>item, id: 7, transf: [r: -180.000°, t: (237.871, 54.987)]</title>
</use>
<use transform="translate(91.26308 18.766788), rotate(-180)" xlink:href="#item_7">
<title>item, id: 7, transf: [r: -180.000°, t: (91.263, 18.767)]</title>
</use>
<use transform="translate(205.14066 61.21685), rotate(-180)" xlink:href="#item_7">
<title>item, id: 7, transf: [r: -180.000°, t: (205.141, 61.217)]</title>
</use>
<use transform="translate(72.00827 13.632309), rotate(0)" xlink:href="#item_7">
<title>item, id: 7, transf: [r: 0.000°, t: (72.008, 13.632)]</title>
</use>
<use transform="translate(31.731586 65.62898), rotate(-180)" xlink:href="#item_7">
<title>item, id: 7, transf: [r: -180.000°, t: (31.732, 65.629)]</title>
</use>
<use transform="translate(79.32684 56.649586), rotate(-180)" xlink:href="#item_7">
<title>item, id: 7, transf: [r: -180.000°, t: (79.327, 56.650)]</title>
</use>
<use transform="translate(79.32912 50.1501), rotate(0)" xlink:href="#item_7">
<title>item, id: 7, transf: [r: 0.000°, t: (79.329, 50.150)]</title>
</use>
<use transform="translate(180.76215 0.005037546), rotate(0)" xlink:href="#item_11">
<title>item, id: 11, transf: [r: 0.000°, t: (180.762, 0.005)]</title>
</use>
<use transform="translate(195.87047 76.99983), rotate(0)" xlink:href="#item_6">
<title>item, id: 6, transf: [r: 0.000°, t: (195.870, 77.000)]</title>
</use>
<use transform="translate(180.85208 78.99563), rotate(-180)" xlink:href="#item_6">
<title>item, id: 6, transf: [r: -180.000°, t: (180.852, 78.996)]</title>
</use>
<use transform="translate(216.87097 76.99927), rotate(0)" xlink:href="#item_6">
<title>item, id: 6, transf: [r: 0.000°, t: (216.871, 76.999)]</title>
</use>
<use transform="translate(45.633698 21.066494), rotate(0)" xlink:href="#item_6">
<title>item, id: 6, transf: [r: 0.000°, t: (45.634, 21.066)]</title>
</use>
<use transform="translate(159.39537 78.99902), rotate(-180)" xlink:href="#item_6">
<title>item, id: 6, transf: [r: -180.000°, t: (159.395, 78.999)]</title>
</use>
<use transform="translate(216.87096 74.994606), rotate(0)" xlink:href="#item_6">
<title>item, id: 6, transf: [r: 0.000°, t: (216.871, 74.995)]</title>
</use>
<use transform="translate(118.66676 15.969313), rotate(0)" xlink:href="#item_6">
<title>item, id: 6, transf: [r: 0.000°, t: (118.667, 15.969)]</title>
</use>
<use transform="translate(195.87045 74.98135), rotate(0)" xlink:href="#item_6">
<title>item, id: 6, transf: [r: 0.000°, t: (195.870, 74.981)]</title>
</use>
<use transform="translate(180.8696 74.99621), rotate(0)" xlink:href="#item_8">
<title>item, id: 8, transf: [r: 0.000°, t: (180.870, 74.996)]</title>
</use>
<use transform="translate(85.95065 78.99692), rotate(-180)" xlink:href="#item_13">
<title>item, id: 13, transf: [r: -180.000°, t: (85.951, 78.997)]</title>
</use>
<use transform="translate(168.66212 25.372723), rotate(0)" xlink:href="#item_13">
<title>item, id: 13, transf: [r: 0.000°, t: (168.662, 25.373)]</title>
</use>
<use transform="translate(213.14137 60.78754), rotate(-180)" xlink:href="#item_15">
<title>item, id: 15, transf: [r: -180.000°, t: (213.141, 60.788)]</title>
</use>
<use transform="translate(8.0002165 62.22836), rotate(-180)" xlink:href="#item_15">
<title>item, id: 15, transf: [r: -180.000°, t: (8.000, 62.228)]</title>
</use>
<use transform="translate(72.10104 20.037378), rotate(-180)" xlink:href="#item_15">
<title>item, id: 15, transf: [r: -180.000°, t: (72.101, 20.037)]</title>
</use>
<use transform="translate(56.012753 13.029825), rotate(0)" xlink:href="#item_15">
<title>item, id: 15, transf: [r: 0.000°, t: (56.013, 13.030)]</title>
</use>
<use transform="translate(31.248676 57.677605), rotate(0)" xlink:href="#item_15">
<title>item, id: 15, transf: [r: 0.000°, t: (31.249, 57.678)]</title>
</use>
<use transform="translate(229.86671 55.656002), rotate(0)" xlink:href="#item_15">
<title>item, id: 15, transf: [r: 0.000°, t: (229.867, 55.656)]</title>
</use>
<use transform="translate(58.84931 59.458748), rotate(0)" xlink:href="#item_15">
<title>item, id: 15, transf: [r: 0.000°, t: (58.849, 59.459)]</title>
</use>
<use transform="translate(8.000169 72.22844), rotate(-180)" xlink:href="#item_15">
<title>item, id: 15, transf: [r: -180.000°, t: (8.000, 72.228)]</title>
</use>
<use transform="translate(132.54114 11.866801), rotate(0)" xlink:href="#item_10">
<title>item, id: 10, transf: [r: 0.000°, t: (132.541, 11.867)]</title>
</use>
<use transform="translate(31.24322 59.58941), rotate(-180)" xlink:href="#item_12">
<title>item, id: 12, transf: [r: -180.000°, t: (31.243, 59.589)]</title>
</use>
<use transform="translate(119.490166 11.94517), rotate(0)" xlink:href="#item_12">
<title>item, id: 12, transf: [r: 0.000°, t: (119.490, 11.945)]</title>
</use>
<use transform="translate(42.2024 59.91985), rotate(0)" xlink:href="#item_16">
<title>item, id: 16, transf: [r: 0.000°, t: (42.202, 59.920)]</title>
</use>
<use transform="translate(8.849879 71.999916), rotate(0)" xlink:href="#item_16">
<title>item, id: 16, transf: [r: 0.000°, t: (8.850, 72.000)]</title>
</use>
<use transform="translate(175.87964 7.505107), rotate(-180)" xlink:href="#item_16">
<title>item, id: 16, transf: [r: -180.000°, t: (175.880, 7.505)]</title>
</use>
<use transform="translate(46.972538 65.7657), rotate(-180)" xlink:href="#item_16">
<title>item, id: 16, transf: [r: -180.000°, t: (46.973, 65.766)]</title>
</use>
</g>
<g id="quality_zones"/>
<g id="optionals">
<g id="overlap_lines" transform="translate(0 0), rotate(0)"/>
</g>
<text font-family="monospace" font-size="1.975" font-weight="500" x="0" y="-0.9875">
height: 79.000 | width: 237.871 | usage: 91.564% | final_bench_27
</text>
</svg>