<svg viewBox="-11.88181 -3.950001 261.39978 86.90001" xmlns="http://www.w3.org/2000/svg" xmlns:xlink="http://www.w3.org/1999/xlink">
<g id="bin_0">
<path d="M0,0 L237.63615,0 L237.63615,79 L0,79 z" fill="#D3D3D3" stroke="black" stroke-width="0.43450004"/>
<title>bin, id: 0, bbox: [x_min: 0.000, y_min: 0.000, x_max: 237.636, y_max: 79.000]</title>
</g>
<g id="items">
<defs>
<g id="item_0">
<path d="M0,0 L12,-1 L14,-3.0000005 L24,0 L33,1 L59,2 L59,13 L4,13 L4,8 L2,5 L0,5 z" fill="#7A7A7A" fill-opacity="0.5" fill-rule="nonzero" stroke="black" stroke-width="0.21725002"/>
</g>
<g id="item_1">
<path d="M0,0 L0,-14 L27,-17 L37,-20 L41,-22 L47,-19 L56,-16 L56,0 z" fill="#7A7A7A" fill-opacity="0.5" fill-rule="nonzero" stroke="black" stroke-width="0.21725002"/>
</g>
<g id="item_2">
<path d="M0,0 L57,0 L57,5 L0,5 z" fill="#7A7A7A" fill-opacity="0.5" fill-rule="nonzero" stroke="black" stroke-width="0.21725002"/>
</g>
<g id="item_3">
<path d="M0,0 L52,0 L52,5 L0,5 z" fill="#7A7A7A" fill-opacity="0.5" fill-rule="nonzero" stroke="black" stroke-width="0.21725002"/>
</g>
<g id="item_4">
<path d="M0,0 L44,0 L44,5 L0,5 z" fill="#7A7A7A" fill-opacity="0.5" fill-rule="nonzero" stroke="black" stroke-width="0.21725002"/>
</g>
<g id="item_5">
<path d="M0,0 L42,0 L42,5 L0,5 z" fill="#7A7A7A" fill-opacity="0.5" fill-rule="nonzero" stroke="black" stroke-width="0.21725002"/>
</g>
<g id="item_6">
<path d="M0,0 L21,0 L21,2 L0,2 z" fill="#7A7A7A" fill-opacity="0.5" fill-rule="nonzero" stroke="black" stroke-width="0.21725002"/>
</g>
<g id="item_7">
<path d="M0,0 L15,4 L13,7 L0,6 z" fill="#7A7A7A" fill-opacity="0.5" fill-rule="nonzero" stroke="black" stroke-width="0.21725002"/>
</g>
<g id="item_8">
<path d="M0,0 L15,1 L15,4 L0,4 z" fill="#7A7A7A" fill-opacity="0.5" fill-rule="nonzero" stroke="black" stroke-width="0.21725002"/>
</g>
<g id="item_9">
<path d="M0,0 L14,0 L14,5 L0,5 z" fill="#7A7A7A" fill-opacity="0.5" fill-rule="nonzero" stroke="black" stroke-width="0.21725002"/>
</g>
<g id="item_10">
<path d="M0,0 L14,1 L14,4 L0,4 z" fill="#7A7A7A" fill-opacity="0.5" fill-rule="nonzero" stroke="black" stroke-width="0.21725002"/>
</g>
<g id="item_11">
<path d="M0,0 L13,0 L13,5 L0,5 z" fill="#7A7A7A" fill-opacity="0.5" fill-rule="nonzero" stroke="black" stroke-width="0.21725002"/>
</g>
<g id="item_12">
<path d="M0,0 L13,1 L13,4 L0,4 z" fill="#7A7A7A" fill-opacity="0.5" fill-rule="nonzero" stroke="black" stroke-width="0.21725002"/>
</g>
<g id="item_13">
<path d="M0,0 L12,0 L12,5 L0,5 z" fill="#7A7A7A" fill-opacity="0.5" fill-rule="nonzero" stroke="black" stroke-width="0.21725002"/>
</g>
<g id="item_14">
<path d="M0,0 L4,2 L6,10 L4,11 L-4,11 L-6,10 L-4,2 z" fill="#7A7A7A" fill-opacity="0.5" fill-rule="nonzero" stroke="black" stroke-width="0.21725002"/>
</g>
<g id="item_15">
<path d="M0,0 L3,-2 L8,0 L8,8 L2,8 z" fill="#7A7A7A" fill-opacity="0.5" fill-rule="nonzero" stroke="black" stroke-width="0.21725002"/>
</g>
<g id="item_16">
<path d="M0,0 L2,1 L3,6 L2,7 L-2,7 L-3,6 L-2,1 z" fill="#7A7A7A" fill-opacity="0.5" fill-rule="nonzero" stroke="black" stroke-width="0.21725002"/>
</g>
</defs>
<use transform="translate(56.001495 0.00069618225), rotate(-180)" xlink:href="#item_1">
<title>item, id: 1, transf: [r: -180.000°, t: (56.001, 0.001)]</title>
</use>
<use transform="translate(115.00058 42.51084), rotate(-180)" xlink:href="#item_1">
<title>item, id: 1, transf: [r: -180.000°, t: (115.001, 42.511)]</title>
</use>
<use transform="translate(181.63525 68.932526), rotate(0)" xlink:href="#item_1">
<title>item, id: 1, transf: [r: 0.000°, t: (181.635, 68.933)]</title>
</use>
<use transform="translate(125.634796 78.99998), rotate(0)" xlink:href="#item_1">
<title>item, id: 1, transf: [r: 0.000°, t: (125.635, 79.000)]</title>
</use>
<use transform="translate(59.001842 42.51052), rotate(0)" xlink:href="#item_1">
<title>item, id: 1, transf: [r: 0.000°, t: (59.002, 42.511)]</title>
</use>
<use transform="translate(112.056274 0.0005302429), rotate(-180)" xlink:href="#item_1">
<title>item, id: 1, transf: [r: -180.000°, t: (112.056, 0.001)]</title>
</use>
<use transform="translate(69.63306 78.997086), rotate(0)" xlink:href="#item_1">
<title>item, id: 1, transf: [r: 0.000°, t: (69.633, 78.997)]</title>
</use>
<use transform="translate(171.00333 42.509865), rotate(-180)" xlink:href="#item_1">
<title>item, id: 1, transf: [r: -180.000°, t: (171.003, 42.510)]</title>
</use>
<use transform="translate(0.029340744 65.999016), rotate(0)" xlink:href="#item_0">
<title>item, id: 0, transf: [r: 0.000°, t: (0.029, 65.999)]</title>
</use>
<use transform="translate(59.0002 55.470493), rotate(-180)" xlink:href="#item_0">
<title>item, id: 0, transf: [r: -180.000°, t: (59.000, 55.470)]</title>
</use>
<use transform="translate(0.000623703 29.467112), rotate(0)" xlink:href="#item_0">
<title>item, id: 0, transf: [r: 0.000°, t: (0.001, 29.467)]</title>
</use>
<use transform="translate(170.63321 19.446148), rotate(0)" xlink:href="#item_0">
<title>item, id: 0, transf: [r: 0.000°, t: (170.633, 19.446)]</title>
</use>
<use transform="translate(233.44748 45.475502), rotate(-180)" xlink:href="#item_0">
<title>item, id: 0, transf: [r: -180.000°, t: (233.447, 45.476)]</title>
</use>
<use transform="translate(232.08134 18.00135), rotate(-180)" xlink:href="#item_0">
<title>item, id: 0, transf: [r: -180.000°, t: (232.081, 18.001)]</title>
</use>
<use transform="translate(172.11833 13.000034), rotate(-180)" xlink:href="#item_0">
<title>item, id: 0, transf: [r: -180.000°, t: (172.118, 13.000)]</title>
</use>
<use transform="translate(115.00471 24.50975), rotate(0)" xlink:href="#item_0">
<title>item, id: 0, transf: [r: 0.000°, t: (115.005, 24.510)]</title>
</use>
<use transform="translate(172.0023 42.509853), rotate(-180)" xlink:href="#item_2">
<title>item, id: 2, transf: [r: -180.000°, t: (172.002, 42.510)]</title>
</use>
<use transform="translate(185.23447 68.98159), rotate(0)" xlink:href="#item_3">
<title>item, id: 3, transf: [r: 0.000°, t: (185.234, 68.982)]</title>
</use>
<use transform="translate(225.63557 78.99534), rotate(-180)" xlink:href="#item_4">
<title>item, id: 4, transf: [r: -180.000°, t: (225.636, 78.995)]</title>
</use>
<use transform="translate(182.32487 0.001260519), rotate(0)" xlink:href="#item_5">
<title>item, id: 5, transf: [r: 0.000°, t: (182.325, 0.001)]</title>
</use>
<use transform="translate(33.996693 28.246368), rotate(-180)" xlink:href="#item_14">
<title>item, id: 14, transf: [r: -180.000°, t: (33.997, 28.246)]</title>
</use>
<use transform="translate(147.44633 13.956636), rotate(0)" xlink:href="#item_14">
<title>item, id: 14, transf: [r: 0.000°, t: (147.446, 13.957)]</title>
</use>
<use transform="translate(55.341587 15.649105), rotate(0)" xlink:href="#item_14">
<title>item, id: 14, transf: [r: 0.000°, t: (55.342, 15.649)]</title>
</use>
<use transform="translate(165.5032 25.926727), rotate(-180)" xlink:href="#item_14">
<title>item, id: 14, transf: [r: -180.000°, t: (165.503, 25.927)]</title>
</use>
<use transform="translate(45.5888 26.608347), rotate(-180)" xlink:href="#item_14">
<title>item, id: 14, transf: [r: -180.000°, t: (45.589, 26.608)]</title>
</use>
<use transform="translate(6.0011773 54.16589), rotate(0)" xlink:href="#item_14">
<title>item, id: 14, transf: [r: 0.000°, t: (6.001, 54.166)]</title>
</use>
<use transform="translate(177.03815 58.304592), rotate(-180)" xlink:href="#item_14">
<title>item, id: 14, transf: [r: -180.000°, t: (177.038, 58.305)]</title>
</use>
<use transform="translate(28.834312 66.524284), rotate(-180)" xlink:href="#item_14">
<title>item, id: 14, transf: [r: -180.000°, t: (28.834, 66.524)]</title>
</use>
<use transform="translate(168.12602 0.00096321106), rotate(0)" xlink:href="#item_9">
<title>item, id: 9, transf: [r: 0.000°, t: (168.126, 0.001)]</title>
</use>
<use transform="translate(197.45088 44.373344), rotate(0)" xlink:href="#item_7">
<title>item, id: 7, transf: [r: 0.000°, t: (197.451, 44.373)]</title>
</use>
<use transform="translate(50.256413 56.604362), rotate(0)" xlink:href="#item_7">
<title>item, id: 7, transf: [r: 0.000°, t: (50.256, 56.604)]</title>
</use>
<use transform="translate(127.601074 15.334888), rotate(0)" xlink:href="#item_7">
<title>item, id: 7, transf: [r: 0.000°, t: (127.601, 15.335)]</title>
</use>
<use transform="translate(35.25426 55.980877), rotate(0)" xlink:href="#item_7">
<title>item, id: 7, transf: [r: 0.000°, t: (35.254, 55.981)]</title>
</use>
<use transform="translate(69.6247 70.14176), rotate(-180)" xlink:href="#item_7">
<title>item, id: 7, transf: [r: -180.000°, t: (69.625, 70.142)]</title>
</use>
<use transform="translate(61.39336 19.796024), rotate(0)" xlink:href="#item_7">
<title>item, id: 7, transf: [r: 0.000°, t: (61.393, 19.796)]</title>
</use>
<use transform="translate(22.388367 28.57887), rotate(-180)" xlink:href="#item_7">
<title>item, id: 7, transf: [r: -180.000°, t: (22.388, 28.579)]</title>
</use>
<use transform="translate(142.42592 19.068384), rotate(-180)" xlink:href="#item_7">
<title>item, id: 7, transf: [r: -180.000°, t: (142.426, 19.068)]</title>
</use>
<use transform="translate(184.4508 44.360523), rotate(0)" xlink:href="#item_11">
<title>item, id: 11, transf: [r: 0.000°, t: (184.451, 44.361)]</title>
</use>
<use transform="translate(54.605797 67.012436), rotate(-180)" xlink:href="#item_6">
<title>item, id: 6, transf: [r: -180.000°, t: (54.606, 67.012)]</title>
</use>
<use transform="translate(127.36323 19.34433), rotate(-180)" xlink:href="#item_6">
<title>item, id: 6, transf: [r: -180.000°, t: (127.363, 19.344)]</title>
</use>
<use transform="translate(127.14258 21.344934), rotate(-180)" xlink:href="#item_6">
<title>item, id: 6, transf: [r: -180.000°, t: (127.143, 21.345)]</title>
</use>
<use transform="translate(37.979202 28.656776), rotate(0)" xlink:href="#item_6">
<title>item, id: 6, transf: [r: 0.000°, t: (37.979, 28.657)]</title>
</use>
<use transform="translate(127.5591 17.120432), rotate(-180)" xlink:href="#item_6">
<title>item, id: 6, transf: [r: -180.000°, t: (127.559, 17.120)]</title>
</use>
<use transform="translate(105.96158 21.363224), rotate(0)" xlink:href="#item_6">
<title>item, id: 6, transf: [r: 0.000°, t: (105.962, 21.363)]</title>
</use>
<use transform="translate(58.806366 28.650356), rotate(-180)" xlink:href="#item_6">
<title>item, id: 6, transf: [r: -180.000°, t: (58.806, 28.650)]</title>
</use>
<use transform="translate(54.96729 65.00886), rotate(-180)" xlink:href="#item_6">
<title>item, id: 6, transf: [r: -180.000°, t: (54.967, 65.009)]</title>
</use>
<use transform="translate(112.08324 11.120155), rotate(0)" xlink:href="#item_8">
<title>item, id: 8, transf: [r: 0.000°, t: (112.083, 11.120)]</title>
</use>
<use transform="translate(225.63574 73.993416), rotate(0)" xlink:href="#item_13">
<title>item, id: 13, transf: [r: 0.000°, t: (225.636, 73.993)]</title>
</use>
<use transform="translate(82.142235 18.040718), rotate(0)" xlink:href="#item_13">
<title>item, id: 13, transf: [r: 0.000°, t: (82.142, 18.041)]</title>
</use>
<use transform="translate(8.004503 27.04665), rotate(-180)" xlink:href="#item_15">
<title>item, id: 15, transf: [r: -180.000°, t: (8.005, 27.047)]</title>
</use>
<use transform="translate(237.54214 11.9453535), rotate(-180)" xlink:href="#item_15">
<title>item, id: 15, transf: [r: -180.000°, t: (237.542, 11.945)]</title>
</use>
<use transform="translate(67.1328 76.97775), rotate(-180)" xlink:href="#item_15">
<title>item, id: 15, transf: [r: -180.000°, t: (67.133, 76.978)]</title>
</use>
<use transform="translate(151.7046 16.979715), rotate(0)" xlink:href="#item_15">
<title>item, id: 15, transf: [r: 0.000°, t: (151.705, 16.980)]</title>
</use>
<use transform="translate(30.391586 27.828411), rotate(-180)" xlink:href="#item_15">
<title>item, id: 15, transf: [r: -180.000°, t: (30.392, 27.828)]</title>
</use>
<use transform="translate(237.63443 29.258732), rotate(-180)" xlink:href="#item_15">
<title>item, id: 15, transf: [r: -180.000°, t: (237.634, 29.259)]</title>
</use>
<use transform="translate(23.99906 62.895252), rotate(-180)" xlink:href="#item_15">
<title>item, id: 15, transf: [r: -180.000°, t: (23.999, 62.895)]</title>
</use>
<use transform="translate(229.62845 32.474335), rotate(0)" xlink:href="#item_15">
<title>item, id: 15, transf: [r: 0.000°, t: (229.628, 32.474)]</title>
</use>
<use transform="translate(182.80524 49.24688), rotate(0)" xlink:href="#item_10">
<title>item, id: 10, transf: [r: 0.000°, t: (182.805, 49.247)]</title>
</use>
<use transform="translate(171.20554 43.297916), rotate(0)" xlink:href="#item_12">
<title>item, id: 12, transf: [r: 0.000°, t: (171.206, 43.298)]</title>
</use>
<use transform="translate(237.63544 4.0000253), rotate(-180)" xlink:href="#item_12">
<title>item, id: 12, transf: [r: -180.000°, t: (237.635, 4.000)]</title>
</use>
<use transform="translate(234.63469 14.255879), rotate(0)" xlink:href="#item_16">
<title>item, id: 16, transf: [r: 0.000°, t: (234.635, 14.256)]</title>
</use>
<use transform="translate(79.52388 19.000458), rotate(0)" xlink:href="#item_16">
<title>item, id: 16, transf: [r: 0.000°, t: (79.524, 19.000)]</title>
</use>
<use transform="translate(103.55891 22.172459), rotate(-180)" xlink:href="#item_16">
<title>item, id: 16, transf: [r: -180.000°, t: (103.559, 22.172)]</title>
</use>
<use transform="translate(12.993645 61.086308), rotate(-180)" xlink:href="#item_16">
<title>item, id: 16, transf: [r: -180.000°, t: (12.994, 61.086)]</title>
</use>
</g>
<g id="quality_zones"/>
<g id="optionals">
<g id="overlap_lines" transform="translate(0 0), rotate(0)"/>
</g>
<text font-family="monospace" font-size="1.975" font-weight="500" x="0" y="-0.9875">
height: 79.000 | width: 237.636 | usage: 91.654% | final_bench_52
</text>
</svg>