<svg viewBox="-11.920881 -3.950001 262.25934 86.90001" xmlns="http://www.w3.org/2000/svg" xmlns:xlink="http://www.w3.org/1999/xlink">
<g id="bin_0">
<path d="M0,0 L238.41757,0 L238.41757,79 L0,79 z" fill="#D3D3D3" stroke="black" stroke-width="0.43450004"/>
<title>bin, id: 0, bbox: [x_min: 0.000, y_min: 0.000, x_max: 238.418, y_max: 79.000]</title>
</g>
<g id="items">
<defs>
<g id="item_0">
<path d="M0,0 L12,-1 L14,-3.0000005 L24,0 L33,1 L59,2 L59,13 L4,13 L4,8 L2,5 L0,5 z" fill="#7A7A7A" fill-opacity="0.5" fill-rule="nonzero" stroke="black" stroke-width="0.21725002"/>
</g>
<g id="item_1">
<path d="M0,0 L0,-14 L27,-17 L37,-20 L41,-22 L47,-19 L56,-16 L56,0 z" fill="#7A7A7A" fill-opacity="0.5" fill-rule="nonzero" stroke="black" stroke-width="0.21725002"/>
</g>
<g id="item_2">
<path d="M0,0 L57,0 L57,5 L0,5 z" fill="#7A7A7A" fill-opacity="0.5" fill-rule="nonzero" stroke="black" stroke-width="0.21725002"/>
</g>
<g id="item_3">
<path d="M0,0 L52,0 L52,5 L0,5 z" fill="#7A7A7A" fill-opacity="0.5" fill-rule="nonzero" stroke="black" stroke-width="0.21725002"/>
</g>
<g id="item_4">
<path d="M0,0 L44,0 L44,5 L0,5 z" fill="#7A7A7A" fill-opacity="0.5" fill-rule="nonzero" stroke="black" stroke-width="0.21725002"/>
</g>
<g id="item_5">
<path d="M0,0 L42,0 L42,5 L0,5 z" fill="#7A7A7A" fill-opacity="0.5" fill-rule="nonzero" stroke="black" stroke-width="0.21725002"/>
</g>
<g id="item_6">
<path d="M0,0 L21,0 L21,2 L0,2 z" fill="#7A7A7A" fill-opacity="0.5" fill-rule="nonzero" stroke="black" stroke-width="0.21725002"/>
</g>
<g id="item_7">
<path d="M0,0 L15,4 L13,7 L0,6 z" fill="#7A7A7A" fill-opacity="0.5" fill-rule="nonzero" stroke="black" stroke-width="0.21725002"/>
</g>
<g id="item_8">
<path d="M0,0 L15,1 L15,4 L0,4 z" fill="#7A7A7A" fill-opacity="0.5" fill-rule="nonzero" stroke="black" stroke-width="0.21725002"/>
</g>
<g id="item_9">
<path d="M0,0 L14,0 L14,5 L0,5 z" fill="#7A7A7A" fill-opacity="0.5" fill-rule="nonzero" stroke="black" stroke-width="0.21725002"/>
</g>
<g id="item_10">
<path d="M0,0 L14,1 L14,4 L0,4 z" fill="#7A7A7A" fill-opacity="0.5" fill-rule="nonzero" stroke="black" stroke-width="0.21725002"/>
</g>
<g id="item_11">
<path d="M0,0 L13,0 L13,5 L0,5 z" fill="#7A7A7A" fill-opacity="0.5" fill-rule="nonzero" stroke="black" stroke-width="0.21725002"/>
</g>
<g id="item_12">
<path d="M0,0 L13,1 L13,4 L0,4 z" fill="#7A7A7A" fill-opacity="0.5" fill-rule="nonzero" stroke="black" stroke-width="0.21725002"/>
</g>
<g id="item_13">
<path d="M0,0 L12,0 L12,5 L0,5 z" fill="#7A7A7A" fill-opacity="0.5" fill-rule="nonzero" stroke="black" stroke-width="0.21725002"/>
</g>
<g id="item_14">
<path d="M0,0 L4,2 L6,10 L4,11 L-4,11 L-6,10 L-4,2 z" fill="#7A7A7A" fill-opacity="0.5" fill-rule="nonzero" stroke="black" stroke-width="0.21725002"/>
</g>
<g id="item_15">
<path d="M0,0 L3,-2 L8,0 L8,8 L2,8 z" fill="#7A7A7A" fill-opacity="0.5" fill-rule="nonzero" stroke="black" stroke-width="0.21725002"/>
</g>
<g id="item_16">
<path d="M0,0 L2,1 L3,6 L2,7 L-2,7 L-3,6 L-2,1 z" fill="#7A7A7A" fill-opacity="0.5" fill-rule="nonzero" stroke="black" stroke-width="0.21725002"/>
</g>
</defs>
<use transform="translate(238.41449 0.0008764267), rotate(-180)" xlink:href="#item_1">
<title>item, id: 1, transf: [r: -180.000°, t: (238.414, 0.001)]</title>
</use>
<use transform="translate(0.00011062622 41.40277), rotate(0)" xlink:href="#item_1">
<title>item, id: 1, transf: [r: 0.000°, t: (0.000, 41.403)]</title>
</use>
<use transform="translate(79.36105 78.99937), rotate(0)" xlink:href="#item_1">
<title>item, id: 1, transf: [r: 0.000°, t: (79.361, 78.999)]</title>
</use>
<use transform="translate(170.3617 39.974667), rotate(0)" xlink:href="#item_1">
<title>item, id: 1, transf: [r: 0.000°, t: (170.362, 39.975)]</title>
</use>
<use transform="translate(102.013596 34.223568), rotate(0)" xlink:href="#item_1">
<title>item, id: 1, transf: [r: 0.000°, t: (102.014, 34.224)]</title>
</use>
<use transform="translate(56.00039 0.00009346008), rotate(-180)" xlink:href="#item_1">
<title>item, id: 1, transf: [r: -180.000°, t: (56.000, 0.000)]</title>
</use>
<use transform="translate(113.26915 45.724945), rotate(-180)" xlink:href="#item_1">
<title>item, id: 1, transf: [r: -180.000°, t: (113.269, 45.725)]</title>
</use>
<use transform="translate(56.004475 46.403065), rotate(-180)" xlink:href="#item_1">
<title>item, id: 1, transf: [r: -180.000°, t: (56.004, 46.403)]</title>
</use>
<use transform="translate(115.12433 18.01019), rotate(-180)" xlink:href="#item_0">
<title>item, id: 0, transf: [r: -180.000°, t: (115.124, 18.010)]</title>
</use>
<use transform="translate(238.41719 53.537834), rotate(-180)" xlink:href="#item_0">
<title>item, id: 0, transf: [r: -180.000°, t: (238.417, 53.538)]</title>
</use>
<use transform="translate(131.50098 49.981945), rotate(0)" xlink:href="#item_0">
<title>item, id: 0, transf: [r: 0.000°, t: (131.501, 49.982)]</title>
</use>
<use transform="translate(135.36446 65.999725), rotate(0)" xlink:href="#item_0">
<title>item, id: 0, transf: [r: 0.000°, t: (135.364, 66.000)]</title>
</use>
<use transform="translate(56.001602 32.724606), rotate(0)" xlink:href="#item_0">
<title>item, id: 0, transf: [r: 0.000°, t: (56.002, 32.725)]</title>
</use>
<use transform="translate(20.360586 65.99788), rotate(0)" xlink:href="#item_0">
<title>item, id: 0, transf: [r: 0.000°, t: (20.361, 65.998)]</title>
</use>
<use transform="translate(174.00189 47.43521), rotate(-180)" xlink:href="#item_0">
<title>item, id: 0, transf: [r: -180.000°, t: (174.002, 47.435)]</title>
</use>
<use transform="translate(182.41402 13.001154), rotate(-180)" xlink:href="#item_0">
<title>item, id: 0, transf: [r: -180.000°, t: (182.414, 13.001)]</title>
</use>
<use transform="translate(57.06254 46.402824), rotate(-180)" xlink:href="#item_2">
<title>item, id: 2, transf: [r: -180.000°, t: (57.063, 46.403)]</title>
</use>
<use transform="translate(108.04368 5.007573), rotate(-180)" xlink:href="#item_3">
<title>item, id: 3, transf: [r: -180.000°, t: (108.044, 5.008)]</title>
</use>
<use transform="translate(238.41663 71.99928), rotate(-180)" xlink:href="#item_4">
<title>item, id: 4, transf: [r: -180.000°, t: (238.417, 71.999)]</title>
</use>
<use transform="translate(236.37231 76.999374), rotate(-180)" xlink:href="#item_5">
<title>item, id: 5, transf: [r: -180.000°, t: (236.372, 76.999)]</title>
</use>
<use transform="translate(163.65828 26.775625), rotate(-180)" xlink:href="#item_14">
<title>item, id: 14, transf: [r: -180.000°, t: (163.658, 26.776)]</title>
</use>
<use transform="translate(125.623146 59.45134), rotate(-180)" xlink:href="#item_14">
<title>item, id: 14, transf: [r: -180.000°, t: (125.623, 59.451)]</title>
</use>
<use transform="translate(65.71538 31.151253), rotate(-180)" xlink:href="#item_14">
<title>item, id: 14, transf: [r: -180.000°, t: (65.715, 31.151)]</title>
</use>
<use transform="translate(232.41748 24.536093), rotate(0)" xlink:href="#item_14">
<title>item, id: 14, transf: [r: 0.000°, t: (232.417, 24.536)]</title>
</use>
<use transform="translate(117.16872 11.4377365), rotate(-180)" xlink:href="#item_14">
<title>item, id: 14, transf: [r: -180.000°, t: (117.169, 11.438)]</title>
</use>
<use transform="translate(173.81621 14.143974), rotate(0)" xlink:href="#item_14">
<title>item, id: 14, transf: [r: 0.000°, t: (173.816, 14.144)]</title>
</use>
<use transform="translate(211.9972 53.98913), rotate(0)" xlink:href="#item_14">
<title>item, id: 14, transf: [r: 0.000°, t: (211.997, 53.989)]</title>
</use>
<use transform="translate(202.57417 63.668102), rotate(-180)" xlink:href="#item_14">
<title>item, id: 14, transf: [r: -180.000°, t: (202.574, 63.668)]</title>
</use>
<use transform="translate(14.000192 76.9998), rotate(-180)" xlink:href="#item_9">
<title>item, id: 9, transf: [r: -180.000°, t: (14.000, 77.000)]</title>
</use>
<use transform="translate(59.411613 25.105574), rotate(-180)" xlink:href="#item_7">
<title>item, id: 7, transf: [r: -180.000°, t: (59.412, 25.106)]</title>
</use>
<use transform="translate(84.84698 27.062672), rotate(0)" xlink:href="#item_7">
<title>item, id: 7, transf: [r: 0.000°, t: (84.847, 27.063)]</title>
</use>
<use transform="translate(71.72416 20.22852), rotate(0)" xlink:href="#item_7">
<title>item, id: 7, transf: [r: 0.000°, t: (71.724, 20.229)]</title>
</use>
<use transform="translate(0.00042819977 64.40314), rotate(0)" xlink:href="#item_7">
<title>item, id: 7, transf: [r: 0.000°, t: (0.000, 64.403)]</title>
</use>
<use transform="translate(84.675804 33.240547), rotate(-180)" xlink:href="#item_7">
<title>item, id: 7, transf: [r: -180.000°, t: (84.676, 33.241)]</title>
</use>
<use transform="translate(229.33159 23.45467), rotate(-180)" xlink:href="#item_7">
<title>item, id: 7, transf: [r: -180.000°, t: (229.332, 23.455)]</title>
</use>
<use transform="translate(87.28802 24.362785), rotate(-180)" xlink:href="#item_7">
<title>item, id: 7, transf: [r: -180.000°, t: (87.288, 24.363)]</title>
</use>
<use transform="translate(179.4341 16.51795), rotate(0)" xlink:href="#item_7">
<title>item, id: 7, transf: [r: 0.000°, t: (179.434, 16.518)]</title>
</use>
<use transform="translate(129.06445 16.559156), rotate(-180)" xlink:href="#item_11">
<title>item, id: 11, transf: [r: -180.000°, t: (129.064, 16.559)]</title>
</use>
<use transform="translate(168.26222 64.98225), rotate(0)" xlink:href="#item_6">
<title>item, id: 6, transf: [r: 0.000°, t: (168.262, 64.982)]</title>
</use>
<use transform="translate(216.92915 78.99994), rotate(-180)" xlink:href="#item_6">
<title>item, id: 6, transf: [r: -180.000°, t: (216.929, 79.000)]</title>
</use>
<use transform="translate(237.92929 78.99967), rotate(-180)" xlink:href="#item_6">
<title>item, id: 6, transf: [r: -180.000°, t: (237.929, 79.000)]</title>
</use>
<use transform="translate(185.38786 64.98221), rotate(-180)" xlink:href="#item_6">
<title>item, id: 6, transf: [r: -180.000°, t: (185.388, 64.982)]</title>
</use>
<use transform="translate(120.10611 46.448074), rotate(0)" xlink:href="#item_6">
<title>item, id: 6, transf: [r: 0.000°, t: (120.106, 46.448)]</title>
</use>
<use transform="translate(225.92229 66.99926), rotate(-180)" xlink:href="#item_6">
<title>item, id: 6, transf: [r: -180.000°, t: (225.922, 66.999)]</title>
</use>
<use transform="translate(37.06716 16.103786), rotate(0)" xlink:href="#item_6">
<title>item, id: 6, transf: [r: 0.000°, t: (37.067, 16.104)]</title>
</use>
<use transform="translate(21.001392 78.99998), rotate(-180)" xlink:href="#item_6">
<title>item, id: 6, transf: [r: -180.000°, t: (21.001, 79.000)]</title>
</use>
<use transform="translate(189.2646 62.99928), rotate(0)" xlink:href="#item_8">
<title>item, id: 8, transf: [r: 0.000°, t: (189.265, 62.999)]</title>
</use>
<use transform="translate(238.41087 40.537518), rotate(-180)" xlink:href="#item_13">
<title>item, id: 13, transf: [r: -180.000°, t: (238.411, 40.538)]</title>
</use>
<use transform="translate(158.08102 27.304169), rotate(0)" xlink:href="#item_13">
<title>item, id: 13, transf: [r: 0.000°, t: (158.081, 27.304)]</title>
</use>
<use transform="translate(121.26924 56.04494), rotate(-180)" xlink:href="#item_15">
<title>item, id: 15, transf: [r: -180.000°, t: (121.269, 56.045)]</title>
</use>
<use transform="translate(198.50252 61.383453), rotate(-180)" xlink:href="#item_15">
<title>item, id: 15, transf: [r: -180.000°, t: (198.503, 61.383)]</title>
</use>
<use transform="translate(232.52292 64.4382), rotate(-180)" xlink:href="#item_15">
<title>item, id: 15, transf: [r: -180.000°, t: (232.523, 64.438)]</title>
</use>
<use transform="translate(230.41663 55.97167), rotate(0)" xlink:href="#item_15">
<title>item, id: 15, transf: [r: 0.000°, t: (230.417, 55.972)]</title>
</use>
<use transform="translate(94.01197 21.816618), rotate(0)" xlink:href="#item_15">
<title>item, id: 15, transf: [r: 0.000°, t: (94.012, 21.817)]</title>
</use>
<use transform="translate(216.25494 56.996758), rotate(0)" xlink:href="#item_15">
<title>item, id: 15, transf: [r: 0.000°, t: (216.255, 56.997)]</title>
</use>
<use transform="translate(237.33194 23.179604), rotate(-180)" xlink:href="#item_15">
<title>item, id: 15, transf: [r: -180.000°, t: (237.332, 23.180)]</title>
</use>
<use transform="translate(95.29987 26.97571), rotate(-180)" xlink:href="#item_15">
<title>item, id: 15, transf: [r: -180.000°, t: (95.300, 26.976)]</title>
</use>
<use transform="translate(45.780685 61.60499), rotate(0)" xlink:href="#item_10">
<title>item, id: 10, transf: [r: 0.000°, t: (45.781, 61.605)]</title>
</use>
<use transform="translate(59.41873 16.150002), rotate(0)" xlink:href="#item_12">
<title>item, id: 12, transf: [r: 0.000°, t: (59.419, 16.150)]</title>
</use>
<use transform="translate(5.5804863 21.32574), rotate(0)" xlink:href="#item_12">
<title>item, id: 12, transf: [r: 0.000°, t: (5.580, 21.326)]</title>
</use>
<use transform="translate(16.687296 76.38265), rotate(-180)" xlink:href="#item_16">
<title>item, id: 16, transf: [r: -180.000°, t: (16.687, 76.383)]</title>
</use>
<use transform="translate(176.41672 44.36223), rotate(0)" xlink:href="#item_16">
<title>item, id: 16, transf: [r: 0.000°, t: (176.417, 44.362)]</title>
</use>
<use transform="translate(3.0109599 25.092747), rotate(-180)" xlink:href="#item_16">
<title>item, id: 16, transf: [r: -180.000°, t: (3.011, 25.093)]</title>
</use>
<use transform="translate(59.000668 25.296124), rotate(0)" xlink:href="#item_16">
<title>item, id: 16, transf: [r: 0.000°, t: (59.001, 25.296)]</title>
</use>
</g>
<g id="quality_zones"/>
<g id="optionals">
<g id="overlap_lines" transform="translate(0 0), rotate(0)"/>
</g>
<text font-family="monospace" font-size="1.975" font-weight="500" x="0" y="-0.9875">
height: 79.000 | width: 238.418 | usage: 91.354% | final_bench_75
</text>
</svg>