<svg viewBox="-11.901569 -3.950001 261.83447 86.90001" xmlns="http://www.w3.org/2000/svg" xmlns:xlink="http://www.w3.org/1999/xlink">
<g id="bin_0">
<path d="M0,0 L238.03133,0 L238.03133,79 L0,79 z" fill="#D3D3D3" stroke="black" stroke-width="0.43450004"/>
<title>bin, id: 0, bbox: [x_min: 0.000, y_min: 0.000, x_max: 238.031, y_max: 79.000]</title>
</g>
<g id="items">
<defs>
<g id="item_0">
<path d="M0,0 L12,-1 L14,-3.0000005 L24,0 L33,1 L59,2 L59,13 L4,13 L4,8 L2,5 L0,5 z" fill="#7A7A7A" fill-opacity="0.5" fill-rule="nonzero" stroke="black" stroke-width="0.21725002"/>
</g>
<g id="item_1">
<path d="M0,0 L0,-14 L27,-17 L37,-20 L41,-22 L47,-19 L56,-16 L56,0 z" fill="#7A7A7A" fill-opacity="0.5" fill-rule="nonzero" stroke="black" stroke-width="0.21725002"/>
</g>
<g id="item_2">
<path d="M0,0 L57,0 L57,5 L0,5 z" fill="#7A7A7A" fill-opacity="0.5" fill-rule="nonzero" stroke="black" stroke-width="0.21725002"/>
</g>
<g id="item_3">
<path d="M0,0 L52,0 L52,5 L0,5 z" fill="#7A7A7A" fill-opacity="0.5" fill-rule="nonzero" stroke="black" stroke-width="0.21725002"/>
</g>
<g id="item_4">
<path d="M0,0 L44,0 L44,5 L0,5 z" fill="#7A7A7A" fill-opacity="0.5" fill-rule="nonzero" stroke="black" stroke-width="0.21725002"/>
</g>
<g id="item_5">
<path d="M0,0 L42,0 L42,5 L0,5 z" fill="#7A7A7A" fill-opacity="0.5" fill-rule="nonzero" stroke="black" stroke-width="0.21725002"/>
</g>
<g id="item_6">
<path d="M0,0 L21,0 L21,2 L0,2 z" fill="#7A7A7A" fill-opacity="0.5" fill-rule="nonzero" stroke="black" stroke-width="0.21725002"/>
</g>
<g id="item_7">
<path d="M0,0 L15,4 L13,7 L0,6 z" fill="#7A7A7A" fill-opacity="0.5" fill-rule="nonzero" stroke="black" stroke-width="0.21725002"/>
</g>
<g id="item_8">
<path d="M0,0 L15,1 L15,4 L0,4 z" fill="#7A7A7A" fill-opacity="0.5" fill-rule="nonzero" stroke="black" stroke-width="0.21725002"/>
</g>
<g id="item_9">
<path d="M0,0 L14,0 L14,5 L0,5 z" fill="#7A7A7A" fill-opacity="0.5" fill-rule="nonzero" stroke="black" stroke-width="0.21725002"/>
</g>
<g id="item_10">
<path d="M0,0 L14,1 L14,4 L0,4 z" fill="#7A7A7A" fill-opacity="0.5" fill-rule="nonzero" stroke="black" stroke-width="0.21725002"/>
</g>
<g id="item_11">
<path d="M0,0 L13,0 L13,5 L0,5 z" fill="#7A7A7A" fill-opacity="0.5" fill-rule="nonzero" stroke="black" stroke-width="0.21725002"/>
</g>
<g id="item_12">
<path d="M0,0 L13,1 L13,4 L0,4 z" fill="#7A7A7A" fill-opacity="0.5" fill-rule="nonzero" stroke="black" stroke-width="0.21725002"/>
</g>
<g id="item_13">
<path d="M0,0 L12,0 L12,5 L0,5 z" fill="#7A7A7A" fill-opacity="0.5" fill-rule="nonzero" stroke="black" stroke-width="0.21725002"/>
</g>
<g id="item_14">
<path d="M0,0 L4,2 L6,10 L4,11 L-4,11 L-6,10 L-4,2 z" fill="#7A7A7A" fill-opacity="0.5" fill-rule="nonzero" stroke="black" stroke-width="0.21725002"/>
</g>
<g id="item_15">
<path d="M0,0 L3,-2 L8,0 L8,8 L2,8 z" fill="#7A7A7A" fill-opacity="0.5" fill-rule="nonzero" stroke="black" stroke-width="0.21725002"/>
</g>
<g id="item_16">
<path d="M0,0 L2,1 L3,6 L2,7 L-2,7 L-3,6 L-2,1 z" fill="#7A7A7A" fill-opacity="0.5" fill-rule="nonzero" stroke="black" stroke-width="0.21725002"/>
</g>
</defs>
<use transform="translate(56.00013 0.0055618286), rotate(-180)" xlink:href="#item_1">
<title>item, id: 1, transf: [r: -180.000°, t: (56.000, 0.006)]</title>
</use>
<use transform="translate(116.72635 38.926853), rotate(0)" xlink:href="#item_1">
<title>item, id: 1, transf: [r: 0.000°, t: (116.726, 38.927)]</title>
</use>
<use transform="translate(126.020004 78.998405), rotate(0)" xlink:href="#item_1">
<title>item, id: 1, transf: [r: 0.000°, t: (126.020, 78.998)]</title>
</use>
<use transform="translate(181.10013 0.00023460388), rotate(-180)" xlink:href="#item_1">
<title>item, id: 1, transf: [r: -180.000°, t: (181.100, 0.000)]</title>
</use>
<use transform="translate(182.03111 78.99148), rotate(0)" xlink:href="#item_1">
<title>item, id: 1, transf: [r: 0.000°, t: (182.031, 78.991)]</title>
</use>
<use transform="translate(174.0297 30.214233), rotate(0)" xlink:href="#item_1">
<title>item, id: 1, transf: [r: 0.000°, t: (174.030, 30.214)]</title>
</use>
<use transform="translate(115.00359 31.220816), rotate(-180)" xlink:href="#item_1">
<title>item, id: 1, transf: [r: -180.000°, t: (115.004, 31.221)]</title>
</use>
<use transform="translate(0.021104813 78.999115), rotate(0)" xlink:href="#item_1">
<title>item, id: 1, transf: [r: 0.000°, t: (0.021, 78.999)]</title>
</use>
<use transform="translate(88.48234 49.61318), rotate(0)" xlink:href="#item_0">
<title>item, id: 0, transf: [r: 0.000°, t: (88.482, 49.613)]</title>
</use>
<use transform="translate(0.0031375885 29.955702), rotate(0)" xlink:href="#item_0">
<title>item, id: 0, transf: [r: 0.000°, t: (0.003, 29.956)]</title>
</use>
<use transform="translate(115.05171 20.002926), rotate(-180)" xlink:href="#item_0">
<title>item, id: 0, transf: [r: -180.000°, t: (115.052, 20.003)]</title>
</use>
<use transform="translate(174.46367 51.943146), rotate(-180)" xlink:href="#item_0">
<title>item, id: 0, transf: [r: -180.000°, t: (174.464, 51.943)]</title>
</use>
<use transform="translate(66.86097 65.99936), rotate(0)" xlink:href="#item_0">
<title>item, id: 0, transf: [r: 0.000°, t: (66.861, 65.999)]</title>
</use>
<use transform="translate(61.55801 55.96009), rotate(-180)" xlink:href="#item_0">
<title>item, id: 0, transf: [r: -180.000°, t: (61.558, 55.960)]</title>
</use>
<use transform="translate(32.316948 18.082497), rotate(0)" xlink:href="#item_0">
<title>item, id: 0, transf: [r: 0.000°, t: (32.317, 18.082)]</title>
</use>
<use transform="translate(233.95972 55.33371), rotate(-180)" xlink:href="#item_0">
<title>item, id: 0, transf: [r: -180.000°, t: (233.960, 55.334)]</title>
</use>
<use transform="translate(56.000504 2.0011964), rotate(0)" xlink:href="#item_2">
<title>item, id: 2, transf: [r: 0.000°, t: (56.001, 2.001)]</title>
</use>
<use transform="translate(234.26361 5.0006285), rotate(-180)" xlink:href="#item_3">
<title>item, id: 3, transf: [r: -180.000°, t: (234.264, 5.001)]</title>
</use>
<use transform="translate(182.83482 30.217014), rotate(0)" xlink:href="#item_4">
<title>item, id: 4, transf: [r: 0.000°, t: (182.835, 30.217)]</title>
</use>
<use transform="translate(225.85495 40.21737), rotate(-180)" xlink:href="#item_5">
<title>item, id: 5, transf: [r: -180.000°, t: (225.855, 40.217)]</title>
</use>
<use transform="translate(6.1731687 18.083416), rotate(0)" xlink:href="#item_14">
<title>item, id: 14, transf: [r: 0.000°, t: (6.173, 18.083)]</title>
</use>
<use transform="translate(26.31242 30.18868), rotate(-180)" xlink:href="#item_14">
<title>item, id: 14, transf: [r: -180.000°, t: (26.312, 30.189)]</title>
</use>
<use transform="translate(120.64305 12.182873), rotate(0)" xlink:href="#item_14">
<title>item, id: 14, transf: [r: 0.000°, t: (120.643, 12.183)]</title>
</use>
<use transform="translate(231.86302 29.329855), rotate(0)" xlink:href="#item_14">
<title>item, id: 14, transf: [r: 0.000°, t: (231.863, 29.330)]</title>
</use>
<use transform="translate(119.004425 13.000845), rotate(-180)" xlink:href="#item_14">
<title>item, id: 14, transf: [r: -180.000°, t: (119.004, 13.001)]</title>
</use>
<use transform="translate(78.75993 63.843357), rotate(-180)" xlink:href="#item_14">
<title>item, id: 14, transf: [r: -180.000°, t: (78.760, 63.843)]</title>
</use>
<use transform="translate(68.40236 50.44008), rotate(0)" xlink:href="#item_14">
<title>item, id: 14, transf: [r: 0.000°, t: (68.402, 50.440)]</title>
</use>
<use transform="translate(178.12953 31.320005), rotate(0)" xlink:href="#item_14">
<title>item, id: 14, transf: [r: 0.000°, t: (178.130, 31.320)]</title>
</use>
<use transform="translate(70.65606 78.998604), rotate(-180)" xlink:href="#item_9">
<title>item, id: 9, transf: [r: -180.000°, t: (70.656, 78.999)]</title>
</use>
<use transform="translate(183.11551 56.425797), rotate(0)" xlink:href="#item_7">
<title>item, id: 7, transf: [r: 0.000°, t: (183.116, 56.426)]</title>
</use>
<use transform="translate(199.45474 60.781616), rotate(-180)" xlink:href="#item_7">
<title>item, id: 7, transf: [r: -180.000°, t: (199.455, 60.782)]</title>
</use>
<use transform="translate(238.03123 12.037201), rotate(-180)" xlink:href="#item_7">
<title>item, id: 7, transf: [r: -180.000°, t: (238.031, 12.037)]</title>
</use>
<use transform="translate(62.40116 64.11715), rotate(-180)" xlink:href="#item_7">
<title>item, id: 7, transf: [r: -180.000°, t: (62.401, 64.117)]</title>
</use>
<use transform="translate(17.674112 61.175034), rotate(-180)" xlink:href="#item_7">
<title>item, id: 7, transf: [r: -180.000°, t: (17.674, 61.175)]</title>
</use>
<use transform="translate(147.63533 52.52897), rotate(0)" xlink:href="#item_7">
<title>item, id: 7, transf: [r: 0.000°, t: (147.635, 52.529)]</title>
</use>
<use transform="translate(0.0010309219 56.5541), rotate(0)" xlink:href="#item_7">
<title>item, id: 7, transf: [r: 0.000°, t: (0.001, 56.554)]</title>
</use>
<use transform="translate(177.4641 59.781498), rotate(-180)" xlink:href="#item_7">
<title>item, id: 7, transf: [r: -180.000°, t: (177.464, 59.781)]</title>
</use>
<use transform="translate(30.725529 60.887783), rotate(-180)" xlink:href="#item_11">
<title>item, id: 11, transf: [r: -180.000°, t: (30.726, 60.888)]</title>
</use>
<use transform="translate(208.78122 40.333256), rotate(0)" xlink:href="#item_6">
<title>item, id: 6, transf: [r: 0.000°, t: (208.781, 40.333)]</title>
</use>
<use transform="translate(98.88726 0.00035333633), rotate(0)" xlink:href="#item_6">
<title>item, id: 6, transf: [r: 0.000°, t: (98.887, 0.000)]</title>
</use>
<use transform="translate(208.59209 42.330578), rotate(-180)" xlink:href="#item_6">
<title>item, id: 6, transf: [r: -180.000°, t: (208.592, 42.331)]</title>
</use>
<use transform="translate(126.28786 64.66639), rotate(-180)" xlink:href="#item_6">
<title>item, id: 6, transf: [r: -180.000°, t: (126.288, 64.666)]</title>
</use>
<use transform="translate(105.01901 65.197296), rotate(0)" xlink:href="#item_6">
<title>item, id: 6, transf: [r: 0.000°, t: (105.019, 65.197)]</title>
</use>
<use transform="translate(77.000854 2.0001183), rotate(-180)" xlink:href="#item_6">
<title>item, id: 6, transf: [r: -180.000°, t: (77.001, 2.000)]</title>
</use>
<use transform="translate(223.7213 7.0006366), rotate(-180)" xlink:href="#item_6">
<title>item, id: 6, transf: [r: -180.000°, t: (223.721, 7.001)]</title>
</use>
<use transform="translate(98.002014 2.0000672), rotate(-180)" xlink:href="#item_6">
<title>item, id: 6, transf: [r: -180.000°, t: (98.002, 2.000)]</title>
</use>
<use transform="translate(195.10043 6.4928255), rotate(0)" xlink:href="#item_8">
<title>item, id: 8, transf: [r: 0.000°, t: (195.100, 6.493)]</title>
</use>
<use transform="translate(181.10043 9.094727), rotate(0)" xlink:href="#item_13">
<title>item, id: 13, transf: [r: 0.000°, t: (181.100, 9.095)]</title>
</use>
<use transform="translate(211.46898 61.25883), rotate(-180)" xlink:href="#item_13">
<title>item, id: 13, transf: [r: -180.000°, t: (211.469, 61.259)]</title>
</use>
<use transform="translate(100.72506 23.220762), rotate(0)" xlink:href="#item_15">
<title>item, id: 15, transf: [r: 0.000°, t: (100.725, 23.221)]</title>
</use>
<use transform="translate(91.652435 23.153543), rotate(0)" xlink:href="#item_15">
<title>item, id: 15, transf: [r: 0.000°, t: (91.652, 23.154)]</title>
</use>
<use transform="translate(238.02994 28.596619), rotate(-180)" xlink:href="#item_15">
<title>item, id: 15, transf: [r: -180.000°, t: (238.030, 28.597)]</title>
</use>
<use transform="translate(230.03122 42.333702), rotate(0)" xlink:href="#item_15">
<title>item, id: 15, transf: [r: 0.000°, t: (230.031, 42.334)]</title>
</use>
<use transform="translate(108.726326 23.218073), rotate(0)" xlink:href="#item_15">
<title>item, id: 15, transf: [r: 0.000°, t: (108.726, 23.218)]</title>
</use>
<use transform="translate(92.524536 62.78596), rotate(-180)" xlink:href="#item_15">
<title>item, id: 15, transf: [r: -180.000°, t: (92.525, 62.786)]</title>
</use>
<use transform="translate(229.62523 12.596371), rotate(0)" xlink:href="#item_15">
<title>item, id: 15, transf: [r: 0.000°, t: (229.625, 12.596)]</title>
</use>
<use transform="translate(56.12157 65.99292), rotate(0)" xlink:href="#item_15">
<title>item, id: 15, transf: [r: 0.000°, t: (56.122, 65.993)]</title>
</use>
<use transform="translate(195.1003 9.208875), rotate(-180)" xlink:href="#item_10">
<title>item, id: 10, transf: [r: -180.000°, t: (195.100, 9.209)]</title>
</use>
<use transform="translate(62.402092 61.28759), rotate(0)" xlink:href="#item_12">
<title>item, id: 12, transf: [r: 0.000°, t: (62.402, 61.288)]</title>
</use>
<use transform="translate(105.01815 67.12755), rotate(-180)" xlink:href="#item_12">
<title>item, id: 12, transf: [r: -180.000°, t: (105.018, 67.128)]</title>
</use>
<use transform="translate(33.24295 23.744396), rotate(0)" xlink:href="#item_16">
<title>item, id: 16, transf: [r: 0.000°, t: (33.243, 23.744)]</title>
</use>
<use transform="translate(171.0176 22.352161), rotate(-180)" xlink:href="#item_16">
<title>item, id: 16, transf: [r: -180.000°, t: (171.018, 22.352)]</title>
</use>
<use transform="translate(18.255266 20.562431), rotate(0)" xlink:href="#item_16">
<title>item, id: 16, transf: [r: 0.000°, t: (18.255, 20.562)]</title>
</use>
<use transform="translate(180.46446 60.63517), rotate(-180)" xlink:href="#item_16">
<title>item, id: 16, transf: [r: -180.000°, t: (180.464, 60.635)]</title>
</use>
</g>
<g id="quality_zones"/>
<g id="optionals">
<g id="overlap_lines" transform="translate(0 0), rotate(0)"/>
</g>
<text font-family="monospace" font-size="1.975" font-weight="500" x="0" y="-0.9875">
height: 79.000 | width: 238.031 | usage: 91.502% | final_bench_85
</text>
</svg>