<svg viewBox="-11.900391 -3.950001 261.80853 86.90001" xmlns="http://www.w3.org/2000/svg" xmlns:xlink="http://www.w3.org/1999/xlink">
<g id="bin_0">
<path d="M0,0 L238.00775,0 L238.00775,79 L0,79 z" fill="#D3D3D3" stroke="black" stroke-width="0.43450004"/>
<title>bin, id: 0, bbox: [x_min: 0.000, y_min: 0.000, x_max: 238.008, y_max: 79.000]</title>
</g>
<g id="items">
<defs>
<g id="item_0">
<path d="M0,0 L12,-1 L14,-3.0000005 L24,0 L33,1 L59,2 L59,13 L4,13 L4,8 L2,5 L0,5 z" fill="#7A7A7A" fill-opacity="0.5" fill-rule="nonzero" stroke="black" stroke-width="0.21725002"/>
</g>
<g id="item_1">
<path d="M0,0 L0,-14 L27,-17 L37,-20 L41,-22 L47,-19 L56,-16 L56,0 z" fill="#7A7A7A" fill-opacity="0.5" fill-rule="nonzero" stroke="black" stroke-width="0.21725002"/>
</g>
<g id="item_2">
<path d="M0,0 L57,0 L57,5 L0,5 z" fill="#7A7A7A" fill-opacity="0.5" fill-rule="nonzero" stroke="black" stroke-width="0.21725002"/>
</g>
<g id="item_3">
<path d="M0,0 L52,0 L52,5 L0,5 z" fill="#7A7A7A" fill-opacity="0.5" fill-rule="nonzero" stroke="black" stroke-width="0.21725002"/>
</g>
<g id="item_4">
<path d="M0,0 L44,0 L44,5 L0,5 z" fill="#7A7A7A" fill-opacity="0.5" fill-rule="nonzero" stroke="black" stroke-width="0.21725002"/>
</g>
<g id="item_5">
<path d="M0,0 L42,0 L42,5 L0,5 z" fill="#7A7A7A" fill-opacity="0.5" fill-rule="nonzero" stroke="black" stroke-width="0.21725002"/>
</g>
<g id="item_6">
<path d="M0,0 L21,0 L21,2 L0,2 z" fill="#7A7A7A" fill-opacity="0.5" fill-rule="nonzero" stroke="black" stroke-width="0.21725002"/>
</g>
<g id="item_7">
<path d="M0,0 L15,4 L13,7 L0,6 z" fill="#7A7A7A" fill-opacity="0.5" fill-rule="nonzero" stroke="black" stroke-width="0.21725002"/>
</g>
<g id="item_8">
<path d="M0,0 L15,1 L15,4 L0,4 z" fill="#7A7A7A" fill-opacity="0.5" fill-rule="nonzero" stroke="black" stroke-width="0.21725002"/>
</g>
<g id="item_9">
<path d="M0,0 L14,0 L14,5 L0,5 z" fill="#7A7A7A" fill-opacity="0.5" fill-rule="nonzero" stroke="black" stroke-width="0.21725002"/>
</g>
<g id="item_10">
<path d="M0,0 L14,1 L14,4 L0,4 z" fill="#7A7A7A" fill-opacity="0.5" fill-rule="nonzero" stroke="black" stroke-width="0.21725002"/>
</g>
<g id="item_11">
<path d="M0,0 L13,0 L13,5 L0,5 z" fill="#7A7A7A" fill-opacity="0.5" fill-rule="nonzero" stroke="black" stroke-width="0.21725002"/>
</g>
<g id="item_12">
<path d="M0,0 L13,1 L13,4 L0,4 z" fill="#7A7A7A" fill-opacity="0.5" fill-rule="nonzero" stroke="black" stroke-width="0.21725002"/>
</g>
<g id="item_13">
<path d="M0,0 L12,0 L12,5 L0,5 z" fill="#7A7A7A" fill-opacity="0.5" fill-rule="nonzero" stroke="black" stroke-width="0.21725002"/>
</g>
<g id="item_14">
<path d="M0,0 L4,2 L6,10 L4,11 L-4,11 L-6,10 L-4,2 z" fill="#7A7A7A" fill-opacity="0.5" fill-rule="nonzero" stroke="black" stroke-width="0.21725002"/>
</g>
<g id="item_15">
<path d="M0,0 L3,-2 L8,0 L8,8 L2,8 z" fill="#7A7A7A" fill-opacity="0.5" fill-rule="nonzero" stroke="black" stroke-width="0.21725002"/>
</g>
<g id="item_16">
<path d="M0,0 L2,1 L3,6 L2,7 L-2,7 L-3,6 L-2,1 z" fill="#7A7A7A" fill-opacity="0.5" fill-rule="nonzero" stroke="black" stroke-width="0.21725002"/>
</g>
</defs>
<use transform="translate(176.23276 36.974754), rotate(-180)" xlink:href="#item_1">
<title>item, id: 1, transf: [r: -180.000°, t: (176.233, 36.975)]</title>
</use>
<use transform="translate(171.01723 0.0019369125), rotate(-180)" xlink:href="#item_1">
<title>item, id: 1, transf: [r: -180.000°, t: (171.017, 0.002)]</title>
</use>
<use transform="translate(126.00737 73.999886), rotate(0)" xlink:href="#item_1">
<title>item, id: 1, transf: [r: 0.000°, t: (126.007, 74.000)]</title>
</use>
<use transform="translate(0.1402874 78.99983), rotate(0)" xlink:href="#item_1">
<title>item, id: 1, transf: [r: 0.000°, t: (0.140, 79.000)]</title>
</use>
<use transform="translate(115.01551 0.00034427643), rotate(-180)" xlink:href="#item_1">
<title>item, id: 1, transf: [r: -180.000°, t: (115.016, 0.000)]</title>
</use>
<use transform="translate(182.00513 39.98243), rotate(0)" xlink:href="#item_1">
<title>item, id: 1, transf: [r: 0.000°, t: (182.005, 39.982)]</title>
</use>
<use transform="translate(182.00758 78.99936), rotate(0)" xlink:href="#item_1">
<title>item, id: 1, transf: [r: 0.000°, t: (182.008, 78.999)]</title>
</use>
<use transform="translate(67.00229 36.792435), rotate(0)" xlink:href="#item_1">
<title>item, id: 1, transf: [r: 0.000°, t: (67.002, 36.792)]</title>
</use>
<use transform="translate(56.140373 65.99954), rotate(0)" xlink:href="#item_0">
<title>item, id: 0, transf: [r: 0.000°, t: (56.140, 66.000)]</title>
</use>
<use transform="translate(59.568695 54.989998), rotate(-180)" xlink:href="#item_0">
<title>item, id: 0, transf: [r: -180.000°, t: (59.569, 54.990)]</title>
</use>
<use transform="translate(123.0032 23.970217), rotate(0)" xlink:href="#item_0">
<title>item, id: 0, transf: [r: 0.000°, t: (123.003, 23.970)]</title>
</use>
<use transform="translate(235.67522 52.982628), rotate(-180)" xlink:href="#item_0">
<title>item, id: 0, transf: [r: -180.000°, t: (235.675, 52.983)]</title>
</use>
<use transform="translate(118.735504 60.049515), rotate(-180)" xlink:href="#item_0">
<title>item, id: 0, transf: [r: -180.000°, t: (118.736, 60.050)]</title>
</use>
<use transform="translate(231.01768 13.000021), rotate(-180)" xlink:href="#item_0">
<title>item, id: 0, transf: [r: -180.000°, t: (231.018, 13.000)]</title>
</use>
<use transform="translate(59.015316 13.00004), rotate(-180)" xlink:href="#item_0">
<title>item, id: 0, transf: [r: -180.000°, t: (59.015, 13.000)]</title>
</use>
<use transform="translate(8.002081 23.984869), rotate(0)" xlink:href="#item_0">
<title>item, id: 0, transf: [r: 0.000°, t: (8.002, 23.985)]</title>
</use>
<use transform="translate(120.23202 41.99131), rotate(-180)" xlink:href="#item_2">
<title>item, id: 2, transf: [r: -180.000°, t: (120.232, 41.991)]</title>
</use>
<use transform="translate(68.23052 42.046406), rotate(0)" xlink:href="#item_3">
<title>item, id: 3, transf: [r: 0.000°, t: (68.231, 42.046)]</title>
</use>
<use transform="translate(182.00757 78.99991), rotate(-180)" xlink:href="#item_4">
<title>item, id: 4, transf: [r: -180.000°, t: (182.008, 79.000)]</title>
</use>
<use transform="translate(21.231205 36.988995), rotate(0)" xlink:href="#item_5">
<title>item, id: 5, transf: [r: 0.000°, t: (21.231, 36.989)]</title>
</use>
<use transform="translate(191.03827 22.88555), rotate(-180)" xlink:href="#item_14">
<title>item, id: 14, transf: [r: -180.000°, t: (191.038, 22.886)]</title>
</use>
<use transform="translate(13.903573 12.157064), rotate(0)" xlink:href="#item_14">
<title>item, id: 14, transf: [r: 0.000°, t: (13.904, 12.157)]</title>
</use>
<use transform="translate(177.1477 22.382704), rotate(-180)" xlink:href="#item_14">
<title>item, id: 14, transf: [r: -180.000°, t: (177.148, 22.383)]</title>
</use>
<use transform="translate(200.6441 12.462675), rotate(0)" xlink:href="#item_14">
<title>item, id: 14, transf: [r: 0.000°, t: (200.644, 12.463)]</title>
</use>
<use transform="translate(49.014313 14.127541), rotate(0)" xlink:href="#item_14">
<title>item, id: 14, transf: [r: 0.000°, t: (49.014, 14.128)]</title>
</use>
<use transform="translate(189.1256 52.76064), rotate(0)" xlink:href="#item_14">
<title>item, id: 14, transf: [r: 0.000°, t: (189.126, 52.761)]</title>
</use>
<use transform="translate(120.00122 71.485), rotate(-180)" xlink:href="#item_14">
<title>item, id: 14, transf: [r: -180.000°, t: (120.001, 71.485)]</title>
</use>
<use transform="translate(198.71448 63.051456), rotate(-180)" xlink:href="#item_14">
<title>item, id: 14, transf: [r: -180.000°, t: (198.714, 63.051)]</title>
</use>
<use transform="translate(156.23404 22.539185), rotate(-180)" xlink:href="#item_9">
<title>item, id: 9, transf: [r: -180.000°, t: (156.234, 22.539)]</title>
</use>
<use transform="translate(63.196983 64.35049), rotate(-180)" xlink:href="#item_7">
<title>item, id: 7, transf: [r: -180.000°, t: (63.197, 64.350)]</title>
</use>
<use transform="translate(79.76038 65.32326), rotate(-180)" xlink:href="#item_7">
<title>item, id: 7, transf: [r: -180.000°, t: (79.760, 65.323)]</title>
</use>
<use transform="translate(35.372093 24.352335), rotate(-180)" xlink:href="#item_7">
<title>item, id: 7, transf: [r: -180.000°, t: (35.372, 24.352)]</title>
</use>
<use transform="translate(205.80746 13.0106735), rotate(0)" xlink:href="#item_7">
<title>item, id: 7, transf: [r: 0.000°, t: (205.807, 13.011)]</title>
</use>
<use transform="translate(238.00774 60.876312), rotate(-180)" xlink:href="#item_7">
<title>item, id: 7, transf: [r: -180.000°, t: (238.008, 60.876)]</title>
</use>
<use transform="translate(172.12251 22.39317), rotate(-180)" xlink:href="#item_7">
<title>item, id: 7, transf: [r: -180.000°, t: (172.123, 22.393)]</title>
</use>
<use transform="translate(156.23991 18.280388), rotate(0)" xlink:href="#item_7">
<title>item, id: 7, transf: [r: 0.000°, t: (156.240, 18.280)]</title>
</use>
<use transform="translate(204.72543 52.373257), rotate(0)" xlink:href="#item_7">
<title>item, id: 7, transf: [r: 0.000°, t: (204.725, 52.373)]</title>
</use>
<use transform="translate(27.223837 61.97219), rotate(-180)" xlink:href="#item_11">
<title>item, id: 11, transf: [r: -180.000°, t: (27.224, 61.972)]</title>
</use>
<use transform="translate(117.0075 74.99653), rotate(0)" xlink:href="#item_6">
<title>item, id: 6, transf: [r: 0.000°, t: (117.007, 74.997)]</title>
</use>
<use transform="translate(115.98571 76.99694), rotate(0)" xlink:href="#item_6">
<title>item, id: 6, transf: [r: 0.000°, t: (115.986, 76.997)]</title>
</use>
<use transform="translate(21.118671 39.98935), rotate(-180)" xlink:href="#item_6">
<title>item, id: 6, transf: [r: -180.000°, t: (21.119, 39.989)]</title>
</use>
<use transform="translate(14.230223 54.966843), rotate(0)" xlink:href="#item_6">
<title>item, id: 6, transf: [r: 0.000°, t: (14.230, 54.967)]</title>
</use>
<use transform="translate(170.83371 22.890333), rotate(0)" xlink:href="#item_6">
<title>item, id: 6, transf: [r: 0.000°, t: (170.834, 22.890)]</title>
</use>
<use transform="translate(0.15541267 39.989788), rotate(0)" xlink:href="#item_6">
<title>item, id: 6, transf: [r: 0.000°, t: (0.155, 39.990)]</title>
</use>
<use transform="translate(114.422 65.17006), rotate(-180)" xlink:href="#item_6">
<title>item, id: 6, transf: [r: -180.000°, t: (114.422, 65.170)]</title>
</use>
<use transform="translate(93.63491 65.17079), rotate(0)" xlink:href="#item_6">
<title>item, id: 6, transf: [r: 0.000°, t: (93.635, 65.171)]</title>
</use>
<use transform="translate(18.324392 11.813905), rotate(0)" xlink:href="#item_8">
<title>item, id: 8, transf: [r: 0.000°, t: (18.324, 11.814)]</title>
</use>
<use transform="translate(12.000494 37.987545), rotate(-180)" xlink:href="#item_13">
<title>item, id: 13, transf: [r: -180.000°, t: (12.000, 37.988)]</title>
</use>
<use transform="translate(67.95397 47.04662), rotate(-180)" xlink:href="#item_13">
<title>item, id: 13, transf: [r: -180.000°, t: (67.954, 47.047)]</title>
</use>
<use transform="translate(229.57857 2.2431011), rotate(0)" xlink:href="#item_15">
<title>item, id: 15, transf: [r: 0.000°, t: (229.579, 2.243)]</title>
</use>
<use transform="translate(8.625191 19.260105), rotate(-180)" xlink:href="#item_15">
<title>item, id: 15, transf: [r: -180.000°, t: (8.625, 19.260)]</title>
</use>
<use transform="translate(35.013813 16.5342), rotate(0)" xlink:href="#item_15">
<title>item, id: 15, transf: [r: 0.000°, t: (35.014, 16.534)]</title>
</use>
<use transform="translate(8.001908 62.447403), rotate(-180)" xlink:href="#item_15">
<title>item, id: 15, transf: [r: -180.000°, t: (8.002, 62.447)]</title>
</use>
<use transform="translate(0.0015492439 24.939243), rotate(0)" xlink:href="#item_15">
<title>item, id: 15, transf: [r: 0.000°, t: (0.002, 24.939)]</title>
</use>
<use transform="translate(6.2237997 55.332577), rotate(0)" xlink:href="#item_15">
<title>item, id: 15, transf: [r: 0.000°, t: (6.224, 55.333)]</title>
</use>
<use transform="translate(230.00237 13.677168), rotate(0)" xlink:href="#item_15">
<title>item, id: 15, transf: [r: 0.000°, t: (230.002, 13.677)]</title>
</use>
<use transform="translate(53.450115 16.974773), rotate(0)" xlink:href="#item_15">
<title>item, id: 15, transf: [r: 0.000°, t: (53.450, 16.975)]</title>
</use>
<use transform="translate(79.76189 58.96323), rotate(0)" xlink:href="#item_10">
<title>item, id: 10, transf: [r: 0.000°, t: (79.762, 58.963)]</title>
</use>
<use transform="translate(93.1025 66.9661), rotate(-180)" xlink:href="#item_12">
<title>item, id: 12, transf: [r: -180.000°, t: (93.103, 66.966)]</title>
</use>
<use transform="translate(184.95256 55.450844), rotate(-180)" xlink:href="#item_12">
<title>item, id: 12, transf: [r: -180.000°, t: (184.953, 55.451)]</title>
</use>
<use transform="translate(235.00072 47.970676), rotate(-180)" xlink:href="#item_16">
<title>item, id: 16, transf: [r: -180.000°, t: (235.001, 47.971)]</title>
</use>
<use transform="translate(184.03473 15.887685), rotate(0)" xlink:href="#item_16">
<title>item, id: 16, transf: [r: 0.000°, t: (184.035, 15.888)]</title>
</use>
<use transform="translate(121.75724 53.484352), rotate(0)" xlink:href="#item_16">
<title>item, id: 16, transf: [r: 0.000°, t: (121.757, 53.484)]</title>
</use>
<use transform="translate(64.45109 25.87406), rotate(-180)" xlink:href="#item_16">
<title>item, id: 16, transf: [r: -180.000°, t: (64.451, 25.874)]</title>
</use>
</g>
<g id="quality_zones"/>
<g id="optionals">
<g id="overlap_lines" transform="translate(0 0), rotate(0)"/>
</g>
<text font-family="monospace" font-size="1.975" font-weight="500" x="0" y="-0.9875">
height: 79.000 | width: 238.008 | usage: 91.511% | final_bench_65
</text>
</svg>