<svg viewBox="-11.900147 -3.950001 261.8032 86.90001" xmlns="http://www.w3.org/2000/svg" xmlns:xlink="http://www.w3.org/1999/xlink">
<g id="bin_0">
<path d="M0,0 L238.0029,0 L238.0029,79 L0,79 z" fill="#D3D3D3" stroke="black" stroke-width="0.43450004"/>
<title>bin, id: 0, bbox: [x_min: 0.000, y_min: 0.000, x_max: 238.003, y_max: 79.000]</title>
</g>
<g id="items">
<defs>
<g id="item_0">
<path d="M0,0 L12,-1 L14,-3.0000005 L24,0 L33,1 L59,2 L59,13 L4,13 L4,8 L2,5 L0,5 z" fill="#7A7A7A" fill-opacity="0.5" fill-rule="nonzero" stroke="black" stroke-width="0.21725002"/>
</g>
<g id="item_1">
<path d="M0,0 L0,-14 L27,-17 L37,-20 L41,-22 L47,-19 L56,-16 L56,0 z" fill="#7A7A7A" fill-opacity="0.5" fill-rule="nonzero" stroke="black" stroke-width="0.21725002"/>
</g>
<g id="item_2">
<path d="M0,0 L57,0 L57,5 L0,5 z" fill="#7A7A7A" fill-opacity="0.5" fill-rule="nonzero" stroke="black" stroke-width="0.21725002"/>
</g>
<g id="item_3">
<path d="M0,0 L52,0 L52,5 L0,5 z" fill="#7A7A7A" fill-opacity="0.5" fill-rule="nonzero" stroke="black" stroke-width="0.21725002"/>
</g>
<g id="item_4">
<path d="M0,0 L44,0 L44,5 L0,5 z" fill="#7A7A7A" fill-opacity="0.5" fill-rule="nonzero" stroke="black" stroke-width="0.21725002"/>
</g>
<g id="item_5">
<path d="M0,0 L42,0 L42,5 L0,5 z" fill="#7A7A7A" fill-opacity="0.5" fill-rule="nonzero" stroke="black" stroke-width="0.21725002"/>
</g>
<g id="item_6">
<path d="M0,0 L21,0 L21,2 L0,2 z" fill="#7A7A7A" fill-opacity="0.5" fill-rule="nonzero" stroke="black" stroke-width="0.21725002"/>
</g>
<g id="item_7">
<path d="M0,0 L15,4 L13,7 L0,6 z" fill="#7A7A7A" fill-opacity="0.5" fill-rule="nonzero" stroke="black" stroke-width="0.21725002"/>
</g>
<g id="item_8">
<path d="M0,0 L15,1 L15,4 L0,4 z" fill="#7A7A7A" fill-opacity="0.5" fill-rule="nonzero" stroke="black" stroke-width="0.21725002"/>
</g>
<g id="item_9">
<path d="M0,0 L14,0 L14,5 L0,5 z" fill="#7A7A7A" fill-opacity="0.5" fill-rule="nonzero" stroke="black" stroke-width="0.21725002"/>
</g>
<g id="item_10">
<path d="M0,0 L14,1 L14,4 L0,4 z" fill="#7A7A7A" fill-opacity="0.5" fill-rule="nonzero" stroke="black" stroke-width="0.21725002"/>
</g>
<g id="item_11">
<path d="M0,0 L13,0 L13,5 L0,5 z" fill="#7A7A7A" fill-opacity="0.5" fill-rule="nonzero" stroke="black" stroke-width="0.21725002"/>
</g>
<g id="item_12">
<path d="M0,0 L13,1 L13,4 L0,4 z" fill="#7A7A7A" fill-opacity="0.5" fill-rule="nonzero" stroke="black" stroke-width="0.21725002"/>
</g>
<g id="item_13">
<path d="M0,0 L12,0 L12,5 L0,5 z" fill="#7A7A7A" fill-opacity="0.5" fill-rule="nonzero" stroke="black" stroke-width="0.21725002"/>
</g>
<g id="item_14">
<path d="M0,0 L4,2 L6,10 L4,11 L-4,11 L-6,10 L-4,2 z" fill="#7A7A7A" fill-opacity="0.5" fill-rule="nonzero" stroke="black" stroke-width="0.21725002"/>
</g>
<g id="item_15">
<path d="M0,0 L3,-2 L8,0 L8,8 L2,8 z" fill="#7A7A7A" fill-opacity="0.5" fill-rule="nonzero" stroke="black" stroke-width="0.21725002"/>
</g>
<g id="item_16">
<path d="M0,0 L2,1 L3,6 L2,7 L-2,7 L-3,6 L-2,1 z" fill="#7A7A7A" fill-opacity="0.5" fill-rule="nonzero" stroke="black" stroke-width="0.21725002"/>
</g>
</defs>
<use transform="translate(56.000107 0.0016288757), rotate(-180)" xlink:href="#item_1">
<title>item, id: 1, transf: [r: -180.000°, t: (56.000, 0.002)]</title>
</use>
<use transform="translate(0.000017166138 42.418903), rotate(0)" xlink:href="#item_1">
<title>item, id: 1, transf: [r: 0.000°, t: (0.000, 42.419)]</title>
</use>
<use transform="translate(10.944588 78.98885), rotate(0)" xlink:href="#item_1">
<title>item, id: 1, transf: [r: 0.000°, t: (10.945, 78.989)]</title>
</use>
<use transform="translate(56.001225 38.054268), rotate(0)" xlink:href="#item_1">
<title>item, id: 1, transf: [r: 0.000°, t: (56.001, 38.054)]</title>
</use>
<use transform="translate(112.0186 0.010787964), rotate(-180)" xlink:href="#item_1">
<title>item, id: 1, transf: [r: -180.000°, t: (112.019, 0.011)]</title>
</use>
<use transform="translate(125.992584 78.999855), rotate(0)" xlink:href="#item_1">
<title>item, id: 1, transf: [r: 0.000°, t: (125.993, 79.000)]</title>
</use>
<use transform="translate(115.00098 43.05682), rotate(-180)" xlink:href="#item_1">
<title>item, id: 1, transf: [r: -180.000°, t: (115.001, 43.057)]</title>
</use>
<use transform="translate(238.00247 54.855713), rotate(-180)" xlink:href="#item_1">
<title>item, id: 1, transf: [r: -180.000°, t: (238.002, 54.856)]</title>
</use>
<use transform="translate(230.00217 46.83224), rotate(-180)" xlink:href="#item_0">
<title>item, id: 0, transf: [r: -180.000°, t: (230.002, 46.832)]</title>
</use>
<use transform="translate(174.00137 56.405697), rotate(-180)" xlink:href="#item_0">
<title>item, id: 0, transf: [r: -180.000°, t: (174.001, 56.406)]</title>
</use>
<use transform="translate(66.94697 65.99968), rotate(0)" xlink:href="#item_0">
<title>item, id: 0, transf: [r: 0.000°, t: (66.947, 66.000)]</title>
</use>
<use transform="translate(59.00012 55.419025), rotate(-180)" xlink:href="#item_0">
<title>item, id: 0, transf: [r: -180.000°, t: (59.000, 55.419)]</title>
</use>
<use transform="translate(112.002144 30.40568), rotate(0)" xlink:href="#item_0">
<title>item, id: 0, transf: [r: 0.000°, t: (112.002, 30.406)]</title>
</use>
<use transform="translate(171.03854 15.820547), rotate(0)" xlink:href="#item_0">
<title>item, id: 0, transf: [r: 0.000°, t: (171.039, 15.821)]</title>
</use>
<use transform="translate(175.01123 29.00326), rotate(-180)" xlink:href="#item_0">
<title>item, id: 0, transf: [r: -180.000°, t: (175.011, 29.003)]</title>
</use>
<use transform="translate(112.038445 3.0027442), rotate(0)" xlink:href="#item_0">
<title>item, id: 0, transf: [r: 0.000°, t: (112.038, 3.003)]</title>
</use>
<use transform="translate(237.99843 54.83638), rotate(-180)" xlink:href="#item_2">
<title>item, id: 2, transf: [r: -180.000°, t: (237.998, 54.836)]</title>
</use>
<use transform="translate(227.01158 33.829056), rotate(-180)" xlink:href="#item_3">
<title>item, id: 3, transf: [r: -180.000°, t: (227.012, 33.829)]</title>
</use>
<use transform="translate(113.95999 43.05629), rotate(-180)" xlink:href="#item_4">
<title>item, id: 4, transf: [r: -180.000°, t: (113.960, 43.056)]</title>
</use>
<use transform="translate(196.0015 0.000002861023), rotate(0)" xlink:href="#item_5">
<title>item, id: 5, transf: [r: 0.000°, t: (196.001, 0.000)]</title>
</use>
<use transform="translate(6.043007 69.31138), rotate(-180)" xlink:href="#item_14">
<title>item, id: 14, transf: [r: -180.000°, t: (6.043, 69.311)]</title>
</use>
<use transform="translate(177.05193 3.9857936), rotate(0)" xlink:href="#item_14">
<title>item, id: 14, transf: [r: 0.000°, t: (177.052, 3.986)]</title>
</use>
<use transform="translate(226.27986 6.148997), rotate(0)" xlink:href="#item_14">
<title>item, id: 14, transf: [r: 0.000°, t: (226.280, 6.149)]</title>
</use>
<use transform="translate(207.17905 5.7210803), rotate(0)" xlink:href="#item_14">
<title>item, id: 14, transf: [r: 0.000°, t: (207.179, 5.721)]</title>
</use>
<use transform="translate(197.54364 16.098022), rotate(-180)" xlink:href="#item_14">
<title>item, id: 14, transf: [r: -180.000°, t: (197.544, 16.098)]</title>
</use>
<use transform="translate(232.00235 28.595297), rotate(0)" xlink:href="#item_14">
<title>item, id: 14, transf: [r: 0.000°, t: (232.002, 28.595)]</title>
</use>
<use transform="translate(216.75731 16.02434), rotate(-180)" xlink:href="#item_14">
<title>item, id: 14, transf: [r: -180.000°, t: (216.757, 16.024)]</title>
</use>
<use transform="translate(186.31435 13.000636), rotate(-180)" xlink:href="#item_14">
<title>item, id: 14, transf: [r: -180.000°, t: (186.314, 13.001)]</title>
</use>
<use transform="translate(26.043224 63.310715), rotate(-180)" xlink:href="#item_9">
<title>item, id: 9, transf: [r: -180.000°, t: (26.043, 63.311)]</title>
</use>
<use transform="translate(26.15315 54.54267), rotate(0)" xlink:href="#item_7">
<title>item, id: 7, transf: [r: 0.000°, t: (26.153, 54.543)]</title>
</use>
<use transform="translate(101.12374 67.0438), rotate(-180)" xlink:href="#item_7">
<title>item, id: 7, transf: [r: -180.000°, t: (101.124, 67.044)]</title>
</use>
<use transform="translate(238.00261 77.30826), rotate(-180)" xlink:href="#item_7">
<title>item, id: 7, transf: [r: -180.000°, t: (238.003, 77.308)]</title>
</use>
<use transform="translate(51.68864 15.8497925), rotate(0)" xlink:href="#item_7">
<title>item, id: 7, transf: [r: 0.000°, t: (51.689, 15.850)]</title>
</use>
<use transform="translate(137.36803 55.27786), rotate(0)" xlink:href="#item_7">
<title>item, id: 7, transf: [r: 0.000°, t: (137.368, 55.278)]</title>
</use>
<use transform="translate(216.97174 71.98919), rotate(0)" xlink:href="#item_7">
<title>item, id: 7, transf: [r: 0.000°, t: (216.972, 71.989)]</title>
</use>
<use transform="translate(116.00861 22.045664), rotate(-180)" xlink:href="#item_7">
<title>item, id: 7, transf: [r: -180.000°, t: (116.009, 22.046)]</title>
</use>
<use transform="translate(51.63401 23.188982), rotate(-180)" xlink:href="#item_7">
<title>item, id: 7, transf: [r: -180.000°, t: (51.634, 23.189)]</title>
</use>
<use transform="translate(216.87167 78.99857), rotate(-180)" xlink:href="#item_11">
<title>item, id: 11, transf: [r: -180.000°, t: (216.872, 78.999)]</title>
</use>
<use transform="translate(171.12787 47.62714), rotate(0)" xlink:href="#item_6">
<title>item, id: 6, transf: [r: 0.000°, t: (171.128, 47.627)]</title>
</use>
<use transform="translate(26.151123 58.310703), rotate(-180)" xlink:href="#item_6">
<title>item, id: 6, transf: [r: -180.000°, t: (26.151, 58.311)]</title>
</use>
<use transform="translate(170.62943 45.627117), rotate(0)" xlink:href="#item_6">
<title>item, id: 6, transf: [r: 0.000°, t: (170.629, 45.627)]</title>
</use>
<use transform="translate(172.21812 2.3656762), rotate(-180)" xlink:href="#item_6">
<title>item, id: 6, transf: [r: -180.000°, t: (172.218, 2.366)]</title>
</use>
<use transform="translate(21.930714 56.28218), rotate(-180)" xlink:href="#item_6">
<title>item, id: 6, transf: [r: -180.000°, t: (21.931, 56.282)]</title>
</use>
<use transform="translate(172.21855 0.000078082085), rotate(0)" xlink:href="#item_6">
<title>item, id: 6, transf: [r: 0.000°, t: (172.219, 0.000)]</title>
</use>
<use transform="translate(175.48029 4.365802), rotate(-180)" xlink:href="#item_6">
<title>item, id: 6, transf: [r: -180.000°, t: (175.480, 4.366)]</title>
</use>
<use transform="translate(115.333824 55.23736), rotate(0)" xlink:href="#item_6">
<title>item, id: 6, transf: [r: 0.000°, t: (115.334, 55.237)]</title>
</use>
<use transform="translate(151.21707 4.0127172), rotate(-180)" xlink:href="#item_8">
<title>item, id: 8, transf: [r: -180.000°, t: (151.217, 4.013)]</title>
</use>
<use transform="translate(125.359116 57.264755), rotate(0)" xlink:href="#item_13">
<title>item, id: 13, transf: [r: 0.000°, t: (125.359, 57.265)]</title>
</use>
<use transform="translate(68.00072 43.056793), rotate(-180)" xlink:href="#item_13">
<title>item, id: 13, transf: [r: -180.000°, t: (68.001, 43.057)]</title>
</use>
<use transform="translate(125.99197 65.85003), rotate(-180)" xlink:href="#item_15">
<title>item, id: 15, transf: [r: -180.000°, t: (125.992, 65.850)]</title>
</use>
<use transform="translate(229.99686 7.007888), rotate(0)" xlink:href="#item_15">
<title>item, id: 15, transf: [r: 0.000°, t: (229.997, 7.008)]</title>
</use>
<use transform="translate(230.00262 17.671734), rotate(0)" xlink:href="#item_15">
<title>item, id: 15, transf: [r: 0.000°, t: (230.003, 17.672)]</title>
</use>
<use transform="translate(109.986435 59.284378), rotate(0)" xlink:href="#item_15">
<title>item, id: 15, transf: [r: 0.000°, t: (109.986, 59.284)]</title>
</use>
<use transform="translate(0.002418518 19.015345), rotate(0)" xlink:href="#item_15">
<title>item, id: 15, transf: [r: 0.000°, t: (0.002, 19.015)]</title>
</use>
<use transform="translate(0.7116842 70.778), rotate(0)" xlink:href="#item_15">
<title>item, id: 15, transf: [r: 0.000°, t: (0.712, 70.778)]</title>
</use>
<use transform="translate(182.00227 60.002064), rotate(-180)" xlink:href="#item_15">
<title>item, id: 15, transf: [r: -180.000°, t: (182.002, 60.002)]</title>
</use>
<use transform="translate(230.00185 41.62408), rotate(0)" xlink:href="#item_15">
<title>item, id: 15, transf: [r: 0.000°, t: (230.002, 41.624)]</title>
</use>
<use transform="translate(8.051844 21.791351), rotate(0)" xlink:href="#item_10">
<title>item, id: 10, transf: [r: 0.000°, t: (8.052, 21.791)]</title>
</use>
<use transform="translate(182.18251 74.99222), rotate(0)" xlink:href="#item_12">
<title>item, id: 12, transf: [r: 0.000°, t: (182.183, 74.992)]</title>
</use>
<use transform="translate(192.39941 45.775024), rotate(0)" xlink:href="#item_12">
<title>item, id: 12, transf: [r: 0.000°, t: (192.399, 45.775)]</title>
</use>
<use transform="translate(103.81971 65.52201), rotate(-180)" xlink:href="#item_16">
<title>item, id: 16, transf: [r: -180.000°, t: (103.820, 65.522)]</title>
</use>
<use transform="translate(108.47647 60.250156), rotate(0)" xlink:href="#item_16">
<title>item, id: 16, transf: [r: 0.000°, t: (108.476, 60.250)]</title>
</use>
<use transform="translate(25.075548 18.200336), rotate(0)" xlink:href="#item_16">
<title>item, id: 16, transf: [r: 0.000°, t: (25.076, 18.200)]</title>
</use>
<use transform="translate(29.908947 24.36041), rotate(-180)" xlink:href="#item_16">
<title>item, id: 16, transf: [r: -180.000°, t: (29.909, 24.360)]</title>
</use>
</g>
<g id="quality_zones"/>
<g id="optionals">
<g id="overlap_lines" transform="translate(0 0), rotate(0)"/>
</g>
<text font-family="monospace" font-size="1.975" font-weight="500" x="0" y="-0.9875">
height: 79.000 | width: 238.003 | usage: 91.513% | final_bench_94
</text>
</svg>