<svg viewBox="-11.900238 -3.950001 261.80518 86.90001" xmlns="http://www.w3.org/2000/svg" xmlns:xlink="http://www.w3.org/1999/xlink">
<g id="bin_0">
<path d="M0,0 L238.0047,0 L238.0047,79 L0,79 z" fill="#D3D3D3" stroke="black" stroke-width="0.43450004"/>
<title>bin, id: 0, bbox: [x_min: 0.000, y_min: 0.000, x_max: 238.005, y_max: 79.000]</title>
</g>
<g id="items">
<defs>
<g id="item_0">
<path d="M0,0 L12,-1 L14,-3.0000005 L24,0 L33,1 L59,2 L59,13 L4,13 L4,8 L2,5 L0,5 z" fill="#7A7A7A" fill-opacity="0.5" fill-rule="nonzero" stroke="black" stroke-width="0.21725002"/>
</g>
<g id="item_1">
<path d="M0,0 L0,-14 L27,-17 L37,-20 L41,-22 L47,-19 L56,-16 L56,0 z" fill="#7A7A7A" fill-opacity="0.5" fill-rule="nonzero" stroke="black" stroke-width="0.21725002"/>
</g>
<g id="item_2">
<path d="M0,0 L57,0 L57,5 L0,5 z" fill="#7A7A7A" fill-opacity="0.5" fill-rule="nonzero" stroke="black" stroke-width="0.21725002"/>
</g>
<g id="item_3">
<path d="M0,0 L52,0 L52,5 L0,5 z" fill="#7A7A7A" fill-opacity="0.5" fill-rule="nonzero" stroke="black" stroke-width="0.21725002"/>
</g>
<g id="item_4">
<path d="M0,0 L44,0 L44,5 L0,5 z" fill="#7A7A7A" fill-opacity="0.5" fill-rule="nonzero" stroke="black" stroke-width="0.21725002"/>
</g>
<g id="item_5">
<path d="M0,0 L42,0 L42,5 L0,5 z" fill="#7A7A7A" fill-opacity="0.5" fill-rule="nonzero" stroke="black" stroke-width="0.21725002"/>
</g>
<g id="item_6">
<path d="M0,0 L21,0 L21,2 L0,2 z" fill="#7A7A7A" fill-opacity="0.5" fill-rule="nonzero" stroke="black" stroke-width="0.21725002"/>
</g>
<g id="item_7">
<path d="M0,0 L15,4 L13,7 L0,6 z" fill="#7A7A7A" fill-opacity="0.5" fill-rule="nonzero" stroke="black" stroke-width="0.21725002"/>
</g>
<g id="item_8">
<path d="M0,0 L15,1 L15,4 L0,4 z" fill="#7A7A7A" fill-opacity="0.5" fill-rule="nonzero" stroke="black" stroke-width="0.21725002"/>
</g>
<g id="item_9">
<path d="M0,0 L14,0 L14,5 L0,5 z" fill="#7A7A7A" fill-opacity="0.5" fill-rule="nonzero" stroke="black" stroke-width="0.21725002"/>
</g>
<g id="item_10">
<path d="M0,0 L14,1 L14,4 L0,4 z" fill="#7A7A7A" fill-opacity="0.5" fill-rule="nonzero" stroke="black" stroke-width="0.21725002"/>
</g>
<g id="item_11">
<path d="M0,0 L13,0 L13,5 L0,5 z" fill="#7A7A7A" fill-opacity="0.5" fill-rule="nonzero" stroke="black" stroke-width="0.21725002"/>
</g>
<g id="item_12">
<path d="M0,0 L13,1 L13,4 L0,4 z" fill="#7A7A7A" fill-opacity="0.5" fill-rule="nonzero" stroke="black" stroke-width="0.21725002"/>
</g>
<g id="item_13">
<path d="M0,0 L12,0 L12,5 L0,5 z" fill="#7A7A7A" fill-opacity="0.5" fill-rule="nonzero" stroke="black" stroke-width="0.21725002"/>
</g>
<g id="item_14">
<path d="M0,0 L4,2 L6,10 L4,11 L-4,11 L-6,10 L-4,2 z" fill="#7A7A7A" fill-opacity="0.5" fill-rule="nonzero" stroke="black" stroke-width="0.21725002"/>
</g>
<g id="item_15">
<path d="M0,0 L3,-2 L8,0 L8,8 L2,8 z" fill="#7A7A7A" fill-opacity="0.5" fill-rule="nonzero" stroke="black" stroke-width="0.21725002"/>
</g>
<g id="item_16">
<path d="M0,0 L2,1 L3,6 L2,7 L-2,7 L-3,6 L-2,1 z" fill="#7A7A7A" fill-opacity="0.5" fill-rule="nonzero" stroke="black" stroke-width="0.21725002"/>
</g>
</defs>
<use transform="translate(230.00436 0.01462841), rotate(-180)" xlink:href="#item_1">
<title>item, id: 1, transf: [r: -180.000°, t: (230.004, 0.015)]</title>
</use>
<use transform="translate(123.00285 78.99988), rotate(0)" xlink:href="#item_1">
<title>item, id: 1, transf: [r: 0.000°, t: (123.003, 79.000)]</title>
</use>
<use transform="translate(0.115413666 38.040207), rotate(0)" xlink:href="#item_1">
<title>item, id: 1, transf: [r: 0.000°, t: (0.115, 38.040)]</title>
</use>
<use transform="translate(56.004517 38.040405), rotate(-180)" xlink:href="#item_1">
<title>item, id: 1, transf: [r: -180.000°, t: (56.005, 38.040)]</title>
</use>
<use transform="translate(115.00366 0.0025262833), rotate(-180)" xlink:href="#item_1">
<title>item, id: 1, transf: [r: -180.000°, t: (115.004, 0.003)]</title>
</use>
<use transform="translate(56.121357 38.043385), rotate(0)" xlink:href="#item_1">
<title>item, id: 1, transf: [r: 0.000°, t: (56.121, 38.043)]</title>
</use>
<use transform="translate(67.00249 78.999275), rotate(0)" xlink:href="#item_1">
<title>item, id: 1, transf: [r: 0.000°, t: (67.002, 78.999)]</title>
</use>
<use transform="translate(181.54922 37.06172), rotate(0)" xlink:href="#item_1">
<title>item, id: 1, transf: [r: 0.000°, t: (181.549, 37.062)]</title>
</use>
<use transform="translate(114.415245 20.766146), rotate(0)" xlink:href="#item_0">
<title>item, id: 0, transf: [r: 0.000°, t: (114.415, 20.766)]</title>
</use>
<use transform="translate(174.00397 13.00384), rotate(-180)" xlink:href="#item_0">
<title>item, id: 0, transf: [r: -180.000°, t: (174.004, 13.004)]</title>
</use>
<use transform="translate(237.98256 55.068214), rotate(-180)" xlink:href="#item_0">
<title>item, id: 0, transf: [r: -180.000°, t: (237.983, 55.068)]</title>
</use>
<use transform="translate(59.001328 13.000868), rotate(-180)" xlink:href="#item_0">
<title>item, id: 0, transf: [r: -180.000°, t: (59.001, 13.001)]</title>
</use>
<use transform="translate(172.528 51.768105), rotate(-180)" xlink:href="#item_0">
<title>item, id: 0, transf: [r: -180.000°, t: (172.528, 51.768)]</title>
</use>
<use transform="translate(116.37059 56.05534), rotate(-180)" xlink:href="#item_0">
<title>item, id: 0, transf: [r: -180.000°, t: (116.371, 56.055)]</title>
</use>
<use transform="translate(179.00441 60.993275), rotate(0)" xlink:href="#item_0">
<title>item, id: 0, transf: [r: 0.000°, t: (179.004, 60.993)]</title>
</use>
<use transform="translate(0.0015087128 65.999176), rotate(0)" xlink:href="#item_0">
<title>item, id: 0, transf: [r: 0.000°, t: (0.002, 65.999)]</title>
</use>
<use transform="translate(180.92859 37.06309), rotate(0)" xlink:href="#item_2">
<title>item, id: 2, transf: [r: 0.000°, t: (180.929, 37.063)]</title>
</use>
<use transform="translate(56.005867 38.050297), rotate(0)" xlink:href="#item_3">
<title>item, id: 3, transf: [r: 0.000°, t: (56.006, 38.050)]</title>
</use>
<use transform="translate(112.72603 33.768066), rotate(0)" xlink:href="#item_4">
<title>item, id: 4, transf: [r: 0.000°, t: (112.726, 33.768)]</title>
</use>
<use transform="translate(196.00417 73.996254), rotate(0)" xlink:href="#item_5">
<title>item, id: 5, transf: [r: 0.000°, t: (196.004, 73.996)]</title>
</use>
<use transform="translate(11.789527 22.60856), rotate(-180)" xlink:href="#item_14">
<title>item, id: 14, transf: [r: -180.000°, t: (11.790, 22.609)]</title>
</use>
<use transform="translate(129.51553 64.16248), rotate(-180)" xlink:href="#item_14">
<title>item, id: 14, transf: [r: -180.000°, t: (129.516, 64.162)]</title>
</use>
<use transform="translate(58.427334 65.286995), rotate(-180)" xlink:href="#item_14">
<title>item, id: 14, transf: [r: -180.000°, t: (58.427, 65.287)]</title>
</use>
<use transform="translate(140.37701 51.62081), rotate(0)" xlink:href="#item_14">
<title>item, id: 14, transf: [r: 0.000°, t: (140.377, 51.621)]</title>
</use>
<use transform="translate(38.97896 65.37868), rotate(-180)" xlink:href="#item_14">
<title>item, id: 14, transf: [r: -180.000°, t: (38.979, 65.379)]</title>
</use>
<use transform="translate(29.00951 55.04383), rotate(0)" xlink:href="#item_14">
<title>item, id: 14, transf: [r: 0.000°, t: (29.010, 55.044)]</title>
</use>
<use transform="translate(174.78784 44.83944), rotate(-180)" xlink:href="#item_14">
<title>item, id: 14, transf: [r: -180.000°, t: (174.788, 44.839)]</title>
</use>
<use transform="translate(48.724636 54.479137), rotate(0)" xlink:href="#item_14">
<title>item, id: 14, transf: [r: 0.000°, t: (48.725, 54.479)]</title>
</use>
<use transform="translate(154.9004 17.053083), rotate(0)" xlink:href="#item_9">
<title>item, id: 9, transf: [r: 0.000°, t: (154.900, 17.053)]</title>
</use>
<use transform="translate(21.448801 11.833075), rotate(0)" xlink:href="#item_7">
<title>item, id: 7, transf: [r: 0.000°, t: (21.449, 11.833)]</title>
</use>
<use transform="translate(174.18633 59.714672), rotate(-180)" xlink:href="#item_7">
<title>item, id: 7, transf: [r: -180.000°, t: (174.186, 59.715)]</title>
</use>
<use transform="translate(168.90088 15.479795), rotate(0)" xlink:href="#item_7">
<title>item, id: 7, transf: [r: 0.000°, t: (168.901, 15.480)]</title>
</use>
<use transform="translate(140.8688 21.03875), rotate(-180)" xlink:href="#item_7">
<title>item, id: 7, transf: [r: -180.000°, t: (140.869, 21.039)]</title>
</use>
<use transform="translate(208.20563 61.56819), rotate(-180)" xlink:href="#item_7">
<title>item, id: 7, transf: [r: -180.000°, t: (208.206, 61.568)]</title>
</use>
<use transform="translate(145.7997 52.172276), rotate(0)" xlink:href="#item_7">
<title>item, id: 7, transf: [r: 0.000°, t: (145.800, 52.172)]</title>
</use>
<use transform="translate(51.142017 14.382156), rotate(0)" xlink:href="#item_7">
<title>item, id: 7, transf: [r: 0.000°, t: (51.142, 14.382)]</title>
</use>
<use transform="translate(208.38899 55.147327), rotate(0)" xlink:href="#item_7">
<title>item, id: 7, transf: [r: 0.000°, t: (208.389, 55.147)]</title>
</use>
<use transform="translate(195.50111 78.99711), rotate(-180)" xlink:href="#item_11">
<title>item, id: 11, transf: [r: -180.000°, t: (195.501, 78.997)]</title>
</use>
<use transform="translate(93.599915 62.04377), rotate(-180)" xlink:href="#item_6">
<title>item, id: 6, transf: [r: -180.000°, t: (93.600, 62.044)]</title>
</use>
<use transform="translate(92.25918 58.043297), rotate(-180)" xlink:href="#item_6">
<title>item, id: 6, transf: [r: -180.000°, t: (92.259, 58.043)]</title>
</use>
<use transform="translate(136.00641 13.812059), rotate(-180)" xlink:href="#item_6">
<title>item, id: 6, transf: [r: -180.000°, t: (136.006, 13.812)]</title>
</use>
<use transform="translate(97.30073 60.043762), rotate(-180)" xlink:href="#item_6">
<title>item, id: 6, transf: [r: -180.000°, t: (97.301, 60.044)]</title>
</use>
<use transform="translate(137.37143 52.70338), rotate(-180)" xlink:href="#item_6">
<title>item, id: 6, transf: [r: -180.000°, t: (137.371, 52.703)]</title>
</use>
<use transform="translate(105.3469 17.771772), rotate(0)" xlink:href="#item_6">
<title>item, id: 6, transf: [r: 0.000°, t: (105.347, 17.772)]</title>
</use>
<use transform="translate(104.65446 15.152632), rotate(0)" xlink:href="#item_6">
<title>item, id: 6, transf: [r: 0.000°, t: (104.654, 15.153)]</title>
</use>
<use transform="translate(67.00073 67.49871), rotate(-180)" xlink:href="#item_6">
<title>item, id: 6, transf: [r: -180.000°, t: (67.001, 67.499)]</title>
</use>
<use transform="translate(193.20538 57.618366), rotate(-180)" xlink:href="#item_8">
<title>item, id: 8, transf: [r: -180.000°, t: (193.205, 57.618)]</title>
</use>
<use transform="translate(226.0002 56.06696), rotate(0)" xlink:href="#item_13">
<title>item, id: 13, transf: [r: 0.000°, t: (226.000, 56.067)]</title>
</use>
<use transform="translate(168.72675 38.766163), rotate(-180)" xlink:href="#item_13">
<title>item, id: 13, transf: [r: -180.000°, t: (168.727, 38.766)]</title>
</use>
<use transform="translate(8.003271 21.49442), rotate(-180)" xlink:href="#item_15">
<title>item, id: 15, transf: [r: -180.000°, t: (8.003, 21.494)]</title>
</use>
<use transform="translate(173.54005 25.837677), rotate(0)" xlink:href="#item_15">
<title>item, id: 15, transf: [r: 0.000°, t: (173.540, 25.838)]</title>
</use>
<use transform="translate(72.42736 62.722584), rotate(-180)" xlink:href="#item_15">
<title>item, id: 15, transf: [r: -180.000°, t: (72.427, 62.723)]</title>
</use>
<use transform="translate(0.000078201294 57.046333), rotate(0)" xlink:href="#item_15">
<title>item, id: 15, transf: [r: 0.000°, t: (0.000, 57.046)]</title>
</use>
<use transform="translate(238.00456 8.176614), rotate(-180)" xlink:href="#item_15">
<title>item, id: 15, transf: [r: -180.000°, t: (238.005, 8.177)]</title>
</use>
<use transform="translate(238.00447 18.199574), rotate(-180)" xlink:href="#item_15">
<title>item, id: 15, transf: [r: -180.000°, t: (238.004, 18.200)]</title>
</use>
<use transform="translate(125.15263 60.715614), rotate(-180)" xlink:href="#item_15">
<title>item, id: 15, transf: [r: -180.000°, t: (125.153, 60.716)]</title>
</use>
<use transform="translate(67.0021 75.51041), rotate(-180)" xlink:href="#item_15">
<title>item, id: 15, transf: [r: -180.000°, t: (67.002, 75.510)]</title>
</use>
<use transform="translate(140.89772 13.903546), rotate(0)" xlink:href="#item_10">
<title>item, id: 10, transf: [r: 0.000°, t: (140.898, 13.904)]</title>
</use>
<use transform="translate(174.1994 56.310238), rotate(0)" xlink:href="#item_12">
<title>item, id: 12, transf: [r: 0.000°, t: (174.199, 56.310)]</title>
</use>
<use transform="translate(154.43785 22.03617), rotate(-180)" xlink:href="#item_12">
<title>item, id: 12, transf: [r: -180.000°, t: (154.438, 22.036)]</title>
</use>
<use transform="translate(21.22812 65.14401), rotate(-180)" xlink:href="#item_16">
<title>item, id: 16, transf: [r: -180.000°, t: (21.228, 65.144)]</title>
</use>
<use transform="translate(175.64902 53.634407), rotate(-180)" xlink:href="#item_16">
<title>item, id: 16, transf: [r: -180.000°, t: (175.649, 53.634)]</title>
</use>
<use transform="translate(115.41178 26.268175), rotate(0)" xlink:href="#item_16">
<title>item, id: 16, transf: [r: 0.000°, t: (115.412, 26.268)]</title>
</use>
<use transform="translate(19.020447 14.715894), rotate(0)" xlink:href="#item_16">
<title>item, id: 16, transf: [r: 0.000°, t: (19.020, 14.716)]</title>
</use>
</g>
<g id="quality_zones"/>
<g id="optionals">
<g id="overlap_lines" transform="translate(0 0), rotate(0)"/>
</g>
<text font-family="monospace" font-size="1.975" font-weight="500" x="0" y="-0.9875">
height: 79.000 | width: 238.005 | usage: 91.512% | final_bench_25
</text>
</svg>