<svg viewBox="-11.900186 -3.950001 261.80405 86.90001" xmlns="http://www.w3.org/2000/svg" xmlns:xlink="http://www.w3.org/1999/xlink">
<g id="bin_0">
<path d="M0,0 L238.00366,0 L238.00366,79 L0,79 z" fill="#D3D3D3" stroke="black" stroke-width="0.43450004"/>
<title>bin, id: 0, bbox: [x_min: 0.000, y_min: 0.000, x_max: 238.004, y_max: 79.000]</title>
</g>
<g id="items">
<defs>
<g id="item_0">
<path d="M0,0 L12,-1 L14,-3.0000005 L24,0 L33,1 L59,2 L59,13 L4,13 L4,8 L2,5 L0,5 z" fill="#7A7A7A" fill-opacity="0.5" fill-rule="nonzero" stroke="black" stroke-width="0.21725002"/>
</g>
<g id="item_1">
<path d="M0,0 L0,-14 L27,-17 L37,-20 L41,-22 L47,-19 L56,-16 L56,0 z" fill="#7A7A7A" fill-opacity="0.5" fill-rule="nonzero" stroke="black" stroke-width="0.21725002"/>
</g>
<g id="item_2">
<path d="M0,0 L57,0 L57,5 L0,5 z" fill="#7A7A7A" fill-opacity="0.5" fill-rule="nonzero" stroke="black" stroke-width="0.21725002"/>
</g>
<g id="item_3">
<path d="M0,0 L52,0 L52,5 L0,5 z" fill="#7A7A7A" fill-opacity="0.5" fill-rule="nonzero" stroke="black" stroke-width="0.21725002"/>
</g>
<g id="item_4">
<path d="M0,0 L44,0 L44,5 L0,5 z" fill="#7A7A7A" fill-opacity="0.5" fill-rule="nonzero" stroke="black" stroke-width="0.21725002"/>
</g>
<g id="item_5">
<path d="M0,0 L42,0 L42,5 L0,5 z" fill="#7A7A7A" fill-opacity="0.5" fill-rule="nonzero" stroke="black" stroke-width="0.21725002"/>
</g>
<g id="item_6">
<path d="M0,0 L21,0 L21,2 L0,2 z" fill="#7A7A7A" fill-opacity="0.5" fill-rule="nonzero" stroke="black" stroke-width="0.21725002"/>
</g>
<g id="item_7">
<path d="M0,0 L15,4 L13,7 L0,6 z" fill="#7A7A7A" fill-opacity="0.5" fill-rule="nonzero" stroke="black" stroke-width="0.21725002"/>
</g>
<g id="item_8">
<path d="M0,0 L15,1 L15,4 L0,4 z" fill="#7A7A7A" fill-opacity="0.5" fill-rule="nonzero" stroke="black" stroke-width="0.21725002"/>
</g>
<g id="item_9">
<path d="M0,0 L14,0 L14,5 L0,5 z" fill="#7A7A7A" fill-opacity="0.5" fill-rule="nonzero" stroke="black" stroke-width="0.21725002"/>
</g>
<g id="item_10">
<path d="M0,0 L14,1 L14,4 L0,4 z" fill="#7A7A7A" fill-opacity="0.5" fill-rule="nonzero" stroke="black" stroke-width="0.21725002"/>
</g>
<g id="item_11">
<path d="M0,0 L13,0 L13,5 L0,5 z" fill="#7A7A7A" fill-opacity="0.5" fill-rule="nonzero" stroke="black" stroke-width="0.21725002"/>
</g>
<g id="item_12">
<path d="M0,0 L13,1 L13,4 L0,4 z" fill="#7A7A7A" fill-opacity="0.5" fill-rule="nonzero" stroke="black" stroke-width="0.21725002"/>
</g>
<g id="item_13">
<path d="M0,0 L12,0 L12,5 L0,5 z" fill="#7A7A7A" fill-opacity="0.5" fill-rule="nonzero" stroke="black" stroke-width="0.21725002"/>
</g>
<g id="item_14">
<path d="M0,0 L4,2 L6,10 L4,11 L-4,11 L-6,10 L-4,2 z" fill="#7A7A7A" fill-opacity="0.5" fill-rule="nonzero" stroke="black" stroke-width="0.21725002"/>
</g>
<g id="item_15">
<path d="M0,0 L3,-2 L8,0 L8,8 L2,8 z" fill="#7A7A7A" fill-opacity="0.5" fill-rule="nonzero" stroke="black" stroke-width="0.21725002"/>
</g>
<g id="item_16">
<path d="M0,0 L2,1 L3,6 L2,7 L-2,7 L-3,6 L-2,1 z" fill="#7A7A7A" fill-opacity="0.5" fill-rule="nonzero" stroke="black" stroke-width="0.21725002"/>
</g>
</defs>
<use transform="translate(56.000023 0.079167366), rotate(-180)" xlink:href="#item_1">
<title>item, id: 1, transf: [r: -180.000°, t: (56.000, 0.079)]</title>
</use>
<use transform="translate(238.00102 46.015526), rotate(-180)" xlink:href="#item_1">
<title>item, id: 1, transf: [r: -180.000°, t: (238.001, 46.016)]</title>
</use>
<use transform="translate(76.03552 78.999886), rotate(0)" xlink:href="#item_1">
<title>item, id: 1, transf: [r: 0.000°, t: (76.036, 79.000)]</title>
</use>
<use transform="translate(11.902088 78.99942), rotate(0)" xlink:href="#item_1">
<title>item, id: 1, transf: [r: 0.000°, t: (11.902, 78.999)]</title>
</use>
<use transform="translate(230.00316 5.0117464), rotate(-180)" xlink:href="#item_1">
<title>item, id: 1, transf: [r: -180.000°, t: (230.003, 5.012)]</title>
</use>
<use transform="translate(114.975914 44.024025), rotate(-180)" xlink:href="#item_1">
<title>item, id: 1, transf: [r: -180.000°, t: (114.976, 44.024)]</title>
</use>
<use transform="translate(58.972237 42.32496), rotate(-180)" xlink:href="#item_1">
<title>item, id: 1, transf: [r: -180.000°, t: (58.972, 42.325)]</title>
</use>
<use transform="translate(0.031585693 42.313263), rotate(0)" xlink:href="#item_1">
<title>item, id: 1, transf: [r: 0.000°, t: (0.032, 42.313)]</title>
</use>
<use transform="translate(123.01474 41.02363), rotate(-180)" xlink:href="#item_0">
<title>item, id: 0, transf: [r: -180.000°, t: (123.015, 41.024)]</title>
</use>
<use transform="translate(173.97827 55.467903), rotate(-180)" xlink:href="#item_0">
<title>item, id: 0, transf: [r: -180.000°, t: (173.978, 55.468)]</title>
</use>
<use transform="translate(68.02014 15.016178), rotate(0)" xlink:href="#item_0">
<title>item, id: 0, transf: [r: 0.000°, t: (68.020, 15.016)]</title>
</use>
<use transform="translate(119.97834 29.467821), rotate(0)" xlink:href="#item_0">
<title>item, id: 0, transf: [r: 0.000°, t: (119.978, 29.468)]</title>
</use>
<use transform="translate(115.00039 13.004375), rotate(-180)" xlink:href="#item_0">
<title>item, id: 0, transf: [r: -180.000°, t: (115.000, 13.004)]</title>
</use>
<use transform="translate(179.00146 28.014418), rotate(0)" xlink:href="#item_0">
<title>item, id: 0, transf: [r: 0.000°, t: (179.001, 28.014)]</title>
</use>
<use transform="translate(174.00244 18.010662), rotate(-180)" xlink:href="#item_0">
<title>item, id: 0, transf: [r: -180.000°, t: (174.002, 18.011)]</title>
</use>
<use transform="translate(132.12216 65.99942), rotate(0)" xlink:href="#item_0">
<title>item, id: 0, transf: [r: 0.000°, t: (132.122, 65.999)]</title>
</use>
<use transform="translate(168.29044 5.004153), rotate(-180)" xlink:href="#item_2">
<title>item, id: 2, transf: [r: -180.000°, t: (168.290, 5.004)]</title>
</use>
<use transform="translate(185.99263 41.015144), rotate(0)" xlink:href="#item_3">
<title>item, id: 3, transf: [r: 0.000°, t: (185.993, 41.015)]</title>
</use>
<use transform="translate(237.85829 78.99997), rotate(-180)" xlink:href="#item_4">
<title>item, id: 4, transf: [r: -180.000°, t: (237.858, 79.000)]</title>
</use>
<use transform="translate(210.69672 5.009449), rotate(-180)" xlink:href="#item_5">
<title>item, id: 5, transf: [r: -180.000°, t: (210.697, 5.009)]</title>
</use>
<use transform="translate(230.98608 62.99395), rotate(0)" xlink:href="#item_14">
<title>item, id: 14, transf: [r: 0.000°, t: (230.986, 62.994)]</title>
</use>
<use transform="translate(54.378895 25.761452), rotate(-180)" xlink:href="#item_14">
<title>item, id: 14, transf: [r: -180.000°, t: (54.379, 25.761)]</title>
</use>
<use transform="translate(211.4941 62.98423), rotate(0)" xlink:href="#item_14">
<title>item, id: 14, transf: [r: 0.000°, t: (211.494, 62.984)]</title>
</use>
<use transform="translate(140.43973 28.403225), rotate(-180)" xlink:href="#item_14">
<title>item, id: 14, transf: [r: -180.000°, t: (140.440, 28.403)]</title>
</use>
<use transform="translate(166.64806 19.837044), rotate(0)" xlink:href="#item_14">
<title>item, id: 14, transf: [r: 0.000°, t: (166.648, 19.837)]</title>
</use>
<use transform="translate(221.08336 73.340675), rotate(-180)" xlink:href="#item_14">
<title>item, id: 14, transf: [r: -180.000°, t: (221.083, 73.341)]</title>
</use>
<use transform="translate(63.771236 17.023457), rotate(0)" xlink:href="#item_14">
<title>item, id: 14, transf: [r: 0.000°, t: (63.771, 17.023)]</title>
</use>
<use transform="translate(6.0553093 72.40151), rotate(-180)" xlink:href="#item_14">
<title>item, id: 14, transf: [r: -180.000°, t: (6.055, 72.402)]</title>
</use>
<use transform="translate(224.88222 5.008377), rotate(-180)" xlink:href="#item_9">
<title>item, id: 9, transf: [r: -180.000°, t: (224.882, 5.008)]</title>
</use>
<use transform="translate(131.2869 56.750217), rotate(0)" xlink:href="#item_7">
<title>item, id: 7, transf: [r: 0.000°, t: (131.287, 56.750)]</title>
</use>
<use transform="translate(148.28825 61.283), rotate(-180)" xlink:href="#item_7">
<title>item, id: 7, transf: [r: -180.000°, t: (148.288, 61.283)]</title>
</use>
<use transform="translate(147.44067 18.00183), rotate(0)" xlink:href="#item_7">
<title>item, id: 7, transf: [r: 0.000°, t: (147.441, 18.002)]</title>
</use>
<use transform="translate(148.3398 57.59636), rotate(0)" xlink:href="#item_7">
<title>item, id: 7, transf: [r: 0.000°, t: (148.340, 57.596)]</title>
</use>
<use transform="translate(175.66335 60.903976), rotate(0)" xlink:href="#item_7">
<title>item, id: 7, transf: [r: 0.000°, t: (175.663, 60.904)]</title>
</use>
<use transform="translate(130.4076 60.562016), rotate(-180)" xlink:href="#item_7">
<title>item, id: 7, transf: [r: -180.000°, t: (130.408, 60.562)]</title>
</use>
<use transform="translate(191.1228 66.45125), rotate(0)" xlink:href="#item_7">
<title>item, id: 7, transf: [r: 0.000°, t: (191.123, 66.451)]</title>
</use>
<use transform="translate(146.12785 23.704136), rotate(0)" xlink:href="#item_7">
<title>item, id: 7, transf: [r: 0.000°, t: (146.128, 23.704)]</title>
</use>
<use transform="translate(175.66315 61.413643), rotate(-180)" xlink:href="#item_11">
<title>item, id: 11, transf: [r: -180.000°, t: (175.663, 61.414)]</title>
</use>
<use transform="translate(211.04642 23.190372), rotate(0)" xlink:href="#item_6">
<title>item, id: 6, transf: [r: 0.000°, t: (211.046, 23.190)]</title>
</use>
<use transform="translate(77.25026 14.025803), rotate(-180)" xlink:href="#item_6">
<title>item, id: 6, transf: [r: -180.000°, t: (77.250, 14.026)]</title>
</use>
<use transform="translate(101.856804 43.96004), rotate(-180)" xlink:href="#item_6">
<title>item, id: 6, transf: [r: -180.000°, t: (101.857, 43.960)]</title>
</use>
<use transform="translate(84.13042 41.958866), rotate(-180)" xlink:href="#item_6">
<title>item, id: 6, transf: [r: -180.000°, t: (84.130, 41.959)]</title>
</use>
<use transform="translate(80.8538 44.023357), rotate(-180)" xlink:href="#item_6">
<title>item, id: 6, transf: [r: -180.000°, t: (80.854, 44.023)]</title>
</use>
<use transform="translate(238.00261 29.190458), rotate(-180)" xlink:href="#item_6">
<title>item, id: 6, transf: [r: -180.000°, t: (238.003, 29.190)]</title>
</use>
<use transform="translate(214.93301 25.190441), rotate(0)" xlink:href="#item_6">
<title>item, id: 6, transf: [r: 0.000°, t: (214.933, 25.190)]</title>
</use>
<use transform="translate(210.39934 21.190092), rotate(0)" xlink:href="#item_6">
<title>item, id: 6, transf: [r: 0.000°, t: (210.399, 21.190)]</title>
</use>
<use transform="translate(48.451305 20.80468), rotate(-180)" xlink:href="#item_8">
<title>item, id: 8, transf: [r: -180.000°, t: (48.451, 20.805)]</title>
</use>
<use transform="translate(163.54953 61.582176), rotate(0)" xlink:href="#item_13">
<title>item, id: 13, transf: [r: 0.000°, t: (163.550, 61.582)]</title>
</use>
<use transform="translate(169.99292 42.46789), rotate(0)" xlink:href="#item_13">
<title>item, id: 13, transf: [r: 0.000°, t: (169.993, 42.468)]</title>
</use>
<use transform="translate(238.00331 11.891125), rotate(-180)" xlink:href="#item_15">
<title>item, id: 15, transf: [r: -180.000°, t: (238.003, 11.891)]</title>
</use>
<use transform="translate(170.94151 22.990538), rotate(0)" xlink:href="#item_15">
<title>item, id: 15, transf: [r: 0.000°, t: (170.942, 22.991)]</title>
</use>
<use transform="translate(173.98427 49.550232), rotate(0)" xlink:href="#item_15">
<title>item, id: 15, transf: [r: 0.000°, t: (173.984, 49.550)]</title>
</use>
<use transform="translate(67.916664 66.80055), rotate(0)" xlink:href="#item_15">
<title>item, id: 15, transf: [r: 0.000°, t: (67.917, 66.801)]</title>
</use>
<use transform="translate(64.06355 39.32211), rotate(-180)" xlink:href="#item_15">
<title>item, id: 15, transf: [r: -180.000°, t: (64.064, 39.322)]</title>
</use>
<use transform="translate(136.02097 24.748512), rotate(-180)" xlink:href="#item_15">
<title>item, id: 15, transf: [r: -180.000°, t: (136.021, 24.749)]</title>
</use>
<use transform="translate(230.00359 15.188265), rotate(0)" xlink:href="#item_15">
<title>item, id: 15, transf: [r: 0.000°, t: (230.004, 15.188)]</title>
</use>
<use transform="translate(0.0005350113 19.09766), rotate(0)" xlink:href="#item_15">
<title>item, id: 15, transf: [r: 0.000°, t: (0.001, 19.098)]</title>
</use>
<use transform="translate(8.001057 21.871769), rotate(0)" xlink:href="#item_10">
<title>item, id: 10, transf: [r: 0.000°, t: (8.001, 21.872)]</title>
</use>
<use transform="translate(237.88316 4.0000067), rotate(-180)" xlink:href="#item_12">
<title>item, id: 12, transf: [r: -180.000°, t: (237.883, 4.000)]</title>
</use>
<use transform="translate(211.04562 27.522501), rotate(-180)" xlink:href="#item_12">
<title>item, id: 12, transf: [r: -180.000°, t: (211.046, 27.523)]</title>
</use>
<use transform="translate(8.6199 71.99777), rotate(0)" xlink:href="#item_16">
<title>item, id: 16, transf: [r: 0.000°, t: (8.620, 71.998)]</title>
</use>
<use transform="translate(3.0000758 78.87776), rotate(-180)" xlink:href="#item_16">
<title>item, id: 16, transf: [r: -180.000°, t: (3.000, 78.878)]</title>
</use>
<use transform="translate(29.8614 24.448095), rotate(-180)" xlink:href="#item_16">
<title>item, id: 16, transf: [r: -180.000°, t: (29.861, 24.448)]</title>
</use>
<use transform="translate(25.00248 18.315033), rotate(0)" xlink:href="#item_16">
<title>item, id: 16, transf: [r: 0.000°, t: (25.002, 18.315)]</title>
</use>
</g>
<g id="quality_zones"/>
<g id="optionals">
<g id="overlap_lines" transform="translate(0 0), rotate(0)"/>
</g>
<text font-family="monospace" font-size="1.975" font-weight="500" x="0" y="-0.9875">
height: 79.000 | width: 238.004 | usage: 91.513% | final_bench_99
</text>
</svg>