<svg viewBox="-11.900327 -3.950001 261.80713 86.90001" xmlns="http://www.w3.org/2000/svg" xmlns:xlink="http://www.w3.org/1999/xlink">
<g id="bin_0">
<path d="M0,0 L238.00648,0 L238.00648,79 L0,79 z" fill="#D3D3D3" stroke="black" stroke-width="0.43450004"/>
<title>bin, id: 0, bbox: [x_min: 0.000, y_min: 0.000, x_max: 238.006, y_max: 79.000]</title>
</g>
<g id="items">
<defs>
<g id="item_0">
<path d="M0,0 L12,-1 L14,-3.0000005 L24,0 L33,1 L59,2 L59,13 L4,13 L4,8 L2,5 L0,5 z" fill="#7A7A7A" fill-opacity="0.5" fill-rule="nonzero" stroke="black" stroke-width="0.21725002"/>
</g>
<g id="item_1">
<path d="M0,0 L0,-14 L27,-17 L37,-20 L41,-22 L47,-19 L56,-16 L56,0 z" fill="#7A7A7A" fill-opacity="0.5" fill-rule="nonzero" stroke="black" stroke-width="0.21725002"/>
</g>
<g id="item_2">
<path d="M0,0 L57,0 L57,5 L0,5 z" fill="#7A7A7A" fill-opacity="0.5" fill-rule="nonzero" stroke="black" stroke-width="0.21725002"/>
</g>
<g id="item_3">
<path d="M0,0 L52,0 L52,5 L0,5 z" fill="#7A7A7A" fill-opacity="0.5" fill-rule="nonzero" stroke="black" stroke-width="0.21725002"/>
</g>
<g id="item_4">
<path d="M0,0 L44,0 L44,5 L0,5 z" fill="#7A7A7A" fill-opacity="0.5" fill-rule="nonzero" stroke="black" stroke-width="0.21725002"/>
</g>
<g id="item_5">
<path d="M0,0 L42,0 L42,5 L0,5 z" fill="#7A7A7A" fill-opacity="0.5" fill-rule="nonzero" stroke="black" stroke-width="0.21725002"/>
</g>
<g id="item_6">
<path d="M0,0 L21,0 L21,2 L0,2 z" fill="#7A7A7A" fill-opacity="0.5" fill-rule="nonzero" stroke="black" stroke-width="0.21725002"/>
</g>
<g id="item_7">
<path d="M0,0 L15,4 L13,7 L0,6 z" fill="#7A7A7A" fill-opacity="0.5" fill-rule="nonzero" stroke="black" stroke-width="0.21725002"/>
</g>
<g id="item_8">
<path d="M0,0 L15,1 L15,4 L0,4 z" fill="#7A7A7A" fill-opacity="0.5" fill-rule="nonzero" stroke="black" stroke-width="0.21725002"/>
</g>
<g id="item_9">
<path d="M0,0 L14,0 L14,5 L0,5 z" fill="#7A7A7A" fill-opacity="0.5" fill-rule="nonzero" stroke="black" stroke-width="0.21725002"/>
</g>
<g id="item_10">
<path d="M0,0 L14,1 L14,4 L0,4 z" fill="#7A7A7A" fill-opacity="0.5" fill-rule="nonzero" stroke="black" stroke-width="0.21725002"/>
</g>
<g id="item_11">
<path d="M0,0 L13,0 L13,5 L0,5 z" fill="#7A7A7A" fill-opacity="0.5" fill-rule="nonzero" stroke="black" stroke-width="0.21725002"/>
</g>
<g id="item_12">
<path d="M0,0 L13,1 L13,4 L0,4 z" fill="#7A7A7A" fill-opacity="0.5" fill-rule="nonzero" stroke="black" stroke-width="0.21725002"/>
</g>
<g id="item_13">
<path d="M0,0 L12,0 L12,5 L0,5 z" fill="#7A7A7A" fill-opacity="0.5" fill-rule="nonzero" stroke="black" stroke-width="0.21725002"/>
</g>
<g id="item_14">
<path d="M0,0 L4,2 L6,10 L4,11 L-4,11 L-6,10 L-4,2 z" fill="#7A7A7A" fill-opacity="0.5" fill-rule="nonzero" stroke="black" stroke-width="0.21725002"/>
</g>
<g id="item_15">
<path d="M0,0 L3,-2 L8,0 L8,8 L2,8 z" fill="#7A7A7A" fill-opacity="0.5" fill-rule="nonzero" stroke="black" stroke-width="0.21725002"/>
</g>
<g id="item_16">
<path d="M0,0 L2,1 L3,6 L2,7 L-2,7 L-3,6 L-2,1 z" fill="#7A7A7A" fill-opacity="0.5" fill-rule="nonzero" stroke="black" stroke-width="0.21725002"/>
</g>
</defs>
<use transform="translate(122.96883 36.802933), rotate(0)" xlink:href="#item_1">
<title>item, id: 1, transf: [r: 0.000°, t: (122.969, 36.803)]</title>
</use>
<use transform="translate(171.03844 0.0035514832), rotate(-180)" xlink:href="#item_1">
<title>item, id: 1, transf: [r: -180.000°, t: (171.038, 0.004)]</title>
</use>
<use transform="translate(123.00154 78.99237), rotate(0)" xlink:href="#item_1">
<title>item, id: 1, transf: [r: 0.000°, t: (123.002, 78.992)]</title>
</use>
<use transform="translate(7.4594803 78.9864), rotate(0)" xlink:href="#item_1">
<title>item, id: 1, transf: [r: 0.000°, t: (7.459, 78.986)]</title>
</use>
<use transform="translate(115.03636 0.0005941391), rotate(-180)" xlink:href="#item_1">
<title>item, id: 1, transf: [r: -180.000°, t: (115.036, 0.001)]</title>
</use>
<use transform="translate(66.96748 36.80932), rotate(0)" xlink:href="#item_1">
<title>item, id: 1, transf: [r: 0.000°, t: (66.967, 36.809)]</title>
</use>
<use transform="translate(238.00618 36.34993), rotate(-180)" xlink:href="#item_1">
<title>item, id: 1, transf: [r: -180.000°, t: (238.006, 36.350)]</title>
</use>
<use transform="translate(174.00362 41.84368), rotate(-180)" xlink:href="#item_1">
<title>item, id: 1, transf: [r: -180.000°, t: (174.004, 41.844)]</title>
</use>
<use transform="translate(230.18385 13.000029), rotate(-180)" xlink:href="#item_0">
<title>item, id: 0, transf: [r: -180.000°, t: (230.184, 13.000)]</title>
</use>
<use transform="translate(118.00314 54.81675), rotate(-180)" xlink:href="#item_0">
<title>item, id: 0, transf: [r: -180.000°, t: (118.003, 54.817)]</title>
</use>
<use transform="translate(179.00537 60.995136), rotate(0)" xlink:href="#item_0">
<title>item, id: 0, transf: [r: 0.000°, t: (179.005, 60.995)]</title>
</use>
<use transform="translate(59.0022 54.2074), rotate(-180)" xlink:href="#item_0">
<title>item, id: 0, transf: [r: -180.000°, t: (59.002, 54.207)]</title>
</use>
<use transform="translate(59.03591 13.001057), rotate(-180)" xlink:href="#item_0">
<title>item, id: 0, transf: [r: -180.000°, t: (59.036, 13.001)]</title>
</use>
<use transform="translate(63.99926 60.998066), rotate(0)" xlink:href="#item_0">
<title>item, id: 0, transf: [r: 0.000°, t: (63.999, 60.998)]</title>
</use>
<use transform="translate(0.004556656 26.20156), rotate(0)" xlink:href="#item_0">
<title>item, id: 0, transf: [r: 0.000°, t: (0.005, 26.202)]</title>
</use>
<use transform="translate(178.96922 23.349377), rotate(0)" xlink:href="#item_0">
<title>item, id: 0, transf: [r: 0.000°, t: (178.969, 23.349)]</title>
</use>
<use transform="translate(121.97421 78.99998), rotate(-180)" xlink:href="#item_2">
<title>item, id: 2, transf: [r: -180.000°, t: (121.974, 79.000)]</title>
</use>
<use transform="translate(177.98997 41.83244), rotate(-180)" xlink:href="#item_3">
<title>item, id: 3, transf: [r: -180.000°, t: (177.990, 41.832)]</title>
</use>
<use transform="translate(111.44163 41.81431), rotate(-180)" xlink:href="#item_4">
<title>item, id: 4, transf: [r: -180.000°, t: (111.442, 41.814)]</title>
</use>
<use transform="translate(221.01053 78.999565), rotate(-180)" xlink:href="#item_5">
<title>item, id: 5, transf: [r: -180.000°, t: (221.011, 79.000)]</title>
</use>
<use transform="translate(23.797428 24.898737), rotate(-180)" xlink:href="#item_14">
<title>item, id: 14, transf: [r: -180.000°, t: (23.797, 24.899)]</title>
</use>
<use transform="translate(51.824326 25.213142), rotate(-180)" xlink:href="#item_14">
<title>item, id: 14, transf: [r: -180.000°, t: (51.824, 25.213)]</title>
</use>
<use transform="translate(223.629 13.595264), rotate(0)" xlink:href="#item_14">
<title>item, id: 14, transf: [r: 0.000°, t: (223.629, 13.595)]</title>
</use>
<use transform="translate(6.0015583 14.359713), rotate(0)" xlink:href="#item_14">
<title>item, id: 14, transf: [r: 0.000°, t: (6.002, 14.360)]</title>
</use>
<use transform="translate(33.469994 14.236187), rotate(0)" xlink:href="#item_14">
<title>item, id: 14, transf: [r: 0.000°, t: (33.470, 14.236)]</title>
</use>
<use transform="translate(60.967438 16.647564), rotate(0)" xlink:href="#item_14">
<title>item, id: 14, transf: [r: 0.000°, t: (60.967, 16.648)]</title>
</use>
<use transform="translate(11.624817 63.81284), rotate(-180)" xlink:href="#item_14">
<title>item, id: 14, transf: [r: -180.000°, t: (11.625, 63.813)]</title>
</use>
<use transform="translate(182.95898 22.623735), rotate(-180)" xlink:href="#item_14">
<title>item, id: 14, transf: [r: -180.000°, t: (182.959, 22.624)]</title>
</use>
<use transform="translate(63.459167 53.52948), rotate(0)" xlink:href="#item_9">
<title>item, id: 9, transf: [r: 0.000°, t: (63.459, 53.529)]</title>
</use>
<use transform="translate(202.4021 12.580528), rotate(0)" xlink:href="#item_7">
<title>item, id: 7, transf: [r: 0.000°, t: (202.402, 12.581)]</title>
</use>
<use transform="translate(202.40208 22.861519), rotate(-180)" xlink:href="#item_7">
<title>item, id: 7, transf: [r: -180.000°, t: (202.402, 22.862)]</title>
</use>
<use transform="translate(230.1944 59.664352), rotate(-180)" xlink:href="#item_7">
<title>item, id: 7, transf: [r: -180.000°, t: (230.194, 59.664)]</title>
</use>
<use transform="translate(174.00473 50.6872), rotate(0)" xlink:href="#item_7">
<title>item, id: 7, transf: [r: 0.000°, t: (174.005, 50.687)]</title>
</use>
<use transform="translate(94.31513 55.38818), rotate(0)" xlink:href="#item_7">
<title>item, id: 7, transf: [r: 0.000°, t: (94.315, 55.388)]</title>
</use>
<use transform="translate(94.30726 60.909138), rotate(-180)" xlink:href="#item_7">
<title>item, id: 7, transf: [r: -180.000°, t: (94.307, 60.909)]</title>
</use>
<use transform="translate(214.66534 55.59102), rotate(0)" xlink:href="#item_7">
<title>item, id: 7, transf: [r: 0.000°, t: (214.665, 55.591)]</title>
</use>
<use transform="translate(109.31601 55.96408), rotate(0)" xlink:href="#item_7">
<title>item, id: 7, transf: [r: 0.000°, t: (109.316, 55.964)]</title>
</use>
<use transform="translate(225.00087 73.999985), rotate(0)" xlink:href="#item_11">
<title>item, id: 11, transf: [r: 0.000°, t: (225.001, 74.000)]</title>
</use>
<use transform="translate(0.000623703 39.20168), rotate(0)" xlink:href="#item_6">
<title>item, id: 6, transf: [r: 0.000°, t: (0.001, 39.202)]</title>
</use>
<use transform="translate(37.297756 61.12883), rotate(-180)" xlink:href="#item_6">
<title>item, id: 6, transf: [r: -180.000°, t: (37.298, 61.129)]</title>
</use>
<use transform="translate(63.001247 41.202972), rotate(-180)" xlink:href="#item_6">
<title>item, id: 6, transf: [r: -180.000°, t: (63.001, 41.203)]</title>
</use>
<use transform="translate(42.000687 41.202232), rotate(-180)" xlink:href="#item_6">
<title>item, id: 6, transf: [r: -180.000°, t: (42.001, 41.202)]</title>
</use>
<use transform="translate(190.82298 59.903072), rotate(-180)" xlink:href="#item_6">
<title>item, id: 6, transf: [r: -180.000°, t: (190.823, 59.903)]</title>
</use>
<use transform="translate(21.000025 13.80891), rotate(-180)" xlink:href="#item_6">
<title>item, id: 6, transf: [r: -180.000°, t: (21.000, 13.809)]</title>
</use>
<use transform="translate(54.96154 27.237968), rotate(-180)" xlink:href="#item_6">
<title>item, id: 6, transf: [r: -180.000°, t: (54.962, 27.238)]</title>
</use>
<use transform="translate(17.30039 57.127567), rotate(0)" xlink:href="#item_6">
<title>item, id: 6, transf: [r: 0.000°, t: (17.300, 57.128)]</title>
</use>
<use transform="translate(202.75478 19.052902), rotate(0)" xlink:href="#item_8">
<title>item, id: 8, transf: [r: 0.000°, t: (202.755, 19.053)]</title>
</use>
<use transform="translate(113.98878 36.81655), rotate(0)" xlink:href="#item_13">
<title>item, id: 13, transf: [r: 0.000°, t: (113.989, 36.817)]</title>
</use>
<use transform="translate(202.63586 55.88417), rotate(0)" xlink:href="#item_13">
<title>item, id: 13, transf: [r: 0.000°, t: (202.636, 55.884)]</title>
</use>
<use transform="translate(229.9993 6.791643), rotate(0)" xlink:href="#item_15">
<title>item, id: 15, transf: [r: 0.000°, t: (229.999, 6.792)]</title>
</use>
<use transform="translate(230.0057 52.905846), rotate(0)" xlink:href="#item_15">
<title>item, id: 15, transf: [r: 0.000°, t: (230.006, 52.906)]</title>
</use>
<use transform="translate(19.54451 21.957937), rotate(-180)" xlink:href="#item_15">
<title>item, id: 15, transf: [r: -180.000°, t: (19.545, 21.958)]</title>
</use>
<use transform="translate(228.75691 17.062725), rotate(0)" xlink:href="#item_15">
<title>item, id: 15, transf: [r: 0.000°, t: (228.757, 17.063)]</title>
</use>
<use transform="translate(67.00474 37.600975), rotate(-180)" xlink:href="#item_15">
<title>item, id: 15, transf: [r: -180.000°, t: (67.005, 37.601)]</title>
</use>
<use transform="translate(8.00036 63.3159), rotate(-180)" xlink:href="#item_15">
<title>item, id: 15, transf: [r: -180.000°, t: (8.000, 63.316)]</title>
</use>
<use transform="translate(182.00482 49.833176), rotate(-180)" xlink:href="#item_15">
<title>item, id: 15, transf: [r: -180.000°, t: (182.005, 49.833)]</title>
</use>
<use transform="translate(37.577164 16.664785), rotate(0)" xlink:href="#item_15">
<title>item, id: 15, transf: [r: 0.000°, t: (37.577, 16.665)]</title>
</use>
<use transform="translate(17.659613 52.88761), rotate(0)" xlink:href="#item_10">
<title>item, id: 10, transf: [r: 0.000°, t: (17.660, 52.888)]</title>
</use>
<use transform="translate(202.04413 16.833975), rotate(-180)" xlink:href="#item_12">
<title>item, id: 12, transf: [r: -180.000°, t: (202.044, 16.834)]</title>
</use>
<use transform="translate(63.45348 58.920403), rotate(-180)" xlink:href="#item_12">
<title>item, id: 12, transf: [r: -180.000°, t: (63.453, 58.920)]</title>
</use>
<use transform="translate(3.360618 64.757324), rotate(0)" xlink:href="#item_16">
<title>item, id: 16, transf: [r: 0.000°, t: (3.361, 64.757)]</title>
</use>
<use transform="translate(4.3729763 78.93803), rotate(-180)" xlink:href="#item_16">
<title>item, id: 16, transf: [r: -180.000°, t: (4.373, 78.938)]</title>
</use>
<use transform="translate(229.18402 7.001088), rotate(-180)" xlink:href="#item_16">
<title>item, id: 16, transf: [r: -180.000°, t: (229.184, 7.001)]</title>
</use>
<use transform="translate(174.03944 19.157162), rotate(-180)" xlink:href="#item_16">
<title>item, id: 16, transf: [r: -180.000°, t: (174.039, 19.157)]</title>
</use>
</g>
<g id="quality_zones"/>
<g id="optionals">
<g id="overlap_lines" transform="translate(0 0), rotate(0)"/>
</g>
<text font-family="monospace" font-size="1.975" font-weight="500" x="0" y="-0.9875">
height: 79.000 | width: 238.006 | usage: 91.512% | final_bench_22
</text>
</svg>