<svg viewBox="-11.858762 -3.950001 260.8927 86.90001" xmlns="http://www.w3.org/2000/svg" xmlns:xlink="http://www.w3.org/1999/xlink">
<g id="bin_0">
<path d="M0,0 L237.17517,0 L237.17517,79 L0,79 z" fill="#D3D3D3" stroke="black" stroke-width="0.43450004"/>
<title>bin, id: 0, bbox: [x_min: 0.000, y_min: 0.000, x_max: 237.175, y_max: 79.000]</title>
</g>
<g id="items">
<defs>
<g id="item_0">
<path d="M0,0 L12,-1 L14,-3.0000005 L24,0 L33,1 L59,2 L59,13 L4,13 L4,8 L2,5 L0,5 z" fill="#7A7A7A" fill-opacity="0.5" fill-rule="nonzero" stroke="black" stroke-width="0.21725002"/>
</g>
<g id="item_1">
<path d="M0,0 L0,-14 L27,-17 L37,-20 L41,-22 L47,-19 L56,-16 L56,0 z" fill="#7A7A7A" fill-opacity="0.5" fill-rule="nonzero" stroke="black" stroke-width="0.21725002"/>
</g>
<g id="item_2">
<path d="M0,0 L57,0 L57,5 L0,5 z" fill="#7A7A7A" fill-opacity="0.5" fill-rule="nonzero" stroke="black" stroke-width="0.21725002"/>
</g>
<g id="item_3">
<path d="M0,0 L52,0 L52,5 L0,5 z" fill="#7A7A7A" fill-opacity="0.5" fill-rule="nonzero" stroke="black" stroke-width="0.21725002"/>
</g>
<g id="item_4">
<path d="M0,0 L44,0 L44,5 L0,5 z" fill="#7A7A7A" fill-opacity="0.5" fill-rule="nonzero" stroke="black" stroke-width="0.21725002"/>
</g>
<g id="item_5">
<path d="M0,0 L42,0 L42,5 L0,5 z" fill="#7A7A7A" fill-opacity="0.5" fill-rule="nonzero" stroke="black" stroke-width="0.21725002"/>
</g>
<g id="item_6">
<path d="M0,0 L21,0 L21,2 L0,2 z" fill="#7A7A7A" fill-opacity="0.5" fill-rule="nonzero" stroke="black" stroke-width="0.21725002"/>
</g>
<g id="item_7">
<path d="M0,0 L15,4 L13,7 L0,6 z" fill="#7A7A7A" fill-opacity="0.5" fill-rule="nonzero" stroke="black" stroke-width="0.21725002"/>
</g>
<g id="item_8">
<path d="M0,0 L15,1 L15,4 L0,4 z" fill="#7A7A7A" fill-opacity="0.5" fill-rule="nonzero" stroke="black" stroke-width="0.21725002"/>
</g>
<g id="item_9">
<path d="M0,0 L14,0 L14,5 L0,5 z" fill="#7A7A7A" fill-opacity="0.5" fill-rule="nonzero" stroke="black" stroke-width="0.21725002"/>
</g>
<g id="item_10">
<path d="M0,0 L14,1 L14,4 L0,4 z" fill="#7A7A7A" fill-opacity="0.5" fill-rule="nonzero" stroke="black" stroke-width="0.21725002"/>
</g>
<g id="item_11">
<path d="M0,0 L13,0 L13,5 L0,5 z" fill="#7A7A7A" fill-opacity="0.5" fill-rule="nonzero" stroke="black" stroke-width="0.21725002"/>
</g>
<g id="item_12">
<path d="M0,0 L13,1 L13,4 L0,4 z" fill="#7A7A7A" fill-opacity="0.5" fill-rule="nonzero" stroke="black" stroke-width="0.21725002"/>
</g>
<g id="item_13">
<path d="M0,0 L12,0 L12,5 L0,5 z" fill="#7A7A7A" fill-opacity="0.5" fill-rule="nonzero" stroke="black" stroke-width="0.21725002"/>
</g>
<g id="item_14">
<path d="M0,0 L4,2 L6,10 L4,11 L-4,11 L-6,10 L-4,2 z" fill="#7A7A7A" fill-opacity="0.5" fill-rule="nonzero" stroke="black" stroke-width="0.21725002"/>
</g>
<g id="item_15">
<path d="M0,0 L3,-2 L8,0 L8,8 L2,8 z" fill="#7A7A7A" fill-opacity="0.5" fill-rule="nonzero" stroke="black" stroke-width="0.21725002"/>
</g>
<g id="item_16">
<path d="M0,0 L2,1 L3,6 L2,7 L-2,7 L-3,6 L-2,1 z" fill="#7A7A7A" fill-opacity="0.5" fill-rule="nonzero" stroke="black" stroke-width="0.21725002"/>
</g>
</defs>
<use transform="translate(115.00074 5.0134525), rotate(-180)" xlink:href="#item_1">
<title>item, id: 1, transf: [r: -180.000°, t: (115.001, 5.013)]</title>
</use>
<use transform="translate(0.002002716 41.865902), rotate(0)" xlink:href="#item_1">
<title>item, id: 1, transf: [r: 0.000°, t: (0.002, 41.866)]</title>
</use>
<use transform="translate(0.13006783 78.996216), rotate(0)" xlink:href="#item_1">
<title>item, id: 1, transf: [r: 0.000°, t: (0.130, 78.996)]</title>
</use>
<use transform="translate(56.002796 43.02817), rotate(0)" xlink:href="#item_1">
<title>item, id: 1, transf: [r: 0.000°, t: (56.003, 43.028)]</title>
</use>
<use transform="translate(117.15379 46.5738), rotate(0)" xlink:href="#item_1">
<title>item, id: 1, transf: [r: 0.000°, t: (117.154, 46.574)]</title>
</use>
<use transform="translate(56.133457 78.99658), rotate(0)" xlink:href="#item_1">
<title>item, id: 1, transf: [r: 0.000°, t: (56.133, 78.997)]</title>
</use>
<use transform="translate(173.17354 43.07343), rotate(0)" xlink:href="#item_1">
<title>item, id: 1, transf: [r: 0.000°, t: (173.174, 43.073)]</title>
</use>
<use transform="translate(230.00279 5.3117056), rotate(-180)" xlink:href="#item_1">
<title>item, id: 1, transf: [r: -180.000°, t: (230.003, 5.312)]</title>
</use>
<use transform="translate(59.000298 13.000324), rotate(-180)" xlink:href="#item_0">
<title>item, id: 0, transf: [r: -180.000°, t: (59.000, 13.000)]</title>
</use>
<use transform="translate(59.021744 54.866886), rotate(-180)" xlink:href="#item_0">
<title>item, id: 0, transf: [r: -180.000°, t: (59.022, 54.867)]</title>
</use>
<use transform="translate(234.81895 56.073715), rotate(-180)" xlink:href="#item_0">
<title>item, id: 0, transf: [r: -180.000°, t: (234.819, 56.074)]</title>
</use>
<use transform="translate(174.00136 18.001678), rotate(-180)" xlink:href="#item_0">
<title>item, id: 0, transf: [r: -180.000°, t: (174.001, 18.002)]</title>
</use>
<use transform="translate(177.85733 59.574425), rotate(-180)" xlink:href="#item_0">
<title>item, id: 0, transf: [r: -180.000°, t: (177.857, 59.574)]</title>
</use>
<use transform="translate(171.13576 75.66388), rotate(-180)" xlink:href="#item_0">
<title>item, id: 0, transf: [r: -180.000°, t: (171.136, 75.664)]</title>
</use>
<use transform="translate(118.8544 56.02913), rotate(-180)" xlink:href="#item_0">
<title>item, id: 0, transf: [r: -180.000°, t: (118.854, 56.029)]</title>
</use>
<use transform="translate(167.13635 60.99806), rotate(0)" xlink:href="#item_0">
<title>item, id: 0, transf: [r: 0.000°, t: (167.136, 60.998)]</title>
</use>
<use transform="translate(113.68203 5.000798), rotate(-180)" xlink:href="#item_2">
<title>item, id: 2, transf: [r: -180.000°, t: (113.682, 5.001)]</title>
</use>
<use transform="translate(113.68298 0.000084877014), rotate(0)" xlink:href="#item_3">
<title>item, id: 3, transf: [r: 0.000°, t: (113.683, 0.000)]</title>
</use>
<use transform="translate(182.99124 0.24025822), rotate(0)" xlink:href="#item_4">
<title>item, id: 4, transf: [r: 0.000°, t: (182.991, 0.240)]</title>
</use>
<use transform="translate(225.1455 78.99998), rotate(-180)" xlink:href="#item_5">
<title>item, id: 5, transf: [r: -180.000°, t: (225.145, 79.000)]</title>
</use>
<use transform="translate(231.162 67.91755), rotate(-180)" xlink:href="#item_14">
<title>item, id: 14, transf: [r: -180.000°, t: (231.162, 67.918)]</title>
</use>
<use transform="translate(6.00337 64.34312), rotate(-180)" xlink:href="#item_14">
<title>item, id: 14, transf: [r: -180.000°, t: (6.003, 64.343)]</title>
</use>
<use transform="translate(53.000732 24.83369), rotate(-180)" xlink:href="#item_14">
<title>item, id: 14, transf: [r: -180.000°, t: (53.001, 24.834)]</title>
</use>
<use transform="translate(21.067522 14.076736), rotate(0)" xlink:href="#item_14">
<title>item, id: 14, transf: [r: 0.000°, t: (21.068, 14.077)]</title>
</use>
<use transform="translate(128.82492 30.14755), rotate(-180)" xlink:href="#item_14">
<title>item, id: 14, transf: [r: -180.000°, t: (128.825, 30.148)]</title>
</use>
<use transform="translate(11.381659 24.810246), rotate(-180)" xlink:href="#item_14">
<title>item, id: 14, transf: [r: -180.000°, t: (11.382, 24.810)]</title>
</use>
<use transform="translate(231.14673 67.97925), rotate(0)" xlink:href="#item_14">
<title>item, id: 14, transf: [r: 0.000°, t: (231.147, 67.979)]</title>
</use>
<use transform="translate(138.69345 18.703672), rotate(0)" xlink:href="#item_14">
<title>item, id: 14, transf: [r: 0.000°, t: (138.693, 18.704)]</title>
</use>
<use transform="translate(60.38907 55.229057), rotate(0)" xlink:href="#item_9">
<title>item, id: 9, transf: [r: 0.000°, t: (60.389, 55.229)]</title>
</use>
<use transform="translate(59.981384 62.913395), rotate(-180)" xlink:href="#item_7">
<title>item, id: 7, transf: [r: -180.000°, t: (59.981, 62.913)]</title>
</use>
<use transform="translate(193.43784 61.25162), rotate(-180)" xlink:href="#item_7">
<title>item, id: 7, transf: [r: -180.000°, t: (193.438, 61.252)]</title>
</use>
<use transform="translate(32.595375 13.217804), rotate(0)" xlink:href="#item_7">
<title>item, id: 7, transf: [r: 0.000°, t: (32.595, 13.218)]</title>
</use>
<use transform="translate(116.54285 27.294975), rotate(-180)" xlink:href="#item_7">
<title>item, id: 7, transf: [r: -180.000°, t: (116.543, 27.295)]</title>
</use>
<use transform="translate(208.44728 55.810917), rotate(0)" xlink:href="#item_7">
<title>item, id: 7, transf: [r: 0.000°, t: (208.447, 55.811)]</title>
</use>
<use transform="translate(11.788401 55.254642), rotate(0)" xlink:href="#item_7">
<title>item, id: 7, transf: [r: 0.000°, t: (11.788, 55.255)]</title>
</use>
<use transform="translate(208.44531 61.835735), rotate(-180)" xlink:href="#item_7">
<title>item, id: 7, transf: [r: -180.000°, t: (208.445, 61.836)]</title>
</use>
<use transform="translate(31.813196 60.59017), rotate(-180)" xlink:href="#item_7">
<title>item, id: 7, transf: [r: -180.000°, t: (31.813, 60.590)]</title>
</use>
<use transform="translate(87.45567 60.23139), rotate(-180)" xlink:href="#item_11">
<title>item, id: 11, transf: [r: -180.000°, t: (87.456, 60.231)]</title>
</use>
<use transform="translate(147.91414 62.656277), rotate(-180)" xlink:href="#item_6">
<title>item, id: 6, transf: [r: -180.000°, t: (147.914, 62.656)]</title>
</use>
<use transform="translate(136.16635 18.81698), rotate(-180)" xlink:href="#item_6">
<title>item, id: 6, transf: [r: -180.000°, t: (136.166, 18.817)]</title>
</use>
<use transform="translate(133.8783 76.9977), rotate(-180)" xlink:href="#item_6">
<title>item, id: 6, transf: [r: -180.000°, t: (133.878, 76.998)]</title>
</use>
<use transform="translate(159.94466 76.986885), rotate(0)" xlink:href="#item_6">
<title>item, id: 6, transf: [r: 0.000°, t: (159.945, 76.987)]</title>
</use>
<use transform="translate(112.13447 76.998795), rotate(0)" xlink:href="#item_6">
<title>item, id: 6, transf: [r: 0.000°, t: (112.134, 76.999)]</title>
</use>
<use transform="translate(124.15933 58.655846), rotate(0)" xlink:href="#item_6">
<title>item, id: 6, transf: [r: 0.000°, t: (124.159, 58.656)]</title>
</use>
<use transform="translate(80.9883 62.23438), rotate(-180)" xlink:href="#item_6">
<title>item, id: 6, transf: [r: -180.000°, t: (80.988, 62.234)]</title>
</use>
<use transform="translate(0.004386902 11.809279), rotate(0)" xlink:href="#item_6">
<title>item, id: 6, transf: [r: 0.000°, t: (0.004, 11.809)]</title>
</use>
<use transform="translate(108.49422 56.892765), rotate(0)" xlink:href="#item_8">
<title>item, id: 8, transf: [r: 0.000°, t: (108.494, 56.893)]</title>
</use>
<use transform="translate(180.5107 5.000268), rotate(-180)" xlink:href="#item_13">
<title>item, id: 13, transf: [r: -180.000°, t: (180.511, 5.000)]</title>
</use>
<use transform="translate(237.17137 24.849113), rotate(-180)" xlink:href="#item_13">
<title>item, id: 13, transf: [r: -180.000°, t: (237.171, 24.849)]</title>
</use>
<use transform="translate(142.50233 19.626553), rotate(0)" xlink:href="#item_15">
<title>item, id: 15, transf: [r: 0.000°, t: (142.502, 19.627)]</title>
</use>
<use transform="translate(172.1375 26.937584), rotate(-180)" xlink:href="#item_15">
<title>item, id: 15, transf: [r: -180.000°, t: (172.137, 26.938)]</title>
</use>
<use transform="translate(124.55156 27.069452), rotate(-180)" xlink:href="#item_15">
<title>item, id: 15, transf: [r: -180.000°, t: (124.552, 27.069)]</title>
</use>
<use transform="translate(8.000014 25.31023), rotate(-180)" xlink:href="#item_15">
<title>item, id: 15, transf: [r: -180.000°, t: (8.000, 25.310)]</title>
</use>
<use transform="translate(229.17514 2.0003023), rotate(0)" xlink:href="#item_15">
<title>item, id: 15, transf: [r: 0.000°, t: (229.175, 2.000)]</title>
</use>
<use transform="translate(24.594986 14.179455), rotate(0)" xlink:href="#item_15">
<title>item, id: 15, transf: [r: 0.000°, t: (24.595, 14.179)]</title>
</use>
<use transform="translate(229.17442 36.07214), rotate(0)" xlink:href="#item_15">
<title>item, id: 15, transf: [r: 0.000°, t: (229.174, 36.072)]</title>
</use>
<use transform="translate(237.17458 32.849964), rotate(-180)" xlink:href="#item_15">
<title>item, id: 15, transf: [r: -180.000°, t: (237.175, 32.850)]</title>
</use>
<use transform="translate(134.04816 74.99657), rotate(0)" xlink:href="#item_10">
<title>item, id: 10, transf: [r: 0.000°, t: (134.048, 74.997)]</title>
</use>
<use transform="translate(151.1373 20.321705), rotate(0)" xlink:href="#item_12">
<title>item, id: 12, transf: [r: 0.000°, t: (151.137, 20.322)]</title>
</use>
<use transform="translate(56.033615 23.580288), rotate(0)" xlink:href="#item_12">
<title>item, id: 12, transf: [r: 0.000°, t: (56.034, 23.580)]</title>
</use>
<use transform="translate(234.15999 51.073017), rotate(-180)" xlink:href="#item_16">
<title>item, id: 16, transf: [r: -180.000°, t: (234.160, 51.073)]</title>
</use>
<use transform="translate(115.00587 34.29599), rotate(-180)" xlink:href="#item_16">
<title>item, id: 16, transf: [r: -180.000°, t: (115.006, 34.296)]</title>
</use>
<use transform="translate(234.17459 12.834226), rotate(0)" xlink:href="#item_16">
<title>item, id: 16, transf: [r: 0.000°, t: (234.175, 12.834)]</title>
</use>
<use transform="translate(174.99544 21.64873), rotate(0)" xlink:href="#item_16">
<title>item, id: 16, transf: [r: 0.000°, t: (174.995, 21.649)]</title>
</use>
</g>
<g id="quality_zones"/>
<g id="optionals">
<g id="overlap_lines" transform="translate(0 0), rotate(0)"/>
</g>
<text font-family="monospace" font-size="1.975" font-weight="500" x="0" y="-0.9875">
height: 79.000 | width: 237.175 | usage: 91.832% | final_bench_34
</text>
</svg>