<svg viewBox="-11.884391 -3.950001 261.45654 86.90001" xmlns="http://www.w3.org/2000/svg" xmlns:xlink="http://www.w3.org/1999/xlink">
<g id="bin_0">
<path d="M0,0 L237.68776,0 L237.68776,79 L0,79 z" fill="#D3D3D3" stroke="black" stroke-width="0.43450004"/>
<title>bin, id: 0, bbox: [x_min: 0.000, y_min: 0.000, x_max: 237.688, y_max: 79.000]</title>
</g>
<g id="items">
<defs>
<g id="item_0">
<path d="M0,0 L12,-1 L14,-3.0000005 L24,0 L33,1 L59,2 L59,13 L4,13 L4,8 L2,5 L0,5 z" fill="#7A7A7A" fill-opacity="0.5" fill-rule="nonzero" stroke="black" stroke-width="0.21725002"/>
</g>
<g id="item_1">
<path d="M0,0 L0,-14 L27,-17 L37,-20 L41,-22 L47,-19 L56,-16 L56,0 z" fill="#7A7A7A" fill-opacity="0.5" fill-rule="nonzero" stroke="black" stroke-width="0.21725002"/>
</g>
<g id="item_2">
<path d="M0,0 L57,0 L57,5 L0,5 z" fill="#7A7A7A" fill-opacity="0.5" fill-rule="nonzero" stroke="black" stroke-width="0.21725002"/>
</g>
<g id="item_3">
<path d="M0,0 L52,0 L52,5 L0,5 z" fill="#7A7A7A" fill-opacity="0.5" fill-rule="nonzero" stroke="black" stroke-width="0.21725002"/>
</g>
<g id="item_4">
<path d="M0,0 L44,0 L44,5 L0,5 z" fill="#7A7A7A" fill-opacity="0.5" fill-rule="nonzero" stroke="black" stroke-width="0.21725002"/>
</g>
<g id="item_5">
<path d="M0,0 L42,0 L42,5 L0,5 z" fill="#7A7A7A" fill-opacity="0.5" fill-rule="nonzero" stroke="black" stroke-width="0.21725002"/>
</g>
<g id="item_6">
<path d="M0,0 L21,0 L21,2 L0,2 z" fill="#7A7A7A" fill-opacity="0.5" fill-rule="nonzero" stroke="black" stroke-width="0.21725002"/>
</g>
<g id="item_7">
<path d="M0,0 L15,4 L13,7 L0,6 z" fill="#7A7A7A" fill-opacity="0.5" fill-rule="nonzero" stroke="black" stroke-width="0.21725002"/>
</g>
<g id="item_8">
<path d="M0,0 L15,1 L15,4 L0,4 z" fill="#7A7A7A" fill-opacity="0.5" fill-rule="nonzero" stroke="black" stroke-width="0.21725002"/>
</g>
<g id="item_9">
<path d="M0,0 L14,0 L14,5 L0,5 z" fill="#7A7A7A" fill-opacity="0.5" fill-rule="nonzero" stroke="black" stroke-width="0.21725002"/>
</g>
<g id="item_10">
<path d="M0,0 L14,1 L14,4 L0,4 z" fill="#7A7A7A" fill-opacity="0.5" fill-rule="nonzero" stroke="black" stroke-width="0.21725002"/>
</g>
<g id="item_11">
<path d="M0,0 L13,0 L13,5 L0,5 z" fill="#7A7A7A" fill-opacity="0.5" fill-rule="nonzero" stroke="black" stroke-width="0.21725002"/>
</g>
<g id="item_12">
<path d="M0,0 L13,1 L13,4 L0,4 z" fill="#7A7A7A" fill-opacity="0.5" fill-rule="nonzero" stroke="black" stroke-width="0.21725002"/>
</g>
<g id="item_13">
<path d="M0,0 L12,0 L12,5 L0,5 z" fill="#7A7A7A" fill-opacity="0.5" fill-rule="nonzero" stroke="black" stroke-width="0.21725002"/>
</g>
<g id="item_14">
<path d="M0,0 L4,2 L6,10 L4,11 L-4,11 L-6,10 L-4,2 z" fill="#7A7A7A" fill-opacity="0.5" fill-rule="nonzero" stroke="black" stroke-width="0.21725002"/>
</g>
<g id="item_15">
<path d="M0,0 L3,-2 L8,0 L8,8 L2,8 z" fill="#7A7A7A" fill-opacity="0.5" fill-rule="nonzero" stroke="black" stroke-width="0.21725002"/>
</g>
<g id="item_16">
<path d="M0,0 L2,1 L3,6 L2,7 L-2,7 L-3,6 L-2,1 z" fill="#7A7A7A" fill-opacity="0.5" fill-rule="nonzero" stroke="black" stroke-width="0.21725002"/>
</g>
</defs>
<use transform="translate(13.924416 78.9998), rotate(0)" xlink:href="#item_1">
<title>item, id: 1, transf: [r: 0.000°, t: (13.924, 79.000)]</title>
</use>
<use transform="translate(0.001461029 37.68828), rotate(0)" xlink:href="#item_1">
<title>item, id: 1, transf: [r: 0.000°, t: (0.001, 37.688)]</title>
</use>
<use transform="translate(237.6834 0.00070762634), rotate(-180)" xlink:href="#item_1">
<title>item, id: 1, transf: [r: -180.000°, t: (237.683, 0.001)]</title>
</use>
<use transform="translate(181.68451 78.992966), rotate(0)" xlink:href="#item_1">
<title>item, id: 1, transf: [r: 0.000°, t: (181.685, 78.993)]</title>
</use>
<use transform="translate(122.68235 0.00004673004), rotate(-180)" xlink:href="#item_1">
<title>item, id: 1, transf: [r: -180.000°, t: (122.682, 0.000)]</title>
</use>
<use transform="translate(237.66055 41.328857), rotate(-180)" xlink:href="#item_1">
<title>item, id: 1, transf: [r: -180.000°, t: (237.661, 41.329)]</title>
</use>
<use transform="translate(69.93114 78.992355), rotate(0)" xlink:href="#item_1">
<title>item, id: 1, transf: [r: 0.000°, t: (69.931, 78.992)]</title>
</use>
<use transform="translate(115.767136 42.45331), rotate(-180)" xlink:href="#item_1">
<title>item, id: 1, transf: [r: -180.000°, t: (115.767, 42.453)]</title>
</use>
<use transform="translate(181.68336 13.000458), rotate(-180)" xlink:href="#item_0">
<title>item, id: 0, transf: [r: -180.000°, t: (181.683, 13.000)]</title>
</use>
<use transform="translate(56.00148 22.4425), rotate(0)" xlink:href="#item_0">
<title>item, id: 0, transf: [r: 0.000°, t: (56.001, 22.442)]</title>
</use>
<use transform="translate(113.035774 35.663406), rotate(0)" xlink:href="#item_0">
<title>item, id: 0, transf: [r: 0.000°, t: (113.036, 35.663)]</title>
</use>
<use transform="translate(59.03737 13.004508), rotate(-180)" xlink:href="#item_0">
<title>item, id: 0, transf: [r: -180.000°, t: (59.037, 13.005)]</title>
</use>
<use transform="translate(59.757103 55.702805), rotate(-180)" xlink:href="#item_0">
<title>item, id: 0, transf: [r: -180.000°, t: (59.757, 55.703)]</title>
</use>
<use transform="translate(175.28352 61.66359), rotate(-180)" xlink:href="#item_0">
<title>item, id: 0, transf: [r: -180.000°, t: (175.284, 61.664)]</title>
</use>
<use transform="translate(178.68756 28.327433), rotate(0)" xlink:href="#item_0">
<title>item, id: 0, transf: [r: 0.000°, t: (178.688, 28.327)]</title>
</use>
<use transform="translate(174.0016 34.175453), rotate(-180)" xlink:href="#item_0">
<title>item, id: 0, transf: [r: -180.000°, t: (174.002, 34.175)]</title>
</use>
<use transform="translate(56.002724 37.451782), rotate(0)" xlink:href="#item_2">
<title>item, id: 2, transf: [r: 0.000°, t: (56.003, 37.452)]</title>
</use>
<use transform="translate(2.0533524 37.688835), rotate(0)" xlink:href="#item_3">
<title>item, id: 3, transf: [r: 0.000°, t: (2.053, 37.689)]</title>
</use>
<use transform="translate(169.9741 78.99964), rotate(-180)" xlink:href="#item_4">
<title>item, id: 4, transf: [r: -180.000°, t: (169.974, 79.000)]</title>
</use>
<use transform="translate(127.67674 16.164822), rotate(0)" xlink:href="#item_5">
<title>item, id: 5, transf: [r: 0.000°, t: (127.677, 16.165)]</title>
</use>
<use transform="translate(175.67183 78.99943), rotate(-180)" xlink:href="#item_14">
<title>item, id: 14, transf: [r: -180.000°, t: (175.672, 78.999)]</title>
</use>
<use transform="translate(215.9277 27.866709), rotate(-180)" xlink:href="#item_14">
<title>item, id: 14, transf: [r: -180.000°, t: (215.928, 27.867)]</title>
</use>
<use transform="translate(155.04869 62.99421), rotate(0)" xlink:href="#item_14">
<title>item, id: 14, transf: [r: 0.000°, t: (155.049, 62.994)]</title>
</use>
<use transform="translate(131.54813 71.40619), rotate(-180)" xlink:href="#item_14">
<title>item, id: 14, transf: [r: -180.000°, t: (131.548, 71.406)]</title>
</use>
<use transform="translate(7.558919 62.99794), rotate(0)" xlink:href="#item_14">
<title>item, id: 14, transf: [r: 0.000°, t: (7.559, 62.998)]</title>
</use>
<use transform="translate(6.0008445 22.391499), rotate(-180)" xlink:href="#item_14">
<title>item, id: 14, transf: [r: -180.000°, t: (6.001, 22.391)]</title>
</use>
<use transform="translate(226.10655 16.236494), rotate(0)" xlink:href="#item_14">
<title>item, id: 14, transf: [r: 0.000°, t: (226.107, 16.236)]</title>
</use>
<use transform="translate(141.19765 60.80854), rotate(0)" xlink:href="#item_14">
<title>item, id: 14, transf: [r: 0.000°, t: (141.198, 60.809)]</title>
</use>
<use transform="translate(181.29953 67.99685), rotate(-180)" xlink:href="#item_9">
<title>item, id: 9, transf: [r: -180.000°, t: (181.300, 67.997)]</title>
</use>
<use transform="translate(183.89903 18.604216), rotate(0)" xlink:href="#item_7">
<title>item, id: 7, transf: [r: 0.000°, t: (183.899, 18.604)]</title>
</use>
<use transform="translate(13.919844 13.686634), rotate(0)" xlink:href="#item_7">
<title>item, id: 7, transf: [r: 0.000°, t: (13.920, 13.687)]</title>
</use>
<use transform="translate(176.19443 56.59872), rotate(0)" xlink:href="#item_7">
<title>item, id: 7, transf: [r: 0.000°, t: (176.194, 56.599)]</title>
</use>
<use transform="translate(8.000904 57.212833), rotate(0)" xlink:href="#item_7">
<title>item, id: 7, transf: [r: 0.000°, t: (8.001, 57.213)]</title>
</use>
<use transform="translate(28.331057 54.877792), rotate(0)" xlink:href="#item_7">
<title>item, id: 7, transf: [r: 0.000°, t: (28.331, 54.878)]</title>
</use>
<use transform="translate(33.02456 18.78093), rotate(-180)" xlink:href="#item_7">
<title>item, id: 7, transf: [r: -180.000°, t: (33.025, 18.781)]</title>
</use>
<use transform="translate(22.327217 61.033176), rotate(-180)" xlink:href="#item_7">
<title>item, id: 7, transf: [r: -180.000°, t: (22.327, 61.033)]</title>
</use>
<use transform="translate(59.587738 21.470198), rotate(-180)" xlink:href="#item_7">
<title>item, id: 7, transf: [r: -180.000°, t: (59.588, 21.470)]</title>
</use>
<use transform="translate(0.44184017 73.99969), rotate(0)" xlink:href="#item_11">
<title>item, id: 11, transf: [r: 0.000°, t: (0.442, 74.000)]</title>
</use>
<use transform="translate(127.668724 21.17477), rotate(-180)" xlink:href="#item_6">
<title>item, id: 6, transf: [r: -180.000°, t: (127.669, 21.175)]</title>
</use>
<use transform="translate(70.86427 35.4437), rotate(0)" xlink:href="#item_6">
<title>item, id: 6, transf: [r: 0.000°, t: (70.864, 35.444)]</title>
</use>
<use transform="translate(93.988846 21.634205), rotate(0)" xlink:href="#item_6">
<title>item, id: 6, transf: [r: 0.000°, t: (93.989, 21.634)]</title>
</use>
<use transform="translate(91.88851 35.45153), rotate(0)" xlink:href="#item_6">
<title>item, id: 6, transf: [r: 0.000°, t: (91.889, 35.452)]</title>
</use>
<use transform="translate(122.955444 13.811654), rotate(0)" xlink:href="#item_6">
<title>item, id: 6, transf: [r: 0.000°, t: (122.955, 13.812)]</title>
</use>
<use transform="translate(146.96468 73.89385), rotate(-180)" xlink:href="#item_6">
<title>item, id: 6, transf: [r: -180.000°, t: (146.965, 73.894)]</title>
</use>
<use transform="translate(237.68697 29.519451), rotate(-180)" xlink:href="#item_6">
<title>item, id: 6, transf: [r: -180.000°, t: (237.687, 29.519)]</title>
</use>
<use transform="translate(143.74724 13.810621), rotate(-180)" xlink:href="#item_6">
<title>item, id: 6, transf: [r: -180.000°, t: (143.747, 13.811)]</title>
</use>
<use transform="translate(112.58494 15.1333), rotate(0)" xlink:href="#item_8">
<title>item, id: 8, transf: [r: 0.000°, t: (112.585, 15.133)]</title>
</use>
<use transform="translate(183.18706 27.951172), rotate(-180)" xlink:href="#item_13">
<title>item, id: 13, transf: [r: -180.000°, t: (183.187, 27.951)]</title>
</use>
<use transform="translate(169.68338 14.004475), rotate(0)" xlink:href="#item_13">
<title>item, id: 13, transf: [r: 0.000°, t: (169.683, 14.004)]</title>
</use>
<use transform="translate(159.29916 65.99522), rotate(0)" xlink:href="#item_15">
<title>item, id: 15, transf: [r: 0.000°, t: (159.299, 65.995)]</title>
</use>
<use transform="translate(172.04788 48.598648), rotate(0)" xlink:href="#item_15">
<title>item, id: 15, transf: [r: 0.000°, t: (172.048, 48.599)]</title>
</use>
<use transform="translate(8.00052 61.905617), rotate(-180)" xlink:href="#item_15">
<title>item, id: 15, transf: [r: -180.000°, t: (8.001, 61.906)]</title>
</use>
<use transform="translate(212.20644 26.985857), rotate(-180)" xlink:href="#item_15">
<title>item, id: 15, transf: [r: -180.000°, t: (212.206, 26.986)]</title>
</use>
<use transform="translate(229.6872 16.557014), rotate(0)" xlink:href="#item_15">
<title>item, id: 15, transf: [r: 0.000°, t: (229.687, 16.557)]</title>
</use>
<use transform="translate(67.60114 19.685934), rotate(-180)" xlink:href="#item_15">
<title>item, id: 15, transf: [r: -180.000°, t: (67.601, 19.686)]</title>
</use>
<use transform="translate(58.6795 3.6844506), rotate(0)" xlink:href="#item_15">
<title>item, id: 15, transf: [r: 0.000°, t: (58.680, 3.684)]</title>
</use>
<use transform="translate(181.66032 46.04034), rotate(-180)" xlink:href="#item_15">
<title>item, id: 15, transf: [r: -180.000°, t: (181.660, 46.040)]</title>
</use>
<use transform="translate(144.1169 12.160735), rotate(0)" xlink:href="#item_10">
<title>item, id: 10, transf: [r: 0.000°, t: (144.117, 12.161)]</title>
</use>
<use transform="translate(183.89894 23.005344), rotate(-180)" xlink:href="#item_12">
<title>item, id: 12, transf: [r: -180.000°, t: (183.899, 23.005)]</title>
</use>
<use transform="translate(93.66561 17.627953), rotate(0)" xlink:href="#item_12">
<title>item, id: 12, transf: [r: 0.000°, t: (93.666, 17.628)]</title>
</use>
<use transform="translate(25.329332 61.9217), rotate(-180)" xlink:href="#item_16">
<title>item, id: 16, transf: [r: -180.000°, t: (25.329, 61.922)]</title>
</use>
<use transform="translate(176.42896 31.039377), rotate(0)" xlink:href="#item_16">
<title>item, id: 16, transf: [r: 0.000°, t: (176.429, 31.039)]</title>
</use>
<use transform="translate(148.38977 68.5643), rotate(-180)" xlink:href="#item_16">
<title>item, id: 16, transf: [r: -180.000°, t: (148.390, 68.564)]</title>
</use>
<use transform="translate(201.2025 20.088335), rotate(0)" xlink:href="#item_16">
<title>item, id: 16, transf: [r: 0.000°, t: (201.202, 20.088)]</title>
</use>
</g>
<g id="quality_zones"/>
<g id="optionals">
<g id="overlap_lines" transform="translate(0 0), rotate(0)"/>
</g>
<text font-family="monospace" font-size="1.975" font-weight="500" x="0" y="-0.9875">
height: 79.000 | width: 237.688 | usage: 91.634% | final_bench_5
</text>
</svg>