<svg viewBox="-11.900111 -3.950001 261.8024 86.90001" xmlns="http://www.w3.org/2000/svg" xmlns:xlink="http://www.w3.org/1999/xlink">
<g id="bin_0">
<path d="M0,0 L238.00217,0 L238.00217,79 L0,79 z" fill="#D3D3D3" stroke="black" stroke-width="0.43450004"/>
<title>bin, id: 0, bbox: [x_min: 0.000, y_min: 0.000, x_max: 238.002, y_max: 79.000]</title>
</g>
<g id="items">
<defs>
<g id="item_0">
<path d="M0,0 L12,-1 L14,-3.0000005 L24,0 L33,1 L59,2 L59,13 L4,13 L4,8 L2,5 L0,5 z" fill="#7A7A7A" fill-opacity="0.5" fill-rule="nonzero" stroke="black" stroke-width="0.21725002"/>
</g>
<g id="item_1">
<path d="M0,0 L0,-14 L27,-17 L37,-20 L41,-22 L47,-19 L56,-16 L56,0 z" fill="#7A7A7A" fill-opacity="0.5" fill-rule="nonzero" stroke="black" stroke-width="0.21725002"/>
</g>
<g id="item_2">
<path d="M0,0 L57,0 L57,5 L0,5 z" fill="#7A7A7A" fill-opacity="0.5" fill-rule="nonzero" stroke="black" stroke-width="0.21725002"/>
</g>
<g id="item_3">
<path d="M0,0 L52,0 L52,5 L0,5 z" fill="#7A7A7A" fill-opacity="0.5" fill-rule="nonzero" stroke="black" stroke-width="0.21725002"/>
</g>
<g id="item_4">
<path d="M0,0 L44,0 L44,5 L0,5 z" fill="#7A7A7A" fill-opacity="0.5" fill-rule="nonzero" stroke="black" stroke-width="0.21725002"/>
</g>
<g id="item_5">
<path d="M0,0 L42,0 L42,5 L0,5 z" fill="#7A7A7A" fill-opacity="0.5" fill-rule="nonzero" stroke="black" stroke-width="0.21725002"/>
</g>
<g id="item_6">
<path d="M0,0 L21,0 L21,2 L0,2 z" fill="#7A7A7A" fill-opacity="0.5" fill-rule="nonzero" stroke="black" stroke-width="0.21725002"/>
</g>
<g id="item_7">
<path d="M0,0 L15,4 L13,7 L0,6 z" fill="#7A7A7A" fill-opacity="0.5" fill-rule="nonzero" stroke="black" stroke-width="0.21725002"/>
</g>
<g id="item_8">
<path d="M0,0 L15,1 L15,4 L0,4 z" fill="#7A7A7A" fill-opacity="0.5" fill-rule="nonzero" stroke="black" stroke-width="0.21725002"/>
</g>
<g id="item_9">
<path d="M0,0 L14,0 L14,5 L0,5 z" fill="#7A7A7A" fill-opacity="0.5" fill-rule="nonzero" stroke="black" stroke-width="0.21725002"/>
</g>
<g id="item_10">
<path d="M0,0 L14,1 L14,4 L0,4 z" fill="#7A7A7A" fill-opacity="0.5" fill-rule="nonzero" stroke="black" stroke-width="0.21725002"/>
</g>
<g id="item_11">
<path d="M0,0 L13,0 L13,5 L0,5 z" fill="#7A7A7A" fill-opacity="0.5" fill-rule="nonzero" stroke="black" stroke-width="0.21725002"/>
</g>
<g id="item_12">
<path d="M0,0 L13,1 L13,4 L0,4 z" fill="#7A7A7A" fill-opacity="0.5" fill-rule="nonzero" stroke="black" stroke-width="0.21725002"/>
</g>
<g id="item_13">
<path d="M0,0 L12,0 L12,5 L0,5 z" fill="#7A7A7A" fill-opacity="0.5" fill-rule="nonzero" stroke="black" stroke-width="0.21725002"/>
</g>
<g id="item_14">
<path d="M0,0 L4,2 L6,10 L4,11 L-4,11 L-6,10 L-4,2 z" fill="#7A7A7A" fill-opacity="0.5" fill-rule="nonzero" stroke="black" stroke-width="0.21725002"/>
</g>
<g id="item_15">
<path d="M0,0 L3,-2 L8,0 L8,8 L2,8 z" fill="#7A7A7A" fill-opacity="0.5" fill-rule="nonzero" stroke="black" stroke-width="0.21725002"/>
</g>
<g id="item_16">
<path d="M0,0 L2,1 L3,6 L2,7 L-2,7 L-3,6 L-2,1 z" fill="#7A7A7A" fill-opacity="0.5" fill-rule="nonzero" stroke="black" stroke-width="0.21725002"/>
</g>
</defs>
<use transform="translate(65.67253 78.99594), rotate(0)" xlink:href="#item_1">
<title>item, id: 1, transf: [r: 0.000°, t: (65.673, 78.996)]</title>
</use>
<use transform="translate(112.033554 42.3994), rotate(-180)" xlink:href="#item_1">
<title>item, id: 1, transf: [r: -180.000°, t: (112.034, 42.399)]</title>
</use>
<use transform="translate(115.42382 4.1198473), rotate(-180)" xlink:href="#item_1">
<title>item, id: 1, transf: [r: -180.000°, t: (115.424, 4.120)]</title>
</use>
<use transform="translate(56.00292 41.748528), rotate(-180)" xlink:href="#item_1">
<title>item, id: 1, transf: [r: -180.000°, t: (56.003, 41.749)]</title>
</use>
<use transform="translate(8.155651 78.99996), rotate(0)" xlink:href="#item_1">
<title>item, id: 1, transf: [r: 0.000°, t: (8.156, 79.000)]</title>
</use>
<use transform="translate(59.00075 42.399), rotate(0)" xlink:href="#item_1">
<title>item, id: 1, transf: [r: 0.000°, t: (59.001, 42.399)]</title>
</use>
<use transform="translate(238.0021 5.030422), rotate(-180)" xlink:href="#item_1">
<title>item, id: 1, transf: [r: -180.000°, t: (238.002, 5.030)]</title>
</use>
<use transform="translate(154.05096 78.826294), rotate(0)" xlink:href="#item_1">
<title>item, id: 1, transf: [r: 0.000°, t: (154.051, 78.826)]</title>
</use>
<use transform="translate(174.4282 18.01537), rotate(-180)" xlink:href="#item_0">
<title>item, id: 0, transf: [r: -180.000°, t: (174.428, 18.015)]</title>
</use>
<use transform="translate(174.00357 45.411346), rotate(-180)" xlink:href="#item_0">
<title>item, id: 0, transf: [r: -180.000°, t: (174.004, 45.411)]</title>
</use>
<use transform="translate(171.03873 26.972723), rotate(0)" xlink:href="#item_0">
<title>item, id: 0, transf: [r: 0.000°, t: (171.039, 26.973)]</title>
</use>
<use transform="translate(0.00039100647 28.745897), rotate(0)" xlink:href="#item_0">
<title>item, id: 0, transf: [r: 0.000°, t: (0.000, 28.746)]</title>
</use>
<use transform="translate(59.41914 18.007477), rotate(-180)" xlink:href="#item_0">
<title>item, id: 0, transf: [r: -180.000°, t: (59.419, 18.007)]</title>
</use>
<use transform="translate(111.678246 19.410303), rotate(0)" xlink:href="#item_0">
<title>item, id: 0, transf: [r: 0.000°, t: (111.678, 19.410)]</title>
</use>
<use transform="translate(171.35208 61.41922), rotate(-180)" xlink:href="#item_0">
<title>item, id: 0, transf: [r: -180.000°, t: (171.352, 61.419)]</title>
</use>
<use transform="translate(233.00519 58.01673), rotate(-180)" xlink:href="#item_0">
<title>item, id: 0, transf: [r: -180.000°, t: (233.005, 58.017)]</title>
</use>
<use transform="translate(117.0016 0.0048127174), rotate(0)" xlink:href="#item_2">
<title>item, id: 2, transf: [r: 0.000°, t: (117.002, 0.005)]</title>
</use>
<use transform="translate(175.26022 39.972862), rotate(0)" xlink:href="#item_3">
<title>item, id: 3, transf: [r: 0.000°, t: (175.260, 39.973)]</title>
</use>
<use transform="translate(181.40752 0.0000603199), rotate(0)" xlink:href="#item_4">
<title>item, id: 4, transf: [r: 0.000°, t: (181.408, 0.000)]</title>
</use>
<use transform="translate(42.000446 5.005505), rotate(-180)" xlink:href="#item_5">
<title>item, id: 5, transf: [r: -180.000°, t: (42.000, 5.006)]</title>
</use>
<use transform="translate(127.67691 62.996178), rotate(0)" xlink:href="#item_14">
<title>item, id: 14, transf: [r: 0.000°, t: (127.677, 62.996)]</title>
</use>
<use transform="translate(6.0009117 16.91051), rotate(0)" xlink:href="#item_14">
<title>item, id: 14, transf: [r: 0.000°, t: (6.001, 16.911)]</title>
</use>
<use transform="translate(231.9313 67.99778), rotate(0)" xlink:href="#item_14">
<title>item, id: 14, transf: [r: 0.000°, t: (231.931, 67.998)]</title>
</use>
<use transform="translate(137.71924 75.16366), rotate(-180)" xlink:href="#item_14">
<title>item, id: 14, transf: [r: -180.000°, t: (137.719, 75.164)]</title>
</use>
<use transform="translate(35.27845 18.5504), rotate(0)" xlink:href="#item_14">
<title>item, id: 14, transf: [r: 0.000°, t: (35.278, 18.550)]</title>
</use>
<use transform="translate(50.257114 19.23698), rotate(0)" xlink:href="#item_14">
<title>item, id: 14, transf: [r: 0.000°, t: (50.257, 19.237)]</title>
</use>
<use transform="translate(223.70581 58.81498), rotate(0)" xlink:href="#item_14">
<title>item, id: 14, transf: [r: 0.000°, t: (223.706, 58.815)]</title>
</use>
<use transform="translate(147.8059 62.98317), rotate(0)" xlink:href="#item_14">
<title>item, id: 14, transf: [r: 0.000°, t: (147.806, 62.983)]</title>
</use>
<use transform="translate(140.0485 73.999916), rotate(0)" xlink:href="#item_9">
<title>item, id: 9, transf: [r: 0.000°, t: (140.048, 74.000)]</title>
</use>
<use transform="translate(28.460602 29.225513), rotate(-180)" xlink:href="#item_7">
<title>item, id: 7, transf: [r: -180.000°, t: (28.461, 29.226)]</title>
</use>
<use transform="translate(226.33948 76.33327), rotate(-180)" xlink:href="#item_7">
<title>item, id: 7, transf: [r: -180.000°, t: (226.339, 76.333)]</title>
</use>
<use transform="translate(216.96262 21.879469), rotate(0)" xlink:href="#item_7">
<title>item, id: 7, transf: [r: 0.000°, t: (216.963, 21.879)]</title>
</use>
<use transform="translate(210.05196 71.99568), rotate(0)" xlink:href="#item_7">
<title>item, id: 7, transf: [r: 0.000°, t: (210.052, 71.996)]</title>
</use>
<use transform="translate(30.49529 23.669607), rotate(-180)" xlink:href="#item_7">
<title>item, id: 7, transf: [r: -180.000°, t: (30.495, 23.670)]</title>
</use>
<use transform="translate(238.00215 27.48168), rotate(-180)" xlink:href="#item_7">
<title>item, id: 7, transf: [r: -180.000°, t: (238.002, 27.482)]</title>
</use>
<use transform="translate(55.57009 20.323578), rotate(0)" xlink:href="#item_7">
<title>item, id: 7, transf: [r: 0.000°, t: (55.570, 20.324)]</title>
</use>
<use transform="translate(170.68288 18.328566), rotate(0)" xlink:href="#item_7">
<title>item, id: 7, transf: [r: 0.000°, t: (170.683, 18.329)]</title>
</use>
<use transform="translate(135.03276 78.998276), rotate(-180)" xlink:href="#item_11">
<title>item, id: 11, transf: [r: -180.000°, t: (135.033, 78.998)]</title>
</use>
<use transform="translate(96.0011 2.1196408), rotate(0)" xlink:href="#item_6">
<title>item, id: 6, transf: [r: 0.000°, t: (96.001, 2.120)]</title>
</use>
<use transform="translate(54.00107 2.1015708), rotate(0)" xlink:href="#item_6">
<title>item, id: 6, transf: [r: 0.000°, t: (54.001, 2.102)]</title>
</use>
<use transform="translate(96.00156 0.11586642), rotate(0)" xlink:href="#item_6">
<title>item, id: 6, transf: [r: 0.000°, t: (96.002, 0.116)]</title>
</use>
<use transform="translate(96.001495 2.1022592), rotate(-180)" xlink:href="#item_6">
<title>item, id: 6, transf: [r: -180.000°, t: (96.001, 2.102)]</title>
</use>
<use transform="translate(75.001076 2.1033502), rotate(0)" xlink:href="#item_6">
<title>item, id: 6, transf: [r: 0.000°, t: (75.001, 2.103)]</title>
</use>
<use transform="translate(75.001434 2.0124822), rotate(-180)" xlink:href="#item_6">
<title>item, id: 6, transf: [r: -180.000°, t: (75.001, 2.012)]</title>
</use>
<use transform="translate(133.48218 48.418926), rotate(-180)" xlink:href="#item_6">
<title>item, id: 6, transf: [r: -180.000°, t: (133.482, 48.419)]</title>
</use>
<use transform="translate(135.23697 46.36566), rotate(-180)" xlink:href="#item_6">
<title>item, id: 6, transf: [r: -180.000°, t: (135.237, 46.366)]</title>
</use>
<use transform="translate(130.01106 60.16306), rotate(0)" xlink:href="#item_8">
<title>item, id: 8, transf: [r: 0.000°, t: (130.011, 60.163)]</title>
</use>
<use transform="translate(42.00102 0.0063507557), rotate(0)" xlink:href="#item_13">
<title>item, id: 13, transf: [r: 0.000°, t: (42.001, 0.006)]</title>
</use>
<use transform="translate(237.99796 5.0015116), rotate(-180)" xlink:href="#item_13">
<title>item, id: 13, transf: [r: -180.000°, t: (237.998, 5.002)]</title>
</use>
<use transform="translate(230.00156 28.82124), rotate(0)" xlink:href="#item_15">
<title>item, id: 15, transf: [r: 0.000°, t: (230.002, 28.821)]</title>
</use>
<use transform="translate(209.69833 61.32183), rotate(0)" xlink:href="#item_15">
<title>item, id: 15, transf: [r: 0.000°, t: (209.698, 61.322)]</title>
</use>
<use transform="translate(0.020261765 70.98887), rotate(0)" xlink:href="#item_15">
<title>item, id: 15, transf: [r: 0.000°, t: (0.020, 70.989)]</title>
</use>
<use transform="translate(182.00209 8.029121), rotate(-180)" xlink:href="#item_15">
<title>item, id: 15, transf: [r: -180.000°, t: (182.002, 8.029)]</title>
</use>
<use transform="translate(229.0057 45.01502), rotate(0)" xlink:href="#item_15">
<title>item, id: 15, transf: [r: 0.000°, t: (229.006, 45.015)]</title>
</use>
<use transform="translate(8.028475 67.79211), rotate(-180)" xlink:href="#item_15">
<title>item, id: 15, transf: [r: -180.000°, t: (8.028, 67.792)]</title>
</use>
<use transform="translate(230.00098 60.02957), rotate(0)" xlink:href="#item_15">
<title>item, id: 15, transf: [r: 0.000°, t: (230.001, 60.030)]</title>
</use>
<use transform="translate(173.99602 11.227865), rotate(0)" xlink:href="#item_15">
<title>item, id: 15, transf: [r: 0.000°, t: (173.996, 11.228)]</title>
</use>
<use transform="translate(135.58916 44.417065), rotate(0)" xlink:href="#item_10">
<title>item, id: 10, transf: [r: 0.000°, t: (135.589, 44.417)]</title>
</use>
<use transform="translate(171.36673 56.37622), rotate(0)" xlink:href="#item_12">
<title>item, id: 12, transf: [r: 0.000°, t: (171.367, 56.376)]</title>
</use>
<use transform="translate(216.19106 28.438648), rotate(-180)" xlink:href="#item_12">
<title>item, id: 12, transf: [r: -180.000°, t: (216.191, 28.439)]</title>
</use>
<use transform="translate(12.915468 23.566694), rotate(-180)" xlink:href="#item_16">
<title>item, id: 16, transf: [r: -180.000°, t: (12.915, 23.567)]</title>
</use>
<use transform="translate(42.856247 27.839304), rotate(-180)" xlink:href="#item_16">
<title>item, id: 16, transf: [r: -180.000°, t: (42.856, 27.839)]</title>
</use>
<use transform="translate(170.9698 48.328304), rotate(0)" xlink:href="#item_16">
<title>item, id: 16, transf: [r: 0.000°, t: (170.970, 48.328)]</title>
</use>
<use transform="translate(234.94505 44.042423), rotate(-180)" xlink:href="#item_16">
<title>item, id: 16, transf: [r: -180.000°, t: (234.945, 44.042)]</title>
</use>
</g>
<g id="quality_zones"/>
<g id="optionals">
<g id="overlap_lines" transform="translate(0 0), rotate(0)"/>
</g>
<text font-family="monospace" font-size="1.975" font-weight="500" x="0" y="-0.9875">
height: 79.000 | width: 238.002 | usage: 91.513% | final_bench_82
</text>
</svg>