<svg viewBox="-11.900166 -3.950001 261.8036 86.90001" xmlns="http://www.w3.org/2000/svg" xmlns:xlink="http://www.w3.org/1999/xlink">
<g id="bin_0">
<path d="M0,0 L238.00325,0 L238.00325,79 L0,79 z" fill="#D3D3D3" stroke="black" stroke-width="0.43450004"/>
<title>bin, id: 0, bbox: [x_min: 0.000, y_min: 0.000, x_max: 238.003, y_max: 79.000]</title>
</g>
<g id="items">
<defs>
<g id="item_0">
<path d="M0,0 L12,-1 L14,-3.0000005 L24,0 L33,1 L59,2 L59,13 L4,13 L4,8 L2,5 L0,5 z" fill="#7A7A7A" fill-opacity="0.5" fill-rule="nonzero" stroke="black" stroke-width="0.21725002"/>
</g>
<g id="item_1">
<path d="M0,0 L0,-14 L27,-17 L37,-20 L41,-22 L47,-19 L56,-16 L56,0 z" fill="#7A7A7A" fill-opacity="0.5" fill-rule="nonzero" stroke="black" stroke-width="0.21725002"/>
</g>
<g id="item_2">
<path d="M0,0 L57,0 L57,5 L0,5 z" fill="#7A7A7A" fill-opacity="0.5" fill-rule="nonzero" stroke="black" stroke-width="0.21725002"/>
</g>
<g id="item_3">
<path d="M0,0 L52,0 L52,5 L0,5 z" fill="#7A7A7A" fill-opacity="0.5" fill-rule="nonzero" stroke="black" stroke-width="0.21725002"/>
</g>
<g id="item_4">
<path d="M0,0 L44,0 L44,5 L0,5 z" fill="#7A7A7A" fill-opacity="0.5" fill-rule="nonzero" stroke="black" stroke-width="0.21725002"/>
</g>
<g id="item_5">
<path d="M0,0 L42,0 L42,5 L0,5 z" fill="#7A7A7A" fill-opacity="0.5" fill-rule="nonzero" stroke="black" stroke-width="0.21725002"/>
</g>
<g id="item_6">
<path d="M0,0 L21,0 L21,2 L0,2 z" fill="#7A7A7A" fill-opacity="0.5" fill-rule="nonzero" stroke="black" stroke-width="0.21725002"/>
</g>
<g id="item_7">
<path d="M0,0 L15,4 L13,7 L0,6 z" fill="#7A7A7A" fill-opacity="0.5" fill-rule="nonzero" stroke="black" stroke-width="0.21725002"/>
</g>
<g id="item_8">
<path d="M0,0 L15,1 L15,4 L0,4 z" fill="#7A7A7A" fill-opacity="0.5" fill-rule="nonzero" stroke="black" stroke-width="0.21725002"/>
</g>
<g id="item_9">
<path d="M0,0 L14,0 L14,5 L0,5 z" fill="#7A7A7A" fill-opacity="0.5" fill-rule="nonzero" stroke="black" stroke-width="0.21725002"/>
</g>
<g id="item_10">
<path d="M0,0 L14,1 L14,4 L0,4 z" fill="#7A7A7A" fill-opacity="0.5" fill-rule="nonzero" stroke="black" stroke-width="0.21725002"/>
</g>
<g id="item_11">
<path d="M0,0 L13,0 L13,5 L0,5 z" fill="#7A7A7A" fill-opacity="0.5" fill-rule="nonzero" stroke="black" stroke-width="0.21725002"/>
</g>
<g id="item_12">
<path d="M0,0 L13,1 L13,4 L0,4 z" fill="#7A7A7A" fill-opacity="0.5" fill-rule="nonzero" stroke="black" stroke-width="0.21725002"/>
</g>
<g id="item_13">
<path d="M0,0 L12,0 L12,5 L0,5 z" fill="#7A7A7A" fill-opacity="0.5" fill-rule="nonzero" stroke="black" stroke-width="0.21725002"/>
</g>
<g id="item_14">
<path d="M0,0 L4,2 L6,10 L4,11 L-4,11 L-6,10 L-4,2 z" fill="#7A7A7A" fill-opacity="0.5" fill-rule="nonzero" stroke="black" stroke-width="0.21725002"/>
</g>
<g id="item_15">
<path d="M0,0 L3,-2 L8,0 L8,8 L2,8 z" fill="#7A7A7A" fill-opacity="0.5" fill-rule="nonzero" stroke="black" stroke-width="0.21725002"/>
</g>
<g id="item_16">
<path d="M0,0 L2,1 L3,6 L2,7 L-2,7 L-3,6 L-2,1 z" fill="#7A7A7A" fill-opacity="0.5" fill-rule="nonzero" stroke="black" stroke-width="0.21725002"/>
</g>
</defs>
<use transform="translate(238.00296 43.67179), rotate(-180)" xlink:href="#item_1">
<title>item, id: 1, transf: [r: -180.000°, t: (238.003, 43.672)]</title>
</use>
<use transform="translate(0.2769451 73.99588), rotate(0)" xlink:href="#item_1">
<title>item, id: 1, transf: [r: 0.000°, t: (0.277, 73.996)]</title>
</use>
<use transform="translate(182.00299 43.67036), rotate(0)" xlink:href="#item_1">
<title>item, id: 1, transf: [r: 0.000°, t: (182.003, 43.670)]</title>
</use>
<use transform="translate(173.54762 43.59601), rotate(-180)" xlink:href="#item_1">
<title>item, id: 1, transf: [r: -180.000°, t: (173.548, 43.596)]</title>
</use>
<use transform="translate(56.36623 78.998085), rotate(0)" xlink:href="#item_1">
<title>item, id: 1, transf: [r: 0.000°, t: (56.366, 78.998)]</title>
</use>
<use transform="translate(59.000385 37.644726), rotate(0)" xlink:href="#item_1">
<title>item, id: 1, transf: [r: 0.000°, t: (59.000, 37.645)]</title>
</use>
<use transform="translate(56.086174 36.349903), rotate(-180)" xlink:href="#item_1">
<title>item, id: 1, transf: [r: -180.000°, t: (56.086, 36.350)]</title>
</use>
<use transform="translate(133.7465 78.99986), rotate(0)" xlink:href="#item_1">
<title>item, id: 1, transf: [r: 0.000°, t: (133.747, 79.000)]</title>
</use>
<use transform="translate(177.59224 29.143883), rotate(-180)" xlink:href="#item_0">
<title>item, id: 0, transf: [r: -180.000°, t: (177.592, 29.144)]</title>
</use>
<use transform="translate(115.00092 30.578585), rotate(0)" xlink:href="#item_0">
<title>item, id: 0, transf: [r: 0.000°, t: (115.001, 30.579)]</title>
</use>
<use transform="translate(118.00157 13.0004425), rotate(-180)" xlink:href="#item_0">
<title>item, id: 0, transf: [r: -180.000°, t: (118.002, 13.000)]</title>
</use>
<use transform="translate(179.0024 13.00106), rotate(-180)" xlink:href="#item_0">
<title>item, id: 0, transf: [r: -180.000°, t: (179.002, 13.001)]</title>
</use>
<use transform="translate(0.00017166138 18.335382), rotate(0)" xlink:href="#item_0">
<title>item, id: 0, transf: [r: 0.000°, t: (0.000, 18.335)]</title>
</use>
<use transform="translate(117.50377 50.645744), rotate(-180)" xlink:href="#item_0">
<title>item, id: 0, transf: [r: -180.000°, t: (117.504, 50.646)]</title>
</use>
<use transform="translate(238.00285 18.0004), rotate(-180)" xlink:href="#item_0">
<title>item, id: 0, transf: [r: -180.000°, t: (238.003, 18.000)]</title>
</use>
<use transform="translate(59.000404 13.002566), rotate(-180)" xlink:href="#item_0">
<title>item, id: 0, transf: [r: -180.000°, t: (59.000, 13.003)]</title>
</use>
<use transform="translate(178.90794 0.00038528442), rotate(0)" xlink:href="#item_2">
<title>item, id: 2, transf: [r: 0.000°, t: (178.908, 0.000)]</title>
</use>
<use transform="translate(54.27307 78.99977), rotate(-180)" xlink:href="#item_3">
<title>item, id: 3, transf: [r: -180.000°, t: (54.273, 79.000)]</title>
</use>
<use transform="translate(0.03817749 31.344822), rotate(0)" xlink:href="#item_4">
<title>item, id: 4, transf: [r: 0.000°, t: (0.038, 31.345)]</title>
</use>
<use transform="translate(231.97318 78.99959), rotate(-180)" xlink:href="#item_5">
<title>item, id: 5, transf: [r: -180.000°, t: (231.973, 79.000)]</title>
</use>
<use transform="translate(182.72781 29.58975), rotate(-180)" xlink:href="#item_14">
<title>item, id: 14, transf: [r: -180.000°, t: (182.728, 29.590)]</title>
</use>
<use transform="translate(203.75641 62.994728), rotate(0)" xlink:href="#item_14">
<title>item, id: 14, transf: [r: 0.000°, t: (203.756, 62.995)]</title>
</use>
<use transform="translate(118.366844 59.96895), rotate(0)" xlink:href="#item_14">
<title>item, id: 14, transf: [r: 0.000°, t: (118.367, 59.969)]</title>
</use>
<use transform="translate(75.52689 51.424553), rotate(0)" xlink:href="#item_14">
<title>item, id: 14, transf: [r: 0.000°, t: (75.527, 51.425)]</title>
</use>
<use transform="translate(192.87083 17.017826), rotate(0)" xlink:href="#item_14">
<title>item, id: 14, transf: [r: 0.000°, t: (192.871, 17.018)]</title>
</use>
<use transform="translate(85.00817 61.337868), rotate(-180)" xlink:href="#item_14">
<title>item, id: 14, transf: [r: -180.000°, t: (85.008, 61.338)]</title>
</use>
<use transform="translate(111.545135 62.48184), rotate(-180)" xlink:href="#item_14">
<title>item, id: 14, transf: [r: -180.000°, t: (111.545, 62.482)]</title>
</use>
<use transform="translate(65.77276 62.41929), rotate(-180)" xlink:href="#item_14">
<title>item, id: 14, transf: [r: -180.000°, t: (65.773, 62.419)]</title>
</use>
<use transform="translate(58.981167 36.34473), rotate(-180)" xlink:href="#item_9">
<title>item, id: 9, transf: [r: -180.000°, t: (58.981, 36.345)]</title>
</use>
<use transform="translate(92.161255 18.796234), rotate(-180)" xlink:href="#item_7">
<title>item, id: 7, transf: [r: -180.000°, t: (92.161, 18.796)]</title>
</use>
<use transform="translate(27.000586 18.541426), rotate(-180)" xlink:href="#item_7">
<title>item, id: 7, transf: [r: -180.000°, t: (27.001, 18.541)]</title>
</use>
<use transform="translate(223.00104 62.11789), rotate(0)" xlink:href="#item_7">
<title>item, id: 7, transf: [r: 0.000°, t: (223.001, 62.118)]</title>
</use>
<use transform="translate(91.01586 50.371433), rotate(0)" xlink:href="#item_7">
<title>item, id: 7, transf: [r: 0.000°, t: (91.016, 50.371)]</title>
</use>
<use transform="translate(72.87695 13.654013), rotate(0)" xlink:href="#item_7">
<title>item, id: 7, transf: [r: 0.000°, t: (72.877, 13.654)]</title>
</use>
<use transform="translate(238.00206 66.117134), rotate(-180)" xlink:href="#item_7">
<title>item, id: 7, transf: [r: -180.000°, t: (238.002, 66.117)]</title>
</use>
<use transform="translate(118.58353 21.418713), rotate(-180)" xlink:href="#item_7">
<title>item, id: 7, transf: [r: -180.000°, t: (118.584, 21.419)]</title>
</use>
<use transform="translate(204.90048 16.998568), rotate(0)" xlink:href="#item_7">
<title>item, id: 7, transf: [r: 0.000°, t: (204.900, 16.999)]</title>
</use>
<use transform="translate(59.28035 17.166016), rotate(0)" xlink:href="#item_11">
<title>item, id: 11, transf: [r: 0.000°, t: (59.280, 17.166)]</title>
</use>
<use transform="translate(139.95464 16.142784), rotate(-180)" xlink:href="#item_6">
<title>item, id: 6, transf: [r: -180.000°, t: (139.955, 16.143)]</title>
</use>
<use transform="translate(78.57351 51.41821), rotate(-180)" xlink:href="#item_6">
<title>item, id: 6, transf: [r: -180.000°, t: (78.574, 51.418)]</title>
</use>
<use transform="translate(59.266884 19.532711), rotate(-180)" xlink:href="#item_6">
<title>item, id: 6, transf: [r: -180.000°, t: (59.267, 19.533)]</title>
</use>
<use transform="translate(237.52466 71.99598), rotate(-180)" xlink:href="#item_6">
<title>item, id: 6, transf: [r: -180.000°, t: (237.525, 71.996)]</title>
</use>
<use transform="translate(232.6771 73.99599), rotate(-180)" xlink:href="#item_6">
<title>item, id: 6, transf: [r: -180.000°, t: (232.677, 73.996)]</title>
</use>
<use transform="translate(133.74545 76.9986), rotate(-180)" xlink:href="#item_6">
<title>item, id: 6, transf: [r: -180.000°, t: (133.745, 76.999)]</title>
</use>
<use transform="translate(133.37386 78.99964), rotate(-180)" xlink:href="#item_6">
<title>item, id: 6, transf: [r: -180.000°, t: (133.374, 79.000)]</title>
</use>
<use transform="translate(140.46205 14.141468), rotate(-180)" xlink:href="#item_6">
<title>item, id: 6, transf: [r: -180.000°, t: (140.462, 14.141)]</title>
</use>
<use transform="translate(140.471 12.142321), rotate(0)" xlink:href="#item_8">
<title>item, id: 8, transf: [r: 0.000°, t: (140.471, 12.142)]</title>
</use>
<use transform="translate(0.00000333786 12.314721), rotate(0)" xlink:href="#item_13">
<title>item, id: 13, transf: [r: 0.000°, t: (0.000, 12.315)]</title>
</use>
<use transform="translate(72.41745 16.79829), rotate(-180)" xlink:href="#item_13">
<title>item, id: 13, transf: [r: -180.000°, t: (72.417, 16.798)]</title>
</use>
<use transform="translate(125.74039 66.081635), rotate(0)" xlink:href="#item_15">
<title>item, id: 15, transf: [r: 0.000°, t: (125.740, 66.082)]</title>
</use>
<use transform="translate(214.999 61.90638), rotate(0)" xlink:href="#item_15">
<title>item, id: 15, transf: [r: 0.000°, t: (214.999, 61.906)]</title>
</use>
<use transform="translate(196.89655 19.095287), rotate(0)" xlink:href="#item_15">
<title>item, id: 15, transf: [r: 0.000°, t: (196.897, 19.095)]</title>
</use>
<use transform="translate(182.00154 37.443176), rotate(-180)" xlink:href="#item_15">
<title>item, id: 15, transf: [r: -180.000°, t: (182.002, 37.443)]</title>
</use>
<use transform="translate(207.50732 63.995857), rotate(0)" xlink:href="#item_15">
<title>item, id: 15, transf: [r: 0.000°, t: (207.507, 63.996)]</title>
</use>
<use transform="translate(181.96307 56.65955), rotate(-180)" xlink:href="#item_15">
<title>item, id: 15, transf: [r: -180.000°, t: (181.963, 56.660)]</title>
</use>
<use transform="translate(174.00095 40.649372), rotate(0)" xlink:href="#item_15">
<title>item, id: 15, transf: [r: 0.000°, t: (174.001, 40.649)]</title>
</use>
<use transform="translate(189.75227 65.9981), rotate(0)" xlink:href="#item_15">
<title>item, id: 15, transf: [r: 0.000°, t: (189.752, 65.998)]</title>
</use>
<use transform="translate(126.96814 74.994545), rotate(-180)" xlink:href="#item_10">
<title>item, id: 10, transf: [r: -180.000°, t: (126.968, 74.995)]</title>
</use>
<use transform="translate(27.049442 13.528323), rotate(0)" xlink:href="#item_12">
<title>item, id: 12, transf: [r: 0.000°, t: (27.049, 13.528)]</title>
</use>
<use transform="translate(59.556908 55.57699), rotate(-180)" xlink:href="#item_12">
<title>item, id: 12, transf: [r: -180.000°, t: (59.557, 55.577)]</title>
</use>
<use transform="translate(59.2786 57.449757), rotate(0)" xlink:href="#item_16">
<title>item, id: 16, transf: [r: 0.000°, t: (59.279, 57.450)]</title>
</use>
<use transform="translate(235.0025 26.660763), rotate(-180)" xlink:href="#item_16">
<title>item, id: 16, transf: [r: -180.000°, t: (235.003, 26.661)]</title>
</use>
<use transform="translate(117.002396 7.034646), rotate(-180)" xlink:href="#item_16">
<title>item, id: 16, transf: [r: -180.000°, t: (117.002, 7.035)]</title>
</use>
<use transform="translate(234.97571 71.99915), rotate(0)" xlink:href="#item_16">
<title>item, id: 16, transf: [r: 0.000°, t: (234.976, 71.999)]</title>
</use>
</g>
<g id="quality_zones"/>
<g id="optionals">
<g id="overlap_lines" transform="translate(0 0), rotate(0)"/>
</g>
<text font-family="monospace" font-size="1.975" font-weight="500" x="0" y="-0.9875">
height: 79.000 | width: 238.003 | usage: 91.513% | final_bench_38
</text>
</svg>