<svg viewBox="-11.856676 -3.950001 260.84683 86.90001" xmlns="http://www.w3.org/2000/svg" xmlns:xlink="http://www.w3.org/1999/xlink">
<g id="bin_0">
<path d="M0,0 L237.13347,0 L237.13347,79 L0,79 z" fill="#D3D3D3" stroke="black" stroke-width="0.43450004"/>
<title>bin, id: 0, bbox: [x_min: 0.000, y_min: 0.000, x_max: 237.133, y_max: 79.000]</title>
</g>
<g id="items">
<defs>
<g id="item_0">
<path d="M0,0 L12,-1 L14,-3.0000005 L24,0 L33,1 L59,2 L59,13 L4,13 L4,8 L2,5 L0,5 z" fill="#7A7A7A" fill-opacity="0.5" fill-rule="nonzero" stroke="black" stroke-width="0.21725002"/>
</g>
<g id="item_1">
<path d="M0,0 L0,-14 L27,-17 L37,-20 L41,-22 L47,-19 L56,-16 L56,0 z" fill="#7A7A7A" fill-opacity="0.5" fill-rule="nonzero" stroke="black" stroke-width="0.21725002"/>
</g>
<g id="item_2">
<path d="M0,0 L57,0 L57,5 L0,5 z" fill="#7A7A7A" fill-opacity="0.5" fill-rule="nonzero" stroke="black" stroke-width="0.21725002"/>
</g>
<g id="item_3">
<path d="M0,0 L52,0 L52,5 L0,5 z" fill="#7A7A7A" fill-opacity="0.5" fill-rule="nonzero" stroke="black" stroke-width="0.21725002"/>
</g>
<g id="item_4">
<path d="M0,0 L44,0 L44,5 L0,5 z" fill="#7A7A7A" fill-opacity="0.5" fill-rule="nonzero" stroke="black" stroke-width="0.21725002"/>
</g>
<g id="item_5">
<path d="M0,0 L42,0 L42,5 L0,5 z" fill="#7A7A7A" fill-opacity="0.5" fill-rule="nonzero" stroke="black" stroke-width="0.21725002"/>
</g>
<g id="item_6">
<path d="M0,0 L21,0 L21,2 L0,2 z" fill="#7A7A7A" fill-opacity="0.5" fill-rule="nonzero" stroke="black" stroke-width="0.21725002"/>
</g>
<g id="item_7">
<path d="M0,0 L15,4 L13,7 L0,6 z" fill="#7A7A7A" fill-opacity="0.5" fill-rule="nonzero" stroke="black" stroke-width="0.21725002"/>
</g>
<g id="item_8">
<path d="M0,0 L15,1 L15,4 L0,4 z" fill="#7A7A7A" fill-opacity="0.5" fill-rule="nonzero" stroke="black" stroke-width="0.21725002"/>
</g>
<g id="item_9">
<path d="M0,0 L14,0 L14,5 L0,5 z" fill="#7A7A7A" fill-opacity="0.5" fill-rule="nonzero" stroke="black" stroke-width="0.21725002"/>
</g>
<g id="item_10">
<path d="M0,0 L14,1 L14,4 L0,4 z" fill="#7A7A7A" fill-opacity="0.5" fill-rule="nonzero" stroke="black" stroke-width="0.21725002"/>
</g>
<g id="item_11">
<path d="M0,0 L13,0 L13,5 L0,5 z" fill="#7A7A7A" fill-opacity="0.5" fill-rule="nonzero" stroke="black" stroke-width="0.21725002"/>
</g>
<g id="item_12">
<path d="M0,0 L13,1 L13,4 L0,4 z" fill="#7A7A7A" fill-opacity="0.5" fill-rule="nonzero" stroke="black" stroke-width="0.21725002"/>
</g>
<g id="item_13">
<path d="M0,0 L12,0 L12,5 L0,5 z" fill="#7A7A7A" fill-opacity="0.5" fill-rule="nonzero" stroke="black" stroke-width="0.21725002"/>
</g>
<g id="item_14">
<path d="M0,0 L4,2 L6,10 L4,11 L-4,11 L-6,10 L-4,2 z" fill="#7A7A7A" fill-opacity="0.5" fill-rule="nonzero" stroke="black" stroke-width="0.21725002"/>
</g>
<g id="item_15">
<path d="M0,0 L3,-2 L8,0 L8,8 L2,8 z" fill="#7A7A7A" fill-opacity="0.5" fill-rule="nonzero" stroke="black" stroke-width="0.21725002"/>
</g>
<g id="item_16">
<path d="M0,0 L2,1 L3,6 L2,7 L-2,7 L-3,6 L-2,1 z" fill="#7A7A7A" fill-opacity="0.5" fill-rule="nonzero" stroke="black" stroke-width="0.21725002"/>
</g>
</defs>
<use transform="translate(171.01483 42.450874), rotate(-180)" xlink:href="#item_1">
<title>item, id: 1, transf: [r: -180.000°, t: (171.015, 42.451)]</title>
</use>
<use transform="translate(8.000763 78.99512), rotate(0)" xlink:href="#item_1">
<title>item, id: 1, transf: [r: 0.000°, t: (8.001, 78.995)]</title>
</use>
<use transform="translate(181.13252 73.99767), rotate(0)" xlink:href="#item_1">
<title>item, id: 1, transf: [r: 0.000°, t: (181.133, 73.998)]</title>
</use>
<use transform="translate(69.132 78.999176), rotate(0)" xlink:href="#item_1">
<title>item, id: 1, transf: [r: 0.000°, t: (69.132, 78.999)]</title>
</use>
<use transform="translate(56.006134 41.901283), rotate(-180)" xlink:href="#item_1">
<title>item, id: 1, transf: [r: -180.000°, t: (56.006, 41.901)]</title>
</use>
<use transform="translate(59.107296 36.898987), rotate(0)" xlink:href="#item_1">
<title>item, id: 1, transf: [r: 0.000°, t: (59.107, 36.899)]</title>
</use>
<use transform="translate(174.30113 38.311337), rotate(0)" xlink:href="#item_1">
<title>item, id: 1, transf: [r: 0.000°, t: (174.301, 38.311)]</title>
</use>
<use transform="translate(125.13237 78.99509), rotate(0)" xlink:href="#item_1">
<title>item, id: 1, transf: [r: 0.000°, t: (125.132, 78.995)]</title>
</use>
<use transform="translate(0.005628586 28.90101), rotate(0)" xlink:href="#item_0">
<title>item, id: 0, transf: [r: 0.000°, t: (0.006, 28.901)]</title>
</use>
<use transform="translate(118.32466 13.001616), rotate(-180)" xlink:href="#item_0">
<title>item, id: 0, transf: [r: -180.000°, t: (118.325, 13.002)]</title>
</use>
<use transform="translate(115.01126 54.905884), rotate(-180)" xlink:href="#item_0">
<title>item, id: 0, transf: [r: -180.000°, t: (115.011, 54.906)]</title>
</use>
<use transform="translate(230.1038 51.31357), rotate(-180)" xlink:href="#item_0">
<title>item, id: 0, transf: [r: -180.000°, t: (230.104, 51.314)]</title>
</use>
<use transform="translate(177.98357 13.000101), rotate(-180)" xlink:href="#item_0">
<title>item, id: 0, transf: [r: -180.000°, t: (177.984, 13.000)]</title>
</use>
<use transform="translate(236.98848 15.000479), rotate(-180)" xlink:href="#item_0">
<title>item, id: 0, transf: [r: -180.000°, t: (236.988, 15.000)]</title>
</use>
<use transform="translate(115.11001 24.437286), rotate(0)" xlink:href="#item_0">
<title>item, id: 0, transf: [r: 0.000°, t: (115.110, 24.437)]</title>
</use>
<use transform="translate(60.28865 18.001087), rotate(-180)" xlink:href="#item_0">
<title>item, id: 0, transf: [r: -180.000°, t: (60.289, 18.001)]</title>
</use>
<use transform="translate(0.85572624 0.0005199909), rotate(0)" xlink:href="#item_2">
<title>item, id: 2, transf: [r: 0.000°, t: (0.856, 0.001)]</title>
</use>
<use transform="translate(168.82991 42.443504), rotate(-180)" xlink:href="#item_3">
<title>item, id: 3, transf: [r: -180.000°, t: (168.830, 42.444)]</title>
</use>
<use transform="translate(193.13332 73.999), rotate(0)" xlink:href="#item_4">
<title>item, id: 4, transf: [r: 0.000°, t: (193.133, 73.999)]</title>
</use>
<use transform="translate(116.8283 41.904366), rotate(-180)" xlink:href="#item_5">
<title>item, id: 5, transf: [r: -180.000°, t: (116.828, 41.904)]</title>
</use>
<use transform="translate(150.09135 25.119402), rotate(-180)" xlink:href="#item_14">
<title>item, id: 14, transf: [r: -180.000°, t: (150.091, 25.119)]</title>
</use>
<use transform="translate(52.10164 19.468502), rotate(0)" xlink:href="#item_14">
<title>item, id: 14, transf: [r: 0.000°, t: (52.102, 19.469)]</title>
</use>
<use transform="translate(139.92603 12.470577), rotate(0)" xlink:href="#item_14">
<title>item, id: 14, transf: [r: 0.000°, t: (139.926, 12.471)]</title>
</use>
<use transform="translate(24.351334 28.121202), rotate(-180)" xlink:href="#item_14">
<title>item, id: 14, transf: [r: -180.000°, t: (24.351, 28.121)]</title>
</use>
<use transform="translate(33.78485 18.457275), rotate(0)" xlink:href="#item_14">
<title>item, id: 14, transf: [r: 0.000°, t: (33.785, 18.457)]</title>
</use>
<use transform="translate(159.69017 14.724232), rotate(0)" xlink:href="#item_14">
<title>item, id: 14, transf: [r: 0.000°, t: (159.690, 14.724)]</title>
</use>
<use transform="translate(6.002785 28.346098), rotate(-180)" xlink:href="#item_14">
<title>item, id: 14, transf: [r: -180.000°, t: (6.003, 28.346)]</title>
</use>
<use transform="translate(177.02788 60.765816), rotate(-180)" xlink:href="#item_14">
<title>item, id: 14, transf: [r: -180.000°, t: (177.028, 60.766)]</title>
</use>
<use transform="translate(197.28421 55.338493), rotate(-180)" xlink:href="#item_9">
<title>item, id: 9, transf: [r: -180.000°, t: (197.284, 55.338)]</title>
</use>
<use transform="translate(134.80034 18.782778), rotate(-180)" xlink:href="#item_7">
<title>item, id: 7, transf: [r: -180.000°, t: (134.800, 18.783)]</title>
</use>
<use transform="translate(119.34873 21.016306), rotate(-180)" xlink:href="#item_7">
<title>item, id: 7, transf: [r: -180.000°, t: (119.349, 21.016)]</title>
</use>
<use transform="translate(119.37067 14.670023), rotate(0)" xlink:href="#item_7">
<title>item, id: 7, transf: [r: 0.000°, t: (119.371, 14.670)]</title>
</use>
<use transform="translate(85.483894 54.293358), rotate(0)" xlink:href="#item_7">
<title>item, id: 7, transf: [r: 0.000°, t: (85.484, 54.293)]</title>
</use>
<use transform="translate(179.41724 15.295443), rotate(0)" xlink:href="#item_7">
<title>item, id: 7, transf: [r: 0.000°, t: (179.417, 15.295)]</title>
</use>
<use transform="translate(199.02766 20.513645), rotate(-180)" xlink:href="#item_7">
<title>item, id: 7, transf: [r: -180.000°, t: (199.028, 20.514)]</title>
</use>
<use transform="translate(70.10932 56.444355), rotate(0)" xlink:href="#item_7">
<title>item, id: 7, transf: [r: 0.000°, t: (70.109, 56.444)]</title>
</use>
<use transform="translate(85.48106 60.541473), rotate(-180)" xlink:href="#item_7">
<title>item, id: 7, transf: [r: -180.000°, t: (85.481, 60.541)]</title>
</use>
<use transform="translate(73.300186 16.648117), rotate(-180)" xlink:href="#item_11">
<title>item, id: 11, transf: [r: -180.000°, t: (73.300, 16.648)]</title>
</use>
<use transform="translate(173.99829 0.00028467178), rotate(0)" xlink:href="#item_6">
<title>item, id: 6, transf: [r: 0.000°, t: (173.998, 0.000)]</title>
</use>
<use transform="translate(216.13333 0.00008058548), rotate(0)" xlink:href="#item_6">
<title>item, id: 6, transf: [r: 0.000°, t: (216.133, 0.000)]</title>
</use>
<use transform="translate(73.31491 13.000538), rotate(0)" xlink:href="#item_6">
<title>item, id: 6, transf: [r: 0.000°, t: (73.315, 13.001)]</title>
</use>
<use transform="translate(55.182503 19.001114), rotate(0)" xlink:href="#item_6">
<title>item, id: 6, transf: [r: 0.000°, t: (55.183, 19.001)]</title>
</use>
<use transform="translate(195.02199 0.000066161156), rotate(0)" xlink:href="#item_6">
<title>item, id: 6, transf: [r: 0.000°, t: (195.022, 0.000)]</title>
</use>
<use transform="translate(81.30996 19.001001), rotate(-180)" xlink:href="#item_6">
<title>item, id: 6, transf: [r: -180.000°, t: (81.310, 19.001)]</title>
</use>
<use transform="translate(181.82622 55.57356), rotate(0)" xlink:href="#item_6">
<title>item, id: 6, transf: [r: 0.000°, t: (181.826, 55.574)]</title>
</use>
<use transform="translate(74.716965 15.000683), rotate(0)" xlink:href="#item_6">
<title>item, id: 6, transf: [r: 0.000°, t: (74.717, 15.001)]</title>
</use>
<use transform="translate(70.10909 60.909542), rotate(-180)" xlink:href="#item_8">
<title>item, id: 8, transf: [r: -180.000°, t: (70.109, 60.910)]</title>
</use>
<use transform="translate(71.00585 41.900105), rotate(-180)" xlink:href="#item_13">
<title>item, id: 13, transf: [r: -180.000°, t: (71.006, 41.900)]</title>
</use>
<use transform="translate(193.13269 78.99942), rotate(-180)" xlink:href="#item_13">
<title>item, id: 13, transf: [r: -180.000°, t: (193.133, 78.999)]</title>
</use>
<use transform="translate(8.000115 76.99478), rotate(-180)" xlink:href="#item_15">
<title>item, id: 15, transf: [r: -180.000°, t: (8.000, 76.995)]</title>
</use>
<use transform="translate(171.38849 15.360241), rotate(0)" xlink:href="#item_15">
<title>item, id: 15, transf: [r: 0.000°, t: (171.388, 15.360)]</title>
</use>
<use transform="translate(229.13301 17.411133), rotate(0)" xlink:href="#item_15">
<title>item, id: 15, transf: [r: 0.000°, t: (229.133, 17.411)]</title>
</use>
<use transform="translate(38.051964 21.49561), rotate(0)" xlink:href="#item_15">
<title>item, id: 15, transf: [r: 0.000°, t: (38.052, 21.496)]</title>
</use>
<use transform="translate(173.37952 23.432123), rotate(-180)" xlink:href="#item_15">
<title>item, id: 15, transf: [r: -180.000°, t: (173.380, 23.432)]</title>
</use>
<use transform="translate(20.006166 24.751196), rotate(-180)" xlink:href="#item_15">
<title>item, id: 15, transf: [r: -180.000°, t: (20.006, 24.751)]</title>
</use>
<use transform="translate(228.87941 41.40081), rotate(0)" xlink:href="#item_15">
<title>item, id: 15, transf: [r: 0.000°, t: (228.879, 41.401)]</title>
</use>
<use transform="translate(0.00009250641 60.96273), rotate(0)" xlink:href="#item_15">
<title>item, id: 15, transf: [r: 0.000°, t: (0.000, 60.963)]</title>
</use>
<use transform="translate(56.10324 52.90948), rotate(0)" xlink:href="#item_10">
<title>item, id: 10, transf: [r: 0.000°, t: (56.103, 52.909)]</title>
</use>
<use transform="translate(197.28754 51.572083), rotate(0)" xlink:href="#item_12">
<title>item, id: 12, transf: [r: 0.000°, t: (197.288, 51.572)]</title>
</use>
<use transform="translate(199.1151 13.903733), rotate(0)" xlink:href="#item_12">
<title>item, id: 12, transf: [r: 0.000°, t: (199.115, 13.904)]</title>
</use>
<use transform="translate(234.1325 40.072098), rotate(-180)" xlink:href="#item_16">
<title>item, id: 16, transf: [r: -180.000°, t: (234.133, 40.072)]</title>
</use>
<use transform="translate(233.812 33.070568), rotate(-180)" xlink:href="#item_16">
<title>item, id: 16, transf: [r: -180.000°, t: (233.812, 33.071)]</title>
</use>
<use transform="translate(233.49936 56.418304), rotate(-180)" xlink:href="#item_16">
<title>item, id: 16, transf: [r: -180.000°, t: (233.499, 56.418)]</title>
</use>
<use transform="translate(66.76611 67.820984), rotate(-180)" xlink:href="#item_16">
<title>item, id: 16, transf: [r: -180.000°, t: (66.766, 67.821)]</title>
</use>
</g>
<g id="quality_zones"/>
<g id="optionals">
<g id="overlap_lines" transform="translate(0 0), rotate(0)"/>
</g>
<text font-family="monospace" font-size="1.975" font-weight="500" x="0" y="-0.9875">
height: 79.000 | width: 237.133 | usage: 91.849% | final_bench_57
</text>
</svg>