<svg viewBox="-11.848867 -3.950001 260.67502 86.90001" xmlns="http://www.w3.org/2000/svg" xmlns:xlink="http://www.w3.org/1999/xlink">
<g id="bin_0">
<path d="M0,0 L236.9773,0 L236.9773,79 L0,79 z" fill="#D3D3D3" stroke="black" stroke-width="0.43450004"/>
<title>bin, id: 0, bbox: [x_min: 0.000, y_min: 0.000, x_max: 236.977, y_max: 79.000]</title>
</g>
<g id="items">
<defs>
<g id="item_0">
<path d="M0,0 L12,-1 L14,-3.0000005 L24,0 L33,1 L59,2 L59,13 L4,13 L4,8 L2,5 L0,5 z" fill="#7A7A7A" fill-opacity="0.5" fill-rule="nonzero" stroke="black" stroke-width="0.21725002"/>
</g>
<g id="item_1">
<path d="M0,0 L0,-14 L27,-17 L37,-20 L41,-22 L47,-19 L56,-16 L56,0 z" fill="#7A7A7A" fill-opacity="0.5" fill-rule="nonzero" stroke="black" stroke-width="0.21725002"/>
</g>
<g id="item_2">
<path d="M0,0 L57,0 L57,5 L0,5 z" fill="#7A7A7A" fill-opacity="0.5" fill-rule="nonzero" stroke="black" stroke-width="0.21725002"/>
</g>
<g id="item_3">
<path d="M0,0 L52,0 L52,5 L0,5 z" fill="#7A7A7A" fill-opacity="0.5" fill-rule="nonzero" stroke="black" stroke-width="0.21725002"/>
</g>
<g id="item_4">
<path d="M0,0 L44,0 L44,5 L0,5 z" fill="#7A7A7A" fill-opacity="0.5" fill-rule="nonzero" stroke="black" stroke-width="0.21725002"/>
</g>
<g id="item_5">
<path d="M0,0 L42,0 L42,5 L0,5 z" fill="#7A7A7A" fill-opacity="0.5" fill-rule="nonzero" stroke="black" stroke-width="0.21725002"/>
</g>
<g id="item_6">
<path d="M0,0 L21,0 L21,2 L0,2 z" fill="#7A7A7A" fill-opacity="0.5" fill-rule="nonzero" stroke="black" stroke-width="0.21725002"/>
</g>
<g id="item_7">
<path d="M0,0 L15,4 L13,7 L0,6 z" fill="#7A7A7A" fill-opacity="0.5" fill-rule="nonzero" stroke="black" stroke-width="0.21725002"/>
</g>
<g id="item_8">
<path d="M0,0 L15,1 L15,4 L0,4 z" fill="#7A7A7A" fill-opacity="0.5" fill-rule="nonzero" stroke="black" stroke-width="0.21725002"/>
</g>
<g id="item_9">
<path d="M0,0 L14,0 L14,5 L0,5 z" fill="#7A7A7A" fill-opacity="0.5" fill-rule="nonzero" stroke="black" stroke-width="0.21725002"/>
</g>
<g id="item_10">
<path d="M0,0 L14,1 L14,4 L0,4 z" fill="#7A7A7A" fill-opacity="0.5" fill-rule="nonzero" stroke="black" stroke-width="0.21725002"/>
</g>
<g id="item_11">
<path d="M0,0 L13,0 L13,5 L0,5 z" fill="#7A7A7A" fill-opacity="0.5" fill-rule="nonzero" stroke="black" stroke-width="0.21725002"/>
</g>
<g id="item_12">
<path d="M0,0 L13,1 L13,4 L0,4 z" fill="#7A7A7A" fill-opacity="0.5" fill-rule="nonzero" stroke="black" stroke-width="0.21725002"/>
</g>
<g id="item_13">
<path d="M0,0 L12,0 L12,5 L0,5 z" fill="#7A7A7A" fill-opacity="0.5" fill-rule="nonzero" stroke="black" stroke-width="0.21725002"/>
</g>
<g id="item_14">
<path d="M0,0 L4,2 L6,10 L4,11 L-4,11 L-6,10 L-4,2 z" fill="#7A7A7A" fill-opacity="0.5" fill-rule="nonzero" stroke="black" stroke-width="0.21725002"/>
</g>
<g id="item_15">
<path d="M0,0 L3,-2 L8,0 L8,8 L2,8 z" fill="#7A7A7A" fill-opacity="0.5" fill-rule="nonzero" stroke="black" stroke-width="0.21725002"/>
</g>
<g id="item_16">
<path d="M0,0 L2,1 L3,6 L2,7 L-2,7 L-3,6 L-2,1 z" fill="#7A7A7A" fill-opacity="0.5" fill-rule="nonzero" stroke="black" stroke-width="0.21725002"/>
</g>
</defs>
<use transform="translate(56.000977 0.0017366409), rotate(-180)" xlink:href="#item_1">
<title>item, id: 1, transf: [r: -180.000°, t: (56.001, 0.002)]</title>
</use>
<use transform="translate(0.73231125 37.58719), rotate(0)" xlink:href="#item_1">
<title>item, id: 1, transf: [r: 0.000°, t: (0.732, 37.587)]</title>
</use>
<use transform="translate(115.00226 41.32859), rotate(-180)" xlink:href="#item_1">
<title>item, id: 1, transf: [r: -180.000°, t: (115.002, 41.329)]</title>
</use>
<use transform="translate(227.02263 0.0031614304), rotate(-180)" xlink:href="#item_1">
<title>item, id: 1, transf: [r: -180.000°, t: (227.023, 0.003)]</title>
</use>
<use transform="translate(180.97585 73.99901), rotate(0)" xlink:href="#item_1">
<title>item, id: 1, transf: [r: 0.000°, t: (180.976, 73.999)]</title>
</use>
<use transform="translate(59.00292 78.99922), rotate(0)" xlink:href="#item_1">
<title>item, id: 1, transf: [r: 0.000°, t: (59.003, 78.999)]</title>
</use>
<use transform="translate(56.751186 41.32845), rotate(0)" xlink:href="#item_1">
<title>item, id: 1, transf: [r: 0.000°, t: (56.751, 41.328)]</title>
</use>
<use transform="translate(171.02234 0.0030469894), rotate(-180)" xlink:href="#item_1">
<title>item, id: 1, transf: [r: -180.000°, t: (171.022, 0.003)]</title>
</use>
<use transform="translate(0.0028762817 65.99956), rotate(0)" xlink:href="#item_0">
<title>item, id: 0, transf: [r: 0.000°, t: (0.003, 66.000)]</title>
</use>
<use transform="translate(112.766365 28.367628), rotate(0)" xlink:href="#item_0">
<title>item, id: 0, transf: [r: 0.000°, t: (112.766, 28.368)]</title>
</use>
<use transform="translate(169.67987 25.22576), rotate(0)" xlink:href="#item_0">
<title>item, id: 0, transf: [r: 0.000°, t: (169.680, 25.226)]</title>
</use>
<use transform="translate(59.001614 55.593494), rotate(-180)" xlink:href="#item_0">
<title>item, id: 0, transf: [r: -180.000°, t: (59.002, 55.593)]</title>
</use>
<use transform="translate(115.00266 17.07207), rotate(-180)" xlink:href="#item_0">
<title>item, id: 0, transf: [r: -180.000°, t: (115.003, 17.072)]</title>
</use>
<use transform="translate(174.0101 54.385178), rotate(-180)" xlink:href="#item_0">
<title>item, id: 0, transf: [r: -180.000°, t: (174.010, 54.385)]</title>
</use>
<use transform="translate(230.90402 51.226013), rotate(-180)" xlink:href="#item_0">
<title>item, id: 0, transf: [r: -180.000°, t: (230.904, 51.226)]</title>
</use>
<use transform="translate(111.53619 55.798306), rotate(0)" xlink:href="#item_0">
<title>item, id: 0, transf: [r: 0.000°, t: (111.536, 55.798)]</title>
</use>
<use transform="translate(236.97049 78.99931), rotate(-180)" xlink:href="#item_2">
<title>item, id: 2, transf: [r: -180.000°, t: (236.970, 78.999)]</title>
</use>
<use transform="translate(0.011568069 37.58799), rotate(0)" xlink:href="#item_3">
<title>item, id: 3, transf: [r: 0.000°, t: (0.012, 37.588)]</title>
</use>
<use transform="translate(159.00336 78.80271), rotate(-180)" xlink:href="#item_4">
<title>item, id: 4, transf: [r: -180.000°, t: (159.003, 78.803)]</title>
</use>
<use transform="translate(157.00626 73.8025), rotate(-180)" xlink:href="#item_5">
<title>item, id: 5, transf: [r: -180.000°, t: (157.006, 73.802)]</title>
</use>
<use transform="translate(142.91777 17.347876), rotate(0)" xlink:href="#item_14">
<title>item, id: 14, transf: [r: 0.000°, t: (142.918, 17.348)]</title>
</use>
<use transform="translate(163.21542 14.871971), rotate(0)" xlink:href="#item_14">
<title>item, id: 14, transf: [r: 0.000°, t: (163.215, 14.872)]</title>
</use>
<use transform="translate(176.03009 65.77069), rotate(-180)" xlink:href="#item_14">
<title>item, id: 14, transf: [r: -180.000°, t: (176.030, 65.771)]</title>
</use>
<use transform="translate(49.21635 56.45923), rotate(0)" xlink:href="#item_14">
<title>item, id: 14, transf: [r: 0.000°, t: (49.216, 56.459)]</title>
</use>
<use transform="translate(153.00299 27.469524), rotate(-180)" xlink:href="#item_14">
<title>item, id: 14, transf: [r: -180.000°, t: (153.003, 27.470)]</title>
</use>
<use transform="translate(7.112271 65.024025), rotate(-180)" xlink:href="#item_14">
<title>item, id: 14, transf: [r: -180.000°, t: (7.112, 65.024)]</title>
</use>
<use transform="translate(224.33086 15.881908), rotate(0)" xlink:href="#item_14">
<title>item, id: 14, transf: [r: 0.000°, t: (224.331, 15.882)]</title>
</use>
<use transform="translate(23.091354 65.7157), rotate(-180)" xlink:href="#item_14">
<title>item, id: 14, transf: [r: -180.000°, t: (23.091, 65.716)]</title>
</use>
<use transform="translate(91.08158 22.12931), rotate(-180)" xlink:href="#item_9">
<title>item, id: 9, transf: [r: -180.000°, t: (91.082, 22.129)]</title>
</use>
<use transform="translate(61.278397 21.859987), rotate(-180)" xlink:href="#item_7">
<title>item, id: 7, transf: [r: -180.000°, t: (61.278, 21.860)]</title>
</use>
<use transform="translate(54.43217 57.043915), rotate(0)" xlink:href="#item_7">
<title>item, id: 7, transf: [r: 0.000°, t: (54.432, 57.044)]</title>
</use>
<use transform="translate(43.63736 64.19596), rotate(-180)" xlink:href="#item_7">
<title>item, id: 7, transf: [r: -180.000°, t: (43.637, 64.196)]</title>
</use>
<use transform="translate(168.7973 16.964811), rotate(0)" xlink:href="#item_7">
<title>item, id: 7, transf: [r: 0.000°, t: (168.797, 16.965)]</title>
</use>
<use transform="translate(27.954733 60.298645), rotate(0)" xlink:href="#item_7">
<title>item, id: 7, transf: [r: 0.000°, t: (27.955, 60.299)]</title>
</use>
<use transform="translate(116.2136 25.055792), rotate(-180)" xlink:href="#item_7">
<title>item, id: 7, transf: [r: -180.000°, t: (116.214, 25.056)]</title>
</use>
<use transform="translate(61.53445 18.348333), rotate(0)" xlink:href="#item_7">
<title>item, id: 7, transf: [r: 0.000°, t: (61.534, 18.348)]</title>
</use>
<use transform="translate(77.06951 22.3857), rotate(-180)" xlink:href="#item_7">
<title>item, id: 7, transf: [r: -180.000°, t: (77.070, 22.386)]</title>
</use>
<use transform="translate(205.3174 21.325937), rotate(0)" xlink:href="#item_11">
<title>item, id: 11, transf: [r: 0.000°, t: (205.317, 21.326)]</title>
</use>
<use transform="translate(78.97907 2.0696688), rotate(0)" xlink:href="#item_6">
<title>item, id: 6, transf: [r: 0.000°, t: (78.979, 2.070)]</title>
</use>
<use transform="translate(203.27165 57.517456), rotate(-180)" xlink:href="#item_6">
<title>item, id: 6, transf: [r: -180.000°, t: (203.272, 57.517)]</title>
</use>
<use transform="translate(197.71193 19.323572), rotate(0)" xlink:href="#item_6">
<title>item, id: 6, transf: [r: 0.000°, t: (197.712, 19.324)]</title>
</use>
<use transform="translate(57.67885 2.009864), rotate(0)" xlink:href="#item_6">
<title>item, id: 6, transf: [r: 0.000°, t: (57.679, 2.010)]</title>
</use>
<use transform="translate(219.9594 19.322449), rotate(-180)" xlink:href="#item_6">
<title>item, id: 6, transf: [r: -180.000°, t: (219.959, 19.322)]</title>
</use>
<use transform="translate(99.89703 2.0682378), rotate(-180)" xlink:href="#item_6">
<title>item, id: 6, transf: [r: -180.000°, t: (99.897, 2.068)]</title>
</use>
<use transform="translate(169.67114 29.478962), rotate(-180)" xlink:href="#item_6">
<title>item, id: 6, transf: [r: -180.000°, t: (169.671, 29.479)]</title>
</use>
<use transform="translate(78.78957 2.0001528), rotate(-180)" xlink:href="#item_6">
<title>item, id: 6, transf: [r: -180.000°, t: (78.790, 2.000)]</title>
</use>
<use transform="translate(115.0186 4.0032477), rotate(-180)" xlink:href="#item_8">
<title>item, id: 8, transf: [r: -180.000°, t: (115.019, 4.003)]</title>
</use>
<use transform="translate(186.0465 54.770176), rotate(-180)" xlink:href="#item_13">
<title>item, id: 13, transf: [r: -180.000°, t: (186.046, 54.770)]</title>
</use>
<use transform="translate(198.15211 55.254963), rotate(-180)" xlink:href="#item_13">
<title>item, id: 13, transf: [r: -180.000°, t: (198.152, 55.255)]</title>
</use>
<use transform="translate(236.97723 8.000002), rotate(-180)" xlink:href="#item_15">
<title>item, id: 15, transf: [r: -180.000°, t: (236.977, 8.000)]</title>
</use>
<use transform="translate(236.90848 36.743095), rotate(-180)" xlink:href="#item_15">
<title>item, id: 15, transf: [r: -180.000°, t: (236.908, 36.743)]</title>
</use>
<use transform="translate(158.29604 70.97272), rotate(0)" xlink:href="#item_15">
<title>item, id: 15, transf: [r: 0.000°, t: (158.296, 70.973)]</title>
</use>
<use transform="translate(116.21768 19.41228), rotate(0)" xlink:href="#item_15">
<title>item, id: 15, transf: [r: 0.000°, t: (116.218, 19.412)]</title>
</use>
<use transform="translate(171.96928 67.457146), rotate(0)" xlink:href="#item_15">
<title>item, id: 15, transf: [r: 0.000°, t: (171.969, 67.457)]</title>
</use>
<use transform="translate(174.33652 76.96161), rotate(-180)" xlink:href="#item_15">
<title>item, id: 15, transf: [r: -180.000°, t: (174.337, 76.962)]</title>
</use>
<use transform="translate(228.97127 20.423141), rotate(0)" xlink:href="#item_15">
<title>item, id: 15, transf: [r: 0.000°, t: (228.971, 20.423)]</title>
</use>
<use transform="translate(227.0237 10.422704), rotate(0)" xlink:href="#item_15">
<title>item, id: 15, transf: [r: 0.000°, t: (227.024, 10.423)]</title>
</use>
<use transform="translate(205.21742 25.480942), rotate(-180)" xlink:href="#item_10">
<title>item, id: 10, transf: [r: -180.000°, t: (205.217, 25.481)]</title>
</use>
<use transform="translate(137.2493 26.003227), rotate(-180)" xlink:href="#item_12">
<title>item, id: 12, transf: [r: -180.000°, t: (137.249, 26.003)]</title>
</use>
<use transform="translate(198.15768 51.505276), rotate(0)" xlink:href="#item_12">
<title>item, id: 12, transf: [r: 0.000°, t: (198.158, 51.505)]</title>
</use>
<use transform="translate(233.92354 56.98151), rotate(-180)" xlink:href="#item_16">
<title>item, id: 16, transf: [r: -180.000°, t: (233.924, 56.982)]</title>
</use>
<use transform="translate(229.91383 45.24309), rotate(-180)" xlink:href="#item_16">
<title>item, id: 16, transf: [r: -180.000°, t: (229.914, 45.243)]</title>
</use>
<use transform="translate(14.922243 54.818615), rotate(0)" xlink:href="#item_16">
<title>item, id: 16, transf: [r: 0.000°, t: (14.922, 54.819)]</title>
</use>
<use transform="translate(233.9766 42.977463), rotate(0)" xlink:href="#item_16">
<title>item, id: 16, transf: [r: 0.000°, t: (233.977, 42.977)]</title>
</use>
</g>
<g id="quality_zones"/>
<g id="optionals">
<g id="overlap_lines" transform="translate(0 0), rotate(0)"/>
</g>
<text font-family="monospace" font-size="1.975" font-weight="500" x="0" y="-0.9875">
height: 79.000 | width: 236.977 | usage: 91.909% | final_bench_64
</text>
</svg>