<svg viewBox="-284.61374 -287.60007 6261.501 6327.2" xmlns="http://www.w3.org/2000/svg" xmlns:xlink="http://www.w3.org/1999/xlink">
<g id="bin_0">
<path d="M0,0 L5692.2734,0 L5692.2734,5752 L0,5752 z" fill="#D3D3D3" stroke="black" stroke-width="31.307507"/>
<title>bin, id: 0, bbox: [x_min: 0.000, y_min: 0.000, x_max: 5692.273, y_max: 5752.000]</title>
</g>
<g id="items">
<defs>
<g id="item_0">
<path d="M0,0 L-5,-321 L1,-642 L151,-660 L259,-691 L423,-738 L547,-770 L680,-801 L858,-837 L988,-682 L1075,-620 L1211,-553 L1319,-527 L1481,-526 L1597,-540 L1737,-564 L1719,-440 L1708,-317 L1718,-194 L1736,-70 L1596,-95 L1480,-109 L1318,-109 L1210,-83 L1074,-17 L986,45 L856,198.99997 L678,162 L545,131 L421,98 L257,50 L149,19 z" fill="#7A7A7A" fill-opacity="0.5" fill-rule="nonzero" stroke="black" stroke-width="15.653753"/>
</g>
<g id="item_1">
<path d="M0,0 L8,-148 L26.96225,-299.69812 L68.44348,-462.4321 L179,-449 L288,-446 L401,-463 L548,-497 L764.0157,-545.56165 L805,-350 L887,-196 L755,-176 L655,-155 L523,-121 L272,-52 L117.45331,-11.877289 z" fill="#7A7A7A" fill-opacity="0.5" fill-rule="nonzero" stroke="black" stroke-width="15.653753"/>
</g>
<g id="item_2">
<path d="M-159,-185 L-328,-228 L-474,-262 L-694.84607,-307.57144 L-806.64514,-359.47812 L-532,-384 L-408,-400 L-215,-443 L-77,-501 L130,-620 L264,-589 L477.87183,-543.8493 L652.5122,-485.0418 L766,-431 L893,-362 L1115,-258 L1125,-131 L1133,-7 L940,23 L792,45 L680,59 L524,70 L357.5263,70 L181,44 L0.9528198,4.1818695 z" fill="#7A7A7A" fill-opacity="0.5" fill-rule="nonzero" stroke="black" stroke-width="15.653753"/>
</g>
<g id="item_3">
<path d="M0,0 L8,-172 L309,-166 L484,-165 L616,-167 L718,-172 L876,-194 L1031,-248 L1351.455,-111.0968 L1209,-57 L1048.9706,-6.8212967 L909,16 L785,26 L668,29 L511,26 L213,14 z" fill="#7A7A7A" fill-opacity="0.5" fill-rule="nonzero" stroke="black" stroke-width="15.653753"/>
</g>
<g id="item_4">
<path d="M0,0 L33.96,-142.91501 L77,-268 L89,-388 L-826,-439 L-824,-598 L39,-607 L169,-650 L209,-800 L251,-940 L371,-924 L354,-726 L348,-610 L350,-412 L360,-264 L382,-94 L488.69122,232.11282 L352,54 L217,0 z" fill="#7A7A7A" fill-opacity="0.5" fill-rule="nonzero" stroke="black" stroke-width="15.653753"/>
</g>
<g id="item_5">
<path d="M0,-7.222229 L129.79999,-36.06665 L306.8846,22.961548 L495,110 L616,172 L737,238 L855,290 L959,313 L1071,306 L1275,255 L1260,394 L1250,499 L1260,606 L1275,745 L1071,694 L959,687 L855,710 L737,762 L616,828 L495,890 L306.8846,977.03845 L129.79999,1036.0667 L0,1007.2222 z" fill="#7A7A7A" fill-opacity="0.5" fill-rule="nonzero" stroke="black" stroke-width="15.653753"/>
</g>
<g id="item_6">
<path d="M0,0 L-4,-123 L-8,-291 L-17,-454 L-40,-620 L119,-619 L246,-538 L352,-501 L492,-458 L647,-416 L766,-369 L913,-302 L1061,-224 L1046,-100 L1037,2 L1061,224 L913,302 L766,369 L647,416 L492,458 L352,501 L246,538 L119,619 L-40,620 L-17,454 L-8,291 L-4,123 z" fill="#7A7A7A" fill-opacity="0.5" fill-rule="nonzero" stroke="black" stroke-width="15.653753"/>
</g>
<g id="item_7">
<path d="M-76,-85 L-178,-200 L-270,-306 L-412,-374 L-958,-383 L-954,-543 L-366,-560 L-269,-659 L-90,-708 L-4,-539 L40,-443 L94,-312 L140.2381,-190.31746 L189,-42 L4.524353,5.0601196 z" fill="#7A7A7A" fill-opacity="0.5" fill-rule="nonzero" stroke="black" stroke-width="15.653753"/>
</g>
<g id="item_8">
<path d="M-135.87357,-80.44827 L-238.0528,-203.06339 L-240.87814,-366.93304 L-197.36069,-485.8808 L-114.328445,-625.618 L-32.885136,-555.0338 L58.285713,-445 L118.14286,-305.33334 L108.69903,-151.08414 L7.1138,13.3871765 z" fill="#7A7A7A" fill-opacity="0.5" fill-rule="nonzero" stroke="black" stroke-width="15.653753"/>
</g>
<g id="item_9">
<path d="M-175.38889,-72.47955 L-304,-151 L-407,-193 L-510,-208 L-673,-192 L-790,-169 L-990,-124 L-1029,-292 L-760,-353 L-531,-404 L-413,-430 L-288,-510 L-252,-700 L-252,-862 L-274,-1015 L-533,-1157 L-762,-1207 L-1031,-1267 L-993,-1435 L-793,-1391 L-675,-1368 L-512,-1353 L-409,-1368 L-307,-1411 L-180.41176,-1488.2854 L6.421692,-1568.9188 L319,-1499 L270,-1290 L248,-1143 L241,-922 L242,-782 L242,-642 L246,-494 L257,-358 L322,-65 L15.847504,8.041077 z" fill="#7A7A7A" fill-opacity="0.5" fill-rule="nonzero" stroke="black" stroke-width="15.653753"/>
</g>
</defs>
<use transform="translate(322.01437 43.59967), rotate(-180)" xlink:href="#item_9">
<title>item, id: 9, transf: [r: -180.000°, t: (322.014, 43.600)]</title>
</use>
<use transform="translate(322.00177 1771.47), rotate(-180)" xlink:href="#item_9">
<title>item, id: 9, transf: [r: -180.000°, t: (322.002, 1771.470)]</title>
</use>
<use transform="translate(5369.9956 1636.2699), rotate(0)" xlink:href="#item_9">
<title>item, id: 9, transf: [r: 0.000°, t: (5369.996, 1636.270)]</title>
</use>
<use transform="translate(2250.7932 2039.0792), rotate(0)" xlink:href="#item_0">
<title>item, id: 0, transf: [r: 0.000°, t: (2250.793, 2039.079)]</title>
</use>
<use transform="translate(4413.246 2131.907), rotate(-180)" xlink:href="#item_0">
<title>item, id: 0, transf: [r: -180.000°, t: (4413.246, 2131.907)]</title>
</use>
<use transform="translate(5.043701 5552.8896), rotate(0)" xlink:href="#item_0">
<title>item, id: 0, transf: [r: 0.000°, t: (5.044, 5552.890)]</title>
</use>
<use transform="translate(3681.606 70.109665), rotate(-180)" xlink:href="#item_2">
<title>item, id: 2, transf: [r: -180.000°, t: (3681.606, 70.110)]</title>
</use>
<use transform="translate(4071.3596 859.89575), rotate(-180)" xlink:href="#item_2">
<title>item, id: 2, transf: [r: -180.000°, t: (4071.360, 859.896)]</title>
</use>
<use transform="translate(806.8552 3783.476), rotate(0)" xlink:href="#item_2">
<title>item, id: 2, transf: [r: 0.000°, t: (806.855, 3783.476)]</title>
</use>
<use transform="translate(4555.842 5131.0825), rotate(0)" xlink:href="#item_2">
<title>item, id: 2, transf: [r: 0.000°, t: (4555.842, 5131.083)]</title>
</use>
<use transform="translate(2527.234 5681.9453), rotate(0)" xlink:href="#item_2">
<title>item, id: 2, transf: [r: 0.000°, t: (2527.234, 5681.945)]</title>
</use>
<use transform="translate(4228.5825 4907.8955), rotate(-180)" xlink:href="#item_2">
<title>item, id: 2, transf: [r: -180.000°, t: (4228.583, 4907.896)]</title>
</use>
<use transform="translate(4416.4536 2557.7883), rotate(0)" xlink:href="#item_5">
<title>item, id: 5, transf: [r: 0.000°, t: (4416.454, 2557.788)]</title>
</use>
<use transform="translate(5691.424 2805.5715), rotate(-180)" xlink:href="#item_5">
<title>item, id: 5, transf: [r: -180.000°, t: (5691.424, 2805.572)]</title>
</use>
<use transform="translate(2778.5195 2713.4543), rotate(0)" xlink:href="#item_5">
<title>item, id: 5, transf: [r: 0.000°, t: (2778.520, 2713.454)]</title>
</use>
<use transform="translate(1748.0006 2550.6765), rotate(-180)" xlink:href="#item_6">
<title>item, id: 6, transf: [r: -180.000°, t: (1748.001, 2550.677)]</title>
</use>
<use transform="translate(40.063354 4159.4253), rotate(0)" xlink:href="#item_6">
<title>item, id: 6, transf: [r: 0.000°, t: (40.063, 4159.425)]</title>
</use>
<use transform="translate(1749.6039 822.8591), rotate(-180)" xlink:href="#item_6">
<title>item, id: 6, transf: [r: -180.000°, t: (1749.604, 822.859)]</title>
</use>
<use transform="translate(1969.972 4455.255), rotate(0)" xlink:href="#item_4">
<title>item, id: 4, transf: [r: 0.000°, t: (1969.972, 4455.255)]</title>
</use>
<use transform="translate(2212.8699 234.00357), rotate(-180)" xlink:href="#item_4">
<title>item, id: 4, transf: [r: -180.000°, t: (2212.870, 234.004)]</title>
</use>
<use transform="translate(2386.9897 3785.7876), rotate(0)" xlink:href="#item_4">
<title>item, id: 4, transf: [r: 0.000°, t: (2386.990, 3785.788)]</title>
</use>
<use transform="translate(2817.0542 3941.8936), rotate(-180)" xlink:href="#item_4">
<title>item, id: 4, transf: [r: -180.000°, t: (2817.054, 3941.894)]</title>
</use>
<use transform="translate(5203.4595 4644.352), rotate(0)" xlink:href="#item_4">
<title>item, id: 4, transf: [r: 0.000°, t: (5203.459, 4644.352)]</title>
</use>
<use transform="translate(1767.4355 2080.643), rotate(0)" xlink:href="#item_4">
<title>item, id: 4, transf: [r: 0.000°, t: (1767.436, 2080.643)]</title>
</use>
<use transform="translate(4153.9775 3955.7395), rotate(-180)" xlink:href="#item_7">
<title>item, id: 7, transf: [r: -180.000°, t: (4153.978, 3955.740)]</title>
</use>
<use transform="translate(4664.7095 1142.1447), rotate(0)" xlink:href="#item_7">
<title>item, id: 7, transf: [r: 0.000°, t: (4664.709, 1142.145)]</title>
</use>
<use transform="translate(1885.6543 5150.11), rotate(0)" xlink:href="#item_7">
<title>item, id: 7, transf: [r: 0.000°, t: (1885.654, 5150.110)]</title>
</use>
<use transform="translate(4028.02 4731.2954), rotate(0)" xlink:href="#item_7">
<title>item, id: 7, transf: [r: 0.000°, t: (4028.020, 4731.295)]</title>
</use>
<use transform="translate(4251.5967 1368.204), rotate(-180)" xlink:href="#item_7">
<title>item, id: 7, transf: [r: -180.000°, t: (4251.597, 1368.204)]</title>
</use>
<use transform="translate(2066.4485 4508.17), rotate(-180)" xlink:href="#item_7">
<title>item, id: 7, transf: [r: -180.000°, t: (2066.448, 4508.170)]</title>
</use>
<use transform="translate(1782.5894 1697.7186), rotate(-180)" xlink:href="#item_3">
<title>item, id: 3, transf: [r: -180.000°, t: (1782.589, 1697.719)]</title>
</use>
<use transform="translate(5095.1826 29.006035), rotate(-180)" xlink:href="#item_3">
<title>item, id: 3, transf: [r: -180.000°, t: (5095.183, 29.006)]</title>
</use>
<use transform="translate(4156.6675 5722.193), rotate(0)" xlink:href="#item_3">
<title>item, id: 3, transf: [r: 0.000°, t: (4156.667, 5722.193)]</title>
</use>
<use transform="translate(5692.1504 5305.9277), rotate(-180)" xlink:href="#item_3">
<title>item, id: 3, transf: [r: -180.000°, t: (5692.150, 5305.928)]</title>
</use>
<use transform="translate(2631.2136 4799.5684), rotate(0)" xlink:href="#item_3">
<title>item, id: 3, transf: [r: 0.000°, t: (2631.214, 4799.568)]</title>
</use>
<use transform="translate(1092.2605 5720.459), rotate(0)" xlink:href="#item_3">
<title>item, id: 3, transf: [r: 0.000°, t: (1092.260, 5720.459)]</title>
</use>
<use transform="translate(2642.1064 2607.0308), rotate(-180)" xlink:href="#item_1">
<title>item, id: 1, transf: [r: -180.000°, t: (2642.106, 2607.031)]</title>
</use>
<use transform="translate(4321.3843 4051.9888), rotate(0)" xlink:href="#item_1">
<title>item, id: 1, transf: [r: 0.000°, t: (4321.384, 4051.989)]</title>
</use>
<use transform="translate(2860.586 4225.0903), rotate(0)" xlink:href="#item_1">
<title>item, id: 1, transf: [r: 0.000°, t: (2860.586, 4225.090)]</title>
</use>
<use transform="translate(1084.7767 4601.35), rotate(0)" xlink:href="#item_1">
<title>item, id: 1, transf: [r: 0.000°, t: (1084.777, 4601.350)]</title>
</use>
<use transform="translate(2121.4812 1411.8617), rotate(0)" xlink:href="#item_1">
<title>item, id: 1, transf: [r: 0.000°, t: (2121.481, 1411.862)]</title>
</use>
<use transform="translate(1803.9406 2787.6848), rotate(0)" xlink:href="#item_1">
<title>item, id: 1, transf: [r: 0.000°, t: (1803.941, 2787.685)]</title>
</use>
<use transform="translate(4289.4297 3442.668), rotate(0)" xlink:href="#item_8">
<title>item, id: 8, transf: [r: 0.000°, t: (4289.430, 3442.668)]</title>
</use>
<use transform="translate(4870.751 507.62408), rotate(-180)" xlink:href="#item_8">
<title>item, id: 8, transf: [r: -180.000°, t: (4870.751, 507.624)]</title>
</use>
<use transform="translate(5225.458 3304.7324), rotate(-180)" xlink:href="#item_8">
<title>item, id: 8, transf: [r: -180.000°, t: (5225.458, 3304.732)]</title>
</use>
<use transform="translate(3751.191 3414.3298), rotate(-180)" xlink:href="#item_8">
<title>item, id: 8, transf: [r: -180.000°, t: (3751.191, 3414.330)]</title>
</use>
<use transform="translate(2447.8486 625.8274), rotate(0)" xlink:href="#item_8">
<title>item, id: 8, transf: [r: 0.000°, t: (2447.849, 625.827)]</title>
</use>
<use transform="translate(4230.086 3979.8633), rotate(0)" xlink:href="#item_8">
<title>item, id: 8, transf: [r: 0.000°, t: (4230.086, 3979.863)]</title>
</use>
</g>
<g id="quality_zones"/>
<g id="optionals">
<g id="overlap_lines" transform="translate(0 0), rotate(0)"/>
</g>
<text font-family="monospace" font-size="142.30684" font-weight="500" x="0" y="-71.15342">
height: 5752.000 | width: 5692.273 | usage: 77.714% | final_bench_95
</text>
</svg>