<svg viewBox="-287.32938 -287.60007 6321.2456 6327.2" xmlns="http://www.w3.org/2000/svg" xmlns:xlink="http://www.w3.org/1999/xlink">
<g id="bin_0">
<path d="M0,0 L5746.5864,0 L5746.5864,5752 L0,5752 z" fill="#D3D3D3" stroke="black" stroke-width="31.606228"/>
<title>bin, id: 0, bbox: [x_min: 0.000, y_min: 0.000, x_max: 5746.586, y_max: 5752.000]</title>
</g>
<g id="items">
<defs>
<g id="item_0">
<path d="M0,0 L-5,-321 L1,-642 L151,-660 L259,-691 L423,-738 L547,-770 L680,-801 L858,-837 L988,-682 L1075,-620 L1211,-553 L1319,-527 L1481,-526 L1597,-540 L1737,-564 L1719,-440 L1708,-317 L1718,-194 L1736,-70 L1596,-95 L1480,-109 L1318,-109 L1210,-83 L1074,-17 L986,45 L856,198.99997 L678,162 L545,131 L421,98 L257,50 L149,19 z" fill="#7A7A7A" fill-opacity="0.5" fill-rule="nonzero" stroke="black" stroke-width="15.803114"/>
</g>
<g id="item_1">
<path d="M0,0 L8,-148 L26.96225,-299.69812 L68.44348,-462.4321 L179,-449 L288,-446 L401,-463 L548,-497 L764.0157,-545.56165 L805,-350 L887,-196 L755,-176 L655,-155 L523,-121 L272,-52 L117.45331,-11.877289 z" fill="#7A7A7A" fill-opacity="0.5" fill-rule="nonzero" stroke="black" stroke-width="15.803114"/>
</g>
<g id="item_2">
<path d="M-159,-185 L-328,-228 L-474,-262 L-694.84607,-307.57144 L-806.64514,-359.47812 L-532,-384 L-408,-400 L-215,-443 L-77,-501 L130,-620 L264,-589 L477.87183,-543.8493 L652.5122,-485.0418 L766,-431 L893,-362 L1115,-258 L1125,-131 L1133,-7 L940,23 L792,45 L680,59 L524,70 L357.5263,70 L181,44 L0.9528198,4.1818695 z" fill="#7A7A7A" fill-opacity="0.5" fill-rule="nonzero" stroke="black" stroke-width="15.803114"/>
</g>
<g id="item_3">
<path d="M0,0 L8,-172 L309,-166 L484,-165 L616,-167 L718,-172 L876,-194 L1031,-248 L1351.455,-111.0968 L1209,-57 L1048.9706,-6.8212967 L909,16 L785,26 L668,29 L511,26 L213,14 z" fill="#7A7A7A" fill-opacity="0.5" fill-rule="nonzero" stroke="black" stroke-width="15.803114"/>
</g>
<g id="item_4">
<path d="M0,0 L33.96,-142.91501 L77,-268 L89,-388 L-826,-439 L-824,-598 L39,-607 L169,-650 L209,-800 L251,-940 L371,-924 L354,-726 L348,-610 L350,-412 L360,-264 L382,-94 L488.69122,232.11282 L352,54 L217,0 z" fill="#7A7A7A" fill-opacity="0.5" fill-rule="nonzero" stroke="black" stroke-width="15.803114"/>
</g>
<g id="item_5">
<path d="M0,-7.222229 L129.79999,-36.06665 L306.8846,22.961548 L495,110 L616,172 L737,238 L855,290 L959,313 L1071,306 L1275,255 L1260,394 L1250,499 L1260,606 L1275,745 L1071,694 L959,687 L855,710 L737,762 L616,828 L495,890 L306.8846,977.03845 L129.79999,1036.0667 L0,1007.2222 z" fill="#7A7A7A" fill-opacity="0.5" fill-rule="nonzero" stroke="black" stroke-width="15.803114"/>
</g>
<g id="item_6">
<path d="M0,0 L-4,-123 L-8,-291 L-17,-454 L-40,-620 L119,-619 L246,-538 L352,-501 L492,-458 L647,-416 L766,-369 L913,-302 L1061,-224 L1046,-100 L1037,2 L1061,224 L913,302 L766,369 L647,416 L492,458 L352,501 L246,538 L119,619 L-40,620 L-17,454 L-8,291 L-4,123 z" fill="#7A7A7A" fill-opacity="0.5" fill-rule="nonzero" stroke="black" stroke-width="15.803114"/>
</g>
<g id="item_7">
<path d="M-76,-85 L-178,-200 L-270,-306 L-412,-374 L-958,-383 L-954,-543 L-366,-560 L-269,-659 L-90,-708 L-4,-539 L40,-443 L94,-312 L140.2381,-190.31746 L189,-42 L4.524353,5.0601196 z" fill="#7A7A7A" fill-opacity="0.5" fill-rule="nonzero" stroke="black" stroke-width="15.803114"/>
</g>
<g id="item_8">
<path d="M-135.87357,-80.44827 L-238.0528,-203.06339 L-240.87814,-366.93304 L-197.36069,-485.8808 L-114.328445,-625.618 L-32.885136,-555.0338 L58.285713,-445 L118.14286,-305.33334 L108.69903,-151.08414 L7.1138,13.3871765 z" fill="#7A7A7A" fill-opacity="0.5" fill-rule="nonzero" stroke="black" stroke-width="15.803114"/>
</g>
<g id="item_9">
<path d="M-175.38889,-72.47955 L-304,-151 L-407,-193 L-510,-208 L-673,-192 L-790,-169 L-990,-124 L-1029,-292 L-760,-353 L-531,-404 L-413,-430 L-288,-510 L-252,-700 L-252,-862 L-274,-1015 L-533,-1157 L-762,-1207 L-1031,-1267 L-993,-1435 L-793,-1391 L-675,-1368 L-512,-1353 L-409,-1368 L-307,-1411 L-180.41176,-1488.2854 L6.421692,-1568.9188 L319,-1499 L270,-1290 L248,-1143 L241,-922 L242,-782 L242,-642 L246,-494 L257,-358 L322,-65 L15.847504,8.041077 z" fill="#7A7A7A" fill-opacity="0.5" fill-rule="nonzero" stroke="black" stroke-width="15.803114"/>
</g>
</defs>
<use transform="translate(2457.4263 1335.9048), rotate(-180)" xlink:href="#item_9">
<title>item, id: 9, transf: [r: -180.000°, t: (2457.426, 1335.905)]</title>
</use>
<use transform="translate(3758.8386 3592.9414), rotate(0)" xlink:href="#item_9">
<title>item, id: 9, transf: [r: 0.000°, t: (3758.839, 3592.941)]</title>
</use>
<use transform="translate(3014.9946 3426.043), rotate(-180)" xlink:href="#item_9">
<title>item, id: 9, transf: [r: -180.000°, t: (3014.995, 3426.043)]</title>
</use>
<use transform="translate(4009.5273 3156.8682), rotate(0)" xlink:href="#item_0">
<title>item, id: 0, transf: [r: 0.000°, t: (4009.527, 3156.868)]</title>
</use>
<use transform="translate(4008.706 1643.1759), rotate(0)" xlink:href="#item_0">
<title>item, id: 0, transf: [r: 0.000°, t: (4008.706, 1643.176)]</title>
</use>
<use transform="translate(5035.991 3882.2068), rotate(-180)" xlink:href="#item_0">
<title>item, id: 0, transf: [r: -180.000°, t: (5035.991, 3882.207)]</title>
</use>
<use transform="translate(2825.3577 5106.113), rotate(-180)" xlink:href="#item_2">
<title>item, id: 2, transf: [r: -180.000°, t: (2825.358, 5106.113)]</title>
</use>
<use transform="translate(1376.0054 1711.1643), rotate(-180)" xlink:href="#item_2">
<title>item, id: 2, transf: [r: -180.000°, t: (1376.005, 1711.164)]</title>
</use>
<use transform="translate(2630.415 1160.2876), rotate(0)" xlink:href="#item_2">
<title>item, id: 2, transf: [r: 0.000°, t: (2630.415, 1160.288)]</title>
</use>
<use transform="translate(2486.2734 70.09691), rotate(-180)" xlink:href="#item_2">
<title>item, id: 2, transf: [r: -180.000°, t: (2486.273, 70.097)]</title>
</use>
<use transform="translate(3528.6313 5411.3384), rotate(0)" xlink:href="#item_2">
<title>item, id: 2, transf: [r: 0.000°, t: (3528.631, 5411.338)]</title>
</use>
<use transform="translate(1251.0945 302.8171), rotate(-180)" xlink:href="#item_2">
<title>item, id: 2, transf: [r: -180.000°, t: (1251.094, 302.817)]</title>
</use>
<use transform="translate(5745.2095 1061.1865), rotate(-180)" xlink:href="#item_5">
<title>item, id: 5, transf: [r: -180.000°, t: (5745.209, 1061.187)]</title>
</use>
<use transform="translate(0.02420044 630.03174), rotate(0)" xlink:href="#item_5">
<title>item, id: 5, transf: [r: 0.000°, t: (0.024, 630.032)]</title>
</use>
<use transform="translate(5720.6416 2582.5864), rotate(-180)" xlink:href="#item_5">
<title>item, id: 5, transf: [r: -180.000°, t: (5720.642, 2582.586)]</title>
</use>
<use transform="translate(5706.024 4938.0806), rotate(-180)" xlink:href="#item_6">
<title>item, id: 6, transf: [r: -180.000°, t: (5706.024, 4938.081)]</title>
</use>
<use transform="translate(40.002777 2597.913), rotate(0)" xlink:href="#item_6">
<title>item, id: 6, transf: [r: 0.000°, t: (40.003, 2597.913)]</title>
</use>
<use transform="translate(2138.0425 2823.6206), rotate(-180)" xlink:href="#item_6">
<title>item, id: 6, transf: [r: -180.000°, t: (2138.042, 2823.621)]</title>
</use>
<use transform="translate(3633.8489 1852.2495), rotate(0)" xlink:href="#item_4">
<title>item, id: 4, transf: [r: 0.000°, t: (3633.849, 1852.250)]</title>
</use>
<use transform="translate(1870.6842 4427.303), rotate(-180)" xlink:href="#item_4">
<title>item, id: 4, transf: [r: -180.000°, t: (1870.684, 4427.303)]</title>
</use>
<use transform="translate(2281.6736 4229.568), rotate(0)" xlink:href="#item_4">
<title>item, id: 4, transf: [r: 0.000°, t: (2281.674, 4229.568)]</title>
</use>
<use transform="translate(5037.9004 4003.8352), rotate(0)" xlink:href="#item_4">
<title>item, id: 4, transf: [r: 0.000°, t: (5037.900, 4003.835)]</title>
</use>
<use transform="translate(489.28842 4116.5913), rotate(-180)" xlink:href="#item_4">
<title>item, id: 4, transf: [r: -180.000°, t: (489.288, 4116.591)]</title>
</use>
<use transform="translate(1119.3689 5459.0176), rotate(0)" xlink:href="#item_4">
<title>item, id: 4, transf: [r: 0.000°, t: (1119.369, 5459.018)]</title>
</use>
<use transform="translate(1625.0198 727.0033), rotate(-180)" xlink:href="#item_7">
<title>item, id: 7, transf: [r: -180.000°, t: (1625.020, 727.003)]</title>
</use>
<use transform="translate(1698.2727 1933.5061), rotate(0)" xlink:href="#item_7">
<title>item, id: 7, transf: [r: 0.000°, t: (1698.273, 1933.506)]</title>
</use>
<use transform="translate(1100.2644 3062.7515), rotate(-180)" xlink:href="#item_7">
<title>item, id: 7, transf: [r: -180.000°, t: (1100.264, 3062.751)]</title>
</use>
<use transform="translate(4060.2734 989.3363), rotate(0)" xlink:href="#item_7">
<title>item, id: 7, transf: [r: 0.000°, t: (4060.273, 989.336)]</title>
</use>
<use transform="translate(958.4423 3799.2788), rotate(0)" xlink:href="#item_7">
<title>item, id: 7, transf: [r: 0.000°, t: (958.442, 3799.279)]</title>
</use>
<use transform="translate(450.795 3428.7273), rotate(-180)" xlink:href="#item_7">
<title>item, id: 7, transf: [r: -180.000°, t: (450.795, 3428.727)]</title>
</use>
<use transform="translate(4337.8564 5722.969), rotate(0)" xlink:href="#item_3">
<title>item, id: 3, transf: [r: 0.000°, t: (4337.856, 5722.969)]</title>
</use>
<use transform="translate(1351.623 29.014648), rotate(-180)" xlink:href="#item_3">
<title>item, id: 3, transf: [r: -180.000°, t: (1351.623, 29.015)]</title>
</use>
<use transform="translate(3946.641 29.01812), rotate(-180)" xlink:href="#item_3">
<title>item, id: 3, transf: [r: -180.000°, t: (3946.641, 29.018)]</title>
</use>
<use transform="translate(4306.0044 5503.989), rotate(-180)" xlink:href="#item_3">
<title>item, id: 3, transf: [r: -180.000°, t: (4306.004, 5503.989)]</title>
</use>
<use transform="translate(1445.2689 5503.9663), rotate(-180)" xlink:href="#item_3">
<title>item, id: 3, transf: [r: -180.000°, t: (1445.269, 5503.966)]</title>
</use>
<use transform="translate(3944.65 248.01501), rotate(0)" xlink:href="#item_3">
<title>item, id: 3, transf: [r: 0.000°, t: (3944.650, 248.015)]</title>
</use>
<use transform="translate(3650.0015 1638.6573), rotate(-180)" xlink:href="#item_1">
<title>item, id: 1, transf: [r: -180.000°, t: (3650.001, 1638.657)]</title>
</use>
<use transform="translate(2559.6697 3292.7966), rotate(0)" xlink:href="#item_1">
<title>item, id: 1, transf: [r: 0.000°, t: (2559.670, 3292.797)]</title>
</use>
<use transform="translate(0.1060791 5596.2085), rotate(0)" xlink:href="#item_1">
<title>item, id: 1, transf: [r: 0.000°, t: (0.106, 5596.208)]</title>
</use>
<use transform="translate(1827.5109 4817.762), rotate(0)" xlink:href="#item_1">
<title>item, id: 1, transf: [r: 0.000°, t: (1827.511, 4817.762)]</title>
</use>
<use transform="translate(1399.0598 3972.1033), rotate(-180)" xlink:href="#item_1">
<title>item, id: 1, transf: [r: -180.000°, t: (1399.060, 3972.103)]</title>
</use>
<use transform="translate(2328.3936 3839.2166), rotate(-180)" xlink:href="#item_1">
<title>item, id: 1, transf: [r: -180.000°, t: (2328.394, 3839.217)]</title>
</use>
<use transform="translate(5627.919 3752.4858), rotate(0)" xlink:href="#item_8">
<title>item, id: 8, transf: [r: 0.000°, t: (5627.919, 3752.486)]</title>
</use>
<use transform="translate(2305.3472 2884.1018), rotate(-180)" xlink:href="#item_8">
<title>item, id: 8, transf: [r: -180.000°, t: (2305.347, 2884.102)]</title>
</use>
<use transform="translate(259.01123 4098.602), rotate(0)" xlink:href="#item_8">
<title>item, id: 8, transf: [r: 0.000°, t: (259.011, 4098.602)]</title>
</use>
<use transform="translate(4245.0913 287.8125), rotate(-180)" xlink:href="#item_8">
<title>item, id: 8, transf: [r: -180.000°, t: (4245.091, 287.812)]</title>
</use>
<use transform="translate(1934.972 1376.8701), rotate(-180)" xlink:href="#item_8">
<title>item, id: 8, transf: [r: -180.000°, t: (1934.972, 1376.870)]</title>
</use>
<use transform="translate(4212.943 1690.3286), rotate(-180)" xlink:href="#item_8">
<title>item, id: 8, transf: [r: -180.000°, t: (4212.943, 1690.329)]</title>
</use>
</g>
<g id="quality_zones"/>
<g id="optionals">
<g id="overlap_lines" transform="translate(0 0), rotate(0)"/>
</g>
<text font-family="monospace" font-size="143.66466" font-weight="500" x="0" y="-71.83233">
height: 5752.000 | width: 5746.586 | usage: 76.979% | final_bench_70
</text>
</svg>