<svg viewBox="-285.30063 -287.60007 6276.613 6327.2" xmlns="http://www.w3.org/2000/svg" xmlns:xlink="http://www.w3.org/1999/xlink">
<g id="bin_0">
<path d="M0,0 L5706.011,0 L5706.011,5752 L0,5752 z" fill="#D3D3D3" stroke="black" stroke-width="31.383066"/>
<title>bin, id: 0, bbox: [x_min: 0.000, y_min: 0.000, x_max: 5706.011, y_max: 5752.000]</title>
</g>
<g id="items">
<defs>
<g id="item_0">
<path d="M0,0 L-5,-321 L1,-642 L151,-660 L259,-691 L423,-738 L547,-770 L680,-801 L858,-837 L988,-682 L1075,-620 L1211,-553 L1319,-527 L1481,-526 L1597,-540 L1737,-564 L1719,-440 L1708,-317 L1718,-194 L1736,-70 L1596,-95 L1480,-109 L1318,-109 L1210,-83 L1074,-17 L986,45 L856,198.99997 L678,162 L545,131 L421,98 L257,50 L149,19 z" fill="#7A7A7A" fill-opacity="0.5" fill-rule="nonzero" stroke="black" stroke-width="15.691533"/>
</g>
<g id="item_1">
<path d="M0,0 L8,-148 L26.96225,-299.69812 L68.44348,-462.4321 L179,-449 L288,-446 L401,-463 L548,-497 L764.0157,-545.56165 L805,-350 L887,-196 L755,-176 L655,-155 L523,-121 L272,-52 L117.45331,-11.877289 z" fill="#7A7A7A" fill-opacity="0.5" fill-rule="nonzero" stroke="black" stroke-width="15.691533"/>
</g>
<g id="item_2">
<path d="M-159,-185 L-328,-228 L-474,-262 L-694.84607,-307.57144 L-806.64514,-359.47812 L-532,-384 L-408,-400 L-215,-443 L-77,-501 L130,-620 L264,-589 L477.87183,-543.8493 L652.5122,-485.0418 L766,-431 L893,-362 L1115,-258 L1125,-131 L1133,-7 L940,23 L792,45 L680,59 L524,70 L357.5263,70 L181,44 L0.9528198,4.1818695 z" fill="#7A7A7A" fill-opacity="0.5" fill-rule="nonzero" stroke="black" stroke-width="15.691533"/>
</g>
<g id="item_3">
<path d="M0,0 L8,-172 L309,-166 L484,-165 L616,-167 L718,-172 L876,-194 L1031,-248 L1351.455,-111.0968 L1209,-57 L1048.9706,-6.8212967 L909,16 L785,26 L668,29 L511,26 L213,14 z" fill="#7A7A7A" fill-opacity="0.5" fill-rule="nonzero" stroke="black" stroke-width="15.691533"/>
</g>
<g id="item_4">
<path d="M0,0 L33.96,-142.91501 L77,-268 L89,-388 L-826,-439 L-824,-598 L39,-607 L169,-650 L209,-800 L251,-940 L371,-924 L354,-726 L348,-610 L350,-412 L360,-264 L382,-94 L488.69122,232.11282 L352,54 L217,0 z" fill="#7A7A7A" fill-opacity="0.5" fill-rule="nonzero" stroke="black" stroke-width="15.691533"/>
</g>
<g id="item_5">
<path d="M0,-7.222229 L129.79999,-36.06665 L306.8846,22.961548 L495,110 L616,172 L737,238 L855,290 L959,313 L1071,306 L1275,255 L1260,394 L1250,499 L1260,606 L1275,745 L1071,694 L959,687 L855,710 L737,762 L616,828 L495,890 L306.8846,977.03845 L129.79999,1036.0667 L0,1007.2222 z" fill="#7A7A7A" fill-opacity="0.5" fill-rule="nonzero" stroke="black" stroke-width="15.691533"/>
</g>
<g id="item_6">
<path d="M0,0 L-4,-123 L-8,-291 L-17,-454 L-40,-620 L119,-619 L246,-538 L352,-501 L492,-458 L647,-416 L766,-369 L913,-302 L1061,-224 L1046,-100 L1037,2 L1061,224 L913,302 L766,369 L647,416 L492,458 L352,501 L246,538 L119,619 L-40,620 L-17,454 L-8,291 L-4,123 z" fill="#7A7A7A" fill-opacity="0.5" fill-rule="nonzero" stroke="black" stroke-width="15.691533"/>
</g>
<g id="item_7">
<path d="M-76,-85 L-178,-200 L-270,-306 L-412,-374 L-958,-383 L-954,-543 L-366,-560 L-269,-659 L-90,-708 L-4,-539 L40,-443 L94,-312 L140.2381,-190.31746 L189,-42 L4.524353,5.0601196 z" fill="#7A7A7A" fill-opacity="0.5" fill-rule="nonzero" stroke="black" stroke-width="15.691533"/>
</g>
<g id="item_8">
<path d="M-135.87357,-80.44827 L-238.0528,-203.06339 L-240.87814,-366.93304 L-197.36069,-485.8808 L-114.328445,-625.618 L-32.885136,-555.0338 L58.285713,-445 L118.14286,-305.33334 L108.69903,-151.08414 L7.1138,13.3871765 z" fill="#7A7A7A" fill-opacity="0.5" fill-rule="nonzero" stroke="black" stroke-width="15.691533"/>
</g>
<g id="item_9">
<path d="M-175.38889,-72.47955 L-304,-151 L-407,-193 L-510,-208 L-673,-192 L-790,-169 L-990,-124 L-1029,-292 L-760,-353 L-531,-404 L-413,-430 L-288,-510 L-252,-700 L-252,-862 L-274,-1015 L-533,-1157 L-762,-1207 L-1031,-1267 L-993,-1435 L-793,-1391 L-675,-1368 L-512,-1353 L-409,-1368 L-307,-1411 L-180.41176,-1488.2854 L6.421692,-1568.9188 L319,-1499 L270,-1290 L248,-1143 L241,-922 L242,-782 L242,-642 L246,-494 L257,-358 L322,-65 L15.847504,8.041077 z" fill="#7A7A7A" fill-opacity="0.5" fill-rule="nonzero" stroke="black" stroke-width="15.691533"/>
</g>
</defs>
<use transform="translate(2026.0676 2617.0232), rotate(0)" xlink:href="#item_9">
<title>item, id: 9, transf: [r: 0.000°, t: (2026.068, 2617.023)]</title>
</use>
<use transform="translate(5383.9043 5681.0645), rotate(0)" xlink:href="#item_9">
<title>item, id: 9, transf: [r: 0.000°, t: (5383.904, 5681.064)]</title>
</use>
<use transform="translate(322.036 2322.328), rotate(-180)" xlink:href="#item_9">
<title>item, id: 9, transf: [r: -180.000°, t: (322.036, 2322.328)]</title>
</use>
<use transform="translate(1737.4098 3881.509), rotate(-180)" xlink:href="#item_0">
<title>item, id: 0, transf: [r: -180.000°, t: (1737.410, 3881.509)]</title>
</use>
<use transform="translate(5.0109863 2161.3335), rotate(0)" xlink:href="#item_0">
<title>item, id: 0, transf: [r: 0.000°, t: (5.011, 2161.333)]</title>
</use>
<use transform="translate(5571.03 3442.8901), rotate(-180)" xlink:href="#item_0">
<title>item, id: 0, transf: [r: -180.000°, t: (5571.030, 3442.890)]</title>
</use>
<use transform="translate(1430.0133 5681.807), rotate(0)" xlink:href="#item_2">
<title>item, id: 2, transf: [r: 0.000°, t: (1430.013, 5681.807)]</title>
</use>
<use transform="translate(1971.4884 3700.9966), rotate(0)" xlink:href="#item_2">
<title>item, id: 2, transf: [r: 0.000°, t: (1971.488, 3700.997)]</title>
</use>
<use transform="translate(3700.306 75.14055), rotate(-180)" xlink:href="#item_2">
<title>item, id: 2, transf: [r: -180.000°, t: (3700.306, 75.141)]</title>
</use>
<use transform="translate(3565.9827 5115.5063), rotate(-180)" xlink:href="#item_2">
<title>item, id: 2, transf: [r: -180.000°, t: (3565.983, 5115.506)]</title>
</use>
<use transform="translate(3716.2095 5284.7803), rotate(0)" xlink:href="#item_2">
<title>item, id: 2, transf: [r: 0.000°, t: (3716.209, 5284.780)]</title>
</use>
<use transform="translate(1133.0378 70.356155), rotate(-180)" xlink:href="#item_2">
<title>item, id: 2, transf: [r: -180.000°, t: (1133.038, 70.356)]</title>
</use>
<use transform="translate(3.495453 466.69983), rotate(0)" xlink:href="#item_5">
<title>item, id: 5, transf: [r: 0.000°, t: (3.495, 466.700)]</title>
</use>
<use transform="translate(0.9567261 4461.3115), rotate(0)" xlink:href="#item_5">
<title>item, id: 5, transf: [r: 0.000°, t: (0.957, 4461.312)]</title>
</use>
<use transform="translate(3204.1345 3366.4885), rotate(-180)" xlink:href="#item_5">
<title>item, id: 5, transf: [r: -180.000°, t: (3204.135, 3366.489)]</title>
</use>
<use transform="translate(5665.638 620.55865), rotate(-180)" xlink:href="#item_6">
<title>item, id: 6, transf: [r: -180.000°, t: (5665.638, 620.559)]</title>
</use>
<use transform="translate(2365.1575 1822.9911), rotate(0)" xlink:href="#item_6">
<title>item, id: 6, transf: [r: 0.000°, t: (2365.157, 1822.991)]</title>
</use>
<use transform="translate(4644.9976 1546.9045), rotate(0)" xlink:href="#item_6">
<title>item, id: 6, transf: [r: 0.000°, t: (4644.998, 1546.905)]</title>
</use>
<use transform="translate(5217.294 3364.5225), rotate(0)" xlink:href="#item_4">
<title>item, id: 4, transf: [r: 0.000°, t: (5217.294, 3364.522)]</title>
</use>
<use transform="translate(2113.9417 3736.4897), rotate(-180)" xlink:href="#item_4">
<title>item, id: 4, transf: [r: -180.000°, t: (2113.942, 3736.490)]</title>
</use>
<use transform="translate(3652.111 3615.4553), rotate(-180)" xlink:href="#item_4">
<title>item, id: 4, transf: [r: -180.000°, t: (3652.111, 3615.455)]</title>
</use>
<use transform="translate(4251.6353 2530.7744), rotate(0)" xlink:href="#item_4">
<title>item, id: 4, transf: [r: 0.000°, t: (4251.635, 2530.774)]</title>
</use>
<use transform="translate(2876.5315 4564.5576), rotate(0)" xlink:href="#item_4">
<title>item, id: 4, transf: [r: 0.000°, t: (2876.531, 4564.558)]</title>
</use>
<use transform="translate(4449.406 2544.2427), rotate(-180)" xlink:href="#item_4">
<title>item, id: 4, transf: [r: -180.000°, t: (4449.406, 2544.243)]</title>
</use>
<use transform="translate(3663.9114 829.2854), rotate(-180)" xlink:href="#item_7">
<title>item, id: 7, transf: [r: -180.000°, t: (3663.911, 829.285)]</title>
</use>
<use transform="translate(2320.08 4346.073), rotate(-180)" xlink:href="#item_7">
<title>item, id: 7, transf: [r: -180.000°, t: (2320.080, 4346.073)]</title>
</use>
<use transform="translate(2418.2065 1030.7958), rotate(0)" xlink:href="#item_7">
<title>item, id: 7, transf: [r: 0.000°, t: (2418.207, 1030.796)]</title>
</use>
<use transform="translate(2569.656 315.716), rotate(-180)" xlink:href="#item_7">
<title>item, id: 7, transf: [r: -180.000°, t: (2569.656, 315.716)]</title>
</use>
<use transform="translate(2238.8708 5267.06), rotate(0)" xlink:href="#item_7">
<title>item, id: 7, transf: [r: 0.000°, t: (2238.871, 5267.060)]</title>
</use>
<use transform="translate(3523.7246 1569.6301), rotate(0)" xlink:href="#item_7">
<title>item, id: 7, transf: [r: 0.000°, t: (3523.725, 1569.630)]</title>
</use>
<use transform="translate(6.553406 5714.3325), rotate(0)" xlink:href="#item_3">
<title>item, id: 3, transf: [r: 0.000°, t: (6.553, 5714.333)]</title>
</use>
<use transform="translate(2548.9365 29.035255), rotate(-180)" xlink:href="#item_3">
<title>item, id: 3, transf: [r: -180.000°, t: (2548.937, 29.035)]</title>
</use>
<use transform="translate(3850.518 248.3306), rotate(0)" xlink:href="#item_3">
<title>item, id: 3, transf: [r: 0.000°, t: (3850.518, 248.331)]</title>
</use>
<use transform="translate(588.4565 3284.2534), rotate(0)" xlink:href="#item_3">
<title>item, id: 3, transf: [r: 0.000°, t: (588.456, 3284.253)]</title>
</use>
<use transform="translate(4316.4795 2145.9941), rotate(-180)" xlink:href="#item_3">
<title>item, id: 3, transf: [r: -180.000°, t: (4316.479, 2145.994)]</title>
</use>
<use transform="translate(3850.5981 5722.9873), rotate(0)" xlink:href="#item_3">
<title>item, id: 3, transf: [r: 0.000°, t: (3850.598, 5722.987)]</title>
</use>
<use transform="translate(1600.6163 2570.8435), rotate(-180)" xlink:href="#item_1">
<title>item, id: 1, transf: [r: -180.000°, t: (1600.616, 2570.844)]</title>
</use>
<use transform="translate(4497.8364 1376.1571), rotate(-180)" xlink:href="#item_1">
<title>item, id: 1, transf: [r: -180.000°, t: (4497.836, 1376.157)]</title>
</use>
<use transform="translate(3407.255 4762.3906), rotate(0)" xlink:href="#item_1">
<title>item, id: 1, transf: [r: 0.000°, t: (3407.255, 4762.391)]</title>
</use>
<use transform="translate(4099.451 3004.2124), rotate(-180)" xlink:href="#item_1">
<title>item, id: 1, transf: [r: -180.000°, t: (4099.451, 3004.212)]</title>
</use>
<use transform="translate(5524.9487 1993.9797), rotate(-180)" xlink:href="#item_1">
<title>item, id: 1, transf: [r: -180.000°, t: (5524.949, 1993.980)]</title>
</use>
<use transform="translate(1280.6636 1222.672), rotate(0)" xlink:href="#item_1">
<title>item, id: 1, transf: [r: 0.000°, t: (1280.664, 1222.672)]</title>
</use>
<use transform="translate(3524.6655 3065.8977), rotate(0)" xlink:href="#item_8">
<title>item, id: 8, transf: [r: 0.000°, t: (3524.666, 3065.898)]</title>
</use>
<use transform="translate(4003.24 576.0727), rotate(-180)" xlink:href="#item_8">
<title>item, id: 8, transf: [r: -180.000°, t: (4003.240, 576.073)]</title>
</use>
<use transform="translate(3782.9377 2391.1243), rotate(-180)" xlink:href="#item_8">
<title>item, id: 8, transf: [r: -180.000°, t: (3782.938, 2391.124)]</title>
</use>
<use transform="translate(4881.2026 4566.8237), rotate(-180)" xlink:href="#item_8">
<title>item, id: 8, transf: [r: -180.000°, t: (4881.203, 4566.824)]</title>
</use>
<use transform="translate(1830.3392 3115.3958), rotate(0)" xlink:href="#item_8">
<title>item, id: 8, transf: [r: 0.000°, t: (1830.339, 3115.396)]</title>
</use>
<use transform="translate(4364.122 541.5844), rotate(-180)" xlink:href="#item_8">
<title>item, id: 8, transf: [r: -180.000°, t: (4364.122, 541.584)]</title>
</use>
</g>
<g id="quality_zones"/>
<g id="optionals">
<g id="overlap_lines" transform="translate(0 0), rotate(0)"/>
</g>
<text font-family="monospace" font-size="142.65028" font-weight="500" x="0" y="-71.32514">
height: 5752.000 | width: 5706.011 | usage: 77.527% | final_bench_52
</text>
</svg>