<svg viewBox="-284.09772 -287.60007 6250.1484 6327.2" xmlns="http://www.w3.org/2000/svg" xmlns:xlink="http://www.w3.org/1999/xlink">
<g id="bin_0">
<path d="M0,0 L5681.953,0 L5681.953,5752 L0,5752 z" fill="#D3D3D3" stroke="black" stroke-width="31.250744"/>
<title>bin, id: 0, bbox: [x_min: 0.000, y_min: 0.000, x_max: 5681.953, y_max: 5752.000]</title>
</g>
<g id="items">
<defs>
<g id="item_0">
<path d="M0,0 L-5,-321 L1,-642 L151,-660 L259,-691 L423,-738 L547,-770 L680,-801 L858,-837 L988,-682 L1075,-620 L1211,-553 L1319,-527 L1481,-526 L1597,-540 L1737,-564 L1719,-440 L1708,-317 L1718,-194 L1736,-70 L1596,-95 L1480,-109 L1318,-109 L1210,-83 L1074,-17 L986,45 L856,198.99997 L678,162 L545,131 L421,98 L257,50 L149,19 z" fill="#7A7A7A" fill-opacity="0.5" fill-rule="nonzero" stroke="black" stroke-width="15.625372"/>
</g>
<g id="item_1">
<path d="M0,0 L8,-148 L26.96225,-299.69812 L68.44348,-462.4321 L179,-449 L288,-446 L401,-463 L548,-497 L764.0157,-545.56165 L805,-350 L887,-196 L755,-176 L655,-155 L523,-121 L272,-52 L117.45331,-11.877289 z" fill="#7A7A7A" fill-opacity="0.5" fill-rule="nonzero" stroke="black" stroke-width="15.625372"/>
</g>
<g id="item_2">
<path d="M-159,-185 L-328,-228 L-474,-262 L-694.84607,-307.57144 L-806.64514,-359.47812 L-532,-384 L-408,-400 L-215,-443 L-77,-501 L130,-620 L264,-589 L477.87183,-543.8493 L652.5122,-485.0418 L766,-431 L893,-362 L1115,-258 L1125,-131 L1133,-7 L940,23 L792,45 L680,59 L524,70 L357.5263,70 L181,44 L0.9528198,4.1818695 z" fill="#7A7A7A" fill-opacity="0.5" fill-rule="nonzero" stroke="black" stroke-width="15.625372"/>
</g>
<g id="item_3">
<path d="M0,0 L8,-172 L309,-166 L484,-165 L616,-167 L718,-172 L876,-194 L1031,-248 L1351.455,-111.0968 L1209,-57 L1048.9706,-6.8212967 L909,16 L785,26 L668,29 L511,26 L213,14 z" fill="#7A7A7A" fill-opacity="0.5" fill-rule="nonzero" stroke="black" stroke-width="15.625372"/>
</g>
<g id="item_4">
<path d="M0,0 L33.96,-142.91501 L77,-268 L89,-388 L-826,-439 L-824,-598 L39,-607 L169,-650 L209,-800 L251,-940 L371,-924 L354,-726 L348,-610 L350,-412 L360,-264 L382,-94 L488.69122,232.11282 L352,54 L217,0 z" fill="#7A7A7A" fill-opacity="0.5" fill-rule="nonzero" stroke="black" stroke-width="15.625372"/>
</g>
<g id="item_5">
<path d="M0,-7.222229 L129.79999,-36.06665 L306.8846,22.961548 L495,110 L616,172 L737,238 L855,290 L959,313 L1071,306 L1275,255 L1260,394 L1250,499 L1260,606 L1275,745 L1071,694 L959,687 L855,710 L737,762 L616,828 L495,890 L306.8846,977.03845 L129.79999,1036.0667 L0,1007.2222 z" fill="#7A7A7A" fill-opacity="0.5" fill-rule="nonzero" stroke="black" stroke-width="15.625372"/>
</g>
<g id="item_6">
<path d="M0,0 L-4,-123 L-8,-291 L-17,-454 L-40,-620 L119,-619 L246,-538 L352,-501 L492,-458 L647,-416 L766,-369 L913,-302 L1061,-224 L1046,-100 L1037,2 L1061,224 L913,302 L766,369 L647,416 L492,458 L352,501 L246,538 L119,619 L-40,620 L-17,454 L-8,291 L-4,123 z" fill="#7A7A7A" fill-opacity="0.5" fill-rule="nonzero" stroke="black" stroke-width="15.625372"/>
</g>
<g id="item_7">
<path d="M-76,-85 L-178,-200 L-270,-306 L-412,-374 L-958,-383 L-954,-543 L-366,-560 L-269,-659 L-90,-708 L-4,-539 L40,-443 L94,-312 L140.2381,-190.31746 L189,-42 L4.524353,5.0601196 z" fill="#7A7A7A" fill-opacity="0.5" fill-rule="nonzero" stroke="black" stroke-width="15.625372"/>
</g>
<g id="item_8">
<path d="M-135.87357,-80.44827 L-238.0528,-203.06339 L-240.87814,-366.93304 L-197.36069,-485.8808 L-114.328445,-625.618 L-32.885136,-555.0338 L58.285713,-445 L118.14286,-305.33334 L108.69903,-151.08414 L7.1138,13.3871765 z" fill="#7A7A7A" fill-opacity="0.5" fill-rule="nonzero" stroke="black" stroke-width="15.625372"/>
</g>
<g id="item_9">
<path d="M-175.38889,-72.47955 L-304,-151 L-407,-193 L-510,-208 L-673,-192 L-790,-169 L-990,-124 L-1029,-292 L-760,-353 L-531,-404 L-413,-430 L-288,-510 L-252,-700 L-252,-862 L-274,-1015 L-533,-1157 L-762,-1207 L-1031,-1267 L-993,-1435 L-793,-1391 L-675,-1368 L-512,-1353 L-409,-1368 L-307,-1411 L-180.41176,-1488.2854 L6.421692,-1568.9188 L319,-1499 L270,-1290 L248,-1143 L241,-922 L242,-782 L242,-642 L246,-494 L257,-358 L322,-65 L15.847504,8.041077 z" fill="#7A7A7A" fill-opacity="0.5" fill-rule="nonzero" stroke="black" stroke-width="15.625372"/>
</g>
</defs>
<use transform="translate(322.00497 8.06665), rotate(-180)" xlink:href="#item_9">
<title>item, id: 9, transf: [r: -180.000°, t: (322.005, 8.067)]</title>
</use>
<use transform="translate(322.01657 1710.8333), rotate(-180)" xlink:href="#item_9">
<title>item, id: 9, transf: [r: -180.000°, t: (322.017, 1710.833)]</title>
</use>
<use transform="translate(322.0171 3285.758), rotate(-180)" xlink:href="#item_9">
<title>item, id: 9, transf: [r: -180.000°, t: (322.017, 3285.758)]</title>
</use>
<use transform="translate(5319.165 1885.703), rotate(-180)" xlink:href="#item_0">
<title>item, id: 0, transf: [r: -180.000°, t: (5319.165, 1885.703)]</title>
</use>
<use transform="translate(5667.9756 199.00662), rotate(-180)" xlink:href="#item_0">
<title>item, id: 0, transf: [r: -180.000°, t: (5667.976, 199.007)]</title>
</use>
<use transform="translate(2347.3386 447.95236), rotate(-180)" xlink:href="#item_0">
<title>item, id: 0, transf: [r: -180.000°, t: (2347.339, 447.952)]</title>
</use>
<use transform="translate(3946.0762 3062.4377), rotate(-180)" xlink:href="#item_2">
<title>item, id: 2, transf: [r: -180.000°, t: (3946.076, 3062.438)]</title>
</use>
<use transform="translate(2864.5256 3368.156), rotate(-180)" xlink:href="#item_2">
<title>item, id: 2, transf: [r: -180.000°, t: (2864.526, 3368.156)]</title>
</use>
<use transform="translate(2766.0337 688.96173), rotate(0)" xlink:href="#item_2">
<title>item, id: 2, transf: [r: 0.000°, t: (2766.034, 688.962)]</title>
</use>
<use transform="translate(1686.8944 5399.666), rotate(0)" xlink:href="#item_2">
<title>item, id: 2, transf: [r: 0.000°, t: (1686.894, 5399.666)]</title>
</use>
<use transform="translate(4187.4873 5681.947), rotate(0)" xlink:href="#item_2">
<title>item, id: 2, transf: [r: 0.000°, t: (4187.487, 5681.947)]</title>
</use>
<use transform="translate(1133.2434 5127.3735), rotate(-180)" xlink:href="#item_2">
<title>item, id: 2, transf: [r: -180.000°, t: (1133.243, 5127.374)]</title>
</use>
<use transform="translate(4406.7886 3477.49), rotate(0)" xlink:href="#item_5">
<title>item, id: 5, transf: [r: 0.000°, t: (4406.789, 3477.490)]</title>
</use>
<use transform="translate(3312.0762 4271.359), rotate(0)" xlink:href="#item_5">
<title>item, id: 5, transf: [r: 0.000°, t: (3312.076, 4271.359)]</title>
</use>
<use transform="translate(4406.3916 4544.6406), rotate(-180)" xlink:href="#item_5">
<title>item, id: 5, transf: [r: -180.000°, t: (4406.392, 4544.641)]</title>
</use>
<use transform="translate(5641.9478 4843.127), rotate(-180)" xlink:href="#item_6">
<title>item, id: 6, transf: [r: -180.000°, t: (5641.948, 4843.127)]</title>
</use>
<use transform="translate(5641.6597 3108.5493), rotate(-180)" xlink:href="#item_6">
<title>item, id: 6, transf: [r: -180.000°, t: (5641.660, 3108.549)]</title>
</use>
<use transform="translate(3555.4944 1929.7771), rotate(-180)" xlink:href="#item_6">
<title>item, id: 6, transf: [r: -180.000°, t: (3555.494, 1929.777)]</title>
</use>
<use transform="translate(4433.0166 993.25037), rotate(-180)" xlink:href="#item_4">
<title>item, id: 4, transf: [r: -180.000°, t: (4433.017, 993.250)]</title>
</use>
<use transform="translate(5193.1846 1821.1611), rotate(0)" xlink:href="#item_4">
<title>item, id: 4, transf: [r: 0.000°, t: (5193.185, 1821.161)]</title>
</use>
<use transform="translate(2114.9402 2272.5452), rotate(0)" xlink:href="#item_4">
<title>item, id: 4, transf: [r: 0.000°, t: (2114.940, 2272.545)]</title>
</use>
<use transform="translate(2989.8728 2389.7908), rotate(-180)" xlink:href="#item_4">
<title>item, id: 4, transf: [r: -180.000°, t: (2989.873, 2389.791)]</title>
</use>
<use transform="translate(1373.5488 3769.9028), rotate(0)" xlink:href="#item_4">
<title>item, id: 4, transf: [r: 0.000°, t: (1373.549, 3769.903)]</title>
</use>
<use transform="translate(2837.215 709.5691), rotate(-180)" xlink:href="#item_4">
<title>item, id: 4, transf: [r: -180.000°, t: (2837.215, 709.569)]</title>
</use>
<use transform="translate(4073.9404 3120.798), rotate(0)" xlink:href="#item_7">
<title>item, id: 7, transf: [r: 0.000°, t: (4073.940, 3120.798)]</title>
</use>
<use transform="translate(1782.8967 3917.3186), rotate(-180)" xlink:href="#item_7">
<title>item, id: 7, transf: [r: -180.000°, t: (1782.897, 3917.319)]</title>
</use>
<use transform="translate(3890.918 1405.3346), rotate(0)" xlink:href="#item_7">
<title>item, id: 7, transf: [r: 0.000°, t: (3890.918, 1405.335)]</title>
</use>
<use transform="translate(1680.8839 4753.2627), rotate(0)" xlink:href="#item_7">
<title>item, id: 7, transf: [r: 0.000°, t: (1680.884, 4753.263)]</title>
</use>
<use transform="translate(3046.0596 4622.7056), rotate(0)" xlink:href="#item_7">
<title>item, id: 7, transf: [r: 0.000°, t: (3046.060, 4622.706)]</title>
</use>
<use transform="translate(2826.0928 5168.422), rotate(0)" xlink:href="#item_7">
<title>item, id: 7, transf: [r: 0.000°, t: (2826.093, 5168.422)]</title>
</use>
<use transform="translate(4622.331 29.005302), rotate(-180)" xlink:href="#item_3">
<title>item, id: 3, transf: [r: -180.000°, t: (4622.331, 29.005)]</title>
</use>
<use transform="translate(1578.29 1499.625), rotate(-180)" xlink:href="#item_3">
<title>item, id: 3, transf: [r: -180.000°, t: (1578.290, 1499.625)]</title>
</use>
<use transform="translate(2665.521 29.071991), rotate(-180)" xlink:href="#item_3">
<title>item, id: 3, transf: [r: -180.000°, t: (2665.521, 29.072)]</title>
</use>
<use transform="translate(2774.1016 5722.9155), rotate(0)" xlink:href="#item_3">
<title>item, id: 3, transf: [r: 0.000°, t: (2774.102, 5722.916)]</title>
</use>
<use transform="translate(1427.5659 5722.971), rotate(0)" xlink:href="#item_3">
<title>item, id: 3, transf: [r: 0.000°, t: (1427.566, 5722.971)]</title>
</use>
<use transform="translate(0.9649048 5021.3384), rotate(0)" xlink:href="#item_3">
<title>item, id: 3, transf: [r: 0.000°, t: (0.965, 5021.338)]</title>
</use>
<use transform="translate(930.376 2552.2722), rotate(0)" xlink:href="#item_1">
<title>item, id: 1, transf: [r: 0.000°, t: (930.376, 2552.272)]</title>
</use>
<use transform="translate(2370.8552 1089.9858), rotate(-180)" xlink:href="#item_1">
<title>item, id: 1, transf: [r: -180.000°, t: (2370.855, 1089.986)]</title>
</use>
<use transform="translate(2631.6846 2808.3533), rotate(-180)" xlink:href="#item_1">
<title>item, id: 1, transf: [r: -180.000°, t: (2631.685, 2808.353)]</title>
</use>
<use transform="translate(1815.5662 2362.6277), rotate(-180)" xlink:href="#item_1">
<title>item, id: 1, transf: [r: -180.000°, t: (1815.566, 2362.628)]</title>
</use>
<use transform="translate(590.92456 4226.7407), rotate(0)" xlink:href="#item_1">
<title>item, id: 1, transf: [r: 0.000°, t: (590.925, 4226.741)]</title>
</use>
<use transform="translate(1752.7845 2997.058), rotate(0)" xlink:href="#item_1">
<title>item, id: 1, transf: [r: 0.000°, t: (1752.785, 2997.058)]</title>
</use>
<use transform="translate(5563.471 2470.9448), rotate(0)" xlink:href="#item_8">
<title>item, id: 8, transf: [r: 0.000°, t: (5563.471, 2470.945)]</title>
</use>
<use transform="translate(4341.4814 2652.892), rotate(-180)" xlink:href="#item_8">
<title>item, id: 8, transf: [r: -180.000°, t: (4341.481, 2652.892)]</title>
</use>
<use transform="translate(1871.8579 1896.6394), rotate(-180)" xlink:href="#item_8">
<title>item, id: 8, transf: [r: -180.000°, t: (1871.858, 1896.639)]</title>
</use>
<use transform="translate(3810.9072 1967.9998), rotate(0)" xlink:href="#item_8">
<title>item, id: 8, transf: [r: 0.000°, t: (3810.907, 1968.000)]</title>
</use>
<use transform="translate(3071.1807 4637.768), rotate(-180)" xlink:href="#item_8">
<title>item, id: 8, transf: [r: -180.000°, t: (3071.181, 4637.768)]</title>
</use>
<use transform="translate(815.0333 2788.6543), rotate(0)" xlink:href="#item_8">
<title>item, id: 8, transf: [r: 0.000°, t: (815.033, 2788.654)]</title>
</use>
</g>
<g id="quality_zones"/>
<g id="optionals">
<g id="overlap_lines" transform="translate(0 0), rotate(0)"/>
</g>
<text font-family="monospace" font-size="142.04883" font-weight="500" x="0" y="-71.024414">
height: 5752.000 | width: 5681.953 | usage: 77.855% | final_bench_63
</text>
</svg>