<svg viewBox="-286.13586 -287.60007 6294.9873 6327.2" xmlns="http://www.w3.org/2000/svg" xmlns:xlink="http://www.w3.org/1999/xlink">
<g id="bin_0">
<path d="M0,0 L5722.716,0 L5722.716,5752 L0,5752 z" fill="#D3D3D3" stroke="black" stroke-width="31.474937"/>
<title>bin, id: 0, bbox: [x_min: 0.000, y_min: 0.000, x_max: 5722.716, y_max: 5752.000]</title>
</g>
<g id="items">
<defs>
<g id="item_0">
<path d="M0,0 L-5,-321 L1,-642 L151,-660 L259,-691 L423,-738 L547,-770 L680,-801 L858,-837 L988,-682 L1075,-620 L1211,-553 L1319,-527 L1481,-526 L1597,-540 L1737,-564 L1719,-440 L1708,-317 L1718,-194 L1736,-70 L1596,-95 L1480,-109 L1318,-109 L1210,-83 L1074,-17 L986,45 L856,198.99997 L678,162 L545,131 L421,98 L257,50 L149,19 z" fill="#7A7A7A" fill-opacity="0.5" fill-rule="nonzero" stroke="black" stroke-width="15.737469"/>
</g>
<g id="item_1">
<path d="M0,0 L8,-148 L26.96225,-299.69812 L68.44348,-462.4321 L179,-449 L288,-446 L401,-463 L548,-497 L764.0157,-545.56165 L805,-350 L887,-196 L755,-176 L655,-155 L523,-121 L272,-52 L117.45331,-11.877289 z" fill="#7A7A7A" fill-opacity="0.5" fill-rule="nonzero" stroke="black" stroke-width="15.737469"/>
</g>
<g id="item_2">
<path d="M-159,-185 L-328,-228 L-474,-262 L-694.84607,-307.57144 L-806.64514,-359.47812 L-532,-384 L-408,-400 L-215,-443 L-77,-501 L130,-620 L264,-589 L477.87183,-543.8493 L652.5122,-485.0418 L766,-431 L893,-362 L1115,-258 L1125,-131 L1133,-7 L940,23 L792,45 L680,59 L524,70 L357.5263,70 L181,44 L0.9528198,4.1818695 z" fill="#7A7A7A" fill-opacity="0.5" fill-rule="nonzero" stroke="black" stroke-width="15.737469"/>
</g>
<g id="item_3">
<path d="M0,0 L8,-172 L309,-166 L484,-165 L616,-167 L718,-172 L876,-194 L1031,-248 L1351.455,-111.0968 L1209,-57 L1048.9706,-6.8212967 L909,16 L785,26 L668,29 L511,26 L213,14 z" fill="#7A7A7A" fill-opacity="0.5" fill-rule="nonzero" stroke="black" stroke-width="15.737469"/>
</g>
<g id="item_4">
<path d="M0,0 L33.96,-142.91501 L77,-268 L89,-388 L-826,-439 L-824,-598 L39,-607 L169,-650 L209,-800 L251,-940 L371,-924 L354,-726 L348,-610 L350,-412 L360,-264 L382,-94 L488.69122,232.11282 L352,54 L217,0 z" fill="#7A7A7A" fill-opacity="0.5" fill-rule="nonzero" stroke="black" stroke-width="15.737469"/>
</g>
<g id="item_5">
<path d="M0,-7.222229 L129.79999,-36.06665 L306.8846,22.961548 L495,110 L616,172 L737,238 L855,290 L959,313 L1071,306 L1275,255 L1260,394 L1250,499 L1260,606 L1275,745 L1071,694 L959,687 L855,710 L737,762 L616,828 L495,890 L306.8846,977.03845 L129.79999,1036.0667 L0,1007.2222 z" fill="#7A7A7A" fill-opacity="0.5" fill-rule="nonzero" stroke="black" stroke-width="15.737469"/>
</g>
<g id="item_6">
<path d="M0,0 L-4,-123 L-8,-291 L-17,-454 L-40,-620 L119,-619 L246,-538 L352,-501 L492,-458 L647,-416 L766,-369 L913,-302 L1061,-224 L1046,-100 L1037,2 L1061,224 L913,302 L766,369 L647,416 L492,458 L352,501 L246,538 L119,619 L-40,620 L-17,454 L-8,291 L-4,123 z" fill="#7A7A7A" fill-opacity="0.5" fill-rule="nonzero" stroke="black" stroke-width="15.737469"/>
</g>
<g id="item_7">
<path d="M-76,-85 L-178,-200 L-270,-306 L-412,-374 L-958,-383 L-954,-543 L-366,-560 L-269,-659 L-90,-708 L-4,-539 L40,-443 L94,-312 L140.2381,-190.31746 L189,-42 L4.524353,5.0601196 z" fill="#7A7A7A" fill-opacity="0.5" fill-rule="nonzero" stroke="black" stroke-width="15.737469"/>
</g>
<g id="item_8">
<path d="M-135.87357,-80.44827 L-238.0528,-203.06339 L-240.87814,-366.93304 L-197.36069,-485.8808 L-114.328445,-625.618 L-32.885136,-555.0338 L58.285713,-445 L118.14286,-305.33334 L108.69903,-151.08414 L7.1138,13.3871765 z" fill="#7A7A7A" fill-opacity="0.5" fill-rule="nonzero" stroke="black" stroke-width="15.737469"/>
</g>
<g id="item_9">
<path d="M-175.38889,-72.47955 L-304,-151 L-407,-193 L-510,-208 L-673,-192 L-790,-169 L-990,-124 L-1029,-292 L-760,-353 L-531,-404 L-413,-430 L-288,-510 L-252,-700 L-252,-862 L-274,-1015 L-533,-1157 L-762,-1207 L-1031,-1267 L-993,-1435 L-793,-1391 L-675,-1368 L-512,-1353 L-409,-1368 L-307,-1411 L-180.41176,-1488.2854 L6.421692,-1568.9188 L319,-1499 L270,-1290 L248,-1143 L241,-922 L242,-782 L242,-642 L246,-494 L257,-358 L322,-65 L15.847504,8.041077 z" fill="#7A7A7A" fill-opacity="0.5" fill-rule="nonzero" stroke="black" stroke-width="15.737469"/>
</g>
</defs>
<use transform="translate(1359.8038 70.96716), rotate(-180)" xlink:href="#item_9">
<title>item, id: 9, transf: [r: -180.000°, t: (1359.804, 70.967)]</title>
</use>
<use transform="translate(5375.62 4164.3335), rotate(0)" xlink:href="#item_9">
<title>item, id: 9, transf: [r: 0.000°, t: (5375.620, 4164.333)]</title>
</use>
<use transform="translate(322.07565 3849.0908), rotate(-180)" xlink:href="#item_9">
<title>item, id: 9, transf: [r: -180.000°, t: (322.076, 3849.091)]</title>
</use>
<use transform="translate(5.623474 3736.8784), rotate(0)" xlink:href="#item_0">
<title>item, id: 0, transf: [r: 0.000°, t: (5.623, 3736.878)]</title>
</use>
<use transform="translate(5698.322 199.01779), rotate(-180)" xlink:href="#item_0">
<title>item, id: 0, transf: [r: -180.000°, t: (5698.322, 199.018)]</title>
</use>
<use transform="translate(3948.029 3872.1604), rotate(-180)" xlink:href="#item_0">
<title>item, id: 0, transf: [r: -180.000°, t: (3948.029, 3872.160)]</title>
</use>
<use transform="translate(1161.2189 1611.0437), rotate(-180)" xlink:href="#item_2">
<title>item, id: 2, transf: [r: -180.000°, t: (1161.219, 1611.044)]</title>
</use>
<use transform="translate(2640.563 3172.849), rotate(0)" xlink:href="#item_2">
<title>item, id: 2, transf: [r: 0.000°, t: (2640.563, 3172.849)]</title>
</use>
<use transform="translate(3962.4722 3619.8616), rotate(0)" xlink:href="#item_2">
<title>item, id: 2, transf: [r: 0.000°, t: (3962.472, 3619.862)]</title>
</use>
<use transform="translate(3420.9072 5131.9937), rotate(-180)" xlink:href="#item_2">
<title>item, id: 2, transf: [r: -180.000°, t: (3420.907, 5131.994)]</title>
</use>
<use transform="translate(2866.318 3232.4573), rotate(-180)" xlink:href="#item_2">
<title>item, id: 2, transf: [r: -180.000°, t: (2866.318, 3232.457)]</title>
</use>
<use transform="translate(4384.935 5652.294), rotate(0)" xlink:href="#item_2">
<title>item, id: 2, transf: [r: 0.000°, t: (4384.935, 5652.294)]</title>
</use>
<use transform="translate(5722.4204 2606.4214), rotate(-180)" xlink:href="#item_5">
<title>item, id: 5, transf: [r: -180.000°, t: (5722.420, 2606.421)]</title>
</use>
<use transform="translate(0.031463623 1979.8201), rotate(0)" xlink:href="#item_5">
<title>item, id: 5, transf: [r: 0.000°, t: (0.031, 1979.820)]</title>
</use>
<use transform="translate(3813.3235 2807.865), rotate(-180)" xlink:href="#item_5">
<title>item, id: 5, transf: [r: -180.000°, t: (3813.323, 2807.865)]</title>
</use>
<use transform="translate(40.10385 645.3188), rotate(0)" xlink:href="#item_6">
<title>item, id: 6, transf: [r: 0.000°, t: (40.104, 645.319)]</title>
</use>
<use transform="translate(5682.7095 4750.509), rotate(-180)" xlink:href="#item_6">
<title>item, id: 6, transf: [r: -180.000°, t: (5682.709, 4750.509)]</title>
</use>
<use transform="translate(1748.4312 4628.1646), rotate(-180)" xlink:href="#item_6">
<title>item, id: 6, transf: [r: -180.000°, t: (1748.431, 4628.165)]</title>
</use>
<use transform="translate(3928.0073 1994.6289), rotate(0)" xlink:href="#item_4">
<title>item, id: 4, transf: [r: 0.000°, t: (3928.007, 1994.629)]</title>
</use>
<use transform="translate(4302.4126 2079.958), rotate(-180)" xlink:href="#item_4">
<title>item, id: 4, transf: [r: -180.000°, t: (4302.413, 2079.958)]</title>
</use>
<use transform="translate(4319.9844 3700.142), rotate(-180)" xlink:href="#item_4">
<title>item, id: 4, transf: [r: -180.000°, t: (4319.984, 3700.142)]</title>
</use>
<use transform="translate(4681.461 977.9249), rotate(-180)" xlink:href="#item_4">
<title>item, id: 4, transf: [r: -180.000°, t: (4681.461, 977.925)]</title>
</use>
<use transform="translate(3167.9631 1166.4219), rotate(-180)" xlink:href="#item_4">
<title>item, id: 4, transf: [r: -180.000°, t: (3167.963, 1166.422)]</title>
</use>
<use transform="translate(2466.1438 4454.2407), rotate(-180)" xlink:href="#item_4">
<title>item, id: 4, transf: [r: -180.000°, t: (2466.144, 4454.241)]</title>
</use>
<use transform="translate(3898.269 5256.4106), rotate(0)" xlink:href="#item_7">
<title>item, id: 7, transf: [r: 0.000°, t: (3898.269, 5256.411)]</title>
</use>
<use transform="translate(3346.2866 768.7023), rotate(0)" xlink:href="#item_7">
<title>item, id: 7, transf: [r: 0.000°, t: (3346.287, 768.702)]</title>
</use>
<use transform="translate(2358.9321 2195.846), rotate(0)" xlink:href="#item_7">
<title>item, id: 7, transf: [r: 0.000°, t: (2358.932, 2195.846)]</title>
</use>
<use transform="translate(2044.5942 4296.861), rotate(0)" xlink:href="#item_7">
<title>item, id: 7, transf: [r: 0.000°, t: (2044.594, 4296.861)]</title>
</use>
<use transform="translate(2619.6772 1484.2196), rotate(0)" xlink:href="#item_7">
<title>item, id: 7, transf: [r: 0.000°, t: (2619.677, 1484.220)]</title>
</use>
<use transform="translate(2795.5461 398.26715), rotate(-180)" xlink:href="#item_7">
<title>item, id: 7, transf: [r: -180.000°, t: (2795.546, 398.267)]</title>
</use>
<use transform="translate(46.209045 5722.9995), rotate(0)" xlink:href="#item_3">
<title>item, id: 3, transf: [r: 0.000°, t: (46.209, 5723.000)]</title>
</use>
<use transform="translate(2368.9893 2960.8113), rotate(-180)" xlink:href="#item_3">
<title>item, id: 3, transf: [r: -180.000°, t: (2368.989, 2960.811)]</title>
</use>
<use transform="translate(1729.2454 5306.228), rotate(-180)" xlink:href="#item_3">
<title>item, id: 3, transf: [r: -180.000°, t: (1729.245, 5306.228)]</title>
</use>
<use transform="translate(2896.7588 29.009499), rotate(-180)" xlink:href="#item_3">
<title>item, id: 3, transf: [r: -180.000°, t: (2896.759, 29.009)]</title>
</use>
<use transform="translate(1396.7642 5722.4556), rotate(0)" xlink:href="#item_3">
<title>item, id: 3, transf: [r: 0.000°, t: (1396.764, 5722.456)]</title>
</use>
<use transform="translate(4648.174 29.041489), rotate(-180)" xlink:href="#item_3">
<title>item, id: 3, transf: [r: -180.000°, t: (4648.174, 29.041)]</title>
</use>
<use transform="translate(1117.5377 1022.7936), rotate(-180)" xlink:href="#item_1">
<title>item, id: 1, transf: [r: -180.000°, t: (1117.538, 1022.794)]</title>
</use>
<use transform="translate(5722.6934 840.72925), rotate(-180)" xlink:href="#item_1">
<title>item, id: 1, transf: [r: -180.000°, t: (5722.693, 840.729)]</title>
</use>
<use transform="translate(1826.4442 936.5072), rotate(0)" xlink:href="#item_1">
<title>item, id: 1, transf: [r: 0.000°, t: (1826.444, 936.507)]</title>
</use>
<use transform="translate(1257.7539 2947.8452), rotate(0)" xlink:href="#item_1">
<title>item, id: 1, transf: [r: 0.000°, t: (1257.754, 2947.845)]</title>
</use>
<use transform="translate(4173.62 847.83203), rotate(-180)" xlink:href="#item_1">
<title>item, id: 1, transf: [r: -180.000°, t: (4173.620, 847.832)]</title>
</use>
<use transform="translate(2136.5686 1945.3804), rotate(-180)" xlink:href="#item_1">
<title>item, id: 1, transf: [r: -180.000°, t: (2136.569, 1945.380)]</title>
</use>
<use transform="translate(2523.0796 1461.9258), rotate(-180)" xlink:href="#item_8">
<title>item, id: 8, transf: [r: -180.000°, t: (2523.080, 1461.926)]</title>
</use>
<use transform="translate(4383.496 4319.6646), rotate(-180)" xlink:href="#item_8">
<title>item, id: 8, transf: [r: -180.000°, t: (4383.496, 4319.665)]</title>
</use>
<use transform="translate(1996.0663 5145.9766), rotate(0)" xlink:href="#item_8">
<title>item, id: 8, transf: [r: 0.000°, t: (1996.066, 5145.977)]</title>
</use>
<use transform="translate(2344.5132 2712.3394), rotate(0)" xlink:href="#item_8">
<title>item, id: 8, transf: [r: 0.000°, t: (2344.513, 2712.339)]</title>
</use>
<use transform="translate(4245.9688 5160.912), rotate(0)" xlink:href="#item_8">
<title>item, id: 8, transf: [r: 0.000°, t: (4245.969, 5160.912)]</title>
</use>
<use transform="translate(3740.38 250.03003), rotate(-180)" xlink:href="#item_8">
<title>item, id: 8, transf: [r: -180.000°, t: (3740.380, 250.030)]</title>
</use>
</g>
<g id="quality_zones"/>
<g id="optionals">
<g id="overlap_lines" transform="translate(0 0), rotate(0)"/>
</g>
<text font-family="monospace" font-size="143.0679" font-weight="500" x="0" y="-71.53395">
height: 5752.000 | width: 5722.716 | usage: 77.300% | final_bench_49
</text>
</svg>