<svg viewBox="-284.64764 -287.60007 6262.2466 6327.2" xmlns="http://www.w3.org/2000/svg" xmlns:xlink="http://www.w3.org/1999/xlink">
<g id="bin_0">
<path d="M0,0 L5692.9517,0 L5692.9517,5752 L0,5752 z" fill="#D3D3D3" stroke="black" stroke-width="31.311235"/>
<title>bin, id: 0, bbox: [x_min: 0.000, y_min: 0.000, x_max: 5692.952, y_max: 5752.000]</title>
</g>
<g id="items">
<defs>
<g id="item_0">
<path d="M0,0 L-5,-321 L1,-642 L151,-660 L259,-691 L423,-738 L547,-770 L680,-801 L858,-837 L988,-682 L1075,-620 L1211,-553 L1319,-527 L1481,-526 L1597,-540 L1737,-564 L1719,-440 L1708,-317 L1718,-194 L1736,-70 L1596,-95 L1480,-109 L1318,-109 L1210,-83 L1074,-17 L986,45 L856,198.99997 L678,162 L545,131 L421,98 L257,50 L149,19 z" fill="#7A7A7A" fill-opacity="0.5" fill-rule="nonzero" stroke="black" stroke-width="15.655618"/>
</g>
<g id="item_1">
<path d="M0,0 L8,-148 L26.96225,-299.69812 L68.44348,-462.4321 L179,-449 L288,-446 L401,-463 L548,-497 L764.0157,-545.56165 L805,-350 L887,-196 L755,-176 L655,-155 L523,-121 L272,-52 L117.45331,-11.877289 z" fill="#7A7A7A" fill-opacity="0.5" fill-rule="nonzero" stroke="black" stroke-width="15.655618"/>
</g>
<g id="item_2">
<path d="M-159,-185 L-328,-228 L-474,-262 L-694.84607,-307.57144 L-806.64514,-359.47812 L-532,-384 L-408,-400 L-215,-443 L-77,-501 L130,-620 L264,-589 L477.87183,-543.8493 L652.5122,-485.0418 L766,-431 L893,-362 L1115,-258 L1125,-131 L1133,-7 L940,23 L792,45 L680,59 L524,70 L357.5263,70 L181,44 L0.9528198,4.1818695 z" fill="#7A7A7A" fill-opacity="0.5" fill-rule="nonzero" stroke="black" stroke-width="15.655618"/>
</g>
<g id="item_3">
<path d="M0,0 L8,-172 L309,-166 L484,-165 L616,-167 L718,-172 L876,-194 L1031,-248 L1351.455,-111.0968 L1209,-57 L1048.9706,-6.8212967 L909,16 L785,26 L668,29 L511,26 L213,14 z" fill="#7A7A7A" fill-opacity="0.5" fill-rule="nonzero" stroke="black" stroke-width="15.655618"/>
</g>
<g id="item_4">
<path d="M0,0 L33.96,-142.91501 L77,-268 L89,-388 L-826,-439 L-824,-598 L39,-607 L169,-650 L209,-800 L251,-940 L371,-924 L354,-726 L348,-610 L350,-412 L360,-264 L382,-94 L488.69122,232.11282 L352,54 L217,0 z" fill="#7A7A7A" fill-opacity="0.5" fill-rule="nonzero" stroke="black" stroke-width="15.655618"/>
</g>
<g id="item_5">
<path d="M0,-7.222229 L129.79999,-36.06665 L306.8846,22.961548 L495,110 L616,172 L737,238 L855,290 L959,313 L1071,306 L1275,255 L1260,394 L1250,499 L1260,606 L1275,745 L1071,694 L959,687 L855,710 L737,762 L616,828 L495,890 L306.8846,977.03845 L129.79999,1036.0667 L0,1007.2222 z" fill="#7A7A7A" fill-opacity="0.5" fill-rule="nonzero" stroke="black" stroke-width="15.655618"/>
</g>
<g id="item_6">
<path d="M0,0 L-4,-123 L-8,-291 L-17,-454 L-40,-620 L119,-619 L246,-538 L352,-501 L492,-458 L647,-416 L766,-369 L913,-302 L1061,-224 L1046,-100 L1037,2 L1061,224 L913,302 L766,369 L647,416 L492,458 L352,501 L246,538 L119,619 L-40,620 L-17,454 L-8,291 L-4,123 z" fill="#7A7A7A" fill-opacity="0.5" fill-rule="nonzero" stroke="black" stroke-width="15.655618"/>
</g>
<g id="item_7">
<path d="M-76,-85 L-178,-200 L-270,-306 L-412,-374 L-958,-383 L-954,-543 L-366,-560 L-269,-659 L-90,-708 L-4,-539 L40,-443 L94,-312 L140.2381,-190.31746 L189,-42 L4.524353,5.0601196 z" fill="#7A7A7A" fill-opacity="0.5" fill-rule="nonzero" stroke="black" stroke-width="15.655618"/>
</g>
<g id="item_8">
<path d="M-135.87357,-80.44827 L-238.0528,-203.06339 L-240.87814,-366.93304 L-197.36069,-485.8808 L-114.328445,-625.618 L-32.885136,-555.0338 L58.285713,-445 L118.14286,-305.33334 L108.69903,-151.08414 L7.1138,13.3871765 z" fill="#7A7A7A" fill-opacity="0.5" fill-rule="nonzero" stroke="black" stroke-width="15.655618"/>
</g>
<g id="item_9">
<path d="M-175.38889,-72.47955 L-304,-151 L-407,-193 L-510,-208 L-673,-192 L-790,-169 L-990,-124 L-1029,-292 L-760,-353 L-531,-404 L-413,-430 L-288,-510 L-252,-700 L-252,-862 L-274,-1015 L-533,-1157 L-762,-1207 L-1031,-1267 L-993,-1435 L-793,-1391 L-675,-1368 L-512,-1353 L-409,-1368 L-307,-1411 L-180.41176,-1488.2854 L6.421692,-1568.9188 L319,-1499 L270,-1290 L248,-1143 L241,-922 L242,-782 L242,-642 L246,-494 L257,-358 L322,-65 L15.847504,8.041077 z" fill="#7A7A7A" fill-opacity="0.5" fill-rule="nonzero" stroke="black" stroke-width="15.655618"/>
</g>
</defs>
<use transform="translate(322.33667 2471.106), rotate(-180)" xlink:href="#item_9">
<title>item, id: 9, transf: [r: -180.000°, t: (322.337, 2471.106)]</title>
</use>
<use transform="translate(322.00665 4056.6953), rotate(-180)" xlink:href="#item_9">
<title>item, id: 9, transf: [r: -180.000°, t: (322.007, 4056.695)]</title>
</use>
<use transform="translate(322.04034 503.56226), rotate(-180)" xlink:href="#item_9">
<title>item, id: 9, transf: [r: -180.000°, t: (322.040, 503.562)]</title>
</use>
<use transform="translate(5687.881 4907.4575), rotate(-180)" xlink:href="#item_0">
<title>item, id: 0, transf: [r: -180.000°, t: (5687.881, 4907.458)]</title>
</use>
<use transform="translate(3955.7344 3076.3687), rotate(0)" xlink:href="#item_0">
<title>item, id: 0, transf: [r: 0.000°, t: (3955.734, 3076.369)]</title>
</use>
<use transform="translate(720.53217 3552.64), rotate(0)" xlink:href="#item_0">
<title>item, id: 0, transf: [r: 0.000°, t: (720.532, 3552.640)]</title>
</use>
<use transform="translate(4301.578 1268.4569), rotate(-180)" xlink:href="#item_2">
<title>item, id: 2, transf: [r: -180.000°, t: (4301.578, 1268.457)]</title>
</use>
<use transform="translate(3255.8596 1585.2526), rotate(-180)" xlink:href="#item_2">
<title>item, id: 2, transf: [r: -180.000°, t: (3255.860, 1585.253)]</title>
</use>
<use transform="translate(2041.2797 1397.773), rotate(0)" xlink:href="#item_2">
<title>item, id: 2, transf: [r: 0.000°, t: (2041.280, 1397.773)]</title>
</use>
<use transform="translate(1133.0305 72.685425), rotate(-180)" xlink:href="#item_2">
<title>item, id: 2, transf: [r: -180.000°, t: (1133.031, 72.685)]</title>
</use>
<use transform="translate(1711.9248 1173.7125), rotate(-180)" xlink:href="#item_2">
<title>item, id: 2, transf: [r: -180.000°, t: (1711.925, 1173.713)]</title>
</use>
<use transform="translate(4530.4243 1453.7239), rotate(0)" xlink:href="#item_2">
<title>item, id: 2, transf: [r: 0.000°, t: (4530.424, 1453.724)]</title>
</use>
<use transform="translate(5692.1284 1084.4783), rotate(-180)" xlink:href="#item_5">
<title>item, id: 5, transf: [r: -180.000°, t: (5692.128, 1084.478)]</title>
</use>
<use transform="translate(5692.106 4019.8262), rotate(-180)" xlink:href="#item_5">
<title>item, id: 5, transf: [r: -180.000°, t: (5692.106, 4019.826)]</title>
</use>
<use transform="translate(5692.586 2498.5535), rotate(-180)" xlink:href="#item_5">
<title>item, id: 5, transf: [r: -180.000°, t: (5692.586, 2498.553)]</title>
</use>
<use transform="translate(3284.5042 620.0432), rotate(0)" xlink:href="#item_6">
<title>item, id: 6, transf: [r: 0.000°, t: (3284.504, 620.043)]</title>
</use>
<use transform="translate(2914.3772 4970.971), rotate(0)" xlink:href="#item_6">
<title>item, id: 6, transf: [r: 0.000°, t: (2914.377, 4970.971)]</title>
</use>
<use transform="translate(2856.6611 5131.951), rotate(-180)" xlink:href="#item_6">
<title>item, id: 6, transf: [r: -180.000°, t: (2856.661, 5131.951)]</title>
</use>
<use transform="translate(2371.8025 3726.1797), rotate(-180)" xlink:href="#item_4">
<title>item, id: 4, transf: [r: -180.000°, t: (2371.802, 3726.180)]</title>
</use>
<use transform="translate(3585.1125 3385.7668), rotate(0)" xlink:href="#item_4">
<title>item, id: 4, transf: [r: 0.000°, t: (3585.113, 3385.767)]</title>
</use>
<use transform="translate(2522.1736 2078.1775), rotate(-180)" xlink:href="#item_4">
<title>item, id: 4, transf: [r: -180.000°, t: (2522.174, 2078.177)]</title>
</use>
<use transform="translate(3186.4336 4367.7197), rotate(0)" xlink:href="#item_4">
<title>item, id: 4, transf: [r: 0.000°, t: (3186.434, 4367.720)]</title>
</use>
<use transform="translate(1416.7297 5473.729), rotate(0)" xlink:href="#item_4">
<title>item, id: 4, transf: [r: 0.000°, t: (1416.730, 5473.729)]</title>
</use>
<use transform="translate(1549.6626 4532.8496), rotate(0)" xlink:href="#item_4">
<title>item, id: 4, transf: [r: 0.000°, t: (1549.663, 4532.850)]</title>
</use>
<use transform="translate(4320.1187 4152.5166), rotate(-180)" xlink:href="#item_7">
<title>item, id: 7, transf: [r: -180.000°, t: (4320.119, 4152.517)]</title>
</use>
<use transform="translate(1978.5417 2499.4963), rotate(0)" xlink:href="#item_7">
<title>item, id: 7, transf: [r: 0.000°, t: (1978.542, 2499.496)]</title>
</use>
<use transform="translate(3743.1882 3391.0076), rotate(-180)" xlink:href="#item_7">
<title>item, id: 7, transf: [r: -180.000°, t: (3743.188, 3391.008)]</title>
</use>
<use transform="translate(3567.8564 2764.8877), rotate(0)" xlink:href="#item_7">
<title>item, id: 7, transf: [r: 0.000°, t: (3567.856, 2764.888)]</title>
</use>
<use transform="translate(5503.698 4765.601), rotate(0)" xlink:href="#item_7">
<title>item, id: 7, transf: [r: 0.000°, t: (5503.698, 4765.601)]</title>
</use>
<use transform="translate(2577.1255 2743.5298), rotate(-180)" xlink:href="#item_7">
<title>item, id: 7, transf: [r: -180.000°, t: (2577.125, 2743.530)]</title>
</use>
<use transform="translate(4092.1484 4132.9585), rotate(0)" xlink:href="#item_3">
<title>item, id: 3, transf: [r: 0.000°, t: (4092.148, 4132.958)]</title>
</use>
<use transform="translate(3367.1414 5722.9746), rotate(0)" xlink:href="#item_3">
<title>item, id: 3, transf: [r: 0.000°, t: (3367.141, 5722.975)]</title>
</use>
<use transform="translate(1286.626 248.46535), rotate(0)" xlink:href="#item_3">
<title>item, id: 3, transf: [r: 0.000°, t: (1286.626, 248.465)]</title>
</use>
<use transform="translate(5177.0874 36.109314), rotate(-180)" xlink:href="#item_3">
<title>item, id: 3, transf: [r: -180.000°, t: (5177.087, 36.109)]</title>
</use>
<use transform="translate(480.77765 5722.97), rotate(0)" xlink:href="#item_3">
<title>item, id: 3, transf: [r: 0.000°, t: (480.778, 5722.970)]</title>
</use>
<use transform="translate(2010.0754 3651.2747), rotate(0)" xlink:href="#item_3">
<title>item, id: 3, transf: [r: 0.000°, t: (2010.075, 3651.275)]</title>
</use>
<use transform="translate(807.14355 2674.8274), rotate(0)" xlink:href="#item_1">
<title>item, id: 1, transf: [r: 0.000°, t: (807.144, 2674.827)]</title>
</use>
<use transform="translate(1564.7782 4327.6587), rotate(-180)" xlink:href="#item_1">
<title>item, id: 1, transf: [r: -180.000°, t: (1564.778, 4327.659)]</title>
</use>
<use transform="translate(2927.6006 102.954346), rotate(-180)" xlink:href="#item_1">
<title>item, id: 1, transf: [r: -180.000°, t: (2927.601, 102.954)]</title>
</use>
<use transform="translate(4431.092 1880.1602), rotate(-180)" xlink:href="#item_1">
<title>item, id: 1, transf: [r: -180.000°, t: (4431.092, 1880.160)]</title>
</use>
<use transform="translate(887.1104 1940.4868), rotate(-180)" xlink:href="#item_1">
<title>item, id: 1, transf: [r: -180.000°, t: (887.110, 1940.487)]</title>
</use>
<use transform="translate(1340.5759 964.7842), rotate(0)" xlink:href="#item_1">
<title>item, id: 1, transf: [r: 0.000°, t: (1340.576, 964.784)]</title>
</use>
<use transform="translate(3705.1978 4025.1384), rotate(-180)" xlink:href="#item_8">
<title>item, id: 8, transf: [r: -180.000°, t: (3705.198, 4025.138)]</title>
</use>
<use transform="translate(4150.7637 4874.806), rotate(0)" xlink:href="#item_8">
<title>item, id: 8, transf: [r: 0.000°, t: (4150.764, 4874.806)]</title>
</use>
<use transform="translate(1907.5189 2940.0947), rotate(0)" xlink:href="#item_8">
<title>item, id: 8, transf: [r: 0.000°, t: (1907.519, 2940.095)]</title>
</use>
<use transform="translate(3032.9048 29.497162), rotate(-180)" xlink:href="#item_8">
<title>item, id: 8, transf: [r: -180.000°, t: (3032.905, 29.497)]</title>
</use>
<use transform="translate(4312.88 3752.9795), rotate(0)" xlink:href="#item_8">
<title>item, id: 8, transf: [r: 0.000°, t: (4312.880, 3752.979)]</title>
</use>
<use transform="translate(3047.9487 1078.9377), rotate(0)" xlink:href="#item_8">
<title>item, id: 8, transf: [r: 0.000°, t: (3047.949, 1078.938)]</title>
</use>
</g>
<g id="quality_zones"/>
<g id="optionals">
<g id="overlap_lines" transform="translate(0 0), rotate(0)"/>
</g>
<text font-family="monospace" font-size="142.32379" font-weight="500" x="0" y="-71.161896">
height: 5752.000 | width: 5692.952 | usage: 77.705% | final_bench_33
</text>
</svg>