<svg viewBox="-285.12476 -287.60007 6272.743 6327.2" xmlns="http://www.w3.org/2000/svg" xmlns:xlink="http://www.w3.org/1999/xlink">
<g id="bin_0">
<path d="M0,0 L5702.4937,0 L5702.4937,5752 L0,5752 z" fill="#D3D3D3" stroke="black" stroke-width="31.363716"/>
<title>bin, id: 0, bbox: [x_min: 0.000, y_min: 0.000, x_max: 5702.494, y_max: 5752.000]</title>
</g>
<g id="items">
<defs>
<g id="item_0">
<path d="M0,0 L-5,-321 L1,-642 L151,-660 L259,-691 L423,-738 L547,-770 L680,-801 L858,-837 L988,-682 L1075,-620 L1211,-553 L1319,-527 L1481,-526 L1597,-540 L1737,-564 L1719,-440 L1708,-317 L1718,-194 L1736,-70 L1596,-95 L1480,-109 L1318,-109 L1210,-83 L1074,-17 L986,45 L856,198.99997 L678,162 L545,131 L421,98 L257,50 L149,19 z" fill="#7A7A7A" fill-opacity="0.5" fill-rule="nonzero" stroke="black" stroke-width="15.681858"/>
</g>
<g id="item_1">
<path d="M0,0 L8,-148 L26.96225,-299.69812 L68.44348,-462.4321 L179,-449 L288,-446 L401,-463 L548,-497 L764.0157,-545.56165 L805,-350 L887,-196 L755,-176 L655,-155 L523,-121 L272,-52 L117.45331,-11.877289 z" fill="#7A7A7A" fill-opacity="0.5" fill-rule="nonzero" stroke="black" stroke-width="15.681858"/>
</g>
<g id="item_2">
<path d="M-159,-185 L-328,-228 L-474,-262 L-694.84607,-307.57144 L-806.64514,-359.47812 L-532,-384 L-408,-400 L-215,-443 L-77,-501 L130,-620 L264,-589 L477.87183,-543.8493 L652.5122,-485.0418 L766,-431 L893,-362 L1115,-258 L1125,-131 L1133,-7 L940,23 L792,45 L680,59 L524,70 L357.5263,70 L181,44 L0.9528198,4.1818695 z" fill="#7A7A7A" fill-opacity="0.5" fill-rule="nonzero" stroke="black" stroke-width="15.681858"/>
</g>
<g id="item_3">
<path d="M0,0 L8,-172 L309,-166 L484,-165 L616,-167 L718,-172 L876,-194 L1031,-248 L1351.455,-111.0968 L1209,-57 L1048.9706,-6.8212967 L909,16 L785,26 L668,29 L511,26 L213,14 z" fill="#7A7A7A" fill-opacity="0.5" fill-rule="nonzero" stroke="black" stroke-width="15.681858"/>
</g>
<g id="item_4">
<path d="M0,0 L33.96,-142.91501 L77,-268 L89,-388 L-826,-439 L-824,-598 L39,-607 L169,-650 L209,-800 L251,-940 L371,-924 L354,-726 L348,-610 L350,-412 L360,-264 L382,-94 L488.69122,232.11282 L352,54 L217,0 z" fill="#7A7A7A" fill-opacity="0.5" fill-rule="nonzero" stroke="black" stroke-width="15.681858"/>
</g>
<g id="item_5">
<path d="M0,-7.222229 L129.79999,-36.06665 L306.8846,22.961548 L495,110 L616,172 L737,238 L855,290 L959,313 L1071,306 L1275,255 L1260,394 L1250,499 L1260,606 L1275,745 L1071,694 L959,687 L855,710 L737,762 L616,828 L495,890 L306.8846,977.03845 L129.79999,1036.0667 L0,1007.2222 z" fill="#7A7A7A" fill-opacity="0.5" fill-rule="nonzero" stroke="black" stroke-width="15.681858"/>
</g>
<g id="item_6">
<path d="M0,0 L-4,-123 L-8,-291 L-17,-454 L-40,-620 L119,-619 L246,-538 L352,-501 L492,-458 L647,-416 L766,-369 L913,-302 L1061,-224 L1046,-100 L1037,2 L1061,224 L913,302 L766,369 L647,416 L492,458 L352,501 L246,538 L119,619 L-40,620 L-17,454 L-8,291 L-4,123 z" fill="#7A7A7A" fill-opacity="0.5" fill-rule="nonzero" stroke="black" stroke-width="15.681858"/>
</g>
<g id="item_7">
<path d="M-76,-85 L-178,-200 L-270,-306 L-412,-374 L-958,-383 L-954,-543 L-366,-560 L-269,-659 L-90,-708 L-4,-539 L40,-443 L94,-312 L140.2381,-190.31746 L189,-42 L4.524353,5.0601196 z" fill="#7A7A7A" fill-opacity="0.5" fill-rule="nonzero" stroke="black" stroke-width="15.681858"/>
</g>
<g id="item_8">
<path d="M-135.87357,-80.44827 L-238.0528,-203.06339 L-240.87814,-366.93304 L-197.36069,-485.8808 L-114.328445,-625.618 L-32.885136,-555.0338 L58.285713,-445 L118.14286,-305.33334 L108.69903,-151.08414 L7.1138,13.3871765 z" fill="#7A7A7A" fill-opacity="0.5" fill-rule="nonzero" stroke="black" stroke-width="15.681858"/>
</g>
<g id="item_9">
<path d="M-175.38889,-72.47955 L-304,-151 L-407,-193 L-510,-208 L-673,-192 L-790,-169 L-990,-124 L-1029,-292 L-760,-353 L-531,-404 L-413,-430 L-288,-510 L-252,-700 L-252,-862 L-274,-1015 L-533,-1157 L-762,-1207 L-1031,-1267 L-993,-1435 L-793,-1391 L-675,-1368 L-512,-1353 L-409,-1368 L-307,-1411 L-180.41176,-1488.2854 L6.421692,-1568.9188 L319,-1499 L270,-1290 L248,-1143 L241,-922 L242,-782 L242,-642 L246,-494 L257,-358 L322,-65 L15.847504,8.041077 z" fill="#7A7A7A" fill-opacity="0.5" fill-rule="nonzero" stroke="black" stroke-width="15.681858"/>
</g>
</defs>
<use transform="translate(322.03 10.866272), rotate(-180)" xlink:href="#item_9">
<title>item, id: 9, transf: [r: -180.000°, t: (322.030, 10.866)]</title>
</use>
<use transform="translate(2297.7864 3891.336), rotate(0)" xlink:href="#item_9">
<title>item, id: 9, transf: [r: 0.000°, t: (2297.786, 3891.336)]</title>
</use>
<use transform="translate(1350.3333 4150.3433), rotate(-180)" xlink:href="#item_9">
<title>item, id: 9, transf: [r: -180.000°, t: (1350.333, 4150.343)]</title>
</use>
<use transform="translate(1737.0065 2783.2139), rotate(-180)" xlink:href="#item_0">
<title>item, id: 0, transf: [r: -180.000°, t: (1737.006, 2783.214)]</title>
</use>
<use transform="translate(2345.528 454.39804), rotate(-180)" xlink:href="#item_0">
<title>item, id: 0, transf: [r: -180.000°, t: (2345.528, 454.398)]</title>
</use>
<use transform="translate(4409.656 2145.4636), rotate(-180)" xlink:href="#item_0">
<title>item, id: 0, transf: [r: -180.000°, t: (4409.656, 2145.464)]</title>
</use>
<use transform="translate(4384.8203 3346.4854), rotate(0)" xlink:href="#item_2">
<title>item, id: 2, transf: [r: 0.000°, t: (4384.820, 3346.485)]</title>
</use>
<use transform="translate(3865.3977 4534.865), rotate(-180)" xlink:href="#item_2">
<title>item, id: 2, transf: [r: -180.000°, t: (3865.398, 4534.865)]</title>
</use>
<use transform="translate(2448.8154 5473.5923), rotate(0)" xlink:href="#item_2">
<title>item, id: 2, transf: [r: 0.000°, t: (2448.815, 5473.592)]</title>
</use>
<use transform="translate(4217.881 3163.5532), rotate(-180)" xlink:href="#item_2">
<title>item, id: 2, transf: [r: -180.000°, t: (4217.881, 3163.553)]</title>
</use>
<use transform="translate(4117.617 4739.5947), rotate(0)" xlink:href="#item_2">
<title>item, id: 2, transf: [r: 0.000°, t: (4117.617, 4739.595)]</title>
</use>
<use transform="translate(2776.8262 654.6371), rotate(0)" xlink:href="#item_2">
<title>item, id: 2, transf: [r: 0.000°, t: (2776.826, 654.637)]</title>
</use>
<use transform="translate(5702.4844 5661.432), rotate(-180)" xlink:href="#item_5">
<title>item, id: 5, transf: [r: -180.000°, t: (5702.484, 5661.432)]</title>
</use>
<use transform="translate(0.50561523 1840.1724), rotate(0)" xlink:href="#item_5">
<title>item, id: 5, transf: [r: 0.000°, t: (0.506, 1840.172)]</title>
</use>
<use transform="translate(5702.4463 3002.125), rotate(-180)" xlink:href="#item_5">
<title>item, id: 5, transf: [r: -180.000°, t: (5702.446, 3002.125)]</title>
</use>
<use transform="translate(4599.9185 1668.5836), rotate(0)" xlink:href="#item_6">
<title>item, id: 6, transf: [r: 0.000°, t: (4599.918, 1668.584)]</title>
</use>
<use transform="translate(40.005768 5077.956), rotate(0)" xlink:href="#item_6">
<title>item, id: 6, transf: [r: 0.000°, t: (40.006, 5077.956)]</title>
</use>
<use transform="translate(5662.4736 3942.283), rotate(-180)" xlink:href="#item_6">
<title>item, id: 6, transf: [r: -180.000°, t: (5662.474, 3942.283)]</title>
</use>
<use transform="translate(5213.6187 1243.554), rotate(0)" xlink:href="#item_4">
<title>item, id: 4, transf: [r: 0.000°, t: (5213.619, 1243.554)]</title>
</use>
<use transform="translate(2183.701 1890.759), rotate(0)" xlink:href="#item_4">
<title>item, id: 4, transf: [r: 0.000°, t: (2183.701, 1890.759)]</title>
</use>
<use transform="translate(2925.0037 780.20886), rotate(-180)" xlink:href="#item_4">
<title>item, id: 4, transf: [r: -180.000°, t: (2925.004, 780.209)]</title>
</use>
<use transform="translate(4026.2024 2046.7753), rotate(0)" xlink:href="#item_4">
<title>item, id: 4, transf: [r: 0.000°, t: (4026.202, 2046.775)]</title>
</use>
<use transform="translate(4445.552 438.59604), rotate(-180)" xlink:href="#item_4">
<title>item, id: 4, transf: [r: -180.000°, t: (4445.552, 438.596)]</title>
</use>
<use transform="translate(752.52893 3541.7192), rotate(-180)" xlink:href="#item_4">
<title>item, id: 4, transf: [r: -180.000°, t: (752.529, 3541.719)]</title>
</use>
<use transform="translate(3888.1284 1373.0233), rotate(0)" xlink:href="#item_7">
<title>item, id: 7, transf: [r: 0.000°, t: (3888.128, 1373.023)]</title>
</use>
<use transform="translate(3002.7075 1391.8018), rotate(-180)" xlink:href="#item_7">
<title>item, id: 7, transf: [r: -180.000°, t: (3002.708, 1391.802)]</title>
</use>
<use transform="translate(2814.1787 4507.071), rotate(0)" xlink:href="#item_7">
<title>item, id: 7, transf: [r: 0.000°, t: (2814.179, 4507.071)]</title>
</use>
<use transform="translate(1702.895 1768.8152), rotate(-180)" xlink:href="#item_7">
<title>item, id: 7, transf: [r: -180.000°, t: (1702.895, 1768.815)]</title>
</use>
<use transform="translate(2747.9822 3314.3083), rotate(-180)" xlink:href="#item_7">
<title>item, id: 7, transf: [r: -180.000°, t: (2747.982, 3314.308)]</title>
</use>
<use transform="translate(1496.5458 2344.615), rotate(0)" xlink:href="#item_7">
<title>item, id: 7, transf: [r: 0.000°, t: (1496.546, 2344.615)]</title>
</use>
<use transform="translate(4712.0107 29.09591), rotate(-180)" xlink:href="#item_3">
<title>item, id: 3, transf: [r: -180.000°, t: (4712.011, 29.096)]</title>
</use>
<use transform="translate(1377.3394 248.01628), rotate(0)" xlink:href="#item_3">
<title>item, id: 3, transf: [r: 0.000°, t: (1377.339, 248.016)]</title>
</use>
<use transform="translate(3919.4243 5721.4775), rotate(0)" xlink:href="#item_3">
<title>item, id: 3, transf: [r: 0.000°, t: (3919.424, 5721.478)]</title>
</use>
<use transform="translate(2497.3225 5722.9946), rotate(0)" xlink:href="#item_3">
<title>item, id: 3, transf: [r: 0.000°, t: (2497.323, 5722.995)]</title>
</use>
<use transform="translate(1.9086304 1748.8085), rotate(0)" xlink:href="#item_3">
<title>item, id: 3, transf: [r: 0.000°, t: (1.909, 1748.808)]</title>
</use>
<use transform="translate(768.0695 3933.3936), rotate(0)" xlink:href="#item_3">
<title>item, id: 3, transf: [r: 0.000°, t: (768.070, 3933.394)]</title>
</use>
<use transform="translate(4435.394 4990.416), rotate(-180)" xlink:href="#item_1">
<title>item, id: 1, transf: [r: -180.000°, t: (4435.394, 4990.416)]</title>
</use>
<use transform="translate(2541.068 3296.669), rotate(0)" xlink:href="#item_1">
<title>item, id: 1, transf: [r: 0.000°, t: (2541.068, 3296.669)]</title>
</use>
<use transform="translate(1618.4215 5091.7456), rotate(0)" xlink:href="#item_1">
<title>item, id: 1, transf: [r: 0.000°, t: (1618.422, 5091.746)]</title>
</use>
<use transform="translate(5353.4585 47.61145), rotate(-180)" xlink:href="#item_1">
<title>item, id: 1, transf: [r: -180.000°, t: (5353.458, 47.611)]</title>
</use>
<use transform="translate(3720.5857 4241.5796), rotate(0)" xlink:href="#item_1">
<title>item, id: 1, transf: [r: 0.000°, t: (3720.586, 4241.580)]</title>
</use>
<use transform="translate(3747.3428 3859.0632), rotate(-180)" xlink:href="#item_1">
<title>item, id: 1, transf: [r: -180.000°, t: (3747.343, 3859.063)]</title>
</use>
<use transform="translate(2492.3132 4221.3716), rotate(-180)" xlink:href="#item_8">
<title>item, id: 8, transf: [r: -180.000°, t: (2492.313, 4221.372)]</title>
</use>
<use transform="translate(142.24614 3895.153), rotate(-180)" xlink:href="#item_8">
<title>item, id: 8, transf: [r: -180.000°, t: (142.246, 3895.153)]</title>
</use>
<use transform="translate(2874.5815 2211.745), rotate(0)" xlink:href="#item_8">
<title>item, id: 8, transf: [r: 0.000°, t: (2874.582, 2211.745)]</title>
</use>
<use transform="translate(965.928 4773.017), rotate(0)" xlink:href="#item_8">
<title>item, id: 8, transf: [r: 0.000°, t: (965.928, 4773.017)]</title>
</use>
<use transform="translate(253.41125 3949.1267), rotate(0)" xlink:href="#item_8">
<title>item, id: 8, transf: [r: 0.000°, t: (253.411, 3949.127)]</title>
</use>
<use transform="translate(2070.532 2111.2075), rotate(0)" xlink:href="#item_8">
<title>item, id: 8, transf: [r: 0.000°, t: (2070.532, 2111.208)]</title>
</use>
</g>
<g id="quality_zones"/>
<g id="optionals">
<g id="overlap_lines" transform="translate(0 0), rotate(0)"/>
</g>
<text font-family="monospace" font-size="142.56235" font-weight="500" x="0" y="-71.28117">
height: 5752.000 | width: 5702.494 | usage: 77.575% | final_bench_9
</text>
</svg>