<svg viewBox="-285.95218 -287.60007 6290.947 6327.2" xmlns="http://www.w3.org/2000/svg" xmlns:xlink="http://www.w3.org/1999/xlink">
<g id="bin_0">
<path d="M0,0 L5719.0425,0 L5719.0425,5752 L0,5752 z" fill="#D3D3D3" stroke="black" stroke-width="31.454735"/>
<title>bin, id: 0, bbox: [x_min: 0.000, y_min: 0.000, x_max: 5719.042, y_max: 5752.000]</title>
</g>
<g id="items">
<defs>
<g id="item_0">
<path d="M0,0 L-5,-321 L1,-642 L151,-660 L259,-691 L423,-738 L547,-770 L680,-801 L858,-837 L988,-682 L1075,-620 L1211,-553 L1319,-527 L1481,-526 L1597,-540 L1737,-564 L1719,-440 L1708,-317 L1718,-194 L1736,-70 L1596,-95 L1480,-109 L1318,-109 L1210,-83 L1074,-17 L986,45 L856,198.99997 L678,162 L545,131 L421,98 L257,50 L149,19 z" fill="#7A7A7A" fill-opacity="0.5" fill-rule="nonzero" stroke="black" stroke-width="15.727367"/>
</g>
<g id="item_1">
<path d="M0,0 L8,-148 L26.96225,-299.69812 L68.44348,-462.4321 L179,-449 L288,-446 L401,-463 L548,-497 L764.0157,-545.56165 L805,-350 L887,-196 L755,-176 L655,-155 L523,-121 L272,-52 L117.45331,-11.877289 z" fill="#7A7A7A" fill-opacity="0.5" fill-rule="nonzero" stroke="black" stroke-width="15.727367"/>
</g>
<g id="item_2">
<path d="M-159,-185 L-328,-228 L-474,-262 L-694.84607,-307.57144 L-806.64514,-359.47812 L-532,-384 L-408,-400 L-215,-443 L-77,-501 L130,-620 L264,-589 L477.87183,-543.8493 L652.5122,-485.0418 L766,-431 L893,-362 L1115,-258 L1125,-131 L1133,-7 L940,23 L792,45 L680,59 L524,70 L357.5263,70 L181,44 L0.9528198,4.1818695 z" fill="#7A7A7A" fill-opacity="0.5" fill-rule="nonzero" stroke="black" stroke-width="15.727367"/>
</g>
<g id="item_3">
<path d="M0,0 L8,-172 L309,-166 L484,-165 L616,-167 L718,-172 L876,-194 L1031,-248 L1351.455,-111.0968 L1209,-57 L1048.9706,-6.8212967 L909,16 L785,26 L668,29 L511,26 L213,14 z" fill="#7A7A7A" fill-opacity="0.5" fill-rule="nonzero" stroke="black" stroke-width="15.727367"/>
</g>
<g id="item_4">
<path d="M0,0 L33.96,-142.91501 L77,-268 L89,-388 L-826,-439 L-824,-598 L39,-607 L169,-650 L209,-800 L251,-940 L371,-924 L354,-726 L348,-610 L350,-412 L360,-264 L382,-94 L488.69122,232.11282 L352,54 L217,0 z" fill="#7A7A7A" fill-opacity="0.5" fill-rule="nonzero" stroke="black" stroke-width="15.727367"/>
</g>
<g id="item_5">
<path d="M0,-7.222229 L129.79999,-36.06665 L306.8846,22.961548 L495,110 L616,172 L737,238 L855,290 L959,313 L1071,306 L1275,255 L1260,394 L1250,499 L1260,606 L1275,745 L1071,694 L959,687 L855,710 L737,762 L616,828 L495,890 L306.8846,977.03845 L129.79999,1036.0667 L0,1007.2222 z" fill="#7A7A7A" fill-opacity="0.5" fill-rule="nonzero" stroke="black" stroke-width="15.727367"/>
</g>
<g id="item_6">
<path d="M0,0 L-4,-123 L-8,-291 L-17,-454 L-40,-620 L119,-619 L246,-538 L352,-501 L492,-458 L647,-416 L766,-369 L913,-302 L1061,-224 L1046,-100 L1037,2 L1061,224 L913,302 L766,369 L647,416 L492,458 L352,501 L246,538 L119,619 L-40,620 L-17,454 L-8,291 L-4,123 z" fill="#7A7A7A" fill-opacity="0.5" fill-rule="nonzero" stroke="black" stroke-width="15.727367"/>
</g>
<g id="item_7">
<path d="M-76,-85 L-178,-200 L-270,-306 L-412,-374 L-958,-383 L-954,-543 L-366,-560 L-269,-659 L-90,-708 L-4,-539 L40,-443 L94,-312 L140.2381,-190.31746 L189,-42 L4.524353,5.0601196 z" fill="#7A7A7A" fill-opacity="0.5" fill-rule="nonzero" stroke="black" stroke-width="15.727367"/>
</g>
<g id="item_8">
<path d="M-135.87357,-80.44827 L-238.0528,-203.06339 L-240.87814,-366.93304 L-197.36069,-485.8808 L-114.328445,-625.618 L-32.885136,-555.0338 L58.285713,-445 L118.14286,-305.33334 L108.69903,-151.08414 L7.1138,13.3871765 z" fill="#7A7A7A" fill-opacity="0.5" fill-rule="nonzero" stroke="black" stroke-width="15.727367"/>
</g>
<g id="item_9">
<path d="M-175.38889,-72.47955 L-304,-151 L-407,-193 L-510,-208 L-673,-192 L-790,-169 L-990,-124 L-1029,-292 L-760,-353 L-531,-404 L-413,-430 L-288,-510 L-252,-700 L-252,-862 L-274,-1015 L-533,-1157 L-762,-1207 L-1031,-1267 L-993,-1435 L-793,-1391 L-675,-1368 L-512,-1353 L-409,-1368 L-307,-1411 L-180.41176,-1488.2854 L6.421692,-1568.9188 L319,-1499 L270,-1290 L248,-1143 L241,-922 L242,-782 L242,-642 L246,-494 L257,-358 L322,-65 L15.847504,8.041077 z" fill="#7A7A7A" fill-opacity="0.5" fill-rule="nonzero" stroke="black" stroke-width="15.727367"/>
</g>
</defs>
<use transform="translate(322.06177 10.078552), rotate(-180)" xlink:href="#item_9">
<title>item, id: 9, transf: [r: -180.000°, t: (322.062, 10.079)]</title>
</use>
<use transform="translate(322.8676 1637.9941), rotate(-180)" xlink:href="#item_9">
<title>item, id: 9, transf: [r: -180.000°, t: (322.868, 1637.994)]</title>
</use>
<use transform="translate(5393.586 3507.5698), rotate(0)" xlink:href="#item_9">
<title>item, id: 9, transf: [r: 0.000°, t: (5393.586, 3507.570)]</title>
</use>
<use transform="translate(2585.067 3488.427), rotate(0)" xlink:href="#item_0">
<title>item, id: 0, transf: [r: 0.000°, t: (2585.067, 3488.427)]</title>
</use>
<use transform="translate(4647.92 3631.078), rotate(-180)" xlink:href="#item_0">
<title>item, id: 0, transf: [r: -180.000°, t: (4647.920, 3631.078)]</title>
</use>
<use transform="translate(1737.2544 3712.0835), rotate(-180)" xlink:href="#item_0">
<title>item, id: 0, transf: [r: -180.000°, t: (1737.254, 3712.083)]</title>
</use>
<use transform="translate(4369.7734 470.51855), rotate(-180)" xlink:href="#item_2">
<title>item, id: 2, transf: [r: -180.000°, t: (4369.773, 470.519)]</title>
</use>
<use transform="translate(4569.7036 5681.6807), rotate(0)" xlink:href="#item_2">
<title>item, id: 2, transf: [r: 0.000°, t: (4569.704, 5681.681)]</title>
</use>
<use transform="translate(2743.83 70.09512), rotate(-180)" xlink:href="#item_2">
<title>item, id: 2, transf: [r: -180.000°, t: (2743.830, 70.095)]</title>
</use>
<use transform="translate(4581.8174 646.5696), rotate(0)" xlink:href="#item_2">
<title>item, id: 2, transf: [r: 0.000°, t: (4581.817, 646.570)]</title>
</use>
<use transform="translate(4219.5684 2216.301), rotate(-180)" xlink:href="#item_2">
<title>item, id: 2, transf: [r: -180.000°, t: (4219.568, 2216.301)]</title>
</use>
<use transform="translate(1579.1714 5458.2397), rotate(0)" xlink:href="#item_2">
<title>item, id: 2, transf: [r: 0.000°, t: (1579.171, 5458.240)]</title>
</use>
<use transform="translate(0.5726013 4289.9585), rotate(0)" xlink:href="#item_5">
<title>item, id: 5, transf: [r: 0.000°, t: (0.573, 4289.958)]</title>
</use>
<use transform="translate(3354.3174 912.5958), rotate(0)" xlink:href="#item_5">
<title>item, id: 5, transf: [r: 0.000°, t: (3354.317, 912.596)]</title>
</use>
<use transform="translate(5719.037 5307.3755), rotate(-180)" xlink:href="#item_5">
<title>item, id: 5, transf: [r: -180.000°, t: (5719.037, 5307.375)]</title>
</use>
<use transform="translate(1750.4707 2417.5154), rotate(-180)" xlink:href="#item_6">
<title>item, id: 6, transf: [r: -180.000°, t: (1750.471, 2417.515)]</title>
</use>
<use transform="translate(5678.9775 1285.6615), rotate(-180)" xlink:href="#item_6">
<title>item, id: 6, transf: [r: -180.000°, t: (5678.978, 1285.661)]</title>
</use>
<use transform="translate(4657.958 3956.6162), rotate(0)" xlink:href="#item_6">
<title>item, id: 6, transf: [r: 0.000°, t: (4657.958, 3956.616)]</title>
</use>
<use transform="translate(3263.059 1544.1694), rotate(-180)" xlink:href="#item_4">
<title>item, id: 4, transf: [r: -180.000°, t: (3263.059, 1544.169)]</title>
</use>
<use transform="translate(2865.606 1418.404), rotate(0)" xlink:href="#item_4">
<title>item, id: 4, transf: [r: 0.000°, t: (2865.606, 1418.404)]</title>
</use>
<use transform="translate(2102.6057 3487.8232), rotate(-180)" xlink:href="#item_4">
<title>item, id: 4, transf: [r: -180.000°, t: (2102.606, 3487.823)]</title>
</use>
<use transform="translate(2105.5232 590.3456), rotate(-180)" xlink:href="#item_4">
<title>item, id: 4, transf: [r: -180.000°, t: (2105.523, 590.346)]</title>
</use>
<use transform="translate(1805.6023 2140.958), rotate(0)" xlink:href="#item_4">
<title>item, id: 4, transf: [r: 0.000°, t: (1805.602, 2140.958)]</title>
</use>
<use transform="translate(2215.5571 3681.9358), rotate(0)" xlink:href="#item_4">
<title>item, id: 4, transf: [r: 0.000°, t: (2215.557, 3681.936)]</title>
</use>
<use transform="translate(3365.7852 5338.2603), rotate(0)" xlink:href="#item_7">
<title>item, id: 7, transf: [r: 0.000°, t: (3365.785, 5338.260)]</title>
</use>
<use transform="translate(2144.754 4135.547), rotate(-180)" xlink:href="#item_7">
<title>item, id: 7, transf: [r: -180.000°, t: (2144.754, 4135.547)]</title>
</use>
<use transform="translate(2103.9895 2176.982), rotate(-180)" xlink:href="#item_7">
<title>item, id: 7, transf: [r: -180.000°, t: (2103.990, 2176.982)]</title>
</use>
<use transform="translate(2822.0466 4967.085), rotate(-180)" xlink:href="#item_7">
<title>item, id: 7, transf: [r: -180.000°, t: (2822.047, 4967.085)]</title>
</use>
<use transform="translate(3502.8892 4886.772), rotate(0)" xlink:href="#item_7">
<title>item, id: 7, transf: [r: 0.000°, t: (3502.889, 4886.772)]</title>
</use>
<use transform="translate(1557.856 1410.157), rotate(0)" xlink:href="#item_7">
<title>item, id: 7, transf: [r: 0.000°, t: (1557.856, 1410.157)]</title>
</use>
<use transform="translate(4279.622 47.46058), rotate(-180)" xlink:href="#item_3">
<title>item, id: 3, transf: [r: -180.000°, t: (4279.622, 47.461)]</title>
</use>
<use transform="translate(1528.3694 5722.9956), rotate(0)" xlink:href="#item_3">
<title>item, id: 3, transf: [r: 0.000°, t: (1528.369, 5722.996)]</title>
</use>
<use transform="translate(3977.935 1957.4456), rotate(0)" xlink:href="#item_3">
<title>item, id: 3, transf: [r: 0.000°, t: (3977.935, 1957.446)]</title>
</use>
<use transform="translate(60.514526 5719.9634), rotate(0)" xlink:href="#item_3">
<title>item, id: 3, transf: [r: 0.000°, t: (60.515, 5719.963)]</title>
</use>
<use transform="translate(3156.6462 5722.976), rotate(0)" xlink:href="#item_3">
<title>item, id: 3, transf: [r: 0.000°, t: (3156.646, 5722.976)]</title>
</use>
<use transform="translate(1368.0221 5259.975), rotate(-180)" xlink:href="#item_3">
<title>item, id: 3, transf: [r: -180.000°, t: (1368.022, 5259.975)]</title>
</use>
<use transform="translate(4335.5366 4787.051), rotate(-180)" xlink:href="#item_1">
<title>item, id: 1, transf: [r: -180.000°, t: (4335.537, 4787.051)]</title>
</use>
<use transform="translate(5125.279 2565.874), rotate(-180)" xlink:href="#item_1">
<title>item, id: 1, transf: [r: -180.000°, t: (5125.279, 2565.874)]</title>
</use>
<use transform="translate(4462.708 4326.8086), rotate(-180)" xlink:href="#item_1">
<title>item, id: 1, transf: [r: -180.000°, t: (4462.708, 4326.809)]</title>
</use>
<use transform="translate(1622.5941 250.20471), rotate(-180)" xlink:href="#item_1">
<title>item, id: 1, transf: [r: -180.000°, t: (1622.594, 250.205)]</title>
</use>
<use transform="translate(1177.9409 3065.2), rotate(-180)" xlink:href="#item_1">
<title>item, id: 1, transf: [r: -180.000°, t: (1177.941, 3065.200)]</title>
</use>
<use transform="translate(1265.0249 4936.5654), rotate(0)" xlink:href="#item_1">
<title>item, id: 1, transf: [r: 0.000°, t: (1265.025, 4936.565)]</title>
</use>
<use transform="translate(2765.5327 1964.2253), rotate(0)" xlink:href="#item_8">
<title>item, id: 8, transf: [r: 0.000°, t: (2765.533, 1964.225)]</title>
</use>
<use transform="translate(2004.962 3064.0415), rotate(0)" xlink:href="#item_8">
<title>item, id: 8, transf: [r: 0.000°, t: (2004.962, 3064.042)]</title>
</use>
<use transform="translate(2411.5156 1820.5928), rotate(0)" xlink:href="#item_8">
<title>item, id: 8, transf: [r: 0.000°, t: (2411.516, 1820.593)]</title>
</use>
<use transform="translate(123.91452 3192.7468), rotate(-180)" xlink:href="#item_8">
<title>item, id: 8, transf: [r: -180.000°, t: (123.915, 3192.747)]</title>
</use>
<use transform="translate(2319.0322 1777.3818), rotate(-180)" xlink:href="#item_8">
<title>item, id: 8, transf: [r: -180.000°, t: (2319.032, 1777.382)]</title>
</use>
<use transform="translate(2789.87 2541.8499), rotate(0)" xlink:href="#item_8">
<title>item, id: 8, transf: [r: 0.000°, t: (2789.870, 2541.850)]</title>
</use>
</g>
<g id="quality_zones"/>
<g id="optionals">
<g id="overlap_lines" transform="translate(0 0), rotate(0)"/>
</g>
<text font-family="monospace" font-size="142.97606" font-weight="500" x="0" y="-71.48803">
height: 5752.000 | width: 5719.042 | usage: 77.350% | final_bench_57
</text>
</svg>