<svg viewBox="-1.284461 -0.75007516 28.258137 16.50165" xmlns="http://www.w3.org/2000/svg" xmlns:xlink="http://www.w3.org/1999/xlink">
<g id="bin_0">
<path d="M0,0 L25.689215,0 L25.689215,15.0015 L0,15.0015 z" fill="#D3D3D3" stroke="black" stroke-width="0.08250825"/>
<title>bin, id: 0, bbox: [x_min: 0.000, y_min: 0.000, x_max: 25.689, y_max: 15.002]</title>
</g>
<g id="items">
<defs>
<g id="item_0">
<path d="M0,0 L2,-1 L4,0 L4,3 L2,4 L0,3 z" fill="#7A7A7A" fill-opacity="0.5" fill-rule="nonzero" stroke="black" stroke-width="0.041254126"/>
</g>
<g id="item_1">
<path d="M0,0 L3,0 L2,2 L3,4 L3,5 L1,5 L-1,3 L-1,1 z" fill="#7A7A7A" fill-opacity="0.5" fill-rule="nonzero" stroke="black" stroke-width="0.041254126"/>
</g>
<g id="item_2">
<path d="M0,0 L2,0 L3,1 L3,3 L2,4 L0,4 L-1,3 L-1,1 z" fill="#7A7A7A" fill-opacity="0.5" fill-rule="nonzero" stroke="black" stroke-width="0.041254126"/>
</g>
<g id="item_3">
<path d="M0,0 L2,1 L4,0 L3,2 L4,5 L2,4 L0,5 L1,3 z" fill="#7A7A7A" fill-opacity="0.5" fill-rule="nonzero" stroke="black" stroke-width="0.041254126"/>
</g>
<g id="item_4">
<path d="M0,0 L5,0 L5,5 L4,5 L3,3 L2,2 L0,1 z" fill="#7A7A7A" fill-opacity="0.5" fill-rule="nonzero" stroke="black" stroke-width="0.041254126"/>
</g>
<g id="item_5">
<path d="M0,0 L2,3 L-2,3 z" fill="#7A7A7A" fill-opacity="0.5" fill-rule="nonzero" stroke="black" stroke-width="0.041254126"/>
</g>
<g id="item_6">
<path d="M0,0 L2,0 L2,2 L0,2 z" fill="#7A7A7A" fill-opacity="0.5" fill-rule="nonzero" stroke="black" stroke-width="0.041254126"/>
</g>
</defs>
<use transform="translate(3.514965 10.001361), rotate(0)" xlink:href="#item_3">
<title>item, id: 3, transf: [r: 0.000°, t: (3.515, 10.001)]</title>
</use>
<use transform="translate(0.000024557114 6.4577827), rotate(0)" xlink:href="#item_3">
<title>item, id: 3, transf: [r: 0.000°, t: (0.000, 6.458)]</title>
</use>
<use transform="translate(14.980644 8.39607), rotate(0)" xlink:href="#item_3">
<title>item, id: 3, transf: [r: 0.000°, t: (14.981, 8.396)]</title>
</use>
<use transform="translate(14.755863 0.0003232956), rotate(0)" xlink:href="#item_3">
<title>item, id: 3, transf: [r: 0.000°, t: (14.756, 0.000)]</title>
</use>
<use transform="translate(24.052229 10.00015), rotate(-180)" xlink:href="#item_4">
<title>item, id: 4, transf: [r: -180.000°, t: (24.052, 10.000)]</title>
</use>
<use transform="translate(20.653748 5.203113), rotate(0)" xlink:href="#item_4">
<title>item, id: 4, transf: [r: 0.000°, t: (20.654, 5.203)]</title>
</use>
<use transform="translate(16.184395 15.0011835), rotate(-180)" xlink:href="#item_4">
<title>item, id: 4, transf: [r: -180.000°, t: (16.184, 15.001)]</title>
</use>
<use transform="translate(9.000481 6.409138), rotate(-180)" xlink:href="#item_4">
<title>item, id: 4, transf: [r: -180.000°, t: (9.000, 6.409)]</title>
</use>
<use transform="translate(24.687412 15.000921), rotate(-180)" xlink:href="#item_1">
<title>item, id: 1, transf: [r: -180.000°, t: (24.687, 15.001)]</title>
</use>
<use transform="translate(19.188553 0.13518167), rotate(0)" xlink:href="#item_1">
<title>item, id: 1, transf: [r: 0.000°, t: (19.189, 0.135)]</title>
</use>
<use transform="translate(22.689209 0.13493657), rotate(0)" xlink:href="#item_1">
<title>item, id: 1, transf: [r: 0.000°, t: (22.689, 0.135)]</title>
</use>
<use transform="translate(21.185253 15.0006075), rotate(-180)" xlink:href="#item_1">
<title>item, id: 1, transf: [r: -180.000°, t: (21.185, 15.001)]</title>
</use>
<use transform="translate(7.0928717 1.4542251), rotate(0)" xlink:href="#item_0">
<title>item, id: 0, transf: [r: 0.000°, t: (7.093, 1.454)]</title>
</use>
<use transform="translate(4.000257 6.451975), rotate(-180)" xlink:href="#item_0">
<title>item, id: 0, transf: [r: -180.000°, t: (4.000, 6.452)]</title>
</use>
<use transform="translate(7.1817255 11.00129), rotate(0)" xlink:href="#item_0">
<title>item, id: 0, transf: [r: 0.000°, t: (7.182, 11.001)]</title>
</use>
<use transform="translate(19.051912 8.150574), rotate(-180)" xlink:href="#item_0">
<title>item, id: 0, transf: [r: -180.000°, t: (19.052, 8.151)]</title>
</use>
<use transform="translate(12.092909 0.011562109), rotate(0)" xlink:href="#item_2">
<title>item, id: 2, transf: [r: 0.000°, t: (12.093, 0.012)]</title>
</use>
<use transform="translate(1.0049288 10.978489), rotate(0)" xlink:href="#item_2">
<title>item, id: 2, transf: [r: 0.000°, t: (1.005, 10.978)]</title>
</use>
<use transform="translate(6.4857845 10.486756), rotate(-180)" xlink:href="#item_2">
<title>item, id: 2, transf: [r: -180.000°, t: (6.486, 10.487)]</title>
</use>
<use transform="translate(11.768564 4.0135984), rotate(0)" xlink:href="#item_2">
<title>item, id: 2, transf: [r: 0.000°, t: (11.769, 4.014)]</title>
</use>
<use transform="translate(6.0617127 3.0005808), rotate(-180)" xlink:href="#item_5">
<title>item, id: 5, transf: [r: -180.000°, t: (6.062, 3.001)]</title>
</use>
<use transform="translate(8.768516 9.409218), rotate(-180)" xlink:href="#item_5">
<title>item, id: 5, transf: [r: -180.000°, t: (8.769, 9.409)]</title>
</use>
<use transform="translate(10.374106 7.0010805), rotate(0)" xlink:href="#item_5">
<title>item, id: 5, transf: [r: 0.000°, t: (10.374, 7.001)]</title>
</use>
<use transform="translate(13.050261 11.015099), rotate(-180)" xlink:href="#item_5">
<title>item, id: 5, transf: [r: -180.000°, t: (13.050, 11.015)]</title>
</use>
<use transform="translate(13.519559 10.315706), rotate(0)" xlink:href="#item_6">
<title>item, id: 6, transf: [r: 0.000°, t: (13.520, 10.316)]</title>
</use>
<use transform="translate(4.0003505 2.0066247), rotate(-180)" xlink:href="#item_6">
<title>item, id: 6, transf: [r: -180.000°, t: (4.000, 2.007)]</title>
</use>
<use transform="translate(18.185009 15.001355), rotate(-180)" xlink:href="#item_6">
<title>item, id: 6, transf: [r: -180.000°, t: (18.185, 15.001)]</title>
</use>
<use transform="translate(0.00021326542 0.45180142), rotate(0)" xlink:href="#item_6">
<title>item, id: 6, transf: [r: 0.000°, t: (0.000, 0.452)]</title>
</use>
</g>
<g id="quality_zones"/>
<g id="optionals">
<g id="overlap_lines" transform="translate(0 0), rotate(0)"/>
</g>
<text font-family="monospace" font-size="0.37503752" font-weight="500" x="0" y="-0.18751876">
height: 15.002 | width: 25.689 | usage: 84.074% | final_bench_21
</text>
</svg>