<svg viewBox="-1.2751898 -0.75007516 28.054169 16.50165" xmlns="http://www.w3.org/2000/svg" xmlns:xlink="http://www.w3.org/1999/xlink">
<g id="bin_0">
<path d="M0,0 L25.503788,0 L25.503788,15.0015 L0,15.0015 z" fill="#D3D3D3" stroke="black" stroke-width="0.08250825"/>
<title>bin, id: 0, bbox: [x_min: 0.000, y_min: 0.000, x_max: 25.504, y_max: 15.002]</title>
</g>
<g id="items">
<defs>
<g id="item_0">
<path d="M0,0 L2,-1 L4,0 L4,3 L2,4 L0,3 z" fill="#7A7A7A" fill-opacity="0.5" fill-rule="nonzero" stroke="black" stroke-width="0.041254126"/>
</g>
<g id="item_1">
<path d="M0,0 L3,0 L2,2 L3,4 L3,5 L1,5 L-1,3 L-1,1 z" fill="#7A7A7A" fill-opacity="0.5" fill-rule="nonzero" stroke="black" stroke-width="0.041254126"/>
</g>
<g id="item_2">
<path d="M0,0 L2,0 L3,1 L3,3 L2,4 L0,4 L-1,3 L-1,1 z" fill="#7A7A7A" fill-opacity="0.5" fill-rule="nonzero" stroke="black" stroke-width="0.041254126"/>
</g>
<g id="item_3">
<path d="M0,0 L2,1 L4,0 L3,2 L4,5 L2,4 L0,5 L1,3 z" fill="#7A7A7A" fill-opacity="0.5" fill-rule="nonzero" stroke="black" stroke-width="0.041254126"/>
</g>
<g id="item_4">
<path d="M0,0 L5,0 L5,5 L4,5 L3,3 L2,2 L0,1 z" fill="#7A7A7A" fill-opacity="0.5" fill-rule="nonzero" stroke="black" stroke-width="0.041254126"/>
</g>
<g id="item_5">
<path d="M0,0 L2,3 L-2,3 z" fill="#7A7A7A" fill-opacity="0.5" fill-rule="nonzero" stroke="black" stroke-width="0.041254126"/>
</g>
<g id="item_6">
<path d="M0,0 L2,0 L2,2 L0,2 z" fill="#7A7A7A" fill-opacity="0.5" fill-rule="nonzero" stroke="black" stroke-width="0.041254126"/>
</g>
</defs>
<use transform="translate(21.50282 6.0010595), rotate(0)" xlink:href="#item_3">
<title>item, id: 3, transf: [r: 0.000°, t: (21.503, 6.001)]</title>
</use>
<use transform="translate(14.335205 6.5011196), rotate(0)" xlink:href="#item_3">
<title>item, id: 3, transf: [r: 0.000°, t: (14.335, 6.501)]</title>
</use>
<use transform="translate(17.835838 10.001292), rotate(0)" xlink:href="#item_3">
<title>item, id: 3, transf: [r: 0.000°, t: (17.836, 10.001)]</title>
</use>
<use transform="translate(14.500633 15.001457), rotate(-180)" xlink:href="#item_3">
<title>item, id: 3, transf: [r: -180.000°, t: (14.501, 15.001)]</title>
</use>
<use transform="translate(5.0007515 5.000494), rotate(-180)" xlink:href="#item_4">
<title>item, id: 4, transf: [r: -180.000°, t: (5.001, 5.000)]</title>
</use>
<use transform="translate(5.0000196 10.000648), rotate(-180)" xlink:href="#item_4">
<title>item, id: 4, transf: [r: -180.000°, t: (5.000, 10.001)]</title>
</use>
<use transform="translate(1.5012572 5.0012116), rotate(0)" xlink:href="#item_4">
<title>item, id: 4, transf: [r: 0.000°, t: (1.501, 5.001)]</title>
</use>
<use transform="translate(16.502293 0.00009787083), rotate(0)" xlink:href="#item_4">
<title>item, id: 4, transf: [r: 0.000°, t: (16.502, 0.000)]</title>
</use>
<use transform="translate(8.833941 0.0014307499), rotate(0)" xlink:href="#item_1">
<title>item, id: 1, transf: [r: 0.000°, t: (8.834, 0.001)]</title>
</use>
<use transform="translate(10.037778 14.92696), rotate(-180)" xlink:href="#item_1">
<title>item, id: 1, transf: [r: -180.000°, t: (10.038, 14.927)]</title>
</use>
<use transform="translate(5.333187 0.0011136532), rotate(0)" xlink:href="#item_1">
<title>item, id: 1, transf: [r: 0.000°, t: (5.333, 0.001)]</title>
</use>
<use transform="translate(6.500391 15.000969), rotate(-180)" xlink:href="#item_1">
<title>item, id: 1, transf: [r: -180.000°, t: (6.500, 15.001)]</title>
</use>
<use transform="translate(21.503286 3.000815), rotate(0)" xlink:href="#item_0">
<title>item, id: 0, transf: [r: 0.000°, t: (21.503, 3.001)]</title>
</use>
<use transform="translate(10.501311 7.000272), rotate(0)" xlink:href="#item_0">
<title>item, id: 0, transf: [r: 0.000°, t: (10.501, 7.000)]</title>
</use>
<use transform="translate(21.502594 11.001397), rotate(0)" xlink:href="#item_0">
<title>item, id: 0, transf: [r: 0.000°, t: (21.503, 11.001)]</title>
</use>
<use transform="translate(10.50126 8.9176655), rotate(-180)" xlink:href="#item_0">
<title>item, id: 0, transf: [r: -180.000°, t: (10.501, 8.918)]</title>
</use>
<use transform="translate(14.370859 4.000197), rotate(-180)" xlink:href="#item_2">
<title>item, id: 2, transf: [r: -180.000°, t: (14.371, 4.000)]</title>
</use>
<use transform="translate(20.83671 10.500391), rotate(-180)" xlink:href="#item_2">
<title>item, id: 2, transf: [r: -180.000°, t: (20.837, 10.500)]</title>
</use>
<use transform="translate(15.335449 11.0013075), rotate(0)" xlink:href="#item_2">
<title>item, id: 2, transf: [r: 0.000°, t: (15.335, 11.001)]</title>
</use>
<use transform="translate(1.0002754 11.00105), rotate(0)" xlink:href="#item_2">
<title>item, id: 2, transf: [r: 0.000°, t: (1.000, 11.001)]</title>
</use>
<use transform="translate(3.0005796 3.0000105), rotate(-180)" xlink:href="#item_5">
<title>item, id: 5, transf: [r: -180.000°, t: (3.001, 3.000)]</title>
</use>
<use transform="translate(19.49744 3.4933553), rotate(0)" xlink:href="#item_5">
<title>item, id: 5, transf: [r: 0.000°, t: (19.497, 3.493)]</title>
</use>
<use transform="translate(17.513733 6.4453754), rotate(-180)" xlink:href="#item_5">
<title>item, id: 5, transf: [r: -180.000°, t: (17.514, 6.445)]</title>
</use>
<use transform="translate(15.501144 3.4995465), rotate(0)" xlink:href="#item_5">
<title>item, id: 5, transf: [r: 0.000°, t: (15.501, 3.500)]</title>
</use>
<use transform="translate(11.833973 4.0002575), rotate(0)" xlink:href="#item_6">
<title>item, id: 6, transf: [r: 0.000°, t: (11.834, 4.000)]</title>
</use>
<use transform="translate(17.371014 3.4356594), rotate(-180)" xlink:href="#item_6">
<title>item, id: 6, transf: [r: -180.000°, t: (17.371, 3.436)]</title>
</use>
<use transform="translate(21.502802 0.0006593466), rotate(0)" xlink:href="#item_6">
<title>item, id: 6, transf: [r: 0.000°, t: (21.503, 0.001)]</title>
</use>
<use transform="translate(25.503658 2.0001183), rotate(-180)" xlink:href="#item_6">
<title>item, id: 6, transf: [r: -180.000°, t: (25.504, 2.000)]</title>
</use>
</g>
<g id="quality_zones"/>
<g id="optionals">
<g id="overlap_lines" transform="translate(0 0), rotate(0)"/>
</g>
<text font-family="monospace" font-size="0.37503752" font-weight="500" x="0" y="-0.18751876">
height: 15.002 | width: 25.504 | usage: 84.685% | final_bench_79
</text>
</svg>