<svg viewBox="-1.2789508 -0.75007516 28.136913 16.50165" xmlns="http://www.w3.org/2000/svg" xmlns:xlink="http://www.w3.org/1999/xlink">
<g id="bin_0">
<path d="M0,0 L25.57901,0 L25.57901,15.0015 L0,15.0015 z" fill="#D3D3D3" stroke="black" stroke-width="0.08250825"/>
<title>bin, id: 0, bbox: [x_min: 0.000, y_min: 0.000, x_max: 25.579, y_max: 15.002]</title>
</g>
<g id="items">
<defs>
<g id="item_0">
<path d="M0,0 L2,-1 L4,0 L4,3 L2,4 L0,3 z" fill="#7A7A7A" fill-opacity="0.5" fill-rule="nonzero" stroke="black" stroke-width="0.041254126"/>
</g>
<g id="item_1">
<path d="M0,0 L3,0 L2,2 L3,4 L3,5 L1,5 L-1,3 L-1,1 z" fill="#7A7A7A" fill-opacity="0.5" fill-rule="nonzero" stroke="black" stroke-width="0.041254126"/>
</g>
<g id="item_2">
<path d="M0,0 L2,0 L3,1 L3,3 L2,4 L0,4 L-1,3 L-1,1 z" fill="#7A7A7A" fill-opacity="0.5" fill-rule="nonzero" stroke="black" stroke-width="0.041254126"/>
</g>
<g id="item_3">
<path d="M0,0 L2,1 L4,0 L3,2 L4,5 L2,4 L0,5 L1,3 z" fill="#7A7A7A" fill-opacity="0.5" fill-rule="nonzero" stroke="black" stroke-width="0.041254126"/>
</g>
<g id="item_4">
<path d="M0,0 L5,0 L5,5 L4,5 L3,3 L2,2 L0,1 z" fill="#7A7A7A" fill-opacity="0.5" fill-rule="nonzero" stroke="black" stroke-width="0.041254126"/>
</g>
<g id="item_5">
<path d="M0,0 L2,3 L-2,3 z" fill="#7A7A7A" fill-opacity="0.5" fill-rule="nonzero" stroke="black" stroke-width="0.041254126"/>
</g>
<g id="item_6">
<path d="M0,0 L2,0 L2,2 L0,2 z" fill="#7A7A7A" fill-opacity="0.5" fill-rule="nonzero" stroke="black" stroke-width="0.041254126"/>
</g>
</defs>
<use transform="translate(0.00026607513 6.4340343), rotate(0)" xlink:href="#item_3">
<title>item, id: 3, transf: [r: 0.000°, t: (0.000, 6.434)]</title>
</use>
<use transform="translate(21.57897 4.00072), rotate(0)" xlink:href="#item_3">
<title>item, id: 3, transf: [r: 0.000°, t: (21.579, 4.001)]</title>
</use>
<use transform="translate(21.977797 5.1981163), rotate(-180)" xlink:href="#item_3">
<title>item, id: 3, transf: [r: -180.000°, t: (21.978, 5.198)]</title>
</use>
<use transform="translate(3.522922 10.001157), rotate(0)" xlink:href="#item_3">
<title>item, id: 3, transf: [r: 0.000°, t: (3.523, 10.001)]</title>
</use>
<use transform="translate(5.001222 6.433653), rotate(-180)" xlink:href="#item_4">
<title>item, id: 4, transf: [r: -180.000°, t: (5.001, 6.434)]</title>
</use>
<use transform="translate(8.978695 5.0001864), rotate(0)" xlink:href="#item_4">
<title>item, id: 4, transf: [r: 0.000°, t: (8.979, 5.000)]</title>
</use>
<use transform="translate(19.525784 14.993821), rotate(-180)" xlink:href="#item_4">
<title>item, id: 4, transf: [r: -180.000°, t: (19.526, 14.994)]</title>
</use>
<use transform="translate(12.47859 10.000118), rotate(-180)" xlink:href="#item_4">
<title>item, id: 4, transf: [r: -180.000°, t: (12.479, 10.000)]</title>
</use>
<use transform="translate(17.576736 5.0001755), rotate(-180)" xlink:href="#item_1">
<title>item, id: 1, transf: [r: -180.000°, t: (17.577, 5.000)]</title>
</use>
<use transform="translate(11.525263 10.001148), rotate(0)" xlink:href="#item_1">
<title>item, id: 1, transf: [r: 0.000°, t: (11.525, 10.001)]</title>
</use>
<use transform="translate(14.075638 5.000002), rotate(-180)" xlink:href="#item_1">
<title>item, id: 1, transf: [r: -180.000°, t: (14.076, 5.000)]</title>
</use>
<use transform="translate(8.02337 10.000319), rotate(0)" xlink:href="#item_1">
<title>item, id: 1, transf: [r: 0.000°, t: (8.023, 10.000)]</title>
</use>
<use transform="translate(21.978815 8.200773), rotate(-180)" xlink:href="#item_0">
<title>item, id: 0, transf: [r: -180.000°, t: (21.979, 8.201)]</title>
</use>
<use transform="translate(13.978749 6.2162566), rotate(0)" xlink:href="#item_0">
<title>item, id: 0, transf: [r: 0.000°, t: (13.979, 6.216)]</title>
</use>
<use transform="translate(25.570778 12.004855), rotate(-180)" xlink:href="#item_0">
<title>item, id: 0, transf: [r: -180.000°, t: (25.571, 12.005)]</title>
</use>
<use transform="translate(25.578926 4.000421), rotate(-180)" xlink:href="#item_0">
<title>item, id: 0, transf: [r: -180.000°, t: (25.579, 4.000)]</title>
</use>
<use transform="translate(6.47817 10.478676), rotate(-180)" xlink:href="#item_2">
<title>item, id: 2, transf: [r: -180.000°, t: (6.478, 10.479)]</title>
</use>
<use transform="translate(20.071009 13.256875), rotate(-180)" xlink:href="#item_2">
<title>item, id: 2, transf: [r: -180.000°, t: (20.071, 13.257)]</title>
</use>
<use transform="translate(4.059982 0.4785726), rotate(0)" xlink:href="#item_2">
<title>item, id: 2, transf: [r: 0.000°, t: (4.060, 0.479)]</title>
</use>
<use transform="translate(1.0300474 10.965458), rotate(0)" xlink:href="#item_2">
<title>item, id: 2, transf: [r: 0.000°, t: (1.030, 10.965)]</title>
</use>
<use transform="translate(10.075282 0.00003385544), rotate(0)" xlink:href="#item_5">
<title>item, id: 5, transf: [r: 0.000°, t: (10.075, 0.000)]</title>
</use>
<use transform="translate(21.522646 11.999379), rotate(0)" xlink:href="#item_5">
<title>item, id: 5, transf: [r: 0.000°, t: (21.523, 11.999)]</title>
</use>
<use transform="translate(2.04549 3.00001), rotate(-180)" xlink:href="#item_5">
<title>item, id: 5, transf: [r: -180.000°, t: (2.045, 3.000)]</title>
</use>
<use transform="translate(8.074637 3.0000646), rotate(-180)" xlink:href="#item_5">
<title>item, id: 5, transf: [r: -180.000°, t: (8.075, 3.000)]</title>
</use>
<use transform="translate(9.068676 3.0000844), rotate(0)" xlink:href="#item_6">
<title>item, id: 6, transf: [r: 0.000°, t: (9.069, 3.000)]</title>
</use>
<use transform="translate(23.578236 13.001344), rotate(0)" xlink:href="#item_6">
<title>item, id: 6, transf: [r: 0.000°, t: (23.578, 13.001)]</title>
</use>
<use transform="translate(9.0672245 5.0000854), rotate(-180)" xlink:href="#item_6">
<title>item, id: 6, transf: [r: -180.000°, t: (9.067, 5.000)]</title>
</use>
<use transform="translate(5.065093 4.4785957), rotate(0)" xlink:href="#item_6">
<title>item, id: 6, transf: [r: 0.000°, t: (5.065, 4.479)]</title>
</use>
</g>
<g id="quality_zones"/>
<g id="optionals">
<g id="overlap_lines" transform="translate(0 0), rotate(0)"/>
</g>
<text font-family="monospace" font-size="0.37503752" font-weight="500" x="0" y="-0.18751876">
height: 15.002 | width: 25.579 | usage: 84.436% | final_bench_96
</text>
</svg>