<svg viewBox="-1.2870501 -0.75007516 28.315096 16.50165" xmlns="http://www.w3.org/2000/svg" xmlns:xlink="http://www.w3.org/1999/xlink">
<g id="bin_0">
<path d="M0,0 L25.740995,0 L25.740995,15.0015 L0,15.0015 z" fill="#D3D3D3" stroke="black" stroke-width="0.08250825"/>
<title>bin, id: 0, bbox: [x_min: 0.000, y_min: 0.000, x_max: 25.741, y_max: 15.002]</title>
</g>
<g id="items">
<defs>
<g id="item_0">
<path d="M0,0 L2,-1 L4,0 L4,3 L2,4 L0,3 z" fill="#7A7A7A" fill-opacity="0.5" fill-rule="nonzero" stroke="black" stroke-width="0.041254126"/>
</g>
<g id="item_1">
<path d="M0,0 L3,0 L2,2 L3,4 L3,5 L1,5 L-1,3 L-1,1 z" fill="#7A7A7A" fill-opacity="0.5" fill-rule="nonzero" stroke="black" stroke-width="0.041254126"/>
</g>
<g id="item_2">
<path d="M0,0 L2,0 L3,1 L3,3 L2,4 L0,4 L-1,3 L-1,1 z" fill="#7A7A7A" fill-opacity="0.5" fill-rule="nonzero" stroke="black" stroke-width="0.041254126"/>
</g>
<g id="item_3">
<path d="M0,0 L2,1 L4,0 L3,2 L4,5 L2,4 L0,5 L1,3 z" fill="#7A7A7A" fill-opacity="0.5" fill-rule="nonzero" stroke="black" stroke-width="0.041254126"/>
</g>
<g id="item_4">
<path d="M0,0 L5,0 L5,5 L4,5 L3,3 L2,2 L0,1 z" fill="#7A7A7A" fill-opacity="0.5" fill-rule="nonzero" stroke="black" stroke-width="0.041254126"/>
</g>
<g id="item_5">
<path d="M0,0 L2,3 L-2,3 z" fill="#7A7A7A" fill-opacity="0.5" fill-rule="nonzero" stroke="black" stroke-width="0.041254126"/>
</g>
<g id="item_6">
<path d="M0,0 L2,0 L2,2 L0,2 z" fill="#7A7A7A" fill-opacity="0.5" fill-rule="nonzero" stroke="black" stroke-width="0.041254126"/>
</g>
</defs>
<use transform="translate(21.740978 9.718245), rotate(0)" xlink:href="#item_3">
<title>item, id: 3, transf: [r: 0.000°, t: (21.741, 9.718)]</title>
</use>
<use transform="translate(22.107054 10.816636), rotate(-180)" xlink:href="#item_3">
<title>item, id: 3, transf: [r: -180.000°, t: (22.107, 10.817)]</title>
</use>
<use transform="translate(14.499567 10.001436), rotate(0)" xlink:href="#item_3">
<title>item, id: 3, transf: [r: 0.000°, t: (14.500, 10.001)]</title>
</use>
<use transform="translate(14.499353 2.0003195), rotate(0)" xlink:href="#item_3">
<title>item, id: 3, transf: [r: 0.000°, t: (14.499, 2.000)]</title>
</use>
<use transform="translate(9.494154 5.0633626), rotate(0)" xlink:href="#item_4">
<title>item, id: 4, transf: [r: 0.000°, t: (9.494, 5.063)]</title>
</use>
<use transform="translate(6.1778507 0.0019692183), rotate(0)" xlink:href="#item_4">
<title>item, id: 4, transf: [r: 0.000°, t: (6.178, 0.002)]</title>
</use>
<use transform="translate(5.0001616 5.999389), rotate(-180)" xlink:href="#item_4">
<title>item, id: 4, transf: [r: -180.000°, t: (5.000, 5.999)]</title>
</use>
<use transform="translate(20.740667 0.0001155138), rotate(0)" xlink:href="#item_4">
<title>item, id: 4, transf: [r: 0.000°, t: (20.741, 0.000)]</title>
</use>
<use transform="translate(10.500765 14.998749), rotate(-180)" xlink:href="#item_1">
<title>item, id: 1, transf: [r: -180.000°, t: (10.501, 14.999)]</title>
</use>
<use transform="translate(12.178752 0.061971426), rotate(0)" xlink:href="#item_1">
<title>item, id: 1, transf: [r: 0.000°, t: (12.179, 0.062)]</title>
</use>
<use transform="translate(3.0000534 11.0013275), rotate(-180)" xlink:href="#item_1">
<title>item, id: 1, transf: [r: -180.000°, t: (3.000, 11.001)]</title>
</use>
<use transform="translate(14.0011215 14.998095), rotate(-180)" xlink:href="#item_1">
<title>item, id: 1, transf: [r: -180.000°, t: (14.001, 14.998)]</title>
</use>
<use transform="translate(18.500063 10.000903), rotate(-180)" xlink:href="#item_0">
<title>item, id: 0, transf: [r: -180.000°, t: (18.500, 10.001)]</title>
</use>
<use transform="translate(21.740917 6.7180424), rotate(0)" xlink:href="#item_0">
<title>item, id: 0, transf: [r: 0.000°, t: (21.741, 6.718)]</title>
</use>
<use transform="translate(22.109722 13.829429), rotate(-180)" xlink:href="#item_0">
<title>item, id: 0, transf: [r: -180.000°, t: (22.110, 13.829)]</title>
</use>
<use transform="translate(18.09945 2.800353), rotate(0)" xlink:href="#item_0">
<title>item, id: 0, transf: [r: 0.000°, t: (18.099, 2.800)]</title>
</use>
<use transform="translate(1.0000434 11.0014925), rotate(0)" xlink:href="#item_2">
<title>item, id: 2, transf: [r: 0.000°, t: (1.000, 11.001)]</title>
</use>
<use transform="translate(6.0170555 1.9264331), rotate(0)" xlink:href="#item_2">
<title>item, id: 2, transf: [r: 0.000°, t: (6.017, 1.926)]</title>
</use>
<use transform="translate(9.044785 9.934479), rotate(-180)" xlink:href="#item_2">
<title>item, id: 2, transf: [r: -180.000°, t: (9.045, 9.934)]</title>
</use>
<use transform="translate(7.0000854 14.998569), rotate(-180)" xlink:href="#item_2">
<title>item, id: 2, transf: [r: -180.000°, t: (7.000, 14.999)]</title>
</use>
<use transform="translate(11.33667 6.997532), rotate(0)" xlink:href="#item_5">
<title>item, id: 5, transf: [r: 0.000°, t: (11.337, 6.998)]</title>
</use>
<use transform="translate(2.3448322 3.0136476), rotate(-180)" xlink:href="#item_5">
<title>item, id: 5, transf: [r: -180.000°, t: (2.345, 3.014)]</title>
</use>
<use transform="translate(5.3521223 7.9980545), rotate(0)" xlink:href="#item_5">
<title>item, id: 5, transf: [r: 0.000°, t: (5.352, 7.998)]</title>
</use>
<use transform="translate(4.6674647 8.999783), rotate(-180)" xlink:href="#item_5">
<title>item, id: 5, transf: [r: -180.000°, t: (4.667, 9.000)]</title>
</use>
<use transform="translate(19.700146 2.0000014), rotate(-180)" xlink:href="#item_6">
<title>item, id: 6, transf: [r: -180.000°, t: (19.700, 2.000)]</title>
</use>
<use transform="translate(5.0166264 4.0062447), rotate(-180)" xlink:href="#item_6">
<title>item, id: 6, transf: [r: -180.000°, t: (5.017, 4.006)]</title>
</use>
<use transform="translate(22.099527 3.7179098), rotate(0)" xlink:href="#item_6">
<title>item, id: 6, transf: [r: 0.000°, t: (22.100, 3.718)]</title>
</use>
<use transform="translate(15.114407 0.30765808), rotate(0)" xlink:href="#item_6">
<title>item, id: 6, transf: [r: 0.000°, t: (15.114, 0.308)]</title>
</use>
</g>
<g id="quality_zones"/>
<g id="optionals">
<g id="overlap_lines" transform="translate(0 0), rotate(0)"/>
</g>
<text font-family="monospace" font-size="0.37503752" font-weight="500" x="0" y="-0.18751876">
height: 15.002 | width: 25.741 | usage: 83.904% | final_bench_60
</text>
</svg>