<svg viewBox="-1.2782964 -0.75007516 28.122513 16.50165" xmlns="http://www.w3.org/2000/svg" xmlns:xlink="http://www.w3.org/1999/xlink">
<g id="bin_0">
<path d="M0,0 L25.565922,0 L25.565922,15.0015 L0,15.0015 z" fill="#D3D3D3" stroke="black" stroke-width="0.08250825"/>
<title>bin, id: 0, bbox: [x_min: 0.000, y_min: 0.000, x_max: 25.566, y_max: 15.002]</title>
</g>
<g id="items">
<defs>
<g id="item_0">
<path d="M0,0 L2,-1 L4,0 L4,3 L2,4 L0,3 z" fill="#7A7A7A" fill-opacity="0.5" fill-rule="nonzero" stroke="black" stroke-width="0.041254126"/>
</g>
<g id="item_1">
<path d="M0,0 L3,0 L2,2 L3,4 L3,5 L1,5 L-1,3 L-1,1 z" fill="#7A7A7A" fill-opacity="0.5" fill-rule="nonzero" stroke="black" stroke-width="0.041254126"/>
</g>
<g id="item_2">
<path d="M0,0 L2,0 L3,1 L3,3 L2,4 L0,4 L-1,3 L-1,1 z" fill="#7A7A7A" fill-opacity="0.5" fill-rule="nonzero" stroke="black" stroke-width="0.041254126"/>
</g>
<g id="item_3">
<path d="M0,0 L2,1 L4,0 L3,2 L4,5 L2,4 L0,5 L1,3 z" fill="#7A7A7A" fill-opacity="0.5" fill-rule="nonzero" stroke="black" stroke-width="0.041254126"/>
</g>
<g id="item_4">
<path d="M0,0 L5,0 L5,5 L4,5 L3,3 L2,2 L0,1 z" fill="#7A7A7A" fill-opacity="0.5" fill-rule="nonzero" stroke="black" stroke-width="0.041254126"/>
</g>
<g id="item_5">
<path d="M0,0 L2,3 L-2,3 z" fill="#7A7A7A" fill-opacity="0.5" fill-rule="nonzero" stroke="black" stroke-width="0.041254126"/>
</g>
<g id="item_6">
<path d="M0,0 L2,0 L2,2 L0,2 z" fill="#7A7A7A" fill-opacity="0.5" fill-rule="nonzero" stroke="black" stroke-width="0.041254126"/>
</g>
</defs>
<use transform="translate(17.939032 4.1275845), rotate(0)" xlink:href="#item_3">
<title>item, id: 3, transf: [r: 0.000°, t: (17.939, 4.128)]</title>
</use>
<use transform="translate(21.564829 0.0000500679), rotate(0)" xlink:href="#item_3">
<title>item, id: 3, transf: [r: 0.000°, t: (21.565, 0.000)]</title>
</use>
<use transform="translate(18.315334 5.3726625), rotate(-180)" xlink:href="#item_3">
<title>item, id: 3, transf: [r: -180.000°, t: (18.315, 5.373)]</title>
</use>
<use transform="translate(21.565702 8.000732), rotate(0)" xlink:href="#item_3">
<title>item, id: 3, transf: [r: 0.000°, t: (21.566, 8.001)]</title>
</use>
<use transform="translate(5.000024 15.001479), rotate(-180)" xlink:href="#item_4">
<title>item, id: 4, transf: [r: -180.000°, t: (5.000, 15.001)]</title>
</use>
<use transform="translate(13.146335 15.001008), rotate(-180)" xlink:href="#item_4">
<title>item, id: 4, transf: [r: -180.000°, t: (13.146, 15.001)]</title>
</use>
<use transform="translate(20.813644 15.001238), rotate(-180)" xlink:href="#item_4">
<title>item, id: 4, transf: [r: -180.000°, t: (20.814, 15.001)]</title>
</use>
<use transform="translate(5.0002728 9.929305), rotate(-180)" xlink:href="#item_4">
<title>item, id: 4, transf: [r: -180.000°, t: (5.000, 9.929)]</title>
</use>
<use transform="translate(1.0000381 0.00006318092), rotate(0)" xlink:href="#item_1">
<title>item, id: 1, transf: [r: 0.000°, t: (1.000, 0.000)]</title>
</use>
<use transform="translate(4.500105 0.000019311905), rotate(0)" xlink:href="#item_1">
<title>item, id: 1, transf: [r: 0.000°, t: (4.500, 0.000)]</title>
</use>
<use transform="translate(8.000325 0.000113487244), rotate(0)" xlink:href="#item_1">
<title>item, id: 1, transf: [r: 0.000°, t: (8.000, 0.000)]</title>
</use>
<use transform="translate(5.478779 5.0001397), rotate(0)" xlink:href="#item_1">
<title>item, id: 1, transf: [r: 0.000°, t: (5.479, 5.000)]</title>
</use>
<use transform="translate(25.56495 8.000343), rotate(-180)" xlink:href="#item_0">
<title>item, id: 0, transf: [r: -180.000°, t: (25.565, 8.000)]</title>
</use>
<use transform="translate(21.941698 12.129172), rotate(-180)" xlink:href="#item_0">
<title>item, id: 0, transf: [r: -180.000°, t: (21.942, 12.129)]</title>
</use>
<use transform="translate(21.93901 4.1271067), rotate(-180)" xlink:href="#item_0">
<title>item, id: 0, transf: [r: -180.000°, t: (21.939, 4.127)]</title>
</use>
<use transform="translate(14.12965 5.6097846), rotate(0)" xlink:href="#item_0">
<title>item, id: 0, transf: [r: 0.000°, t: (14.130, 5.610)]</title>
</use>
<use transform="translate(10.98059 9.000848), rotate(-180)" xlink:href="#item_2">
<title>item, id: 2, transf: [r: -180.000°, t: (10.981, 9.001)]</title>
</use>
<use transform="translate(14.813554 13.001461), rotate(-180)" xlink:href="#item_2">
<title>item, id: 2, transf: [r: -180.000°, t: (14.814, 13.001)]</title>
</use>
<use transform="translate(13.500934 4.000002), rotate(-180)" xlink:href="#item_2">
<title>item, id: 2, transf: [r: -180.000°, t: (13.501, 4.000)]</title>
</use>
<use transform="translate(5.1455064 10.146255), rotate(0)" xlink:href="#item_2">
<title>item, id: 2, transf: [r: 0.000°, t: (5.146, 10.146)]</title>
</use>
<use transform="translate(10.480269 12.0010805), rotate(-180)" xlink:href="#item_5">
<title>item, id: 5, transf: [r: -180.000°, t: (10.480, 12.001)]</title>
</use>
<use transform="translate(13.000951 7.0005965), rotate(-180)" xlink:href="#item_5">
<title>item, id: 5, transf: [r: -180.000°, t: (13.001, 7.001)]</title>
</use>
<use transform="translate(3.1445727 8.001392), rotate(-180)" xlink:href="#item_5">
<title>item, id: 5, transf: [r: -180.000°, t: (3.145, 8.001)]</title>
</use>
<use transform="translate(2.9540584 12.931465), rotate(-180)" xlink:href="#item_5">
<title>item, id: 5, transf: [r: -180.000°, t: (2.954, 12.931)]</title>
</use>
<use transform="translate(23.557816 12.996955), rotate(0)" xlink:href="#item_6">
<title>item, id: 6, transf: [r: 0.000°, t: (23.558, 12.997)]</title>
</use>
<use transform="translate(15.781429 15.001479), rotate(-180)" xlink:href="#item_6">
<title>item, id: 6, transf: [r: -180.000°, t: (15.781, 15.001)]</title>
</use>
<use transform="translate(21.555788 13.000966), rotate(0)" xlink:href="#item_6">
<title>item, id: 6, transf: [r: 0.000°, t: (21.556, 13.001)]</title>
</use>
<use transform="translate(12.129554 7.000863), rotate(0)" xlink:href="#item_6">
<title>item, id: 6, transf: [r: 0.000°, t: (12.130, 7.001)]</title>
</use>
</g>
<g id="quality_zones"/>
<g id="optionals">
<g id="overlap_lines" transform="translate(0 0), rotate(0)"/>
</g>
<text font-family="monospace" font-size="0.37503752" font-weight="500" x="0" y="-0.18751876">
height: 15.002 | width: 25.566 | usage: 84.479% | final_bench_14
</text>
</svg>