<svg viewBox="-1.2752093 -0.75007516 28.054598 16.50165" xmlns="http://www.w3.org/2000/svg" xmlns:xlink="http://www.w3.org/1999/xlink">
<g id="bin_0">
<path d="M0,0 L25.504179,0 L25.504179,15.0015 L0,15.0015 z" fill="#D3D3D3" stroke="black" stroke-width="0.08250825"/>
<title>bin, id: 0, bbox: [x_min: 0.000, y_min: 0.000, x_max: 25.504, y_max: 15.002]</title>
</g>
<g id="items">
<defs>
<g id="item_0">
<path d="M0,0 L2,-1 L4,0 L4,3 L2,4 L0,3 z" fill="#7A7A7A" fill-opacity="0.5" fill-rule="nonzero" stroke="black" stroke-width="0.041254126"/>
</g>
<g id="item_1">
<path d="M0,0 L3,0 L2,2 L3,4 L3,5 L1,5 L-1,3 L-1,1 z" fill="#7A7A7A" fill-opacity="0.5" fill-rule="nonzero" stroke="black" stroke-width="0.041254126"/>
</g>
<g id="item_2">
<path d="M0,0 L2,0 L3,1 L3,3 L2,4 L0,4 L-1,3 L-1,1 z" fill="#7A7A7A" fill-opacity="0.5" fill-rule="nonzero" stroke="black" stroke-width="0.041254126"/>
</g>
<g id="item_3">
<path d="M0,0 L2,1 L4,0 L3,2 L4,5 L2,4 L0,5 L1,3 z" fill="#7A7A7A" fill-opacity="0.5" fill-rule="nonzero" stroke="black" stroke-width="0.041254126"/>
</g>
<g id="item_4">
<path d="M0,0 L5,0 L5,5 L4,5 L3,3 L2,2 L0,1 z" fill="#7A7A7A" fill-opacity="0.5" fill-rule="nonzero" stroke="black" stroke-width="0.041254126"/>
</g>
<g id="item_5">
<path d="M0,0 L2,3 L-2,3 z" fill="#7A7A7A" fill-opacity="0.5" fill-rule="nonzero" stroke="black" stroke-width="0.041254126"/>
</g>
<g id="item_6">
<path d="M0,0 L2,0 L2,2 L0,2 z" fill="#7A7A7A" fill-opacity="0.5" fill-rule="nonzero" stroke="black" stroke-width="0.041254126"/>
</g>
</defs>
<use transform="translate(21.50322 6.000643), rotate(0)" xlink:href="#item_3">
<title>item, id: 3, transf: [r: 0.000°, t: (21.503, 6.001)]</title>
</use>
<use transform="translate(11.003547 11.009934), rotate(-180)" xlink:href="#item_3">
<title>item, id: 3, transf: [r: -180.000°, t: (11.004, 11.010)]</title>
</use>
<use transform="translate(7.500367 15.000872), rotate(-180)" xlink:href="#item_3">
<title>item, id: 3, transf: [r: -180.000°, t: (7.500, 15.001)]</title>
</use>
<use transform="translate(4.0000124 11.499819), rotate(-180)" xlink:href="#item_3">
<title>item, id: 3, transf: [r: -180.000°, t: (4.000, 11.500)]</title>
</use>
<use transform="translate(16.003841 15.001488), rotate(-180)" xlink:href="#item_4">
<title>item, id: 4, transf: [r: -180.000°, t: (16.004, 15.001)]</title>
</use>
<use transform="translate(12.503762 10.0009575), rotate(0)" xlink:href="#item_4">
<title>item, id: 4, transf: [r: 0.000°, t: (12.504, 10.001)]</title>
</use>
<use transform="translate(8.999004 0.0020695925), rotate(0)" xlink:href="#item_4">
<title>item, id: 4, transf: [r: 0.000°, t: (8.999, 0.002)]</title>
</use>
<use transform="translate(9.000814 6.0098815), rotate(-180)" xlink:href="#item_4">
<title>item, id: 4, transf: [r: -180.000°, t: (9.001, 6.010)]</title>
</use>
<use transform="translate(14.999707 0.0008442402), rotate(0)" xlink:href="#item_1">
<title>item, id: 1, transf: [r: 0.000°, t: (15.000, 0.001)]</title>
</use>
<use transform="translate(20.834158 10.000929), rotate(-180)" xlink:href="#item_1">
<title>item, id: 1, transf: [r: -180.000°, t: (20.834, 10.001)]</title>
</use>
<use transform="translate(17.327353 10.000865), rotate(-180)" xlink:href="#item_1">
<title>item, id: 1, transf: [r: -180.000°, t: (17.327, 10.001)]</title>
</use>
<use transform="translate(18.500313 0.00017666817), rotate(0)" xlink:href="#item_1">
<title>item, id: 1, transf: [r: 0.000°, t: (18.500, 0.000)]</title>
</use>
<use transform="translate(4.000708 6.479821), rotate(-180)" xlink:href="#item_0">
<title>item, id: 0, transf: [r: -180.000°, t: (4.001, 6.480)]</title>
</use>
<use transform="translate(21.503857 14.001306), rotate(-180)" xlink:href="#item_0">
<title>item, id: 0, transf: [r: -180.000°, t: (21.504, 14.001)]</title>
</use>
<use transform="translate(21.50399 11.001401), rotate(0)" xlink:href="#item_0">
<title>item, id: 0, transf: [r: 0.000°, t: (21.504, 11.001)]</title>
</use>
<use transform="translate(25.503122 5.9999137), rotate(-180)" xlink:href="#item_0">
<title>item, id: 0, transf: [r: -180.000°, t: (25.503, 6.000)]</title>
</use>
<use transform="translate(11.825691 6.00045), rotate(0)" xlink:href="#item_2">
<title>item, id: 2, transf: [r: 0.000°, t: (11.826, 6.000)]</title>
</use>
<use transform="translate(4.499957 6.5005636), rotate(0)" xlink:href="#item_2">
<title>item, id: 2, transf: [r: 0.000°, t: (4.500, 6.501)]</title>
</use>
<use transform="translate(10.003625 14.510315), rotate(-180)" xlink:href="#item_2">
<title>item, id: 2, transf: [r: -180.000°, t: (10.004, 14.510)]</title>
</use>
<use transform="translate(1.0004396 11.00055), rotate(0)" xlink:href="#item_2">
<title>item, id: 2, transf: [r: 0.000°, t: (1.000, 11.001)]</title>
</use>
<use transform="translate(6.3300724 3.001493), rotate(-180)" xlink:href="#item_5">
<title>item, id: 5, transf: [r: -180.000°, t: (6.330, 3.001)]</title>
</use>
<use transform="translate(9.6624155 6.002175), rotate(-180)" xlink:href="#item_5">
<title>item, id: 5, transf: [r: -180.000°, t: (9.662, 6.002)]</title>
</use>
<use transform="translate(11.663663 3.0004058), rotate(0)" xlink:href="#item_5">
<title>item, id: 5, transf: [r: 0.000°, t: (11.664, 3.000)]</title>
</use>
<use transform="translate(8.330677 0.0021526814), rotate(0)" xlink:href="#item_5">
<title>item, id: 5, transf: [r: 0.000°, t: (8.331, 0.002)]</title>
</use>
<use transform="translate(21.500181 0.0012592077), rotate(0)" xlink:href="#item_6">
<title>item, id: 6, transf: [r: 0.000°, t: (21.500, 0.001)]</title>
</use>
<use transform="translate(25.50374 2.0002203), rotate(-180)" xlink:href="#item_6">
<title>item, id: 6, transf: [r: -180.000°, t: (25.504, 2.000)]</title>
</use>
<use transform="translate(2.0000882 0.031147122), rotate(0)" xlink:href="#item_6">
<title>item, id: 6, transf: [r: 0.000°, t: (2.000, 0.031)]</title>
</use>
<use transform="translate(2.0000203 2.3604727), rotate(-180)" xlink:href="#item_6">
<title>item, id: 6, transf: [r: -180.000°, t: (2.000, 2.360)]</title>
</use>
</g>
<g id="quality_zones"/>
<g id="optionals">
<g id="overlap_lines" transform="translate(0 0), rotate(0)"/>
</g>
<text font-family="monospace" font-size="0.37503752" font-weight="500" x="0" y="-0.18751876">
height: 15.002 | width: 25.504 | usage: 84.684% | final_bench_10
</text>
</svg>