<svg viewBox="-1.2587398 -0.75007516 27.69227 16.50165" xmlns="http://www.w3.org/2000/svg" xmlns:xlink="http://www.w3.org/1999/xlink">
<g id="bin_0">
<path d="M0,0 L25.174791,0 L25.174791,15.0015 L0,15.0015 z" fill="#D3D3D3" stroke="black" stroke-width="0.08250825"/>
<title>bin, id: 0, bbox: [x_min: 0.000, y_min: 0.000, x_max: 25.175, y_max: 15.002]</title>
</g>
<g id="items">
<defs>
<g id="item_0">
<path d="M0,0 L2,-1 L4,0 L4,3 L2,4 L0,3 z" fill="#7A7A7A" fill-opacity="0.5" fill-rule="nonzero" stroke="black" stroke-width="0.041254126"/>
</g>
<g id="item_1">
<path d="M0,0 L3,0 L2,2 L3,4 L3,5 L1,5 L-1,3 L-1,1 z" fill="#7A7A7A" fill-opacity="0.5" fill-rule="nonzero" stroke="black" stroke-width="0.041254126"/>
</g>
<g id="item_2">
<path d="M0,0 L2,0 L3,1 L3,3 L2,4 L0,4 L-1,3 L-1,1 z" fill="#7A7A7A" fill-opacity="0.5" fill-rule="nonzero" stroke="black" stroke-width="0.041254126"/>
</g>
<g id="item_3">
<path d="M0,0 L2,1 L4,0 L3,2 L4,5 L2,4 L0,5 L1,3 z" fill="#7A7A7A" fill-opacity="0.5" fill-rule="nonzero" stroke="black" stroke-width="0.041254126"/>
</g>
<g id="item_4">
<path d="M0,0 L5,0 L5,5 L4,5 L3,3 L2,2 L0,1 z" fill="#7A7A7A" fill-opacity="0.5" fill-rule="nonzero" stroke="black" stroke-width="0.041254126"/>
</g>
<g id="item_5">
<path d="M0,0 L2,3 L-2,3 z" fill="#7A7A7A" fill-opacity="0.5" fill-rule="nonzero" stroke="black" stroke-width="0.041254126"/>
</g>
<g id="item_6">
<path d="M0,0 L2,0 L2,2 L0,2 z" fill="#7A7A7A" fill-opacity="0.5" fill-rule="nonzero" stroke="black" stroke-width="0.041254126"/>
</g>
</defs>
<use transform="translate(4.000061 11.000809), rotate(-180)" xlink:href="#item_3">
<title>item, id: 3, transf: [r: -180.000°, t: (4.000, 11.001)]</title>
</use>
<use transform="translate(3.6653056 2.0000825), rotate(0)" xlink:href="#item_3">
<title>item, id: 3, transf: [r: 0.000°, t: (3.665, 2.000)]</title>
</use>
<use transform="translate(11.331349 10.993955), rotate(-180)" xlink:href="#item_3">
<title>item, id: 3, transf: [r: -180.000°, t: (11.331, 10.994)]</title>
</use>
<use transform="translate(3.6676154 10.001468), rotate(0)" xlink:href="#item_3">
<title>item, id: 3, transf: [r: 0.000°, t: (3.668, 10.001)]</title>
</use>
<use transform="translate(12.059379 5.0006895), rotate(0)" xlink:href="#item_4">
<title>item, id: 4, transf: [r: 0.000°, t: (12.059, 5.001)]</title>
</use>
<use transform="translate(8.3389225 0.000037670135), rotate(0)" xlink:href="#item_4">
<title>item, id: 4, transf: [r: 0.000°, t: (8.339, 0.000)]</title>
</use>
<use transform="translate(22.059387 10.10688), rotate(-180)" xlink:href="#item_4">
<title>item, id: 4, transf: [r: -180.000°, t: (22.059, 10.107)]</title>
</use>
<use transform="translate(20.174337 0.00023794174), rotate(0)" xlink:href="#item_4">
<title>item, id: 4, transf: [r: 0.000°, t: (20.174, 0.000)]</title>
</use>
<use transform="translate(19.840843 5.0001574), rotate(-180)" xlink:href="#item_1">
<title>item, id: 1, transf: [r: -180.000°, t: (19.841, 5.000)]</title>
</use>
<use transform="translate(17.953453 15.001016), rotate(-180)" xlink:href="#item_1">
<title>item, id: 1, transf: [r: -180.000°, t: (17.953, 15.001)]</title>
</use>
<use transform="translate(16.339869 5.0000925), rotate(-180)" xlink:href="#item_1">
<title>item, id: 1, transf: [r: -180.000°, t: (16.340, 5.000)]</title>
</use>
<use transform="translate(22.173569 9.993652), rotate(0)" xlink:href="#item_1">
<title>item, id: 1, transf: [r: 0.000°, t: (22.174, 9.994)]</title>
</use>
<use transform="translate(11.329789 5.991932), rotate(-180)" xlink:href="#item_0">
<title>item, id: 0, transf: [r: -180.000°, t: (11.330, 5.992)]</title>
</use>
<use transform="translate(7.343292 11.001157), rotate(0)" xlink:href="#item_0">
<title>item, id: 0, transf: [r: 0.000°, t: (7.343, 11.001)]</title>
</use>
<use transform="translate(3.6669722 7.000971), rotate(0)" xlink:href="#item_0">
<title>item, id: 0, transf: [r: 0.000°, t: (3.667, 7.001)]</title>
</use>
<use transform="translate(0.00006532669 11.001244), rotate(0)" xlink:href="#item_0">
<title>item, id: 0, transf: [r: 0.000°, t: (0.000, 11.001)]</title>
</use>
<use transform="translate(14.43272 14.994811), rotate(-180)" xlink:href="#item_2">
<title>item, id: 2, transf: [r: -180.000°, t: (14.433, 14.995)]</title>
</use>
<use transform="translate(24.174788 9.22224), rotate(-180)" xlink:href="#item_2">
<title>item, id: 2, transf: [r: -180.000°, t: (24.175, 9.222)]</title>
</use>
<use transform="translate(13.988588 10.96531), rotate(-180)" xlink:href="#item_2">
<title>item, id: 2, transf: [r: -180.000°, t: (13.989, 10.965)]</title>
</use>
<use transform="translate(1.0429027 2.2853527), rotate(0)" xlink:href="#item_2">
<title>item, id: 2, transf: [r: 0.000°, t: (1.043, 2.285)]</title>
</use>
<use transform="translate(19.98893 8.000912), rotate(-180)" xlink:href="#item_5">
<title>item, id: 5, transf: [r: -180.000°, t: (19.989, 8.001)]</title>
</use>
<use transform="translate(19.741755 13.139814), rotate(-180)" xlink:href="#item_5">
<title>item, id: 5, transf: [r: -180.000°, t: (19.742, 13.140)]</title>
</use>
<use transform="translate(20.510809 12.001254), rotate(0)" xlink:href="#item_5">
<title>item, id: 5, transf: [r: 0.000°, t: (20.511, 12.001)]</title>
</use>
<use transform="translate(22.173777 2.0008035), rotate(0)" xlink:href="#item_5">
<title>item, id: 5, transf: [r: 0.000°, t: (22.174, 2.001)]</title>
</use>
<use transform="translate(6.319575 2.3053186), rotate(-180)" xlink:href="#item_6">
<title>item, id: 6, transf: [r: -180.000°, t: (6.320, 2.305)]</title>
</use>
<use transform="translate(2.0000257 2.001069), rotate(-180)" xlink:href="#item_6">
<title>item, id: 6, transf: [r: -180.000°, t: (2.000, 2.001)]</title>
</use>
<use transform="translate(6.337479 0.000003695488), rotate(0)" xlink:href="#item_6">
<title>item, id: 6, transf: [r: 0.000°, t: (6.337, 0.000)]</title>
</use>
<use transform="translate(4.189586 2.000022), rotate(-180)" xlink:href="#item_6">
<title>item, id: 6, transf: [r: -180.000°, t: (4.190, 2.000)]</title>
</use>
</g>
<g id="quality_zones"/>
<g id="optionals">
<g id="overlap_lines" transform="translate(0 0), rotate(0)"/>
</g>
<text font-family="monospace" font-size="0.37503752" font-weight="500" x="0" y="-0.18751876">
height: 15.002 | width: 25.175 | usage: 85.792% | final_bench_12
</text>
</svg>