<svg viewBox="-1.281596 -0.75007516 28.195103 16.50165" xmlns="http://www.w3.org/2000/svg" xmlns:xlink="http://www.w3.org/1999/xlink">
<g id="bin_0">
<path d="M0,0 L25.631912,0 L25.631912,15.0015 L0,15.0015 z" fill="#D3D3D3" stroke="black" stroke-width="0.08250825"/>
<title>bin, id: 0, bbox: [x_min: 0.000, y_min: 0.000, x_max: 25.632, y_max: 15.002]</title>
</g>
<g id="items">
<defs>
<g id="item_0">
<path d="M0,0 L2,-1 L4,0 L4,3 L2,4 L0,3 z" fill="#7A7A7A" fill-opacity="0.5" fill-rule="nonzero" stroke="black" stroke-width="0.041254126"/>
</g>
<g id="item_1">
<path d="M0,0 L3,0 L2,2 L3,4 L3,5 L1,5 L-1,3 L-1,1 z" fill="#7A7A7A" fill-opacity="0.5" fill-rule="nonzero" stroke="black" stroke-width="0.041254126"/>
</g>
<g id="item_2">
<path d="M0,0 L2,0 L3,1 L3,3 L2,4 L0,4 L-1,3 L-1,1 z" fill="#7A7A7A" fill-opacity="0.5" fill-rule="nonzero" stroke="black" stroke-width="0.041254126"/>
</g>
<g id="item_3">
<path d="M0,0 L2,1 L4,0 L3,2 L4,5 L2,4 L0,5 L1,3 z" fill="#7A7A7A" fill-opacity="0.5" fill-rule="nonzero" stroke="black" stroke-width="0.041254126"/>
</g>
<g id="item_4">
<path d="M0,0 L5,0 L5,5 L4,5 L3,3 L2,2 L0,1 z" fill="#7A7A7A" fill-opacity="0.5" fill-rule="nonzero" stroke="black" stroke-width="0.041254126"/>
</g>
<g id="item_5">
<path d="M0,0 L2,3 L-2,3 z" fill="#7A7A7A" fill-opacity="0.5" fill-rule="nonzero" stroke="black" stroke-width="0.041254126"/>
</g>
<g id="item_6">
<path d="M0,0 L2,0 L2,2 L0,2 z" fill="#7A7A7A" fill-opacity="0.5" fill-rule="nonzero" stroke="black" stroke-width="0.041254126"/>
</g>
</defs>
<use transform="translate(21.631567 5.800558), rotate(0)" xlink:href="#item_3">
<title>item, id: 3, transf: [r: 0.000°, t: (21.632, 5.801)]</title>
</use>
<use transform="translate(18.42091 11.218704), rotate(-180)" xlink:href="#item_3">
<title>item, id: 3, transf: [r: -180.000°, t: (18.421, 11.219)]</title>
</use>
<use transform="translate(22.02887 15.001132), rotate(-180)" xlink:href="#item_3">
<title>item, id: 3, transf: [r: -180.000°, t: (22.029, 15.001)]</title>
</use>
<use transform="translate(11.0053625 10.001433), rotate(0)" xlink:href="#item_3">
<title>item, id: 3, transf: [r: 0.000°, t: (11.005, 10.001)]</title>
</use>
<use transform="translate(13.298264 5.0009747), rotate(-180)" xlink:href="#item_4">
<title>item, id: 4, transf: [r: -180.000°, t: (13.298, 5.001)]</title>
</use>
<use transform="translate(5.0002747 10.999815), rotate(-180)" xlink:href="#item_4">
<title>item, id: 4, transf: [r: -180.000°, t: (5.000, 11.000)]</title>
</use>
<use transform="translate(16.631329 0.000007987022), rotate(0)" xlink:href="#item_4">
<title>item, id: 4, transf: [r: 0.000°, t: (16.631, 0.000)]</title>
</use>
<use transform="translate(3.2973711 0.000116705894), rotate(0)" xlink:href="#item_4">
<title>item, id: 4, transf: [r: 0.000°, t: (3.297, 0.000)]</title>
</use>
<use transform="translate(10.509733 14.991998), rotate(-180)" xlink:href="#item_1">
<title>item, id: 1, transf: [r: -180.000°, t: (10.510, 14.992)]</title>
</use>
<use transform="translate(3.0001645 5.0000143), rotate(-180)" xlink:href="#item_1">
<title>item, id: 1, transf: [r: -180.000°, t: (3.000, 5.000)]</title>
</use>
<use transform="translate(12.02954 5.0010395), rotate(0)" xlink:href="#item_1">
<title>item, id: 1, transf: [r: 0.000°, t: (12.030, 5.001)]</title>
</use>
<use transform="translate(8.529288 5.001365), rotate(0)" xlink:href="#item_1">
<title>item, id: 1, transf: [r: 0.000°, t: (8.529, 5.001)]</title>
</use>
<use transform="translate(18.030079 7.000452), rotate(0)" xlink:href="#item_0">
<title>item, id: 0, transf: [r: 0.000°, t: (18.030, 7.000)]</title>
</use>
<use transform="translate(3.5292425 6.263819), rotate(0)" xlink:href="#item_0">
<title>item, id: 0, transf: [r: 0.000°, t: (3.529, 6.264)]</title>
</use>
<use transform="translate(25.631773 13.807248), rotate(-180)" xlink:href="#item_0">
<title>item, id: 0, transf: [r: -180.000°, t: (25.632, 13.807)]</title>
</use>
<use transform="translate(15.338474 2.7248821), rotate(0)" xlink:href="#item_0">
<title>item, id: 0, transf: [r: 0.000°, t: (15.338, 2.725)]</title>
</use>
<use transform="translate(5.005076 10.999695), rotate(0)" xlink:href="#item_2">
<title>item, id: 2, transf: [r: 0.000°, t: (5.005, 11.000)]</title>
</use>
<use transform="translate(1.0050335 11.000403), rotate(0)" xlink:href="#item_2">
<title>item, id: 2, transf: [r: 0.000°, t: (1.005, 11.000)]</title>
</use>
<use transform="translate(15.613192 10.817395), rotate(0)" xlink:href="#item_2">
<title>item, id: 2, transf: [r: 0.000°, t: (15.613, 10.817)]</title>
</use>
<use transform="translate(22.63154 2.300445), rotate(0)" xlink:href="#item_2">
<title>item, id: 2, transf: [r: 0.000°, t: (22.632, 2.300)]</title>
</use>
<use transform="translate(11.298495 3.0000143), rotate(-180)" xlink:href="#item_5">
<title>item, id: 5, transf: [r: -180.000°, t: (11.298, 3.000)]</title>
</use>
<use transform="translate(5.315971 2.02809), rotate(0)" xlink:href="#item_5">
<title>item, id: 5, transf: [r: 0.000°, t: (5.316, 2.028)]</title>
</use>
<use transform="translate(2.3526416 8.028278), rotate(-180)" xlink:href="#item_5">
<title>item, id: 5, transf: [r: -180.000°, t: (2.353, 8.028)]</title>
</use>
<use transform="translate(13.298353 0.00074768066), rotate(0)" xlink:href="#item_5">
<title>item, id: 5, transf: [r: 0.000°, t: (13.298, 0.001)]</title>
</use>
<use transform="translate(25.631428 2.0002685), rotate(-180)" xlink:href="#item_6">
<title>item, id: 6, transf: [r: -180.000°, t: (25.631, 2.000)]</title>
</use>
<use transform="translate(16.6313 2.0000691), rotate(-180)" xlink:href="#item_6">
<title>item, id: 6, transf: [r: -180.000°, t: (16.631, 2.000)]</title>
</use>
<use transform="translate(23.631332 2.1951184), rotate(-180)" xlink:href="#item_6">
<title>item, id: 6, transf: [r: -180.000°, t: (23.631, 2.195)]</title>
</use>
<use transform="translate(15.317919 5.00092), rotate(-180)" xlink:href="#item_6">
<title>item, id: 6, transf: [r: -180.000°, t: (15.318, 5.001)]</title>
</use>
</g>
<g id="quality_zones"/>
<g id="optionals">
<g id="overlap_lines" transform="translate(0 0), rotate(0)"/>
</g>
<text font-family="monospace" font-size="0.37503752" font-weight="500" x="0" y="-0.18751876">
height: 15.002 | width: 25.632 | usage: 84.262% | final_bench_57
</text>
</svg>