<svg viewBox="-1.274248 -0.75007516 28.03345 16.50165" xmlns="http://www.w3.org/2000/svg" xmlns:xlink="http://www.w3.org/1999/xlink">
<g id="bin_0">
<path d="M0,0 L25.484953,0 L25.484953,15.0015 L0,15.0015 z" fill="#D3D3D3" stroke="black" stroke-width="0.08250825"/>
<title>bin, id: 0, bbox: [x_min: 0.000, y_min: 0.000, x_max: 25.485, y_max: 15.002]</title>
</g>
<g id="items">
<defs>
<g id="item_0">
<path d="M0,0 L2,-1 L4,0 L4,3 L2,4 L0,3 z" fill="#7A7A7A" fill-opacity="0.5" fill-rule="nonzero" stroke="black" stroke-width="0.041254126"/>
</g>
<g id="item_1">
<path d="M0,0 L3,0 L2,2 L3,4 L3,5 L1,5 L-1,3 L-1,1 z" fill="#7A7A7A" fill-opacity="0.5" fill-rule="nonzero" stroke="black" stroke-width="0.041254126"/>
</g>
<g id="item_2">
<path d="M0,0 L2,0 L3,1 L3,3 L2,4 L0,4 L-1,3 L-1,1 z" fill="#7A7A7A" fill-opacity="0.5" fill-rule="nonzero" stroke="black" stroke-width="0.041254126"/>
</g>
<g id="item_3">
<path d="M0,0 L2,1 L4,0 L3,2 L4,5 L2,4 L0,5 L1,3 z" fill="#7A7A7A" fill-opacity="0.5" fill-rule="nonzero" stroke="black" stroke-width="0.041254126"/>
</g>
<g id="item_4">
<path d="M0,0 L5,0 L5,5 L4,5 L3,3 L2,2 L0,1 z" fill="#7A7A7A" fill-opacity="0.5" fill-rule="nonzero" stroke="black" stroke-width="0.041254126"/>
</g>
<g id="item_5">
<path d="M0,0 L2,3 L-2,3 z" fill="#7A7A7A" fill-opacity="0.5" fill-rule="nonzero" stroke="black" stroke-width="0.041254126"/>
</g>
<g id="item_6">
<path d="M0,0 L2,0 L2,2 L0,2 z" fill="#7A7A7A" fill-opacity="0.5" fill-rule="nonzero" stroke="black" stroke-width="0.041254126"/>
</g>
</defs>
<use transform="translate(3.6668425 10.0014925), rotate(0)" xlink:href="#item_3">
<title>item, id: 3, transf: [r: 0.000°, t: (3.667, 10.001)]</title>
</use>
<use transform="translate(4.000071 11.001193), rotate(-180)" xlink:href="#item_3">
<title>item, id: 3, transf: [r: -180.000°, t: (4.000, 11.001)]</title>
</use>
<use transform="translate(11.269074 10.806926), rotate(-180)" xlink:href="#item_3">
<title>item, id: 3, transf: [r: -180.000°, t: (11.269, 10.807)]</title>
</use>
<use transform="translate(14.994077 14.981841), rotate(-180)" xlink:href="#item_3">
<title>item, id: 3, transf: [r: -180.000°, t: (14.994, 14.982)]</title>
</use>
<use transform="translate(13.00738 5.805477), rotate(-180)" xlink:href="#item_4">
<title>item, id: 4, transf: [r: -180.000°, t: (13.007, 5.805)]</title>
</use>
<use transform="translate(20.48365 4.917024), rotate(0)" xlink:href="#item_4">
<title>item, id: 4, transf: [r: 0.000°, t: (20.484, 4.917)]</title>
</use>
<use transform="translate(24.025782 10.001288), rotate(-180)" xlink:href="#item_4">
<title>item, id: 4, transf: [r: -180.000°, t: (24.026, 10.001)]</title>
</use>
<use transform="translate(14.025379 5.0005465), rotate(0)" xlink:href="#item_4">
<title>item, id: 4, transf: [r: 0.000°, t: (14.025, 5.001)]</title>
</use>
<use transform="translate(22.484943 10.001444), rotate(0)" xlink:href="#item_1">
<title>item, id: 1, transf: [r: 0.000°, t: (22.485, 10.001)]</title>
</use>
<use transform="translate(12.810064 0.00046730042), rotate(0)" xlink:href="#item_1">
<title>item, id: 1, transf: [r: 0.000°, t: (12.810, 0.000)]</title>
</use>
<use transform="translate(18.984818 10.001379), rotate(0)" xlink:href="#item_1">
<title>item, id: 1, transf: [r: 0.000°, t: (18.985, 10.001)]</title>
</use>
<use transform="translate(15.484607 10.001301), rotate(0)" xlink:href="#item_1">
<title>item, id: 1, transf: [r: 0.000°, t: (15.485, 10.001)]</title>
</use>
<use transform="translate(11.27987 13.840076), rotate(-180)" xlink:href="#item_0">
<title>item, id: 0, transf: [r: -180.000°, t: (11.280, 13.840)]</title>
</use>
<use transform="translate(0.00030732155 3.000576), rotate(0)" xlink:href="#item_0">
<title>item, id: 0, transf: [r: 0.000°, t: (0.000, 3.001)]</title>
</use>
<use transform="translate(0.00013184547 11.001484), rotate(0)" xlink:href="#item_0">
<title>item, id: 0, transf: [r: 0.000°, t: (0.000, 11.001)]</title>
</use>
<use transform="translate(3.6668034 7.000448), rotate(0)" xlink:href="#item_0">
<title>item, id: 0, transf: [r: 0.000°, t: (3.667, 7.000)]</title>
</use>
<use transform="translate(18.3104 4.0005274), rotate(-180)" xlink:href="#item_2">
<title>item, id: 2, transf: [r: -180.000°, t: (18.310, 4.001)]</title>
</use>
<use transform="translate(22.4849 0.915715), rotate(0)" xlink:href="#item_2">
<title>item, id: 2, transf: [r: 0.000°, t: (22.485, 0.916)]</title>
</use>
<use transform="translate(13.770934 9.806454), rotate(-180)" xlink:href="#item_2">
<title>item, id: 2, transf: [r: -180.000°, t: (13.771, 9.806)]</title>
</use>
<use transform="translate(5.0070453 2.0002208), rotate(0)" xlink:href="#item_2">
<title>item, id: 2, transf: [r: 0.000°, t: (5.007, 2.000)]</title>
</use>
<use transform="translate(10.474222 3.0001616), rotate(-180)" xlink:href="#item_5">
<title>item, id: 5, transf: [r: -180.000°, t: (10.474, 3.000)]</title>
</use>
<use transform="translate(15.987879 6.981839), rotate(0)" xlink:href="#item_5">
<title>item, id: 5, transf: [r: 0.000°, t: (15.988, 6.982)]</title>
</use>
<use transform="translate(20.761621 3.00004), rotate(-180)" xlink:href="#item_5">
<title>item, id: 5, transf: [r: -180.000°, t: (20.762, 3.000)]</title>
</use>
<use transform="translate(20.03679 1.9140656), rotate(0)" xlink:href="#item_5">
<title>item, id: 5, transf: [r: 0.000°, t: (20.037, 1.914)]</title>
</use>
<use transform="translate(6.005204 2.0001254), rotate(-180)" xlink:href="#item_6">
<title>item, id: 6, transf: [r: -180.000°, t: (6.005, 2.000)]</title>
</use>
<use transform="translate(6.005893 0.000096559525), rotate(0)" xlink:href="#item_6">
<title>item, id: 6, transf: [r: 0.000°, t: (6.006, 0.000)]</title>
</use>
<use transform="translate(4.00502 2.0015728), rotate(-180)" xlink:href="#item_6">
<title>item, id: 6, transf: [r: -180.000°, t: (4.005, 2.002)]</title>
</use>
<use transform="translate(2.0001366 2.0005493), rotate(-180)" xlink:href="#item_6">
<title>item, id: 6, transf: [r: -180.000°, t: (2.000, 2.001)]</title>
</use>
</g>
<g id="quality_zones"/>
<g id="optionals">
<g id="overlap_lines" transform="translate(0 0), rotate(0)"/>
</g>
<text font-family="monospace" font-size="0.37503752" font-weight="500" x="0" y="-0.18751876">
height: 15.002 | width: 25.485 | usage: 84.747% | final_bench_23
</text>
</svg>