<svg viewBox="-1.285377 -0.75007516 28.27829 16.50165" xmlns="http://www.w3.org/2000/svg" xmlns:xlink="http://www.w3.org/1999/xlink">
<g id="bin_0">
<path d="M0,0 L25.707535,0 L25.707535,15.0015 L0,15.0015 z" fill="#D3D3D3" stroke="black" stroke-width="0.08250825"/>
<title>bin, id: 0, bbox: [x_min: 0.000, y_min: 0.000, x_max: 25.708, y_max: 15.002]</title>
</g>
<g id="items">
<defs>
<g id="item_0">
<path d="M0,0 L2,-1 L4,0 L4,3 L2,4 L0,3 z" fill="#7A7A7A" fill-opacity="0.5" fill-rule="nonzero" stroke="black" stroke-width="0.041254126"/>
</g>
<g id="item_1">
<path d="M0,0 L3,0 L2,2 L3,4 L3,5 L1,5 L-1,3 L-1,1 z" fill="#7A7A7A" fill-opacity="0.5" fill-rule="nonzero" stroke="black" stroke-width="0.041254126"/>
</g>
<g id="item_2">
<path d="M0,0 L2,0 L3,1 L3,3 L2,4 L0,4 L-1,3 L-1,1 z" fill="#7A7A7A" fill-opacity="0.5" fill-rule="nonzero" stroke="black" stroke-width="0.041254126"/>
</g>
<g id="item_3">
<path d="M0,0 L2,1 L4,0 L3,2 L4,5 L2,4 L0,5 L1,3 z" fill="#7A7A7A" fill-opacity="0.5" fill-rule="nonzero" stroke="black" stroke-width="0.041254126"/>
</g>
<g id="item_4">
<path d="M0,0 L5,0 L5,5 L4,5 L3,3 L2,2 L0,1 z" fill="#7A7A7A" fill-opacity="0.5" fill-rule="nonzero" stroke="black" stroke-width="0.041254126"/>
</g>
<g id="item_5">
<path d="M0,0 L2,3 L-2,3 z" fill="#7A7A7A" fill-opacity="0.5" fill-rule="nonzero" stroke="black" stroke-width="0.041254126"/>
</g>
<g id="item_6">
<path d="M0,0 L2,0 L2,2 L0,2 z" fill="#7A7A7A" fill-opacity="0.5" fill-rule="nonzero" stroke="black" stroke-width="0.041254126"/>
</g>
</defs>
<use transform="translate(18.707117 15.001294), rotate(-180)" xlink:href="#item_3">
<title>item, id: 3, transf: [r: -180.000°, t: (18.707, 15.001)]</title>
</use>
<use transform="translate(4.000319 11.203442), rotate(-180)" xlink:href="#item_3">
<title>item, id: 3, transf: [r: -180.000°, t: (4.000, 11.203)]</title>
</use>
<use transform="translate(3.5998101 10.001417), rotate(0)" xlink:href="#item_3">
<title>item, id: 3, transf: [r: 0.000°, t: (3.600, 10.001)]</title>
</use>
<use transform="translate(7.2332907 5.888674), rotate(0)" xlink:href="#item_3">
<title>item, id: 3, transf: [r: 0.000°, t: (7.233, 5.889)]</title>
</use>
<use transform="translate(16.70539 5.0004897), rotate(0)" xlink:href="#item_4">
<title>item, id: 4, transf: [r: 0.000°, t: (16.705, 5.000)]</title>
</use>
<use transform="translate(20.707447 0.0009239912), rotate(0)" xlink:href="#item_4">
<title>item, id: 4, transf: [r: 0.000°, t: (20.707, 0.001)]</title>
</use>
<use transform="translate(9.000903 5.888024), rotate(-180)" xlink:href="#item_4">
<title>item, id: 4, transf: [r: -180.000°, t: (9.001, 5.888)]</title>
</use>
<use transform="translate(12.365275 0.000054478645), rotate(0)" xlink:href="#item_4">
<title>item, id: 4, transf: [r: 0.000°, t: (12.365, 0.000)]</title>
</use>
<use transform="translate(20.367746 5.0003433), rotate(-180)" xlink:href="#item_1">
<title>item, id: 1, transf: [r: -180.000°, t: (20.368, 5.000)]</title>
</use>
<use transform="translate(11.702145 5.955231), rotate(0)" xlink:href="#item_1">
<title>item, id: 1, transf: [r: 0.000°, t: (11.702, 5.955)]</title>
</use>
<use transform="translate(22.707481 10.000874), rotate(0)" xlink:href="#item_1">
<title>item, id: 1, transf: [r: 0.000°, t: (22.707, 10.001)]</title>
</use>
<use transform="translate(19.207466 10.000862), rotate(0)" xlink:href="#item_1">
<title>item, id: 1, transf: [r: 0.000°, t: (19.207, 10.001)]</title>
</use>
<use transform="translate(7.6022415 10.000071), rotate(-180)" xlink:href="#item_0">
<title>item, id: 0, transf: [r: -180.000°, t: (7.602, 10.000)]</title>
</use>
<use transform="translate(21.707323 5.999199), rotate(0)" xlink:href="#item_0">
<title>item, id: 0, transf: [r: 0.000°, t: (21.707, 5.999)]</title>
</use>
<use transform="translate(7.2296314 10.8906355), rotate(0)" xlink:href="#item_0">
<title>item, id: 0, transf: [r: 0.000°, t: (7.230, 10.891)]</title>
</use>
<use transform="translate(0.0007236004 3.2002902), rotate(0)" xlink:href="#item_0">
<title>item, id: 0, transf: [r: 0.000°, t: (0.001, 3.200)]</title>
</use>
<use transform="translate(1.0928991 11.001465), rotate(0)" xlink:href="#item_2">
<title>item, id: 2, transf: [r: 0.000°, t: (1.093, 11.001)]</title>
</use>
<use transform="translate(7.2258997 0.00039243698), rotate(0)" xlink:href="#item_2">
<title>item, id: 2, transf: [r: 0.000°, t: (7.226, 0.000)]</title>
</use>
<use transform="translate(12.273338 1.9548898), rotate(0)" xlink:href="#item_2">
<title>item, id: 2, transf: [r: 0.000°, t: (12.273, 1.955)]</title>
</use>
<use transform="translate(12.229793 10.955476), rotate(0)" xlink:href="#item_2">
<title>item, id: 2, transf: [r: 0.000°, t: (12.230, 10.955)]</title>
</use>
<use transform="translate(18.589417 7.0004425), rotate(0)" xlink:href="#item_5">
<title>item, id: 5, transf: [r: 0.000°, t: (18.589, 7.000)]</title>
</use>
<use transform="translate(16.117773 10.700593), rotate(-180)" xlink:href="#item_5">
<title>item, id: 5, transf: [r: -180.000°, t: (16.118, 10.701)]</title>
</use>
<use transform="translate(22.70337 1.9989414), rotate(0)" xlink:href="#item_5">
<title>item, id: 5, transf: [r: 0.000°, t: (22.703, 1.999)]</title>
</use>
<use transform="translate(15.838103 4.70002), rotate(0)" xlink:href="#item_5">
<title>item, id: 5, transf: [r: 0.000°, t: (15.838, 4.700)]</title>
</use>
<use transform="translate(12.22755 2.0002584), rotate(-180)" xlink:href="#item_6">
<title>item, id: 6, transf: [r: -180.000°, t: (12.228, 2.000)]</title>
</use>
<use transform="translate(2.000318 2.1980126), rotate(-180)" xlink:href="#item_6">
<title>item, id: 6, transf: [r: -180.000°, t: (2.000, 2.198)]</title>
</use>
<use transform="translate(11.001029 6.002482), rotate(-180)" xlink:href="#item_6">
<title>item, id: 6, transf: [r: -180.000°, t: (11.001, 6.002)]</title>
</use>
<use transform="translate(2.000352 0.000014543533), rotate(0)" xlink:href="#item_6">
<title>item, id: 6, transf: [r: 0.000°, t: (2.000, 0.000)]</title>
</use>
</g>
<g id="quality_zones"/>
<g id="optionals">
<g id="overlap_lines" transform="translate(0 0), rotate(0)"/>
</g>
<text font-family="monospace" font-size="0.37503752" font-weight="500" x="0" y="-0.18751876">
height: 15.002 | width: 25.708 | usage: 84.014% | final_bench_38
</text>
</svg>