<svg viewBox="-1.2742399 -0.75007516 28.033274 16.50165" xmlns="http://www.w3.org/2000/svg" xmlns:xlink="http://www.w3.org/1999/xlink">
<g id="bin_0">
<path d="M0,0 L25.484793,0 L25.484793,15.0015 L0,15.0015 z" fill="#D3D3D3" stroke="black" stroke-width="0.08250825"/>
<title>bin, id: 0, bbox: [x_min: 0.000, y_min: 0.000, x_max: 25.485, y_max: 15.002]</title>
</g>
<g id="items">
<defs>
<g id="item_0">
<path d="M0,0 L2,-1 L4,0 L4,3 L2,4 L0,3 z" fill="#7A7A7A" fill-opacity="0.5" fill-rule="nonzero" stroke="black" stroke-width="0.041254126"/>
</g>
<g id="item_1">
<path d="M0,0 L3,0 L2,2 L3,4 L3,5 L1,5 L-1,3 L-1,1 z" fill="#7A7A7A" fill-opacity="0.5" fill-rule="nonzero" stroke="black" stroke-width="0.041254126"/>
</g>
<g id="item_2">
<path d="M0,0 L2,0 L3,1 L3,3 L2,4 L0,4 L-1,3 L-1,1 z" fill="#7A7A7A" fill-opacity="0.5" fill-rule="nonzero" stroke="black" stroke-width="0.041254126"/>
</g>
<g id="item_3">
<path d="M0,0 L2,1 L4,0 L3,2 L4,5 L2,4 L0,5 L1,3 z" fill="#7A7A7A" fill-opacity="0.5" fill-rule="nonzero" stroke="black" stroke-width="0.041254126"/>
</g>
<g id="item_4">
<path d="M0,0 L5,0 L5,5 L4,5 L3,3 L2,2 L0,1 z" fill="#7A7A7A" fill-opacity="0.5" fill-rule="nonzero" stroke="black" stroke-width="0.041254126"/>
</g>
<g id="item_5">
<path d="M0,0 L2,3 L-2,3 z" fill="#7A7A7A" fill-opacity="0.5" fill-rule="nonzero" stroke="black" stroke-width="0.041254126"/>
</g>
<g id="item_6">
<path d="M0,0 L2,0 L2,2 L0,2 z" fill="#7A7A7A" fill-opacity="0.5" fill-rule="nonzero" stroke="black" stroke-width="0.041254126"/>
</g>
</defs>
<use transform="translate(4.000386 9.0005455), rotate(-180)" xlink:href="#item_3">
<title>item, id: 3, transf: [r: -180.000°, t: (4.000, 9.001)]</title>
</use>
<use transform="translate(7.6671715 5.0000343), rotate(-180)" xlink:href="#item_3">
<title>item, id: 3, transf: [r: -180.000°, t: (7.667, 5.000)]</title>
</use>
<use transform="translate(11.2684 8.800571), rotate(-180)" xlink:href="#item_3">
<title>item, id: 3, transf: [r: -180.000°, t: (11.268, 8.801)]</title>
</use>
<use transform="translate(18.544985 5.000827), rotate(-180)" xlink:href="#item_3">
<title>item, id: 3, transf: [r: -180.000°, t: (18.545, 5.001)]</title>
</use>
<use transform="translate(12.983496 9.163344), rotate(0)" xlink:href="#item_4">
<title>item, id: 4, transf: [r: 0.000°, t: (12.983, 9.163)]</title>
</use>
<use transform="translate(20.46565 5.198918), rotate(0)" xlink:href="#item_4">
<title>item, id: 4, transf: [r: 0.000°, t: (20.466, 5.199)]</title>
</use>
<use transform="translate(13.005476 15.001096), rotate(-180)" xlink:href="#item_4">
<title>item, id: 4, transf: [r: -180.000°, t: (13.005, 15.001)]</title>
</use>
<use transform="translate(23.8615 10.000775), rotate(-180)" xlink:href="#item_4">
<title>item, id: 4, transf: [r: -180.000°, t: (23.861, 10.001)]</title>
</use>
<use transform="translate(18.98418 0.12281871), rotate(0)" xlink:href="#item_1">
<title>item, id: 1, transf: [r: 0.000°, t: (18.984, 0.123)]</title>
</use>
<use transform="translate(22.48479 0.12195563), rotate(0)" xlink:href="#item_1">
<title>item, id: 1, transf: [r: 0.000°, t: (22.485, 0.122)]</title>
</use>
<use transform="translate(24.484446 15.001464), rotate(-180)" xlink:href="#item_1">
<title>item, id: 1, transf: [r: -180.000°, t: (24.484, 15.001)]</title>
</use>
<use transform="translate(20.983772 15.001168), rotate(-180)" xlink:href="#item_1">
<title>item, id: 1, transf: [r: -180.000°, t: (20.984, 15.001)]</title>
</use>
<use transform="translate(14.861082 5.1620955), rotate(0)" xlink:href="#item_0">
<title>item, id: 0, transf: [r: 0.000°, t: (14.861, 5.162)]</title>
</use>
<use transform="translate(7.6683054 8.000741), rotate(-180)" xlink:href="#item_0">
<title>item, id: 0, transf: [r: -180.000°, t: (7.668, 8.001)]</title>
</use>
<use transform="translate(4.0005565 4.000362), rotate(-180)" xlink:href="#item_0">
<title>item, id: 0, transf: [r: -180.000°, t: (4.001, 4.000)]</title>
</use>
<use transform="translate(0.0020747185 9.00151), rotate(0)" xlink:href="#item_0">
<title>item, id: 0, transf: [r: 0.000°, t: (0.002, 9.002)]</title>
</use>
<use transform="translate(12.067973 0.5773616), rotate(0)" xlink:href="#item_2">
<title>item, id: 2, transf: [r: 0.000°, t: (12.068, 0.577)]</title>
</use>
<use transform="translate(7.0037055 13.000899), rotate(-180)" xlink:href="#item_2">
<title>item, id: 2, transf: [r: -180.000°, t: (7.004, 13.001)]</title>
</use>
<use transform="translate(10.067893 4.199481), rotate(-180)" xlink:href="#item_2">
<title>item, id: 2, transf: [r: -180.000°, t: (10.068, 4.199)]</title>
</use>
<use transform="translate(11.861063 4.577378), rotate(0)" xlink:href="#item_2">
<title>item, id: 2, transf: [r: 0.000°, t: (11.861, 4.577)]</title>
</use>
<use transform="translate(10.206461 11.800931), rotate(-180)" xlink:href="#item_5">
<title>item, id: 5, transf: [r: -180.000°, t: (10.206, 11.801)]</title>
</use>
<use transform="translate(12.140632 8.901507), rotate(0)" xlink:href="#item_5">
<title>item, id: 5, transf: [r: 0.000°, t: (12.141, 8.902)]</title>
</use>
<use transform="translate(15.541923 12.001304), rotate(0)" xlink:href="#item_5">
<title>item, id: 5, transf: [r: 0.000°, t: (15.542, 12.001)]</title>
</use>
<use transform="translate(13.606903 14.90212), rotate(-180)" xlink:href="#item_5">
<title>item, id: 5, transf: [r: -180.000°, t: (13.607, 14.902)]</title>
</use>
<use transform="translate(6.0051937 13.000929), rotate(0)" xlink:href="#item_6">
<title>item, id: 6, transf: [r: 0.000°, t: (6.005, 13.001)]</title>
</use>
<use transform="translate(6.00482 15.001371), rotate(-180)" xlink:href="#item_6">
<title>item, id: 6, transf: [r: -180.000°, t: (6.005, 15.001)]</title>
</use>
<use transform="translate(4.003191 15.001376), rotate(-180)" xlink:href="#item_6">
<title>item, id: 6, transf: [r: -180.000°, t: (4.003, 15.001)]</title>
</use>
<use transform="translate(0.0002475977 13.001466), rotate(0)" xlink:href="#item_6">
<title>item, id: 6, transf: [r: 0.000°, t: (0.000, 13.001)]</title>
</use>
</g>
<g id="quality_zones"/>
<g id="optionals">
<g id="overlap_lines" transform="translate(0 0), rotate(0)"/>
</g>
<text font-family="monospace" font-size="0.37503752" font-weight="500" x="0" y="-0.18751876">
height: 15.002 | width: 25.485 | usage: 84.748% | final_bench_37
</text>
</svg>