<svg viewBox="-84.846115 -127.50003 1866.614 2805" xmlns="http://www.w3.org/2000/svg" xmlns:xlink="http://www.w3.org/1999/xlink">
<g id="bin_0">
<path d="M0,0 L1696.9219,0 L1696.9219,2550 L0,2550 z" fill="#E0E0E0" stroke="black" stroke-width="9.333071"/>
<title>bin, id: 0, bbox: [x_min: 0.000, y_min: 0.000, x_max: 1696.922, y_max: 2550.000]</title>
</g>
<g id="items">
<defs>
<g id="item_0">
<path d="M10,115 L478,113 L727,21 L856,44 L930,47 L1049,0 L1097,295 L1078,396 L0,407 z" fill="#7A7A7A" fill-opacity="0.5" fill-rule="nonzero" stroke="black" stroke-width="4.6665354"/>
</g>
<g id="item_1">
<path d="M0,0 L316,2 L316,274 L0,275 z" fill="#7A7A7A" fill-opacity="0.5" fill-rule="nonzero" stroke="black" stroke-width="4.6665354"/>
</g>
<g id="item_2">
<path d="M0,1 L239,0 L242,80 L0,78 z" fill="#7A7A7A" fill-opacity="0.5" fill-rule="nonzero" stroke="black" stroke-width="4.6665354"/>
</g>
<g id="item_3">
<path d="M0,310 L0,119 L384,0 L384,70 L759,69 L758,310 z" fill="#7A7A7A" fill-opacity="0.5" fill-rule="nonzero" stroke="black" stroke-width="4.6665354"/>
</g>
<g id="item_4">
<path d="M0,252 L0,75 L150,0 L148,175 z" fill="#7A7A7A" fill-opacity="0.5" fill-rule="nonzero" stroke="black" stroke-width="4.6665354"/>
</g>
<g id="item_5">
<path d="M852,412 L503,414 L387,451 L355,505 L300,451 L45,325 L0,221 L0,154 L55,53 L145,16 L329,25 L407,35 L539,38 L597,51 L668,20 L736,0 L784,3 L849,194 z" fill="#7A7A7A" fill-opacity="0.5" fill-rule="nonzero" stroke="black" stroke-width="4.6665354"/>
</g>
<g id="item_6">
<path d="M0,232 L827,0 L894,20 L975,258 L1097,260 L1003,500 L884,463 L845,453 L761,490 L732,547 L694,544 L616,477 L539,414 L0,426 z" fill="#7A7A7A" fill-opacity="0.5" fill-rule="nonzero" stroke="black" stroke-width="4.6665354"/>
</g>
<g id="item_7">
<path d="M151,427 L97,266 L0,259 L75,28 L126,21 L191,61 L271,50 L316,64 L359,10 L436,6 L442,43 L694,75 L726,42 L1091,0 L1094,211 L1033,208 L987,346 L926,393 z" fill="#7A7A7A" fill-opacity="0.5" fill-rule="nonzero" stroke="black" stroke-width="4.6665354"/>
</g>
<g id="item_8">
<path d="M0,0 L745,24 L619,196 L590,276 L522,260 L6,282 z" fill="#7A7A7A" fill-opacity="0.5" fill-rule="nonzero" stroke="black" stroke-width="4.6665354"/>
</g>
</defs>
<use transform="translate(306.85254 1325.3036), rotate(0)" xlink:href="#item_6">
<title>item, id: 6, transf: [r: 0.000°, t: (306.853, 1325.304)]</title>
</use>
<use transform="translate(1138.9246 1555.7935), rotate(-180)" xlink:href="#item_6">
<title>item, id: 6, transf: [r: -180.000°, t: (1138.925, 1555.793)]</title>
</use>
<use transform="translate(821.3293 0.69818115), rotate(90)" xlink:href="#item_7">
<title>item, id: 7, transf: [r: 90.000°, t: (821.329, 0.698)]</title>
</use>
<use transform="translate(1.9952087 1094.195), rotate(-90)" xlink:href="#item_7">
<title>item, id: 7, transf: [r: -90.000°, t: (1.995, 1094.195)]</title>
</use>
<use transform="translate(1217.8842 0.016601563), rotate(90)" xlink:href="#item_0">
<title>item, id: 0, transf: [r: 90.000°, t: (1217.884, 0.017)]</title>
</use>
<use transform="translate(1289.9116 1828.7717), rotate(-90)" xlink:href="#item_0">
<title>item, id: 0, transf: [r: -90.000°, t: (1289.912, 1828.772)]</title>
</use>
<use transform="translate(852.08875 2549.9739), rotate(-180)" xlink:href="#item_5">
<title>item, id: 5, transf: [r: -180.000°, t: (852.089, 2549.974)]</title>
</use>
<use transform="translate(1692.3577 2285.4426), rotate(-180)" xlink:href="#item_5">
<title>item, id: 5, transf: [r: -180.000°, t: (1692.358, 2285.443)]</title>
</use>
<use transform="translate(310.03598 1377.5771), rotate(90)" xlink:href="#item_3">
<title>item, id: 3, transf: [r: 90.000°, t: (310.036, 1377.577)]</title>
</use>
<use transform="translate(1104.8507 759.0338), rotate(-90)" xlink:href="#item_3">
<title>item, id: 3, transf: [r: -90.000°, t: (1104.851, 759.034)]</title>
</use>
<use transform="translate(1696.8951 2549.9739), rotate(-180)" xlink:href="#item_8">
<title>item, id: 8, transf: [r: -180.000°, t: (1696.895, 2549.974)]</title>
</use>
<use transform="translate(1696.9199 0.0121154785), rotate(90)" xlink:href="#item_8">
<title>item, id: 8, transf: [r: 90.000°, t: (1696.920, 0.012)]</title>
</use>
<use transform="translate(557.1482 2061.889), rotate(-90)" xlink:href="#item_1">
<title>item, id: 1, transf: [r: -90.000°, t: (557.148, 2061.889)]</title>
</use>
<use transform="translate(241.1113 1770.6962), rotate(0)" xlink:href="#item_1">
<title>item, id: 1, transf: [r: 0.000°, t: (241.111, 1770.696)]</title>
</use>
<use transform="translate(1139.3894 1013.34094), rotate(0)" xlink:href="#item_4">
<title>item, id: 4, transf: [r: 0.000°, t: (1139.389, 1013.341)]</title>
</use>
<use transform="translate(860.08435 2274.2314), rotate(0)" xlink:href="#item_4">
<title>item, id: 4, transf: [r: 0.000°, t: (860.084, 2274.231)]</title>
</use>
<use transform="translate(1400.4617 1341.9008), rotate(90)" xlink:href="#item_2">
<title>item, id: 2, transf: [r: 90.000°, t: (1400.462, 1341.901)]</title>
</use>
<use transform="translate(1279.0597 759.31256), rotate(90)" xlink:href="#item_2">
<title>item, id: 2, transf: [r: 90.000°, t: (1279.060, 759.313)]</title>
</use>
<use transform="translate(1242.9733 1468.2976), rotate(-90)" xlink:href="#item_2">
<title>item, id: 2, transf: [r: -90.000°, t: (1242.973, 1468.298)]</title>
</use>
<use transform="translate(551.5004 92.39133), rotate(-180)" xlink:href="#item_2">
<title>item, id: 2, transf: [r: -180.000°, t: (551.500, 92.391)]</title>
</use>
</g>
<g id="quality_zones"/>
<g id="optionals">
<g id="overlap_lines" transform="translate(0 0), rotate(0)"/>
</g>
<text font-family="monospace" font-size="42.423046" font-weight="500" x="0" y="-21.211523">
height: 2550.000 | width: 1696.922 | usage: 86.861% | best_final
</text>
</svg>