<svg viewBox="-11.796677 -3.950001 259.52682 86.90001" xmlns="http://www.w3.org/2000/svg" xmlns:xlink="http://www.w3.org/1999/xlink">
<g id="bin_0">
<path d="M0,0 L235.93347,0 L235.93347,79 L0,79 z" fill="#D3D3D3" stroke="black" stroke-width="0.43450004"/>
<title>bin, id: 0, bbox: [x_min: 0.000, y_min: 0.000, x_max: 235.933, y_max: 79.000]</title>
</g>
<g id="items">
<defs>
<g id="item_0">
<path d="M0,0 L12,-1 L14,-3.0000005 L24,0 L33,1 L59,2 L59,13 L4,13 L4,8 L2,5 L0,5 z" fill="#7A7A7A" fill-opacity="0.5" fill-rule="nonzero" stroke="black" stroke-width="0.21725002"/>
</g>
<g id="item_1">
<path d="M0,0 L0,-14 L27,-17 L37,-20 L41,-22 L47,-19 L56,-16 L56,0 z" fill="#7A7A7A" fill-opacity="0.5" fill-rule="nonzero" stroke="black" stroke-width="0.21725002"/>
</g>
<g id="item_2">
<path d="M0,0 L57,0 L57,5 L0,5 z" fill="#7A7A7A" fill-opacity="0.5" fill-rule="nonzero" stroke="black" stroke-width="0.21725002"/>
</g>
<g id="item_3">
<path d="M0,0 L52,0 L52,5 L0,5 z" fill="#7A7A7A" fill-opacity="0.5" fill-rule="nonzero" stroke="black" stroke-width="0.21725002"/>
</g>
<g id="item_4">
<path d="M0,0 L44,0 L44,5 L0,5 z" fill="#7A7A7A" fill-opacity="0.5" fill-rule="nonzero" stroke="black" stroke-width="0.21725002"/>
</g>
<g id="item_5">
<path d="M0,0 L42,0 L42,5 L0,5 z" fill="#7A7A7A" fill-opacity="0.5" fill-rule="nonzero" stroke="black" stroke-width="0.21725002"/>
</g>
<g id="item_6">
<path d="M0,0 L21,0 L21,2 L0,2 z" fill="#7A7A7A" fill-opacity="0.5" fill-rule="nonzero" stroke="black" stroke-width="0.21725002"/>
</g>
<g id="item_7">
<path d="M0,0 L15,4 L13,7 L0,6 z" fill="#7A7A7A" fill-opacity="0.5" fill-rule="nonzero" stroke="black" stroke-width="0.21725002"/>
</g>
<g id="item_8">
<path d="M0,0 L15,1 L15,4 L0,4 z" fill="#7A7A7A" fill-opacity="0.5" fill-rule="nonzero" stroke="black" stroke-width="0.21725002"/>
</g>
<g id="item_9">
<path d="M0,0 L14,0 L14,5 L0,5 z" fill="#7A7A7A" fill-opacity="0.5" fill-rule="nonzero" stroke="black" stroke-width="0.21725002"/>
</g>
<g id="item_10">
<path d="M0,0 L14,1 L14,4 L0,4 z" fill="#7A7A7A" fill-opacity="0.5" fill-rule="nonzero" stroke="black" stroke-width="0.21725002"/>
</g>
<g id="item_11">
<path d="M0,0 L13,0 L13,5 L0,5 z" fill="#7A7A7A" fill-opacity="0.5" fill-rule="nonzero" stroke="black" stroke-width="0.21725002"/>
</g>
<g id="item_12">
<path d="M0,0 L13,1 L13,4 L0,4 z" fill="#7A7A7A" fill-opacity="0.5" fill-rule="nonzero" stroke="black" stroke-width="0.21725002"/>
</g>
<g id="item_13">
<path d="M0,0 L12,0 L12,5 L0,5 z" fill="#7A7A7A" fill-opacity="0.5" fill-rule="nonzero" stroke="black" stroke-width="0.21725002"/>
</g>
<g id="item_14">
<path d="M0,0 L4,2 L6,10 L4,11 L-4,11 L-6,10 L-4,2 z" fill="#7A7A7A" fill-opacity="0.5" fill-rule="nonzero" stroke="black" stroke-width="0.21725002"/>
</g>
<g id="item_15">
<path d="M0,0 L3,-2 L8,0 L8,8 L2,8 z" fill="#7A7A7A" fill-opacity="0.5" fill-rule="nonzero" stroke="black" stroke-width="0.21725002"/>
</g>
<g id="item_16">
<path d="M0,0 L2,1 L3,6 L2,7 L-2,7 L-3,6 L-2,1 z" fill="#7A7A7A" fill-opacity="0.5" fill-rule="nonzero" stroke="black" stroke-width="0.21725002"/>
</g>
</defs>
<use transform="translate(171.0193 42.315758), rotate(-180)" xlink:href="#item_1">
<title>item, id: 1, transf: [r: -180.000°, t: (171.019, 42.316)]</title>
</use>
<use transform="translate(115.17008 5.004608), rotate(-180)" xlink:href="#item_1">
<title>item, id: 1, transf: [r: -180.000°, t: (115.170, 5.005)]</title>
</use>
<use transform="translate(115.0103 42.322075), rotate(-180)" xlink:href="#item_1">
<title>item, id: 1, transf: [r: -180.000°, t: (115.010, 42.322)]</title>
</use>
<use transform="translate(123.91849 78.99668), rotate(0)" xlink:href="#item_1">
<title>item, id: 1, transf: [r: 0.000°, t: (123.918, 78.997)]</title>
</use>
<use transform="translate(179.91954 78.99553), rotate(0)" xlink:href="#item_1">
<title>item, id: 1, transf: [r: 0.000°, t: (179.920, 78.996)]</title>
</use>
<use transform="translate(227.04971 42.30693), rotate(-180)" xlink:href="#item_1">
<title>item, id: 1, transf: [r: -180.000°, t: (227.050, 42.307)]</title>
</use>
<use transform="translate(179.60237 37.302505), rotate(0)" xlink:href="#item_1">
<title>item, id: 1, transf: [r: 0.000°, t: (179.602, 37.303)]</title>
</use>
<use transform="translate(67.91516 78.9996), rotate(0)" xlink:href="#item_1">
<title>item, id: 1, transf: [r: 0.000°, t: (67.915, 79.000)]</title>
</use>
<use transform="translate(8.032732 65.9999), rotate(0)" xlink:href="#item_0">
<title>item, id: 0, transf: [r: 0.000°, t: (8.033, 66.000)]</title>
</use>
<use transform="translate(0.005296707 29.799463), rotate(0)" xlink:href="#item_0">
<title>item, id: 0, transf: [r: 0.000°, t: (0.005, 29.799)]</title>
</use>
<use transform="translate(174.18918 13.022815), rotate(-180)" xlink:href="#item_0">
<title>item, id: 0, transf: [r: -180.000°, t: (174.189, 13.023)]</title>
</use>
<use transform="translate(233.19237 13.005724), rotate(-180)" xlink:href="#item_0">
<title>item, id: 0, transf: [r: -180.000°, t: (233.192, 13.006)]</title>
</use>
<use transform="translate(59.01798 18.003532), rotate(-180)" xlink:href="#item_0">
<title>item, id: 0, transf: [r: -180.000°, t: (59.018, 18.004)]</title>
</use>
<use transform="translate(118.07946 24.29938), rotate(0)" xlink:href="#item_0">
<title>item, id: 0, transf: [r: 0.000°, t: (118.079, 24.299)]</title>
</use>
<use transform="translate(59.00198 55.799892), rotate(-180)" xlink:href="#item_0">
<title>item, id: 0, transf: [r: -180.000°, t: (59.002, 55.800)]</title>
</use>
<use transform="translate(61.928352 29.3145), rotate(0)" xlink:href="#item_0">
<title>item, id: 0, transf: [r: 0.000°, t: (61.928, 29.315)]</title>
</use>
<use transform="translate(70.151596 5.0000277), rotate(-180)" xlink:href="#item_2">
<title>item, id: 2, transf: [r: -180.000°, t: (70.152, 5.000)]</title>
</use>
<use transform="translate(214.93176 42.306736), rotate(-180)" xlink:href="#item_3">
<title>item, id: 3, transf: [r: -180.000°, t: (214.932, 42.307)]</title>
</use>
<use transform="translate(70.15585 0.00046777725), rotate(0)" xlink:href="#item_4">
<title>item, id: 4, transf: [r: 0.000°, t: (70.156, 0.000)]</title>
</use>
<use transform="translate(162.92886 42.311317), rotate(-180)" xlink:href="#item_5">
<title>item, id: 5, transf: [r: -180.000°, t: (162.929, 42.311)]</title>
</use>
<use transform="translate(126.84077 22.641914), rotate(-180)" xlink:href="#item_14">
<title>item, id: 14, transf: [r: -180.000°, t: (126.841, 22.642)]</title>
</use>
<use transform="translate(166.29002 14.725662), rotate(0)" xlink:href="#item_14">
<title>item, id: 14, transf: [r: 0.000°, t: (166.290, 14.726)]</title>
</use>
<use transform="translate(50.644382 31.190369), rotate(-180)" xlink:href="#item_14">
<title>item, id: 14, transf: [r: -180.000°, t: (50.644, 31.190)]</title>
</use>
<use transform="translate(11.569938 27.604822), rotate(-180)" xlink:href="#item_14">
<title>item, id: 14, transf: [r: -180.000°, t: (11.570, 27.605)]</title>
</use>
<use transform="translate(40.830345 19.945797), rotate(0)" xlink:href="#item_14">
<title>item, id: 14, transf: [r: 0.000°, t: (40.830, 19.946)]</title>
</use>
<use transform="translate(31.525667 29.161898), rotate(-180)" xlink:href="#item_14">
<title>item, id: 14, transf: [r: -180.000°, t: (31.526, 29.162)]</title>
</use>
<use transform="translate(21.433937 16.827625), rotate(0)" xlink:href="#item_14">
<title>item, id: 14, transf: [r: 0.000°, t: (21.434, 16.828)]</title>
</use>
<use transform="translate(12.212924 65.442345), rotate(-180)" xlink:href="#item_14">
<title>item, id: 14, transf: [r: -180.000°, t: (12.213, 65.442)]</title>
</use>
<use transform="translate(184.1765 15.89407), rotate(0)" xlink:href="#item_9">
<title>item, id: 9, transf: [r: 0.000°, t: (184.176, 15.894)]</title>
</use>
<use transform="translate(52.895805 57.31857), rotate(0)" xlink:href="#item_7">
<title>item, id: 7, transf: [r: 0.000°, t: (52.896, 57.319)]</title>
</use>
<use transform="translate(96.71214 30.371794), rotate(-180)" xlink:href="#item_7">
<title>item, id: 7, transf: [r: -180.000°, t: (96.712, 30.372)]</title>
</use>
<use transform="translate(31.68275 65.56621), rotate(-180)" xlink:href="#item_7">
<title>item, id: 7, transf: [r: -180.000°, t: (31.683, 65.566)]</title>
</use>
<use transform="translate(56.522175 21.681232), rotate(0)" xlink:href="#item_7">
<title>item, id: 7, transf: [r: 0.000°, t: (56.522, 21.681)]</title>
</use>
<use transform="translate(146.32277 24.75165), rotate(-180)" xlink:href="#item_7">
<title>item, id: 7, transf: [r: -180.000°, t: (146.323, 24.752)]</title>
</use>
<use transform="translate(147.26695 18.990213), rotate(-180)" xlink:href="#item_7">
<title>item, id: 7, transf: [r: -180.000°, t: (147.267, 18.990)]</title>
</use>
<use transform="translate(198.17726 11.928368), rotate(0)" xlink:href="#item_7">
<title>item, id: 7, transf: [r: 0.000°, t: (198.177, 11.928)]</title>
</use>
<use transform="translate(147.2718 12.794935), rotate(0)" xlink:href="#item_7">
<title>item, id: 7, transf: [r: 0.000°, t: (147.272, 12.795)]</title>
</use>
<use transform="translate(159.44006 24.777058), rotate(-180)" xlink:href="#item_11">
<title>item, id: 11, transf: [r: -180.000°, t: (159.440, 24.777)]</title>
</use>
<use transform="translate(214.93318 37.30417), rotate(0)" xlink:href="#item_6">
<title>item, id: 6, transf: [r: 0.000°, t: (214.933, 37.304)]</title>
</use>
<use transform="translate(214.9326 39.95612), rotate(0)" xlink:href="#item_6">
<title>item, id: 6, transf: [r: 0.000°, t: (214.933, 39.956)]</title>
</use>
<use transform="translate(96.860855 28.387777), rotate(0)" xlink:href="#item_6">
<title>item, id: 6, transf: [r: 0.000°, t: (96.861, 28.388)]</title>
</use>
<use transform="translate(174.56554 11.850776), rotate(0)" xlink:href="#item_6">
<title>item, id: 6, transf: [r: 0.000°, t: (174.566, 11.851)]</title>
</use>
<use transform="translate(113.714745 23.935562), rotate(-180)" xlink:href="#item_6">
<title>item, id: 6, transf: [r: -180.000°, t: (113.715, 23.936)]</title>
</use>
<use transform="translate(96.730606 24.062468), rotate(0)" xlink:href="#item_6">
<title>item, id: 6, transf: [r: 0.000°, t: (96.731, 24.062)]</title>
</use>
<use transform="translate(177.15175 13.892236), rotate(0)" xlink:href="#item_6">
<title>item, id: 6, transf: [r: 0.000°, t: (177.152, 13.892)]</title>
</use>
<use transform="translate(96.74612 26.385391), rotate(0)" xlink:href="#item_6">
<title>item, id: 6, transf: [r: 0.000°, t: (96.746, 26.385)]</title>
</use>
<use transform="translate(52.87397 63.45312), rotate(0)" xlink:href="#item_8">
<title>item, id: 8, transf: [r: 0.000°, t: (52.874, 63.453)]</title>
</use>
<use transform="translate(0.0032024384 0.0023665428), rotate(0)" xlink:href="#item_13">
<title>item, id: 13, transf: [r: 0.000°, t: (0.003, 0.002)]</title>
</use>
<use transform="translate(12.00382 78.99949), rotate(-180)" xlink:href="#item_13">
<title>item, id: 13, transf: [r: -180.000°, t: (12.004, 78.999)]</title>
</use>
<use transform="translate(235.91682 59.967823), rotate(-180)" xlink:href="#item_15">
<title>item, id: 15, transf: [r: -180.000°, t: (235.917, 59.968)]</title>
</use>
<use transform="translate(123.20317 22.11508), rotate(-180)" xlink:href="#item_15">
<title>item, id: 15, transf: [r: -180.000°, t: (123.203, 22.115)]</title>
</use>
<use transform="translate(170.24239 16.371628), rotate(0)" xlink:href="#item_15">
<title>item, id: 15, transf: [r: 0.000°, t: (170.242, 16.372)]</title>
</use>
<use transform="translate(227.9317 43.960598), rotate(0)" xlink:href="#item_15">
<title>item, id: 15, transf: [r: 0.000°, t: (227.932, 43.961)]</title>
</use>
<use transform="translate(0.0011734962 65.995125), rotate(0)" xlink:href="#item_15">
<title>item, id: 15, transf: [r: 0.000°, t: (0.001, 65.995)]</title>
</use>
<use transform="translate(44.87354 58.893387), rotate(0)" xlink:href="#item_15">
<title>item, id: 15, transf: [r: 0.000°, t: (44.874, 58.893)]</title>
</use>
<use transform="translate(8.0070915 27.37195), rotate(-180)" xlink:href="#item_15">
<title>item, id: 15, transf: [r: -180.000°, t: (8.007, 27.372)]</title>
</use>
<use transform="translate(8.011904 62.774757), rotate(-180)" xlink:href="#item_15">
<title>item, id: 15, transf: [r: -180.000°, t: (8.012, 62.775)]</title>
</use>
<use transform="translate(18.2505 54.54973), rotate(0)" xlink:href="#item_10">
<title>item, id: 10, transf: [r: 0.000°, t: (18.250, 54.550)]</title>
</use>
<use transform="translate(45.904835 67.09482), rotate(-180)" xlink:href="#item_12">
<title>item, id: 12, transf: [r: -180.000°, t: (45.905, 67.095)]</title>
</use>
<use transform="translate(32.150024 59.09079), rotate(0)" xlink:href="#item_12">
<title>item, id: 12, transf: [r: 0.000°, t: (32.150, 59.091)]</title>
</use>
<use transform="translate(62.64539 35.28949), rotate(0)" xlink:href="#item_16">
<title>item, id: 16, transf: [r: 0.000°, t: (62.645, 35.289)]</title>
</use>
<use transform="translate(232.8754 20.274553), rotate(-180)" xlink:href="#item_16">
<title>item, id: 16, transf: [r: -180.000°, t: (232.875, 20.275)]</title>
</use>
<use transform="translate(232.83784 7.455508), rotate(-180)" xlink:href="#item_16">
<title>item, id: 16, transf: [r: -180.000°, t: (232.838, 7.456)]</title>
</use>
<use transform="translate(181.24817 15.896655), rotate(0)" xlink:href="#item_16">
<title>item, id: 16, transf: [r: 0.000°, t: (181.248, 15.897)]</title>
</use>
</g>
<g id="quality_zones"/>
<g id="optionals">
<g id="overlap_lines" transform="translate(0 0), rotate(0)"/>
</g>
<text font-family="monospace" font-size="1.975" font-weight="500" x="0" y="-0.9875">
height: 79.000 | width: 235.933 | usage: 92.316% | final_best
</text>
</svg>